<svg xmlns="http://www.w3.org/2000/svg" xmlns:xlink="http://www.w3.org/1999/xlink" width="93.087" height="93.088" viewBox="0 0 93.087 93.088">
  <defs>
    <linearGradient id="linear-gradient" x1="0.183" y1="0.121" x2="0.82" y2="0.883" gradientUnits="objectBoundingBox">
      <stop offset="0" stop-color="#6bfefc"/>
      <stop offset="1" stop-color="#0099e6"/>
    </linearGradient>
    <filter id="Trazado_182043" x="0" y="0" width="93.087" height="93.088" filterUnits="userSpaceOnUse">
      <feOffset dx="3" dy="3" input="SourceAlpha"/>
      <feGaussianBlur stdDeviation="3" result="blur"/>
      <feFlood flood-opacity="0.282"/>
      <feComposite operator="in" in2="blur"/>
      <feComposite in="SourceGraphic"/>
    </filter>
    <linearGradient id="linear-gradient-2" x1="0.183" y1="0.121" x2="0.82" y2="0.883" gradientUnits="objectBoundingBox">
      <stop offset="0" stop-color="#4bc4ff"/>
      <stop offset="1" stop-color="#43c0eb"/>
    </linearGradient>
    <linearGradient id="linear-gradient-3" x1="0.18" y1="0.116" x2="0.82" y2="0.884" gradientUnits="objectBoundingBox">
      <stop offset="0" stop-color="#fff"/>
      <stop offset="1" stop-color="#b4e7e8"/>
    </linearGradient>
    <linearGradient id="linear-gradient-4" x1="0.18" y1="0.116" x2="0.82" y2="0.884" gradientUnits="objectBoundingBox">
      <stop offset="0" stop-color="#0072c9"/>
      <stop offset="0.012" stop-color="#0174c9"/>
      <stop offset="0.344" stop-color="#2da9e0"/>
      <stop offset="0.63" stop-color="#4dd0f0"/>
      <stop offset="0.859" stop-color="#60e8fa"/>
      <stop offset="1" stop-color="#68f1fe"/>
    </linearGradient>
  </defs>
  <g id="Grupo_120587" data-name="Grupo 120587" transform="translate(-869.131 -216.179)">
    <g id="Grupo_120544" data-name="Grupo 120544" transform="translate(1092.364 105.26)">
      <g transform="matrix(1, 0, 0, 1, -223.23, 110.92)" filter="url(#Trazado_182043)">
        <path id="Trazado_182043-2" data-name="Trazado 182043" d="M-142.146,154.463a37.543,37.543,0,0,1-37.543,37.544,37.544,37.544,0,0,1-37.544-37.544,37.544,37.544,0,0,1,37.544-37.544A37.543,37.543,0,0,1-142.146,154.463Z" transform="translate(223.23 -110.92)" fill="url(#linear-gradient)"/>
      </g>
      <path id="Trazado_182044" data-name="Trazado 182044" d="M-142.249,154.841a37.138,37.138,0,0,1-37.138,37.139,37.138,37.138,0,0,1-37.138-37.139A37.137,37.137,0,0,1-179.387,117.7,37.138,37.138,0,0,1-142.249,154.841Z" transform="translate(-0.302 -0.334)" fill="url(#linear-gradient-2)"/>
      <g id="Grupo_120541" data-name="Grupo 120541" transform="translate(-209.761 125.25)">
        <path id="Trazado_182045" data-name="Trazado 182045" d="M-144.1,161.486a30.057,30.057,0,0,1-30.058,30.057,30.056,30.056,0,0,1-30.055-30.057,30.055,30.055,0,0,1,30.055-30.056A30.057,30.057,0,0,1-144.1,161.486Z" transform="translate(204.218 -131.43)" fill="url(#linear-gradient-3)"/>
      </g>
      <g id="Grupo_120543" data-name="Grupo 120543" transform="translate(-209.951 125.013)" opacity="0.5">
        <path id="Trazado_182046" data-name="Trazado 182046" d="M-174.3,134.2a27.091,27.091,0,0,1,27.06,27.06,27.09,27.09,0,0,1-27.06,27.06,27.091,27.091,0,0,1-27.06-27.06A27.091,27.091,0,0,1-174.3,134.2m0-3.185a30.246,30.246,0,0,0-30.245,30.245A30.245,30.245,0,0,0-174.3,191.508a30.244,30.244,0,0,0,30.245-30.245A30.245,30.245,0,0,0-174.3,131.017Z" transform="translate(204.549 -131.017)" fill="#c2ecf9"/>
      </g>
      <path id="Trazado_182047" data-name="Trazado 182047" d="M-174.134,134.6a26.921,26.921,0,0,1,26.891,26.891,26.921,26.921,0,0,1-26.891,26.891,26.921,26.921,0,0,1-26.891-26.891A26.921,26.921,0,0,1-174.134,134.6m0-3.165a30.055,30.055,0,0,0-30.057,30.056,30.056,30.056,0,0,0,30.057,30.057,30.057,30.057,0,0,0,30.057-30.057,30.056,30.056,0,0,0-30.057-30.056Z" transform="translate(-5.554 -6.18)" fill="url(#linear-gradient-4)"/>
    </g>
    <g id="Grupo_120555" data-name="Grupo 120555" transform="translate(1046.286 124.567)">
      <g id="Grupo_120548" data-name="Grupo 120548" transform="translate(-151.187 127.204)">
        <path id="Trazado_182048" data-name="Trazado 182048" d="M-120.36,150.861h-30.2a.624.624,0,0,1-.624-.624V129.407a.625.625,0,0,1,.624-.624h30.2a.624.624,0,0,1,.624.624v20.829A.624.624,0,0,1-120.36,150.861Zm-29.578-1.249h28.954v-19.58h-28.954Z" transform="translate(151.187 -128.783)" fill="#1d7e96"/>
      </g>
      <g id="Grupo_120549" data-name="Grupo 120549" transform="translate(-151.187 127.204)">
        <path id="Trazado_182049" data-name="Trazado 182049" d="M-135.462,143.571a.62.62,0,0,1-.417-.159l-15.1-13.539a.625.625,0,0,1-.167-.688.626.626,0,0,1,.583-.4h30.2a.625.625,0,0,1,.583.4.626.626,0,0,1-.166.688l-15.1,13.539A.624.624,0,0,1-135.462,143.571Zm-13.469-13.538,13.469,12.075,13.469-12.075Z" transform="translate(151.187 -128.783)" fill="#1d7e96"/>
      </g>
      <g id="Grupo_120550" data-name="Grupo 120550" transform="translate(-151.187 137.227)">
        <path id="Trazado_182050" data-name="Trazado 182050" d="M-150.563,152.8a.625.625,0,0,1-.449-.19.625.625,0,0,1,.015-.883l11.181-10.805a.625.625,0,0,1,.883.015.625.625,0,0,1-.015.883l-11.181,10.805A.622.622,0,0,1-150.563,152.8Z" transform="translate(151.187 -140.744)" fill="#1d7e96"/>
      </g>
      <g id="Grupo_120551" data-name="Grupo 120551" transform="translate(-132.166 137.227)">
        <path id="Trazado_182051" data-name="Trazado 182051" d="M-116.685,152.8a.623.623,0,0,1-.434-.175L-128.3,141.818a.625.625,0,0,1-.015-.883.625.625,0,0,1,.883-.015l11.181,10.805a.625.625,0,0,1,.015.883A.623.623,0,0,1-116.685,152.8Z" transform="translate(128.49 -140.744)" fill="#1d7e96"/>
      </g>
      <g id="Grupo_120552" data-name="Grupo 120552" transform="translate(-128.508 119.03)">
        <circle id="Elipse_5003" data-name="Elipse 5003" cx="6.769" cy="6.769" r="6.769" transform="matrix(0.231, -0.973, 0.973, 0.231, 0, 13.174)" fill="#a3edff"/>
        <path id="Trazado_182052" data-name="Trazado 182052" d="M-115.833,134.717a7.4,7.4,0,0,1-7.394-7.393,7.4,7.4,0,0,1,7.394-7.394,7.4,7.4,0,0,1,7.394,7.394A7.4,7.4,0,0,1-115.833,134.717Zm0-13.539a6.152,6.152,0,0,0-6.145,6.146,6.152,6.152,0,0,0,6.145,6.145,6.152,6.152,0,0,0,6.145-6.145A6.152,6.152,0,0,0-115.833,121.178Z" transform="translate(123.98 -119.175)" fill="#1d7e96"/>
      </g>
      <g id="Grupo_120554" data-name="Grupo 120554" transform="translate(-123.148 123.452)">
        <g id="Grupo_120553" data-name="Grupo 120553">
          <path id="Trazado_182053" data-name="Trazado 182053" d="M-113.7,131.175h-1.884v-3.636q0-.662.028-1.212a4.217,4.217,0,0,1-.432.442l-.78.644-.963-1.184,2.358-1.922h1.673Z" transform="translate(117.73 -124.306)" fill="#1d7e96"/>
        </g>
      </g>
    </g>
  </g>
</svg>
