<svg xmlns="http://www.w3.org/2000/svg" width="100" height="89.967" viewBox="0 0 100 89.967">
  <g id="Grupo_128783" data-name="Grupo 128783" transform="translate(1466.609 -1309.643)">
    <path id="Trazado_187658" data-name="Trazado 187658" d="M-1466.609,1420.758a2.6,2.6,0,0,1,2.476-1.168q46.525.027,93.051.037c.919,0,1.166-.182,1.164-1.141q-.047-37.249-.024-74.5c0-.391-.017-.784.021-1.171a1.724,1.724,0,0,1,1.642-1.515,1.736,1.736,0,0,1,1.65,1.513,7.911,7.911,0,0,1,.016.878q0,38.47,0,76.94c0,1.858-.5,2.363-2.373,2.363q-47.6,0-95.2.009a2.609,2.609,0,0,1-2.425-1.075Z" transform="translate(0 -23.395)" fill="#000101"/>
    <path id="Trazado_187659" data-name="Trazado 187659" d="M-1466.609,1348.927q9.922-9.939,19.845-19.878c1.491-1.493,2.177-1.5,3.645-.03.9.9,1.81,1.781,2.685,2.7.346.364.554.484.982.052q5.841-5.9,11.734-11.738c.385-.382.308-.576-.032-.91-1.58-1.549-3.126-3.133-4.705-4.683a1.856,1.856,0,0,1-.672-2.081c.315-.841,1.045-1.053,1.873-1.143,4.428-.482,8.854-.99,13.281-1.488q.484-.054.972-.08c1.433-.074,2.153.631,2.01,2.055-.286,2.847-.609,5.691-.924,8.535-.218,1.971-.463,3.94-.666,5.913a1.727,1.727,0,0,1-1.142,1.653,1.8,1.8,0,0,1-1.937-.575c-1.558-1.571-3.156-3.1-4.679-4.707-.495-.52-.722-.43-1.177.028q-6.324,6.378-12.694,12.71c-1.38,1.379-2.049,1.38-3.431,0-.9-.9-1.825-1.767-2.682-2.7-.463-.506-.733-.479-1.211,0q-8.845,8.9-17.729,17.755a2.177,2.177,0,0,1-2.03.908c-.587-.115-.85-.66-1.314-.932Zm47.076-26.556c.089-.756.19-1.577.283-2.4.23-2.029.454-4.059.687-6.088.05-.433.059-.755-.564-.68-2.881.348-5.765.665-8.587.987Z" transform="translate(0)" fill="#040303"/>
    <path id="Trazado_187660" data-name="Trazado 187660" d="M-1204.757,1373.292q0-17.919,0-35.837c0-1.887.479-2.371,2.351-2.372q9.325,0,18.651,0c1.811,0,2.3.492,2.3,2.323q0,35.983,0,71.967c0,1.827-.493,2.323-2.3,2.323q-9.374,0-18.748,0c-1.736,0-2.252-.524-2.252-2.275Q-1204.758,1391.356-1204.757,1373.292Zm3.33,0q0,17.039-.019,34.079c0,.82.227,1.02,1.028,1.013q7.323-.056,14.647,0c.742,0,.993-.159.992-.958q-.034-34.03,0-68.06c0-.791-.238-.967-.987-.962q-7.275.047-14.549,0c-.87-.008-1.137.192-1.134,1.108C-1201.415,1350.767-1201.427,1362.029-1201.427,1373.29Z" transform="translate(-193.505 -18.799)" fill="#000101"/>
    <path id="Trazado_187661" data-name="Trazado 187661" d="M-1296.4,1428.89q0,13.719,0,27.438c0,1.982-.491,2.472-2.473,2.473q-9.276,0-18.552,0c-1.8,0-2.335-.526-2.335-2.315q0-27.682,0-55.363c0-1.713.583-2.3,2.274-2.3q9.374,0,18.747,0c1.768,0,2.337.567,2.338,2.337Q-1296.4,1415.025-1296.4,1428.89Zm-20.029,0c0,8.526.012,17.053-.019,25.579,0,.821.225,1.023,1.027,1.017,4.914-.036,9.828-.029,14.742-.006.659,0,.969-.067.968-.871q-.039-25.775,0-51.55c0-.726-.18-.931-.918-.926-4.914.034-9.828.041-14.742,0-.874-.008-1.077.233-1.073,1.084C-1316.418,1411.773-1316.43,1420.332-1316.43,1428.891Z" transform="translate(-108.517 -65.902)" fill="#040303"/>
    <path id="Trazado_187662" data-name="Trazado 187662" d="M-1411.261,1495.361q0,8.832,0,17.665c0,1.9-.476,2.385-2.333,2.385q-9.32,0-18.641,0c-1.829,0-2.328-.489-2.328-2.291q0-17.714,0-35.427c0-1.728.532-2.26,2.283-2.261q9.369-.008,18.738,0c1.745,0,2.279.538,2.28,2.265Q-1411.257,1486.529-1411.261,1495.361Zm-3.333.126c0-5.27-.016-10.54.018-15.81,0-.735-.19-.917-.917-.912q-7.417.05-14.834,0c-.72,0-.924.165-.922.908q.039,15.761,0,31.522c0,.746.2.9.918.9q7.417-.049,14.834,0c.709,0,.928-.143.922-.9C-1414.612,1505.963-1414.594,1500.725-1414.594,1495.488Z" transform="translate(-23.68 -122.513)" fill="#040303"/>
    <path id="Trazado_187663" data-name="Trazado 187663" d="M-1309.416,1332.423l-8.182-8.18c2.823-.322,5.707-.639,8.588-.987.622-.075.613.247.563.68-.232,2.029-.456,4.059-.686,6.088C-1309.226,1330.846-1309.326,1331.667-1309.416,1332.423Z" transform="translate(-110.118 -10.052)" fill="#ff8900"/>
    <path id="Trazado_187664" data-name="Trazado 187664" d="M-1192.062,1382.674c0-11.262.012-22.524-.022-33.785,0-.917.264-1.116,1.134-1.108q7.274.062,14.549,0c.749,0,.988.171.987.962q-.033,34.03,0,68.06c0,.8-.25.962-.992.958q-7.323-.045-14.647,0c-.8.006-1.03-.193-1.028-1.014Q-1192.039,1399.714-1192.062,1382.674Zm6.642,3.413q0-8.1,0-16.2c0-1.288-.587-2.014-1.6-2.045-1.04-.031-1.685.734-1.719,2.041,0,.13,0,.26,0,.39q0,15.854,0,31.708a4.03,4.03,0,0,0,.174,1.344,1.5,1.5,0,0,0,1.492,1.051,1.5,1.5,0,0,0,1.495-1.047,3.623,3.623,0,0,0,.162-1.246Q-1185.421,1394.087-1185.419,1386.087Zm-.009,25.038h0c0-.583.046-1.17-.01-1.747a1.658,1.658,0,0,0-1.58-1.567,1.551,1.551,0,0,0-1.624,1.379,13.511,13.511,0,0,0-.008,3.768,1.618,1.618,0,0,0,1.677,1.44,1.744,1.744,0,0,0,1.539-1.623C-1185.389,1412.23-1185.428,1411.676-1185.428,1411.125Z" transform="translate(-202.87 -28.183)" fill="#ff8900"/>
    <path id="Trazado_187665" data-name="Trazado 187665" d="M-1307.05,1438.259c0-8.559.012-17.118-.02-25.677,0-.851.2-1.092,1.073-1.084,4.914.046,9.828.038,14.742,0,.739-.005.919.2.918.926q-.031,25.775,0,51.55c0,.8-.309.874-.968.871-4.914-.022-9.828-.03-14.742.006-.8.006-1.03-.2-1.027-1.017C-1307.038,1455.312-1307.05,1446.785-1307.05,1438.259Zm3.4,3.214c0,2.732-.013,5.465.007,8.2a1.617,1.617,0,0,0,1.416,1.8c1.067.156,1.814-.629,1.817-1.984q.016-7.953,0-15.906a3.366,3.366,0,0,0-.05-.68,1.483,1.483,0,0,0-1.474-1.3c-1.033-.063-1.7.6-1.712,1.779C-1303.672,1436.073-1303.655,1438.772-1303.655,1441.472Zm3.221,16.725h-.009c0-.617.043-1.238-.01-1.851a1.594,1.594,0,0,0-1.545-1.471,1.58,1.58,0,0,0-1.617,1.495c-.055,1.2-.055,2.406,0,3.605a1.559,1.559,0,0,0,1.595,1.515,1.6,1.6,0,0,0,1.582-1.54C-1300.4,1459.37-1300.434,1458.782-1300.434,1458.2Z" transform="translate(-117.897 -75.269)" fill="#a9f73f"/>
    <path id="Trazado_187666" data-name="Trazado 187666" d="M-1405.206,1504.939c0,5.238-.018,10.475.019,15.712.005.753-.214.9-.922.9q-7.417-.048-14.834,0c-.715,0-.921-.154-.918-.9q.04-15.761,0-31.522c0-.743.2-.913.922-.908q7.417.049,14.834,0c.727,0,.922.176.917.912C-1405.221,1494.4-1405.206,1499.668-1405.206,1504.939Zm-13.308-1.765c0,1.041-.015,2.082,0,3.122a1.726,1.726,0,0,0,1.656,1.91,1.707,1.707,0,0,0,1.651-1.825q.05-3.17,0-6.341a1.646,1.646,0,0,0-1.664-1.785,1.647,1.647,0,0,0-1.642,1.8C-1418.534,1501.092-1418.512,1502.133-1418.513,1503.173Zm.01,11.623h0c0,.584-.032,1.171.007,1.753a1.672,1.672,0,0,0,1.606,1.642,1.6,1.6,0,0,0,1.65-1.478,26.459,26.459,0,0,0-.006-3.7,1.6,1.6,0,0,0-1.672-1.454,1.676,1.676,0,0,0-1.573,1.577C-1418.541,1513.689-1418.5,1514.245-1418.5,1514.8Z" transform="translate(-33.068 -131.964)" fill="#a3edff"/>
    <path id="Trazado_187667" data-name="Trazado 187667" d="M-1175.952,1442.9q0,8,0,16a3.622,3.622,0,0,1-.162,1.246,1.5,1.5,0,0,1-1.495,1.047,1.5,1.5,0,0,1-1.492-1.051,4.027,4.027,0,0,1-.174-1.344q0-15.853,0-31.707c0-.13,0-.26,0-.39.034-1.307.679-2.072,1.719-2.041,1.009.031,1.594.757,1.6,2.045Q-1175.944,1434.8-1175.952,1442.9Z" transform="translate(-212.337 -84.994)" fill="#000101"/>
    <path id="Trazado_187668" data-name="Trazado 187668" d="M-1176.08,1581.083c0,.55.039,1.1-.009,1.651a1.744,1.744,0,0,1-1.539,1.623,1.618,1.618,0,0,1-1.677-1.44,13.512,13.512,0,0,1,.008-3.768,1.55,1.55,0,0,1,1.624-1.379,1.658,1.658,0,0,1,1.58,1.567c.056.577.01,1.164.01,1.747Z" transform="translate(-212.219 -198.141)" fill="#000101"/>
    <path id="Trazado_187669" data-name="Trazado 187669" d="M-1294,1498.36c0-2.7-.017-5.4.008-8.1.011-1.183.678-1.842,1.712-1.779a1.483,1.483,0,0,1,1.473,1.3,3.367,3.367,0,0,1,.05.68q0,7.953,0,15.906c0,1.354-.749,2.14-1.817,1.984a1.617,1.617,0,0,1-1.416-1.8C-1294.016,1503.825-1294,1501.092-1294,1498.36Z" transform="translate(-127.55 -132.157)" fill="#000101"/>
    <path id="Trazado_187670" data-name="Trazado 187670" d="M-1290.771,1581.009c0,.585.037,1.173-.008,1.754a1.6,1.6,0,0,1-1.582,1.54,1.559,1.559,0,0,1-1.595-1.515c-.052-1.2-.052-2.406,0-3.605a1.58,1.58,0,0,1,1.617-1.495,1.594,1.594,0,0,1,1.546,1.471c.054.612.01,1.233.01,1.851Z" transform="translate(-127.559 -198.081)" fill="#000101"/>
    <path id="Trazado_187671" data-name="Trazado 187671" d="M-1409.055,1531.595c0-1.041-.021-2.082.006-3.122a1.647,1.647,0,0,1,1.642-1.8,1.646,1.646,0,0,1,1.664,1.785q.054,3.17,0,6.341a1.706,1.706,0,0,1-1.651,1.825,1.726,1.726,0,0,1-1.656-1.91C-1409.07,1533.677-1409.055,1532.636-1409.055,1531.595Z" transform="translate(-42.526 -160.385)" fill="#000101"/>
    <path id="Trazado_187672" data-name="Trazado 187672" d="M-1409.042,1580.895c0-.552-.038-1.107.008-1.656a1.676,1.676,0,0,1,1.573-1.577,1.6,1.6,0,0,1,1.672,1.454,26.438,26.438,0,0,1,.006,3.7,1.6,1.6,0,0,1-1.65,1.478,1.672,1.672,0,0,1-1.606-1.642c-.039-.582-.007-1.169-.007-1.753Z" transform="translate(-42.529 -198.062)" fill="#040303"/>
  </g>
</svg>
