<svg xmlns="http://www.w3.org/2000/svg" width="100" height="56.772" viewBox="0 0 100 56.772">
  <g id="Grupo_128780" data-name="Grupo 128780" transform="translate(1628.83 -1678.275)">
    <path id="Trazado_187646" data-name="Trazado 187646" d="M-1607.479,1714.472c.052-1.257-.6-1.683-1.761-1.132a2.439,2.439,0,0,1-2.135,0c-1.69-.739-3.394-1.448-5.078-2.2a1.376,1.376,0,0,0-1.318-.035,2.611,2.611,0,0,1-2.329-.006c-2.308-1-4.64-1.945-6.946-2.951-1.742-.76-2.184-1.914-1.433-3.66q5.246-12.2,10.51-24.4a2.585,2.585,0,0,1,3.765-1.506c2.229.929,4.443,1.894,6.671,2.824a2.781,2.781,0,0,1,1.806,1.762c.137.484.493.6.853.754,1.662.721,3.323,1.443,4.993,2.144a2.138,2.138,0,0,1,1.405,1.344c.194.736.67.814,1.282.821a23.033,23.033,0,0,0,7.3-1.275,38.4,38.4,0,0,1,4.831-1.379,6.888,6.888,0,0,1,4.781.649,1.223,1.223,0,0,0,1.306.021,8.931,8.931,0,0,1,8.769.128c1.361.728,2.7,1.5,4.084,2.181a9.131,9.131,0,0,0,6.049.95c.306-.065.568-.082.616-.5a3.191,3.191,0,0,1,2.3-2.562c1.33-.555,2.684-1.053,4.027-1.576a2.132,2.132,0,0,0,1.453-1.392,2.22,2.22,0,0,1,1.42-1.334q3.344-1.392,6.668-2.832c1.927-.831,3.18-.354,4.029,1.592.966,2.213,1.911,4.436,2.866,6.653l7.487,17.372c.843,1.957.28,3.386-1.671,4.218-2.005.856-4.015,1.7-6.018,2.561a3.046,3.046,0,0,1-3.065-.045c-.356-.234-.641-.028-.938.1-1.543.657-3.088,1.311-4.622,1.987a3.058,3.058,0,0,1-2.893,0,.9.9,0,0,0-.944.01c-1.878.971-3.755,1.942-5.645,2.889-.412.206-.468.438-.387.877a4.825,4.825,0,0,1-5.662,5.933.63.63,0,0,0-.811.442,4.736,4.736,0,0,1-5.056,2.872,1.164,1.164,0,0,0-1.377.745,4.778,4.778,0,0,1-5.045,2.541.912.912,0,0,0-1.151.585,4.9,4.9,0,0,1-7.035,2.008c-.67-.387-.874-.074-1.174.363a3.984,3.984,0,0,1-3.284,2.029,2.829,2.829,0,0,1-1.9-.535c-1.25-1.025-2.909-1.622-3.546-3.31-.141-.373-.494-.254-.786-.274a6.362,6.362,0,0,1-5.487-5.37c-.023-.315-.086-.478-.4-.585a12.167,12.167,0,0,1-3.318-2.241,2.731,2.731,0,0,1-1.02-2.217c0-.5-.174-.635-.656-.869C-1605.383,1718.541-1607.774,1716.895-1607.479,1714.472Zm18.126-16.153-.164.215a11.728,11.728,0,0,0-.975,3.982c-.128,1.55.5,2.1,2.025,1.881a5.166,5.166,0,0,0,3.827-2.955,34.4,34.4,0,0,1,2.417-4.177,4.654,4.654,0,0,1,7.34-.561c2.5,2.488,4.928,5.04,7.39,7.564q4.676,4.795,9.346,9.595a.9.9,0,0,0,1.229.227q2.954-1.517,5.948-2.957c.474-.228.547-.456.331-.927-.628-1.371-1.208-2.765-1.812-4.147q-2.617-5.986-5.237-11.971c-.539-1.614-.547-1.66-2.154-1.376a11.383,11.383,0,0,1-7.757-1.345c-1.4-.785-2.768-1.642-4.192-2.387a6.023,6.023,0,0,0-5.612-.049,12.144,12.144,0,0,0-2.415,1.436,23.912,23.912,0,0,1-4.453,2.719,23.066,23.066,0,0,0-2.29,1.254,6.03,6.03,0,0,0-2.81,3.99Zm46.062,7.491q-3.824-9.03-7.637-18.065c-.213-.506-.462-.439-.842-.266-1.19.542-2.371,1.111-3.59,1.583-.658.255-.763.515-.478,1.165,1.6,3.654,3.151,7.332,4.732,11,.955,2.212,1.934,4.414,2.9,6.62.33.835.672,1.666.987,2.507.183.49.452.574.925.359,1.246-.564,2.507-1.1,3.768-1.63.4-.168.6-.351.361-.82C-1542.566,1707.456-1542.918,1706.627-1543.292,1705.809Zm-71.2-.6c-.346.757-.682,1.52-1.043,2.269-.21.437-.07.648.359.823q1.9.777,3.771,1.618c.483.218.738.1.92-.376.3-.778.623-1.544.937-2.316.236-.517.482-1.03.707-1.553,2.3-5.359,4.575-10.729,6.914-16.07.366-.836.2-1.168-.6-1.462-1.068-.393-2.115-.853-3.143-1.343-.62-.3-.933-.315-1.24.449-1.061,2.643-2.228,5.243-3.339,7.867Q-1612.378,1700.152-1614.488,1705.2Zm66.855-17.718a26.409,26.409,0,0,0,1.5,3.715c2.389,5.606,4.829,11.191,7.206,16.8.324.766.694.839,1.359.531,1.338-.619,2.693-1.2,4.032-1.813,1.436-.66,1.4-.656.77-2.091-1.212-2.759-2.376-5.539-3.576-8.3q-2.5-5.76-5.025-11.509c-.258-.651-.545-1.292-.765-1.956-.192-.579-.514-.579-.985-.362-1.156.531-2.313,1.063-3.486,1.554C-1548.981,1685.053-1549.043,1685.234-1547.633,1687.487Zm-76.856,15.51c-.277.533-.556,1.066-.832,1.6-.252.489-.237.825.378,1.072,1.18.474,2.308,1.077,3.488,1.551,2.536,1.019,2.543,1,3.329-1.746.764-1.713,1.543-3.42,2.291-5.139,2.221-5.1,4.419-10.216,6.657-15.312.289-.659.127-.943-.492-1.2-1.427-.585-2.835-1.215-4.248-1.834s-1.4-.617-2.015.826c-1.8,4.224-3.65,8.429-5.428,12.664C-1622.41,1697.984-1623.619,1700.421-1624.489,1703Zm41.665-14.437a1.612,1.612,0,0,0-1.139-.143,21.756,21.756,0,0,0-4.931,1.36,23.279,23.279,0,0,1-9.378,1.449,1.067,1.067,0,0,0-1.3.826c-.618,1.595-1.258,3.18-1.893,4.768-1.683,4.2-3.359,8.408-5.062,12.6-.231.568-.194.887.389,1.21s.891.168,1.22-.34a10.775,10.775,0,0,1,1.115-1.426,4.763,4.763,0,0,1,8.041,1.292c.284.636.53.718,1.186.54a4.358,4.358,0,0,1,5.458,3.145c.246,1.064.708,1.31,1.671,1.421a4.6,4.6,0,0,1,4.06,5.945c-.209.743-.082.909.619,1.1a4.681,4.681,0,0,1,3.152,6.577c-.466,1.052-.142,1.477,1.033,1.352a1.78,1.78,0,0,0,1.471-2.455c-.092-.251-.242-.48-.334-.731a1.381,1.381,0,0,1,.523-1.69,1.361,1.361,0,0,1,1.766,0,9.816,9.816,0,0,1,.876.83c.9.878,1.789,1.048,2.6.494a1.861,1.861,0,0,0,.477-2.574,1.5,1.5,0,0,1,.333-1.995,1.467,1.467,0,0,1,2.085.172c.406.35.763.761,1.187,1.087a1.574,1.574,0,0,0,2.047.05,1.641,1.641,0,0,0,.681-2.025c-.1-.282-.241-.553-.352-.833a1.4,1.4,0,0,1,.506-1.781,1.36,1.36,0,0,1,1.769.027c.4.3.717.707,1.1,1.036a1.767,1.767,0,0,0,1.643.533,2.073,2.073,0,0,0,1.6-1.5c.277-.907-.364-1.454-.891-2q-8.392-8.631-16.807-17.238c-1.548-1.584-2.69-1.446-3.824.465-.513.865-.965,1.766-1.448,2.65a8.745,8.745,0,0,1-6.121,4.782c-2.832.57-4.924-.752-5.515-3.567a10.889,10.889,0,0,1,.417-5.2c1.056-3.9,3.152-6.839,6.959-8.438A13.393,13.393,0,0,0-1582.824,1688.559Zm-3.919,31.51a1.8,1.8,0,0,0-1.179-1.5,1.52,1.52,0,0,0-1.88.543c-1.265,1.737-2.559,3.453-3.82,5.192-1.555,2.145-1.588,1.481.457,3.271.611.534,1.011.422,1.464-.207,1.45-2.017,2.938-4.007,4.41-6.009A2.366,2.366,0,0,0-1586.743,1720.07Zm-5.479-4.637a1.671,1.671,0,0,0-1.142-1.561,1.439,1.439,0,0,0-1.863.508q-1.583,2.073-3.12,4.182c-1.5,2.045-1.621,1.623.472,3.233.637.49,1.039.4,1.484-.216,1.2-1.653,2.419-3.287,3.637-4.924A2.645,2.645,0,0,0-1592.222,1715.433Zm9.349,11.481a1.6,1.6,0,0,0-1.093-1.461,1.42,1.42,0,0,0-1.737.384c-.657.8-1.278,1.631-1.9,2.46-1.5,2.01-1.434,2.309.784,3.527.058.032.112.074.171.1a.449.449,0,0,0,.561-.048,20.961,20.961,0,0,0,3.2-4.689A1.051,1.051,0,0,0-1582.873,1726.913Zm-16.121-14.78a1.69,1.69,0,0,0-1.195-1.568,1.364,1.364,0,0,0-1.705.457c-.854,1.07-1.658,2.181-2.5,3.26a.691.691,0,0,0,.235,1.164c.737.375,1.125,1.53,2.253,1.044.056-.024.095-.093.135-.146q1.272-1.677,2.541-3.355A1.3,1.3,0,0,0-1598.994,1712.133Z" transform="translate(0 0)"/>
    <path id="Trazado_187647" data-name="Trazado 187647" d="M-1522.721,1715.955a13.389,13.389,0,0,1-3.012,1.775c-3.807,1.6-5.9,4.54-6.959,8.438a10.887,10.887,0,0,0-.417,5.2c.591,2.815,2.683,4.137,5.515,3.567a8.745,8.745,0,0,0,6.121-4.783c.483-.883.935-1.784,1.448-2.65,1.134-1.912,2.277-2.049,3.824-.465q8.412,8.611,16.807,17.238c.527.542,1.167,1.089.891,2a2.073,2.073,0,0,1-1.605,1.5,1.767,1.767,0,0,1-1.643-.533c-.38-.329-.7-.732-1.1-1.036a1.361,1.361,0,0,0-1.769-.027,1.4,1.4,0,0,0-.506,1.781c.111.28.248.551.352.833a1.641,1.641,0,0,1-.681,2.025,1.573,1.573,0,0,1-2.046-.05c-.423-.326-.78-.737-1.187-1.087a1.467,1.467,0,0,0-2.085-.172,1.5,1.5,0,0,0-.333,1.995,1.861,1.861,0,0,1-.477,2.574c-.812.554-1.7.384-2.6-.493a9.8,9.8,0,0,0-.876-.83,1.362,1.362,0,0,0-1.766,0,1.381,1.381,0,0,0-.523,1.69c.092.251.242.48.334.731a1.78,1.78,0,0,1-1.471,2.455c-1.174.125-1.5-.3-1.032-1.352a4.681,4.681,0,0,0-3.152-6.577c-.7-.193-.828-.36-.619-1.1a4.6,4.6,0,0,0-4.06-5.945c-.963-.111-1.425-.357-1.671-1.421a4.358,4.358,0,0,0-5.458-3.146c-.656.178-.9.1-1.186-.54a4.763,4.763,0,0,0-8.041-1.292,10.752,10.752,0,0,0-1.115,1.426c-.329.508-.626.668-1.22.34s-.62-.641-.389-1.21c1.7-4.194,3.379-8.4,5.062-12.6.636-1.587,1.276-3.173,1.893-4.768a1.067,1.067,0,0,1,1.3-.826,23.279,23.279,0,0,0,9.378-1.449,21.762,21.762,0,0,1,4.931-1.36A1.612,1.612,0,0,1-1522.721,1715.955Z" transform="translate(-60.103 -27.396)" fill="#fddab1"/>
    <path id="Trazado_187648" data-name="Trazado 187648" d="M-1446.737,1737.278c-.628-1.371-1.208-2.765-1.812-4.147q-2.617-5.986-5.237-11.971c-.539-1.614-.547-1.66-2.154-1.376a11.384,11.384,0,0,1-7.758-1.345c-1.4-.785-2.768-1.642-4.192-2.387a6.024,6.024,0,0,0-5.612-.049,12.14,12.14,0,0,0-2.415,1.436,23.919,23.919,0,0,1-4.453,2.719,23.03,23.03,0,0,0-2.29,1.254,6.028,6.028,0,0,0-2.81,3.99l.019-.01-.164.215a11.725,11.725,0,0,0-.975,3.981c-.128,1.55.5,2.1,2.025,1.881a5.166,5.166,0,0,0,3.827-2.955,34.4,34.4,0,0,1,2.417-4.177,4.654,4.654,0,0,1,7.34-.561c2.5,2.488,4.928,5.04,7.389,7.564q4.676,4.795,9.346,9.595a.9.9,0,0,0,1.228.227q2.955-1.517,5.948-2.957C-1446.6,1737.976-1446.521,1737.749-1446.737,1737.278Z" transform="translate(-103.903 -27.073)" fill="#fddab1"/>
    <path id="Trazado_187649" data-name="Trazado 187649" d="M-1494.335,1828.99a2.364,2.364,0,0,1-.548,1.289c-1.472,2-2.96,3.992-4.41,6.009-.452.63-.853.741-1.464.207-2.046-1.79-2.012-1.126-.457-3.271,1.261-1.74,2.555-3.456,3.82-5.192a1.52,1.52,0,0,1,1.88-.543A1.8,1.8,0,0,1-1494.335,1828.99Z" transform="translate(-92.407 -108.92)" fill="#fddab1"/>
    <path id="Trazado_187650" data-name="Trazado 187650" d="M-1512.589,1811.537a2.647,2.647,0,0,1-.533,1.223c-1.218,1.637-2.44,3.271-3.637,4.923-.445.615-.847.706-1.484.216-2.092-1.611-1.967-1.188-.472-3.233q1.54-2.106,3.12-4.182a1.44,1.44,0,0,1,1.863-.508A1.67,1.67,0,0,1-1512.589,1811.537Z" transform="translate(-79.633 -96.104)" fill="#fddab1"/>
    <path id="Trazado_187651" data-name="Trazado 187651" d="M-1473.858,1854.455a1.055,1.055,0,0,1-.015.278,20.962,20.962,0,0,1-3.2,4.688.448.448,0,0,1-.561.048c-.059-.03-.113-.072-.171-.1-2.218-1.218-2.288-1.518-.784-3.527.621-.829,1.241-1.66,1.9-2.46a1.42,1.42,0,0,1,1.737-.384A1.6,1.6,0,0,1-1473.858,1854.455Z" transform="translate(-109.015 -127.542)" fill="#fddab1"/>
    <path id="Trazado_187652" data-name="Trazado 187652" d="M-1533.345,1799.332a1.3,1.3,0,0,1-.236.856q-1.269,1.679-2.541,3.355c-.04.053-.079.122-.135.146-1.129.487-1.516-.669-2.253-1.044a.691.691,0,0,1-.235-1.164c.843-1.079,1.647-2.19,2.5-3.26a1.365,1.365,0,0,1,1.705-.457A1.69,1.69,0,0,1-1533.345,1799.332Z" transform="translate(-65.649 -87.199)" fill="#fddab1"/>
    <path id="Trazado_187653" data-name="Trazado 187653" d="M-1600.568,1692.844c-1.427-.585-2.835-1.215-4.248-1.834s-1.4-.617-2.015.826c-1.8,4.224-3.65,8.43-5.428,12.664-1.051,2.5-2.259,4.937-3.13,7.514-.277.534-.556,1.067-.831,1.6-.252.489-.237.825.378,1.072,1.18.474,2.308,1.077,3.488,1.551,2.536,1.019,2.543,1,3.329-1.747.765-1.712,1.543-3.419,2.291-5.139,2.221-5.1,4.419-10.216,6.657-15.312C-1599.787,1693.381-1599.95,1693.1-1600.568,1692.844Z" transform="translate(-9.1 -9.016)" fill="#ff8900"/>
    <path id="Trazado_187654" data-name="Trazado 187654" d="M-1315.141,1715.728c-1.212-2.759-2.376-5.539-3.576-8.3q-2.5-5.76-5.025-11.509c-.258-.651-.545-1.292-.765-1.956-.192-.579-.514-.579-.985-.362-1.156.531-2.313,1.063-3.486,1.554-2.382,1-2.444,1.179-1.033,3.431a26.308,26.308,0,0,0,1.5,3.715c2.389,5.607,4.829,11.191,7.206,16.8.324.766.695.839,1.359.531,1.338-.619,2.693-1.2,4.032-1.813C-1314.475,1717.159-1314.511,1717.163-1315.141,1715.728Z" transform="translate(-217.621 -11.097)" fill="#a9f73f"/>
    <path id="Trazado_187655" data-name="Trazado 187655" d="M-1344.659,1732.869c-.4-.8-.756-1.631-1.13-2.449q-3.823-9.03-7.637-18.065c-.213-.506-.462-.439-.842-.266-1.19.542-2.371,1.111-3.59,1.583-.658.255-.763.515-.478,1.165,1.6,3.654,3.151,7.332,4.732,11,.955,2.212,1.934,4.414,2.9,6.62.33.835.673,1.666.987,2.507.183.49.452.574.925.36,1.246-.564,2.507-1.1,3.768-1.63C-1344.622,1733.521-1344.423,1733.338-1344.659,1732.869Z" transform="translate(-197.503 -24.611)" fill="#ccfff9"/>
    <path id="Trazado_187656" data-name="Trazado 187656" d="M-1566.726,1710.726c-1.068-.392-2.115-.853-3.143-1.344-.62-.3-.933-.315-1.24.449-1.061,2.643-2.228,5.243-3.339,7.866q-2.134,5.042-4.244,10.094c-.346.757-.682,1.52-1.043,2.27-.21.437-.069.648.359.823q1.9.777,3.771,1.618c.483.218.738.1.92-.376.3-.778.623-1.544.937-2.316.236-.517.482-1.03.707-1.553,2.3-5.359,4.575-10.729,6.914-16.07C-1565.76,1711.353-1565.926,1711.02-1566.726,1710.726Z" transform="translate(-35.797 -22.587)" fill="#ccfff9"/>
    <path id="Trazado_187657" data-name="Trazado 187657" d="M-1482.763,1752.664l-.164.215Z" transform="translate(-106.591 -54.346)" fill="#f6d8c9"/>
  </g>
</svg>
