<svg xmlns="http://www.w3.org/2000/svg" width="100.818" height="90.418" viewBox="0 0 100.818 90.418">
  <g id="Grupo_128778" data-name="Grupo 128778" transform="translate(1028.101 -1567.958)">
    <path id="Trazado_187605" data-name="Trazado 187605" d="M-984.326,1656.925c-.349,1.109-.929,1.595-1.779,1.415-.983-.208-1.253-.938-1.251-1.843,0-2.492-.013-4.984.011-7.476a2.3,2.3,0,0,0-.491-1.528c-1.4-1.817-2.735-3.682-4.134-5.5a2.178,2.178,0,0,1-.4-2.193c.291-.867.484-1.766.778-2.631.182-.535.15-.73-.5-.761-1.333-.063-1.756-.576-1.76-1.94s.022-2.755-.011-4.131a1.993,1.993,0,0,1,.793-1.7c.979-.807,1.933-1.645,3.03-2.583a7.944,7.944,0,0,0-4.1.745,9.693,9.693,0,0,0-5.936,9.372c-.035,6.558-.009,13.117-.01,19.675,0,.328.01.657-.015.983a1.473,1.473,0,0,1-1.455,1.533,1.464,1.464,0,0,1-1.5-1.586c-.031-1.573-.008-3.148-.011-4.722,0-.2-.025-.391-.038-.587q.02-7.676.039-15.351a13.908,13.908,0,0,1,1.249-5.813c.29-.636,1.167-1.377.8-1.835s-1.421-.081-2.169-.151c-.586-.055-.69.214-.713.737a4.073,4.073,0,0,1-1.412,2.933,4.192,4.192,0,0,1-4.483.893,4.3,4.3,0,0,1-2.884-3.772c-.054-.445-.026-.817-.676-.8-1.77.054-3.547-.035-5.312.078a6.91,6.91,0,0,0-6.445,6.645c-.081,5.477-.011,10.957-.005,16.435-.3,1.082-.821,1.54-1.65,1.457-.869-.087-1.333-.716-1.333-1.847q-.005-7.576,0-15.151c.005-6.2,4.235-10.48,10.465-10.573,1.41-.021,2.82.005,4.23-.011.254,0,.63.17.693-.306a.64.64,0,0,0-.435-.76,12.01,12.01,0,0,1-6.826-7.906c-.117-.4-.234-.484-.661-.423a5.175,5.175,0,0,1-5.492-2.429,5.168,5.168,0,0,1,.186-6.079,1.226,1.226,0,0,0,.074-1.111,18.144,18.144,0,0,1,2.549-14.748,18.074,18.074,0,0,1,22.415-6.426c.637.284.816.281,1.023-.448a21.9,21.9,0,0,1,3.227-6.682c.766-1.083,1.18-1.214,2.4-.761.761,1.035.759,1.377-.034,2.542a20.164,20.164,0,0,0-3.258,15.356c.262,1.5.268,1.5,1.719,1.346a6,6,0,0,0,.685-.059c.276-.062.713.231.8-.286.067-.411-.176-.623-.561-.78a2.62,2.62,0,0,1-1.684-2.633c-.008-1.017-.015-2.034,0-3.051.018-1.065.6-1.69,1.51-1.672.874.018,1.416.623,1.438,1.641.017.787.03,1.576-.005,2.362-.022.49.157.606.624.586,5.09-.223,9.933-1.284,14.234-4.181,1.4-.943,1.584-.945,2.962-.015,4.327,2.923,9.2,3.981,14.328,4.2.45.019.561-.145.549-.559-.023-.852-.03-1.707,0-2.559a1.424,1.424,0,0,1,1.4-1.472,1.435,1.435,0,0,1,1.531,1.446c.041.752-.018,1.51.018,2.263.083,1.761-.158,3.311-2.222,3.822-.326.081-.316.4-.305.652.016.378.327.227.526.238a5.544,5.544,0,0,1,1.749.215c.536.208.663-.081.757-.522a21.018,21.018,0,0,0-.035-9.555,20.451,20.451,0,0,0-31.854-11.8,1.785,1.785,0,0,1-2.475.058c-.488-1.218-.366-1.652.681-2.422a23.434,23.434,0,0,1,36.114,12.053c.23.762.4.941,1.207.6a17.819,17.819,0,0,1,16.495,1.089c1.158.665,1.308,1.146.86,2.431a1.9,1.9,0,0,1-2.5.049,15.042,15.042,0,0,0-14.33-.6,1.1,1.1,0,0,0-.762,1.27,25.735,25.735,0,0,1-.69,8.295c-.105.423-.288.883.064,1.315a5.873,5.873,0,0,1,1.023,1.783c.179.516.632.392.988.46.481.092.362-.321.431-.582a1.452,1.452,0,0,1,2.222-.979,16.71,16.71,0,0,0,5.866,1.5c.483.042.759.032.977-.488a1.255,1.255,0,0,1,1.724-.717,22.667,22.667,0,0,0,7.511,1.315,1.452,1.452,0,0,1,1.464,1.326,1.334,1.334,0,0,1-.573,1.285.953.953,0,0,0-.27,1.16c.194.4.768.276,1.16.307.469.037.348-.463.4-.753a14.665,14.665,0,0,0-2.183-11.089,1.97,1.97,0,0,1-.124-2.515c1.4-.519,1.784-.4,2.6.862a18.148,18.148,0,0,1,2.371,14.585,1.354,1.354,0,0,0,.188,1.179,5.171,5.171,0,0,1,.112,5.915,5.1,5.1,0,0,1-5.279,2.479c-.655-.081-.81.075-.982.645a11.941,11.941,0,0,1-6.518,7.574c-.355.172-.755.262-.662.8.115.665.629.331.942.343,1.994.077,4.019-.2,5.978.255a9.823,9.823,0,0,1,7.877,8.045c.028.13.032.256.187.3v18.117c-.512.518-1,1.076-1.861.826a1.518,1.518,0,0,1-1.115-1.411c.008-5.509.09-11.019,0-16.526a6.919,6.919,0,0,0-6.423-6.566c-1.5-.1-3.017-.012-4.523-.078-.75-.033-1.052.118-1.145.967a4.333,4.333,0,0,1-3.958,3.865,4.509,4.509,0,0,1-4.577-3.021c-.2-.588.165-1.463-.53-1.734a5.8,5.8,0,0,0-1.949-.062c-.2,0-.394.006-.59,0-.619-.019-.653.219-.356.7a12.415,12.415,0,0,1,1.7,4.263c.507,2.7.243,5.427.252,8.143,0,.823-.6,1.266-1.409,1.4-1.169-.266-1.476-.628-1.483-1.806-.01-1.67,0-3.34,0-5.01a9.567,9.567,0,0,0-.76-3.921,9.156,9.156,0,0,0-6.338-5.626.166.166,0,0,0-.112-.045c-.055-.133-.156-.146-.278-.108a5.116,5.116,0,0,0-2.021-.216c.952.813,1.781,1.581,2.674,2.265a2.641,2.641,0,0,1,1.148,2.442c-.075,1.243-.008,2.493-.02,3.74-.012,1.28-.473,1.842-1.739,1.877-.758.021-.751.368-.517.826,1.357,2.652.791,4.872-1.255,6.965a11.211,11.211,0,0,0-2.839,3.958c-.495,1.515-.139,3.309-.148,4.981-.006,1.116.015,2.232-.006,3.347-.021,1.133-.5,1.8-1.347,1.87-1.013.087-1.48-.518-1.693-1.409q0-11.512.005-23.025c0-2.395-.019-4.789.013-7.183.009-.63-.231-.753-.8-.776-.7-.027-.676.353-.706.855-.2,3.344-2.479,5.625-5.529,5.571-2.984-.053-5.189-2.4-5.288-5.69-.016-.549-.156-.725-.717-.736-.661-.013-.809.228-.808.855Q-984.313,1641.869-984.326,1656.925Zm-11.413-46.2c-.066.484-.1.975-.205,1.451-.131.6.1.813.682.877,1.337.147,2.934-1.031,2.594-2.548.174-.733.068-1.168-.854-.91a3.466,3.466,0,0,1-1.258.12C-995.587,1609.635-995.847,1609.985-995.738,1610.728Zm36.506-.006c.122-.757-.181-1.066-.96-1.007a3.657,3.657,0,0,1-1.242-.152c-.7-.2-.992.014-.9.737a2.348,2.348,0,0,0,2.219,2.75c1.025.055,1.2-.144,1.048-1.161C-959.131,1611.5-959.179,1611.111-959.232,1610.722Zm2.973-1a37.441,37.441,0,0,0,.626,5.26,9.083,9.083,0,0,0,8.965,7.345,9.039,9.039,0,0,0,8.941-7.481c.429-2.683.7-5.392,1.047-8.089.107-.844.543-1.866.218-2.485-.345-.657-1.536-.314-2.337-.517-1.1-.277-2.183-.641-3.2.275-.291.262-.754.175-1.147.154a23.932,23.932,0,0,1-5.8-.945c-.24-.074-.543-.389-.8-.032a3.006,3.006,0,0,1-2.725,1.021c-.6-.208-.855-.01-1.008.625a6.054,6.054,0,0,1-2.416,3.572C-956.423,1608.809-956.552,1609.177-956.259,1609.726Zm-46.441-6.139a3.28,3.28,0,0,1-2.317.6,22.9,22.9,0,0,1-5.407-.934.954.954,0,0,0-1.255.3,2.058,2.058,0,0,1-1.785.648,23.325,23.325,0,0,1-4.383-.531c-.623-.15-.883-.078-.783.661.464,3.409.827,6.832,1.344,10.233a9.015,9.015,0,0,0,8.79,7.766,9.014,9.014,0,0,0,9.183-7.539c.312-1.669.433-3.374.641-5.062a1.147,1.147,0,0,0-.5-1.482,6.253,6.253,0,0,1-2.356-4.131C-1001.646,1603.26-1002.07,1603.227-1002.7,1603.588Zm25.3,15.429a12.413,12.413,0,0,0,12.319-10.55c.592-3.984,1.023-7.992,1.567-11.983.108-.794-.08-1.069-.911-1.146a28.88,28.88,0,0,1-9.72-2.577c-1.062-.5-2.07-1.574-3.1-1.565-1.068.008-2.107,1.053-3.2,1.565a29.653,29.653,0,0,1-9.915,2.606c-.769.072-1.1.217-.964,1.157.545,3.826.931,7.674,1.459,11.5A12.5,12.5,0,0,0-977.4,1619.017Zm-46.035-17.3a15.374,15.374,0,0,0,.283,3.126c.052.258.113.61.458.473.369-.145,1.038.137,1.085-.392a4.061,4.061,0,0,0-.447-2.646c-.473-.7-.77-1.314-.233-2.041a1.561,1.561,0,0,1,2.118-.351,18.726,18.726,0,0,0,5.719,1.294c.383.039.471-.088.573-.444.372-1.3,1.154-1.643,2.381-1.052a16.861,16.861,0,0,0,5.97,1.468c.238.02.416.04.592-.2,1-1.339,1-1.322,2.63-.738.385.138.787.422,1.217.195a4.353,4.353,0,0,0,1.062-2.677,24.466,24.466,0,0,1-.713-8.47.9.9,0,0,0-.606-1.058,15.256,15.256,0,0,0-8.373-1.579A15.086,15.086,0,0,0-1023.436,1601.712Zm59.458,12.589c-.512.7-.968,1.38-1.486,2.012a14.835,14.835,0,0,1-6.013,4.463c-1.006.4-.565,1.2-.571,1.834s.6.34.928.345c1.738.031,3.478.027,5.217.012a13.275,13.275,0,0,1,7.906,2.218,1.171,1.171,0,0,0,.724.241c1.836-.038,3.673-.047,5.51-.08.255,0,.621.158.665-.336a.652.652,0,0,0-.468-.738,11.969,11.969,0,0,1-6.811-7.922c-.1-.343-.186-.485-.592-.414A5.447,5.447,0,0,1-963.978,1614.3Zm-23.6,8.669c1.311,0,2.623.018,3.933-.014.293-.007.878.267.833-.31-.046-.6.494-1.4-.438-1.8a15.481,15.481,0,0,1-7.3-6.176c-.269-.43-.416-.428-.776-.085a5.065,5.065,0,0,1-4.429,1.381c-.619-.094-.738.084-.9.621a12,12,0,0,1-6.511,7.586,3.139,3.139,0,0,1-.36.155c-.364.122-.367.41-.342.715.036.42.363.3.6.3.819.013,1.642-.044,2.458.015a7.239,7.239,0,0,0,5.188-1.145,5.937,5.937,0,0,1,1.816-.71A20.781,20.781,0,0,1-987.577,1622.969Zm12.493,1.808h.023c0-.787,0-1.573,0-2.36,0-.325-.017-.574-.471-.527a19.866,19.866,0,0,1-3.828,0c-.272-.025-.449.054-.442.361a42.151,42.151,0,0,0,.1,5.2,2.28,2.28,0,0,0,2.394,1.9,2.321,2.321,0,0,0,2.214-2.219C-975.04,1626.353-975.084,1625.564-975.084,1624.777Zm15.158-17.99a3.652,3.652,0,0,0,3.7-3.838,3.666,3.666,0,0,0-4.016-3.513c-.437.035-.7.106-.753.647-.2,1.885-.463,3.764-.724,5.642a.675.675,0,0,0,.541.864A4.424,4.424,0,0,0-959.926,1606.787Zm-34.935,0c.123-.008.32-.01.515-.034,1.152-.141,1.286-.326,1.141-1.468-.215-1.688-.454-3.374-.608-5.068-.055-.6-.292-.756-.84-.789a3.649,3.649,0,0,0-3.946,3.489A3.648,3.648,0,0,0-994.861,1606.788Zm7.509,20.909c-.9.764-1.6,1.454-2.394,2.01a2.542,2.542,0,0,0-1.167,2.468c.046.891.1,1.337,1.2,1.279,1.495-.078,2.052.776,1.644,2.231-.371,1.324-.761,2.642-1.14,3.964-.089.31-.27.646-.045.943a18.507,18.507,0,0,0,1.905,2.42Zm19.921.044v15.165c1.55-1.364,2.4-2.838,1.364-4.875a11.369,11.369,0,0,1-.619-2.065c-.523-1.843-.041-2.492,1.873-2.551.276-.009.6.126.811-.189a4.29,4.29,0,0,0-.444-2.94C-965.391,1629.475-966.341,1628.671-967.432,1627.741Zm22.181-.5c.012-1.877.012-1.877-1.891-1.93a4.475,4.475,0,0,1-.491-.024c-.4-.055-.509.127-.5.5.018.984-.023,1.969.019,2.952a1.4,1.4,0,0,0,1.438,1.433,1.387,1.387,0,0,0,1.416-1.358A13.759,13.759,0,0,0-945.251,1627.24Zm-64.472-.015c0,.492-.031.986.006,1.474a1.441,1.441,0,0,0,1.508,1.474,1.44,1.44,0,0,0,1.356-1.517c.027-.818-.053-1.644.024-2.457s-.236-.952-.981-.909C-1009.727,1625.4-1009.729,1625.364-1009.723,1627.225Zm-11.734-14.173c.616.045.95-.2.827-.968-.175-1.1-.3-2.2-.41-3.3-.051-.52-.3-.654-.778-.6a2.457,2.457,0,0,0-2.164,2.582A2.412,2.412,0,0,0-1021.458,1613.052Zm90.479-2.444a2.456,2.456,0,0,0-2.13-2.423c-.456-.059-.756.024-.813.56-.125,1.168-.264,2.335-.431,3.5-.082.566.165.753.68.808A2.426,2.426,0,0,0-930.979,1610.609Z" transform="translate(0 0)" fill="#fff"/>
    <path id="Trazado_187612" data-name="Trazado 187612" d="M-992.975,1929.841q.028-6.237.058-12.474a8.5,8.5,0,0,1,.052-1.176,1.339,1.339,0,0,1,1.335-1.217,1.358,1.358,0,0,1,1.5,1.132,4.862,4.862,0,0,1,.081,1.072q.031,6.336.051,12.672c-.208.816-.6,1.471-1.55,1.468S-992.777,1930.658-992.975,1929.841Z" transform="translate(-28.179 -278.39)" fill="#fff"/>
    <path id="Trazado_187613" data-name="Trazado 187613" d="M-568.932,1929.911q.029-6.289.061-12.577a5.367,5.367,0,0,1,.087-1.17,1.329,1.329,0,0,1,1.431-1.1,1.331,1.331,0,0,1,1.363,1.181,6.472,6.472,0,0,1,.062,1.076q.006,5.751.005,11.5c0,.358.039.716.06,1.074-.18.834-.568,1.487-1.525,1.492S-568.74,1930.742-568.932,1929.911Z" transform="translate(-368.366 -278.465)" fill="#fff"/>
    <path id="Trazado_187614" data-name="Trazado 187614" d="M-703.631,1958.468c0,1.865.016,3.731-.007,5.6-.013,1.072-.592,1.711-1.474,1.726s-1.464-.62-1.517-1.677c0-.033,0-.065,0-.1,0-3.731-.007-7.462,0-11.193a1.467,1.467,0,0,1,1.516-1.656c.909.014,1.47.639,1.477,1.705C-703.62,1954.737-703.63,1956.6-703.631,1958.468Z" transform="translate(-257.895 -307.427)" fill="#fff"/>
    <path id="Trazado_187615" data-name="Trazado 187615" d="M-851.942,1958.5c0,1.833.013,3.666-.005,5.5-.011,1.141-.583,1.8-1.5,1.794s-1.489-.663-1.493-1.807q-.021-5.6,0-11.193a1.464,1.464,0,0,1,1.554-1.624,1.46,1.46,0,0,1,1.437,1.636C-851.931,1954.7-851.942,1956.6-851.942,1958.5Z" transform="translate(-138.91 -307.431)" fill="#fff"/>
    <path id="Trazado_187616" data-name="Trazado 187616" d="M-660.064,1973.973q.031-4.425.064-8.851c.01-1.181.289-1.514,1.486-1.82a1.655,1.655,0,0,1,1.447,1.89c-.016,1.143.025,2.287.041,3.431q-.016,2.491-.032,4.982c-.01,1.2-.467,1.84-1.359,1.916C-659.29,1975.6-659.8,1975.112-660.064,1973.973Z" transform="translate(-295.256 -317.163)" fill="#fff"/>
    <path id="Trazado_187617" data-name="Trazado 187617" d="M-697.62,1862.882c.121-.038.222-.024.278.108C-697.477,1863.063-697.564,1863.011-697.62,1862.882Z" transform="translate(-265.127 -236.587)" fill="#fff"/>
    <path id="Trazado_187637" data-name="Trazado 187637" d="M-796.54,1767.051a7.08,7.08,0,0,1-5.693-2.8,1.462,1.462,0,0,1,.117-2.179,1.514,1.514,0,0,1,2.17.326c2.114,2.3,4.628,2.3,6.789-.013a1.514,1.514,0,0,1,2.172-.3,1.519,1.519,0,0,1,.083,2.193A7.247,7.247,0,0,1-796.54,1767.051Z" transform="translate(-180.858 -155.466)" fill="#fff"/>
    <path id="Trazado_187638" data-name="Trazado 187638" d="M-740.738,1734.346c-.013-1.1.575-1.816,1.474-1.808s1.462.727,1.49,1.929c.026,1.117-.523,1.815-1.442,1.835C-740.2,1736.324-740.722,1735.647-740.738,1734.346Z" transform="translate(-230.536 -132.033)" fill="#fff"/>
    <path id="Trazado_187639" data-name="Trazado 187639" d="M-814.936,1734.441c.014,1.177-.472,1.815-1.406,1.844-.982.031-1.546-.675-1.552-1.942,0-1.1.581-1.818,1.481-1.82C-815.489,1732.522-814.95,1733.223-814.936,1734.441Z" transform="translate(-168.638 -132.023)" fill="#fff"/>
    <path id="Trazado_187640" data-name="Trazado 187640" d="M-948.3,1798.75a5.741,5.741,0,0,1-4.469-2.208,1.459,1.459,0,0,1,.063-2.185,1.479,1.479,0,0,1,2.168.229c1.576,1.611,3.073,1.614,4.639.009a1.482,1.482,0,0,1,2.166-.246,1.476,1.476,0,0,1,.086,2.183A5.766,5.766,0,0,1-948.3,1798.75Z" transform="translate(-60.063 -181.327)" fill="#fff"/>
    <path id="Trazado_187641" data-name="Trazado 187641" d="M-903.2,1773.838a1.537,1.537,0,0,1-1.481,1.716c-.931.013-1.528-.721-1.527-1.878a1.494,1.494,0,0,1,1.478-1.7C-903.773,1771.966-903.2,1772.665-903.2,1773.838Z" transform="translate(-97.787 -163.674)" fill="#fff"/>
    <path id="Trazado_187642" data-name="Trazado 187642" d="M-961.609,1773.8a1.543,1.543,0,0,1-1.542,1.752c-.912-.026-1.437-.7-1.442-1.84-.006-1.117.557-1.762,1.515-1.737C-962.16,1772-961.613,1772.677-961.609,1773.8Z" transform="translate(-50.949 -163.67)" fill="#fff"/>
    <path id="Trazado_187643" data-name="Trazado 187643" d="M-636.8,1798.754a5.756,5.756,0,0,1-4.5-2.207,1.468,1.468,0,0,1,.057-2.184,1.48,1.48,0,0,1,2.168.222c1.585,1.612,3.086,1.618,4.642.019a1.484,1.484,0,0,1,2.166-.256,1.488,1.488,0,0,1,.028,2.259A5.761,5.761,0,0,1-636.8,1798.754Z" transform="translate(-309.95 -181.33)" fill="#fff"/>
    <path id="Trazado_187644" data-name="Trazado 187644" d="M-650.217,1773.781a1.545,1.545,0,0,1-1.528,1.767c-.913-.017-1.453-.686-1.472-1.826-.018-1.058.512-1.713,1.417-1.75C-650.831,1771.932-650.232,1772.616-650.217,1773.781Z" transform="translate(-300.749 -163.668)" fill="#fff"/>
    <path id="Trazado_187645" data-name="Trazado 187645" d="M-591.811,1773.794c.007,1.052-.532,1.724-1.413,1.758-.943.037-1.566-.688-1.576-1.834-.009-1.078.6-1.763,1.539-1.742S-591.819,1772.635-591.811,1773.794Z" transform="translate(-347.614 -163.672)" fill="#fff"/>
  </g>
</svg>
