<svg xmlns="http://www.w3.org/2000/svg" width="74.418" height="100" viewBox="0 0 74.418 100">
  <g id="Grupo_128798" data-name="Grupo 128798" transform="translate(-2438.667 -837.876)">
    <path id="Trazado_187847" data-name="Trazado 187847" d="M2492.161,872.081c0,.665.014,1.33,0,1.994a3.7,3.7,0,0,1-5.512,3.263c-2.48-1.319-4.887-2.775-7.323-4.178q-10.2-5.873-20.395-11.753c-3.357-1.937-3.367-5.28-.016-7.211,9.032-5.2,18.106-10.332,27.08-15.633,3.028-1.788,6.543.08,6.216,3.643-.146,1.59.006,3.205-.039,4.807-.02.693.163.928.9.969a33.581,33.581,0,0,1,31.633,27.85,32.71,32.71,0,0,1-2.414,19.578,3.878,3.878,0,0,1-4.506,2.328,3.77,3.77,0,0,1-2.867-3.8,26.373,26.373,0,0,0-21.406-24.819c-.964-.186-1.556-.158-1.365,1.082A12.4,12.4,0,0,1,2492.161,872.081Zm24.542,4.18a1.779,1.779,0,0,0,.083-.291.739.739,0,0,0-.023-.232,26.1,26.1,0,0,0-14.815-17.979,26.558,26.558,0,0,0-12.9-2.276c-3.094.166-4.4-1.118-4.4-4.182,0-1,0-2.007,0-3.26l-16.893,9.76,16.893,9.757c0-.976-.01-1.742,0-2.508a3.774,3.774,0,0,1,3.835-3.886c.817-.015,1.636.087,2.453.147A33.248,33.248,0,0,1,2512.9,871.62,46.2,46.2,0,0,1,2516.7,876.262Z" transform="translate(-12.173)"/>
    <path id="Trazado_187848" data-name="Trazado 187848" d="M2457.492,1018.34a4.424,4.424,0,0,1-1.441,2.978q-5.334,5.286-10.623,10.618a3.813,3.813,0,0,1-6.754-2.766q-.005-20.416.006-40.832a11.189,11.189,0,0,1,11.314-11.308q18.716-.037,37.433,0a11.191,11.191,0,0,1,11.333,11.289q.044,11.205,0,22.411a11.234,11.234,0,0,1-11.407,11.356c-3.52.023-7.04.007-10.561,0-2.615,0-3.981-1.183-4.353-3.75.364-2.589,1.707-3.757,4.334-3.76,3.441,0,6.882.005,10.324,0,2.646-.006,4.155-1.5,4.157-4.142q.01-10.85,0-21.7c0-2.69-1.517-4.2-4.219-4.2q-18.3-.005-36.6,0c-2.792,0-4.245,1.468-4.246,4.283q0,15.25.007,30.5c0,.321-.15.687.136.98a.968.968,0,0,0,.214-.119c1.382-1.383,2.784-2.747,4.135-4.16a3.8,3.8,0,0,1,4.225-1.232A3.734,3.734,0,0,1,2457.492,1018.34Z" transform="translate(0 -95.488)"/>
    <path id="Trazado_187849" data-name="Trazado 187849" d="M2473.871,1034.794a3.735,3.735,0,0,0-2.59-3.552,3.8,3.8,0,0,0-4.225,1.232c-1.351,1.413-2.752,2.777-4.135,4.16a.976.976,0,0,1-.214.119c-.286-.293-.136-.659-.136-.98q-.015-15.249-.007-30.5c0-2.816,1.453-4.283,4.245-4.283q18.3,0,36.6,0c2.7,0,4.218,1.508,4.22,4.2q.008,10.851,0,21.7c0,2.638-1.51,4.136-4.157,4.142-3.441.007-6.882,0-10.324,0-2.628,0-3.97,1.171-4.334,3.76h-3.679c-.333-2.362-1.8-3.791-3.856-3.761-2.014.029-3.412,1.437-3.734,3.761Zm11.2-15.028c3.637,0,7.275.006,10.913,0,2.4-.005,4.1-1.536,4.138-3.7.034-2.209-1.691-3.809-4.14-3.811q-10.853-.009-21.708,0c-2.486,0-4.194,1.538-4.195,3.752s1.719,3.752,4.2,3.756Q2479.671,1019.773,2485.069,1019.765Z" transform="translate(-16.378 -111.942)" fill="#ff8900"/>
    <path id="Trazado_187850" data-name="Trazado 187850" d="M2510.4,1100.521c.322-2.324,1.719-3.731,3.734-3.761,2.057-.03,3.523,1.4,3.856,3.761-.344,2.356-1.807,3.78-3.853,3.75C2512.132,1104.242,2510.726,1102.832,2510.4,1100.521Z" transform="translate(-49.227 -177.669)"/>
    <path id="Trazado_187851" data-name="Trazado 187851" d="M2541.536,898.5a46.3,46.3,0,0,0-3.8-4.642,33.249,33.249,0,0,0-21.963-10.308c-.817-.061-1.636-.163-2.453-.147a3.774,3.774,0,0,0-3.835,3.886c-.012.766,0,1.533,0,2.508l-16.894-9.757,16.893-9.76c0,1.253,0,2.257,0,3.26,0,3.064,1.305,4.348,4.4,4.182a26.558,26.558,0,0,1,12.9,2.276,26.1,26.1,0,0,1,14.815,17.979.732.732,0,0,1,.023.232A1.8,1.8,0,0,1,2541.536,898.5Z" transform="translate(-37.006 -22.239)" fill="#a9f73f"/>
    <path id="Trazado_187852" data-name="Trazado 187852" d="M2501.573,1044.41q-5.4,0-10.8,0c-2.477,0-4.2-1.551-4.2-3.756s1.708-3.75,4.194-3.752q10.854-.007,21.708,0c2.449,0,4.174,1.6,4.14,3.811-.033,2.16-1.737,3.691-4.138,3.7C2508.849,1044.416,2505.211,1044.41,2501.573,1044.41Z" transform="translate(-32.883 -136.586)"/>
  </g>
</svg>
