<svg xmlns="http://www.w3.org/2000/svg" width="75.285" height="70" viewBox="0 0 75.285 70">
  <g id="Grupo_121195" data-name="Grupo 121195" transform="translate(-1707.589 -1349.378)">
    <path id="Trazado_183179" data-name="Trazado 183179" d="M1857.15,1363.09c1.062-.108,1.274.026,1.655,1a22.694,22.694,0,0,1,1.429,6.045c.012.116-.018.25.143.292v1.029a.494.494,0,0,0,0,.735v.735a.849.849,0,0,0,0,1.029v1.764a12.434,12.434,0,0,0-.5,2.609,23.509,23.509,0,0,1-6.759,12.274,11.308,11.308,0,0,0-3.6,9.4c.165,2,.718,3.942,1.078,5.914.062.337.164.668.2,1.007.095.949.27,1.624,1.51,1.8a2.508,2.508,0,0,1,2.041,2.48c.125,1.439.2,2.883.249,4.327a3.659,3.659,0,0,1-3.686,3.835q-17.379.018-34.759.008a1.708,1.708,0,0,1-1.427-2.82c.819-1.1,1.625-2.207,2.433-3.313a6.166,6.166,0,0,1,3.628-2.453c.438-.1.536-.272.48-.684-.128-.946-.193-1.9-.328-2.845a1.6,1.6,0,0,0-1.86-1.458c-1.679.176-3.358.363-5.033.583a4.486,4.486,0,0,1-4.576-1.836,4.319,4.319,0,0,1-.249-4.841c.389-.733.73-1.491,1.13-2.218.188-.342.136-.51-.223-.639a3.974,3.974,0,0,1-.653-.33,1.8,1.8,0,0,1-.4-2.924c.445-.454.916-.886,1.4-1.3.251-.219.249-.358-.015-.56-.486-.372-.958-.762-1.422-1.161a1.82,1.82,0,0,1-.123-2.874c.356-.361.7-.727,1.121-1.158-1.192-.337-2.32-.71-3.474-.969a3,3,0,0,1-1.652-5.089c1.863-2.106,3.544-4.373,5.311-6.564a2.341,2.341,0,0,0,.64-2.229c-.9-2.864-.2-5.557.8-8.226,2.9-7.679,8.577-11.985,16.508-13.449a32.74,32.74,0,0,1,15.834.715,22.979,22.979,0,0,1,12.178,8.487c.589.809.564,1.18-.1,1.931a1.354,1.354,0,0,1-1.694-.621,19.906,19.906,0,0,0-8.246-6.635,23.477,23.477,0,0,0-9.284-2.148c-.413-.039-.825-.1-1.238-.111a33.562,33.562,0,0,0-7.236.572c-7.093,1.388-12.158,5.251-14.694,12.145-.763,2.073-1.451,4.169-.766,6.433a4.676,4.676,0,0,1-.989,4.527c-1.776,2.185-3.53,4.388-5.293,6.584-.687.855-.57,1.209.506,1.522,1.267.369,2.545.7,3.8,1.112a2.048,2.048,0,0,1,.847,3.472c-.337.355-.706.678-1.1,1.058.423.354.831.7,1.241,1.04,1.381,1.152,1.442,2.418.174,3.682-.329.328-.951.691-.917.975.053.438.75.5,1.163.73a1.15,1.15,0,0,1,.579,1.755c-.554,1.144-1.1,2.292-1.705,3.411a2.3,2.3,0,0,0,.041,2.618,2.4,2.4,0,0,0,2.464.938q2.587-.323,5.179-.6a3.756,3.756,0,0,1,4.149,3.021,18.792,18.792,0,0,1,.266,2.037c.165,1.837.158,1.853,1.99,1.692a1.218,1.218,0,0,1,1.483.968c-.171.933-.386,1.151-1.337,1.24-.926.086-1.854.149-2.783.2a6.408,6.408,0,0,0-5.464,4.409h7.935q12.708,0,25.415,0c1.228,0,1.878-.58,1.835-1.672-.051-1.272-.131-2.542-.216-3.812-.05-.749-.331-1-1.083-.945-2.979.209-5.956.436-8.934.646q-5.859.414-11.72.807c-.9.06-1.163-.154-1.423-1.017.168-.858.454-1.123,1.307-1.182,1.607-.112,3.215-.207,4.821-.326,2.481-.184,4.962-.381,7.442-.573,1.928-.123,3.855-.254,5.784-.363.421-.024.509-.157.421-.579-.4-1.937-.751-3.886-1.152-5.825a13.748,13.748,0,0,1,3.935-13.3,20.171,20.171,0,0,0,2.1-2.352c4.893-6.685,5.645-13.97,3.089-21.71C1856.517,1364.21,1856.456,1363.6,1857.15,1363.09Z" transform="translate(-77.504)" fill="#040303"/>
    <path id="Trazado_183180" data-name="Trazado 183180" d="M2090.053,1470.274a.849.849,0,0,1,0-1.029Z" transform="translate(-307.179 -96.315)" fill="#040404"/>
    <path id="Trazado_183181" data-name="Trazado 183181" d="M2090.093,1462.5a.494.494,0,0,1,0-.735Z" transform="translate(-307.219 -90.303)" fill="#040404"/>
    <path id="Trazado_183182" data-name="Trazado 183182" d="M1991.34,1372.774c-.694.512-.633,1.119-.382,1.878,2.556,7.74,1.8,15.025-3.089,21.71a20.2,20.2,0,0,1-2.1,2.352,13.748,13.748,0,0,0-3.935,13.3c.4,1.938.747,3.887,1.152,5.825.088.422,0,.555-.421.579-1.929.11-3.856.24-5.784.364-.414-2.2-.791-4.4-1.253-6.592a14.675,14.675,0,0,1-.119-6.239,12.317,12.317,0,0,1,3.576-6.354,23.309,23.309,0,0,0,4.439-5.88,23.868,23.868,0,0,0,2.595-11,23.011,23.011,0,0,0-.417-4.648,20.7,20.7,0,0,0-4.666-9.878,22.246,22.246,0,0,0-9.43-6.373c-.19-.069-.464-.067-.457-.384a23.474,23.474,0,0,1,9.284,2.148,19.9,19.9,0,0,1,8.247,6.635,1.354,1.354,0,0,0,1.694.621A5.964,5.964,0,0,1,1991.34,1372.774Z" transform="translate(-211.694 -9.684)" fill="#edceb5"/>
    <path id="Trazado_183183" data-name="Trazado 183183" d="M1707.589,1513.137a22.165,22.165,0,0,1,6.371-15.31,1.149,1.149,0,0,1,1.562-.319,1.04,1.04,0,0,1,.429,1.287,1.972,1.972,0,0,1-.575.749,19.456,19.456,0,0,0-5.375,11.172,19.844,19.844,0,0,0,5.226,16.5c.148.163.308.316.45.484a1.109,1.109,0,0,1,.011,1.578,1.092,1.092,0,0,1-1.626-.086,20.216,20.216,0,0,1-2.145-2.509A22.694,22.694,0,0,1,1707.589,1513.137Z" transform="translate(0 -118.875)" fill="#040404"/>
    <path id="Trazado_183184" data-name="Trazado 183184" d="M1745.027,1519.948a1.019,1.019,0,0,1,1.009.555,1.038,1.038,0,0,1-.083,1.176c-.271.345-.589.655-.874.99a13.888,13.888,0,0,0,.445,18.439,4.52,4.52,0,0,1,.394.435,1.066,1.066,0,0,1-.064,1.469,1.012,1.012,0,0,1-1.51.031,16.4,16.4,0,0,1-1.5-1.707,16.141,16.141,0,0,1,1.235-20.859A1.262,1.262,0,0,1,1745.027,1519.948Z" transform="translate(-25.722 -137.054)" fill="#040404"/>
    <path id="Trazado_183185" data-name="Trazado 183185" d="M1771.369,1549.745a9.941,9.941,0,0,1,2.648-6.711,1.314,1.314,0,0,1,1.06-.561,1.038,1.038,0,0,1,.969.663,1.116,1.116,0,0,1-.288,1.276,7.658,7.658,0,0,0-.238,10.39c.08.093.169.178.248.272a1.114,1.114,0,0,1,.023,1.637,1.075,1.075,0,0,1-1.624-.124,9.582,9.582,0,0,1-2.517-4.564A10.631,10.631,0,0,1,1771.369,1549.745Z" transform="translate(-51.249 -155.155)" fill="#040404"/>
    <path id="Trazado_183186" data-name="Trazado 183186" d="M1845.721,1360.93c-.007.316.267.315.457.384a22.247,22.247,0,0,1,9.43,6.373,20.7,20.7,0,0,1,4.666,9.878,22.983,22.983,0,0,1,.417,4.648,23.867,23.867,0,0,1-2.594,11,23.309,23.309,0,0,1-4.44,5.88,12.315,12.315,0,0,0-3.576,6.354,14.673,14.673,0,0,0,.119,6.239c.462,2.188.839,4.394,1.253,6.592-2.481.191-4.961.389-7.442.573-1.606.119-3.214.214-4.821.326-.852.059-1.138.324-1.306,1.182a12.712,12.712,0,0,1-2.225.148,1.218,1.218,0,0,0-1.483-.968c-1.832.161-1.825.145-1.99-1.692a18.818,18.818,0,0,0-.266-2.037,3.756,3.756,0,0,0-4.149-3.021q-2.591.283-5.179.6a2.4,2.4,0,0,1-2.464-.938,2.3,2.3,0,0,1-.041-2.618c.6-1.118,1.151-2.266,1.705-3.41a1.151,1.151,0,0,0-.579-1.755c-.413-.235-1.11-.292-1.163-.73-.035-.284.588-.647.917-.975,1.268-1.264,1.207-2.531-.174-3.682-.41-.342-.818-.686-1.24-1.04.4-.38.767-.7,1.1-1.058a2.048,2.048,0,0,0-.847-3.472c-1.253-.41-2.531-.743-3.8-1.112-1.076-.313-1.193-.666-.506-1.522,1.763-2.2,3.517-4.4,5.293-6.584a4.676,4.676,0,0,0,.989-4.527c-.685-2.264,0-4.36.766-6.433,2.536-6.895,7.6-10.758,14.694-12.145a33.529,33.529,0,0,1,7.236-.572C1844.9,1360.829,1845.308,1360.892,1845.721,1360.93Z" transform="translate(-86.368 -9.184)" fill="#fee5ce"/>
    <path id="Trazado_183187" data-name="Trazado 183187" d="M1880.635,1662.243a12.735,12.735,0,0,0,2.225-.149c.26.863.521,1.077,1.423,1.017q5.861-.388,11.72-.807c2.979-.21,5.956-.437,8.934-.646.752-.053,1.033.2,1.083.944.084,1.27.165,2.541.216,3.812.043,1.092-.607,1.672-1.835,1.672q-12.708,0-25.415,0h-7.935a6.407,6.407,0,0,1,5.464-4.409c.929-.048,1.857-.11,2.783-.2C1880.249,1663.393,1880.463,1663.176,1880.635,1662.243Z" transform="translate(-131.345 -250.918)" fill="#a06af6"/>
  </g>
</svg>
