<svg xmlns="http://www.w3.org/2000/svg" width="99.967" height="100" viewBox="0 0 99.967 100">
  <g id="Grupo_128054" data-name="Grupo 128054" transform="translate(518.394 -2191.758)">
    <path id="Trazado_186613" data-name="Trazado 186613" d="M-498.4,2276.585c0,3.413.007,6.64,0,9.866a5.025,5.025,0,0,1-4.951,5.306,5.028,5.028,0,0,1-5.043-5.318c-.007-3.436-.037-6.872.023-10.307.016-.89-.238-1.063-1.083-1.055-4.266.038-7.423-2.167-8.563-5.889a8.3,8.3,0,0,1,7.7-10.733c2.983-.067,5.969-.026,8.953-.008a2.365,2.365,0,0,0,1.448-.429c1.338-.929,2.7-1.816,4.3-2.878-1.37-.067-2.515-.056-3.648-.191a21.682,21.682,0,0,1-19.107-20.472,21.647,21.647,0,0,1,17.69-22.312,18.826,18.826,0,0,1,4.344-.359.934.934,0,0,0,1.107-.74c3.984-10.75,11.65-17.188,22.955-18.98,13.132-2.082,26.113,5.926,30.555,18.624a1.371,1.371,0,0,0,1.591,1.107,21.634,21.634,0,0,1,19.984,13.165,21.509,21.509,0,0,1-4.43,23.5,1.841,1.841,0,0,0-.542,1.458c.032,5.726.081,11.453,0,17.178a8.22,8.22,0,0,1-8.153,7.966c-3.956.051-7.912.025-11.868,0a1.935,1.935,0,0,0-1.542.622c-2.8,2.846-5.633,5.654-8.449,8.483-.612.615-1.233,1.149-2.184.781-.989-.385-1.114-1.2-1.1-2.127.026-2.255-.036-4.513.031-6.767.025-.847-.248-1-1.031-1-4.136.027-7.193-1.965-8.472-5.449a8.985,8.985,0,0,1-.521-3.162c.012-3.505-.013-7.01.019-10.515.006-.662-.143-.88-.843-.865-2.255.048-4.511.037-6.767,0-.588-.009-.8.154-.745.747a8.773,8.773,0,0,1,0,1.56c-.148,1.729-.021,3.007,1.994,3.941,2.328,1.08,3.224,3.48,2.966,6.068a6.314,6.314,0,0,1-4.16,5.5,1.049,1.049,0,0,0-.81,1.18c.036,2.984.022,5.969.013,8.953,0,1.435-.6,2.036-2.008,2.044-1.943.011-3.887-.017-5.83.013a3.067,3.067,0,0,1-1.837-.576q-5.653-3.8-11.333-7.554C-497.919,2276.866-498.094,2276.771-498.4,2276.585Zm10.016-22.191c-3.2,2.12-6.4,4.247-9.62,6.351a.875.875,0,0,0-.388.871q.01,5.149,0,10.3a.873.873,0,0,0,.383.874c3.216,2.1,6.418,4.225,9.624,6.342a4.792,4.792,0,0,0,1.59,1.019v-26.9Zm61.97-8.808a17.844,17.844,0,0,0,4.6-11.253,18.271,18.271,0,0,0-20.336-19.079,1.7,1.7,0,0,1-1.893-.961,10.281,10.281,0,0,1-.448-1.38,25.009,25.009,0,0,0-41.46-10.586,25.013,25.013,0,0,0-6.6,11.263c-.4,1.418-.97,1.772-2.423,1.617a18.363,18.363,0,0,0-5.585.32,18.341,18.341,0,0,0-14.505,17.939,18.355,18.355,0,0,0,14.542,17.912c3.2.642,6.432.3,9.65.395a1.175,1.175,0,0,0,.836-.369,11.959,11.959,0,0,1,10.169-2.966,4.924,4.924,0,0,0,.624,0c2.056,0,2.489.4,2.478,2.5,0,.708.231.86.886.848,2.116-.037,4.235-.065,6.349.01.919.033,1.142-.215,1.137-1.134-.032-5.414,3.484-8.884,8.92-8.885,8.293,0,16.587.056,24.88-.028C-431.226,2241.717-428.47,2242.711-426.416,2245.586Zm-28.67,33.865c2.4-2.419,4.584-4.6,6.736-6.811a2.722,2.722,0,0,1,2.115-.888q6.351.044,12.7.008a4.99,4.99,0,0,0,5.084-5.076q.035-8.278,0-16.556a4.965,4.965,0,0,0-5.042-5.011q-13.276-.027-26.551,0a4.948,4.948,0,0,0-5.031,5.013q-.038,8.33,0,16.66a4.982,4.982,0,0,0,4.975,4.971c.972.02,1.944,0,2.915.005,1.505.01,2.087.579,2.095,2.065C-455.078,2275.594-455.085,2277.355-455.085,2279.452Zm-46.649-12.648c0-1.422-.023-2.845.011-4.267.014-.576-.148-.785-.753-.777-2.6.031-5.2-.026-7.806.028a4.984,4.984,0,0,0-4.778,4.947,4.977,4.977,0,0,0,4.71,5.01c2.635.071,5.273.007,7.91.032.537.005.73-.152.717-.706C-501.757,2269.649-501.735,2268.226-501.735,2266.8Zm18.41-.086v12.9c0,2.062,0,2,2.024,2.086.991.042,1.165-.292,1.162-1.2-.034-8.81-.02-17.621-.02-26.431,0-2.242,0-2.206-2.286-2.236-.758-.01-.9.233-.9.936C-483.31,2257.421-483.325,2262.069-483.325,2266.717Zm6.636,2.864a3.174,3.174,0,0,0,1.593-3,2.93,2.93,0,0,0-1.593-2.572Z" fill="#242022"/>
    <path id="Trazado_186614" data-name="Trazado 186614" d="M-417.773,2254.345c-2.055-2.875-4.81-3.87-8.175-3.836-8.292.083-16.586.026-24.88.028-5.436,0-8.953,3.472-8.92,8.885.005.919-.218,1.167-1.137,1.134-2.114-.075-4.233-.047-6.349-.01-.655.012-.889-.14-.886-.848.011-2.1-.421-2.5-2.478-2.5a4.923,4.923,0,0,1-.624,0,11.959,11.959,0,0,0-10.169,2.966,1.175,1.175,0,0,1-.836.369c-3.218-.1-6.447.248-9.65-.395a18.355,18.355,0,0,1-14.542-17.912,18.341,18.341,0,0,1,14.505-17.939,18.363,18.363,0,0,1,5.585-.32c1.453.155,2.025-.2,2.423-1.617a25.013,25.013,0,0,1,6.6-11.263,25.009,25.009,0,0,1,41.46,10.586,10.281,10.281,0,0,0,.448,1.38,1.7,1.7,0,0,0,1.893.961,18.271,18.271,0,0,1,20.336,19.079A17.844,17.844,0,0,1-417.773,2254.345Zm-61.991-18.871q0,5.622,0,11.245c0,1.577.562,2.147,2.112,2.151q4.53.009,9.059,0c1.578,0,2.142-.561,2.158-2.109.013-1.338.425-1.594,1.68-1.012.755.35,1.5.728,2.235,1.109a2.95,2.95,0,0,0,1.392.352c5.727-.009,11.453.026,17.18-.019a4.117,4.117,0,0,0,3.682-6.061,1.131,1.131,0,0,1,.014-1.211,3.857,3.857,0,0,0-.02-3.789,1.1,1.1,0,0,1,.023-1.213,3.9,3.9,0,0,0-.021-3.792,1.039,1.039,0,0,1-.027-1.12,4.131,4.131,0,0,0-3.8-6.122c-1.6-.02-3.194-.045-4.789.014-.755.028-.952-.224-.9-.937a24.725,24.725,0,0,0,0-2.6,5.005,5.005,0,0,0-4.829-4.8c-1.109-.034-2.221-.026-3.331,0a1.659,1.659,0,0,0-1.822,1.807c-.025.936,0,1.874-.006,2.811-.012,3.286-2.112,5.327-5.424,5.4-.965.02-1.331-.162-1.267-1.217.1-1.567-.535-2.134-2.1-2.137q-4.529-.009-9.058,0c-1.577,0-2.141.558-2.144,2.118Q-479.77,2229.9-479.764,2235.474Z" transform="translate(-8.643 -8.759)" fill="#ccfff9"/>
    <path id="Trazado_186615" data-name="Trazado 186615" d="M-316.873,2417.783c0-2.1.007-3.858,0-5.62-.008-1.486-.589-2.055-2.095-2.065-.972-.006-1.944.015-2.915-.005a4.982,4.982,0,0,1-4.975-4.971q-.044-8.329,0-16.659a4.948,4.948,0,0,1,5.031-5.013q13.276-.029,26.551,0a4.965,4.965,0,0,1,5.042,5.011q.044,8.277,0,16.555a4.99,4.99,0,0,1-5.084,5.076q-6.351.032-12.7-.007a2.721,2.721,0,0,0-2.115.888C-312.289,2413.183-314.474,2415.363-316.873,2417.783Zm12.384-26.011q4.416,0,8.833,0c1.328,0,2.078-.6,2.1-1.634s-.745-1.694-2.035-1.695q-8.782-.008-17.563,0c-1.3,0-2.059.637-2.045,1.683s.768,1.643,2.086,1.646Q-308.8,2391.779-304.488,2391.772Zm.215,3.331q-4.416,0-8.833,0c-1.325,0-2.075.6-2.093,1.636s.743,1.691,2.038,1.692q8.782.008,17.563,0c1.294,0,2.059-.648,2.043-1.689s-.767-1.637-2.092-1.639Q-299.96,2395.1-304.273,2395.1Zm-.071,6.664q-4.365,0-8.73,0c-1.375,0-2.155.636-2.126,1.708.028,1.034.779,1.622,2.109,1.622q8.73.005,17.459,0c1.312,0,2.07-.618,2.076-1.656s-.753-1.669-2.058-1.672C-298.524,2401.763-301.434,2401.767-304.344,2401.767Zm-16.694-13.328c-1.7,0-2.474.511-2.493,1.638-.02,1.156.788,1.7,2.542,1.694,1.655,0,2.46-.558,2.442-1.692S-319.344,2388.439-321.038,2388.439Zm0,6.664c-1.7,0-2.475.508-2.5,1.634-.022,1.157.787,1.7,2.538,1.7,1.658,0,2.461-.555,2.446-1.688S-319.343,2395.1-321.034,2395.1Zm.016,10c1.678,0,2.468-.531,2.471-1.663s-.789-1.67-2.462-1.67c-1.741,0-2.556.553-2.522,1.713C-323.5,2404.6-322.722,2405.1-321.018,2405.1Z" transform="translate(-138.213 -138.331)" fill="#a9f73f"/>
    <path id="Trazado_186616" data-name="Trazado 186616" d="M-436.522,2441.554c-3.206-2.117-6.408-4.241-9.624-6.342a.873.873,0,0,1-.383-.874q.009-5.15,0-10.3a.874.874,0,0,1,.388-.871c3.215-2.1,6.415-4.231,9.619-6.351Q-436.522,2429.187-436.522,2441.554Z" transform="translate(-51.864 -162.423)" fill="#1d7e96"/>
    <path id="Trazado_186617" data-name="Trazado 186617" d="M-493.09,2448.32c0,1.422-.022,2.845.011,4.267.013.553-.18.711-.717.706-2.636-.025-5.275.039-7.91-.032a4.977,4.977,0,0,1-4.71-5.01,4.984,4.984,0,0,1,4.778-4.947c2.6-.054,5.2,0,7.806-.028.606-.007.767.2.753.777C-493.114,2445.474-493.09,2446.9-493.09,2448.32Z" transform="translate(-8.644 -181.517)" fill="#2df0da"/>
    <path id="Trazado_186618" data-name="Trazado 186618" d="M-392.431,2422.505c0-4.648.015-9.3-.016-13.944,0-.7.138-.946.9-.936,2.285.031,2.286-.006,2.286,2.236,0,8.81-.014,17.621.02,26.431,0,.91-.171,1.244-1.162,1.2-2.022-.086-2.024-.024-2.024-2.086Z" transform="translate(-90.894 -155.788)" fill="#a3edff"/>
    <path id="Trazado_186619" data-name="Trazado 186619" d="M-410.573,2438.593q0-12.368,0-24.736l1.59-1.142v26.9A4.792,4.792,0,0,1-410.573,2438.593Z" transform="translate(-77.813 -159.462)" fill="#1d7e96"/>
    <path id="Trazado_186620" data-name="Trazado 186620" d="M-368.545,2456.935v-5.571a2.93,2.93,0,0,1,1.593,2.572A3.173,3.173,0,0,1-368.545,2456.935Z" transform="translate(-108.144 -187.354)" fill="#74ddf7"/>
    <path id="Trazado_186621" data-name="Trazado 186621" d="M-410.65,2265.662q0-5.57,0-11.141c0-1.559.567-2.115,2.144-2.118q4.529-.007,9.058,0c1.562,0,2.193.57,2.1,2.137-.064,1.055.3,1.237,1.267,1.217,3.311-.069,5.412-2.11,5.424-5.4,0-.937-.018-1.875.006-2.811a1.659,1.659,0,0,1,1.822-1.807c1.11-.023,2.222-.031,3.331,0a5.005,5.005,0,0,1,4.829,4.8,24.72,24.72,0,0,1,0,2.6c-.049.713.149.965.9.937,1.594-.06,3.193-.034,4.789-.015a4.131,4.131,0,0,1,3.8,6.122,1.04,1.04,0,0,0,.027,1.12,3.9,3.9,0,0,1,.021,3.791,1.1,1.1,0,0,0-.023,1.213,3.856,3.856,0,0,1,.02,3.789,1.131,1.131,0,0,0-.014,1.211,4.117,4.117,0,0,1-3.682,6.061c-5.726.045-11.453.01-17.18.019a2.947,2.947,0,0,1-1.392-.352c-.739-.381-1.481-.76-2.235-1.109-1.255-.581-1.667-.325-1.68,1.012-.016,1.548-.58,2.106-2.158,2.109q-4.529.008-9.059,0c-1.55,0-2.11-.574-2.112-2.151Q-410.656,2271.285-410.65,2265.662Zm27.354,8.4c2.74,0,5.48,0,8.221,0,.554,0,.995-.162,1.048-.757s-.305-.857-.884-.923a1.574,1.574,0,0,1-1.563-1.628,1.556,1.556,0,0,1,1.507-1.675c.56-.073.957-.279.943-.875s-.446-.758-.99-.836a1.556,1.556,0,0,1-1.463-1.613,1.544,1.544,0,0,1,1.408-1.659c.573-.1,1.059-.222,1.044-.891s-.541-.747-1.092-.851a1.544,1.544,0,0,1-1.362-1.6,1.547,1.547,0,0,1,1.41-1.658c.628-.1,1.126-.27,1.033-.994-.086-.667-.633-.714-1.191-.71-2.012.011-4.024,0-6.035,0-2.365,0-2.731-.359-2.731-2.678q0-1.665,0-3.33c0-1.829-.513-2.273-2.357-2.346-.876-.035-1.029.288-.985,1.051a8.194,8.194,0,0,1-1.5,5.4,8.4,8.4,0,0,1-7.55,3.573c-.445-.014-.956-.191-.948.646.037,4.023.021,8.047.01,12.071,0,.422.084.678.567.6a5.159,5.159,0,0,1,3.422.976,5.374,5.374,0,0,0,2.967.708C-388.014,2274.021-385.655,2274.061-383.3,2274.06Zm-23.944-8.383c0,3.052.016,6.1-.013,9.155-.006.613.121.853.795.833,1.663-.051,3.329-.043,4.993,0,.613.014.746-.2.744-.774q-.028-9.155,0-18.311c0-.568-.123-.793-.741-.778-1.664.041-3.33.047-4.993,0-.668-.02-.8.21-.8.829C-407.224,2259.643-407.24,2262.66-407.24,2265.677Z" transform="translate(-77.756 -38.947)" fill="#242022"/>
    <path id="Trazado_186622" data-name="Trazado 186622" d="M-274.2,2404.743q-4.313,0-8.626,0c-1.318,0-2.073-.607-2.086-1.645s.743-1.682,2.045-1.683q8.782-.008,17.563,0c1.29,0,2.056.654,2.035,1.7s-.771,1.631-2.1,1.634Q-269.784,2404.75-274.2,2404.743Z" transform="translate(-168.5 -151.302)" fill="#242022"/>
    <path id="Trazado_186623" data-name="Trazado 186623" d="M-273.986,2425.355q4.313,0,8.626,0c1.325,0,2.075.6,2.092,1.639s-.748,1.688-2.043,1.689q-8.782.008-17.563,0c-1.295,0-2.056-.648-2.038-1.692s.769-1.634,2.093-1.636Q-278.4,2425.349-273.986,2425.355Z" transform="translate(-168.5 -168.583)" fill="#242022"/>
    <path id="Trazado_186624" data-name="Trazado 186624" d="M-274.058,2449.3c2.91,0,5.82,0,8.73,0,1.306,0,2.064.63,2.058,1.672s-.764,1.656-2.076,1.656q-8.729.007-17.459,0c-1.33,0-2.081-.589-2.109-1.622-.029-1.072.751-1.705,2.126-1.708Q-278.423,2449.294-274.058,2449.3Z" transform="translate(-168.499 -185.863)" fill="#242022"/>
    <path id="Trazado_186625" data-name="Trazado 186625" d="M-312.351,2401.414c1.694,0,2.474.514,2.491,1.641s-.787,1.691-2.442,1.692c-1.753,0-2.561-.538-2.542-1.694C-314.825,2401.925-314.047,2401.414-312.351,2401.414Z" transform="translate(-146.899 -151.306)" fill="#242022"/>
    <path id="Trazado_186626" data-name="Trazado 186626" d="M-312.348,2425.359c1.691,0,2.473.517,2.488,1.645s-.788,1.687-2.446,1.688c-1.751,0-2.56-.541-2.538-1.7C-314.822,2425.867-314.046,2425.359-312.348,2425.359Z" transform="translate(-146.899 -168.587)" fill="#242022"/>
    <path id="Trazado_186627" data-name="Trazado 186627" d="M-312.333,2452.636c-1.7,0-2.48-.5-2.513-1.62-.034-1.16.781-1.713,2.522-1.713,1.674,0,2.466.538,2.462,1.67S-310.655,2452.635-312.333,2452.636Z" transform="translate(-146.897 -185.867)" fill="#242022"/>
    <path id="Trazado_186628" data-name="Trazado 186628" d="M-348.772,2282.671c-2.359,0-4.718-.04-7.076.018a5.374,5.374,0,0,1-2.967-.708,5.159,5.159,0,0,0-3.422-.976c-.483.073-.568-.183-.567-.6.011-4.024.027-8.047-.01-12.071-.008-.837.5-.66.948-.646a8.4,8.4,0,0,0,7.55-3.573,8.194,8.194,0,0,0,1.5-5.4c-.044-.763.109-1.086.985-1.051,1.844.073,2.354.517,2.357,2.346q0,1.665,0,3.33c0,2.319.366,2.678,2.731,2.678,2.012,0,4.024.007,6.035,0,.558,0,1.105.043,1.191.71.094.725-.4.893-1.033.994a1.547,1.547,0,0,0-1.41,1.658,1.544,1.544,0,0,0,1.362,1.6c.551.1,1.077.175,1.092.851s-.471.8-1.044.891a1.544,1.544,0,0,0-1.408,1.659,1.556,1.556,0,0,0,1.463,1.613c.544.078.975.234.99.836s-.383.8-.943.875a1.556,1.556,0,0,0-1.507,1.675,1.574,1.574,0,0,0,1.563,1.628c.579.066.936.339.884.923s-.494.759-1.048.757C-343.291,2282.666-346.032,2282.67-348.772,2282.671Z" transform="translate(-112.28 -47.557)" fill="#febbaa"/>
    <path id="Trazado_186629" data-name="Trazado 186629" d="M-398.426,2291.794c0-3.017.016-6.034-.013-9.051-.006-.619.13-.849.8-.829,1.663.049,3.329.043,4.993,0,.618-.015.742.211.741.778q-.027,9.155,0,18.311c0,.572-.131.789-.744.774-1.664-.04-3.33-.048-4.993,0-.673.02-.8-.22-.795-.833C-398.411,2297.9-398.426,2294.846-398.426,2291.794Z" transform="translate(-86.569 -65.064)" fill="#ff8900"/>
  </g>
</svg>
