<svg xmlns="http://www.w3.org/2000/svg" width="99.865" height="100" viewBox="0 0 99.865 100">
  <g id="Grupo_128066" data-name="Grupo 128066" transform="translate(2266.352 -1456.757)">
    <path id="Trazado_186667" data-name="Trazado 186667" d="M-2183.728,1456.757c1.177.27,2.37.49,3.53.822,2.183.625,2.58,2.194.99,3.818-2.317,2.367-4.636,4.732-6.985,7.068a2.369,2.369,0,0,0-.64,1.523,5.05,5.05,0,0,0,2.14,5.209.572.572,0,0,1,.068.069c2.269,2.338,2.269,2.325,5.531,2.186a1.375,1.375,0,0,0,.981-.514q3.6-3.635,7.2-7.268c1.567-1.579,3.08-1.183,3.785.916a14.577,14.577,0,0,1,.555,4.9,21.83,21.83,0,0,1-.747,7.11,19.548,19.548,0,0,1-22.523,12.757,1.65,1.65,0,0,0-1.765.508c-3.323,3.382-6.687,6.723-10.048,10.068a7.151,7.151,0,0,1-.9.653c.991.913,1.816,1.642,2.6,2.412.316.31.513.266.778-.03a9.162,9.162,0,0,1,.9-.889,1.969,1.969,0,0,1,2.654.045,1.911,1.911,0,0,1,.13,2.644c-.344.427-1.105.949-1.019,1.2.18.519.79.9,1.242,1.312q12.524,11.494,25.056,22.978a9.605,9.605,0,0,1,3.243,4.983c1.183,5.7.482,10.337-5,13.79a11.519,11.519,0,0,1-14.511-1.961c-4.873-5.224-9.686-10.5-14.524-15.76-3.167-3.44-6.342-6.873-9.486-10.334-.456-.5-.732-.568-1.175-.021a2.317,2.317,0,0,1-1.967,1.083,1.888,1.888,0,0,1-1.713-1.242,1.9,1.9,0,0,1,.41-2.071c.368-.432,1.123-.772,1.058-1.265s-.7-.889-1.089-1.319c-1.375-1.506-1.377-1.5-2.82-.062q-4.754,4.753-9.517,9.5a1.264,1.264,0,0,0-.377,1.365,19.512,19.512,0,0,1-16.742,23.643,19.261,19.261,0,0,1-8.261-.8,1.947,1.947,0,0,1-.859-3.465q3.677-3.695,7.406-7.336a2.173,2.173,0,0,0,.63-1.427,4.954,4.954,0,0,0-2.153-5.189.275.275,0,0,1-.069-.069,5.215,5.215,0,0,0-5.525-2.27,1.867,1.867,0,0,0-1.176.52q-3.583,3.65-7.2,7.27c-1.572,1.579-3.075,1.178-3.785-.924-.432-1.277-.4-2.651-.933-3.9v-3.508a6.024,6.024,0,0,0,.455-2.113,19.513,19.513,0,0,1,23.5-15.2,1.162,1.162,0,0,0,1.258-.362c2.073-2.105,4.172-4.186,6.261-6.275l7.515-7.511c-.212-.223-.386-.415-.569-.6q-10.217-10.241-20.436-20.48c-.985-.986-1.834-2.328-3.029-2.824s-2.746-.188-4.137-.133a2.474,2.474,0,0,1-2.445-1.387c-2.555-4.323-5.152-8.621-7.747-12.92-.193-.319-.256-.735-.629-.934v-.974a35.991,35.991,0,0,1,4.1-4.342,15.318,15.318,0,0,1,2.912-2.673h1.169c4.6,2.774,9.181,5.565,13.8,8.306a2.51,2.51,0,0,1,1.378,2.459c-.04,1.135.021,2.273-.021,3.408a1.681,1.681,0,0,0,.565,1.359q11.433,11.433,22.834,22.9c.444.447.662.444,1.1,0q6.621-6.671,13.293-13.29a1.206,1.206,0,0,0,.384-1.276,19.5,19.5,0,0,1,13.862-23.181,15.486,15.486,0,0,0,2.762-.682Zm-64.61,95.977c.341.033.524.058.708.068a15.611,15.611,0,0,0,15.875-19.955,2.847,2.847,0,0,1,.831-3.2q18.8-18.739,37.537-37.542a2.9,2.9,0,0,1,3.212-.86,15.557,15.557,0,0,0,18.838-9.112,14.9,14.9,0,0,0,1.028-7.387c-1.978,1.943-3.908,3.815-5.8,5.72a2.673,2.673,0,0,1-2.061.891c-1.623-.034-3.247-.03-4.87,0a2.508,2.508,0,0,1-1.976-.854q-2.446-2.581-4.935-5.12a2.57,2.57,0,0,1-.762-1.926c.016-1.559.026-3.118,0-4.676a2.793,2.793,0,0,1,.885-2.17c1.662-1.644,3.29-3.322,4.924-4.995a2.009,2.009,0,0,0,.661-.869c-.227-.026-.379-.05-.532-.061a15.614,15.614,0,0,0-15.992,20,2.775,2.775,0,0,1-.821,3.119q-18.832,18.777-37.606,37.61a2.809,2.809,0,0,1-3.131.818,15.6,15.6,0,0,0-19.67,11.65,13.5,13.5,0,0,0-.216,4.846c2.01-1.978,3.964-3.881,5.89-5.811a2.479,2.479,0,0,1,1.9-.792q2.483.037,4.968,0a2.466,2.466,0,0,1,1.9.807q2.528,2.569,5.1,5.1a2.611,2.611,0,0,1,.833,1.995c-.018,1.494-.041,2.989.007,4.48a3.128,3.128,0,0,1-1.028,2.5C-2244.532,1548.841-2246.355,1550.73-2248.338,1552.734Zm78.113-7.708a7.365,7.365,0,0,0-2.4-5.656q-13.109-12.074-26.25-24.113c-.469-.432-.721-.4-1.154.04q-3.826,3.887-7.717,7.709c-.486.476-.474.728-.019,1.221q12.028,13.02,24.021,26.07a7.726,7.726,0,0,0,8.561,1.977A7.717,7.717,0,0,0-2170.225,1545.026Zm-76.684-74.39c0-.617-.024-1.235.008-1.851a.966.966,0,0,0-.543-1.008q-5.266-3.125-10.495-6.313a.661.661,0,0,0-.984.143c-.781.825-1.577,1.64-2.412,2.408a.754.754,0,0,0-.148,1.145q3.133,5.149,6.2,10.339a1.043,1.043,0,0,0,1.076.6c1.07-.036,2.143.011,3.214-.017a2.877,2.877,0,0,1,2.251.93c3.561,3.6,7.148,7.178,10.726,10.764q6.433,6.448,12.853,12.909c.489.495.752.5,1.185-.016a11.566,11.566,0,0,1,1.513-1.514c.59-.487.549-.8.007-1.339-7.52-7.5-14.992-15.04-22.537-22.51C-2246.355,1473.959-2247.389,1472.65-2246.909,1470.635Zm35.971,50.013c.138-.118.265-.211.375-.321q3.92-3.915,7.842-7.828c.306-.3.291-.512-.022-.788q-1.057-.931-2.078-1.9c-.276-.264-.469-.239-.728.02q-3.84,3.858-7.7,7.7c-.216.215-.3.379-.051.639.693.726,1.364,1.474,2.047,2.21A4.1,4.1,0,0,0-2210.938,1520.649Z" transform="translate(0 0)" fill="#030303"/>
    <path id="Trazado_186668" data-name="Trazado 186668" d="M-2237,1563.758c1.982-2,3.805-3.893,5.685-5.723a3.128,3.128,0,0,0,1.028-2.5c-.048-1.492-.025-2.987-.007-4.48a2.611,2.611,0,0,0-.833-1.995q-2.568-2.528-5.1-5.1a2.465,2.465,0,0,0-1.9-.807q-2.484.039-4.968,0a2.48,2.48,0,0,0-1.9.792c-1.926,1.931-3.88,3.833-5.89,5.811a13.5,13.5,0,0,1,.216-4.846,15.6,15.6,0,0,1,19.67-11.65,2.809,2.809,0,0,0,3.131-.818q18.772-18.836,37.606-37.61a2.774,2.774,0,0,0,.821-3.119,15.614,15.614,0,0,1,15.992-20c.153.01.306.034.532.061a2.009,2.009,0,0,1-.661.869c-1.634,1.672-3.262,3.35-4.924,4.995a2.793,2.793,0,0,0-.885,2.17c.03,1.558.02,3.117,0,4.676a2.57,2.57,0,0,0,.762,1.926q2.485,2.542,4.935,5.12a2.508,2.508,0,0,0,1.976.854c1.623-.028,3.247-.032,4.87,0a2.674,2.674,0,0,0,2.061-.891c1.9-1.9,3.827-3.776,5.8-5.72a14.9,14.9,0,0,1-1.028,7.387,15.557,15.557,0,0,1-18.838,9.112,2.9,2.9,0,0,0-3.212.86q-18.734,18.806-37.537,37.542a2.846,2.846,0,0,0-.831,3.2,15.611,15.611,0,0,1-15.875,19.955C-2236.474,1563.816-2236.657,1563.791-2237,1563.758Zm44.191-60.145a2.128,2.128,0,0,0-1.566.831q-11.911,11.921-23.827,23.836a3.927,3.927,0,0,0-.575.656,1.813,1.813,0,0,0,.124,2.257,1.859,1.859,0,0,0,2.187.6,2.827,2.827,0,0,0,1.073-.816q11.846-11.848,23.691-23.7a4.468,4.468,0,0,0,.632-.734,1.783,1.783,0,0,0,.046-1.937A1.9,1.9,0,0,0-2192.806,1503.612Zm7.557-3.581a1.947,1.947,0,0,0-1.891-1.946,1.957,1.957,0,0,0-2,1.933,1.938,1.938,0,0,0,1.894,1.938A1.932,1.932,0,0,0-2185.25,1500.031Zm-37.44,37.409a1.954,1.954,0,0,0,1.969-1.968,1.938,1.938,0,0,0-1.929-1.9,1.924,1.924,0,0,0-1.962,1.862A1.938,1.938,0,0,0-2222.69,1537.44Z" transform="translate(-11.34 -11.024)" fill="#ccfff9"/>
    <path id="Trazado_186669" data-name="Trazado 186669" d="M-2005.242,1709.851a7.716,7.716,0,0,1-4.953,7.248,7.726,7.726,0,0,1-8.561-1.977q-12.015-13.031-24.021-26.07c-.455-.493-.467-.745.019-1.221q3.9-3.817,7.717-7.709c.433-.44.685-.472,1.154-.04q13.114,12.068,26.249,24.113A7.364,7.364,0,0,1-2005.242,1709.851Zm-7.234-1.457c.059-.712-.441-1.22-.955-1.732q-8.379-8.348-16.753-16.7a5.42,5.42,0,0,0-.721-.65,1.949,1.949,0,0,0-2.492.25,1.9,1.9,0,0,0-.161,2.491,6.541,6.541,0,0,0,.661.712q8.34,8.319,16.685,16.633a5.4,5.4,0,0,0,.8.7,1.774,1.774,0,0,0,1.936.055A1.854,1.854,0,0,0-2012.477,1708.394Z" transform="translate(-164.983 -164.825)" fill="#a9f73f"/>
    <path id="Trazado_186670" data-name="Trazado 186670" d="M-2233.677,1483.52c-.479,2.014.554,3.324,1.909,4.665,7.545,7.47,15.017,15.015,22.537,22.51.542.54.583.852-.007,1.339a11.559,11.559,0,0,0-1.513,1.514c-.432.52-.7.51-1.185.016q-6.4-6.481-12.853-12.908c-3.578-3.586-7.165-7.162-10.726-10.764a2.876,2.876,0,0,0-2.251-.93c-1.071.029-2.144-.018-3.214.017a1.043,1.043,0,0,1-1.076-.6q-3.062-5.191-6.2-10.339a.754.754,0,0,1,.148-1.145c.836-.768,1.631-1.583,2.412-2.408a.661.661,0,0,1,.984-.143q5.231,3.183,10.495,6.313a.966.966,0,0,1,.543,1.008C-2233.7,1482.285-2233.677,1482.9-2233.677,1483.52Z" transform="translate(-13.232 -12.885)" fill="#ccfff9"/>
    <path id="Trazado_186671" data-name="Trazado 186671" d="M-2061.092,1670.386a4.1,4.1,0,0,1-.312-.273c-.683-.736-1.354-1.483-2.046-2.21-.248-.259-.165-.423.051-.639q3.856-3.842,7.7-7.7c.259-.26.452-.284.728-.02.678.649,1.373,1.282,2.078,1.9.313.276.328.484.021.788q-3.931,3.9-7.842,7.828C-2060.827,1670.175-2060.954,1670.268-2061.092,1670.386Z" transform="translate(-149.846 -149.737)" fill="#35a3be"/>
    <path id="Trazado_186672" data-name="Trazado 186672" d="M-2102.455,1594.071a1.9,1.9,0,0,1,1.786,1,1.782,1.782,0,0,1-.046,1.937,4.455,4.455,0,0,1-.631.734q-11.843,11.851-23.691,23.7a2.825,2.825,0,0,1-1.073.816,1.86,1.86,0,0,1-2.187-.6,1.813,1.813,0,0,1-.124-2.257,3.921,3.921,0,0,1,.575-.656q11.912-11.919,23.827-23.836A2.129,2.129,0,0,1-2102.455,1594.071Z" transform="translate(-101.692 -101.482)" fill="#030303"/>
    <path id="Trazado_186673" data-name="Trazado 186673" d="M-2010.023,1574.841a1.932,1.932,0,0,1-2,1.925,1.938,1.938,0,0,1-1.894-1.938,1.957,1.957,0,0,1,2-1.933A1.947,1.947,0,0,1-2010.023,1574.841Z" transform="translate(-186.567 -85.834)" fill="#030303"/>
    <path id="Trazado_186674" data-name="Trazado 186674" d="M-2147.927,1712.759a1.938,1.938,0,0,1-1.922-2.008,1.924,1.924,0,0,1,1.962-1.862,1.938,1.938,0,0,1,1.929,1.9A1.954,1.954,0,0,1-2147.927,1712.759Z" transform="translate(-86.103 -186.343)" fill="#030303"/>
    <path id="Trazado_186675" data-name="Trazado 186675" d="M-1986.5,1734.444a1.854,1.854,0,0,1-1,1.759,1.774,1.774,0,0,1-1.936-.055,5.39,5.39,0,0,1-.8-.7q-8.346-8.313-16.685-16.633a6.553,6.553,0,0,1-.661-.712,1.9,1.9,0,0,1,.161-2.491,1.949,1.949,0,0,1,2.492-.25,5.413,5.413,0,0,1,.721.65q8.378,8.35,16.753,16.7C-1986.94,1733.224-1986.44,1733.732-1986.5,1734.444Z" transform="translate(-190.961 -190.876)" fill="#030303"/>
  </g>
</svg>
