<svg xmlns="http://www.w3.org/2000/svg" width="105" height="85.689" viewBox="0 0 105 85.689">
  <g id="Grupo_128051" data-name="Grupo 128051" transform="translate(-1867.49 -1459.737)">
    <path id="Trazado_186594" data-name="Trazado 186594" d="M1967.667,1461.322c.44-1.326.751-1.563,2.134-1.563q32.543,0,65.085,0a9.938,9.938,0,0,1,10.079,7.67c.05.176-.04.433.248.493v57.419c-.359.234-.31.645-.409.983a9.765,9.765,0,0,1-8.983,7.02c-4.3.093-8.6.051-12.907.035-.719,0-.889.1-.531.813,1.238,2.463,2.3,5.019,3.657,7.416a2.477,2.477,0,0,1-2.441,3.818c-1.526-.126-3.072-.03-4.608-.022a3.727,3.727,0,0,1-3.665-2.285c-1.437-3.01-2.922-6-4.351-9.012a1.063,1.063,0,0,0-1.16-.729c-1.125.05-2.254-.008-3.38.02a1.6,1.6,0,0,1-1.863-1.465c.245-1.2.65-1.512,2-1.513,9.4,0,18.793-.055,28.189.022a7.146,7.146,0,0,0,7.426-7.35c-.148-7-.041-14.009-.041-21.013q0-15.991,0-31.982a7.091,7.091,0,0,0-.543-3.2,6.946,6.946,0,0,0-6.817-4.144q-32.443.037-64.886.027C1968.779,1462.786,1967.964,1462.5,1967.667,1461.322Zm55.4,81.085c-1.265-2.609-2.508-5.024-3.607-7.5-.5-1.133-1.084-1.762-2.41-1.548a9.769,9.769,0,0,1-2.244,0c-.818-.059-.842.244-.532.872,1.237,2.5,2.451,5.014,3.672,7.523.169.348.351.663.81.661C2020.143,1542.4,2021.525,1542.407,2023.071,1542.407Z" transform="translate(-72.723 -0.014)" fill="#030303"/>
    <path id="Trazado_186595" data-name="Trazado 186595" d="M1902.933,1465.394c.3,1.179,1.112,1.464,2.241,1.464q32.443-.028,64.886-.027a6.946,6.946,0,0,1,6.817,4.144,7.087,7.087,0,0,1,.543,3.2q-.01,15.991,0,31.982c0,7-.108,14.012.041,21.013a7.146,7.146,0,0,1-7.426,7.35c-9.4-.077-18.792-.025-28.189-.022-1.353,0-1.758.315-2,1.513l-3.638-.016c-.4-1.277-.707-1.5-2.167-1.5q-24.139,0-48.278,0a6.855,6.855,0,0,1-7.252-7.166q-.017-26.651,0-53.3c0-4.321,2.872-7.159,7.212-7.176q5.74-.022,11.48,0a1.749,1.749,0,0,0,1.995-1.486Zm69.121,55.389q0-1.728.008-3.455c1.164-.214,1.484-.958,1.483-2.075q-.033-20.4-.015-40.8c0-2.657-1.041-3.681-3.738-3.681q-41.825,0-83.651-.033a3.394,3.394,0,0,0-3.742,3.744c.066,17.462.034,34.923.035,52.385,0,.273,0,.547.008.82a2.882,2.882,0,0,0,2.093,2.733,5.337,5.337,0,0,0,1.622.175q41.826,0,83.651,0c.205,0,.41.008.615,0a3.007,3.007,0,0,0,3.1-3.21c.012-1.5-.046-3.01.019-4.51A1.77,1.77,0,0,0,1972.053,1520.783Z" transform="translate(-7.989 -4.087)" fill="#ff8900"/>
    <path id="Trazado_186596" data-name="Trazado 186596" d="M1891.2,1461.28a1.749,1.749,0,0,1-1.995,1.486q-5.74-.03-11.48,0c-4.341.017-7.21,2.855-7.212,7.176q-.016,26.651,0,53.3a6.855,6.855,0,0,0,7.252,7.166q24.139.007,48.278,0c1.46,0,1.77.221,2.167,1.5-.264,1.188-1.051,1.5-2.2,1.491-8.61-.03-17.22,0-25.831-.037a1.364,1.364,0,0,0-1.458.918c-1.361,2.9-2.813,5.752-4.167,8.652a3.908,3.908,0,0,1-3.97,2.469c-1.571-.037-3.143.01-4.715-.012a2.3,2.3,0,0,1-2.211-3.5q1.825-3.827,3.712-7.624c.333-.67.335-.91-.537-.9-3.245.037-6.493.074-9.737-.018a9.774,9.774,0,0,1-9.6-9.955q-.037-18.041-.008-36.081,0-8.61,0-17.22a9.924,9.924,0,0,1,10.3-10.34c3.793-.019,7.585-.007,11.378,0C1890.494,1459.748,1890.869,1460.042,1891.2,1461.28Zm-4.483,81.092c1.554,0,2.945,0,4.336,0a.737.737,0,0,0,.693-.506q1.919-3.955,3.851-7.9c.213-.435.145-.611-.369-.6-1.091.014-2.184.026-3.273-.023a1.121,1.121,0,0,0-1.249.763c-.68,1.524-1.446,3.009-2.175,4.511C1887.943,1539.826,1887.359,1541.043,1886.718,1542.371Z" transform="translate(0)" fill="#030303"/>
    <path id="Trazado_186597" data-name="Trazado 186597" d="M2146.053,1737.252c-1.546,0-2.929,0-4.311,0-.46,0-.641-.313-.81-.661-1.22-2.509-2.435-5.022-3.672-7.523-.31-.628-.286-.931.532-.872a9.771,9.771,0,0,0,2.244,0c1.326-.215,1.907.415,2.41,1.548C2143.545,1732.227,2144.787,1734.643,2146.053,1737.252Z" transform="translate(-195.705 -194.859)" fill="#ff8900"/>
    <path id="Trazado_186598" data-name="Trazado 186598" d="M1990.231,1539.484l-.008,3.455c-1.238.281-1.545,1.116-1.47,2.283.072,1.123-.057,2.261.038,3.38.082.97-.27,1.151-1.175,1.15q-41.47-.036-82.94-.02a4.215,4.215,0,0,0-.512,0c-.489.06-.647-.135-.639-.631.037-2.254.04-4.508.055-6.762l17.424-.025a4.145,4.145,0,0,0,3.5,1.479c2.646-.059,5.3-.033,7.943-.009a1.622,1.622,0,0,0,1.87-1.445l22.3,0a1.664,1.664,0,0,0,.358,2.431c.652.6,1.255,1.251,1.886,1.874,1.235,1.221,2.143,1.208,3.4-.037q2.288-2.26,4.582-4.513c.178.274.461.242.728.241q3.9-.016,7.807-.037,1.173,1.14,2.345,2.28a1.35,1.35,0,0,0,1.934.233c1.485-1.354,2.9-2.79,4.275-4.259a1.271,1.271,0,0,0-.142-1.85,1.387,1.387,0,0,0-1.946-.142c-.22.154-.417.342-.625.513.023-.609.214-1.19.212-1.814q-.03-12.224-.015-24.448c1.032.773,1.82.817,2.425.138.636-.714.5-1.457-.413-2.4-.735-.751-1.462-1.509-2.192-2.264.3-.316.175-.712.176-1.073q.015-5.626.006-11.252c2.08-.021,4.161,0,6.238-.083.894-.037,1.133.2,1.13,1.115q-.051,19.969-.023,39.938c0,.341-.019.685.01,1.024A1.479,1.479,0,0,0,1990.231,1539.484Z" transform="translate(-26.159 -26.242)" fill="#ccfff9"/>
    <path id="Trazado_186599" data-name="Trazado 186599" d="M1982.4,1531.559a1.478,1.478,0,0,1-1.453-1.517c-.029-.339-.01-.682-.01-1.024q0-19.969.023-39.938c0-.92-.236-1.152-1.13-1.115-2.077.086-4.158.063-6.238.083-.3-.02-.61-.059-.914-.059q-37.962,0-75.924-.021c-.84,0-1.073.208-1.071,1.064q.041,22.234.021,44.469c0,.306.028.612.043.918-.015,2.254-.017,4.508-.054,6.762-.008.5.15.691.639.631a4.269,4.269,0,0,1,.512,0q41.47,0,82.94.02c.905,0,1.258-.179,1.176-1.15-.095-1.12.035-2.257-.038-3.38-.075-1.167.232-2,1.47-2.283a1.769,1.769,0,0,1,1.492,2.086c-.065,1.5-.007,3.006-.019,4.51a3.007,3.007,0,0,1-3.1,3.21c-.2.01-.41,0-.615,0q-41.826,0-83.652,0a5.321,5.321,0,0,1-1.622-.174,2.882,2.882,0,0,1-2.093-2.733c-.012-.273-.008-.547-.008-.82,0-17.462.031-34.924-.035-52.385a3.394,3.394,0,0,1,3.742-3.744q41.825.074,83.651.033c2.7,0,3.737,1.024,3.737,3.681q0,20.4.015,40.8C1983.888,1530.6,1983.568,1531.345,1982.4,1531.559Z" transform="translate(-18.331 -18.317)" fill="#030303"/>
    <path id="Trazado_186600" data-name="Trazado 186600" d="M1937.653,1737.321c.641-1.328,1.225-2.546,1.814-3.761.729-1.5,1.5-2.987,2.175-4.511a1.12,1.12,0,0,1,1.249-.763c1.089.048,2.182.036,3.273.023.514-.006.582.17.368.6q-1.937,3.946-3.851,7.9a.737.737,0,0,1-.693.505C1940.6,1737.319,1939.207,1737.321,1937.653,1737.321Z" transform="translate(-50.935 -194.949)" fill="#ff8900"/>
    <path id="Trazado_186601" data-name="Trazado 186601" d="M1903.553,1542.361c-.015-.306-.043-.612-.043-.918q0-22.235-.022-44.469c0-.856.231-1.064,1.071-1.063q37.962.033,75.924.021c.3,0,.609.039.914.059q0,5.626-.006,11.252c0,.361.128.757-.176,1.073-.42-.4-.833-.8-1.262-1.185a1.458,1.458,0,0,0-2.183-.034q-1.952,1.886-3.839,3.838a1.411,1.411,0,0,0-.022,2.1,1.46,1.46,0,0,0,2.107-.029c.41-.364.788-.763,1.315-1.277,0,2.84-.015,5.434.01,8.028.007.673-.248.891-.906.884-2.288-.028-4.576-.016-6.864-.008-1.153,0-1.84.548-1.868,1.447s.668,1.518,1.792,1.526c2.39.019,4.781.035,7.171,0a3.484,3.484,0,0,0,3.666-3.775c.016-2.356,0-4.712.011-7.068,0-.281-.135-.6.173-.9l.878.978q0,12.225.015,24.449c0,.623-.19,1.2-.212,1.814l-.861.947c0-2.789,0-5.337,0-7.885,0-2.687-1.328-4-4.036-4-2.253,0-4.505-.007-6.758,0-1.147,0-1.833.564-1.836,1.459s.689,1.471,1.825,1.475c2.287.008,4.574.021,6.86-.009.711-.01.962.243.953.953-.03,2.355-.006,4.71-.02,7.066,0,.239.149.54-.233.783-.338-.369-.658-.769-1.031-1.113a1.479,1.479,0,1,0-2.111,2.067c.453.507.937.988,1.406,1.48q-3.9.019-7.806.037c-.268,0-.55.033-.728-.241a1.528,1.528,0,0,0-.2-2.252c-.687-.556-1.386-.409-2.232.412q-1.091,1.058-2.185,2.112l-3.388-.019a1.684,1.684,0,0,0-2.219-.008l-22.3,0a1.561,1.561,0,0,0-1.8-1.528c-2.631.011-5.263-.036-7.893.023-1.008.023-1.266-.325-1.258-1.3.044-5.056.026-10.114.018-15.171a3.481,3.481,0,0,0-3.776-3.754c-1.367-.007-2.734-.017-4.1.006-.572.009-.916-.134-.914-.785q.014-5.381,0-10.763c0-.444.185-.735.655-.736,2.238-.007,4.476,0,6.714,0l.162.253c-.38.324-.787.621-1.135.977a1.531,1.531,0,0,0-.169,2.195,1.5,1.5,0,0,0,2.26-.108q1.837-1.786,3.624-3.624a1.451,1.451,0,0,0,.012-2.33c-1.186-1.229-2.4-2.435-3.621-3.627a1.519,1.519,0,0,0-2.265-.119,1.574,1.574,0,0,0,.215,2.273,3.785,3.785,0,0,1,.991,1.172c-2.292,0-4.477-.007-6.662,0a3.392,3.392,0,0,0-3.717,3.671q-.021,5.381,0,10.763a3.454,3.454,0,0,0,3.757,3.762c1.23.018,2.464.067,3.689-.016,1.038-.071,1.349.276,1.338,1.321-.051,4.92-.014,9.841-.03,14.761a5.191,5.191,0,0,0,.581,2.661Zm42.594-2.6a18.067,18.067,0,1,0-18.078-18.009A18.051,18.051,0,0,0,1946.146,1539.763Zm18.382-33.04a1.474,1.474,0,0,0,1.148-.51c.412-.41.847-.8,1.227-1.236.342-.394.6-.448.967-.023a15.482,15.482,0,0,0,1.3,1.305,1.5,1.5,0,0,0,2.113.068,1.433,1.433,0,0,0,.016-2.105,18.979,18.979,0,0,0-1.447-1.449c-.3-.274-.289-.461,0-.734a19,19,0,0,0,1.564-1.62,1.325,1.325,0,0,0-.127-1.933,1.383,1.383,0,0,0-1.948-.1,8.189,8.189,0,0,0-.883.853c-1.065,1.062-1.064,1.062-2.1.033-.266-.265-.521-.545-.806-.787a1.472,1.472,0,0,0-2.084,2.078c.13.157.286.293.431.438,1.389,1.4,1.388,1.4.035,2.76a5.708,5.708,0,0,0-.619.68,1.394,1.394,0,0,0-.076,1.547A1.351,1.351,0,0,0,1964.528,1506.724Zm-48.751,23.327a1.487,1.487,0,0,0-2.508-1.084c-.6.56-1.135,1.523-1.779,1.6-.753.085-1.212-1.032-1.859-1.56a1.529,1.529,0,0,0-2.123-.019,1.491,1.491,0,0,0,.032,2.117,14.983,14.983,0,0,0,1.3,1.3c.389.34.468.6.029.964a15.2,15.2,0,0,0-1.164,1.153,1.557,1.557,0,0,0-.225,2.266c.631.663,1.512.594,2.334-.192a15.848,15.848,0,0,0,1.153-1.164c.317-.374.547-.385.881-.019a13.571,13.571,0,0,0,1.535,1.5,1.466,1.466,0,0,0,2.058-2.059,9.9,9.9,0,0,0-.916-.964c-1-1-.99-.994.018-2.028C1915.057,1531.337,1915.738,1530.912,1915.777,1530.051Z" transform="translate(-26.133 -26.261)" fill="#ccfff9"/>
    <path id="Trazado_186602" data-name="Trazado 186602" d="M1942.549,1557.18a5.191,5.191,0,0,1-.581-2.661c.015-4.92-.021-9.841.03-14.761.011-1.045-.3-1.391-1.338-1.321-1.224.083-2.459.034-3.689.016a3.454,3.454,0,0,1-3.757-3.762q-.017-5.381,0-10.763a3.392,3.392,0,0,1,3.717-3.671c2.185-.009,4.37,0,6.662,0a3.794,3.794,0,0,0-.991-1.172,1.574,1.574,0,0,1-.215-2.273,1.519,1.519,0,0,1,2.265.119c1.224,1.192,2.435,2.4,3.621,3.627a1.451,1.451,0,0,1-.012,2.33q-1.783,1.841-3.623,3.625a1.5,1.5,0,0,1-2.26.108,1.531,1.531,0,0,1,.169-2.195c.347-.356.754-.653,1.135-.977l-.163-.253c-2.238,0-4.476,0-6.714,0-.47,0-.655.292-.655.736q0,5.382,0,10.763c0,.652.342.795.914.785,1.366-.023,2.733-.013,4.1-.006a3.481,3.481,0,0,1,3.777,3.754c.007,5.057.026,10.114-.018,15.171-.009.974.25,1.322,1.258,1.3,2.63-.06,5.262-.012,7.893-.023a1.561,1.561,0,0,1,1.8,1.528,1.622,1.622,0,0,1-1.87,1.445c-2.647-.025-5.3-.05-7.943.009A4.145,4.145,0,0,1,1942.549,1557.18Z" transform="translate(-47.705 -41.104)" fill="#030303"/>
    <path id="Trazado_186603" data-name="Trazado 186603" d="M2151.493,1541.209l-.878-.978c-.307.3-.171.62-.173.9-.013,2.356,0,4.712-.011,7.068a3.484,3.484,0,0,1-3.666,3.775c-2.39.037-4.781.021-7.171,0-1.124-.009-1.821-.632-1.792-1.526s.715-1.443,1.868-1.447c2.288-.008,4.576-.019,6.863.008.658.008.912-.211.906-.884-.025-2.594-.01-5.188-.01-8.028-.527.514-.9.914-1.315,1.277a1.461,1.461,0,0,1-2.107.029,1.411,1.411,0,0,1,.022-2.1q1.883-1.954,3.839-3.838a1.458,1.458,0,0,1,2.183.034c.428.386.842.79,1.262,1.185.73.755,1.458,1.513,2.192,2.264.917.938,1.049,1.681.413,2.4C2153.313,1542.027,2152.525,1541.982,2151.493,1541.209Z" transform="translate(-196.231 -54.632)" fill="#030303"/>
    <path id="Trazado_186604" data-name="Trazado 186604" d="M2145.457,1627.741c-.47-.493-.953-.973-1.407-1.48a1.479,1.479,0,1,1,2.111-2.067c.373.344.693.744,1.031,1.113.382-.242.232-.543.233-.783.014-2.355-.01-4.71.02-7.065.009-.71-.242-.963-.953-.953-2.287.03-4.573.016-6.861.009-1.136,0-1.828-.574-1.825-1.475s.689-1.454,1.837-1.459c2.253-.009,4.505-.005,6.758,0,2.708,0,4.032,1.315,4.036,4,0,2.548,0,5.1,0,7.885l.861-.947c.208-.172.4-.359.625-.513a1.386,1.386,0,0,1,1.945.142,1.27,1.27,0,0,1,.142,1.85c-1.373,1.469-2.789,2.9-4.275,4.259a1.349,1.349,0,0,1-1.933-.233Q2146.632,1628.878,2145.457,1627.741Z" transform="translate(-196.234 -111.677)" fill="#030303"/>
    <path id="Trazado_186605" data-name="Trazado 186605" d="M2096.256,1657.923a1.684,1.684,0,0,1,2.219.008c1.7,1.979,1.7,1.979,3.388.019q1.092-1.056,2.185-2.112c.846-.821,1.545-.968,2.232-.413a1.528,1.528,0,0,1,.2,2.252q-2.291,2.256-4.582,4.513c-1.26,1.245-2.168,1.259-3.4.037-.63-.623-1.233-1.275-1.886-1.874A1.664,1.664,0,0,1,2096.256,1657.923Z" transform="translate(-165.797 -141.818)" fill="#030303"/>
    <path id="Trazado_186606" data-name="Trazado 186606" d="M2011.256,1560.206a18.067,18.067,0,1,1,18.036-18.053A18.054,18.054,0,0,1,2011.256,1560.206Zm-.026-2.948a15.09,15.09,0,1,0-15.108-15.135A15.176,15.176,0,0,0,2011.23,1557.258Z" transform="translate(-91.243 -46.703)" fill="#030303"/>
    <path id="Trazado_186607" data-name="Trazado 186607" d="M2122.262,1512.34a1.351,1.351,0,0,1-1.29-.74,1.394,1.394,0,0,1,.076-1.547,5.725,5.725,0,0,1,.619-.68c1.353-1.364,1.354-1.363-.035-2.76-.145-.145-.3-.281-.431-.438a1.472,1.472,0,0,1,2.084-2.078c.286.242.54.522.806.787,1.031,1.029,1.03,1.029,2.095-.033a8.19,8.19,0,0,1,.884-.852,1.383,1.383,0,0,1,1.948.1,1.325,1.325,0,0,1,.127,1.933,18.971,18.971,0,0,1-1.564,1.62c-.283.273-.3.459.005.734a18.976,18.976,0,0,1,1.447,1.449,1.434,1.434,0,0,1-.016,2.106,1.5,1.5,0,0,1-2.113-.068,15.555,15.555,0,0,1-1.3-1.305c-.366-.425-.625-.371-.967.023-.38.438-.815.826-1.227,1.236A1.476,1.476,0,0,1,2122.262,1512.34Z" transform="translate(-183.867 -31.877)" fill="#030303"/>
    <path id="Trazado_186608" data-name="Trazado 186608" d="M1925.3,1616.5c-.039.861-.72,1.287-1.233,1.813-1.007,1.034-1.016,1.023-.018,2.027a9.935,9.935,0,0,1,.916.964,1.466,1.466,0,0,1-2.058,2.059,13.53,13.53,0,0,1-1.535-1.5c-.334-.365-.564-.355-.881.019a15.8,15.8,0,0,1-1.153,1.164c-.822.787-1.7.855-2.334.192a1.557,1.557,0,0,1,.225-2.266,15.153,15.153,0,0,1,1.164-1.152c.439-.367.36-.624-.029-.964a14.946,14.946,0,0,1-1.3-1.3,1.491,1.491,0,0,1-.032-2.117,1.529,1.529,0,0,1,2.123.019c.647.528,1.105,1.646,1.859,1.561.645-.073,1.184-1.037,1.779-1.6a1.487,1.487,0,0,1,2.508,1.084Z" transform="translate(-35.655 -112.711)" fill="#030303"/>
    <path id="Trazado_186609" data-name="Trazado 186609" d="M2108.744,1665.465c-1.682,1.959-1.682,1.959-3.388-.019Z" transform="translate(-172.677 -149.333)" fill="#e5e9f3"/>
    <path id="Trazado_186610" data-name="Trazado 186610" d="M2019.028,1565.221a15.09,15.09,0,1,1,15.117-15.127A15.175,15.175,0,0,1,2019.028,1565.221Zm-1.457-12.861c0,.786-.014,1.573,0,2.358a1.512,1.512,0,0,0,1.432,1.663c.867.021,1.473-.656,1.5-1.7.017-.751.045-1.506-.007-2.254a1.333,1.333,0,0,1,.989-1.575,5.763,5.763,0,0,0,3.751-5.286,6.219,6.219,0,0,0-9.7-5.548,5.8,5.8,0,0,0-2.7,5.117,1.347,1.347,0,0,0,1.174,1.458,1.386,1.386,0,0,0,1.641-.911,4.282,4.282,0,0,0,.136-.9,3.272,3.272,0,0,1,6.435-.368,3.271,3.271,0,0,1-2.918,4.009c-1.34.148-1.718.558-1.731,1.895C2017.564,1550.993,2017.57,1551.677,2017.57,1552.36Zm3.073,8.55a1.585,1.585,0,1,0-1.572,1.575A1.631,1.631,0,0,0,2020.644,1560.91Z" transform="translate(-99.041 -54.667)" fill="#a9f73f"/>
    <path id="Trazado_186611" data-name="Trazado 186611" d="M2041.181,1562.521c0-.683-.006-1.367,0-2.05.013-1.336.391-1.746,1.731-1.895a3.271,3.271,0,0,0,2.918-4.009,3.272,3.272,0,0,0-6.435.368,4.284,4.284,0,0,1-.136.9,1.385,1.385,0,0,1-1.641.912,1.347,1.347,0,0,1-1.174-1.458,5.8,5.8,0,0,1,2.7-5.117,6.219,6.219,0,0,1,9.7,5.548,5.763,5.763,0,0,1-3.751,5.286,1.333,1.333,0,0,0-.989,1.575c.052.748.023,1.5.007,2.255-.023,1.046-.629,1.723-1.5,1.7a1.512,1.512,0,0,1-1.432-1.663C2041.167,1564.094,2041.181,1563.308,2041.181,1562.521Z" transform="translate(-122.651 -64.828)" fill="#030303"/>
    <path id="Trazado_186612" data-name="Trazado 186612" d="M2056.546,1625.208a1.585,1.585,0,1,1-1.548-1.595A1.64,1.64,0,0,1,2056.546,1625.208Z" transform="translate(-134.943 -118.965)" fill="#030303"/>
  </g>
</svg>
