<svg xmlns="http://www.w3.org/2000/svg" width="80" height="80" viewBox="0 0 80 80">
  <g id="Grupo_124993" data-name="Grupo 124993" transform="translate(-3668.921 9667.749)">
    <g id="Grupo_121143" data-name="Grupo 121143" transform="translate(3668.921 -9667.749)">
      <ellipse id="Elipse_5139" data-name="Elipse 5139" cx="37.477" cy="37.477" rx="37.477" ry="37.477" transform="matrix(0.998, 0.07, -0.07, 0.998, 5.229, 0)" fill="#45c6e5"/>
    </g>
    <g id="Grupo_121145" data-name="Grupo 121145" transform="translate(3671.064 -9666.316)">
      <path id="Trazado_183142" data-name="Trazado 183142" d="M-341.333,456.111A38.61,38.61,0,0,1-379.9,417.545a38.61,38.61,0,0,1,38.567-38.567,38.61,38.61,0,0,1,38.567,38.567A38.61,38.61,0,0,1-341.333,456.111Zm0-74.954a36.429,36.429,0,0,0-36.387,36.388,36.428,36.428,0,0,0,36.387,36.387,36.428,36.428,0,0,0,36.387-36.387A36.429,36.429,0,0,0-341.333,381.158Z" transform="translate(379.9 -378.978)"/>
    </g>
    <g id="Grupo_121146" data-name="Grupo 121146" transform="translate(3674.864 -9662.515)">
      <path id="Trazado_183143" data-name="Trazado 183143" d="M-371.362,422.282a1.212,1.212,0,0,1-1.213-1.212A34.805,34.805,0,0,1-337.809,386.3a1.212,1.212,0,0,1,1.213,1.213,1.213,1.213,0,0,1-1.213,1.213,32.377,32.377,0,0,0-32.341,32.341A1.212,1.212,0,0,1-371.362,422.282Z" transform="translate(372.575 -386.304)" fill="#fff"/>
    </g>
    <g id="Grupo_121149" data-name="Grupo 121149" transform="translate(3698.062 -9643.973)">
      <g id="Grupo_121147" data-name="Grupo 121147">
        <path id="Trazado_183144" data-name="Trazado 183144" d="M-323.471,441.458h0a4.392,4.392,0,0,1-4.392-4.391V426.434a4.392,4.392,0,0,1,4.392-4.391h0a4.391,4.391,0,0,1,4.391,4.391v10.632A4.391,4.391,0,0,1-323.471,441.458Z" transform="translate(327.863 -422.043)"/>
      </g>
      <g id="Grupo_121148" data-name="Grupo 121148" transform="translate(23.137)">
        <path id="Trazado_183145" data-name="Trazado 183145" d="M-278.878,441.458h0a4.391,4.391,0,0,1-4.391-4.391V426.434a4.391,4.391,0,0,1,4.391-4.391h0a4.391,4.391,0,0,1,4.391,4.391v10.632A4.391,4.391,0,0,1-278.878,441.458Z" transform="translate(283.269 -422.043)"/>
      </g>
    </g>
    <g id="Grupo_121150" data-name="Grupo 121150" transform="translate(3697.96 -9648.283)">
      <path id="Trazado_183146" data-name="Trazado 183146" d="M-317.009,426.527a1.74,1.74,0,0,1-1.233-.511l-9.306-9.305a1.744,1.744,0,0,1,0-2.466,1.743,1.743,0,0,1,2.466,0l9.306,9.305a1.744,1.744,0,0,1,0,2.467A1.741,1.741,0,0,1-317.009,426.527Z" transform="translate(328.059 -413.733)"/>
    </g>
    <g id="Grupo_121151" data-name="Grupo 121151" transform="translate(3717.499 -9648.283)">
      <path id="Trazado_183147" data-name="Trazado 183147" d="M-288.656,426.527a1.741,1.741,0,0,1-1.233-.511,1.744,1.744,0,0,1,0-2.467l9.306-9.305a1.744,1.744,0,0,1,2.467,0,1.744,1.744,0,0,1,0,2.466l-9.306,9.305A1.739,1.739,0,0,1-288.656,426.527Z" transform="translate(290.4 -413.733)"/>
    </g>
    <g id="Grupo_121155" data-name="Grupo 121155" transform="translate(3695.716 -9617.681)">
      <g id="Grupo_121153" data-name="Grupo 121153" transform="translate(2.647)">
        <path id="Trazado_183148" data-name="Trazado 183148" d="M-315.541,472.717a19.169,19.169,0,0,0-14.953,7.156h29.906A19.169,19.169,0,0,0-315.541,472.717Z" transform="translate(330.494 -472.717)" fill="#e74c3c"/>
      </g>
      <g id="Grupo_121154" data-name="Grupo 121154" transform="translate(0 7.156)">
        <path id="Trazado_183149" data-name="Trazado 183149" d="M-300.4,490.853a19.238,19.238,0,0,0-2.647-4.343h-29.906a19.241,19.241,0,0,0-2.646,4.343Z" transform="translate(335.595 -486.51)" fill="#fff"/>
      </g>
    </g>
    <g id="Grupo_121157" data-name="Grupo 121157" transform="translate(3694.626 -9618.157)">
      <g id="Grupo_121156" data-name="Grupo 121156">
        <path id="Trazado_183150" data-name="Trazado 183150" d="M-298.2,485.476h-35.2a1.09,1.09,0,0,1-.913-.494,1.09,1.09,0,0,1-.086-1.034,20.32,20.32,0,0,1,18.6-12.15,20.319,20.319,0,0,1,18.6,12.15,1.089,1.089,0,0,1-.085,1.034A1.09,1.09,0,0,1-298.2,485.476Zm-33.442-2.18h31.686a18.138,18.138,0,0,0-15.843-9.319A18.138,18.138,0,0,0-331.64,483.3Z" transform="translate(334.486 -471.798)"/>
      </g>
    </g>
  </g>
</svg>
