<svg xmlns="http://www.w3.org/2000/svg" xmlns:xlink="http://www.w3.org/1999/xlink" width="640" height="318.5" viewBox="0 0 640 318.5">
  <defs>
    <filter id="Trazado_188134" x="0" y="0" width="640" height="318.5" filterUnits="userSpaceOnUse">
      <feOffset input="SourceAlpha"/>
      <feGaussianBlur stdDeviation="5" result="blur"/>
      <feFlood flood-opacity="0.161"/>
      <feComposite operator="in" in2="blur"/>
      <feComposite in="SourceGraphic"/>
    </filter>
  </defs>
  <g id="Grupo_128808" data-name="Grupo 128808" transform="translate(-690 -2183.5)">
    <g transform="matrix(1, 0, 0, 1, 690, 2183.5)" filter="url(#Trazado_188134)">
      <path id="Trazado_188134-2" data-name="Trazado 188134" d="M80,0H610V208.5a80,80,0,0,1-80,80H0V80A80,80,0,0,1,80,0Z" transform="translate(15 15)" fill="#a3edff" opacity="0.252"/>
    </g>
    <path id="Trazado_182773" data-name="Trazado 182773" d="M4.439,62.405h0a15.163,15.163,0,0,1,0-21.44L40.966,4.439a15.163,15.163,0,0,1,21.44,0h0a15.163,15.163,0,0,1,0,21.44L25.879,62.405A15.163,15.163,0,0,1,4.439,62.405Z" transform="translate(714.303 2186.5) rotate(8)" fill="#a9f73f"/>
    <path id="Trazado_182774" data-name="Trazado 182774" d="M4.439,62.405h0a15.163,15.163,0,0,1,0-21.44L40.966,4.439a15.163,15.163,0,0,1,21.44,0h0a15.163,15.163,0,0,1,0,21.44L25.879,62.405A15.163,15.163,0,0,1,4.439,62.405Z" transform="translate(1248.806 2424.503) rotate(8)" fill="#a9f73f"/>
    <path id="Trazado_188136" data-name="Trazado 188136" d="M3.359,10.992V15H1.016V3.625H5.453a5.134,5.134,0,0,1,2.254.469A3.454,3.454,0,0,1,9.2,5.426a3.714,3.714,0,0,1,.523,1.965,3.266,3.266,0,0,1-1.145,2.637,4.767,4.767,0,0,1-3.168.965Zm0-1.9H5.453a2.059,2.059,0,0,0,1.418-.437,1.591,1.591,0,0,0,.488-1.25,1.876,1.876,0,0,0-.492-1.352,1.839,1.839,0,0,0-1.359-.531H3.359Zm7.375,1.6a5.013,5.013,0,0,1,.484-2.242A3.546,3.546,0,0,1,12.613,6.93a4.069,4.069,0,0,1,2.113-.539A3.849,3.849,0,0,1,17.52,7.438a4.2,4.2,0,0,1,1.207,2.844l.016.578a4.418,4.418,0,0,1-1.086,3.121,3.775,3.775,0,0,1-2.914,1.176,3.793,3.793,0,0,1-2.918-1.172,4.5,4.5,0,0,1-1.09-3.187Zm2.258.16a3.16,3.16,0,0,0,.453,1.843,1.628,1.628,0,0,0,2.578.008,3.457,3.457,0,0,0,.461-2.015,3.128,3.128,0,0,0-.461-1.831,1.5,1.5,0,0,0-1.3-.649,1.474,1.474,0,0,0-1.281.646A3.516,3.516,0,0,0,12.992,10.856Zm11.719,1.808a.727.727,0,0,0-.41-.652,4.659,4.659,0,0,0-1.316-.426q-3.016-.633-3.016-2.562A2.323,2.323,0,0,1,20.9,7.145a3.766,3.766,0,0,1,2.441-.754,4.053,4.053,0,0,1,2.574.758,2.388,2.388,0,0,1,.965,1.969H24.625a1.092,1.092,0,0,0-.312-.8A1.322,1.322,0,0,0,23.336,8a1.351,1.351,0,0,0-.883.258.814.814,0,0,0-.312.656.7.7,0,0,0,.355.605,3.657,3.657,0,0,0,1.2.4,9.8,9.8,0,0,1,1.422.379,2.336,2.336,0,0,1,1.789,2.273,2.2,2.2,0,0,1-.992,1.871,4.28,4.28,0,0,1-2.562.715,4.47,4.47,0,0,1-1.887-.379,3.166,3.166,0,0,1-1.293-1.039,2.414,2.414,0,0,1-.469-1.426h2.141a1.179,1.179,0,0,0,.445.922,1.766,1.766,0,0,0,1.109.32,1.635,1.635,0,0,0,.98-.246A.766.766,0,0,0,24.711,12.664ZM30.742,15H28.477V6.547h2.266Zm-2.4-10.641a1.112,1.112,0,0,1,.34-.836,1.465,1.465,0,0,1,1.848,0,1.105,1.105,0,0,1,.344.836,1.108,1.108,0,0,1-.348.844,1.448,1.448,0,0,1-1.836,0A1.108,1.108,0,0,1,28.344,4.359Zm6.961.109V6.547H36.75V8.2H35.3v4.219a1.007,1.007,0,0,0,.18.672.9.9,0,0,0,.688.2,3.6,3.6,0,0,0,.664-.055v1.711a4.648,4.648,0,0,1-1.367.2,2.156,2.156,0,0,1-2.422-2.4V8.2H31.813V6.547h1.234V4.469ZM40.391,15H38.125V6.547h2.266Zm-2.4-10.641a1.112,1.112,0,0,1,.34-.836,1.465,1.465,0,0,1,1.848,0,1.105,1.105,0,0,1,.344.836,1.108,1.108,0,0,1-.348.844,1.448,1.448,0,0,1-1.836,0A1.108,1.108,0,0,1,37.992,4.359Zm7.422,7.883,1.57-5.7h2.359L46.492,15H44.336L41.484,6.547h2.359ZM49.867,10.7a5.013,5.013,0,0,1,.484-2.242A3.546,3.546,0,0,1,51.746,6.93a4.069,4.069,0,0,1,2.113-.539,3.849,3.849,0,0,1,2.793,1.047,4.2,4.2,0,0,1,1.207,2.844l.016.578a4.418,4.418,0,0,1-1.086,3.121,4.209,4.209,0,0,1-5.832,0,4.5,4.5,0,0,1-1.09-3.187Zm2.258.16a3.16,3.16,0,0,0,.453,1.843,1.628,1.628,0,0,0,2.578.008,3.457,3.457,0,0,0,.461-2.015,3.128,3.128,0,0,0-.461-1.831,1.5,1.5,0,0,0-1.3-.649,1.474,1.474,0,0,0-1.281.646A3.516,3.516,0,0,0,52.125,10.856Zm7.25,3.035a1.137,1.137,0,0,1,.363-.875,1.412,1.412,0,0,1,1.828,0,1.137,1.137,0,0,1,.363.875,1.121,1.121,0,0,1-.359.863,1.435,1.435,0,0,1-1.836,0A1.121,1.121,0,0,1,59.375,13.891Zm0-6.4a1.137,1.137,0,0,1,.363-.875,1.412,1.412,0,0,1,1.828,0,1.137,1.137,0,0,1,.363.875,1.121,1.121,0,0,1-.359.863,1.435,1.435,0,0,1-1.836,0A1.121,1.121,0,0,1,59.375,7.492Zm15.25,2.25H69.7v4.031h5.727V15H68.2V3.625h7.148V4.852H69.7V8.516h4.93ZM78.633,15H77.188V3h1.445Zm1.93-4.3a4.993,4.993,0,0,1,.488-2.234A3.643,3.643,0,0,1,82.41,6.93,3.7,3.7,0,0,1,84.4,6.391a3.565,3.565,0,0,1,2.793,1.2,4.6,4.6,0,0,1,1.066,3.18v.1a5.036,5.036,0,0,1-.473,2.215,3.589,3.589,0,0,1-1.352,1.527,3.743,3.743,0,0,1-2.02.547,3.556,3.556,0,0,1-2.785-1.2A4.575,4.575,0,0,1,80.563,10.8Zm1.453.172a3.616,3.616,0,0,0,.652,2.258,2.211,2.211,0,0,0,3.5-.012,3.955,3.955,0,0,0,.648-2.418,3.61,3.61,0,0,0-.66-2.254A2.1,2.1,0,0,0,84.4,7.578a2.075,2.075,0,0,0-1.727.852A3.925,3.925,0,0,0,82.016,10.867Zm7.711-.164a4.968,4.968,0,0,1,.914-3.145,3.151,3.151,0,0,1,4.836-.074l.07-.937h1.32V14.8a3.439,3.439,0,0,1-.973,2.586,3.589,3.589,0,0,1-2.613.945,4.348,4.348,0,0,1-1.789-.391,3.08,3.08,0,0,1-1.336-1.07l.75-.867a2.826,2.826,0,0,0,2.273,1.148,2.214,2.214,0,0,0,1.645-.594,2.269,2.269,0,0,0,.59-1.672v-.727a2.971,2.971,0,0,1-2.367,1,2.887,2.887,0,0,1-2.4-1.2A5.224,5.224,0,0,1,89.727,10.7Zm1.453.164a3.79,3.79,0,0,0,.586,2.246,1.9,1.9,0,0,0,1.641.816,2.117,2.117,0,0,0,2.008-1.242V8.828a2.142,2.142,0,0,0-1.992-1.211,1.921,1.921,0,0,0-1.648.82A4.128,4.128,0,0,0,91.18,10.867ZM100.617,15H99.172V6.547h1.445ZM99.055,4.3a.863.863,0,0,1,.215-.594.807.807,0,0,1,.637-.242.819.819,0,0,1,.641.242.854.854,0,0,1,.219.594.826.826,0,0,1-.219.586.834.834,0,0,1-.641.234.821.821,0,0,1-.637-.234A.834.834,0,0,1,99.055,4.3Zm3.492,6.391a4.993,4.993,0,0,1,.488-2.234,3.643,3.643,0,0,1,1.359-1.531,3.7,3.7,0,0,1,1.988-.539,3.565,3.565,0,0,1,2.793,1.2,4.6,4.6,0,0,1,1.066,3.18v.1a5.036,5.036,0,0,1-.473,2.215,3.589,3.589,0,0,1-1.352,1.527,3.743,3.743,0,0,1-2.02.547,3.556,3.556,0,0,1-2.785-1.2,4.575,4.575,0,0,1-1.066-3.164Zm1.453.172a3.616,3.616,0,0,0,.652,2.258,2.211,2.211,0,0,0,3.5-.012A3.955,3.955,0,0,0,108.8,10.7a3.61,3.61,0,0,0-.66-2.254,2.1,2.1,0,0,0-1.754-.863,2.075,2.075,0,0,0-1.727.852A3.925,3.925,0,0,0,104,10.867Z" transform="translate(1091.252 2284.5)" fill="#12263f"/>
    <path id="Trazado_188137" data-name="Trazado 188137" d="M10.266,15H7.922L3.359,7.516V15H1.016V3.625H3.359l4.57,7.5v-7.5h2.336Zm5.789.156a4.15,4.15,0,0,1-3.027-1.141,4.054,4.054,0,0,1-1.168-3.039v-.219a5.106,5.106,0,0,1,.492-2.277,3.612,3.612,0,0,1,1.395-1.547A3.914,3.914,0,0,1,15.8,6.391a3.508,3.508,0,0,1,2.73,1.094,4.444,4.444,0,0,1,1,3.1v.922H14.148a2.1,2.1,0,0,0,.66,1.328,2,2,0,0,0,1.395.5,2.437,2.437,0,0,0,2.039-.945l1.109,1.242a3.389,3.389,0,0,1-1.375,1.121A4.511,4.511,0,0,1,16.055,15.156ZM15.8,8.211a1.411,1.411,0,0,0-1.09.455,2.357,2.357,0,0,0-.535,1.3h3.141V9.788a1.681,1.681,0,0,0-.406-1.165A1.456,1.456,0,0,0,15.8,8.211Zm4.688,2.5a4.954,4.954,0,0,1,.926-3.133,3,3,0,0,1,2.5-1.187,2.631,2.631,0,0,1,2.164.953l.094-.8h2.047v8.172a3.613,3.613,0,0,1-.5,1.93,3.236,3.236,0,0,1-1.418,1.25,4.985,4.985,0,0,1-2.141.43,4.635,4.635,0,0,1-1.812-.371A3.217,3.217,0,0,1,21,17l1-1.375a2.645,2.645,0,0,0,2.047.945,1.936,1.936,0,0,0,1.4-.48,1.8,1.8,0,0,0,.5-1.363v-.453a2.612,2.612,0,0,1-2.055.883,2.992,2.992,0,0,1-2.465-1.191,4.953,4.953,0,0,1-.941-3.16Zm2.258.161a3.1,3.1,0,0,0,.461,1.809,1.465,1.465,0,0,0,1.266.655,1.567,1.567,0,0,0,1.477-.777V8.988a1.563,1.563,0,0,0-1.461-.777,1.474,1.474,0,0,0-1.277.667A3.5,3.5,0,0,0,22.742,10.872ZM34.844,15a2.507,2.507,0,0,1-.227-.758,2.732,2.732,0,0,1-2.133.914,3,3,0,0,1-2.059-.719,2.312,2.312,0,0,1-.816-1.812,2.389,2.389,0,0,1,1-2.062,4.915,4.915,0,0,1,2.879-.727h1.039V9.352a1.393,1.393,0,0,0-.3-.937,1.183,1.183,0,0,0-.949-.352,1.345,1.345,0,0,0-.895.273.929.929,0,0,0-.324.75H29.8a2.268,2.268,0,0,1,.453-1.359,3,3,0,0,1,1.281-.98,4.669,4.669,0,0,1,1.859-.355,3.689,3.689,0,0,1,2.48.785,2.747,2.747,0,0,1,.918,2.207v3.664a4.041,4.041,0,0,0,.336,1.82V15Zm-1.867-1.57a1.945,1.945,0,0,0,.922-.223,1.462,1.462,0,0,0,.625-.6V11.156H33.68q-1.7,0-1.8,1.172l-.008.133a.9.9,0,0,0,.3.7A1.153,1.153,0,0,0,32.977,13.43Zm8.25-8.961V6.547h1.445V8.2H41.227v4.219a1.007,1.007,0,0,0,.18.672.9.9,0,0,0,.688.2,3.6,3.6,0,0,0,.664-.055v1.711a4.648,4.648,0,0,1-1.367.2,2.156,2.156,0,0,1-2.422-2.4V8.2H37.734V6.547h1.234V4.469ZM46.313,15H44.047V6.547h2.266Zm-2.4-10.641a1.112,1.112,0,0,1,.34-.836,1.465,1.465,0,0,1,1.848,0,1.105,1.105,0,0,1,.344.836A1.108,1.108,0,0,1,46.1,5.2a1.448,1.448,0,0,1-1.836,0A1.108,1.108,0,0,1,43.914,4.359Zm7.422,7.883,1.57-5.7h2.359L52.414,15H50.258L47.406,6.547h2.359ZM55.789,10.7a5.013,5.013,0,0,1,.484-2.242A3.546,3.546,0,0,1,57.668,6.93a4.069,4.069,0,0,1,2.113-.539,3.849,3.849,0,0,1,2.793,1.047,4.2,4.2,0,0,1,1.207,2.844l.016.578a4.418,4.418,0,0,1-1.086,3.121,4.209,4.209,0,0,1-5.832,0,4.5,4.5,0,0,1-1.09-3.187Zm2.258.16A3.16,3.16,0,0,0,58.5,12.7a1.628,1.628,0,0,0,2.578.008,3.457,3.457,0,0,0,.461-2.015,3.128,3.128,0,0,0-.461-1.831,1.5,1.5,0,0,0-1.3-.649,1.474,1.474,0,0,0-1.281.646A3.516,3.516,0,0,0,58.047,10.856Zm7.25,3.035a1.137,1.137,0,0,1,.363-.875,1.412,1.412,0,0,1,1.828,0,1.137,1.137,0,0,1,.363.875,1.121,1.121,0,0,1-.359.863,1.435,1.435,0,0,1-1.836,0A1.121,1.121,0,0,1,65.3,13.891Zm0-6.4a1.137,1.137,0,0,1,.363-.875,1.412,1.412,0,0,1,1.828,0,1.137,1.137,0,0,1,.363.875,1.121,1.121,0,0,1-.359.863,1.435,1.435,0,0,1-1.836,0A1.121,1.121,0,0,1,65.3,7.492Zm10.32,3.055V15h-1.5V3.625h4.2a4.215,4.215,0,0,1,2.926.953A3.231,3.231,0,0,1,82.3,7.1a3.189,3.189,0,0,1-1.035,2.551,4.4,4.4,0,0,1-2.965.895Zm0-1.227h2.7a2.7,2.7,0,0,0,1.844-.567,2.075,2.075,0,0,0,.641-1.64,2.143,2.143,0,0,0-.641-1.628A2.525,2.525,0,0,0,78.4,4.852H75.617Zm11.773,5.836a3.693,3.693,0,0,1-2.8-1.129,4.19,4.19,0,0,1-1.078-3.02v-.266A5.073,5.073,0,0,1,84,8.5,3.748,3.748,0,0,1,85.34,6.949a3.378,3.378,0,0,1,1.871-.559,3.166,3.166,0,0,1,2.563,1.086,4.7,4.7,0,0,1,.914,3.109v.6H84.961a3,3,0,0,0,.73,2.02,2.3,2.3,0,0,0,1.777.77,2.517,2.517,0,0,0,1.3-.312,3.259,3.259,0,0,0,.93-.828l.883.688A3.55,3.55,0,0,1,87.391,15.156Zm-.18-7.578a1.928,1.928,0,0,0-1.469.637A3.1,3.1,0,0,0,85.008,10h4.234V9.891a2.753,2.753,0,0,0-.594-1.707A1.815,1.815,0,0,0,87.211,7.578ZM94.32,4.5V6.547H95.9V7.664H94.32v5.249a1.173,1.173,0,0,0,.211.763.888.888,0,0,0,.719.254,3.5,3.5,0,0,0,.688-.094V15a4.215,4.215,0,0,1-1.109.155,1.8,1.8,0,0,1-1.461-.586,2.517,2.517,0,0,1-.492-1.664V7.664H91.336V6.547h1.539V4.5ZM99.156,15H97.711V6.547h1.445ZM97.594,4.3a.863.863,0,0,1,.215-.594.807.807,0,0,1,.637-.242.819.819,0,0,1,.641.242A.854.854,0,0,1,99.3,4.3a.826.826,0,0,1-.219.586.834.834,0,0,1-.641.234.821.821,0,0,1-.637-.234A.834.834,0,0,1,97.594,4.3Zm7.266,9.672a2.082,2.082,0,0,0,1.352-.469,1.649,1.649,0,0,0,.641-1.172h1.367a2.621,2.621,0,0,1-.5,1.383,3.293,3.293,0,0,1-1.23,1.047,3.55,3.55,0,0,1-1.629.391A3.482,3.482,0,0,1,102.113,14a4.59,4.59,0,0,1-1.02-3.152v-.242a5.089,5.089,0,0,1,.453-2.2,3.451,3.451,0,0,1,1.3-1.492,3.7,3.7,0,0,1,2-.531,3.39,3.39,0,0,1,2.363.852,3.043,3.043,0,0,1,1,2.211h-1.367a1.992,1.992,0,0,0-.621-1.348,1.932,1.932,0,0,0-1.379-.527,2.023,2.023,0,0,0-1.707.793,3.724,3.724,0,0,0-.605,2.293v.273a3.65,3.65,0,0,0,.6,2.25A2.033,2.033,0,0,0,104.859,13.977ZM111.414,15h-1.445V6.547h1.445ZM109.852,4.3a.863.863,0,0,1,.215-.594.807.807,0,0,1,.637-.242.819.819,0,0,1,.641.242.854.854,0,0,1,.219.594.826.826,0,0,1-.219.586.834.834,0,0,1-.641.234.821.821,0,0,1-.637-.234A.834.834,0,0,1,109.852,4.3Zm3.492,6.391a4.993,4.993,0,0,1,.488-2.234,3.643,3.643,0,0,1,1.359-1.531,3.7,3.7,0,0,1,1.988-.539,3.565,3.565,0,0,1,2.793,1.2,4.6,4.6,0,0,1,1.066,3.18v.1a5.036,5.036,0,0,1-.473,2.215,3.589,3.589,0,0,1-1.352,1.527,3.743,3.743,0,0,1-2.02.547,3.556,3.556,0,0,1-2.785-1.2,4.575,4.575,0,0,1-1.066-3.164Zm1.453.172a3.616,3.616,0,0,0,.652,2.258,2.211,2.211,0,0,0,3.5-.012,3.955,3.955,0,0,0,.648-2.418,3.61,3.61,0,0,0-.66-2.254,2.1,2.1,0,0,0-1.754-.863,2.075,2.075,0,0,0-1.727.852A3.925,3.925,0,0,0,114.8,10.867Zm3.039-7.852h1.75l-2.094,2.3-1.164,0Zm6.383,3.531.047,1.063A3.08,3.08,0,0,1,126.8,6.391q2.68,0,2.7,3.023V15h-1.445V9.406a1.946,1.946,0,0,0-.418-1.352,1.675,1.675,0,0,0-1.277-.437,2.086,2.086,0,0,0-1.234.375,2.546,2.546,0,0,0-.828.984V15h-1.445V6.547Z" transform="translate(1091.252 2338.5)" fill="#12263f"/>
    <path id="Trazado_188135" data-name="Trazado 188135" d="M3.359,10.992V15H1.016V3.625H5.453a5.134,5.134,0,0,1,2.254.469A3.454,3.454,0,0,1,9.2,5.426a3.714,3.714,0,0,1,.523,1.965,3.266,3.266,0,0,1-1.145,2.637,4.767,4.767,0,0,1-3.168.965Zm0-1.9H5.453a2.059,2.059,0,0,0,1.418-.437,1.591,1.591,0,0,0,.488-1.25,1.876,1.876,0,0,0-.492-1.352,1.839,1.839,0,0,0-1.359-.531H3.359Zm7.375,1.6a5.013,5.013,0,0,1,.484-2.242A3.546,3.546,0,0,1,12.613,6.93a4.069,4.069,0,0,1,2.113-.539A3.849,3.849,0,0,1,17.52,7.438a4.2,4.2,0,0,1,1.207,2.844l.016.578a4.418,4.418,0,0,1-1.086,3.121,3.775,3.775,0,0,1-2.914,1.176,3.793,3.793,0,0,1-2.918-1.172,4.5,4.5,0,0,1-1.09-3.187Zm2.258.16a3.16,3.16,0,0,0,.453,1.843,1.628,1.628,0,0,0,2.578.008,3.457,3.457,0,0,0,.461-2.015,3.128,3.128,0,0,0-.461-1.831,1.5,1.5,0,0,0-1.3-.649,1.474,1.474,0,0,0-1.281.646A3.516,3.516,0,0,0,12.992,10.856Zm11.719,1.808a.727.727,0,0,0-.41-.652,4.659,4.659,0,0,0-1.316-.426q-3.016-.633-3.016-2.562A2.323,2.323,0,0,1,20.9,7.145a3.766,3.766,0,0,1,2.441-.754,4.053,4.053,0,0,1,2.574.758,2.388,2.388,0,0,1,.965,1.969H24.625a1.092,1.092,0,0,0-.312-.8A1.322,1.322,0,0,0,23.336,8a1.351,1.351,0,0,0-.883.258.814.814,0,0,0-.312.656.7.7,0,0,0,.355.605,3.657,3.657,0,0,0,1.2.4,9.8,9.8,0,0,1,1.422.379,2.336,2.336,0,0,1,1.789,2.273,2.2,2.2,0,0,1-.992,1.871,4.28,4.28,0,0,1-2.562.715,4.47,4.47,0,0,1-1.887-.379,3.166,3.166,0,0,1-1.293-1.039,2.414,2.414,0,0,1-.469-1.426h2.141a1.179,1.179,0,0,0,.445.922,1.766,1.766,0,0,0,1.109.32,1.635,1.635,0,0,0,.98-.246A.766.766,0,0,0,24.711,12.664ZM30.742,15H28.477V6.547h2.266Zm-2.4-10.641a1.112,1.112,0,0,1,.34-.836,1.465,1.465,0,0,1,1.848,0,1.105,1.105,0,0,1,.344.836,1.108,1.108,0,0,1-.348.844,1.448,1.448,0,0,1-1.836,0A1.108,1.108,0,0,1,28.344,4.359Zm6.961.109V6.547H36.75V8.2H35.3v4.219a1.007,1.007,0,0,0,.18.672.9.9,0,0,0,.688.2,3.6,3.6,0,0,0,.664-.055v1.711a4.648,4.648,0,0,1-1.367.2,2.156,2.156,0,0,1-2.422-2.4V8.2H31.813V6.547h1.234V4.469ZM40.391,15H38.125V6.547h2.266Zm-2.4-10.641a1.112,1.112,0,0,1,.34-.836,1.465,1.465,0,0,1,1.848,0,1.105,1.105,0,0,1,.344.836,1.108,1.108,0,0,1-.348.844,1.448,1.448,0,0,1-1.836,0A1.108,1.108,0,0,1,37.992,4.359Zm7.422,7.883,1.57-5.7h2.359L46.492,15H44.336L41.484,6.547h2.359ZM49.867,10.7a5.013,5.013,0,0,1,.484-2.242A3.546,3.546,0,0,1,51.746,6.93a4.069,4.069,0,0,1,2.113-.539,3.849,3.849,0,0,1,2.793,1.047,4.2,4.2,0,0,1,1.207,2.844l.016.578a4.418,4.418,0,0,1-1.086,3.121,4.209,4.209,0,0,1-5.832,0,4.5,4.5,0,0,1-1.09-3.187Zm2.258.16a3.16,3.16,0,0,0,.453,1.843,1.628,1.628,0,0,0,2.578.008,3.457,3.457,0,0,0,.461-2.015,3.128,3.128,0,0,0-.461-1.831,1.5,1.5,0,0,0-1.3-.649,1.474,1.474,0,0,0-1.281.646A3.516,3.516,0,0,0,52.125,10.856Zm7.25,3.035a1.137,1.137,0,0,1,.363-.875,1.412,1.412,0,0,1,1.828,0,1.137,1.137,0,0,1,.363.875,1.121,1.121,0,0,1-.359.863,1.435,1.435,0,0,1-1.836,0A1.121,1.121,0,0,1,59.375,13.891Zm0-6.4a1.137,1.137,0,0,1,.363-.875,1.412,1.412,0,0,1,1.828,0,1.137,1.137,0,0,1,.363.875,1.121,1.121,0,0,1-.359.863,1.435,1.435,0,0,1-1.836,0A1.121,1.121,0,0,1,59.375,7.492Zm15.1,4.531H69.711L68.641,15H67.094L71.438,3.625H72.75L77.1,15H75.563ZM70.164,10.8h3.867l-1.937-5.32Zm15.383.07a5.062,5.062,0,0,1-.883,3.109,2.829,2.829,0,0,1-2.391,1.18,3.1,3.1,0,0,1-2.422-.977v4.07H78.406V6.547h1.32l.07.938A2.977,2.977,0,0,1,82.25,6.391a2.882,2.882,0,0,1,2.41,1.148,5.117,5.117,0,0,1,.887,3.2ZM84.1,10.7a3.735,3.735,0,0,0-.609-2.258,1.963,1.963,0,0,0-1.672-.828,2.125,2.125,0,0,0-1.969,1.164V12.82a2.129,2.129,0,0,0,1.984,1.156,1.954,1.954,0,0,0,1.652-.824A4.077,4.077,0,0,0,84.1,10.7ZM87,10.7a4.993,4.993,0,0,1,.488-2.234A3.643,3.643,0,0,1,88.848,6.93a3.7,3.7,0,0,1,1.988-.539,3.565,3.565,0,0,1,2.793,1.2,4.6,4.6,0,0,1,1.066,3.18v.1a5.036,5.036,0,0,1-.473,2.215,3.589,3.589,0,0,1-1.352,1.527,3.743,3.743,0,0,1-2.02.547,3.556,3.556,0,0,1-2.785-1.2A4.575,4.575,0,0,1,87,10.8Zm1.453.172a3.616,3.616,0,0,0,.652,2.258,2.211,2.211,0,0,0,3.5-.012A3.955,3.955,0,0,0,93.25,10.7a3.61,3.61,0,0,0-.66-2.254,2.1,2.1,0,0,0-1.754-.863,2.075,2.075,0,0,0-1.727.852A3.925,3.925,0,0,0,88.453,10.867Zm10.7,2.016,1.969-6.336h1.547l-3.4,9.758q-.789,2.109-2.508,2.109l-.273-.023-.539-.1V17.117l.391.031a1.923,1.923,0,0,0,1.145-.3,2.149,2.149,0,0,0,.676-1.086l.32-.859L95.469,6.547h1.578Zm4.3-2.187a4.993,4.993,0,0,1,.488-2.234,3.643,3.643,0,0,1,1.359-1.531,3.7,3.7,0,0,1,1.988-.539,3.565,3.565,0,0,1,2.793,1.2,4.6,4.6,0,0,1,1.066,3.18v.1a5.036,5.036,0,0,1-.473,2.215,3.589,3.589,0,0,1-1.352,1.527,3.743,3.743,0,0,1-2.02.547,3.556,3.556,0,0,1-2.785-1.2,4.575,4.575,0,0,1-1.066-3.164Zm1.453.172a3.616,3.616,0,0,0,.652,2.258,2.211,2.211,0,0,0,3.5-.012,3.955,3.955,0,0,0,.648-2.418,3.61,3.61,0,0,0-.66-2.254,2.1,2.1,0,0,0-1.754-.863,2.075,2.075,0,0,0-1.727.852A3.925,3.925,0,0,0,104.914,10.867Zm12.3,5.109h-1.242l4.75-12.352h1.234Zm11.992-5.43V15h-1.5V3.625h4.2a4.215,4.215,0,0,1,2.926.953A3.231,3.231,0,0,1,135.891,7.1a3.188,3.188,0,0,1-1.035,2.551,4.4,4.4,0,0,1-2.965.895Zm0-1.227h2.7a2.7,2.7,0,0,0,1.844-.567,2.075,2.075,0,0,0,.641-1.64,2.143,2.143,0,0,0-.641-1.628,2.525,2.525,0,0,0-1.758-.634h-2.781Zm11.773,5.836a3.693,3.693,0,0,1-2.8-1.129,4.19,4.19,0,0,1-1.078-3.02v-.266a5.073,5.073,0,0,1,.48-2.246,3.748,3.748,0,0,1,1.344-1.547,3.378,3.378,0,0,1,1.871-.559,3.166,3.166,0,0,1,2.563,1.086,4.7,4.7,0,0,1,.914,3.109v.6h-5.727a3,3,0,0,0,.73,2.02,2.3,2.3,0,0,0,1.777.77,2.517,2.517,0,0,0,1.3-.312,3.258,3.258,0,0,0,.93-.828l.883.688A3.55,3.55,0,0,1,140.984,15.156Zm-.18-7.578a1.928,1.928,0,0,0-1.469.637A3.1,3.1,0,0,0,138.6,10h4.234V9.891a2.753,2.753,0,0,0-.594-1.707A1.815,1.815,0,0,0,140.8,7.578ZM147.914,4.5V6.547h1.578V7.664h-1.578v5.249a1.173,1.173,0,0,0,.211.763.888.888,0,0,0,.719.254,3.5,3.5,0,0,0,.688-.094V15a4.215,4.215,0,0,1-1.109.155,1.8,1.8,0,0,1-1.461-.586,2.517,2.517,0,0,1-.492-1.664V7.664H144.93V6.547h1.539V4.5ZM152.75,15H151.3V6.547h1.445ZM151.188,4.3a.863.863,0,0,1,.215-.594.807.807,0,0,1,.637-.242.819.819,0,0,1,.641.242.854.854,0,0,1,.219.594.826.826,0,0,1-.219.586.834.834,0,0,1-.641.234.821.821,0,0,1-.637-.234A.834.834,0,0,1,151.188,4.3Zm7.266,9.672a2.082,2.082,0,0,0,1.352-.469,1.649,1.649,0,0,0,.641-1.172h1.367a2.621,2.621,0,0,1-.5,1.383,3.293,3.293,0,0,1-1.23,1.047,3.55,3.55,0,0,1-1.629.391A3.482,3.482,0,0,1,155.707,14a4.59,4.59,0,0,1-1.02-3.152v-.242a5.089,5.089,0,0,1,.453-2.2,3.451,3.451,0,0,1,1.3-1.492,3.7,3.7,0,0,1,2-.531,3.39,3.39,0,0,1,2.363.852,3.043,3.043,0,0,1,1,2.211h-1.367a1.992,1.992,0,0,0-.621-1.348,1.932,1.932,0,0,0-1.379-.527,2.023,2.023,0,0,0-1.707.793,3.724,3.724,0,0,0-.605,2.293v.273a3.65,3.65,0,0,0,.6,2.25A2.033,2.033,0,0,0,158.453,13.977ZM165.008,15h-1.445V6.547h1.445ZM163.445,4.3a.863.863,0,0,1,.215-.594.807.807,0,0,1,.637-.242.819.819,0,0,1,.641.242.854.854,0,0,1,.219.594.826.826,0,0,1-.219.586.834.834,0,0,1-.641.234.821.821,0,0,1-.637-.234A.834.834,0,0,1,163.445,4.3Zm3.492,6.391a4.993,4.993,0,0,1,.488-2.234,3.642,3.642,0,0,1,1.359-1.531,3.7,3.7,0,0,1,1.988-.539,3.565,3.565,0,0,1,2.793,1.2,4.6,4.6,0,0,1,1.066,3.18v.1a5.036,5.036,0,0,1-.473,2.215,3.589,3.589,0,0,1-1.352,1.527,3.743,3.743,0,0,1-2.02.547,3.556,3.556,0,0,1-2.785-1.2,4.575,4.575,0,0,1-1.066-3.164Zm1.453.172a3.616,3.616,0,0,0,.652,2.258,2.211,2.211,0,0,0,3.5-.012,3.954,3.954,0,0,0,.648-2.418,3.61,3.61,0,0,0-.66-2.254,2.1,2.1,0,0,0-1.754-.863,2.075,2.075,0,0,0-1.727.852A3.925,3.925,0,0,0,168.391,10.867Zm3.039-7.852h1.75l-2.094,2.3-1.164,0Zm6.383,3.531.047,1.063a3.08,3.08,0,0,1,2.531-1.219q2.68,0,2.7,3.023V15h-1.445V9.406a1.946,1.946,0,0,0-.418-1.352,1.675,1.675,0,0,0-1.277-.437,2.086,2.086,0,0,0-1.234.375,2.546,2.546,0,0,0-.828.984V15h-1.445V6.547Z" transform="translate(1091.252 2392.5)" fill="#12263f"/>
    <g id="Grupo_120344" data-name="Grupo 120344" transform="translate(1085.625 2300.088) rotate(180)">
      <path id="Trazado_181217" data-name="Trazado 181217" d="M0,0H64.025V1.744H0Z" transform="translate(8.762 5.216)" fill="#ff8900"/>
      <g id="Grupo_120185" data-name="Grupo 120185" transform="translate(0)">
        <path id="Trazado_181108" data-name="Trazado 181108" d="M-1839.7,351.214l-10.543-6.088,10.543-6.088Z" transform="translate(1850.238 -339.038)" fill="#ff8900"/>
      </g>
    </g>
    <g id="Grupo_121187" data-name="Grupo 121187" transform="translate(1085.625 2354.088) rotate(180)">
      <path id="Trazado_181217-2" data-name="Trazado 181217" d="M0,0H64.025V1.744H0Z" transform="translate(8.762 5.216)" fill="#ff8900"/>
      <g id="Grupo_120185-2" data-name="Grupo 120185" transform="translate(0)">
        <path id="Trazado_181108-2" data-name="Trazado 181108" d="M-1839.7,351.214l-10.543-6.088,10.543-6.088Z" transform="translate(1850.238 -339.038)" fill="#ff8900"/>
      </g>
    </g>
    <g id="Grupo_121188" data-name="Grupo 121188" transform="translate(1085.625 2408.088) rotate(180)">
      <path id="Trazado_181217-3" data-name="Trazado 181217" d="M0,0H103.951V1.744H0Z" transform="translate(8.762 5.216)" fill="#ff8900"/>
      <g id="Grupo_120185-3" data-name="Grupo 120185" transform="translate(0)">
        <path id="Trazado_181108-3" data-name="Trazado 181108" d="M-1839.7,351.214l-10.543-6.088,10.543-6.088Z" transform="translate(1850.238 -339.038)" fill="#ff8900"/>
      </g>
    </g>
    <g id="Grupo_121186" data-name="Grupo 121186" transform="translate(721.945 2121.544)">
      <g id="Grupo_121164" data-name="Grupo 121164" transform="translate(34.216 207.144)">
        <path id="Trazado_183188" data-name="Trazado 183188" d="M25.128,188.129l-1.6,25.048,186.657,99.037L280.971,210.8l1.555-24.457Z" transform="translate(-21.83 -184.649)" fill="#fddab1"/>
        <path id="Trazado_183189" data-name="Trazado 183189" d="M210.745,314.616a1.8,1.8,0,0,1-.651-.193L23.437,215.383a1.705,1.705,0,0,1-.9-1.613l1.594-25.044a1.708,1.708,0,0,1,1.688-1.6l257.4-1.775a1.731,1.731,0,0,1,1.251.53,1.711,1.711,0,0,1,.458,1.278l-1.555,24.458a1.756,1.756,0,0,1-.308.863L212.283,313.9A1.7,1.7,0,0,1,210.745,314.616ZM26,212.894l184.36,97.822,69.645-99.792,1.413-22.156L27.427,190.522Z" transform="translate(-22.535 -185.353)"/>
      </g>
      <g id="Grupo_121165" data-name="Grupo 121165" transform="translate(35.985 186.731)">
        <path id="Trazado_183190" data-name="Trazado 183190" d="M26.167,176.276l-1.6,25.125L210.77,300.677l70.661-101.74L283,174.4Z" transform="translate(-22.865 -172.701)" fill="#ffe6b0"/>
        <path id="Trazado_183191" data-name="Trazado 183191" d="M211.332,303.072a1.627,1.627,0,0,1-.656-.19L24.47,203.608a1.715,1.715,0,0,1-.9-1.615l1.6-25.118a1.7,1.7,0,0,1,1.681-1.6l256.828-1.873a1.729,1.729,0,0,1,1.249.538,1.67,1.67,0,0,1,.461,1.275l-1.565,24.53a1.687,1.687,0,0,1-.3.865L212.877,302.351A1.7,1.7,0,0,1,211.332,303.072ZM27.035,201.118l183.911,98.049,69.522-100.108,1.418-22.238L28.469,178.667Z" transform="translate(-23.57 -173.407)"/>
      </g>
      <g id="Grupo_121166" data-name="Grupo 121166" transform="translate(28.957 196.275)">
        <path id="Trazado_183192" data-name="Trazado 183192" d="M277.9,179.991,20.453,182.357,207.114,281.4Z" transform="translate(-18.751 -178.284)" fill="#fecf90"/>
        <path id="Trazado_183193" data-name="Trazado 183193" d="M207.67,283.8a1.632,1.632,0,0,1-.648-.193L20.366,184.568a1.7,1.7,0,0,1,.778-3.2l257.445-2.374a1.659,1.659,0,0,1,1.517.911,1.7,1.7,0,0,1-.109,1.767l-70.785,101.4A1.7,1.7,0,0,1,207.67,283.8ZM27.878,184.7l179.4,95.2,68.034-97.471Z" transform="translate(-19.457 -178.992)" fill="#5e2c00"/>
      </g>
      <g id="Grupo_121167" data-name="Grupo 121167" transform="translate(169.335 236.255)" style="isolation: isolate">
        <path id="Trazado_183194" data-name="Trazado 183194" d="M199.594,213.341c2.555-5.157-2-8.407-6.44-9.412-1.439-.323-7.126-.017-12.8.995-5.772-.907-11.041-2.389-17.117-2.517a80.935,80.935,0,0,0-25.41,3.406c-14.1,4.5-27.131,14.3-34.468,27.3-3.4,6.018-1.2,13.207,1.167,19.058,2.58,6.387,6.909,8.066,13.482,6.328,2.011-.531,12.122-2.773,13.091-.5,1.256,2.949.034,6.5,2.247,9.268,4.33,5.407,11.307,5.779,17.753,5.316a22.134,22.134,0,0,0,13.947-6.215c6.133-5.83,5.649-20.275,17.652-17.592,9.262,2.073,16.054-8.713,14.747-16.671-.461-2.837-6.106-8.383-3.6-11.252C196.04,218.33,198.1,216.355,199.594,213.341Z" transform="translate(-101.608 -202.389)"/>
        <path id="Trazado_183195" data-name="Trazado 183195" d="M189.327,225.216a32.35,32.35,0,0,0,3.081,3.544c6.437,7.573-2.756,18.523-12,16.394-5.4-1.244-8.8,1.042-11,6.029-3.645,8.257-6.071,15.562-16.047,17.544-6.063,1.2-12.531.42-17.594-3.231-3.476-2.505-1.2-10.092-3.877-11.654-3-1.738-6.6-.106-9.764.637-6.919,1.632-13.091,2.262-16.357-5.316-3.739-8.664-3.7-15.319,2.526-23.363,9.9-12.809,24.6-19.15,40.24-21.254a116.537,116.537,0,0,1,16.521-.641,46.874,46.874,0,0,1,8.739,1.189c-4.944,1.408-8.635,3.477-7.43,6.281.263.617,1.572-.584,1.381-1.116-.713-1.965,6.194-3.547,11.088-4.4.137.017.277.038.412.043a.91.91,0,0,0,.542-.2c1.675-.273,2.99-.449,3.488-.508a22.312,22.312,0,0,1,8.677.769c7.587,2.088,1.316,10.5-1.839,14.116C188.587,221.826,188.563,223.185,189.327,225.216Z" transform="translate(-100.459 -201.329)" fill="#8dd52c"/>
      </g>
      <g id="Grupo_121168" data-name="Grupo 121168" transform="translate(211.657 170.564)">
        <path id="Trazado_183197" data-name="Trazado 183197" d="M129.16,192.459c-4.829,3.124-2.58,8.247.726,11.381,1.07,1.012,6.112,3.658,11.512,5.687,4.5,3.735,8.265,7.7,13.426,10.918A80.966,80.966,0,0,0,178.4,230.5c14.419,3.341,30.63,1.57,43.574-5.841,6-3.438,7.782-10.741,8.737-16.968,1.053-6.818-1.808-10.47-8.353-12.339-2-.571-11.832-3.811-11.507-6.268.426-3.16,3.293-5.6,2.8-9.108-.954-6.859-6.76-10.75-12.531-13.643a22.135,22.135,0,0,0-15.171-1.789c-8.25,1.873-15.222,14.542-24.162,6.1-6.9-6.514-18.252-.718-21.2,6.792-1.051,2.673.965,10.33-2.659,11.514C134.764,189.986,131.994,190.63,129.16,192.459Z" transform="translate(-126.375 -163.946)"/>
        <path id="Trazado_183198" data-name="Trazado 183198" d="M142.146,185.193a32.035,32.035,0,0,0-.832-4.617c-1.666-9.8,11.833-14.515,18.692-7.96,4.012,3.835,8.1,3.609,12.539.444,7.353-5.232,13.177-10.27,22.763-6.874,5.824,2.066,10.989,6.041,13.467,11.767,1.705,3.932-4.12,9.3-2.621,12,1.681,3.026,5.613,3.471,8.715,4.448,6.781,2.129,12.408,4.747,11.343,12.927-1.223,9.361-4.655,15.054-14.115,18.793-15.058,5.936-30.934,3.881-45.442-2.31a115.526,115.526,0,0,1-14.535-7.893,46.665,46.665,0,0,1-6.9-5.487c4.967,1.319,9.2,1.425,9.595-1.6.091-.665-1.652-.3-1.758.253-.391,2.052-7.136-.12-11.775-1.888-.116-.08-.217-.164-.333-.248a1,1,0,0,0-.569-.1c-1.579-.62-2.8-1.141-3.257-1.348a22.1,22.1,0,0,1-7.064-5.089c-5.458-5.673,4.234-9.7,8.79-11.194C141.049,188.489,141.769,187.329,142.146,185.193Z" transform="translate(-124.915 -163.142)" fill="#8dd52c"/>
        <path id="Trazado_183199" data-name="Trazado 183199" d="M159.926,177.875c1.763,3.588,5.844,10.591,2.661,14.472-5.049,6.158-15.068-3.231-20.953-10.313a14.9,14.9,0,0,1,.513,3.151c-.378,2.136-1.1,3.3-3.3,4.021-4.556,1.5-14.248,5.521-8.79,11.194a22.1,22.1,0,0,0,7.064,5.089c.455.207,1.678.728,3.257,1.348a1,1,0,0,1,.569.1c.116.084.217.167.333.248,4.639,1.769,11.384,3.94,11.775,1.888.106-.554,1.849-.918,1.758-.253-.393,3.023-4.627,2.917-9.595,1.6a46.663,46.663,0,0,0,6.9,5.487,115.528,115.528,0,0,0,14.535,7.893c14.508,6.191,30.384,8.247,45.442,2.31,8.73-3.448,12.32-8.571,13.785-16.692-10.3-1.02-20.572-1.845-30.153-6.324a1.143,1.143,0,0,1,.208-2.182c7.367-1.617,14.629-3.645,21.936-5.494-.959-.367-1.963-.707-3-1.029-3.1-.977-7.033-1.422-8.715-4.448-.844-1.519.622-3.872,1.769-6.338-6.892,4.192-15.747,7.245-18.187,1.972-2.35-5.073.6-11.545,2.734-16.177.549-1.191,1.148-2.368,1.76-3.554-8.944-2.657-14.608,2.177-21.685,7.206-4.441,3.165-8.527,3.39-12.539-.444a10.816,10.816,0,0,0-4.5-2.56C157.066,172.619,158.606,175.192,159.926,177.875Z" transform="translate(-124.915 -163.134)" fill="#8dd52c"/>
      </g>
      <g id="Grupo_121169" data-name="Grupo 121169" transform="translate(6.054 160.087)">
        <path id="Trazado_183200" data-name="Trazado 183200" d="M104.039,168.763c2.555-5.154-2-8.407-6.442-9.409-1.435-.332-7.121-.021-12.8.995-5.776-.911-11.042-2.394-17.124-2.517a81.006,81.006,0,0,0-25.408,3.4c-14.1,4.5-27.131,14.306-34.466,27.3-3.4,6.018-1.2,13.207,1.169,19.053,2.58,6.393,6.905,8.067,13.479,6.329,2.01-.528,12.122-2.772,13.094-.5,1.254,2.937.031,6.5,2.245,9.265,4.328,5.407,11.305,5.781,17.746,5.318a22.121,22.121,0,0,0,13.951-6.215c6.141-5.827,5.649-20.278,17.655-17.6,9.26,2.073,16.052-8.708,14.749-16.668-.467-2.833-6.109-8.383-3.6-11.257C100.49,173.753,102.541,171.779,104.039,168.763Z" transform="translate(-6.054 -157.815)"/>
        <path id="Trazado_183201" data-name="Trazado 183201" d="M93.774,180.643a31.766,31.766,0,0,0,3.079,3.541c6.439,7.577-2.756,18.523-12,16.4-5.4-1.242-8.8,1.037-11,6.027-3.648,8.253-6.073,15.564-16.047,17.539-6.065,1.208-12.536.431-17.6-3.224-3.476-2.51-1.2-10.1-3.879-11.651-2.99-1.746-6.6-.114-9.759.634-6.924,1.632-13.1,2.259-16.36-5.313-3.734-8.672-3.694-15.319,2.527-23.369,9.9-12.806,24.6-19.147,40.237-21.251a116.558,116.558,0,0,1,16.524-.641,46.72,46.72,0,0,1,8.737,1.186C73.288,161.93,69.6,164,70.8,166.8c.267.619,1.576-.59,1.386-1.114-.716-1.965,6.194-3.547,11.087-4.4.14.01.273.029.407.043a.976.976,0,0,0,.549-.2c1.671-.277,2.994-.455,3.488-.508a22.124,22.124,0,0,1,8.672.767c7.592,2.09,1.317,10.494-1.834,14.118C93.029,177.249,93.009,178.608,93.774,180.643Z" transform="translate(-4.904 -156.756)" fill="#8dd52c"/>
      </g>
      <g id="Grupo_121170" data-name="Grupo 121170" transform="translate(48.368 163.027)">
        <path id="Trazado_183202" data-name="Trazado 183202" d="M31.813,174.1,58.14,263.716s120.67-33.248,220.644-8.11c0,0,3.46-3.228,2.794-5.964-4.556-18.73-22.669-90.176-23.421-89.1C257.305,161.77,31.813,174.1,31.813,174.1Z" transform="translate(-30.11 -158.831)" fill="#ffee9e"/>
        <path id="Trazado_183203" data-name="Trazado 183203" d="M58.7,266.119a1.707,1.707,0,0,1-1.485-1.215L30.884,175.28a1.7,1.7,0,0,1,1.543-2.175c75.539-4.132,219.306-12.223,225.814-13.441a1.665,1.665,0,0,1,.795-.12c1.659.14,1.869.157,11.881,38.885,5.053,19.54,10.694,41.949,13.023,51.513.873,3.6-2.859,7.209-3.288,7.611a1.685,1.685,0,0,1-1.577.407A307.693,307.693,0,0,0,230.99,250.1C145.568,242.654,60.15,265.828,59.3,266.066A1.827,1.827,0,0,1,58.7,266.119ZM34.756,176.385,60.01,262.355c12.238-3.161,91.752-22.578,171.281-15.639a312.47,312.47,0,0,1,47.653,7.707c.967-1.109,1.928-2.695,1.69-3.672-4.692-19.284-19.957-79.315-22.824-87.743-6.025.861-28.026,2.344-112.341,7.177C95.471,173.046,45.559,175.79,34.756,176.385Z" transform="translate(-30.816 -159.535)"/>
      </g>
      <g id="Grupo_121171" data-name="Grupo 121171" transform="translate(47.496 156.74)">
        <path id="Trazado_183204" data-name="Trazado 183204" d="M31.3,170.42l26.329,89.621,59.987-11.435s108.442-10.408,164.326,3.643c0,0-23.438-96.61-24.294-95.387S31.3,170.42,31.3,170.42Z" transform="translate(-29.602 -155.151)" fill="#ffc533"/>
        <path id="Trazado_183205" data-name="Trazado 183205" d="M58.183,262.437a1.7,1.7,0,0,1-1.485-1.208L30.374,171.606a1.7,1.7,0,0,1,1.536-2.179c75.544-4.128,219.31-12.22,225.82-13.44a1.783,1.783,0,0,1,.791-.128c1.712.154,1.933.171,14.074,49.022,5.5,22.137,10.876,44.265,11.62,47.315a1.7,1.7,0,0,1-1.668,2.454.112.112,0,0,0-.046,0,1.6,1.6,0,0,1-.268-.046,309.4,309.4,0,0,0-48.328-7.874c-86.226-7.519-174.259,15.432-175.134,15.663A1.771,1.771,0,0,1,58.183,262.437ZM34.243,172.7,59.5,258.691c12.4-3.081,94.3-22.368,174.7-15.352a316.136,316.136,0,0,1,46.134,7.295c-8.39-34.533-20.562-83.7-23.052-91.3-6.053.861-28.091,2.346-112.331,7.172C94.958,169.371,45.042,172.113,34.243,172.7Z" transform="translate(-30.306 -155.856)"/>
      </g>
      <g id="Grupo_121174" data-name="Grupo 121174" transform="translate(36.243 156.123)">
        <g id="Grupo_121172" data-name="Grupo 121172" transform="translate(0 11.517)">
          <path id="Trazado_183206" data-name="Trazado 183206" d="M271.274,230.668c-1.885-7.729-6.073-24.434-10.4-41.313-24.531-2.8-49.1-5.181-73.656-7.773-29.352-3.112-58.61-7.006-87.943-10.323-14.687-1.659-29.386-3.334-44.008-5.5-5.637-.834-11.208-1.772-16.782-2.531q-5.58,1.038-11.179,2.047a1.107,1.107,0,0,1-.608-.07c-.66.28-1.319.567-1.982.851l23.111,78.688S168.5,211.5,268.478,236.634C268.478,236.634,271.938,233.406,271.274,230.668Z" transform="translate(-23.015 -161.529)" fill="#f7ab96"/>
          <path id="Trazado_183207" data-name="Trazado 183207" d="M48.391,247.145A1.7,1.7,0,0,1,46.9,245.93L23.789,167.245a1.7,1.7,0,0,1,.96-2.042l1.992-.854a1.739,1.739,0,0,1,1.135-.067q5.508-.987,11.008-2.016a1.444,1.444,0,0,1,.542-.01c3.406.465,6.81.995,10.234,1.526,2.18.34,4.363.68,6.562,1,15.032,2.228,30.4,3.961,43.95,5.492,12.462,1.406,25.119,2.948,37.361,4.433,16.565,2.016,33.7,4.1,50.57,5.885q12.621,1.335,25.235,2.62c15.88,1.632,32.3,3.317,48.436,5.155a1.707,1.707,0,0,1,1.456,1.266c4.458,17.407,8.605,33.971,10.4,41.337.877,3.6-2.857,7.213-3.288,7.609a1.676,1.676,0,0,1-1.577.407,307.414,307.414,0,0,0-48.084-7.852c-85.424-7.454-170.837,15.719-171.694,15.96A1.73,1.73,0,0,1,48.391,247.145ZM27.477,167.732,49.7,243.387c12.235-3.165,91.749-22.575,171.274-15.647a313.1,313.1,0,0,1,47.658,7.71c.962-1.107,1.929-2.693,1.688-3.67-1.751-7.2-5.757-23.19-10.1-40.163-15.74-1.793-31.743-3.428-47.229-5.024q-12.624-1.292-25.244-2.62c-16.905-1.786-34.048-3.869-50.626-5.887-12.232-1.485-24.882-3.025-37.334-4.429-13.578-1.535-28.976-3.274-44.068-5.5q-3.309-.495-6.584-1.012c-3.312-.513-6.608-1.027-9.9-1.482q-5.457,1.012-10.926,2a3.9,3.9,0,0,1-.726.034Z" transform="translate(-23.721 -162.235)"/>
        </g>
        <g id="Grupo_121173" data-name="Grupo 121173" transform="translate(0.863)">
          <path id="Trazado_183208" data-name="Trazado 183208" d="M251.943,158.95c-4.521-.15-9.045-.255-13.573-.268-27-.046-54-.569-81-1.08-16.611-.314-33.2-.608-49.791-1.112-27.117,3.025-53.791,8.775-80.629,13.568a1.107,1.107,0,0,1-.608-.07c-.373.159-.75.32-1.119.48L46.6,243.238s124.34-32.928,224.315-7.79C270.916,235.447,259.1,186.76,251.943,158.95Z" transform="translate(-23.52 -154.791)" fill="#fd9578"/>
          <path id="Trazado_183209" data-name="Trazado 183209" d="M47.155,245.637a1.7,1.7,0,0,1-1.482-1.215l-21.38-72.771a1.708,1.708,0,0,1,.964-2.042l1.131-.484a1.727,1.727,0,0,1,1.131-.067c6.948-1.246,13.884-2.551,20.823-3.855,19.5-3.669,39.656-7.462,59.758-9.7a1.809,1.809,0,0,1,.236,0c14.776.444,29.812.731,44.352,1l7.626.14c25.823.49,52.513,1,78.765,1.044,4.021.007,8.353.091,13.624.268a1.667,1.667,0,0,1,1.591,1.275c7.083,27.5,18.86,76.034,18.981,76.518a1.7,1.7,0,0,1-2.069,2.052,309.382,309.382,0,0,0-48.33-7.876c-86.224-7.52-174.258,15.432-175.136,15.663A1.748,1.748,0,0,1,47.155,245.637ZM28.067,172.415l20.406,69.478c12.4-3.081,94.3-22.372,174.7-15.36a316.915,316.915,0,0,1,46.137,7.3c-2.543-10.463-11.868-48.687-17.985-72.518-4.67-.144-8.592-.217-12.245-.222-26.286-.048-52.993-.559-78.823-1.046l-7.628-.144c-14.511-.273-29.513-.554-44.271-1-19.931,2.227-39.987,6-59.381,9.65C42,169.855,35.043,171.171,28.067,172.415Z" transform="translate(-24.226 -155.495)"/>
        </g>
      </g>
      <g id="Grupo_121177" data-name="Grupo 121177" transform="translate(122.227 203.27)">
        <g id="Grupo_121175" data-name="Grupo 121175" transform="translate(0 7.122)">
          <path id="Trazado_183210" data-name="Trazado 183210" d="M120.564,188.471c-23.592-2.056-43.938,10.253-45.442,27.5s16.4,32.887,40,34.947,43.936-10.253,45.44-27.5S144.157,190.53,120.564,188.471Zm-4.672,53.554c-18.745-1.639-32.975-14.068-31.775-27.768s17.358-23.479,36.107-21.844S153.195,206.477,152,220.178,134.639,243.66,115.892,242.025Z" transform="translate(-73.336 -186.549)" fill="#ed1c24"/>
          <path id="Trazado_183211" data-name="Trazado 183211" d="M115.671,253.311c-24.489-2.133-43.125-18.636-41.537-36.782s22.792-31.185,47.286-29.046,43.123,18.64,41.537,36.792S140.164,255.447,115.671,253.311Zm5.453-62.441C98.5,188.9,78.939,200.539,77.518,216.823s15.83,31.131,38.455,33.1,42.18-9.67,43.6-25.95S143.742,192.842,121.124,190.87Zm-4.675,53.547c-19.651-1.709-34.6-14.991-33.327-29.6s18.3-25.107,37.949-23.4,34.6,15,33.321,29.615S136.1,246.136,116.449,244.417Zm4.327-49.608c-17.78-1.552-33.149,7.556-34.26,20.3s12.445,24.373,30.229,25.922,33.154-7.549,34.265-20.3S138.557,196.361,120.776,194.809Z" transform="translate(-74.04 -187.253)"/>
        </g>
        <g id="Grupo_121176" data-name="Grupo 121176" transform="translate(0.977)">
          <path id="Trazado_183212" data-name="Trazado 183212" d="M121.137,184.3c-23.593-2.056-43.94,10.256-45.444,27.5s16.4,32.887,40,34.943,43.945-10.253,45.445-27.5S144.731,186.363,121.137,184.3Zm-4.668,53.554c-18.747-1.635-32.973-14.065-31.78-27.764s17.358-23.482,36.107-21.847,32.973,14.067,31.777,27.768S135.211,239.493,116.469,237.855Z" transform="translate(-73.908 -182.383)" fill="#ed1c24"/>
          <path id="Trazado_183213" data-name="Trazado 183213" d="M116.249,249.15c-24.49-2.139-43.13-18.643-41.542-36.8s22.792-31.175,47.286-29.039,43.123,18.64,41.542,36.789S140.739,251.279,116.249,249.15ZM121.7,186.7c-22.623-1.972-42.182,9.665-43.6,25.95s15.83,31.131,38.453,33.1,42.178-9.663,43.6-25.946S144.315,188.674,121.7,186.7Zm-4.674,53.547c-19.648-1.709-34.6-14.991-33.325-29.6s18.3-25.107,37.947-23.4,34.6,15,33.325,29.612S136.674,241.964,117.023,240.249Zm4.325-49.611c-17.777-1.548-33.149,7.556-34.26,20.3s12.449,24.373,30.23,25.926,33.152-7.553,34.263-20.3S139.133,192.192,121.348,190.637Z" transform="translate(-74.612 -183.086)"/>
        </g>
      </g>
      <g id="Grupo_121180" data-name="Grupo 121180" transform="translate(17.481 158.337)">
        <g id="Grupo_121178" data-name="Grupo 121178" transform="translate(0 7.122)">
          <path id="Trazado_183214" data-name="Trazado 183214" d="M59.268,162.176c-23.593-2.056-43.94,10.253-45.447,27.5s16.408,32.887,40,34.947,43.94-10.256,45.444-27.494S82.863,164.235,59.268,162.176Zm-4.67,53.55c-18.745-1.635-32.973-14.065-31.777-27.764s17.361-23.479,36.105-21.847S91.9,180.182,90.7,193.883,73.341,217.361,54.6,215.726Z" transform="translate(-12.038 -160.255)" fill="#fff"/>
          <path id="Trazado_183215" data-name="Trazado 183215" d="M54.376,227.019c-24.487-2.139-43.123-18.639-41.541-36.785s22.792-31.182,47.286-29.046,43.123,18.643,41.541,36.792S78.866,229.155,54.376,227.019Zm5.448-62.448c-22.621-1.969-42.183,9.672-43.6,25.96s15.83,31.124,38.455,33.1,42.18-9.668,43.6-25.946S82.446,166.547,59.823,164.572Zm-4.668,53.554c-19.651-1.716-34.6-15-33.327-29.6s18.3-25.111,37.949-23.4,34.6,15,33.321,29.613S74.8,219.837,55.155,218.125Zm4.325-49.611c-17.78-1.552-33.152,7.556-34.263,20.3s12.447,24.369,30.23,25.919,33.152-7.553,34.265-20.3S77.26,170.062,59.48,168.514Z" transform="translate(-12.741 -160.959)"/>
        </g>
        <g id="Grupo_121179" data-name="Grupo 121179" transform="translate(0.977)">
          <path id="Trazado_183216" data-name="Trazado 183216" d="M59.844,158.008c-23.6-2.056-43.945,10.256-45.447,27.5s16.4,32.887,39.994,34.947S98.334,210.2,99.835,192.961,83.435,160.067,59.844,158.008ZM55.17,211.562c-18.749-1.635-32.975-14.068-31.778-27.768S40.75,160.311,59.5,161.943,92.468,176.01,91.27,189.715,73.912,213.193,55.17,211.562Z" transform="translate(-12.607 -156.087)" fill="#fff"/>
          <path id="Trazado_183217" data-name="Trazado 183217" d="M54.951,222.851c-24.489-2.136-43.13-18.64-41.544-36.789S36.2,154.884,60.693,157.02s43.123,18.643,41.542,36.792S79.44,224.987,54.951,222.851Zm5.441-62.441c-22.618-1.975-42.175,9.665-43.593,25.95s15.825,31.132,38.448,33.1,42.178-9.668,43.6-25.95S83.018,162.381,60.392,160.41Zm-4.665,53.547c-19.651-1.712-34.6-15-33.325-29.61s18.3-25.1,37.951-23.4,34.6,15,33.321,29.613S75.378,215.669,55.727,213.957Zm4.328-49.615c-17.78-1.552-33.157,7.56-34.266,20.306s12.449,24.369,30.235,25.919,33.151-7.556,34.26-20.3S77.834,165.894,60.055,164.342Z" transform="translate(-13.313 -156.791)"/>
        </g>
      </g>
      <g id="Grupo_121181" data-name="Grupo 121181" transform="translate(204.378 159.295)">
        <path id="Trazado_183218" data-name="Trazado 183218" d="M224.354,194.286c4.686-3.327,2.216-8.351-1.22-11.338-1.112-.964-6.27-3.387-11.75-5.183-4.651-3.535-8.59-7.332-13.886-10.319a80.908,80.908,0,0,0-23.995-9.038c-14.55-2.707-30.668-.244-43.28,7.722-5.844,3.694-7.305,11.071-8,17.339-.752,6.849,2.266,10.379,8.881,11.962,2.023.484,11.991,3.3,11.767,5.757-.287,3.187-3.049,5.736-2.408,9.224,1.258,6.816,7.227,10.448,13.112,13.091a22.173,22.173,0,0,0,15.234,1.131c8.166-2.23,14.581-15.189,23.879-7.143,7.179,6.211,18.265-.07,20.883-7.7.935-2.72-1.41-10.28,2.156-11.621C218.858,197,221.6,196.238,224.354,194.286Z" transform="translate(-122.115 -157.351)"/>
        <path id="Trazado_183219" data-name="Trazado 183219" d="M208.918,200.641a31.833,31.833,0,0,0,1.036,4.576c2.088,9.723-11.2,15.015-18.334,8.758-4.171-3.652-8.245-3.247-12.543.1-7.126,5.54-12.72,10.834-22.442,7.852-5.911-1.808-11.246-5.56-13.971-11.167-1.873-3.862,3.717-9.468,2.1-12.105-1.81-2.949-5.76-3.223-8.9-4.062-6.868-1.839-12.6-4.209-11.893-12.425.81-9.409,4-15.249,13.291-19.391,14.783-6.587,30.733-5.214,45.5.337a117.14,117.14,0,0,1,14.861,7.259,47.555,47.555,0,0,1,7.136,5.178c-5.024-1.1-9.257-1.018-9.52,2.018-.063.668,1.663.231,1.743-.326.3-2.069,7.134-.193,11.847,1.376l.342.232a.955.955,0,0,0,.576.077c1.606.552,2.849,1.022,3.312,1.208a22.057,22.057,0,0,1,7.279,4.779c5.7,5.434-3.809,9.87-8.3,11.565C209.872,197.3,209.207,198.49,208.918,200.641Z" transform="translate(-120.838 -156.625)" fill="#8dd52c"/>
      </g>
      <g id="Grupo_121185" data-name="Grupo 121185" transform="translate(34.893 154.609)">
        <g id="Grupo_121182" data-name="Grupo 121182" transform="translate(0 0.589)">
          <path id="Trazado_183220" data-name="Trazado 183220" d="M25.525,157.734l-1.6,25.048,186.657,99.04,70.781-101.413,1.559-24.46Z" transform="translate(-22.225 -154.249)" fill="#fddab1"/>
          <path id="Trazado_183221" data-name="Trazado 183221" d="M211.139,284.224a1.721,1.721,0,0,1-.648-.2L23.835,184.988a1.711,1.711,0,0,1-.9-1.615l1.6-25.041a1.7,1.7,0,0,1,1.687-1.6l257.4-1.779a1.76,1.76,0,0,1,1.251.531,1.738,1.738,0,0,1,.46,1.278l-1.558,24.463a1.684,1.684,0,0,1-.306.865L212.684,283.5A1.719,1.719,0,0,1,211.139,284.224ZM26.4,182.495,210.754,280.32,280.4,180.533l1.417-22.165-254,1.755Z" transform="translate(-22.931 -154.954)"/>
        </g>
        <g id="Grupo_121183" data-name="Grupo 121183" transform="translate(187.072 0.589)">
          <path id="Trazado_183222" data-name="Trazado 183222" d="M133.4,281.227l70.368-100.819,1.559-24.46-61.036.424Z" transform="translate(-131.701 -154.249)" fill="#ffbf76"/>
          <path id="Trazado_183223" data-name="Trazado 183223" d="M133.962,283.624a1.6,1.6,0,0,1-.431-.094,1.7,1.7,0,0,1-1.118-1.745l10.892-124.856a1.7,1.7,0,0,1,1.681-1.552l61.036-.424a1.76,1.76,0,0,1,1.251.531,1.738,1.738,0,0,1,.46,1.278l-1.558,24.463a1.684,1.684,0,0,1-.306.865L135.5,282.9A1.7,1.7,0,0,1,133.962,283.624Zm12.6-124.855-10.2,116.969,66.448-95.205,1.417-22.165Z" transform="translate(-132.407 -154.954)"/>
        </g>
        <g id="Grupo_121184" data-name="Grupo 121184" transform="translate(1.599)">
          <path id="Trazado_183224" data-name="Trazado 183224" d="M282.3,155.6,24.862,157.977l186.656,99.036Z" transform="translate(-23.162 -153.904)" fill="#ffbf76"/>
          <path id="Trazado_183225" data-name="Trazado 183225" d="M212.08,259.414a1.668,1.668,0,0,1-.653-.19L24.773,160.181a1.7,1.7,0,0,1,.779-3.2l257.44-2.37a1.649,1.649,0,0,1,1.517.909,1.694,1.694,0,0,1-.108,1.765L213.616,258.7A1.689,1.689,0,0,1,212.08,259.414Zm-179.8-99.093,179.41,95.2,68.036-97.478Z" transform="translate(-23.867 -154.609)"/>
        </g>
        <path id="Trazado_183226" data-name="Trazado 183226" d="M274.143,157.636l-68.622,85.606L29.757,158.183l178.527,94.728Z" transform="translate(-18.093 -152.464)" fill="#fddab1" style="mix-blend-mode: screen;isolation: isolate"/>
      </g>
      <path id="Trazado_183227" data-name="Trazado 183227" d="M133.819,189.409c-.448,1.3-3.238,1.511-6.24.48s-5.073-2.913-4.629-4.209,3.236-1.512,6.239-.484S134.264,188.11,133.819,189.409Z" transform="translate(82.812 21.219)" fill="#ff8900"/>
      <path id="Trazado_183228" data-name="Trazado 183228" d="M151.412,173.487c-.444,1.3-3.238,1.511-6.237.484s-5.075-2.91-4.629-4.209,3.24-1.516,6.239-.487S151.857,172.188,151.412,173.487Z" transform="translate(95.284 9.934)" fill="#ff8900"/>
      <path id="Trazado_183229" data-name="Trazado 183229" d="M150.1,184.078c-.253.721-1.806.844-3.483.263s-2.828-1.618-2.582-2.343,1.808-.848,3.482-.27S150.35,183.35,150.1,184.078Z" transform="translate(97.777 18.963)" fill="#ff8900"/>
      <path id="Trazado_183230" data-name="Trazado 183230" d="M80.283,176.13c-.253.725-1.808.844-3.481.267s-2.828-1.622-2.584-2.343,1.808-.848,3.479-.27S80.527,175.405,80.283,176.13Z" transform="translate(48.291 13.332)" fill="#ff8900"/>
      <path id="Trazado_183231" data-name="Trazado 183231" d="M102.862,166.542c-.246.725-1.806.844-3.476.27s-2.831-1.622-2.584-2.346,1.8-.851,3.481-.27S103.112,165.817,102.862,166.542Z" transform="translate(64.298 6.536)" fill="#ff8900"/>
      <path id="Trazado_183232" data-name="Trazado 183232" d="M57.011,165.363c-.246.728-1.8.844-3.474.273s-2.837-1.628-2.585-2.353,1.8-.841,3.481-.27S57.262,164.637,57.011,165.363Z" transform="translate(31.798 5.701)" fill="#ff8900"/>
    </g>
  </g>
</svg>
