<svg xmlns="http://www.w3.org/2000/svg" width="295" height="229" viewBox="0 0 295 229">
  <g id="Grupo_128810" data-name="Grupo 128810" transform="translate(-982 -607.81)">
    <path id="Rectángulo_37351" data-name="Rectángulo 37351" d="M80,0H295a0,0,0,0,1,0,0V120a80,80,0,0,1-80,80H0a0,0,0,0,1,0,0V80A80,80,0,0,1,80,0Z" transform="translate(982 636.81)" fill="#2df0da"/>
    <g id="Grupo_125017" data-name="Grupo 125017" transform="translate(1630.714 882.265)">
      <path id="Trazado_185017" data-name="Trazado 185017" d="M1990.4,299.96c.078.084-2.933-3.871-3.8-6.3a24.724,24.724,0,0,1-.487-11.014c.725-4.375.5-8.848.933-13.257.5-4.959,1.148-11.215,2.339-15.238,1.134-3.821,2.789-5.478,3.8-7.529a24.043,24.043,0,0,1,6.181-7.687,19.217,19.217,0,0,1,8.023-4.034,17.506,17.506,0,0,1,7.174.161s4.892-4.09,8.508-3.574c1.346.2,5.071-.219,6.4.224,10.621,3.54,17.533,11.959,22.836,20.247,1.433,2.24,3.585,5.641,5.322,8.71s5.26,7.982,5.885,12.352c.331,2.314-1.167,10.028-1.167,10.028s-4.068-.452-4.81.844c-1.044,1.835-4.382,22.6-5.309,21.8-3.682-3.157-4.732-32.529-6.855-36.776-5.257-10.507-13.694-15.725-25.321-17.387-11.026-1.576-13.584,10.946-15.14,18.723-.405,2.027-2.7,9.424-3.365,11.609-1.285,4.17-2.328,9.548-4.988,13.1C1995.312,296.638,1989.891,299.417,1990.4,299.96Z" transform="translate(-2527.474 -505.156)" fill="#b26001" fill-rule="evenodd"/>
      <path id="Trazado_185018" data-name="Trazado 185018" d="M2005.105,293.7s-1.039,2.942-.673,4.155a96.481,96.481,0,0,0,3.545,11.07c.872,2,1.891,3.947,2.582,6.02,4.008,12.024,8.306,23.874,11.394,36.222,1.084,4.341,1.7,8.8,2.9,13.11.547,1.948.943,4.378,2.9,5.481,1.357.766,3.226.578,4.731.646,4.908.214,11.012,1.4,15.263-1.721a20.131,20.131,0,0,0,4.334-4.975,57.79,57.79,0,0,1,4.265-3.947c3.435-2.373,7.933-1.908,10.539-5.172,2.227-2.785,3.661-6.242,5.244-9.411.443-.884,2.2-8,2.2-8s-5.522-3.415-6.25-4.463c-3.254-4.7-6.151-8.169-7.108-13.9-.774-4.659-3.54-18.6-3.54-18.6l.042-6.745s2.719-.82,2.535-2.5a29.074,29.074,0,0,0-1.51-5.912c-.714-2.152-2.042-1.488-2.953-3.535-2.8-6.283-7-13.168-12.352-17.762-2.9-2.484-6.191-4.878-9.2-5.506-2.477-.517-4.579.4-7.728,1.345-1.78.536-5.616-.638-7.108.4-1.088.763-2.022.714-2.893,1.729-3.96,4.622-4.042,13.355-5.776,19.767a46.4,46.4,0,0,1-3.988,10.288Z" transform="translate(-2534.362 -515.024)" fill="#fddab1" fill-rule="evenodd"/>
      <path id="Trazado_185019" data-name="Trazado 185019" d="M1969.995,389.439s-3.689,1.4-5.26,2.07a35.777,35.777,0,0,1-7.821,2.061,59.848,59.848,0,0,0-10.272,3.113c-2.332.878-6.095,5.423-7.118,7.993-1.633,4.076-1.142,10.161-.622,14.323.5,4,2.067,10.93,2.067,10.93s3.736,2.128,4.682,2.445c3.678,1.226,10.017,1.448,13.537,1.57s8.651-.081,8.651-.081,1.33,12.475,1.757,16.743c1.488,14.894,2.265,30.315.4,45.243a122.333,122.333,0,0,1-2.816,14.277c-.278,1.1-.985,5.275-.985,5.275s75.912.847,92.031.28c1.865-.066,2.912-.113,2.912-.113l.045-8.572s.459-7.751.908-11.551a202.375,202.375,0,0,1,8.443-39.812c2.74-8.221,6.079-16.442,8.445-24.732,1.021-3.561,2.458-4.436,2.458-4.436s.9-13.373.706-17.612c-.235-5.217-1.5-10.43-2.677-12.59a16.117,16.117,0,0,0-3.768-4.854c-5.023-3.546-13.072-4.1-18.446-5.634-1.9-.544-7.424-2.163-7.424-2.163a56.105,56.105,0,0,1-2.918,9.668,55.2,55.2,0,0,1-3.853,7.073c-3.733,5.606-4.536,1.688-10.125,5.411-1.971,1.316-5.706,4.308-5.706,4.308a80.386,80.386,0,0,1-9.621,2.315c-3.644.367-12.317-.55-12.317-.55s-7.985-6.441-12.978-9.289c-3.135-1.8-5.973-4.391-9.042-6.233a70.38,70.38,0,0,0-10.055-4.425A28.716,28.716,0,0,1,1969.995,389.439Z" transform="translate(-2509.964 -561.451)" fill="#a9f73f" fill-rule="evenodd"/>
      <path id="Trazado_185020" data-name="Trazado 185020" d="M1988.76,381.613s-2.79,4.333-3.56,5.563c-2.073,3.323-3.589,6.089-5.754,9.337a14.2,14.2,0,0,0-2.015,8.181c.808,5.67,6.321,8.981,8.817,13.968.56,1.126.567,5.151.07,6.389-.379.953-1.942,2.578-1.532,3.325s4.448-2.54,4.448-2.54-1.724,5.8-1.793,6.462c-.234,2.1-.612,4.8.545,6.726a24.773,24.773,0,0,0,2.2,3.516c3.4,4.241,7.815,8.295,10.3,13.257,2.442,4.89,1.042,10.049,2.493,15.129.457,1.592,1.073,4.232,2,5.578a12.172,12.172,0,0,0,5.876,3.671,25.468,25.468,0,0,1-2.285-4.368c-.386-1.389.428-4.312.7-4.986,1.354-3.368,5.1-9.289,6.766-14.847a37.551,37.551,0,0,0,1-15.871c-.814-5.027-2.825-8.99-4.855-13.47-1.378-3.024-3.714-5.961-4.526-9.2-1.6-6.41-2.827-12.49-5.456-18.405a19.011,19.011,0,0,0-1.405-3.116,79.891,79.891,0,0,0-8.581-9.829A42.843,42.843,0,0,1,1988.76,381.613Z" transform="translate(-2524.377 -560.711)" fill="#b26001" fill-rule="evenodd"/>
      <path id="Trazado_185021" data-name="Trazado 185021" d="M1942.721,403.916s.142-.655.867,6.523c.374,3.664,1.3,7.581,1.66,11.241.534,5.482,1.1,12.7,1.635,18.177,1.258,12.8.2,23.983,5.407,35.824,1.343,3.051,6.425,9.439,9.023,11.664,3.021,2.588,6.459,2.109,9.525.356,5.043-2.884,10.805-8.2,13.417-13.1,5.6-10.5,8.274-20.875,10.61-32.547,1.391-6.948,4.178-15.909,5.521-22.866,1.8-9.264,4.02-20.69,5.572-29.989,1.077-6.491.2-14.872-1.032-21.46-1.574-8.407-8.179-14.817-11.713-22.387a98.932,98.932,0,0,1-5.185-12.154c-1.2-3.823-1.922-7.806-3.263-11.565-.645-1.8-1.675-5.51-1.675-5.51a15.2,15.2,0,0,0-1.181-2.485c-.792-1.164-2.111-1.506-2.572-1.048-1.087,1.076-.627,7.24-.627,7.24l-2.19-3.4a1.747,1.747,0,0,0-2.523,1.6c-.231,2.283.332,5.581.542,8.176a89.252,89.252,0,0,1,.27,10.776c-.12,3.255.138,5.478-.1,7.435-.3,2.455-1.542,7.094-.469,9.39,1.166,2.5,3.194,4.1,4.892,6.225,1.306,1.631,2.1,3.557,3.409,5.188,2.54,3.173,6.8,8.494,7.56,12.665.7,3.834.125,6.566-.96,10.046a186.652,186.652,0,0,1-7.837,21.018c-1.534,3.14-3.24,7.6-4.6,10.833-.666,1.577-4.934,9.633-4.934,9.633a42.314,42.314,0,0,1-.636-4.885c0-1.416-.779-8.354-1.007-10.954s-.774-6.025-.774-6.025-2.251.067-2.581.067c-1.606,0-4.055.129-5.624.038-4.195-.246-7.106-.173-11.224-1A49.678,49.678,0,0,1,1942.721,403.916Z" transform="translate(-2511.561 -535.102)" fill="#fddab1" fill-rule="evenodd"/>
      <path id="Trazado_185022" data-name="Trazado 185022" d="M2075.814,353.677c1.763-1.644-.423-5.6-.075-8.006,1.129-7.92,3.32-15.667,4.445-23.572a40.731,40.731,0,0,1,1.186-6.821c.16-.481.254-1.587.594-1.927.551-.548.9,1.314,1.038,2.077.475,2.542.955,5.222,1.632,7.709.043.156.5,2.038.89,1.78a1.907,1.907,0,0,0,.659-.964c1.066-3.191.854-9.819.854-9.819s-3.169-6.034-4.331-8.935a29.461,29.461,0,0,1-1.778-4.449,9.707,9.707,0,0,1,.086-4.77c.213-1.07.728-2.462,1.96-1.893,1.074.5,1.687-1.241,2.286-.794a5.324,5.324,0,0,1,1.948,1.41,27.873,27.873,0,0,1,2.5,4.745s2.047-2.165,2.672-1.541c1.332,1.334,1.952,5.058,2.812,8.436.437,1.719,1.729,4.707,2.283,6.8a15.2,15.2,0,0,1,.609,4.212s2.941-4.478,4.047-2.821a6.293,6.293,0,0,1,.428,1.244,5.59,5.59,0,0,1-.3,2.292c-.727,2.89-1.877,5.725-2.646,8.621-2.442,9.16-5.613,18.058-7.266,27.428-2.284,12.933,4.5,25.667,7.412,37.806.556,2.31,6.414,16.743,6.414,16.743l1.412-12.237s5.329.443,7.162.372c4.13-.161,7.463-.183,10.954-1.229,1.932-.582,6.192-1.849,6.192-1.849s-.288,4.347-.409,9.065c-.145,5.476-.813,11.961-1.4,17.394-.473,4.429-1.154,10.093-1.681,14.165-1.337,10.24-3.066,18.18-8.1,28.23a31.849,31.849,0,0,1-10.832,12.1c-1.063.742-3.018.513-4.283.806-2.947.678-5.973-1.888-7.807-4.095-4-4.8-5.359-10.863-7.463-16.723-2.988-8.286-4.266-18.129-5.466-26.825-2.171-15.733-3.559-29.27-5.654-44.993-.988-7.407-2.892-22.107-2.892-22.107S2074.41,354.985,2075.814,353.677Z" transform="translate(-2560.577 -528.009)" fill="#fddab1" fill-rule="evenodd"/>
      <g id="Grupo_125042" data-name="Grupo 125042" transform="translate(-524.91 -221.723)">
        <path id="Trazado_185047" data-name="Trazado 185047" d="M2014.836,315.084h-.042c-.413-.035-1.555-.12-1.856-.125a.5.5,0,0,1,.01-1h.008c.39.007,1.857.123,1.923.129a.5.5,0,0,1-.042,1Z" transform="translate(-2012.446 -313.959)" fill="#12263f"/>
      </g>
      <g id="Grupo_125043" data-name="Grupo 125043" transform="translate(-523.953 -220.262)">
        <path id="Trazado_185048" data-name="Trazado 185048" d="M2014.458,317.7a.5.5,0,0,1-.106-.988l1.863-.416a.5.5,0,0,1,.221.974l-1.863.419A.743.743,0,0,1,2014.458,317.7Z" transform="translate(-2013.964 -316.279)" fill="#12263f"/>
      </g>
      <g id="Grupo_125044" data-name="Grupo 125044" transform="translate(-486.675 -230.864)">
        <path id="Trazado_185049" data-name="Trazado 185049" d="M2073.633,301.286a.49.49,0,0,1-.416-.222.5.5,0,0,1,.135-.694,15.923,15.923,0,0,1,1.835-.881.5.5,0,1,1,.383.924,15.377,15.377,0,0,0-1.661.787A.484.484,0,0,1,2073.633,301.286Z" transform="translate(-2073.132 -299.451)" fill="#12263f"/>
      </g>
      <g id="Grupo_125045" data-name="Grupo 125045" transform="translate(-485.817 -229.185)">
        <path id="Trazado_185050" data-name="Trazado 185050" d="M2074.992,303.31a.5.5,0,0,1-.053-1l1.817-.192a.5.5,0,0,1,.1,1l-1.815.19C2075.031,303.306,2075.01,303.31,2074.992,303.31Z" transform="translate(-2074.493 -302.117)" fill="#12263f"/>
      </g>
      <g id="Grupo_125060" data-name="Grupo 125060" transform="translate(-535.18 -206.067)">
        <path id="Trazado_185064" data-name="Trazado 185064" d="M2020.6,370.813a.492.492,0,0,1-.356-.152,56.147,56.147,0,0,0-7.376-5.859c-2.647-1.89-5.144-3.674-6.262-5.11-.244-.314-.539-.683-.865-1.089a35.6,35.6,0,0,1-4.131-5.89,11.317,11.317,0,0,1-.871-5.622c.017-.793.035-1.692,0-2.777-.118-3.877-.8-4.151-1.663-4.5-.112.03-.279.264-.52,1.152l-.043.159c-.634,2.214-1.756,11.285-1.247,13.069a19.253,19.253,0,0,0,2.5,5.026c.422.672.858,1.365,1.269,2.1l.55.982a34.015,34.015,0,0,0,2.952,4.725.5.5,0,0,1-.076.7.5.5,0,0,1-.7-.078,34.99,34.99,0,0,1-3.048-4.863l-.545-.977c-.4-.719-.833-1.4-1.246-2.062a20,20,0,0,1-2.618-5.282c-.6-2.113.638-11.489,1.248-13.619l.04-.146c.207-.754.452-1.511,1.023-1.794a.983.983,0,0,1,.832-.025c1.492.6,2.177,1.517,2.293,5.4.035,1.107.014,2.019,0,2.825a10.4,10.4,0,0,0,.787,5.2,34.841,34.841,0,0,0,3.995,5.67c.329.41.63.781.877,1.1,1.025,1.32,3.466,3.063,6.05,4.909a57.1,57.1,0,0,1,7.514,5.978.5.5,0,0,1-.011.707A.5.5,0,0,1,2020.6,370.813Z" transform="translate(-1996.145 -338.808)" fill="#12263f"/>
      </g>
      <g id="Grupo_125061" data-name="Grupo 125061" transform="translate(-533.26 -223.302)">
        <path id="Trazado_185065" data-name="Trazado 185065" d="M2005.691,346.38a.5.5,0,0,1-.481-.381c-.406-1.617-.433-5.411-.457-9.427-.02-2.469-.035-5.018-.149-6.876-.294-4.668-.347-5.508-.952-12.1-.374-4.056-1.932-5.136-2.7-5.141h-.006a.643.643,0,0,0-.691.575,71.134,71.134,0,0,0,.123,7.228l.047,1.062c.117,2.639.13,5.144.13,7.458a.5.5,0,1,1-1,0c0-2.3-.018-4.793-.131-7.413l-.045-1.06a69.306,69.306,0,0,1-.119-7.377,1.641,1.641,0,0,1,1.684-1.47h.012c1.45.006,3.285,1.6,3.7,6.049.6,6.607.654,7.45.949,12.131.117,1.886.138,4.451.153,6.933.025,3.781.052,7.691.427,9.19a.5.5,0,0,1-.363.605A.434.434,0,0,1,2005.691,346.38Z" transform="translate(-1999.192 -311.453)" fill="#12263f"/>
      </g>
      <g id="Grupo_125062" data-name="Grupo 125062" transform="translate(-560.077 -219.358)">
        <path id="Trazado_185066" data-name="Trazado 185066" d="M1957.1,470.049a.5.5,0,0,1-.43-.243c-.287-.479.951-7.136,3.187-11.839a92.832,92.832,0,0,1,7.5-12.152,139.218,139.218,0,0,0,11.266-18.611c6.863-14.172,12.668-28.591,15.153-37.633a25.978,25.978,0,0,0,1.035-9.635c-1.281-6.133-7.075-13-11.3-18.02-2.434-2.886-4.192-4.975-4.531-6.214a16.128,16.128,0,0,1,.093-6.854c.13-.777.25-1.506.286-2.111.162-2.715.174-4.712.174-7.238,0-1.085.012-2.117.029-3.135.036-2.62.07-5.094-.14-8.151-.092-1.321-.286-2.61-.458-3.747-.409-2.708-.732-4.846.4-6.123a1.7,1.7,0,0,1,1.833-.551c1.536.452,3,2.829,3.41,5.525a.5.5,0,1,1-.987.153c-.375-2.457-1.7-4.425-2.7-4.722a.717.717,0,0,0-.8.258c-.823.926-.533,2.86-.166,5.311.177,1.155.375,2.465.469,3.824.213,3.1.178,5.6.141,8.237-.012,1.013-.029,2.039-.029,3.119,0,2.543-.012,4.556-.17,7.3-.041.652-.165,1.411-.3,2.214a15.133,15.133,0,0,0-.113,6.424c.278,1.028,2.157,3.255,4.332,5.834,4.292,5.1,10.184,12.082,11.513,18.459a27.032,27.032,0,0,1-1.049,10.107c-2.5,9.1-8.327,23.583-15.216,37.8a140.3,140.3,0,0,1-11.34,18.744,92.429,92.429,0,0,0-7.42,12.01,39.978,39.978,0,0,0-3.157,11.133.52.52,0,0,1-.246.453A.507.507,0,0,1,1957.1,470.049Z" transform="translate(-1956.628 -317.714)" fill="#12263f"/>
      </g>
      <g id="Grupo_125063" data-name="Grupo 125063" transform="translate(-534.276 -188.709)">
        <path id="Trazado_185067" data-name="Trazado 185067" d="M1999.276,376.195a.5.5,0,0,1-.439-.261c-.793-1.463-.959-4.389-1.087-6.74-.052-.911-.1-1.7-.165-2.273a.5.5,0,1,1,.991-.12c.077.605.121,1.409.171,2.339.116,2.133.279,5.054.971,6.318a.5.5,0,0,1-.2.678A.522.522,0,0,1,1999.276,376.195Z" transform="translate(-1997.581 -366.359)" fill="#12263f"/>
      </g>
      <g id="Grupo_125064" data-name="Grupo 125064" transform="translate(-526.247 -204.167)">
        <path id="Trazado_185068" data-name="Trazado 185068" d="M2012.544,357.141a.5.5,0,0,1-.5-.5c0-1.295-.435-4.258-.859-7.126a69.334,69.334,0,0,1-.863-7.187.5.5,0,1,1,.995,0c0,1.27.435,4.2.856,7.043a70.594,70.594,0,0,1,.869,7.271A.5.5,0,0,1,2012.544,357.141Z" transform="translate(-2010.324 -341.825)" fill="#12263f"/>
      </g>
      <g id="Grupo_125065" data-name="Grupo 125065" transform="translate(-558.391 -196.385)">
        <path id="Trazado_185069" data-name="Trazado 185069" d="M1971.915,505.105c-4.672,0-8.153-5.207-11.01-9.487-.521-.776-1.02-1.527-1.509-2.213a.5.5,0,0,1,.818-.578c.487.691.994,1.453,1.518,2.237,3.063,4.58,6.873,10.282,11.84,8.787,7.685-2.305,15.254-10.687,18.135-17.459,2.089-4.892,4.651-12.933,7.418-23.262,6.224-23.215,11.72-52.221,12.087-55.181.15-1.171.3-2.294.442-3.354a53.79,53.79,0,0,0,.754-8.325c-.036-.644.007-1.535.049-2.565a33.666,33.666,0,0,0-.135-6.335,27.433,27.433,0,0,0-2.424-6.7c-.188-.4-.361-.754-.493-1.054a4.276,4.276,0,0,1-.337-1.561c-.062-.912-.139-1.948-2.174-4.584a48.105,48.105,0,0,0-3.964-4.432,19.066,19.066,0,0,1-3.5-4.281,34.628,34.628,0,0,1-1.958-5.1c-.449-1.347-.953-2.874-1.66-4.813a.5.5,0,1,1,.937-.346c.719,1.955,1.225,3.491,1.672,4.844a33.928,33.928,0,0,0,1.9,4.957,17.977,17.977,0,0,0,3.32,4.037,50.09,50.09,0,0,1,4.041,4.522c2.222,2.873,2.31,4.123,2.378,5.124a3.311,3.311,0,0,0,.254,1.223c.133.3.3.646.481,1.036a28.216,28.216,0,0,1,2.511,6.964,33.842,33.842,0,0,1,.145,6.537c-.039,1.008-.079,1.875-.05,2.479a54.5,54.5,0,0,1-.759,8.5c-.144,1.061-.292,2.177-.435,3.349-.375,2.971-5.888,32.055-12.119,55.318-2.785,10.368-5.36,18.455-7.46,23.393-2.973,6.984-10.809,15.633-18.771,18.025A6.759,6.759,0,0,1,1971.915,505.105Z" transform="translate(-1959.305 -354.176)" fill="#12263f"/>
      </g>
      <g id="Grupo_125066" data-name="Grupo 125066" transform="translate(-572 -172.345)">
        <path id="Trazado_185070" data-name="Trazado 185070" d="M1950.124,504.749a.506.506,0,0,1-.452-.28c-1.392-2.861-1.765-3.751-2.938-9.4-.719-3.472-1.282-11.484-1.934-20.756-.41-5.8-.833-11.8-1.34-17.382-.664-7.31-2.479-19.579-4.418-29.836-1.854-9.826-2.689-19.678,3.719-25.2,4.2-3.621,8.469-4.533,13.409-5.586a62.91,62.91,0,0,0,13.077-3.937.5.5,0,0,1,.656.258.5.5,0,0,1-.257.66,63.408,63.408,0,0,1-13.266,4c-5.008,1.069-8.961,1.911-12.963,5.364-6.028,5.193-5.188,14.73-3.39,24.262,1.941,10.284,3.763,22.59,4.433,29.928.5,5.6.927,11.6,1.336,17.4.645,9.236,1.209,17.217,1.914,20.62,1.149,5.534,1.513,6.4,2.865,9.167a.5.5,0,0,1-.232.668A.492.492,0,0,1,1950.124,504.749Z" transform="translate(-1937.705 -392.332)" fill="#12263f"/>
      </g>
      <g id="Grupo_125067" data-name="Grupo 125067" transform="translate(-476.631 -214.418)">
        <path id="Trazado_185071" data-name="Trazado 185071" d="M2099.814,356.64a.635.635,0,0,1-.156-.024.5.5,0,0,1-.318-.633c.43-1.286,2.444-7.3,2.949-8.8a116.5,116.5,0,0,0,3.167-12.193l.324-1.49c.1-.421.265-.988.464-1.642.471-1.582,1.356-4.519.8-5.2-.028-.036-.086-.113-.333-.1-1.822.136-4.036,4.2-5.934,10.877l-.027.1a28.291,28.291,0,0,1-2.7,6.58,51.738,51.738,0,0,1-4.192,5.424,36.772,36.772,0,0,0-3.859,5.085.5.5,0,1,1-.865-.5,37.935,37.935,0,0,1,3.961-5.228,51.653,51.653,0,0,0,4.118-5.317,27.765,27.765,0,0,0,2.571-6.315l.031-.093c1.468-5.172,3.841-11.377,6.822-11.6a1.307,1.307,0,0,1,1.183.47c.815,1.015.227,3.271-.624,6.118-.195.634-.358,1.185-.443,1.572l-.327,1.486a118.384,118.384,0,0,1-3.195,12.3c-.5,1.5-2.521,7.509-2.948,8.794A.5.5,0,0,1,2099.814,356.64Z" transform="translate(-2089.073 -325.555)" fill="#12263f"/>
      </g>
      <g id="Grupo_125068" data-name="Grupo 125068" transform="translate(-472.353 -230.694)">
        <path id="Trazado_185072" data-name="Trazado 185072" d="M2096.363,335.761a.41.41,0,0,1-.122-.016.5.5,0,0,1-.362-.607,31.908,31.908,0,0,1,1.364-3.963,24.828,24.828,0,0,0,1.553-4.921,34.739,34.739,0,0,0,.011-10.418c-.153-1.037-.44-2.423-.745-3.892-.4-1.9-.844-4.061-1.076-5.853-.3-2.309-.159-4.357.339-4.98.867-1.077,1.666-1.524,2.439-1.356.983.212,1.712,1.351,2.293,3.594,1.077,4.149,1.6,6.132,2.677,9.631l.146.459c.634,2.027,1.692,5.418,1.084,7.244a.5.5,0,1,1-.947-.316c.507-1.521-.533-4.842-1.091-6.631l-.147-.464c-1.083-3.516-1.6-5.507-2.687-9.671-.628-2.425-1.286-2.813-1.535-2.865-.355-.076-.871.28-1.451,1-.147.2-.465,1.621-.13,4.23.227,1.755.669,3.891,1.065,5.777.3,1.484.6,2.884.752,3.95a35.942,35.942,0,0,1-.011,10.729,25.683,25.683,0,0,1-1.609,5.121,30.983,30.983,0,0,0-1.326,3.841A.5.5,0,0,1,2096.363,335.761Z" transform="translate(-2095.864 -299.721)" fill="#12263f"/>
      </g>
      <g id="Grupo_125069" data-name="Grupo 125069" transform="translate(-480.053 -234.269)">
        <path id="Trazado_185073" data-name="Trazado 185073" d="M2090.986,329.877a.491.491,0,0,1-.108-.01.5.5,0,0,1-.381-.6c.164-.747.356-1.492.549-2.223a19.405,19.405,0,0,0,.861-4.913,23.041,23.041,0,0,0-1.706-6.323c-.879-2.2-1.8-4.3-2.692-6.329-.954-2.171-1.853-4.217-2.543-6.045-.274-.726-1.632-4.492-1.258-7.108a2.981,2.981,0,0,1,1.194-2.034,1.586,1.586,0,0,1,1.387-.154c1.126.375,2.021,2.409,3.268,5.473.348.856.677,1.662.96,2.252.4.815,1.05,2.1,1.717,3.42,1.413,2.784,2.28,4.5,2.41,4.9a.5.5,0,0,1-.949.316c-.118-.357-1.358-2.8-2.354-4.766-.669-1.324-1.324-2.616-1.723-3.436-.3-.618-.636-1.441-.99-2.315-.75-1.848-1.883-4.642-2.656-4.9a.6.6,0,0,0-.543.057,2.021,2.021,0,0,0-.733,1.323c-.263,1.839.482,4.713,1.206,6.612.681,1.8,1.575,3.837,2.519,6,.9,2.04,1.823,4.151,2.708,6.36a25.242,25.242,0,0,1,1.778,6.671,20.023,20.023,0,0,1-.895,5.187c-.187.72-.376,1.455-.54,2.193A.5.5,0,0,1,2090.986,329.877Z" transform="translate(-2083.643 -294.047)" fill="#12263f"/>
      </g>
      <g id="Grupo_125070" data-name="Grupo 125070" transform="translate(-477.494 -235.285)">
        <path id="Trazado_185074" data-name="Trazado 185074" d="M2094.375,300.1a.5.5,0,0,1-.446-.275c-.193-.378-.375-.769-.565-1.17a16.656,16.656,0,0,0-2.828-4.6,1.617,1.617,0,0,0-1.209-.611c-.251.042-.479.264-.68.658a.5.5,0,0,1-.891-.449,1.958,1.958,0,0,1,1.413-1.2,2.492,2.492,0,0,1,2.074.893,17.133,17.133,0,0,1,3.021,4.877c.188.394.373.779.558,1.153a.5.5,0,0,1-.223.668A.468.468,0,0,1,2094.375,300.1Z" transform="translate(-2087.703 -292.434)" fill="#12263f"/>
      </g>
      <g id="Grupo_125071" data-name="Grupo 125071" transform="translate(-485.419 -189.187)">
        <path id="Trazado_185075" data-name="Trazado 185075" d="M2076.333,379.549a.5.5,0,0,1-.474-.343c-1.142-3.436-.95-7.892.579-13.242a.5.5,0,1,1,.961.277c-1.469,5.151-1.67,9.407-.592,12.653a.5.5,0,0,1-.312.628A.51.51,0,0,1,2076.333,379.549Z" transform="translate(-2075.125 -365.601)" fill="#12263f"/>
      </g>
      <g id="Grupo_125072" data-name="Grupo 125072" transform="translate(-485.29 -182.558)">
        <path id="Trazado_185076" data-name="Trazado 185076" d="M2104.775,506.941h-.128a9.853,9.853,0,0,1-7.922-4.088,25.413,25.413,0,0,1-3.962-7.835c-.374-1.058-.764-2.147-1.262-3.306-1.673-3.876-4.027-13.039-5.853-22.805-1.466-7.793-2.508-17.455-3.512-26.8-.549-5.059-1.065-9.839-1.621-14.087-.626-4.78-1.464-10.364-2.269-15.764-1.62-10.825-3.15-21.051-2.885-23.925.242-2.656,1.578-5.066,2.871-7.4a27.062,27.062,0,0,0,2.144-4.465.5.5,0,1,1,.948.316,28.626,28.626,0,0,1-2.217,4.635c-1.247,2.242-2.526,4.557-2.753,7-.25,2.751,1.268,12.923,2.877,23.688.812,5.4,1.648,10.992,2.275,15.782.563,4.257,1.076,9.039,1.623,14.1,1.006,9.329,2.046,18.974,3.5,26.729,1.789,9.548,4.175,18.838,5.792,22.593.516,1.188.909,2.3,1.29,3.368a24.647,24.647,0,0,0,3.816,7.564,8.875,8.875,0,0,0,7.14,3.693h.117a12.376,12.376,0,0,0,9.309-4.6c4.71-5.881,7.5-10.278,9.7-17.983a260.713,260.713,0,0,0,5.592-30.183c.351-3.224.719-8.051,1.076-12.713.249-3.252.486-6.324.7-8.732a.5.5,0,0,1,.993.091c-.214,2.4-.448,5.47-.7,8.714-.352,4.675-.725,9.505-1.08,12.748a262.632,262.632,0,0,1-5.622,30.348c-2.249,7.868-5.1,12.349-9.885,18.336A13.434,13.434,0,0,1,2104.775,506.941Z" transform="translate(-2075.33 -376.122)" fill="#12263f"/>
      </g>
      <g id="Grupo_125073" data-name="Grupo 125073" transform="translate(-469.317 -181.832)">
        <path id="Trazado_185077" data-name="Trazado 185077" d="M2131.347,481.678a.5.5,0,0,1-.5-.476,34.183,34.183,0,0,0-2.066-11.212,73.57,73.57,0,0,0-4.736-9.443l-.626-1.113c-2.855-5.135-10.685-24.817-11.71-27.694-2.855-7.99-10.221-31.022-10.942-37.508-.345-3.121.309-9.819,2.233-16.595a.5.5,0,0,1,.617-.345.5.5,0,0,1,.344.617c-1.886,6.649-2.537,13.191-2.2,16.21.68,6.142,7.9,28.911,10.887,37.285,1.023,2.865,8.813,22.449,11.646,27.548l.619,1.107a73.6,73.6,0,0,1,4.812,9.6,35.631,35.631,0,0,1,2.121,11.5.5.5,0,0,1-.479.521Z" transform="translate(-2100.682 -377.273)" fill="#12263f"/>
      </g>
      <g id="Grupo_125074" data-name="Grupo 125074" transform="translate(-527.969 -222.856)">
        <path id="Trazado_185078" data-name="Trazado 185078" d="M2037.553,354.035c-5.5,0-12.159-2.887-18.024-8.009-6.958-6.079-11.4-17.2-11.918-18.99a.5.5,0,1,1,.957-.282c.513,1.75,4.841,12.6,11.619,18.517,7.128,6.225,15.4,9.057,21.069,7.22,6.321-2.049,10.158-6.666,13.678-16.474,2.56-7.126,3.747-16.707,2.888-23.295a.5.5,0,1,1,.988-.129c.88,6.728-.326,16.5-2.933,23.763-3.644,10.137-7.656,14.929-14.31,17.087A13.081,13.081,0,0,1,2037.553,354.035Z" transform="translate(-2007.59 -312.161)" fill="#12263f"/>
      </g>
      <g id="Grupo_125075" data-name="Grupo 125075" transform="translate(-503.993 -225.997)">
        <path id="Trazado_185079" data-name="Trazado 185079" d="M2049.694,322.23a.5.5,0,0,1-.353-.854,3.5,3.5,0,0,0,1.007-3.366,6.723,6.723,0,0,0-1.84-2.167,8.426,8.426,0,0,1-2.325-2.832c-.774-1.99-.674-3.06.037-5.48a.5.5,0,0,1,.959.283c-.7,2.367-.709,3.179-.061,4.831a7.664,7.664,0,0,0,2.07,2.464,7.3,7.3,0,0,1,2.1,2.562,4.458,4.458,0,0,1-1.241,4.41A.493.493,0,0,1,2049.694,322.23Z" transform="translate(-2045.644 -307.176)" fill="#12263f"/>
      </g>
      <g id="Grupo_125076" data-name="Grupo 125076" transform="translate(-497.805 -233.876)">
        <path id="Trazado_185080" data-name="Trazado 185080" d="M2057.287,298.755a5.963,5.963,0,0,1-1.441-.2.5.5,0,1,1,.24-.969,2.964,2.964,0,0,0,3.392-.921,7.671,7.671,0,0,1,3.385-1.978.5.5,0,0,1,.267.965,6.72,6.72,0,0,0-2.979,1.753A3.91,3.91,0,0,1,2057.287,298.755Z" transform="translate(-2055.466 -294.67)" fill="#12263f"/>
      </g>
      <g id="Grupo_125077" data-name="Grupo 125077" transform="translate(-522.245 -227.639)">
        <path id="Trazado_185081" data-name="Trazado 185081" d="M2022.014,306.866a8.949,8.949,0,0,1-1.328-.135,7.454,7.454,0,0,0-3.378.086.5.5,0,0,1-.268-.965,8.5,8.5,0,0,1,3.795-.11c1.343.2,2.16.32,3.319-1a.5.5,0,0,1,.752.655A3.615,3.615,0,0,1,2022.014,306.866Z" transform="translate(-2016.675 -304.57)" fill="#12263f"/>
      </g>
      <g id="Grupo_125078" data-name="Grupo 125078" transform="translate(-513.973 -228.139)">
        <path id="Trazado_185082" data-name="Trazado 185082" d="M2030.3,306.174a.5.5,0,0,1-.293-.905,2.428,2.428,0,0,0,.819-1.071.5.5,0,0,1,.571-.415.5.5,0,0,1,.413.571,3.23,3.23,0,0,1-1.217,1.724A.5.5,0,0,1,2030.3,306.174Z" transform="translate(-2029.804 -303.777)" fill="#12263f"/>
      </g>
      <g id="Grupo_125079" data-name="Grupo 125079" transform="translate(-504.618 -201.249)">
        <path id="Trazado_185083" data-name="Trazado 185083" d="M2045.155,349.7a.5.5,0,0,1-.236-.941,7.3,7.3,0,0,1,4.114-.667,7.677,7.677,0,0,0,1.834-.043,8.666,8.666,0,0,0,2-.735,7.1,7.1,0,0,1,3.119-.859.5.5,0,1,1,0,1,6.189,6.189,0,0,0-2.7.767,9.456,9.456,0,0,1-2.229.8,8.209,8.209,0,0,1-2.082.065,6.345,6.345,0,0,0-3.591.55A.513.513,0,0,1,2045.155,349.7Z" transform="translate(-2044.652 -346.456)" fill="#12263f"/>
      </g>
      <g id="Grupo_125080" data-name="Grupo 125080" transform="translate(-541.14 -271.125)">
        <path id="Trazado_185084" data-name="Trazado 185084" d="M1987.185,277.325a.5.5,0,0,1-.5-.5c0-12.346,2.318-23.232,6.193-29.117,5.628-8.536,11.836-12.5,18.951-12.133,2.825.147,4.354.942,6.279,3.277,1.374,1.663,3.47,6.614,4.013,10.272a.5.5,0,0,1-.419.566.5.5,0,0,1-.571-.422,26.146,26.146,0,0,0-3.794-9.78c-1.736-2.1-3.033-2.782-5.563-2.913-6.737-.343-12.643,3.468-18.06,11.683-3.773,5.73-6.029,16.408-6.029,28.567A.5.5,0,0,1,1987.185,277.325Z" transform="translate(-1986.685 -235.55)" fill="#12263f"/>
      </g>
      <g id="Grupo_125081" data-name="Grupo 125081" transform="translate(-542.013 -225.075)">
        <path id="Trazado_185085" data-name="Trazado 185085" d="M1990.636,329.1a.482.482,0,0,1-.34-.134c-.121-.113-1.18-1.109-1.488-1.462-3.228-3.715-4.132-9.051-3.109-18.421a.491.491,0,0,1,.547-.442.5.5,0,0,1,.447.551c-.989,9.063-.152,14.176,2.871,17.656.232.267,1.1,1.094,1.417,1.389a.5.5,0,0,1-.344.864Z" transform="translate(-1985.299 -308.64)" fill="#12263f"/>
      </g>
      <g id="Grupo_125082" data-name="Grupo 125082" transform="translate(-510.341 -274.455)">
        <path id="Trazado_185086" data-name="Trazado 185086" d="M2081.531,279.548a.689.689,0,0,1-.115-.013.5.5,0,0,1-.365-.6c1.715-7.2-.564-10.8-5.562-18.687-1.412-2.23-3.013-4.758-4.8-7.8-3.654-6.218-14.008-18.666-20.766-20.287-4.395-1.055-10.308-1.682-13.512,1.319a.5.5,0,0,1-.687-.732c2.837-2.652,7.691-3.179,14.433-1.559,7.125,1.71,17.555,14.227,21.392,20.755,1.781,3.03,3.375,5.548,4.785,7.774,5,7.889,7.5,11.848,5.681,19.455A.494.494,0,0,1,2081.531,279.548Z" transform="translate(-2035.569 -230.263)" fill="#12263f"/>
      </g>
      <g id="Grupo_125083" data-name="Grupo 125083" transform="translate(-465.024 -181.073)">
        <path id="Trazado_185087" data-name="Trazado 185087" d="M2143.476,429.877c-.025,0-.049,0-.074,0a.5.5,0,0,1-.426-.562,159.293,159.293,0,0,0,1.126-24.117,31.3,31.3,0,0,0-1.442-7.99c-3.011-8.532-7.756-9.5-16.372-11.27-1.986-.406-4.232-.868-6.666-1.47l-.59-.143a29.968,29.968,0,0,1-11.33-4.94.5.5,0,0,1-.112-.7.508.508,0,0,1,.7-.11,29.062,29.062,0,0,0,10.966,4.776l.608.142c2.407.6,4.646,1.06,6.617,1.462,8.679,1.779,13.919,2.853,17.117,11.915a31.889,31.889,0,0,1,1.493,8.239,160.338,160.338,0,0,1-1.132,24.34A.494.494,0,0,1,2143.476,429.877Z" transform="translate(-2107.497 -378.479)" fill="#12263f"/>
      </g>
      <g id="Grupo_125084" data-name="Grupo 125084" transform="translate(-546.879 -138.896)">
        <path id="Trazado_185088" data-name="Trazado 185088" d="M1984.455,479.276a.5.5,0,0,1-.5-.455c-.128-1.453-.417-4.575-.734-7.976-.443-4.74-.946-10.118-1.116-12.152-.183-2.227-2.887-10.919-4.386-12.418a.5.5,0,0,1,.709-.707c1.785,1.789,4.494,10.879,4.676,13.042.167,2.031.67,7.4,1.114,12.143.318,3.4.608,6.527.737,7.98a.5.5,0,0,1-.456.542Z" transform="translate(-1977.577 -445.422)" fill="#12263f"/>
      </g>
      <g id="Grupo_125085" data-name="Grupo 125085" transform="translate(-454.915 -149.077)">
        <path id="Trazado_185089" data-name="Trazado 185089" d="M2124.041,459.471a.381.381,0,0,1-.088-.012.5.5,0,0,1-.4-.578c.477-2.624.8-6.184,1.113-9.63s.61-6.689,1.032-8.677c.863-4.046,1.928-9.079,3.146-11.071a.5.5,0,1,1,.854.519c-1.123,1.847-2.223,7-3.021,10.762-.41,1.925-.705,5.146-1.016,8.56-.315,3.463-.638,7.049-1.123,9.715A.5.5,0,0,1,2124.041,459.471Z" transform="translate(-2123.542 -429.262)" fill="#12263f"/>
      </g>
      <g id="Grupo_125086" data-name="Grupo 125086" transform="translate(-505.198 -151.715)">
        <path id="Trazado_185090" data-name="Trazado 185090" d="M2052.579,428.388a49.082,49.082,0,0,1-8.434-.723.5.5,0,0,1,.173-.984c7.733,1.353,16.186.738,21.536-1.566a.5.5,0,0,1,.4.921A35.984,35.984,0,0,1,2052.579,428.388Z" transform="translate(-2043.732 -425.075)" fill="#12263f"/>
      </g>
      <g id="Grupo_125087" data-name="Grupo 125087" transform="translate(-468.046 -178.461)">
        <path id="Trazado_185091" data-name="Trazado 185091" d="M2103.2,401.346a.5.5,0,0,1-.391-.811c3.412-4.273,5.866-10.159,7.29-17.507a.5.5,0,0,1,.981.192c-1.455,7.505-3.975,13.538-7.49,17.937A.5.5,0,0,1,2103.2,401.346Z" transform="translate(-2102.698 -382.624)" fill="#12263f"/>
      </g>
      <g id="Grupo_125088" data-name="Grupo 125088" transform="translate(-569.257 -131.826)">
        <path id="Trazado_185092" data-name="Trazado 185092" d="M1961.888,461.529c-6.809,0-15.089-.485-19.633-3.988a.5.5,0,0,1,.613-.792c5.2,4.014,15.907,3.85,22.989,3.741,1.026-.016,1.969-.03,2.809-.03a.5.5,0,0,1,0,1c-.832,0-1.774.014-2.794.03C1964.638,461.508,1963.292,461.529,1961.888,461.529Z" transform="translate(-1942.059 -456.643)" fill="#12263f"/>
      </g>
      <g id="Grupo_125089" data-name="Grupo 125089" transform="translate(-453.191 -134.913)">
        <path id="Trazado_185093" data-name="Trazado 185093" d="M2133.06,455.975a33.674,33.674,0,0,1-6.385-.49.5.5,0,1,1,.207-.978c4.691.987,18.094.519,23.384-2.689a.5.5,0,0,1,.519.853C2146.891,455.033,2139.091,455.975,2133.06,455.975Z" transform="translate(-2126.277 -451.744)" fill="#12263f"/>
      </g>
      <g id="Grupo_125090" data-name="Grupo 125090" transform="translate(-504.074 -257.643)">
        <path id="Trazado_185094" data-name="Trazado 185094" d="M2069.562,279.7a.5.5,0,0,1-.448-.276c-4.855-9.71-10.277-16.165-16.574-19.736a11.779,11.779,0,0,0-6.513-1.736.481.481,0,0,1-.511-.488.5.5,0,0,1,.485-.511,12.821,12.821,0,0,1,7.028,1.864c6.481,3.671,12.034,10.266,16.975,20.159a.491.491,0,0,1-.223.67A.451.451,0,0,1,2069.562,279.7Z" transform="translate(-2045.516 -256.947)" fill="#12263f"/>
      </g>
      <g id="Grupo_125091" data-name="Grupo 125091" transform="translate(-514.775 -259.74)">
        <path id="Trazado_185095" data-name="Trazado 185095" d="M2034.687,257.722a.5.5,0,0,1-.434-.248,6.02,6.02,0,0,0-5.183-2.847.5.5,0,1,1-.072-1,7.019,7.019,0,0,1,6.117,3.342.505.505,0,0,1-.179.684A.481.481,0,0,1,2034.687,257.722Z" transform="translate(-2028.531 -253.619)" fill="#12263f"/>
      </g>
      <g id="Grupo_125092" data-name="Grupo 125092" transform="translate(-528.669 -255.712)">
        <path id="Trazado_185096" data-name="Trazado 185096" d="M2006.982,293.363a.5.5,0,0,1-.31-.108.5.5,0,0,1-.085-.7c3.248-4.123,4.3-10.047,5.411-16.321.3-1.716.621-3.492.984-5.242,1.176-5.643,2.927-9.033,5.341-10.353a5.879,5.879,0,0,1,5.082-.106.5.5,0,0,1,.293.648.5.5,0,0,1-.649.287,4.869,4.869,0,0,0-4.248.05c-2.143,1.172-3.725,4.338-4.838,9.679-.363,1.736-.675,3.5-.98,5.215-1.135,6.4-2.207,12.441-5.607,16.762A.509.509,0,0,1,2006.982,293.363Z" transform="translate(-2006.48 -260.012)" fill="#12263f"/>
      </g>
      <g id="Grupo_125093" data-name="Grupo 125093" transform="translate(-547.46 -179.552)">
        <path id="Trazado_185097" data-name="Trazado 185097" d="M1984.833,427.711a.475.475,0,0,1-.3-.1.5.5,0,0,1-.1-.7,8.422,8.422,0,0,0,.331-9.786,38.324,38.324,0,0,0-2.77-3.373c-2.782-3.151-5.658-6.414-5.313-10.912.293-3.833,1.482-5.981,3.392-9.163.906-1.513,1.942-2.973,2.942-4.382a37.406,37.406,0,0,0,4.767-8.078.5.5,0,0,1,.937.358,38.124,38.124,0,0,1-4.887,8.3c-.99,1.395-2.013,2.838-2.9,4.319-1.833,3.06-2.972,5.117-3.25,8.725-.312,4.076,2.423,7.177,5.072,10.176a40.143,40.143,0,0,1,2.836,3.463,9.428,9.428,0,0,1-.355,10.962A.5.5,0,0,1,1984.833,427.711Z" transform="translate(-1976.655 -380.893)" fill="#12263f"/>
      </g>
      <g id="Grupo_125094" data-name="Grupo 125094" transform="translate(-537.669 -156.644)">
        <path id="Trazado_185098" data-name="Trazado 185098" d="M1995.931,456.843a.494.494,0,0,1-.385-.182,13.284,13.284,0,0,1-2.816-4.9c-1.356-4.178.134-8.565,1.452-12.438l.369-1.1c2.073-6.207,4.645-13.931.955-20.22a.5.5,0,0,1,.863-.505c3.92,6.68,1.265,14.642-.867,21.042l-.373,1.1c-1.267,3.725-2.7,7.947-1.451,11.806a12.272,12.272,0,0,0,2.643,4.579.5.5,0,0,1-.078.7A.475.475,0,0,1,1995.931,456.843Z" transform="translate(-1992.195 -417.252)" fill="#12263f"/>
      </g>
      <g id="Grupo_125095" data-name="Grupo 125095" transform="translate(-516.448 -126.234)">
        <path id="Trazado_185099" data-name="Trazado 185099" d="M2030.538,512.132a.469.469,0,0,1-.2-.043c-3.411-1.5-4.982-4.359-4.306-7.848a32.092,32.092,0,0,1,3.264-7.891,65.8,65.8,0,0,0,3.919-8.737c1.994-5.818,2.982-14.493-.24-21.383a.5.5,0,1,1,.9-.423c3.352,7.159,2.345,16.127.283,22.133a67.113,67.113,0,0,1-3.974,8.865,31.329,31.329,0,0,0-3.172,7.627c-.587,3.034.735,5.428,3.729,6.744a.5.5,0,0,1-.2.956Z" transform="translate(-2025.876 -465.518)" fill="#12263f"/>
      </g>
      <g id="Grupo_125096" data-name="Grupo 125096" transform="translate(-449.415 -54.559)">
        <path id="Trazado_185100" data-name="Trazado 185100" d="M2132.77,588.207a.5.5,0,0,1-.5-.5c0-1.5.142-7.876.142-7.939a.531.531,0,0,1,.51-.488.5.5,0,0,1,.491.512c-.006.062-.143,6.425-.143,7.915A.5.5,0,0,1,2132.77,588.207Z" transform="translate(-2132.27 -579.281)" fill="#a65854"/>
      </g>
      <g id="Grupo_125097" data-name="Grupo 125097" transform="translate(-494.925 -229.218)">
        <path id="Trazado_185101" data-name="Trazado 185101" d="M2060.534,305.127a.5.5,0,0,1,0-1,2.164,2.164,0,0,0,1.325-.578c.165-.117.339-.242.521-.358a7.052,7.052,0,0,1,4.878-.989.5.5,0,0,1,.323.629.5.5,0,0,1-.628.322,6.191,6.191,0,0,0-4.042.889c-.167.1-.321.212-.468.32A3.105,3.105,0,0,1,2060.534,305.127Z" transform="translate(-2060.037 -302.064)" fill="#12263f"/>
      </g>
      <g id="Grupo_125098" data-name="Grupo 125098" transform="translate(-520.466 -222.881)">
        <path id="Trazado_185102" data-name="Trazado 185102" d="M2020,314.16a.5.5,0,0,1-.248-.931,8.688,8.688,0,0,1,5.071-.972c.2.021.391.057.572.09a1.964,1.964,0,0,0,1.517-.168.5.5,0,0,1,.671.21.5.5,0,0,1-.211.679,2.915,2.915,0,0,1-2.158.26c-.155-.026-.317-.055-.5-.075a7.747,7.747,0,0,0-4.463.841A.494.494,0,0,1,2020,314.16Z" transform="translate(-2019.499 -312.121)" fill="#12263f"/>
      </g>
      <g id="Grupo_125099" data-name="Grupo 125099" transform="translate(-476.577 -214.221)">
        <path id="Trazado_185103" data-name="Trazado 185103" d="M2089.656,340.438a.494.494,0,0,1-.222-.052.5.5,0,0,1-.222-.67,19.825,19.825,0,0,0,2.335-6.98,45.594,45.594,0,0,0,.085-4.618c-.011-.592-.02-1.179-.02-1.751a.5.5,0,0,1,1,0c0,.566.009,1.149.016,1.736a46.534,46.534,0,0,1-.089,4.723,20.544,20.544,0,0,1-2.438,7.337A.5.5,0,0,1,2089.656,340.438Z" transform="translate(-2089.16 -325.866)" fill="#12263f"/>
      </g>
      <path id="Trazado_185104" data-name="Trazado 185104" d="M2063.439,304.4a2.331,2.331,0,0,1,1.572-1.318,1.683,1.683,0,0,1,1.9,1.375c-.006.677-2,1.328-3.037,1.443S2063.439,304.4,2063.439,304.4Z" transform="translate(-2556.156 -531.653)" fill="#12263f" fill-rule="evenodd"/>
      <g id="Grupo_125100" data-name="Grupo 125100" transform="translate(-477.423 -215.274)">
        <path id="Trazado_185105" data-name="Trazado 185105" d="M2089.691,338.664c-.01,0-.027,0-.039-.006a.5.5,0,0,1-.459-.537c.519-6.527-.467-12.215-1.031-12.951a.5.5,0,0,1-.346-.477.5.5,0,0,1,.5-.5.73.73,0,0,1,.547.26c1,1.086,1.81,7.64,1.322,13.746A.5.5,0,0,1,2089.691,338.664Zm-1.374-13.471h0Z" transform="translate(-2087.816 -324.196)" fill="#12263f"/>
      </g>
      <path id="Trazado_185106" data-name="Trazado 185106" d="M2023.169,314.172c-.091-.592.659-1.185,1.676-1.321a2.579,2.579,0,0,1,1.821.285,2.066,2.066,0,0,1,.545,1.3,9.339,9.339,0,0,1-2.029.564C2024.166,315.135,2023.263,314.765,2023.169,314.172Z" transform="translate(-2541.32 -535.257)" fill="#12263f" fill-rule="evenodd"/>
      <g id="Grupo_125101" data-name="Grupo 125101" transform="translate(-493.512 -227.527)">
        <path id="Trazado_185107" data-name="Trazado 185107" d="M2062.78,307.3a.5.5,0,0,1-.121-.982,17.361,17.361,0,0,0,2.528-.955,10.14,10.14,0,0,1,1.6-.61.5.5,0,1,1,.2.979,10.664,10.664,0,0,0-1.4.549,18.5,18.5,0,0,1-2.687,1A.42.42,0,0,1,2062.78,307.3Z" transform="translate(-2062.279 -304.748)" fill="#12263f"/>
      </g>
      <g id="Grupo_125102" data-name="Grupo 125102" transform="translate(-519.108 -221.151)">
        <path id="Trazado_185108" data-name="Trazado 185108" d="M2022.153,316.207a.5.5,0,0,1-.191-.963,6.179,6.179,0,0,1,2.028-.181,16.156,16.156,0,0,0,2.928-.185.5.5,0,0,1,.587.4.5.5,0,0,1-.4.583,17.169,17.169,0,0,1-3.113.2,6.991,6.991,0,0,0-1.644.1A.479.479,0,0,1,2022.153,316.207Z" transform="translate(-2021.655 -314.867)" fill="#12263f"/>
      </g>
    </g>
  </g>
</svg>
