<svg xmlns="http://www.w3.org/2000/svg" xmlns:xlink="http://www.w3.org/1999/xlink" width="295" height="236" viewBox="0 0 295 236">
  <defs>
    <clipPath id="clip-path">
      <path id="Rectángulo_37524" data-name="Rectángulo 37524" d="M80,0H295a0,0,0,0,1,0,0V156a80,80,0,0,1-80,80H0a0,0,0,0,1,0,0V80A80,80,0,0,1,80,0Z" transform="translate(915 1784.945)" fill="#2df0da"/>
    </clipPath>
  </defs>
  <g id="Grupo_128813" data-name="Grupo 128813" transform="translate(-915 -1784.945)">
    <path id="Rectángulo_37515" data-name="Rectángulo 37515" d="M80,0H295a0,0,0,0,1,0,0V120a80,80,0,0,1-80,80H0a0,0,0,0,1,0,0V80A80,80,0,0,1,80,0Z" transform="translate(915 1820.945)" fill="#2df0da"/>
    <g id="Enmascarar_grupo_144" data-name="Enmascarar grupo 144" clip-path="url(#clip-path)">
      <g id="Grupo_128379" data-name="Grupo 128379" transform="translate(752.222 1473.785)">
        <g id="Grupo_128252" data-name="Grupo 128252" transform="translate(196.294 318.114)">
          <g id="Grupo_128242" data-name="Grupo 128242" transform="translate(0 0)">
            <g id="Grupo_128216" data-name="Grupo 128216" transform="translate(104.618 28.055)">
              <path id="Trazado_187167" data-name="Trazado 187167" d="M1389.118,598.091c5.7,6.965,16.613,7.743,25.033,5.37,4.263-1.2,4.431-5.684,3.1-5.979-3.259-.722-3.707-3.538-3.826-6.461l-.157-3.831-.018-.476-.2-4.995-.36-8.614-.933-22.663-7.12,22.782-1.21,3.876-4.155,13.316C1397.931,594.715,1391.363,597.152,1389.118,598.091Z" transform="translate(-1389.118 -550.442)" fill="#ffb27d"/>
            </g>
            <g id="Grupo_128217" data-name="Grupo 128217" transform="translate(118.068 58.121)">
              <path id="Trazado_187168" data-name="Trazado 187168" d="M1470.977,733.434a15.812,15.812,0,0,0,10.7,6.682l-.018-.476-.2-4.994C1477.523,734.27,1470.977,733.434,1470.977,733.434Z" transform="translate(-1470.977 -733.434)" fill="#331832"/>
            </g>
            <g id="Grupo_128218" data-name="Grupo 128218" transform="translate(139.841 21.106)">
              <path id="Trazado_187169" data-name="Trazado 187169" d="M1612.036,508.151a29.717,29.717,0,0,1,0,12.432c-1.451,6.916-8.539-10.084-8.539-10.084Z" transform="translate(-1603.497 -508.151)" fill="#331832"/>
            </g>
            <g id="Grupo_128219" data-name="Grupo 128219" transform="translate(105.459 11.204)">
              <ellipse id="Elipse_5306" data-name="Elipse 5306" cx="20.405" cy="24.424" rx="20.405" ry="24.424" transform="translate(0 5.537) rotate(-7.797)" fill="#ffb27d"/>
            </g>
            <g id="Grupo_128220" data-name="Grupo 128220" transform="translate(92.65)">
              <path id="Trazado_187170" data-name="Trazado 187170" d="M1331.873,413.506l9.878-1.017a7.2,7.2,0,0,0,5.334-3.207c2.024-3.144,4.459-4.758,13.674-4.415,11.668.435,19.373-6.468,20.633-12.527,1.287-6.184-4.684-10.376-10.545-7.427s-3.345-4.282-8.98-5.05c-10.531-1.434-12.5,6.622-21.126,6.36-11.305-.344-31.556,8.182-21.952,27.932Z" transform="translate(-1316.278 -379.691)" fill="#12263f"/>
            </g>
            <g id="Grupo_128222" data-name="Grupo 128222" transform="translate(122.42 36.349)">
              <g id="Grupo_128221" data-name="Grupo 128221">
                <path id="Trazado_187171" data-name="Trazado 187171" d="M1502.462,601.72a.41.41,0,0,0-.186-.756,4.489,4.489,0,0,0-4.768,2.693.412.412,0,0,0,.186.551.456.456,0,0,0,.555-.184,7.1,7.1,0,0,1,3.959-2.241A.415.415,0,0,0,1502.462,601.72Z" transform="translate(-1497.467 -600.922)" fill="#080435"/>
              </g>
            </g>
            <g id="Grupo_128223" data-name="Grupo 128223" transform="translate(125.536 40.329)">
              <path id="Trazado_187172" data-name="Trazado 187172" d="M1516.519,627.231c.26.945,1.031,1.56,1.721,1.373a1.586,1.586,0,0,0,.781-2.05c-.26-.945-1.031-1.56-1.721-1.373A1.586,1.586,0,0,0,1516.519,627.231Z" transform="translate(-1516.433 -625.148)" fill="#080435"/>
            </g>
            <g id="Grupo_128225" data-name="Grupo 128225" transform="translate(139.044 34.463)">
              <g id="Grupo_128224" data-name="Grupo 128224">
                <path id="Trazado_187173" data-name="Trazado 187173" d="M1602.9,590.909a.3.3,0,0,0,.223-.2.492.492,0,0,0-.161-.555,2.916,2.916,0,0,0-4.218.475.485.485,0,0,0-.008.574.307.307,0,0,0,.457.061,4.368,4.368,0,0,1,3.5-.4A.276.276,0,0,0,1602.9,590.909Z" transform="translate(-1598.644 -589.444)" fill="#080435"/>
              </g>
            </g>
            <g id="Grupo_128226" data-name="Grupo 128226" transform="translate(139.505 38.528)">
              <path id="Trazado_187174" data-name="Trazado 187174" d="M1601.47,615.789c-.122.972.354,1.832,1.065,1.92s1.386-.628,1.509-1.6-.354-1.832-1.065-1.92S1601.593,614.817,1601.47,615.789Z" transform="translate(-1601.451 -614.181)" fill="#080435"/>
            </g>
            <g id="Grupo_128227" data-name="Grupo 128227" transform="translate(95.161 31.619)">
              <path id="Trazado_187175" data-name="Trazado 187175" d="M1331.561,574.976s6.821,14.609,16.495,15.681c0,0-7.823-11.134,8.665-17.919C1356.721,572.738,1341.583,570.375,1331.561,574.976Z" transform="translate(-1331.561 -572.132)" fill="#12263f"/>
            </g>
            <g id="Grupo_128228" data-name="Grupo 128228" transform="translate(105.104 33.547)">
              <ellipse id="Elipse_5307" data-name="Elipse 5307" cx="3.946" cy="4.431" rx="3.946" ry="4.431" transform="matrix(0.511, -0.859, 0.859, 0.511, 0, 6.782)" fill="#ffb27d"/>
            </g>
            <g id="Grupo_128229" data-name="Grupo 128229" transform="translate(129.832 49.947)">
              <path id="Trazado_187176" data-name="Trazado 187176" d="M1553.235,683.682a35.027,35.027,0,0,1-10.658,3.062s1.893,5.028,7.4,2.822C1553.185,688.283,1553.235,683.682,1553.235,683.682Z" transform="translate(-1542.576 -683.682)" fill="#fff"/>
            </g>
            <g id="Grupo_128230" data-name="Grupo 128230" transform="translate(140.361 7.102)">
              <path id="Trazado_187177" data-name="Trazado 187177" d="M1606.737,437.745l-.077-.264c.125-.036,12.539-3.687,13.054-10.033.146-1.786-.154-2.973-.916-3.632-1.227-1.06-3.473-.538-5.454-.082-.3.07-.6.139-.889.2l-.058-.269c.285-.062.582-.13.885-.2,2.044-.471,4.361-1,5.7.144.833.719,1.163,1.983,1.01,3.865-.219,2.711-2.587,5.35-6.847,7.629A37.172,37.172,0,0,1,1606.737,437.745Z" transform="translate(-1606.66 -422.919)" fill="#fff"/>
            </g>
            <g id="Grupo_128231" data-name="Grupo 128231" transform="translate(112.265 3.337)">
              <path id="Trazado_187178" data-name="Trazado 187178" d="M1439.381,405.729a27.786,27.786,0,0,1-3.725-.255l.036-.274a22.937,22.937,0,0,0,13.6-1.983,15.154,15.154,0,0,0,4.411-3.218l.212.178a15.042,15.042,0,0,1-4.485,3.281A22.066,22.066,0,0,1,1439.381,405.729Z" transform="translate(-1435.656 -399.999)" fill="#fff"/>
            </g>
            <g id="Grupo_128233" data-name="Grupo 128233" transform="translate(43.856 75.823)">
              <g id="Grupo_128232" data-name="Grupo 128232">
                <path id="Trazado_187179" data-name="Trazado 187179" d="M1190,1010.053q-4.881-.173-10.056-.393l-1.382-.06q-3.34-.147-6.807-.31c-.227-.01-.454-.021-.683-.033-5.995-.285-12.3-.612-18.943-.978q-3.946-.217-8.058-.452c-1.059-14.126.852-31.073,2.252-48.152v0c.3-3.62.57-7.248.787-10.854q.029-.491.058-.981c.225-3.938.381-7.85.421-11.7q.009-.693.01-1.384c.012-3.212-.062-6.378-.245-9.48-.133-2.279-.323-4.521-.585-6.723a80.017,80.017,0,0,0-2.359-12.23c-1.045-3.713-1.867-6.557-2.614-8.953s-1.417-4.346-2.157-6.264c-1.58.077-3.277.127-5.073.156-4.025.065-8.536.019-13.318-.106-5.872-.154-12.152-.429-18.433-.77-12.065-.654-24.135-1.553-33.34-2.3-9.684-.787-16.2-1.409-16.2-1.409l-12.259-7.134-4.407-2.565-.244-.142-7.205-4.193L1019.3,866.9a.035.035,0,0,1,.01-.008s0-.006.006-.006a.014.014,0,0,1,.008-.008,79.21,79.21,0,0,1,12.9-8.4,147.015,147.015,0,0,1,42.132-14.665q1.8-.349,3.662-.67l.006,0h.008a.137.137,0,0,1,.029,0c.04-.008.079-.016.12-.021l.06-.011q1.175-.2,2.373-.387l.025,0q.427-.069.858-.133,2.829-.43,5.789-.781a92.373,92.373,0,0,1,9.815-.62h0c2.234-.023,4.479.029,6.721.15q.768.041,1.536.093,1.8.124,3.568.306,3.531.361,6.888.945.52.09,1.038.185a77.661,77.661,0,0,1,25.1,9.5,91.528,91.528,0,0,1,15.4,11.41,49.708,49.708,0,0,1,7.306,8.368q1.086,1.564,2.046,3.21a49.863,49.863,0,0,1,3.543,7.375q.421,1.106.793,2.231c1.863,5.648,4.193,13.143,6.589,21.961l0,.017q.583,2.148,1.17,4.4c.979,3.757,1.961,7.717,2.914,11.849a367.87,367.87,0,0,1,7.174,41.273l.006.029c.722,6.484,1.253,13.085,1.522,19.713A216.153,216.153,0,0,1,1190,1010.053Z" transform="translate(-1019.302 -841.171)" fill="#ccfff9"/>
              </g>
            </g>
            <g id="Grupo_128234" data-name="Grupo 128234" transform="translate(52.037 76.526)">
              <path id="Trazado_187180" data-name="Trazado 187180" d="M1213.37,1012.893c-57.907-2.45-61.125-5.715-143.893-3.6-.929-34.371-1.086-102.314,10.639-134.6,0,0,4.817-20.081,35.862-27.219a55.181,55.181,0,0,1,7.2-1.249c7.406,0,15.637,2.111,21.89,2.111,3.754,0,1.469-3.2,4.836-2.856,21.685,2.346,36.888,11.743,46.441,32.471C1209.929,907.181,1210.238,956.289,1213.37,1012.893Z" transform="translate(-1069.093 -845.451)" fill="#ccfff9"/>
            </g>
            <g id="Grupo_128236" data-name="Grupo 128236" transform="translate(0 101.224)">
              <g id="Grupo_128235" data-name="Grupo 128235">
                <path id="Trazado_187181" data-name="Trazado 187181" d="M821.287,1021.479a20.823,20.823,0,0,0-1.109,2.85c-.335.989-.726,2.2-1.162,3.618-.991,3.212-2.229,7.459-3.63,12.477-2.1,7.515-4.567,16.753-7.132,26.818q-.4,1.57-.8,3.164-.606,2.4-1.214,4.85t-1.226,4.96c-.011.042-.021.085-.031.127-.063.256-.127.512-.189.77v0q-.216.877-.429,1.757-.188.776-.379,1.559c-.115.479-.231.962-.348,1.443-.893,3.717-1.78,7.469-2.648,11.218q-.384,1.654-.762,3.308v.006q-.58,2.532-1.145,5.054v0c-2.33,10.419-4.446,20.606-6.1,29.74l-4.049.108c-7.136.192-14.211.394-21.11.6q-5.318.153-10.481.3l-1.128.033h0l-3.822.108q-.014-1.2-.008-2.425c.014-4.067.167-8.262.45-12.556v0q.1-1.574.231-3.162c.012-.143.023-.285.035-.429.017-.2.033-.4.05-.6q.087-1.039.185-2.082c.681-7.338,1.713-14.888,3.048-22.471v0c1.43-8.115,3.206-16.266,5.275-24.236,4.361-16.809,10.013-32.8,16.416-45.9v0q1.865-3.813,3.808-7.284.993-1.778,2.009-3.455c.269-.444.539-.885.81-1.318q.523-.834,1.049-1.644A62.816,62.816,0,0,1,796.237,996.1a.032.032,0,0,1,.01-.008s0-.006.006-.006v0l.008-.006c1.4-1.168,6.008,1.2,10.835,4.147,1.878,1.147,3.789,2.381,5.556,3.528q.684.445,1.334.951c.185.144.366.291.547.441a22.645,22.645,0,0,1,3.426,3.6v0C821.368,1013.2,822.957,1018.559,821.287,1021.479Z" transform="translate(-752.381 -995.771)" fill="#ccfff9"/>
              </g>
            </g>
            <g id="Grupo_128237" data-name="Grupo 128237" transform="translate(121.093 79.408)">
              <path id="Trazado_187182" data-name="Trazado 187182" d="M1490.557,864.535s9.14-2.974,11.57-.665.642,12.868-3.566,13.807S1486.4,867.083,1490.557,864.535Z" transform="translate(-1489.387 -862.992)" fill="#ff8900"/>
            </g>
            <g id="Grupo_128238" data-name="Grupo 128238" transform="translate(98.906 68.491)">
              <path id="Trazado_187183" data-name="Trazado 187183" d="M1383.076,806.516s-11.931-4.436-14.257-8.872-14.68,5.813-14.466,8.872,22.463,20.038,23.917,17.9S1385.99,809.422,1383.076,806.516Z" transform="translate(-1354.35 -796.547)" fill="#89fff2"/>
            </g>
            <g id="Grupo_128239" data-name="Grupo 128239" transform="translate(127.621 69.198)">
              <path id="Trazado_187184" data-name="Trazado 187184" d="M1529.133,810.113s1.782-4.657.924-7.185c0,0-.567-2.222,1.25-2.069s11.706,7.419,12.579,9.637,1.018,12.62-2.181,13.385-10.911-10.409-11.817-11.515A3.176,3.176,0,0,1,1529.133,810.113Z" transform="translate(-1529.123 -800.851)" fill="#89fff2"/>
            </g>
            <g id="Grupo_128240" data-name="Grupo 128240" transform="translate(123.873 90.01)">
              <path id="Trazado_187185" data-name="Trazado 187185" d="M1544.611,1038.947s-2.014,17.453-14.443,28.066c-.61.519-1.243,1.024-1.9,1.507,0,0-.969-.612-2.5-1.76-5.26-3.949-17.153-14.238-19.138-27.813-1.408-9.628,2.294-50.125,3.292-79.348.5-14.478.329-26.188-1.453-30.012,0,0,0,0,0-.006l.009,0,6.79-2.064s.159.4.453,1.145a.011.011,0,0,0,0,.007c1.459,3.716,6.238,16.052,11.5,31.607C1535.864,985.788,1545.82,1019.959,1544.611,1038.947Z" transform="translate(-1506.312 -927.516)" fill="#ff8900"/>
            </g>
            <g id="Grupo_128241" data-name="Grupo 128241" transform="translate(125.13 88.209)">
              <path id="Trazado_187186" data-name="Trazado 187186" d="M1519.022,922.665c-2.68,0-4.968-2.493-5.065-2.6l.332-.3c.023.026,2.255,2.454,4.735,2.454h.066c2.443-.043,3.911-5.605,3.925-5.661l.433.111c-.062.243-1.571,5.949-4.35,6Z" transform="translate(-1513.957 -916.557)" fill="#331832"/>
            </g>
          </g>
          <g id="Grupo_128251" data-name="Grupo 128251" transform="translate(112.75 24.552)">
            <g id="Grupo_128243" data-name="Grupo 128243" transform="translate(0 2.693)" opacity="0.3">
              <ellipse id="Elipse_5308" data-name="Elipse 5308" cx="8.69" cy="12.699" rx="8.69" ry="12.699" transform="translate(0 3.166) rotate(-10.497)" fill="#fff"/>
            </g>
            <g id="Grupo_128244" data-name="Grupo 128244" transform="translate(22.029 0)" opacity="0.3">
              <ellipse id="Elipse_5309" data-name="Elipse 5309" cx="7.533" cy="12.53" rx="7.533" ry="12.53" transform="translate(0 4.042) rotate(-15.561)" fill="#fff"/>
            </g>
            <g id="Grupo_128246" data-name="Grupo 128246" transform="translate(1.385 2.346)">
              <g id="Grupo_128245" data-name="Grupo 128245">
                <path id="Trazado_187187" data-name="Trazado 187187" d="M1466.446,555.477a.007.007,0,0,0,0-.006,14.62,14.62,0,0,0-.329-1.555v0a15.486,15.486,0,0,0-5.945-9.059c-.029-.021-.058-.039-.086-.058a9.215,9.215,0,0,0-1.357-.727c-.16-.073-.324-.139-.489-.2-.27-.1-.543-.179-.816-.25a6.994,6.994,0,0,0-6.06,1.251,9.7,9.7,0,0,0-2.779,3.389,12.575,12.575,0,0,0-.593,1.351,14.656,14.656,0,0,0-.662,2.417c-.065.343-.117.691-.162,1.045-.013.111-.027.223-.036.335-.042.4-.065.808-.083,1.224-.012.312-.012.627,0,.943a18.245,18.245,0,0,0,.235,2.7c.008.054.018.11.027.163a19.214,19.214,0,0,0,.448,1.982c.1.341.2.677.323,1a15.5,15.5,0,0,0,4.625,7q.335.274.683.516a8.8,8.8,0,0,0,2.954,1.365,7.1,7.1,0,0,0,2.921.123,6.831,6.831,0,0,0,1.938-.635,7.379,7.379,0,0,0,1.061-.641q.069-.046.139-.1a8.956,8.956,0,0,0,1.709-1.694,12.2,12.2,0,0,0,2.115-4.542,17.174,17.174,0,0,0,.492-3.526A18.185,18.185,0,0,0,1466.446,555.477Zm-.581,3.78a15.354,15.354,0,0,1-.471,3.352,11.924,11.924,0,0,1-1.563,3.659s0,0,0,.006l0,0a.193.193,0,0,0-.023.031,9.016,9.016,0,0,1-.77,1.009,7.376,7.376,0,0,1-1.124,1.049l-.019.014a7.154,7.154,0,0,1-.729.487,6.162,6.162,0,0,1-1.313.562,6.37,6.37,0,0,1-3.3.052,8.142,8.142,0,0,1-3.027-1.492c-.185-.139-.368-.285-.545-.439a15.092,15.092,0,0,1-4.444-7.49l0-.01c-.133-.508-.25-1.03-.35-1.557-.079-.435-.144-.872-.187-1.314v0c-.01-.067-.015-.133-.021-.2a16.52,16.52,0,0,1-.075-2.231c0-.027,0-.052,0-.079a15.12,15.12,0,0,1,.212-2.081,9.222,9.222,0,0,1,.223-1.114.248.248,0,0,1,.021-.065c.01-.042.019-.075.029-.117v0l.006-.023a0,0,0,0,1,0,0,12.45,12.45,0,0,1,.567-1.747c.031-.077.064-.152.1-.227q.216-.5.468-.957a8.717,8.717,0,0,1,2.352-2.787,6.188,6.188,0,0,1,5.342-1.1c.112.029.221.058.331.089a5.635,5.635,0,0,1,.649.231,8.415,8.415,0,0,1,1.63.868c.133.087.262.181.391.277a14.951,14.951,0,0,1,5.106,8.308s0,0,0,.006a15.49,15.49,0,0,1,.325,1.576s0,.006,0,.01A18.324,18.324,0,0,1,1465.865,559.257Z" transform="translate(-1447.037 -543.399)" fill="#68a1bf"/>
              </g>
            </g>
            <g id="Grupo_128248" data-name="Grupo 128248" transform="translate(24.246 0.313)">
              <g id="Grupo_128247" data-name="Grupo 128247">
                <path id="Trazado_187188" data-name="Trazado 187188" d="M1587.185,544.906l-.052-.019c-.062-.019-.15-.042-.263-.071.031.179.063.356.1.533s.071.352.112.529l.07.293.075.3c.035.145.073.285.114.425.1.358.21.7.325,1.047.033.094.065.189.1.283.021.059.044.121.067.181l.017.048c.066.169.135.335.2.5.083.225.179.456.277.666.006.019.017.044.027.067a.167.167,0,0,1,.01.021c.027.062.052.12.081.179.054.123.11.242.171.365,0,0,0,0,0,0a.006.006,0,0,0,0,0l0,0A20.159,20.159,0,0,1,1587.185,544.906Zm0,0-.052-.019c-.062-.019-.15-.042-.263-.071.031.179.063.356.1.533s.071.352.112.529l.07.293.075.3c.035.145.073.285.114.425.1.358.21.7.325,1.047.033.094.065.189.1.283.021.059.044.121.067.181l.017.048c.066.169.135.335.2.5.083.225.179.456.277.666.006.019.017.044.027.067a.167.167,0,0,1,.01.021c.027.062.052.12.081.179.054.123.11.242.171.365,0,0,0,0,0,0a.006.006,0,0,0,0,0l0,0A20.159,20.159,0,0,1,1587.185,544.906Zm0,0-.052-.019c-.062-.019-.15-.042-.263-.071.031.179.063.356.1.533s.071.352.112.529l.07.293.075.3c.035.145.073.285.114.425.1.358.21.7.325,1.047.033.094.065.189.1.283.021.059.044.121.067.181l.017.048c.066.169.135.335.2.5.083.225.179.456.277.666.006.019.017.044.027.067a.167.167,0,0,1,.01.021c.027.062.052.12.081.179.054.123.11.242.171.365,0,0,0,0,0,0a.006.006,0,0,0,0,0l0,0A20.159,20.159,0,0,1,1587.185,544.906Zm0,0-.052-.019c-.062-.019-.15-.042-.263-.071.031.179.063.356.1.533s.071.352.112.529l.07.293.075.3c.035.145.073.285.114.425.1.358.21.7.325,1.047.033.094.065.189.1.283.021.059.044.121.067.181l.017.048c.066.169.135.335.2.5.083.225.179.456.277.666.006.019.017.044.027.067a.167.167,0,0,1,.01.021c.027.062.052.12.081.179.054.123.11.242.171.365,0,0,0,0,0,0a.006.006,0,0,0,0,0l0,0A20.159,20.159,0,0,1,1587.185,544.906Zm0,0-.052-.019c-.062-.019-.15-.042-.263-.071.031.179.063.356.1.533s.071.352.112.529l.07.293.075.3c.035.145.073.285.114.425.1.358.21.7.325,1.047.033.094.065.189.1.283.021.059.044.121.067.181l.017.048c.066.169.135.335.2.5.083.225.179.456.277.666.006.019.017.044.027.067a.167.167,0,0,1,.01.021c.027.062.052.12.081.179.054.123.11.242.171.365,0,0,0,0,0,0a.006.006,0,0,0,0,0l0,0A20.159,20.159,0,0,1,1587.185,544.906Zm0,0-.052-.019c-.062-.019-.15-.042-.263-.071.031.179.063.356.1.533s.071.352.112.529l.07.293.075.3c.035.145.073.285.114.425.1.358.21.7.325,1.047.033.094.065.189.1.283.021.059.044.121.067.181l.017.048c.066.169.135.335.2.5.083.225.179.456.277.666.006.019.017.044.027.067a.167.167,0,0,1,.01.021c.027.062.052.12.081.179.054.123.11.242.171.365,0,0,0,0,0,0a.006.006,0,0,0,0,0l0,0A20.159,20.159,0,0,1,1587.185,544.906Zm0,0-.052-.019c-.062-.019-.15-.042-.263-.071.031.179.063.356.1.533s.071.352.112.529l.07.293.075.3c.035.145.073.285.114.425.1.358.21.7.325,1.047.033.094.065.189.1.283.021.059.044.121.067.181l.017.048c.066.169.135.335.2.5.083.225.179.456.277.666.006.019.017.044.027.067a.167.167,0,0,1,.01.021c.027.062.052.12.081.179.054.123.11.242.171.365,0,0,0,0,0,0a.006.006,0,0,0,0,0l0,0A20.159,20.159,0,0,1,1587.185,544.906Zm0,0-.052-.019c-.062-.019-.15-.042-.263-.071.031.179.063.356.1.533s.071.352.112.529l.07.293.075.3c.035.145.073.285.114.425.1.358.21.7.325,1.047.033.094.065.189.1.283.021.059.044.121.067.181l.017.048c.066.169.135.335.2.5.083.225.179.456.277.666.006.019.017.044.027.067a.167.167,0,0,1,.01.021c.027.062.052.12.081.179.054.123.11.242.171.365,0,0,0,0,0,0a.006.006,0,0,0,0,0l0,0A20.159,20.159,0,0,1,1587.185,544.906Zm11.018-11.861a7.816,7.816,0,0,0-3.249-1.83l-.083-.019h0a1.988,1.988,0,0,0-.214-.046l-.01,0a5.619,5.619,0,0,0-1.174-.127,5.368,5.368,0,0,0-1.586.256,5.907,5.907,0,0,0-1.728.895c-.027.018-.054.039-.081.058-2.413,1.855-3.88,5.606-3.9,10.021,0,.287,0,.572.011.855v.006c.021.529.062,1.063.129,1.588v0a19.692,19.692,0,0,0,.652,3.364,17.681,17.681,0,0,0,3.02,6.132l.01,0,0,.01a8.8,8.8,0,0,0,4.588,3.264c.108.029.213.048.319.069.011.006.021,0,.033.01a5.546,5.546,0,0,0,.9.1,5.3,5.3,0,0,0,1.644-.191,5.686,5.686,0,0,0,1.972-1.009c2.423-1.857,3.882-5.606,3.911-10.025C1603.4,541,1601.262,535.8,1598.2,533.045Zm-3.8,23.489a.4.4,0,0,1-.093-.037s-.009,0-.011-.006-.011-.008-.025-.014a7.413,7.413,0,0,1-2.858-1.915,13.95,13.95,0,0,1-2.687-4.065l-.023-.054v0a1.7,1.7,0,0,0-.079-.163l-.005-.014s0,0,0,0a20.159,20.159,0,0,1-1.44-5.356v0c-.067-.552-.115-1.111-.144-1.665v-.006c-.012-.323-.013-.651-.016-.976a16.022,16.022,0,0,1,.965-5.6,8.584,8.584,0,0,1,2.492-3.651l0,0h0a.19.19,0,0,1,.042-.038c.025-.025.052-.044.077-.065a4.981,4.981,0,0,1,1.686-.858,4.414,4.414,0,0,1,1.616-.144,4.777,4.777,0,0,1,.827.135,5.627,5.627,0,0,1,.724.239,7.958,7.958,0,0,1,2.737,1.923c2.585,2.687,4.351,7.365,4.324,12.24,0,.031,0,.06,0,.091,0,.01,0,.01,0,.017a.281.281,0,0,1,0,.041c0,.01,0,.021,0,.029v.015c-.063,4.084-1.4,7.484-3.58,9.165a4.687,4.687,0,0,1-2.688,1.022,4.783,4.783,0,0,1-.987-.062,3.683,3.683,0,0,1-.455-.091,2.793,2.793,0,0,1-.385-.121l-.015,0Zm-7.223-11.628-.052-.019c-.062-.019-.15-.042-.263-.071.031.179.063.356.1.533s.071.352.112.529l.07.293.075.3c.035.145.073.285.114.425.1.358.21.7.325,1.047.033.094.065.189.1.283.021.059.044.121.067.181l.017.048c.066.169.135.335.2.5.083.225.179.456.277.666.006.019.017.044.027.067a.167.167,0,0,1,.01.021c.027.062.052.12.081.179.054.123.11.242.171.365,0,0,0,0,0,0a.006.006,0,0,0,0,0l0,0A20.159,20.159,0,0,1,1587.185,544.906Zm0,0-.052-.019c-.062-.019-.15-.042-.263-.071.031.179.063.356.1.533s.071.352.112.529l.07.293.075.3c.035.145.073.285.114.425.1.358.21.7.325,1.047.033.094.065.189.1.283.021.059.044.121.067.181l.017.048c.066.169.135.335.2.5.083.225.179.456.277.666.006.019.017.044.027.067a.167.167,0,0,1,.01.021c.027.062.052.12.081.179.054.123.11.242.171.365,0,0,0,0,0,0a.006.006,0,0,0,0,0l0,0A20.159,20.159,0,0,1,1587.185,544.906Zm0,0-.052-.019c-.062-.019-.15-.042-.263-.071.031.179.063.356.1.533s.071.352.112.529l.07.293.075.3c.035.145.073.285.114.425.1.358.21.7.325,1.047.033.094.065.189.1.283.021.059.044.121.067.181l.017.048c.066.169.135.335.2.5.083.225.179.456.277.666.006.019.017.044.027.067a.167.167,0,0,1,.01.021c.027.062.052.12.081.179.054.123.11.242.171.365,0,0,0,0,0,0a.006.006,0,0,0,0,0l0,0A20.159,20.159,0,0,1,1587.185,544.906Zm0,0-.052-.019c-.062-.019-.15-.042-.263-.071.031.179.063.356.1.533s.071.352.112.529l.07.293.075.3c.035.145.073.285.114.425.1.358.21.7.325,1.047.033.094.065.189.1.283.021.059.044.121.067.181l.017.048c.066.169.135.335.2.5.083.225.179.456.277.666.006.019.017.044.027.067a.167.167,0,0,1,.01.021c.027.062.052.12.081.179.054.123.11.242.171.365,0,0,0,0,0,0a.006.006,0,0,0,0,0l0,0A20.159,20.159,0,0,1,1587.185,544.906Zm0,0-.052-.019c-.062-.019-.15-.042-.263-.071.031.179.063.356.1.533s.071.352.112.529l.07.293.075.3c.035.145.073.285.114.425.1.358.21.7.325,1.047.033.094.065.189.1.283.021.059.044.121.067.181l.017.048c.066.169.135.335.2.5.083.225.179.456.277.666.006.019.017.044.027.067a.167.167,0,0,1,.01.021c.027.062.052.12.081.179.054.123.11.242.171.365,0,0,0,0,0,0a.006.006,0,0,0,0,0l0,0A20.159,20.159,0,0,1,1587.185,544.906Zm0,0-.052-.019c-.062-.019-.15-.042-.263-.071.031.179.063.356.1.533s.071.352.112.529l.07.293.075.3c.035.145.073.285.114.425.1.358.21.7.325,1.047.033.094.065.189.1.283.021.059.044.121.067.181l.017.048c.066.169.135.335.2.5.083.225.179.456.277.666.006.019.017.044.027.067a.167.167,0,0,1,.01.021c.027.062.052.12.081.179.054.123.11.242.171.365,0,0,0,0,0,0a.006.006,0,0,0,0,0l0,0A20.159,20.159,0,0,1,1587.185,544.906Zm0,0-.052-.019c-.062-.019-.15-.042-.263-.071.031.179.063.356.1.533s.071.352.112.529l.07.293.075.3c.035.145.073.285.114.425.1.358.21.7.325,1.047.033.094.065.189.1.283.021.059.044.121.067.181l.017.048c.066.169.135.335.2.5.083.225.179.456.277.666.006.019.017.044.027.067a.167.167,0,0,1,.01.021c.027.062.052.12.081.179.054.123.11.242.171.365,0,0,0,0,0,0a.006.006,0,0,0,0,0l0,0A20.159,20.159,0,0,1,1587.185,544.906Z" transform="translate(-1586.177 -531.024)" fill="#68a1bf"/>
              </g>
            </g>
            <g id="Grupo_128250" data-name="Grupo 128250" transform="translate(18.417 12.357)">
              <g id="Grupo_128249" data-name="Grupo 128249">
                <path id="Trazado_187189" data-name="Trazado 187189" d="M1558.11,606.214a.793.793,0,0,0,.52-.459.784.784,0,0,0-.432-1.027,8.7,8.7,0,0,0-7.083.823.785.785,0,0,0-.318,1.068.8.8,0,0,0,1.075.314,7.15,7.15,0,0,1,5.723-.748A.8.8,0,0,0,1558.11,606.214Z" transform="translate(-1550.7 -604.33)" fill="#331832"/>
              </g>
            </g>
          </g>
        </g>
        <g id="Grupo_128256" data-name="Grupo 128256" transform="translate(286.752 475.786)">
          <g id="Grupo_128253" data-name="Grupo 128253" transform="translate(4.449 39.994)">
            <path id="Trazado_187190" data-name="Trazado 187190" d="M1321.225,1537.427l-.417,1.762-3.623,15.317-3.7,15.642c-4.409-.04-9.06-.037-13.873,0l3.232-18.6,2.815-16.2.189-1.092Z" transform="translate(-1299.612 -1534.253)" fill="#12263f"/>
          </g>
          <g id="Grupo_128254" data-name="Grupo 128254" transform="translate(6.819 0)">
            <path id="Trazado_187191" data-name="Trazado 187191" d="M1320.273,1224.642c3.129-15.156,12.439-31.072,19.565-29.6s9.7,18.179,5.842,36.863c-2.447,11.851-7.577,7.524-14.7,6.053S1317.826,1236.493,1320.273,1224.642Z" transform="translate(-1319.719 -1194.947)" fill="#1d7e96"/>
          </g>
          <g id="Grupo_128255" data-name="Grupo 128255" transform="translate(0 32.393)">
            <rect id="Rectángulo_37516" data-name="Rectángulo 37516" width="30.277" height="23.798" transform="translate(4.812 0) rotate(11.666)" fill="#a9f73f"/>
          </g>
        </g>
        <g id="Grupo_128287" data-name="Grupo 128287" transform="translate(333.751 433.038)">
          <g id="Grupo_128264" data-name="Grupo 128264" transform="translate(19.613 59.157)">
            <g id="Grupo_128263" data-name="Grupo 128263">
              <g id="Grupo_128257" data-name="Grupo 128257">
                <path id="Trazado_187192" data-name="Trazado 187192" d="M1875.832,1397.594c-10.926.044-24.479-.4-35.165-.935-.988-4.281-2.076-8.426-3.217-9.639-.975-1.045-1.755-.265-4.134-2.966-4.085-4.653-6.006-33.97-6.328-40.12,3.347.822,22.182,5.114,21.9,1.684-.309-3.741-4.212-10.222.949-11.415,2.922-.671,4.668,7.149,5.875,9.018a77.439,77.439,0,0,1,4.617,9.758c2.311,6,5.418,12.266,4.41,17.754-.723,3.936.964,6.543,1.941,8.853C1868.271,1383.344,1872.592,1391.555,1875.832,1397.594Z" transform="translate(-1826.989 -1334.162)" fill="#ffb27d"/>
              </g>
              <g id="Grupo_128259" data-name="Grupo 128259" transform="translate(19.59 36.383)">
                <g id="Grupo_128258" data-name="Grupo 128258">
                  <path id="Trazado_187193" data-name="Trazado 187193" d="M1996.853,1655.9a.261.261,0,0,1-.236-.043,9.544,9.544,0,0,1-2.5-3.338,9.994,9.994,0,0,1-.925-4.042,12.849,12.849,0,0,1,1.223-5.491.261.261,0,0,1,.477.214,12.33,12.33,0,0,0-1.178,5.268,9.473,9.473,0,0,0,.877,3.832,9.154,9.154,0,0,0,2.348,3.144.261.261,0,0,1-.084.457Z" transform="translate(-1993.188 -1642.834)" fill="#f59a6d"/>
                </g>
              </g>
              <g id="Grupo_128260" data-name="Grupo 128260" transform="translate(23.379 1.333)">
                <path id="Trazado_187194" data-name="Trazado 187194" d="M2027.371,1350.083a1.987,1.987,0,0,1-.674-.119c-.9-.319-1.292-3.609-1.361-4.266a.2.2,0,0,1,.18-.222.089.089,0,0,1,.021,0,.2.2,0,0,1,.2.183c.161,1.526.607,3.752,1.094,3.924a1.438,1.438,0,0,0,1.235-.086.207.207,0,0,1,.282.055.2.2,0,0,1-.053.281A1.746,1.746,0,0,1,2027.371,1350.083Z" transform="translate(-2025.334 -1345.474)" fill="#f59a6d"/>
              </g>
              <g id="Grupo_128262" data-name="Grupo 128262" transform="translate(6.908 50.383)">
                <g id="Grupo_128261" data-name="Grupo 128261">
                  <path id="Trazado_187195" data-name="Trazado 187195" d="M1891.776,1764.078a.267.267,0,0,1-.046.009,7.321,7.321,0,0,1-4.7-.83,4.3,4.3,0,0,1-1.39-1.253.261.261,0,0,1,.444-.276h0a3.884,3.884,0,0,0,1.243,1.1,6.831,6.831,0,0,0,4.346.742.261.261,0,0,1,.106.51Z" transform="translate(-1885.599 -1761.605)" fill="#f59a6d"/>
                </g>
              </g>
            </g>
          </g>
          <g id="Grupo_128269" data-name="Grupo 128269" transform="translate(0 0)">
            <g id="Grupo_128265" data-name="Grupo 128265" transform="translate(11.103 22.304)">
              <path id="Trazado_187196" data-name="Trazado 187196" d="M1792.459,1102.483l-16.969,3.83-20.7-79.888,21.819-4.924Z" transform="translate(-1754.79 -1021.5)" fill="#12263f"/>
            </g>
            <g id="Grupo_128266" data-name="Grupo 128266" transform="translate(37.535 98.57)">
              <rect id="Rectángulo_37517" data-name="Rectángulo 37517" width="2.449" height="20.502" transform="matrix(0.975, -0.22, 0.22, 0.975, 0, 0.539)" fill="#331832"/>
            </g>
            <g id="Grupo_128267" data-name="Grupo 128267">
              <circle id="Elipse_5310" data-name="Elipse 5310" cx="14.998" cy="14.998" r="14.998" transform="translate(0 21.21) rotate(-45)" fill="#1d7e96"/>
            </g>
            <g id="Grupo_128268" data-name="Grupo 128268" transform="translate(5.769 23.479)">
              <rect id="Rectángulo_37518" data-name="Rectángulo 37518" width="34.465" height="27.09" transform="translate(0 7.587) rotate(-12.717)" fill="#ef8062"/>
            </g>
          </g>
          <g id="Grupo_128286" data-name="Grupo 128286" transform="translate(11.982 61.355)">
            <g id="Grupo_128273" data-name="Grupo 128273" transform="translate(3.951 25.369)">
              <g id="Grupo_128270" data-name="Grupo 128270">
                <path id="Trazado_187197" data-name="Trazado 187197" d="M1799.338,1575.984l6.822-.473a3.438,3.438,0,0,0,3.856-2.933h0a3.4,3.4,0,0,0-2.968-3.8l-4.884-.622c-3.327-.377-5.916.014-6.309,3.008C1795.3,1575.39,1797.516,1575.752,1799.338,1575.984Z" transform="translate(-1795.768 -1568.036)" fill="#ffb27d"/>
              </g>
              <g id="Grupo_128271" data-name="Grupo 128271" transform="translate(8.315 1.446)">
                <path id="Trazado_187198" data-name="Trazado 187198" d="M1867.571,1584.879a2.862,2.862,0,0,1-.435-.029c-.265-.04-.723-.264-.809-1.333-.087-1.088.272-2.825,1.031-3.066.982-.312,2.762-.176,3.2.738a4.2,4.2,0,0,1,.052,2.8.742.742,0,0,1-.459.447A10.928,10.928,0,0,1,1867.571,1584.879Zm.871-4.062a3.2,3.2,0,0,0-.928.124c-.353.112-.762,1.441-.675,2.536.041.505.183.838.373.866a9.017,9.017,0,0,0,2.8-.4l.009,0c.022-.005.073-.046.128-.167a3.729,3.729,0,0,0-.048-2.355C1869.9,1581,1869.152,1580.817,1868.442,1580.817Z" transform="translate(-1866.315 -1580.3)" fill="#f59a6d"/>
              </g>
              <g id="Grupo_128272" data-name="Grupo 128272" transform="translate(2.711 5.727)">
                <path id="Trazado_187199" data-name="Trazado 187199" d="M1821.581,1619.042c-1.374,0-2.451-.026-2.561-.028a.257.257,0,0,1,.006-.514h.006c.068,0,6.887.164,8.472-.324a3.478,3.478,0,0,0,2.031-1.417.253.253,0,0,1,.346-.107.256.256,0,0,1,.108.345,3.9,3.9,0,0,1-2.335,1.669A31.587,31.587,0,0,1,1821.581,1619.042Z" transform="translate(-1818.769 -1616.621)" fill="#f59a6d"/>
              </g>
            </g>
            <g id="Grupo_128277" data-name="Grupo 128277" transform="translate(2.068 16.269)">
              <g id="Grupo_128274" data-name="Grupo 128274">
                <path id="Trazado_187200" data-name="Trazado 187200" d="M1783.369,1500.125l8.094.764a4.106,4.106,0,0,0,5.1-2.695h0a4.023,4.023,0,0,0-2.725-5.033l-5.6-1.674c-3.827-1.085-6.94-1.127-8,2.31C1778.752,1498.648,1781.279,1499.5,1783.369,1500.125Z" transform="translate(-1779.794 -1490.834)" fill="#ffb27d"/>
              </g>
              <g id="Grupo_128275" data-name="Grupo 128275" transform="translate(9.84 2.972)">
                <path id="Trazado_187201" data-name="Trazado 187201" d="M1865.72,1521.307a6.25,6.25,0,0,1-1.776-.205c-.287-.092-.754-.428-.654-1.647.1-1.257.867-3.245,1.777-3.376,1.195-.176,3.23.321,3.56,1.453a4.926,4.926,0,0,1-.487,3.245.839.839,0,0,1-.592.416A16.024,16.024,0,0,1,1865.72,1521.307Zm-.177-4.747a2.931,2.931,0,0,0-.4.026c-.465.067-1.226,1.547-1.339,2.912-.052.621.06,1.038.3,1.114a10.674,10.674,0,0,0,3.386.071h.009c.06-.005.143-.078.221-.193a4.436,4.436,0,0,0,.418-2.816C1867.934,1516.985,1866.55,1516.56,1865.543,1516.56Z" transform="translate(-1863.276 -1516.045)" fill="#f59a6d"/>
              </g>
              <g id="Grupo_128276" data-name="Grupo 128276" transform="translate(4.061 9.102)">
                <path id="Trazado_187202" data-name="Trazado 187202" d="M1823.536,1569.207c-2.579,0-8.3-.566-9.059-.642a.257.257,0,0,1-.229-.281.247.247,0,0,1,.281-.229c2.455.245,9.03.828,9.979.579a.261.261,0,0,1,.314.183.257.257,0,0,1-.183.314A5.211,5.211,0,0,1,1823.536,1569.207Z" transform="translate(-1814.247 -1568.052)" fill="#f59a6d"/>
              </g>
            </g>
            <g id="Grupo_128281" data-name="Grupo 128281" transform="translate(0 6.83)">
              <g id="Grupo_128278" data-name="Grupo 128278">
                <path id="Trazado_187203" data-name="Trazado 187203" d="M1765.294,1419.867l7.9,1.9a4.12,4.12,0,0,0,5.442-1.946h0a4.01,4.01,0,0,0-1.966-5.367l-5.3-2.449c-3.629-1.615-6.7-2.1-8.248,1.155C1760.94,1417.752,1763.316,1418.953,1765.294,1419.867Z" transform="translate(-1762.251 -1410.749)" fill="#ffb27d"/>
              </g>
              <g id="Grupo_128279" data-name="Grupo 128279" transform="translate(9.587 4.036)">
                <path id="Trazado_187204" data-name="Trazado 187204" d="M1847.66,1450.407h-.023a10.991,10.991,0,0,1-3.554-.6c-.27-.131-.682-.528-.411-1.709.283-1.235,1.324-3.1,2.251-3.1h0c1.212,0,3.146.774,3.307,1.943a4.94,4.94,0,0,1-.951,3.14A.855.855,0,0,1,1847.66,1450.407Zm-1.733-4.9h0c-.473,0-1.444,1.364-1.751,2.7-.138.6-.087,1.026.135,1.133a10.7,10.7,0,0,0,3.34.55h.009c.05.024.154-.061.249-.162a4.448,4.448,0,0,0,.821-2.726C1848.614,1446.191,1846.929,1445.507,1845.927,1445.507Z" transform="translate(-1843.583 -1444.993)" fill="#f59a6d"/>
              </g>
              <g id="Grupo_128280" data-name="Grupo 128280" transform="translate(4.761 9.339)">
                <path id="Trazado_187205" data-name="Trazado 187205" d="M1810.4,1492.331c-2.973,0-7.359-1.764-7.589-1.857a.258.258,0,0,1-.142-.335A.261.261,0,0,1,1803,1490c.068.028,6.833,2.747,9.019,1.5a.256.256,0,1,1,.254.445A3.839,3.839,0,0,1,1810.4,1492.331Z" transform="translate(-1802.646 -1489.981)" fill="#f59a6d"/>
              </g>
            </g>
            <g id="Grupo_128285" data-name="Grupo 128285" transform="translate(1.026)">
              <g id="Grupo_128282" data-name="Grupo 128282">
                <path id="Trazado_187206" data-name="Trazado 187206" d="M1773.665,1360.5l6.676,1.188a3.449,3.449,0,0,0,4.445-1.9h0a3.345,3.345,0,0,0-1.894-4.38l-4.537-1.777c-3.1-1.165-5.69-1.412-6.822,1.38C1769.934,1358.955,1771.973,1359.837,1773.665,1360.5Z" transform="translate(-1770.954 -1352.808)" fill="#ffb27d"/>
              </g>
              <g id="Grupo_128283" data-name="Grupo 128283" transform="translate(8.104 3.002)">
                <path id="Trazado_187207" data-name="Trazado 187207" d="M1842.666,1382.717a7.607,7.607,0,0,1-2.488-.331c-.231-.1-.592-.405-.426-1.4.175-1.048.954-2.662,1.73-2.711,1-.05,2.665.486,2.854,1.454a4.143,4.143,0,0,1-.644,2.671.7.7,0,0,1-.522.305C1843.136,1382.708,1842.944,1382.717,1842.666,1382.717Zm-1.032-4.016c-.043,0-.085,0-.126,0-.4.024-1.143,1.216-1.334,2.354-.084.505-.022.854.167.931a9.059,9.059,0,0,0,2.811.29h.008a.346.346,0,0,0,.2-.146,3.735,3.735,0,0,0,.556-2.319C1843.791,1379.172,1842.481,1378.7,1841.634,1378.7Z" transform="translate(-1839.71 -1378.274)" fill="#f59a6d"/>
              </g>
              <g id="Grupo_128284" data-name="Grupo 128284" transform="translate(4.166 7.776)">
                <path id="Trazado_187208" data-name="Trazado 187208" d="M1812.436,1420.373a23.087,23.087,0,0,1-5.989-1.179.215.215,0,0,1,.138-.407c.058.021,5.83,1.945,7.591.8a.214.214,0,1,1,.234.359A3.715,3.715,0,0,1,1812.436,1420.373Z" transform="translate(-1806.301 -1418.776)" fill="#f59a6d"/>
              </g>
            </g>
          </g>
        </g>
        <g id="Grupo_128319" data-name="Grupo 128319" transform="translate(180.005 450.284)">
          <g id="Grupo_128296" data-name="Grupo 128296" transform="translate(0 46.547)">
            <g id="Grupo_128295" data-name="Grupo 128295">
              <g id="Grupo_128288" data-name="Grupo 128288" transform="translate(22.696)">
                <path id="Trazado_187209" data-name="Trazado 187209" d="M607.279,1392.191s-.134.257-.384.725c-.034.066-.072.138-.113.214-.681,1.28-2.019,3.769-3.733,6.834-.13.232-.262.469-.4.708-.052.1-.106.191-.161.287-1.189,2.111-2.531,4.447-3.945,6.819q-.126.215-.257.431s0,0,0,0c-1.252,2.094-2.554,4.21-3.852,6.216l-.062.1c-3.672,5.674-7.291,10.469-9.575,11.49-.3.132-.568.244-.819.338-2.478.93-2.934.172-4.1.6l-.08.03a10.151,10.151,0,0,0-3.452,2.729l-.809.023h0l-2.742.077c-3.577.1-7.048.192-10.375.276l-13.628-15.928a50.041,50.041,0,0,0,6.129-4.854q.669-.591,1.414-1.27c1.853-1.691,4.472-3.356,5.458-7.235,1.372-5.409,6.807-9.805,11.411-14.3,1.546-1.508,4.2-3.834,6.24-5.449.809-.642,1.52-1.171,2.025-1.494,1.876-1.2,6.725-7.576,9.1-5.748a3.333,3.333,0,0,1,1.371,1.988c.559,2.868-3.79,6.152-5.27,8.782-1.24,2.2,8.572,4.894,15.088,6.412l.008,0h0c1.147.266,2.191.5,3.054.683.765.163,1.387.291,1.814.377h0C607.051,1392.147,607.279,1392.191,607.279,1392.191Z" transform="translate(-548.793 -1373.49)" fill="#ffb27d"/>
              </g>
              <g id="Grupo_128290" data-name="Grupo 128290" transform="translate(43.408 34.083)">
                <g id="Grupo_128289" data-name="Grupo 128289">
                  <path id="Trazado_187210" data-name="Trazado 187210" d="M724.594,1673.627a.26.26,0,0,0,.232.059,9.545,9.545,0,0,0,3.667-1.99,10,10,0,0,0,2.527-3.288,12.85,12.85,0,0,0,1.178-5.5.261.261,0,1,0-.523,0,12.334,12.334,0,0,1-1.127,5.279,9.474,9.474,0,0,1-2.4,3.117,9.146,9.146,0,0,1-3.446,1.878.261.261,0,0,0-.114.45Z" transform="translate(-724.506 -1662.643)" fill="#f59a6d"/>
                </g>
              </g>
              <g id="Grupo_128291" data-name="Grupo 128291" transform="translate(0 35.33)">
                <path id="Trazado_187211" data-name="Trazado 187211" d="M405.681,1694.142c-9.3.265-22.09.615-31.335.688a44.8,44.8,0,0,1-18.107-3.609c4.192-2.8,25.969-17.417,26.424-17.745.722-.511,1.618-.156,2.4.239,2.137,1.181,5.068,4.473,8.033,9.477a22.427,22.427,0,0,0,3.719,4.679A46.667,46.667,0,0,0,405.681,1694.142Z" transform="translate(-356.239 -1673.221)" fill="#ef8062"/>
              </g>
              <g id="Grupo_128292" data-name="Grupo 128292" transform="translate(58.914 1.177)">
                <path id="Trazado_187212" data-name="Trazado 187212" d="M857.528,1387.095a.382.382,0,0,1-.043,0,1.843,1.843,0,0,1-1.4-.788.2.2,0,0,1,.07-.279.207.207,0,0,1,.279.069,1.442,1.442,0,0,0,1.085.595h.02c.528,0,1.839-1.809,2.612-3.112a.2.2,0,0,1,.35.207C860.17,1384.343,858.489,1387.095,857.528,1387.095Z" transform="translate(-856.058 -1383.477)" fill="#f59a6d"/>
              </g>
              <g id="Grupo_128294" data-name="Grupo 128294" transform="translate(51.232 51.944)">
                <g id="Grupo_128293" data-name="Grupo 128293">
                  <path id="Trazado_187213" data-name="Trazado 187213" d="M790.973,1814.636a.264.264,0,0,0,.038.028,7.322,7.322,0,0,0,4.62,1.207,4.285,4.285,0,0,0,1.786-.56.261.261,0,0,0-.288-.436h0a3.885,3.885,0,0,1-1.587.48,6.831,6.831,0,0,1-4.26-1.138.261.261,0,0,0-.309.419Z" transform="translate(-790.885 -1814.179)" fill="#f59a6d"/>
                </g>
              </g>
            </g>
          </g>
          <g id="Grupo_128301" data-name="Grupo 128301" transform="translate(37.918 0)">
            <g id="Grupo_128297" data-name="Grupo 128297" transform="translate(2.433 17.32)">
              <path id="Trazado_187214" data-name="Trazado 187214" d="M698.565,1192.52l13.826,10.558,52.132-63.976-17.778-13.575Z" transform="translate(-698.565 -1125.526)" fill="#12263f"/>
            </g>
            <g id="Grupo_128298" data-name="Grupo 128298" transform="translate(0 83.716)">
              <rect id="Rectángulo_37519" data-name="Rectángulo 37519" width="2.449" height="20.502" transform="translate(1.946 17.781) rotate(-142.634)" fill="#331832"/>
            </g>
            <g id="Grupo_128299" data-name="Grupo 128299" transform="translate(40.503)">
              <circle id="Elipse_5311" data-name="Elipse 5311" cx="14.998" cy="14.998" r="14.998" transform="translate(0 21.21) rotate(-45)" fill="#1d7e96"/>
            </g>
            <g id="Grupo_128300" data-name="Grupo 128300" transform="translate(27.805 15.691)">
              <rect id="Rectángulo_37520" data-name="Rectángulo 37520" width="34.465" height="27.09" transform="translate(27.392 42.447) rotate(-142.634)" fill="#2df0da"/>
            </g>
          </g>
          <g id="Grupo_128318" data-name="Grupo 128318" transform="translate(61.899 58.499)">
            <g id="Grupo_128305" data-name="Grupo 128305" transform="translate(0 20.267)">
              <g id="Grupo_128302" data-name="Grupo 128302" transform="translate(0.212)">
                <path id="Trazado_187215" data-name="Trazado 187215" d="M891.613,1656.751l-6-3.275a3.437,3.437,0,0,1-2.282-4.273h0a3.4,3.4,0,0,1,4.283-2.218l4.7,1.471c3.181,1.046,5.371,2.481,4.48,5.366C895.53,1657.9,893.366,1657.3,891.613,1656.751Z" transform="translate(-883.178 -1646.825)" fill="#ffb27d"/>
              </g>
              <g id="Grupo_128303" data-name="Grupo 128303" transform="translate(1.601 0.8)">
                <path id="Trazado_187216" data-name="Trazado 187216" d="M897.958,1658.668a.714.714,0,0,1-.2-.027,9.256,9.256,0,0,1-2.572-1.64.74.74,0,0,1-.229-.6,4.184,4.184,0,0,1,1.213-2.518c.78-.646,2.456-.029,3.22.666.591.536.191,2.266-.343,3.219C898.639,1658.5,898.236,1658.668,897.958,1658.668Zm-.906-4.545a.847.847,0,0,0-.551.159,3.73,3.73,0,0,0-1.027,2.119c0,.133.029.193.047.207l.006.005a8.96,8.96,0,0,0,2.379,1.535c.19.067.451-.186.7-.629.536-.957.721-2.338.446-2.588A3.489,3.489,0,0,0,897.052,1654.123Z" transform="translate(-894.961 -1653.612)" fill="#f59a6d"/>
              </g>
              <g id="Grupo_128304" data-name="Grupo 128304" transform="translate(0 3.656)">
                <path id="Trazado_187217" data-name="Trazado 187217" d="M890.612,1684.541a.257.257,0,0,1-.1-.021c-.261-.112-6.4-2.761-7.7-3.919a3.885,3.885,0,0,1-1.425-2.492.257.257,0,0,1,.244-.269c.149.022.261.1.268.243a3.466,3.466,0,0,0,1.254,2.135c1.237,1.1,7.5,3.8,7.564,3.83a.257.257,0,0,1-.1.493Z" transform="translate(-881.383 -1677.84)" fill="#f59a6d"/>
              </g>
            </g>
            <g id="Grupo_128309" data-name="Grupo 128309" transform="translate(2.363 13.187)">
              <g id="Grupo_128306" data-name="Grupo 128306">
                <path id="Trazado_187218" data-name="Trazado 187218" d="M912.654,1597.5l-7.675-2.682a4.106,4.106,0,0,1-3.515-4.578h0a4.023,4.023,0,0,1,4.576-3.438l5.791.815c3.931.61,6.778,1.871,6.3,5.434C917.466,1598.08,914.815,1597.8,912.654,1597.5Z" transform="translate(-901.429 -1586.759)" fill="#ffb27d"/>
              </g>
              <g id="Grupo_128307" data-name="Grupo 128307" transform="translate(1.746 0.984)">
                <path id="Trazado_187219" data-name="Trazado 187219" d="M920.035,1600.829a.776.776,0,0,1-.092-.005,10.975,10.975,0,0,1-3.314-1.421.84.84,0,0,1-.365-.626,4.934,4.934,0,0,1,.912-3.152c.771-.9,2.823-.492,3.84.164.773.5.636,2.621.209,3.807C920.848,1600.638,920.349,1600.829,920.035,1600.829Zm-1.431-5.2a1.372,1.372,0,0,0-1.04.334,4.446,4.446,0,0,0-.794,2.733.4.4,0,0,0,.121.269l.006.005a10.792,10.792,0,0,0,3.108,1.347c.254.038.524-.3.737-.891.465-1.286.39-2.948,0-3.2A4.383,4.383,0,0,0,918.6,1595.625Z" transform="translate(-916.238 -1595.107)" fill="#f59a6d"/>
              </g>
              <g id="Grupo_128308" data-name="Grupo 128308" transform="translate(0.874 6.555)">
                <path id="Trazado_187220" data-name="Trazado 187220" d="M918.488,1646.563a.286.286,0,0,1-.084-.014c-.868-.3-8.51-2.931-9.472-3.726a.257.257,0,0,1,.328-.4c.752.623,6.976,2.837,9.311,3.636a.257.257,0,0,1-.084.5Z" transform="translate(-908.841 -1642.368)" fill="#f59a6d"/>
              </g>
            </g>
            <g id="Grupo_128313" data-name="Grupo 128313" transform="translate(7.854 6.594)">
              <g id="Grupo_128310" data-name="Grupo 128310">
                <path id="Trazado_187221" data-name="Trazado 187221" d="M960.123,1540.509l-7.971-1.567a4.12,4.12,0,0,1-4.135-4.038h0a4.01,4.01,0,0,1,4.025-4.058l5.84-.015c3.972.046,6.968.891,7.014,4.49C964.962,1540.4,962.3,1540.5,960.123,1540.509Z" transform="translate(-948.017 -1530.831)" fill="#ffb27d"/>
              </g>
              <g id="Grupo_128311" data-name="Grupo 128311" transform="translate(1.774 0.979)">
                <path id="Trazado_187222" data-name="Trazado 187222" d="M967.052,1544.656a11.216,11.216,0,0,1-3.425-.938.844.844,0,0,1-.451-.567,4.943,4.943,0,0,1,.447-3.254c.635-1,2.718-.89,3.82-.383.84.386,1.009,2.516.752,3.756-.246,1.19-.787,1.379-1.087,1.386Zm-1.492-5a1.8,1.8,0,0,0-1.505.516,4.448,4.448,0,0,0-.391,2.821.406.406,0,0,0,.158.25l.008,0a10.737,10.737,0,0,0,3.266.895c.247-.005.471-.371.6-.978.279-1.345-.035-2.987-.465-3.185A4.28,4.28,0,0,0,965.56,1539.657Z" transform="translate(-963.064 -1539.137)" fill="#f59a6d"/>
              </g>
              <g id="Grupo_128312" data-name="Grupo 128312" transform="translate(0.834 6.528)">
                <path id="Trazado_187223" data-name="Trazado 187223" d="M964.372,1589.228h-.011c-.31-.014-7.609-.366-9.219-2.607a.257.257,0,0,1,.417-.3c1.466,2.043,8.751,2.39,8.824,2.393a.257.257,0,0,1-.011.514Z" transform="translate(-955.094 -1586.213)" fill="#f59a6d"/>
              </g>
            </g>
            <g id="Grupo_128317" data-name="Grupo 128317" transform="translate(12.956)">
              <g id="Grupo_128314" data-name="Grupo 128314">
                <path id="Trazado_187224" data-name="Trazado 187224" d="M1001.119,1483.365l-6.563-1.7a3.449,3.449,0,0,1-3.249-3.579h0a3.345,3.345,0,0,1,3.548-3.192l4.865.277c3.306.235,5.76,1.089,5.625,4.1C1005.154,1483.516,1002.934,1483.468,1001.119,1483.365Z" transform="translate(-991.304 -1474.885)" fill="#ffb27d"/>
              </g>
              <g id="Grupo_128315" data-name="Grupo 128315" transform="translate(1.473 0.817)">
                <path id="Trazado_187225" data-name="Trazado 187225" d="M1007.078,1486.511h-.025a9.064,9.064,0,0,1-2.853-.954.706.706,0,0,1-.347-.5,4.153,4.153,0,0,1,.528-2.7c.576-.8,2.308-.609,3.2-.131.686.369.72,2.164.442,3.19C1007.768,1486.361,1007.331,1486.511,1007.078,1486.511Zm-1.273-4.257a1.327,1.327,0,0,0-1.076.362,3.738,3.738,0,0,0-.461,2.338.351.351,0,0,0,.121.219l.006,0a8.958,8.958,0,0,0,2.675.907h.009c.2,0,.4-.288.531-.774.295-1.085.117-2.51-.23-2.7A3.611,3.611,0,0,0,1005.8,1482.254Z" transform="translate(-1003.796 -1481.82)" fill="#f59a6d"/>
              </g>
              <g id="Grupo_128316" data-name="Grupo 128316" transform="translate(0.566 5.303)">
                <path id="Trazado_187226" data-name="Trazado 187226" d="M1003.714,1522.841h-.022c-.258-.028-6.32-.683-7.552-2.636a.214.214,0,1,1,.362-.228c1.122,1.778,7.174,2.431,7.235,2.437a.216.216,0,0,1,.191.236A.213.213,0,0,1,1003.714,1522.841Z" transform="translate(-996.106 -1519.877)" fill="#f59a6d"/>
              </g>
            </g>
          </g>
        </g>
        <g id="Grupo_128349" data-name="Grupo 128349" transform="translate(156.457 433.195)">
          <g id="Grupo_128327" data-name="Grupo 128327" transform="translate(0 25.756)">
            <g id="Grupo_128326" data-name="Grupo 128326">
              <g id="Grupo_128320" data-name="Grupo 128320" transform="translate(5.246)">
                <path id="Trazado_187227" data-name="Trazado 187227" d="M259,1074.808s-25.31,20.508-31.671,20.587c-3.338.042-3.274-.983-4.623-1.013-3.317-.074-7.427,3.361-9.926,3.724-3.4.493-4.148-1.307-4.148-1.307l-7.67-24.8a53.07,53.07,0,0,0,8.7-2.447c2.205-.761,5.056-1.216,7.328-4.165,3.167-4.112,9.428-5.86,15.016-8a71.965,71.965,0,0,1,9.619-2.88c2.043-.329,8.535-3.987,9.889-1.55,2.392,4.306-4.527,5.647-7.3,7.758S259,1074.808,259,1074.808Z" transform="translate(-200.966 -1052.128)" fill="#ffb27d"/>
              </g>
              <g id="Grupo_128321" data-name="Grupo 128321" transform="translate(0 16.872)">
                <path id="Trazado_187228" data-name="Trazado 187228" d="M158.173,1246.637a33.657,33.657,0,0,1-1.716-10.617v-38.8c5.509-1.024,10.087-1.879,10.307-1.927.641-.135,1.312.25,1.961,1.085v0h0c1.39,1.8,2.678,5.688,3.363,11.053,1,7.884,6.548,13.043,7.941,15.991C180.446,1224.308,167.038,1238.223,158.173,1246.637Z" transform="translate(-156.457 -1195.269)" fill="#366f90"/>
              </g>
              <g id="Grupo_128322" data-name="Grupo 128322" transform="translate(49.716 1.065)">
                <path id="Trazado_187229" data-name="Trazado 187229" d="M579.445,1063.287a.631.631,0,0,1-.3-.066,1.709,1.709,0,0,1-.9-1.186.19.19,0,0,1,.162-.214c.108.009.2.059.212.162a1.339,1.339,0,0,0,.709.907c.427.224,2.239-.848,3.393-1.688a.19.19,0,0,1,.222.307C582.5,1061.832,580.436,1063.287,579.445,1063.287Z" transform="translate(-578.24 -1061.167)" fill="#f59a6d"/>
              </g>
              <g id="Grupo_128324" data-name="Grupo 128324" transform="translate(25.336 40.094)">
                <g id="Grupo_128323" data-name="Grupo 128323">
                  <path id="Trazado_187230" data-name="Trazado 187230" d="M371.428,1392.626a.251.251,0,0,0,.022.038,6.809,6.809,0,0,0,3.5,2.734,4,4,0,0,0,1.731.181.243.243,0,0,0-.085-.479h0a3.618,3.618,0,0,1-1.532-.176,6.353,6.353,0,0,1-3.217-2.542.243.243,0,0,0-.418.244Z" transform="translate(-371.405 -1392.28)" fill="#f59a6d"/>
                </g>
              </g>
              <g id="Grupo_128325" data-name="Grupo 128325" transform="translate(14.828 43.955)">
                <path id="Trazado_187231" data-name="Trazado 187231" d="M283.839,1427.5a1.411,1.411,0,0,0,.689-1.586,1.132,1.132,0,0,0-1.5-.791,1.39,1.39,0,0,0-.659,1.782A1.155,1.155,0,0,0,283.839,1427.5Z" transform="translate(-282.254 -1425.037)" fill="#331832"/>
              </g>
            </g>
          </g>
          <g id="Grupo_128328" data-name="Grupo 128328" transform="translate(24.489 12.334)">
            <path id="Trazado_187232" data-name="Trazado 187232" d="M364.222,974.577l7.288,13,62.746-32.608-9.371-16.719Z" transform="translate(-364.222 -938.253)" fill="#12263f"/>
          </g>
          <g id="Grupo_128329" data-name="Grupo 128329" transform="translate(21.105 51.591)">
            <rect id="Rectángulo_37521" data-name="Rectángulo 37521" width="2.098" height="13.138" transform="translate(1.026 8.254) rotate(-119.27)" fill="#ef8062"/>
          </g>
          <g id="Grupo_128330" data-name="Grupo 128330" transform="translate(73.16 0)">
            <ellipse id="Elipse_5312" data-name="Elipse 5312" cx="17.54" cy="12.851" rx="17.54" ry="12.851" transform="matrix(0.9, -0.435, 0.435, 0.9, 0, 15.267)" fill="#1d7e96"/>
          </g>
          <g id="Grupo_128331" data-name="Grupo 128331" transform="translate(60.449 8.89)">
            <path id="Trazado_187266" data-name="Trazado 187266" d="M0,0H29.531V23.212H0Z" transform="matrix(-0.489, -0.872, 0.872, -0.489, 14.439, 37.11)" fill="#45c6e5"/>
          </g>
          <g id="Grupo_128348" data-name="Grupo 128348" transform="translate(40.263 41.321)">
            <g id="Grupo_128335" data-name="Grupo 128335" transform="translate(0 12.614)">
              <g id="Grupo_128332" data-name="Grupo 128332" transform="translate(0.252)">
                <path id="Trazado_187233" data-name="Trazado 187233" d="M505.227,1301.787l-3.917-5.01a3.2,3.2,0,0,1-.372-4.49h0a3.162,3.162,0,0,1,4.474-.314l3.469,2.989c2.33,2.066,3.671,4.1,1.846,6.233C508.15,1304.209,506.522,1302.9,505.227,1301.787Z" transform="translate(-500.187 -1291.192)" fill="#ffb27d"/>
              </g>
              <g id="Grupo_128333" data-name="Grupo 128333" transform="translate(1.532 0.847)">
                <path id="Trazado_187234" data-name="Trazado 187234" d="M513.138,1303.213a.679.679,0,0,1-.443-.152,8.652,8.652,0,0,1-1.592-2.349.691.691,0,0,1,.024-.595,3.9,3.9,0,0,1,1.964-1.705c.911-.259,2.108.883,2.5,1.757.307.674-.67,2-1.477,2.619A1.68,1.68,0,0,1,513.138,1303.213Zm.24-4.363a.552.552,0,0,0-.153.021,3.475,3.475,0,0,0-1.659,1.435c-.049.112-.046.174-.036.193l0,.007a8.379,8.379,0,0,0,1.466,2.186c.135.119.454.007.83-.281.81-.621,1.475-1.731,1.332-2.045C514.869,1299.721,513.987,1298.85,513.378,1298.85Z" transform="translate(-511.047 -1298.375)" fill="#f59a6d"/>
              </g>
              <g id="Grupo_128334" data-name="Grupo 128334" transform="translate(0 2.125)">
                <path id="Trazado_187235" data-name="Trazado 187235" d="M503.774,1318.289a.235.235,0,0,1-.173-.074c-.181-.191-4.45-4.718-5.132-6.187a3.622,3.622,0,0,1-.3-2.654.23.23,0,0,1,.307-.138.237.237,0,0,1,.14.305h0a3.233,3.233,0,0,0,.284,2.286c.649,1.4,5,6.013,5.046,6.059a.237.237,0,0,1-.173.4Z" transform="translate(-498.047 -1309.217)" fill="#f59a6d"/>
              </g>
            </g>
            <g id="Grupo_128339" data-name="Grupo 128339" transform="translate(4.414 7.549)">
              <g id="Grupo_128336" data-name="Grupo 128336" transform="translate(0.001)">
                <path id="Trazado_187236" data-name="Trazado 187236" d="M542.917,1260.351l-5.563-5.12a3.819,3.819,0,0,1-1.313-5.2h0a3.742,3.742,0,0,1,5.175-1.247l4.644,2.832c3.131,1.971,5.1,4.1,3.378,6.965C546.811,1262.624,544.65,1261.407,542.917,1260.351Z" transform="translate(-535.51 -1248.22)" fill="#ffb27d"/>
              </g>
              <g id="Grupo_128337" data-name="Grupo 128337" transform="translate(1.545 0.98)">
                <path id="Trazado_187237" data-name="Trazado 187237" d="M551.406,1262.209a.74.74,0,0,1-.376-.1,10.134,10.134,0,0,1-2.305-2.433.78.78,0,0,1-.08-.671,4.582,4.582,0,0,1,1.941-2.354c.988-.476,2.592.622,3.218,1.557.476.712-.424,2.474-1.228,3.328A1.7,1.7,0,0,1,551.406,1262.209Zm-.284-5.2a.734.734,0,0,0-.329.069,4.117,4.117,0,0,0-1.685,2.038.383.383,0,0,0,0,.276l.005.005a9.951,9.951,0,0,0,2.155,2.295c.206.123.56-.064.958-.486.872-.928,1.421-2.374,1.179-2.736A3.551,3.551,0,0,0,551.122,1257.014Z" transform="translate(-548.608 -1256.537)" fill="#f59a6d"/>
              </g>
              <g id="Grupo_128338" data-name="Grupo 128338" transform="translate(0 4.815)">
                <path id="Trazado_187238" data-name="Trazado 187238" d="M542.4,1296.158a.238.238,0,0,1-.16-.062c-.632-.574-6.186-5.641-6.713-6.673a.237.237,0,0,1,.1-.321.233.233,0,0,1,.321.1c.413.809,4.911,4.993,6.609,6.538a.238.238,0,0,1-.16.414Z" transform="translate(-535.497 -1289.074)" fill="#f59a6d"/>
              </g>
            </g>
            <g id="Grupo_128343" data-name="Grupo 128343" transform="translate(11.511 3.958)">
              <g id="Grupo_128340" data-name="Grupo 128340" transform="translate(0.019)">
                <path id="Trazado_187239" data-name="Trazado 187239" d="M604.418,1229.293l-6.227-4.278a3.831,3.831,0,0,1-2.041-4.972h0a3.73,3.73,0,0,1,4.933-1.98l4.992,2.141c3.374,1.5,5.62,3.33,4.332,6.42C608.588,1230.987,606.28,1230.092,604.418,1229.293Z" transform="translate(-595.861 -1217.754)" fill="#ffb27d"/>
              </g>
              <g id="Grupo_128341" data-name="Grupo 128341" transform="translate(1.571 0.948)">
                <path id="Trazado_187240" data-name="Trazado 187240" d="M612.114,1231.4a.712.712,0,0,1-.272-.053,10.176,10.176,0,0,1-2.626-2.085.782.782,0,0,1-.175-.652,4.6,4.6,0,0,1,1.58-2.612c.908-.61,2.65.243,3.4,1.083.574.64-.066,2.521-.743,3.483C612.81,1231.239,612.4,1231.4,612.114,1231.4Zm-.739-5.133a.86.86,0,0,0-.487.127,4.13,4.13,0,0,0-1.373,2.262.383.383,0,0,0,.042.274l.005.005a10.029,10.029,0,0,0,2.458,1.969c.216.083.539-.143.869-.615.735-1.047,1.073-2.564.779-2.892A3.747,3.747,0,0,0,611.375,1226.271Z" transform="translate(-609.033 -1225.795)" fill="#f59a6d"/>
              </g>
              <g id="Grupo_128342" data-name="Grupo 128342" transform="translate(0 4.771)">
                <path id="Trazado_187241" data-name="Trazado 187241" d="M602.721,1264.168a.224.224,0,0,1-.1-.024c-.26-.126-6.362-3.117-6.909-5.626a.237.237,0,0,1,.182-.283.243.243,0,0,1,.284.183c.5,2.285,6.59,5.268,6.652,5.3a.238.238,0,0,1-.1.452Z" transform="translate(-595.702 -1258.232)" fill="#f59a6d"/>
              </g>
            </g>
            <g id="Grupo_128347" data-name="Grupo 128347" transform="translate(18.541)">
              <g id="Grupo_128344" data-name="Grupo 128344" transform="translate(0.073)">
                <path id="Trazado_187242" data-name="Trazado 187242" d="M662.719,1194.057l-4.975-3.876a3.208,3.208,0,0,1-1.454-4.254h0a3.111,3.111,0,0,1,4.206-1.416l4.051,2.031c2.736,1.42,4.516,3.055,3.291,5.574C666.108,1195.674,664.23,1194.814,662.719,1194.057Z" transform="translate(-655.973 -1184.175)" fill="#ffb27d"/>
              </g>
              <g id="Grupo_128345" data-name="Grupo 128345" transform="translate(1.362 0.803)">
                <path id="Trazado_187243" data-name="Trazado 187243" d="M669.378,1195.709a.585.585,0,0,1-.261-.059,8.477,8.477,0,0,1-2.085-1.869.657.657,0,0,1-.113-.552,3.849,3.849,0,0,1,1.445-2.105c.787-.471,2.2.329,2.781,1.067.449.566-.182,2.11-.8,2.883C669.947,1195.58,669.615,1195.709,669.378,1195.709Zm-.459-4.328a.668.668,0,0,0-.349.085,3.479,3.479,0,0,0-1.257,1.826.325.325,0,0,0,.022.231l0,.005a8.354,8.354,0,0,0,1.949,1.764c.171.078.452-.091.748-.466.65-.817,1.024-2.1.8-2.386A3.037,3.037,0,0,0,668.919,1191.381Z" transform="translate(-666.905 -1190.984)" fill="#f59a6d"/>
              </g>
              <g id="Grupo_128346" data-name="Grupo 128346" transform="translate(0 3.822)">
                <path id="Trazado_187244" data-name="Trazado 187244" d="M660.924,1221.891a.2.2,0,0,1-.1-.026c-.21-.119-5.145-2.914-5.476-5.037a.2.2,0,0,1,.166-.228.2.2,0,0,1,.228.166c.3,1.935,5.228,4.723,5.277,4.75a.2.2,0,0,1,.077.272A.2.2,0,0,1,660.924,1221.891Z" transform="translate(-655.349 -1216.599)" fill="#f59a6d"/>
              </g>
            </g>
          </g>
        </g>
        <g id="Grupo_128378" data-name="Grupo 128378" transform="translate(362.693 408.004)">
          <g id="Grupo_128359" data-name="Grupo 128359" transform="translate(36.407 37.321)">
            <g id="Grupo_128358" data-name="Grupo 128358">
              <g id="Grupo_128350" data-name="Grupo 128350">
                <path id="Trazado_187245" data-name="Trazado 187245" d="M2217.8,972.3c2.7,6.4,4.408,9.407,11.017,11.534,2.236.72,6.159,4.735,7.277,5.354,3.168,1.753,3.7.24,5.082.721,3.4,1.18,20.072,25.5,22.475,26.819,3.269,1.788.78-11.089.78-11.089l17.319-19.9s-12.571-11.734-17.915-16.133c-1.954-1.608-4.679-3.15-5.872-7.007-1.663-5.378-7.365-9.525-12.236-13.813a78.031,78.031,0,0,0-8.687-6.568c-1.952-1.108-7.167-7.283-9.465-5.319-4.061,3.471,8.566,14.324,6.774,17.652-1.275,2.367-6.531,3.082-14.911,2.5C2214,956.681,2213.711,962.6,2217.8,972.3Z" transform="translate(-2215.009 -936.517)" fill="#ffb27d"/>
              </g>
              <g id="Grupo_128352" data-name="Grupo 128352" transform="translate(27.795 33.683)">
                <g id="Grupo_128351" data-name="Grupo 128351">
                  <path id="Trazado_187246" data-name="Trazado 187246" d="M2459.037,1232.969a.264.264,0,0,1-.231.071,9.625,9.625,0,0,1-3.8-1.815,10.08,10.08,0,0,1-2.715-3.181,12.961,12.961,0,0,1-1.472-5.481.264.264,0,0,1,.526-.031,12.439,12.439,0,0,0,1.408,5.26,9.556,9.556,0,0,0,2.574,3.016,9.236,9.236,0,0,0,3.568,1.714.264.264,0,0,1,.138.448Z" transform="translate(-2450.821 -1222.283)" fill="#f59a6d"/>
                </g>
              </g>
              <g id="Grupo_128353" data-name="Grupo 128353" transform="translate(42.532 40.587)">
                <path id="Trazado_187247" data-name="Trazado 187247" d="M2610.208,1293.564v17.953c0,13.208-7.817,23.66-19.484,30.174-8.186-12.616-14.071-22.988-14.2-23.627a31.623,31.623,0,0,1,.446-14.841h0c3.872-14.135,16.894-22.687,17.418-22.358C2594.525,1280.952,2600.877,1286,2610.208,1293.564Z" transform="translate(-2575.849 -1280.853)" fill="#ef8062"/>
              </g>
              <g id="Grupo_128354" data-name="Grupo 128354" transform="translate(13.712 1.172)">
                <path id="Trazado_187248" data-name="Trazado 187248" d="M2334.517,949.962c-.975,0-2.781-2.641-3.141-3.183a.205.205,0,1,1,.342-.227c.84,1.264,2.239,3,2.78,3a.2.2,0,0,0,.032,0,1.451,1.451,0,0,0,1.062-.652.209.209,0,0,1,.278-.085.205.205,0,0,1,.084.278,1.86,1.86,0,0,1-1.367.866A.45.45,0,0,1,2334.517,949.962Z" transform="translate(-2331.342 -946.46)" fill="#f59a6d"/>
              </g>
              <g id="Grupo_128356" data-name="Grupo 128356" transform="translate(21.923 51.712)">
                <g id="Grupo_128355" data-name="Grupo 128355">
                  <path id="Trazado_187249" data-name="Trazado 187249" d="M2407.584,1375.682a.251.251,0,0,1-.037.03,7.384,7.384,0,0,1-4.592,1.455,4.329,4.329,0,0,1-1.828-.471.264.264,0,0,1,.268-.454h0a3.922,3.922,0,0,0,1.624.4,6.891,6.891,0,0,0,4.232-1.367.264.264,0,0,1,.333.406Z" transform="translate(-2400.998 -1375.231)" fill="#f59a6d"/>
                </g>
              </g>
              <g id="Grupo_128357" data-name="Grupo 128357" transform="translate(43.513 59.419)">
                <path id="Trazado_187250" data-name="Trazado 187250" d="M2592.119,1473.346l-.057-.307c.029-.005,2.907-.559,3.949-2.359a3.1,3.1,0,0,0,.139-2.685c-1.456-4.137-11.881-23.573-11.987-23.768l.264-.164a65.953,65.953,0,0,0,19.087,16.626,2.08,2.08,0,0,0,1.782.145,2.116,2.116,0,0,0,1.262-1.293c1.588-4.58,4.906-13.129,9.292-18.923l.249.186c-4.36,5.761-7.666,14.276-9.248,18.84a2.423,2.423,0,0,1-3.493,1.314,67.91,67.91,0,0,1-18.072-15.29c2.534,4.757,9.942,18.769,11.157,22.223a3.407,3.407,0,0,1-.164,2.945C2595.166,1472.762,2592.242,1473.322,2592.119,1473.346Z" transform="translate(-2584.164 -1440.619)" fill="#b75e4b"/>
              </g>
            </g>
          </g>
          <g id="Grupo_128364" data-name="Grupo 128364" transform="translate(0)">
            <g id="Grupo_128360" data-name="Grupo 128360" transform="translate(31.712 48.617)">
              <path id="Trazado_187251" data-name="Trazado 187251" d="M2212.161,1072.491l-9.322,6.231-27.657-38.356,11.987-8.012Z" transform="translate(-2175.182 -1032.354)" fill="#12263f"/>
            </g>
            <g id="Grupo_128361" data-name="Grupo 128361" transform="translate(60.673 86.889)">
              <rect id="Rectángulo_37523" data-name="Rectángulo 37523" width="2.303" height="19.279" transform="matrix(0.831, -0.556, 0.556, 0.831, 0, 1.28)" fill="#331832"/>
            </g>
            <g id="Grupo_128362" data-name="Grupo 128362">
              <path id="Trazado_187252" data-name="Trazado 187252" d="M1952.239,666.15l-17.488,11.688-28.114-48.058a3.642,3.642,0,0,1,1.12-4.867l6.593-4.406a3.642,3.642,0,0,1,4.957.87Z" transform="translate(-1906.138 -619.893)" fill="#1d7e96"/>
            </g>
            <g id="Grupo_128363" data-name="Grupo 128363" transform="translate(28.613 46.257)">
              <path id="Trazado_187253" data-name="Trazado 187253" d="M2148.889,1024.019l4.982,1.5,11.84-7.914.665-5.275Z" transform="translate(-2148.889 -1012.33)" fill="#331832"/>
            </g>
          </g>
          <g id="Grupo_128377" data-name="Grupo 128377" transform="translate(33.887 57.539)">
            <g id="Grupo_128365" data-name="Grupo 128365" transform="translate(4.275 15.491)">
              <path id="Trazado_187254" data-name="Trazado 187254" d="M2235.164,1250.522l8.006-2.724a4.575,4.575,0,0,0,3.913-4.71h0a3.81,3.81,0,0,0-4.4-3.582l-5.952.807c-4.044.606-7.034,1.891-6.813,5.578C2230.225,1251.095,2232.943,1250.823,2235.164,1250.522Z" transform="translate(-2229.902 -1239.468)" fill="#ffb27d"/>
            </g>
            <g id="Grupo_128366" data-name="Grupo 128366" transform="translate(14.538 16.776)">
              <path id="Trazado_187255" data-name="Trazado 187255" d="M2321.5,1254.326a11.857,11.857,0,0,1-3.37,1.411c-1.266.147-1.545-4.126-.584-4.723s2.963-1,3.584-.2S2322.158,1253.958,2321.5,1254.326Z" transform="translate(-2316.972 -1250.369)" fill="#ef8062"/>
            </g>
            <g id="Grupo_128367" data-name="Grupo 128367" transform="translate(0.998 7.174)">
              <path id="Trazado_187256" data-name="Trazado 187256" d="M2206.991,1179.167l8.509-1.3a4.332,4.332,0,0,0,4.528-4.125h0a4.331,4.331,0,0,0-4.124-4.528l-6.193-.29c-4.214-.137-7.421.626-7.6,4.473C2201.864,1178.827,2204.681,1179.058,2206.991,1179.167Z" transform="translate(-2202.098 -1168.907)" fill="#ffb27d"/>
            </g>
            <g id="Grupo_128368" data-name="Grupo 128368" transform="translate(11.762 8.771)">
              <path id="Trazado_187257" data-name="Trazado 187257" d="M2297.954,1186.919a11.425,11.425,0,0,1-3.611.822c-1.314-.087-1.133-4.551-.082-4.986s3.147-.472,3.7.472S2298.668,1186.664,2297.954,1186.919Z" transform="translate(-2293.415 -1182.461)" fill="#ef8062"/>
            </g>
            <g id="Grupo_128369" data-name="Grupo 128369" transform="translate(7.746 14.582)">
              <path id="Trazado_187258" data-name="Trazado 187258" d="M2259.619,1234.555a.274.274,0,0,1,0-.548c.078,0,7.815-.031,9.44-2.145a.274.274,0,0,1,.433.334c-1.788,2.324-9.543,2.357-9.873,2.359Z" transform="translate(-2259.346 -1231.755)" fill="#f59a6d"/>
            </g>
            <g id="Grupo_128370" data-name="Grupo 128370">
              <path id="Trazado_187259" data-name="Trazado 187259" d="M2197.607,1116.038l5.425-.824c1.83-.018,4.321-2.055,4.3-3.885h0a3.315,3.315,0,0,0-3.347-3.282l-4.745.046c-3.226.077-5.644.8-5.613,3.746C2193.674,1116,2195.837,1116.055,2197.607,1116.038Z" transform="translate(-2193.631 -1108.046)" fill="#ffb27d"/>
            </g>
            <g id="Grupo_128371" data-name="Grupo 128371" transform="translate(8.209 1.005)">
              <path id="Trazado_187260" data-name="Trazado 187260" d="M2266.816,1119.9a8.739,8.739,0,0,1-2.724.784c-1.008-.01-1.062-3.429-.278-3.807s2.385-.5,2.845.2S2267.351,1119.671,2266.816,1119.9Z" transform="translate(-2263.276 -1116.571)" fill="#ef8062"/>
            </g>
            <g id="Grupo_128372" data-name="Grupo 128372" transform="translate(5.38 5.306)">
              <path id="Trazado_187261" data-name="Trazado 187261" d="M2239.481,1155.616a.209.209,0,0,1-.012-.417c.06,0,5.97-.36,7.121-2.045a.21.21,0,0,1,.291-.055.207.207,0,0,1,.054.29c-1.265,1.854-7.19,2.214-7.442,2.228Z" transform="translate(-2239.272 -1153.062)" fill="#f59a6d"/>
            </g>
            <g id="Grupo_128373" data-name="Grupo 128373" transform="translate(11.755 22.295)">
              <path id="Trazado_187262" data-name="Trazado 187262" d="M2298.6,1306.782l5.543-3.287a3.243,3.243,0,0,0,1.99-4.132h0a3.242,3.242,0,0,0-4.131-1.99l-4.381,1.533c-2.964,1.085-4.978,2.513-4.023,5.233C2294.945,1307.982,2296.967,1307.354,2298.6,1306.782Z" transform="translate(-2293.359 -1297.191)" fill="#ffb27d"/>
            </g>
            <g id="Grupo_128374" data-name="Grupo 128374" transform="translate(19.146 23.302)">
              <path id="Trazado_187263" data-name="Trazado 187263" d="M2359.962,1308.489a8.553,8.553,0,0,1-2.277,1.582c-.937.307-2.061-2.843-1.453-3.439s2.054-1.209,2.7-.707S2360.387,1308.112,2359.962,1308.489Z" transform="translate(-2356.06 -1305.739)" fill="#ef8062"/>
            </g>
            <g id="Grupo_128375" data-name="Grupo 128375" transform="translate(16.209 25.684)">
              <path id="Trazado_187264" data-name="Trazado 187264" d="M2331.393,1332.571a.244.244,0,0,1-.1-.464c.059-.028,5.87-2.771,7-3.857a3.266,3.266,0,0,0,1.1-2.066.243.243,0,0,1,.243-.24h0a.243.243,0,0,1,.24.245,3.672,3.672,0,0,1-1.249,2.412c-1.183,1.14-6.885,3.833-7.127,3.947A.248.248,0,0,1,2331.393,1332.571Z" transform="translate(-2331.15 -1325.944)" fill="#f59a6d"/>
            </g>
            <g id="Grupo_128376" data-name="Grupo 128376" transform="translate(12.721 22.336)">
              <path id="Trazado_187265" data-name="Trazado 187265" d="M2301.8,1300.924a.243.243,0,0,1-.1-.466c.044-.019,4.436-1.954,7.16-2.905a.238.238,0,0,1,.31.148.243.243,0,0,1-.149.31c-2.707.947-7.081,2.873-7.124,2.891A.246.246,0,0,1,2301.8,1300.924Z" transform="translate(-2301.556 -1297.537)" fill="#f59a6d"/>
            </g>
          </g>
        </g>
      </g>
    </g>
  </g>
</svg>
