<svg xmlns="http://www.w3.org/2000/svg" width="70" height="69.985" viewBox="0 0 70 69.985">
  <g id="Grupo_121162" data-name="Grupo 121162" transform="translate(686.428 -2096.196)">
    <path id="Trazado_183163" data-name="Trazado 183163" d="M-648.966,2096.2a21.319,21.319,0,0,0,2.722.388,34.87,34.87,0,0,1,23.527,14.58,1.233,1.233,0,0,1-.144,1.71,1.35,1.35,0,0,1-1.667-.672,32.206,32.206,0,0,0-9.508-8.974,25.143,25.143,0,0,0-5.363-2.644c-.887-.322-1.76-.691-2.662-.959a32.528,32.528,0,0,0-13.3-1.131,32.317,32.317,0,0,0-13.35,4.675,32.581,32.581,0,0,0-12.859,14.758,32.279,32.279,0,0,0-2.491,17.812,31.943,31.943,0,0,0,5,13.374,1.317,1.317,0,0,1,.008,1.79c-.91.282-1.192.183-1.706-.6-12.89-19.744-2.8-46.544,19.888-52.828a35.359,35.359,0,0,1,6.232-1.135c.122-.011.284.052.334-.139Z" fill="#ff8900"/>
    <path id="Trazado_183164" data-name="Trazado 183164" d="M-582.494,2200.339c.944-.179,1.412.292,1.791,1.121a36.064,36.064,0,0,1,3.122,11.478c.016.158-.1.374.144.47v5.742a8.811,8.811,0,0,0-.378,2.3,34.841,34.841,0,0,1-27.144,28.991c-12.937,2.595-24.042-.979-33.222-10.473-.678-.7-.687-.961-.188-1.795a1.293,1.293,0,0,1,1.687.389,31.748,31.748,0,0,0,8.153,6.441,32.718,32.718,0,0,0,21.329,3.8,27.978,27.978,0,0,0,6.792-1.919,2.946,2.946,0,0,0,.388-.1A32.482,32.482,0,0,0-586.48,2236.5,32.39,32.39,0,0,0-579.591,2214a32.313,32.313,0,0,0-2.978-11.617A1.73,1.73,0,0,1-582.494,2200.339Z" transform="translate(-38.992 -85.084)" fill="#ff8900"/>
    <path id="Trazado_183168" data-name="Trazado 183168" d="M-587.36,2216.29c.889-.116,1.1,0,1.549.854a15.318,15.318,0,0,0,15.211,8.313,15.382,15.382,0,0,0,13.42-12.64,15.276,15.276,0,0,0-10.927-17.2,15.285,15.285,0,0,0-19.148,12.328,16.491,16.491,0,0,0-.087,4.018,1.21,1.21,0,0,1-.869,1.462c-.842-.161-1.117-.447-1.191-1.234a17.326,17.326,0,0,1,10-17.619,17.317,17.317,0,0,1,24.169,12.4,17.243,17.243,0,0,1-13.966,20.354,17.208,17.208,0,0,1-18.542-9.42A1.146,1.146,0,0,1-587.36,2216.29Z" transform="translate(-79.229 -79.097)" fill="#ff8900"/>
    <path id="Trazado_183169" data-name="Trazado 183169" d="M-437.392,2283.663a30.225,30.225,0,0,1-22.546,28.825c-.742.2-1.29-.026-1.467-.587-.209-.663.106-1.175.924-1.392a27.754,27.754,0,0,0,13.474-8.038,27.771,27.771,0,0,0,7.208-14.878c.215-1.354.233-2.717.344-4.075.075-.917.419-1.256,1.125-1.2C-437.7,2282.37-437.381,2282.83-437.392,2283.663Z" transform="translate(-183.857 -152.111)" fill="#ff8900"/>
    <path id="Trazado_183170" data-name="Trazado 183170" d="M-609.609,2151.518a1.025,1.025,0,0,1,1.2.824,1.024,1.024,0,0,1-.813,1.171c-.616.158-1.256.225-1.866.4-8.941,2.558-14.638,8.3-16.989,17.326-.034.132-.067.264-.1.4a1.061,1.061,0,0,1-1.28.915,1.086,1.086,0,0,1-.717-1.414,25.3,25.3,0,0,1,20.2-19.577C-609.811,2151.53-609.651,2151.522-609.609,2151.518Z" transform="translate(-45.945 -45.211)" fill="#ff8900"/>
    <path id="Trazado_183171" data-name="Trazado 183171" d="M-660.053,2183.913a30.142,30.142,0,0,1,10.193-21.959c.7-.637,1.339-.647,1.761-.053a1.048,1.048,0,0,1-.249,1.454,28.431,28.431,0,0,0-6.294,7.927,27.788,27.788,0,0,0-3.275,11.729c-.025.477-.048.955-.085,1.431-.058.763-.378,1.1-1.024,1.086-.612-.01-.974-.4-1.025-1.125C-660.061,2184.267-660.053,2184.13-660.053,2183.913Z" transform="translate(-21.554 -53.344)" fill="#ff8900"/>
    <path id="Trazado_183172" data-name="Trazado 183172" d="M-499.48,2377.182a1.042,1.042,0,0,1-.992-.979c-.047-.6.347-1.042,1.13-1.079a27.132,27.132,0,0,0,5.8-.779,23.088,23.088,0,0,0,11.721-7.37c.089-.1.171-.214.267-.31a1,1,0,0,1,1.458-.128.988.988,0,0,1,.089,1.461,23.147,23.147,0,0,1-3.206,3.253,25.272,25.272,0,0,1-13.61,5.788C-497.615,2377.13-498.415,2377.127-499.48,2377.182Z" transform="translate(-151.976 -220.732)" fill="#ff8900"/>
    <path id="Trazado_183173" data-name="Trazado 183173" d="M-553.5,2122.405a6.34,6.34,0,0,1,.736.115.933.933,0,0,1,.731,1.02.931.931,0,0,1-.838.932c-1.081.176-2.177.089-3.265.214a28.777,28.777,0,0,0-8.01,2.107c-.147.062-.289.137-.439.188a1.04,1.04,0,0,1-1.382-.526,1.022,1.022,0,0,1,.574-1.354,26.182,26.182,0,0,1,3.764-1.408A32.438,32.438,0,0,1-553.5,2122.405Z" transform="translate(-98.383 -21.42)" fill="#ff8900"/>
    <path id="Trazado_183174" data-name="Trazado 183174" d="M-373.983,2295.68a25.333,25.333,0,0,1-1.712,6.992,1.032,1.032,0,0,1-1.371.676,1.015,1.015,0,0,1-.538-1.42,25.655,25.655,0,0,0,1.589-6.466,1.021,1.021,0,0,1,1.159-.973A1.058,1.058,0,0,1-373.983,2295.68Z" transform="translate(-252.316 -162.053)" fill="#ff8900"/>
    <path id="Trazado_183176" data-name="Trazado 183176" d="M-548.221,2220.75c-.183.816-.768.883-1.468.848-4.436-.222-7.9,1.533-10.014,5.433a9.753,9.753,0,0,0,.875,11.216,9.719,9.719,0,0,0,10.388,3.852,9.827,9.827,0,0,0,8.03-8.217,9.978,9.978,0,0,0-4.083-10.323c-.788-.609-.875-.811-.59-1.657.724-.586.993-.6,1.748-.062a12.483,12.483,0,0,1,4.869,13.021,12.465,12.465,0,0,1-10.43,9.43,12.461,12.461,0,0,1-14.111-13.325,12.519,12.519,0,0,1,13.515-11.418C-548.6,2219.635-548.342,2219.878-548.221,2220.75Z" transform="translate(-100.843 -100.77)" fill="#ff8900"/>
    <path id="Trazado_183177" data-name="Trazado 183177" d="M-511.753,2274.71a3.757,3.757,0,0,1-3.669-3.8,3.755,3.755,0,0,1,3.842-3.7,3.748,3.748,0,0,1,3.663,3.871A3.747,3.747,0,0,1-511.753,2274.71Zm-1.607-3.751a1.681,1.681,0,0,0,1.678,1.693,1.679,1.679,0,0,0,1.711-1.728,1.676,1.676,0,0,0-1.712-1.658A1.677,1.677,0,0,0-513.361,2270.959Z" transform="translate(-139.76 -139.764)" fill="#ff8900"/>
    <path id="Trazado_183178" data-name="Trazado 183178" d="M-504.137,2280.174a1.676,1.676,0,0,1,1.677-1.693,1.676,1.676,0,0,1,1.712,1.657,1.679,1.679,0,0,1-1.711,1.728A1.681,1.681,0,0,1-504.137,2280.174Z" transform="translate(-148.984 -148.98)" fill="#ff8900"/>
  </g>
</svg>
