<svg xmlns="http://www.w3.org/2000/svg" width="100" height="99.976" viewBox="0 0 100 99.976">
  <g id="Grupo_128064" data-name="Grupo 128064" transform="translate(1011.363 -1825.408)">
    <path id="Trazado_186643" data-name="Trazado 186643" d="M-883.966,1935.808c0-.357-.02-.714-.03-1.071l-4.016,0c-.261,1.225-.942,1.912-1.919,1.936s-1.631-.613-2.037-1.944l-5.2.012c-.315,1.5-.906,1.941-2.641,1.941h-68.44c-.135,0-.253,0-.361,0-.149.793-.224,1.615-.312,2.437-.257,2.417-.449,4.839-.592,7.264q0,6.333,0,12.667a3.073,3.073,0,0,1-.394,1.652q0,.686-.005,1.371-.007,2.609,0,5.219a16.06,16.06,0,0,1,18.879,2.8,16.2,16.2,0,0,1-.769,23.432h1.035q8.829,0,17.658,0c1.7,0,2.188.359,2.677,1.94l5.375,0a1.965,1.965,0,0,1,1.674-1.869,1.879,1.879,0,0,1,1.859.787c.27.33.227.725.34,1.085l3.564-.006a2.053,2.053,0,0,1,2.361-1.931q10.977-.013,21.955,0c1.558,0,2.3.788,2.312,2.372.012,1.431,0,2.862,0,4.293a3.55,3.55,0,0,0,3.5,3.855,3.538,3.538,0,0,0,3.52-3.84q.01-17.125,0-34.249Q-883.965,1950.883-883.966,1935.808Zm-70.26,26.058a7.468,7.468,0,0,1-7.265-7.53,7.471,7.471,0,0,1,7.5-7.3,7.5,7.5,0,0,1,7.324,7.484A7.493,7.493,0,0,1-954.226,1961.866Zm18.458-14.826a7.444,7.444,0,0,1,7.3,7.559,7.447,7.447,0,0,1-7.492,7.269,7.5,7.5,0,0,1-7.325-7.46A7.507,7.507,0,0,1-935.768,1947.04Zm-.113,35.138a7.511,7.511,0,0,1-7.4-7.384,7.517,7.517,0,0,1,7.438-7.447,7.455,7.455,0,0,1,7.382,7.385A7.451,7.451,0,0,1-935.881,1982.178Zm36.577-35.138a7.5,7.5,0,0,1,7.316,7.493,7.493,7.493,0,0,1-7.57,7.333,7.466,7.466,0,0,1-7.256-7.538A7.471,7.471,0,0,1-899.3,1947.04Zm-18.354,35.141a7.455,7.455,0,0,1-7.373-7.393,7.455,7.455,0,0,1,7.324-7.439,7.478,7.478,0,0,1,7.479,7.391A7.486,7.486,0,0,1-917.658,1982.181Zm.064-20.311a7.46,7.46,0,0,1-7.437-7.425,7.456,7.456,0,0,1,7.358-7.407,7.485,7.485,0,0,1,7.446,7.426A7.48,7.48,0,0,1-917.594,1961.87Zm18.155,20.308a7.474,7.474,0,0,1-7.377-7.423,7.475,7.475,0,0,1,7.392-7.407,7.5,7.5,0,0,1,7.435,7.374A7.5,7.5,0,0,1-899.439,1982.178Z" transform="translate(-31.304 -82.577)" fill="#ccfff9"/>
    <path id="Trazado_186644" data-name="Trazado 186644" d="M-928.476,1852.166c-.315,1.5-.906,1.941-2.641,1.941h-68.44c-1.264,0-1.264,0-1.264,1.28q0,10.545,0,21.089c0,1.512-.643,2.369-1.8,2.451a1.889,1.889,0,0,1-2.067-1.644,5.3,5.3,0,0,1-.036-.779q0-16.207,0-32.414a9.585,9.585,0,0,1,5.57-9.107,9.147,9.147,0,0,1,4.228-.991c2.506.007,5.012-.027,7.517.022.638.012.75-.181.731-.752a17.155,17.155,0,0,1,.082-2.728,5.855,5.855,0,0,1,5.907-5.124,5.832,5.832,0,0,1,5.669,5.384,13.715,13.715,0,0,1,.029,2.145c-.077.83.141,1.086,1.038,1.08,6.378-.047,12.757-.025,19.136-.025,3.938,0,7.876-.018,11.813.017.681.006.874-.163.852-.851a8.689,8.689,0,0,1,.712-4.658,5.833,5.833,0,0,1,6.34-2.952,5.768,5.768,0,0,1,4.608,5.346,17.208,17.208,0,0,1,.025,2.243c-.047.672.142.884.845.872,2.6-.044,5.209.054,7.81-.033a9.942,9.942,0,0,1,10.25,7.933c.027.131.037.252.2.284v77.33c-.356.159-.312.524-.414.811a7.665,7.665,0,0,1-3.217,3.986,27.17,27.17,0,0,1-2.618,1.061h-87.873c-.064-.289-.34-.277-.534-.344a7.357,7.357,0,0,1-5.312-7.033c-.051-1.625-.033-3.252-.006-4.878a2.013,2.013,0,0,1,2.207-2.175c1.584-.03,3.169-.007,4.968-.007-4.192-3.948-6.033-8.647-5.368-14.192a15.387,15.387,0,0,1,5.646-10.238,16.026,16.026,0,0,1,21.544,1,16.2,16.2,0,0,1-.769,23.432h1.035q8.829,0,17.658,0c1.7,0,2.188.359,2.676,1.939-.469,1.629-.914,1.965-2.637,1.965q-20.3,0-40.6.01c-.8,0-1.861-.367-2.324.168-.392.452-.131,1.485-.132,2.26,0,2.852,1.323,4.188,4.157,4.188q38.455,0,76.911,0a1.525,1.525,0,0,0,.993-.134c-.976-1.733-.883-3.631-.809-5.507.032-.826-.208-1-1.012-1-6.441.036-12.883.023-19.325.018-1.534,0-2.121-.495-2.408-1.969a2.053,2.053,0,0,1,2.361-1.93q10.977-.014,21.955,0c1.558,0,2.3.788,2.312,2.372.012,1.431,0,2.862,0,4.293a3.55,3.55,0,0,0,3.5,3.855,3.539,3.539,0,0,0,3.52-3.84q.01-17.125,0-34.249,0-15.076,0-30.151c0-.357-.02-.714-.03-1.071.008-2.83.076-5.662.008-8.49a5.683,5.683,0,0,0-5.432-5.713c-3.052-.146-6.116-.042-9.174-.063-.425,0-.568.145-.559.566.017.747.014,1.5-.031,2.244a5.742,5.742,0,0,1-4.326,5.275,5.839,5.839,0,0,1-6.272-2.3,6.9,6.9,0,0,1-1.059-4.657c.069-.973-.253-1.15-1.171-1.146-9.762.036-19.524.018-29.287.033-.765,0-1.753-.354-2.232.177-.364.4-.114,1.359-.139,2.069-.007.195-.021.39-.034.584a5.857,5.857,0,0,1-4.546,5.32,5.9,5.9,0,0,1-6.379-2.91,8.554,8.554,0,0,1-.747-4.556c.012-.531-.105-.72-.689-.711-2.44.038-4.881,0-7.321.02a5.865,5.865,0,0,0-6.126,6.149c-.017,1.757.04,3.516-.023,5.271-.027.755.21.9.92.9,5.141-.032,10.283-.017,15.424-.017h53.4C-929.371,1850.2-928.782,1850.648-928.476,1852.166Zm-53.117,46.638a12.1,12.1,0,0,0-12.1-12.084,12.148,12.148,0,0,0-12.083,12.127,12.142,12.142,0,0,0,12.126,12.084A12.1,12.1,0,0,0-981.593,1898.8Zm2.715-62.96c0-1.428.017-2.857,0-4.285-.02-1.366-.777-2.23-1.914-2.243a2.012,2.012,0,0,0-1.973,2.2q-.052,4.284,0,8.57a1.96,1.96,0,0,0,1.978,2.174c1.153-.012,1.888-.852,1.909-2.233S-978.878,1837.24-978.878,1835.844Zm44.522-.054c0-1.428.019-2.857-.006-4.285a1.978,1.978,0,0,0-1.87-2.185,2,2,0,0,0-2.014,2.157q-.061,4.333,0,8.667a1.928,1.928,0,0,0,2.028,2.112,1.942,1.942,0,0,0,1.854-2.181C-934.338,1838.647-934.356,1837.218-934.356,1835.79Z" fill="#010101"/>
    <path id="Trazado_186645" data-name="Trazado 186645" d="M-895.991,1890.409c-.306-1.518-.895-1.964-2.62-1.964h-53.4c-5.142,0-10.283-.015-15.424.017-.71,0-.947-.141-.92-.9.063-1.755.006-3.514.023-5.271a5.865,5.865,0,0,1,6.126-6.149c2.44-.018,4.881.018,7.321-.02.584-.009.7.18.689.711a8.553,8.553,0,0,0,.747,4.556,5.9,5.9,0,0,0,6.379,2.91,5.857,5.857,0,0,0,4.546-5.32c.013-.195.027-.39.034-.584.025-.71-.225-1.666.139-2.069.479-.531,1.467-.176,2.232-.177,9.762-.015,19.524,0,29.286-.033.918,0,1.241.174,1.171,1.146a6.9,6.9,0,0,0,1.059,4.657,5.839,5.839,0,0,0,6.272,2.3,5.742,5.742,0,0,0,4.326-5.275c.045-.746.047-1.5.031-2.244-.009-.42.134-.568.559-.566,3.058.021,6.122-.082,9.174.063a5.683,5.683,0,0,1,5.432,5.713c.068,2.828,0,5.66-.008,8.49l-4.016,0c-.319-1.54-1.427-2.28-2.664-1.8a2.244,2.244,0,0,0-1.292,1.788Z" transform="translate(-32.484 -38.243)" fill="#a9f73f"/>
    <path id="Trazado_186646" data-name="Trazado 186646" d="M-937.059,2182.948c.287,1.475.874,1.968,2.408,1.969,6.442.005,12.884.018,19.325-.018.8,0,1.044.173,1.012,1-.073,1.875-.167,3.774.809,5.507a1.525,1.525,0,0,1-.993.134q-38.455.009-76.911,0c-2.834,0-4.161-1.335-4.157-4.188,0-.776-.26-1.808.132-2.26.463-.535,1.525-.167,2.324-.168q20.3-.019,40.6-.01c1.722,0,2.168-.337,2.637-1.965l5.375,0c.269,1.312.954,1.982,2,1.956,1.026-.025,1.69-.718,1.872-1.953Z" transform="translate(-11.869 -270.067)" fill="#74ddf7"/>
    <path id="Trazado_186647" data-name="Trazado 186647" d="M-935.471,1992.335a7.471,7.471,0,0,1,7.5-7.3,7.5,7.5,0,0,1,7.324,7.484,7.493,7.493,0,0,1-7.561,7.342A7.468,7.468,0,0,1-935.471,1992.335Zm7.435-3.391a3.521,3.521,0,0,0-3.531,3.431,3.519,3.519,0,0,0,3.472,3.588,3.545,3.545,0,0,0,3.545-3.529A3.547,3.547,0,0,0-928.036,1988.943Z" transform="translate(-57.324 -120.576)" fill="#010101"/>
    <path id="Trazado_186648" data-name="Trazado 186648" d="M-779.08,1985.033a7.485,7.485,0,0,1,7.446,7.426,7.48,7.48,0,0,1-7.367,7.406,7.46,7.46,0,0,1-7.437-7.425A7.456,7.456,0,0,1-779.08,1985.033Zm.11,3.907a3.507,3.507,0,0,0-3.559,3.39,3.508,3.508,0,0,0,3.416,3.631,3.526,3.526,0,0,0,3.572-3.488A3.527,3.527,0,0,0-778.97,1988.94Z" transform="translate(-169.897 -120.573)" fill="#010101"/>
    <path id="Trazado_186649" data-name="Trazado 186649" d="M-711.982,1992.326a7.471,7.471,0,0,1,7.51-7.287,7.5,7.5,0,0,1,7.316,7.492,7.493,7.493,0,0,1-7.57,7.333A7.466,7.466,0,0,1-711.982,1992.326Zm7.37-3.382a3.519,3.519,0,0,0-3.464,3.593,3.522,3.522,0,0,0,3.535,3.424,3.549,3.549,0,0,0,3.478-3.5A3.546,3.546,0,0,0-704.612,1988.944Z" transform="translate(-226.135 -120.576)" fill="#010101"/>
    <path id="Trazado_186650" data-name="Trazado 186650" d="M-786.438,2075.488a7.455,7.455,0,0,1,7.324-7.439,7.478,7.478,0,0,1,7.479,7.391,7.487,7.487,0,0,1-7.431,7.442A7.456,7.456,0,0,1-786.438,2075.488Zm7.457-3.534a3.509,3.509,0,0,0-3.55,3.4,3.509,3.509,0,0,0,3.428,3.621,3.526,3.526,0,0,0,3.561-3.5A3.526,3.526,0,0,0-778.981,2071.953Z" transform="translate(-169.896 -183.278)" fill="#010101"/>
    <path id="Trazado_186651" data-name="Trazado 186651" d="M-711.984,2075.459a7.474,7.474,0,0,1,7.392-7.407,7.5,7.5,0,0,1,7.435,7.374,7.5,7.5,0,0,1-7.451,7.456A7.474,7.474,0,0,1-711.984,2075.459Zm7.4,3.517a3.551,3.551,0,0,0,3.523-3.45,3.549,3.549,0,0,0-3.5-3.567,3.52,3.52,0,0,0-3.509,3.45A3.519,3.519,0,0,0-704.587,2078.976Z" transform="translate(-226.135 -183.281)" fill="#010101"/>
    <path id="Trazado_186652" data-name="Trazado 186652" d="M-846.233,1992.6a7.447,7.447,0,0,1-7.492,7.269,7.5,7.5,0,0,1-7.325-7.46,7.507,7.507,0,0,1,7.516-7.368A7.445,7.445,0,0,1-846.233,1992.6Zm-3.9-.133a3.5,3.5,0,0,0-3.527-3.521,3.561,3.561,0,0,0-3.483,3.5,3.561,3.561,0,0,0,3.557,3.523A3.5,3.5,0,0,0-850.135,1992.466Z" transform="translate(-113.538 -120.577)" fill="#010101"/>
    <path id="Trazado_186653" data-name="Trazado 186653" d="M-846.228,2075.434a7.451,7.451,0,0,1-7.417,7.446,7.511,7.511,0,0,1-7.4-7.384,7.517,7.517,0,0,1,7.438-7.447A7.455,7.455,0,0,1-846.228,2075.434Zm-3.905.1a3.5,3.5,0,0,0-3.471-3.578,3.564,3.564,0,0,0-3.538,3.444,3.561,3.561,0,0,0,3.5,3.577A3.5,3.5,0,0,0-850.133,2075.532Z" transform="translate(-113.54 -183.279)" fill="#010101"/>
    <path id="Trazado_186654" data-name="Trazado 186654" d="M-651.3,1928.757a2.244,2.244,0,0,1,1.292-1.788c1.237-.484,2.345.256,2.664,1.8-.261,1.225-.942,1.912-1.919,1.936S-650.893,1930.088-651.3,1928.757Z" transform="translate(-271.974 -76.603)" fill="#010101"/>
    <path id="Trazado_186655" data-name="Trazado 186655" d="M-782.685,2177.1c-.182,1.236-.846,1.929-1.872,1.953-1.047.025-1.732-.645-2-1.956a1.966,1.966,0,0,1,1.674-1.869,1.88,1.88,0,0,1,1.859.787C-782.756,2176.344-782.8,2176.739-782.685,2177.1Z" transform="translate(-169.806 -264.213)" fill="#010101"/>
    <path id="Trazado_186656" data-name="Trazado 186656" d="M-964.354,2088.1a12.1,12.1,0,0,1-12.061,12.127,12.142,12.142,0,0,1-12.126-12.084,12.148,12.148,0,0,1,12.083-12.127A12.1,12.1,0,0,1-964.354,2088.1ZM-978.6,2094.4a2.279,2.279,0,0,0,1.7-.855q3.549-3.551,7.1-7.1a4.237,4.237,0,0,0,.557-.673,1.774,1.774,0,0,0-.093-2.178,1.835,1.835,0,0,0-1.989-.705,2.668,2.668,0,0,0-1.281.845q-2.1,2.1-4.205,4.2c-.575.573-1.142,1.558-1.749,1.587-.7.034-1.2-1.039-1.828-1.593-.049-.043-.091-.093-.139-.137-1.052-.983-2.185-1.056-3.015-.192a1.99,1.99,0,0,0,.235,2.941c1.015,1.052,2.059,2.077,3.1,3.1A2.105,2.105,0,0,0-978.6,2094.4Z" transform="translate(-17.239 -189.299)" fill="#ff8900"/>
    <path id="Trazado_186657" data-name="Trazado 186657" d="M-890.681,1847.91c0,1.4.016,2.792,0,4.188s-.756,2.22-1.909,2.232a1.96,1.96,0,0,1-1.978-2.174q-.056-4.284,0-8.57a2.012,2.012,0,0,1,1.973-2.2c1.137.012,1.894.877,1.914,2.243C-890.664,1845.054-890.681,1846.482-890.681,1847.91Z" transform="translate(-88.197 -12.067)" fill="#fdfdfd"/>
    <path id="Trazado_186658" data-name="Trazado 186658" d="M-708.706,1847.863c0,1.428.018,2.857-.005,4.285a1.942,1.942,0,0,1-1.854,2.181,1.928,1.928,0,0,1-2.028-2.112q-.068-4.332,0-8.667a2,2,0,0,1,2.014-2.157,1.978,1.978,0,0,1,1.87,2.185C-708.686,1845.006-708.706,1846.435-708.706,1847.863Z" transform="translate(-225.65 -12.074)" fill="#fdfdfd"/>
    <path id="Trazado_186659" data-name="Trazado 186659" d="M-915.979,2001a3.547,3.547,0,0,1,3.486,3.49,3.545,3.545,0,0,1-3.545,3.529,3.519,3.519,0,0,1-3.472-3.588A3.521,3.521,0,0,1-915.979,2001Z" transform="translate(-69.381 -132.636)" fill="#2df0da"/>
    <path id="Trazado_186660" data-name="Trazado 186660" d="M-766.908,2001a3.527,3.527,0,0,1,3.429,3.533,3.526,3.526,0,0,1-3.572,3.488,3.508,3.508,0,0,1-3.416-3.631A3.507,3.507,0,0,1-766.908,2001Z" transform="translate(-181.959 -132.633)" fill="#2df0da"/>
    <path id="Trazado_186661" data-name="Trazado 186661" d="M-692.551,2001.007a3.546,3.546,0,0,1,3.549,3.522,3.549,3.549,0,0,1-3.478,3.5,3.522,3.522,0,0,1-3.535-3.424A3.519,3.519,0,0,1-692.551,2001.007Z" transform="translate(-238.197 -132.639)" fill="#ff8900"/>
    <path id="Trazado_186662" data-name="Trazado 186662" d="M-766.921,2084.01a3.527,3.527,0,0,1,3.439,3.523,3.526,3.526,0,0,1-3.561,3.5,3.508,3.508,0,0,1-3.428-3.621A3.509,3.509,0,0,1-766.921,2084.01Z" transform="translate(-181.957 -195.335)" fill="#2df0da"/>
    <path id="Trazado_186663" data-name="Trazado 186663" d="M-692.525,2091.036a3.519,3.519,0,0,1-3.49-3.567,3.52,3.52,0,0,1,3.509-3.451,3.549,3.549,0,0,1,3.5,3.567A3.551,3.551,0,0,1-692.525,2091.036Z" transform="translate(-238.197 -195.342)" fill="#ff8900"/>
    <path id="Trazado_186664" data-name="Trazado 186664" d="M-838.075,2004.524a3.5,3.5,0,0,1-3.452,3.5,3.561,3.561,0,0,1-3.557-3.523,3.561,3.561,0,0,1,3.483-3.5A3.5,3.5,0,0,1-838.075,2004.524Z" transform="translate(-125.598 -132.636)" fill="#2df0da"/>
    <path id="Trazado_186665" data-name="Trazado 186665" d="M-838.079,2087.587a3.5,3.5,0,0,1-3.508,3.443,3.561,3.561,0,0,1-3.5-3.577,3.564,3.564,0,0,1,3.538-3.444A3.5,3.5,0,0,1-838.079,2087.587Z" transform="translate(-125.595 -195.334)" fill="#2df0da"/>
    <path id="Trazado_186666" data-name="Trazado 186666" d="M-964.855,2115.409a2.1,2.1,0,0,1-1.608-.754c-1.041-1.028-2.085-2.052-3.1-3.1a1.99,1.99,0,0,1-.235-2.941c.83-.863,1.962-.791,3.015.192.047.044.09.094.139.137.624.554,1.126,1.627,1.828,1.593.607-.029,1.174-1.015,1.749-1.588q2.107-2.1,4.205-4.2a2.67,2.67,0,0,1,1.281-.845,1.835,1.835,0,0,1,1.989.705,1.774,1.774,0,0,1,.093,2.178,4.248,4.248,0,0,1-.557.673q-3.544,3.556-7.1,7.1A2.279,2.279,0,0,1-964.855,2115.409Z" transform="translate(-30.984 -210.311)" fill="#010101"/>
  </g>
</svg>
