<svg xmlns="http://www.w3.org/2000/svg" xmlns:xlink="http://www.w3.org/1999/xlink" width="400" height="350" viewBox="0 0 400 350">
  <defs>
    <clipPath id="clip-path">
      <path id="Rectángulo_37307" data-name="Rectángulo 37307" d="M80,0H400a0,0,0,0,1,0,0V350a0,0,0,0,1,0,0H0a0,0,0,0,1,0,0V80A80,80,0,0,1,80,0Z" transform="translate(180 3467)" fill="#edffd5"/>
    </clipPath>
  </defs>
  <g id="Grupo_128813" data-name="Grupo 128813" transform="translate(-180 -3467)">
    <path id="Rectángulo_37283" data-name="Rectángulo 37283" d="M80,0H400a0,0,0,0,1,0,0V350a0,0,0,0,1,0,0H0a0,0,0,0,1,0,0V80A80,80,0,0,1,80,0Z" transform="translate(180 3467)" fill="#edffd5"/>
    <g id="Enmascarar_grupo_121" data-name="Enmascarar grupo 121" clip-path="url(#clip-path)">
      <g id="Grupo_122326" data-name="Grupo 122326" transform="translate(-1457.363 3355.625)">
        <g id="Grupo_122325" data-name="Grupo 122325" transform="translate(1715.681 138.465)">
          <g id="Grupo_122286" data-name="Grupo 122286" transform="translate(46.07 152.798)">
            <g id="Grupo_122285" data-name="Grupo 122285">
              <g id="Grupo_122284" data-name="Grupo 122284">
                <g id="Grupo_122283" data-name="Grupo 122283">
                  <g id="Grupo_122282" data-name="Grupo 122282">
                    <g id="Grupo_122281" data-name="Grupo 122281">
                      <g id="Grupo_122280" data-name="Grupo 122280">
                        <g id="Grupo_122279" data-name="Grupo 122279">
                          <g id="Grupo_122278" data-name="Grupo 122278">
                            <g id="Grupo_122277" data-name="Grupo 122277">
                              <path id="Trazado_184266" data-name="Trazado 184266" d="M1973.813,1190.059h149.823c-16.135-70.985,1.035-198.557,1.035-198.557H1972.878S1988.2,1119.706,1973.813,1190.059Z" transform="translate(-1972.878 -991.502)" fill="#45c6e5"/>
                            </g>
                          </g>
                        </g>
                      </g>
                    </g>
                  </g>
                </g>
              </g>
            </g>
          </g>
          <g id="Grupo_122294" data-name="Grupo 122294" transform="translate(19.71 0)">
            <g id="Grupo_122287" data-name="Grupo 122287" transform="translate(5.284 96.484)">
              <path id="Trazado_184267" data-name="Trazado 184267" d="M2025.415,724.325c-24.132-11.891-45.241-13.29-47.34-20.635s-4.9-26.58-4.9-26.58H1931.21s-2.8,19.236-4.9,26.58-23.208,8.744-47.34,20.635-23.756,48.115-23.756,48.115h193.954S2049.547,736.216,2025.415,724.325Z" transform="translate(-1855.217 -677.11)" fill="#ff9883"/>
            </g>
            <g id="Grupo_122292" data-name="Grupo 122292" transform="translate(56.536)">
              <g id="Grupo_122288" data-name="Grupo 122288" transform="translate(0 47.246)">
                <path id="Trazado_184268" data-name="Trazado 184268" d="M2157.526,413.848A11.875,11.875,0,0,0,2152.6,403.7c-2.6-1.708-5.907-2.3-8.264.22-7.9,8.447,1.245,22.415,11.179,22.4a1.773,1.773,0,0,0,1.852-1.764Z" transform="translate(-2141.34 -402.227)" fill="#f48978"/>
                <path id="Trazado_184269" data-name="Trazado 184269" d="M2170.485,439.015s3.935,3.267,6.2,10.739" transform="translate(-2165.265 -432.425)" fill="none" stroke="#e87b69" stroke-linecap="round" stroke-linejoin="round" stroke-width="2"/>
                <path id="Trazado_184270" data-name="Trazado 184270" d="M2159.293,458.5a11.938,11.938,0,0,1,5.283.556" transform="translate(-2156.077 -448.357)" fill="none" stroke="#e87b69" stroke-linecap="round" stroke-linejoin="round" stroke-width="2"/>
              </g>
              <g id="Grupo_122289" data-name="Grupo 122289" transform="translate(75.165 47.246)">
                <path id="Trazado_184271" data-name="Trazado 184271" d="M2560.971,413.848A11.876,11.876,0,0,1,2565.9,403.7c2.6-1.708,5.907-2.3,8.264.22,7.9,8.447-1.245,22.415-11.178,22.4a1.773,1.773,0,0,1-1.852-1.764Z" transform="translate(-2560.969 -402.227)" fill="#f48978"/>
                <path id="Trazado_184272" data-name="Trazado 184272" d="M2593.76,439.015s-3.935,3.267-6.205,10.739" transform="translate(-2582.793 -432.425)" fill="none" stroke="#e87b69" stroke-linecap="round" stroke-linejoin="round" stroke-width="2"/>
                <path id="Trazado_184273" data-name="Trazado 184273" d="M2609.176,458.5a11.938,11.938,0,0,0-5.283.556" transform="translate(-2596.205 -448.357)" fill="none" stroke="#e87b69" stroke-linecap="round" stroke-linejoin="round" stroke-width="2"/>
              </g>
              <path id="Trazado_184274" data-name="Trazado 184274" d="M2278.875,254.226c0,32.685-13.479,52.772-32.786,52.772s-32.786-20.087-32.786-52.772c0-36.861,14.679-47.766,32.786-47.766S2278.875,217.366,2278.875,254.226Z" transform="translate(-2200.412 -194.28)" fill="#ff9883"/>
              <path id="Trazado_184275" data-name="Trazado 184275" d="M2378.344,495.319a49.868,49.868,0,0,0-1.649,12.908c.029,3.092,3.835,4.869,7.037,2.766" transform="translate(-2334.536 -431.398)" fill="none" stroke="#e87b69" stroke-linecap="round" stroke-linejoin="round" stroke-width="3"/>
              <path id="Trazado_184276" data-name="Trazado 184276" d="M2275.371,475.367s-7.2,24.838-7.725,26.024c-1.588,3.594-4.42,4.474-5.484,5.372a34.779,34.779,0,0,0-6.219-5.941c-2.84-2.145-8.118-3.44-13.282-3.571h-.1c-5.164.131-10.443,1.426-13.282,3.571a34.768,34.768,0,0,0-6.219,5.941c-1.064-.9-3.9-1.777-5.484-5.372-.524-1.186-7.725-26.024-7.725-26.024s-3.4,26.527,3.445,45.481c3.264,9.033,18.254,19.655,29,19.655.106,0,.213,0,.321-.005s.214.005.32.005c10.743,0,25.732-10.622,29-19.655C2278.775,501.894,2275.371,475.367,2275.371,475.367Zm-20.622,40.049a26.637,26.637,0,0,1-24.281,0,4.094,4.094,0,0,1-1.637-5.489c3.421-6.156,11.977-6.31,13.777-6.31s10.356.154,13.777,6.31A4.094,4.094,0,0,1,2254.749,515.416Z" transform="translate(-2196.881 -415.02)" fill="#12263f"/>
              <g id="Grupo_122290" data-name="Grupo 122290" transform="translate(10.52)">
                <path id="Trazado_184277" data-name="Trazado 184277" d="M2258.773,170.827s-31.1,6.188-47.335.643c0,0-3.569,16.216-8.592,17.525,0,0-10.294-30.946,8.752-33.276,0,0,7.394-22.663,33.182-16.042,17.872,4.589,30.021,26.119,22.822,49.307A37.534,37.534,0,0,1,2258.773,170.827Z" transform="translate(-2200.069 -138.465)" fill="#12263f"/>
              </g>
              <path id="Trazado_184278" data-name="Trazado 184278" d="M2342.468,661.415c2.272,4.831,5.089,6.54,9.6,6.54s7.333-1.709,9.6-6.54a36.038,36.038,0,0,1-9.6,1.117A34.146,34.146,0,0,1,2342.468,661.415Z" transform="translate(-2306.441 -567.743)" fill="#fff"/>
              <g id="Grupo_122291" data-name="Grupo 122291" transform="translate(18.859 50.453)">
                <ellipse id="Elipse_5163" data-name="Elipse 5163" cx="3.031" cy="4.008" rx="3.031" ry="4.008" transform="translate(8.072 10.334)" fill="#12263f"/>
                <ellipse id="Elipse_5164" data-name="Elipse 5164" cx="3.031" cy="4.008" rx="3.031" ry="4.008" transform="translate(39.603 10.334)" fill="#12263f"/>
                <path id="Trazado_184279" data-name="Trazado 184279" d="M2246.63,429.906a17.689,17.689,0,0,1,8.966-4.706c5.292-1.013,7.435.946,8.533-1.466.712-1.565-.6-3.573-4.885-3.6-4.365-.032-8.614,2.049-10.195,3.669A8.824,8.824,0,0,0,2246.63,429.906Z" transform="translate(-2246.627 -420.129)" fill="#12263f"/>
                <path id="Trazado_184280" data-name="Trazado 184280" d="M2465.578,429.906a17.689,17.689,0,0,0-8.966-4.706c-5.292-1.013-7.435.946-8.533-1.466-.713-1.565.6-3.573,4.885-3.6,4.365-.032,8.614,2.049,10.2,3.669A8.824,8.824,0,0,1,2465.578,429.906Z" transform="translate(-2411.844 -420.129)" fill="#12263f"/>
              </g>
            </g>
            <g id="Grupo_122293" data-name="Grupo 122293" transform="translate(0 128.401)">
              <path id="Trazado_184281" data-name="Trazado 184281" d="M2002.847,870.594c-17.062-8.408-33.436-11.57-42.308-15.3-7.89,6.665-19.551,10.882-32.562,10.882s-24.672-4.217-32.562-10.882c-8.872,3.727-25.246,6.89-42.308,15.3-24.132,11.891-27.392,49.764-27.392,49.764h204.513S2026.979,882.485,2002.847,870.594Z" transform="translate(-1825.715 -855.297)" fill="#45c6e5"/>
            </g>
          </g>
          <g id="Grupo_122297" data-name="Grupo 122297" transform="translate(51.124 202.901)">
            <g id="Grupo_122295" data-name="Grupo 122295" transform="translate(136.51)">
              <line id="Línea_1344" data-name="Línea 1344" x2="5.185" y2="25.227" fill="none" stroke="#c13a3a" stroke-linecap="round" stroke-linejoin="round" stroke-width="5"/>
            </g>
            <g id="Grupo_122296" data-name="Grupo 122296">
              <line id="Línea_1345" data-name="Línea 1345" x1="5.185" y2="25.227" fill="none" stroke="#c13a3a" stroke-linecap="round" stroke-linejoin="round" stroke-width="5"/>
            </g>
          </g>
          <g id="Grupo_122324" data-name="Grupo 122324" transform="translate(0 146.593)">
            <g id="Grupo_122298" data-name="Grupo 122298" transform="translate(190.554 70.559)">
              <path id="Trazado_184282" data-name="Trazado 184282" d="M2825.894,1350.773h-46.4c1.308,17.008,2.992,35.889,4.476,43.023,2.95,14.184,5.4,15.513,22.315,22.07s27.3-14.167,25.806-24.341C2831.332,1386.309,2828.578,1368.042,2825.894,1350.773Z" transform="translate(-2779.499 -1350.773)" fill="#ff9883"/>
            </g>
            <g id="Grupo_122304" data-name="Grupo 122304" transform="translate(182.21)">
              <g id="Grupo_122303" data-name="Grupo 122303">
                <g id="Grupo_122302" data-name="Grupo 122302">
                  <g id="Grupo_122301" data-name="Grupo 122301">
                    <g id="Grupo_122300" data-name="Grupo 122300">
                      <g id="Grupo_122299" data-name="Grupo 122299">
                        <path id="Trazado_184283" data-name="Trazado 184283" d="M2790.985,1034.578s-22.868,18.4-50.978,16.371c0,0-7.092-32.022-7.092-43.311s19.451-50.779,19.451-50.779C2780.76,971.175,2789.976,1032.29,2790.985,1034.578Z" transform="translate(-2732.915 -956.859)" fill="#45c6e5"/>
                      </g>
                    </g>
                  </g>
                </g>
              </g>
            </g>
            <g id="Grupo_122306" data-name="Grupo 122306" transform="translate(2.243 80.473)">
              <g id="Grupo_122305" data-name="Grupo 122305">
                <path id="Trazado_184284" data-name="Trazado 184284" d="M1781.146,1412.139c-21.239,1.424-38.818-3.076-46.24-6.021-3.1,11.644-5.759,21.776-6.7,25.42,0,0,1.826,16.946,19.9,19.792,11.625,1.831,20.239.344,24.711-13.493C1774.505,1432.6,1781.146,1412.139,1781.146,1412.139Z" transform="translate(-1728.203 -1406.118)" fill="#ff9883"/>
              </g>
            </g>
            <g id="Grupo_122308" data-name="Grupo 122308" transform="translate(181.514 56.308)">
              <g id="Grupo_122307" data-name="Grupo 122307">
                <line id="Línea_1346" data-name="Línea 1346" x2="5.185" y2="25.227" fill="none" stroke="#1d7e96" stroke-linecap="round" stroke-linejoin="round" stroke-width="3"/>
              </g>
            </g>
            <g id="Grupo_122314" data-name="Grupo 122314" transform="translate(0 64.24)">
              <g id="Grupo_122313" data-name="Grupo 122313">
                <g id="Grupo_122309" data-name="Grupo 122309" transform="translate(0 33.233)">
                  <path id="Trazado_184285" data-name="Trazado 184285" d="M1717.924,1509.443c-5.4,17.962-1.694,35.132,18.2,37.625,12.172,1.525,80.824,3.6,114.981-12.833l-35.124-23.609s-9.65.392-21.573-.206a93.248,93.248,0,0,1-26.762-5.472c-4.834-1.793-23.389-4.394-32.165-3.851C1725.479,1501.716,1720.089,1502.241,1717.924,1509.443Z" transform="translate(-1715.681 -1501.024)" fill="#ff9883"/>
                </g>
                <g id="Grupo_122310" data-name="Grupo 122310" transform="translate(140.067)">
                  <path id="Trazado_184286" data-name="Trazado 184286" d="M2497.645,1350.63s19.363-10.681,24.519-15.014,20.945-15.69,25.457-17.035,16.434-3.586,21.268-2.989,4.995,4.035,4.672,5.118a5.124,5.124,0,0,1-4.35,3.25c-2.417.112-7.129,1.083-8.5,1.27s-5.921,2.241-7.733,3.213c0,0,9.1-1.233,12.487-1.307a101.278,101.278,0,0,1,13.9,1.258c1.558.4,3.6,1.494,3.545,3.188s-.7,3.586-2.739,4.134a3.812,3.812,0,0,1,2.041,3.238,4.3,4.3,0,0,1-2.9,4.134c-1.5.6-8.861,2.042-8.861,2.042s4.458,0,4.619,2.69-.77,4.208-7.573,5.828c-3.423.815-14.769,3.935-18.582,5.018Z" transform="translate(-2497.645 -1315.493)" fill="#ff9883"/>
                </g>
                <g id="Grupo_122311" data-name="Grupo 122311" transform="translate(49.957 13.199)">
                  <path id="Trazado_184287" data-name="Trazado 184287" d="M1999.589,1390.137s5.133-1.8,16.25-.459,36.251,8.517,51.719,12.328,64.286,11.431,76.128,14.345,43-7.178,44.043,7.442c2.312,32.28-11.281,44.437-34.376,41.868-66.691-7.419-105.429-45.867-110.263-46.316,0,0-6.325.6-21.233-.193a69.479,69.479,0,0,1-27.28-6.617S1996.468,1404.152,1999.589,1390.137Z" transform="translate(-1994.577 -1389.179)" fill="#ff9883"/>
                </g>
                <g id="Grupo_122312" data-name="Grupo 122312" transform="translate(182.675 1.029)">
                  <path id="Trazado_184288" data-name="Trazado 184288" d="M2889.112,1321.239s-3.179-.157-2.217,1.858,2.866,2.508,5.262,1.9" transform="translate(-2859.63 -1321.236)" fill="none" stroke="#d66758" stroke-linecap="round" stroke-linejoin="round" stroke-width="1"/>
                  <path id="Trazado_184289" data-name="Trazado 184289" d="M2735.511,1391.486l3.106,1.1a30.518,30.518,0,0,1,8.419-3.412" transform="translate(-2735.511 -1377.009)" fill="none" stroke="#d66758" stroke-linecap="round" stroke-linejoin="round" stroke-width="1"/>
                  <path id="Trazado_184290" data-name="Trazado 184290" d="M2945.714,1390.511s-1.086.074-1.154.876.237,2.835,1.154,3.309a8.062,8.062,0,0,0,2.765.493" transform="translate(-2907.108 -1378.102)" fill="none" stroke="#d66758" stroke-linecap="round" stroke-linejoin="round" stroke-width="1"/>
                  <path id="Trazado_184291" data-name="Trazado 184291" d="M2775.531,1426.553s-9.908,1.209-16.117,1.862c-8.069.849-19.917,6.1-19.917,6.1l-2.519-.19" transform="translate(-2736.715 -1407.688)" fill="none" stroke="#d66758" stroke-linecap="round" stroke-linejoin="round" stroke-width="1"/>
                  <path id="Trazado_184292" data-name="Trazado 184292" d="M2937.823,1433.5s-2.252,1.411-1.178,3.068,3.649,1.411,3.649,1.411" transform="translate(-2900.379 -1413.392)" fill="none" stroke="#d66758" stroke-linecap="round" stroke-linejoin="round" stroke-width="1"/>
                  <path id="Trazado_184293" data-name="Trazado 184293" d="M2765.5,1487.068l1.54.442s2.848-1.309,9.023-3.452a126.169,126.169,0,0,1,13.128-3.932" transform="translate(-2760.125 -1451.665)" fill="none" stroke="#d66758" stroke-linecap="round" stroke-linejoin="round" stroke-width="1"/>
                  <path id="Trazado_184294" data-name="Trazado 184294" d="M2899.544,1485.891s-2.493.915-1.588,2.7,3.959,1.645,3.959,1.645" transform="translate(-2868.696 -1456.398)" fill="none" stroke="#d66758" stroke-linecap="round" stroke-linejoin="round" stroke-width="1"/>
                  <path id="Trazado_184295" data-name="Trazado 184295" d="M2866.586,1483.014s2.418.449,2.418,2.687-1.411,4.18-8.531,5.721c-1.212.263-3.2.773-5.265,1.322" transform="translate(-2833.768 -1454.036)" fill="none" stroke="#d66758" stroke-linecap="round" stroke-linejoin="round" stroke-width="1"/>
                  <path id="Trazado_184296" data-name="Trazado 184296" d="M2925.355,1451.853c.192-.041,6.515-.7,7.366-2.451a4.859,4.859,0,0,0,.583-2.94" transform="translate(-2891.35 -1424.031)" fill="none" stroke="#d66758" stroke-linecap="round" stroke-linejoin="round" stroke-width="1"/>
                </g>
              </g>
            </g>
            <g id="Grupo_122322" data-name="Grupo 122322" transform="translate(3.653)">
              <g id="Grupo_122321" data-name="Grupo 122321">
                <g id="Grupo_122320" data-name="Grupo 122320">
                  <g id="Grupo_122319" data-name="Grupo 122319">
                    <g id="Grupo_122318" data-name="Grupo 122318">
                      <g id="Grupo_122317" data-name="Grupo 122317">
                        <g id="Grupo_122316" data-name="Grupo 122316">
                          <g id="Grupo_122315" data-name="Grupo 122315">
                            <path id="Trazado_184297" data-name="Trazado 184297" d="M1736.075,1034.578s22.868,18.4,50.977,16.371c0,0,7.092-32.022,7.092-43.311s-19.44-50.779-19.44-50.779C1746.31,971.175,1737.084,1032.29,1736.075,1034.578Z" transform="translate(-1736.075 -956.859)" fill="#45c6e5"/>
                          </g>
                        </g>
                      </g>
                    </g>
                  </g>
                </g>
              </g>
            </g>
            <g id="Grupo_122323" data-name="Grupo 122323" transform="translate(57.006 56.308)">
              <line id="Línea_1347" data-name="Línea 1347" x1="5.185" y2="25.227" fill="none" stroke="#1d7e96" stroke-linecap="round" stroke-linejoin="round" stroke-width="3"/>
            </g>
            <path id="Trazado_184298" data-name="Trazado 184298" d="M2548.6,1490.487s41.713,8.391,48.691,9.189" transform="translate(-2399.408 -1394.902)" fill="none" stroke="#d66758" stroke-linecap="round" stroke-linejoin="round" stroke-width="3"/>
            <path id="Trazado_184299" data-name="Trazado 184299" d="M2834.849,1540.5a94.224,94.224,0,0,0,9.971.085c3.9-.288,6.485-.5,6.485-.5" transform="translate(-2634.381 -1435.62)" fill="none" stroke="#d66758" stroke-linecap="round" stroke-linejoin="round" stroke-width="3"/>
            <path id="Trazado_184300" data-name="Trazado 184300" d="M2036.815,1534.552s21.278,6.171,31.085,5.5l9.807-.672,34.794,20.957" transform="translate(-1979.293 -1431.074)" fill="none" stroke="#d66758" stroke-linecap="round" stroke-linejoin="round" stroke-width="2"/>
            <line id="Línea_1348" data-name="Línea 1348" x1="0.959" y2="5.732" transform="translate(53.436 95.498)" fill="none" stroke="#d66758" stroke-linecap="round" stroke-linejoin="round" stroke-width="3"/>
          </g>
        </g>
      </g>
    </g>
  </g>
</svg>
