<svg xmlns="http://www.w3.org/2000/svg" width="70.007" height="70" viewBox="0 0 70.007 70">
  <g id="Grupo_121161" data-name="Grupo 121161" transform="translate(741.672 -1462.011)">
    <path id="Trazado_183152" data-name="Trazado 183152" d="M-740.286,1493.572c1.1.3,1.353.655,1.354,1.913q0,13.208-.007,26.417a7.059,7.059,0,0,0,2.987,6.08,7.055,7.055,0,0,0,4.323,1.3c4.857-.019,9.715-.007,14.572-.007q12.74,0,25.48,0a4.062,4.062,0,0,0,4.337-4.292,3.941,3.941,0,0,0-1.127-2.6c-.589-.615-1.2-1.211-1.8-1.814q-20.7-20.7-41.391-41.4a4.265,4.265,0,0,0-4.277-1.453,3.943,3.943,0,0,0-3.077,3.809c-.042,2.016-.013,4.033-.018,6.05,0,1.24-.213,1.54-1.348,1.945-1.178-.363-1.378-.614-1.381-1.8,0-2.017-.014-4.034,0-6.05a6.6,6.6,0,0,1,4.442-6.409c.475-.181.658-.33.556-.887a4.668,4.668,0,0,1,.33-2.667,3.574,3.574,0,0,1,3.361-2.313,19.767,19.767,0,0,1,4.065.483c.124-.835-.006-1.659.195-2.468a6.6,6.6,0,0,1,4.673-5.055,6.418,6.418,0,0,1,6.623,1.535,2.415,2.415,0,0,0,2.267.792,6.9,6.9,0,0,1,5.962,1.9c3.962,3.829,7.856,7.728,11.773,11.6a1.378,1.378,0,0,1,.081,1.99c-.951.571-1.42.513-2.242-.308-3.637-3.637-7.26-7.288-10.909-10.913a5.217,5.217,0,0,0-7.963.426,12.014,12.014,0,0,1,2.944,3.156,5.008,5.008,0,0,0,4.36,2.191c4.385.006,6.012,1.144,7.609,5.274a4.9,4.9,0,0,0,4.009,3.359c3.66.6,5.859,2.725,6.422,6.386a5.082,5.082,0,0,0,3.748,4.363c.268.089.531.2.792.307a6.179,6.179,0,0,1,4,5,11.446,11.446,0,0,1,.131,2.037A5.034,5.034,0,0,0-682,1506.11a9.491,9.491,0,0,1,2.628,2.4c.31.439.5.249.777-.022a5.141,5.141,0,0,0-.015-7.524q-7.517-7.553-15.061-15.08c-.862-.863-.9-1.321-.232-2.3a1.531,1.531,0,0,1,2.127.315q7.553,7.579,15.122,15.141a7.536,7.536,0,0,1,2.223,7.08c-.125.644.237.927.59,1.285a6.755,6.755,0,0,1,1.417,8.047,6.617,6.617,0,0,1-5.963,3.738c-.312.012-.625,0-.938.011a.874.874,0,0,0-.184.049c.146.975.342,1.947.43,2.929.3,3.3-1.561,5.15-4.844,4.79-.6-.066-.812.051-1.023.616a6.548,6.548,0,0,1-6.344,4.409q-20.333.016-40.667-.005a9.658,9.658,0,0,1-9.691-9.7c-.038-9.009-.013-18.017-.01-27.026C-741.661,1494.157-741.371,1493.818-740.286,1493.572Zm16.375-16.7a5.253,5.253,0,0,0-3.64,1.415c-.376.333-.5.545-.058.987q19.337,19.294,38.632,38.63c.421.422.622.328.978-.03a5.107,5.107,0,0,0-.073-7.27c-2.373-2.408-4.775-4.788-7.165-7.179q-12.38-12.389-24.756-24.782A5.435,5.435,0,0,0-723.911,1476.875Zm36.712,24.8c-.005-3.183-.638-4.108-3.2-5.113-.264-.1-.528-.207-.79-.315a7.243,7.243,0,0,1-4.577-5.893c-.461-2.742-1.487-3.791-4.205-4.237a7.422,7.422,0,0,1-6.092-4.934c-1.275-3.241-1.836-3.6-5.3-3.633a7.393,7.393,0,0,1-6.128-2.958c-.381-.495-.751-1-1.139-1.487-1.3-1.645-2.25-1.948-4.3-1.373a11.308,11.308,0,0,0-1.12.4,8.755,8.755,0,0,1-4.837.556,17.546,17.546,0,0,0-4.055-.424.926.926,0,0,0-1,1.008,11.046,11.046,0,0,0,.063,1.188.578.578,0,0,0,.532.559,6.3,6.3,0,0,1,3.057,1.593c.279.26.438.235.679-.028,2.889-3.155,8.182-3.349,11.811.338q15.543,15.8,31.334,31.345c3.507,3.463,3.449,8.64.326,11.623-.3.285-.356.493-.045.832a6.255,6.255,0,0,1,1.543,2.991c.083.4.321.535.709.59,1.783.251,2.313-.243,2.127-2.027a3.688,3.688,0,0,0-.091-.5,12.849,12.849,0,0,1,.434-8.407c.871-2.063.367-3.133-1.394-4.48-.225-.173-.454-.341-.689-.5C-686.061,1506.66-687.374,1504.326-687.2,1501.67Zm-38.883-31.824c2.429-.7,4.993-1.039,6.57-3.324a.2.2,0,0,1,.067-.052c.517-.291.306-.527-.037-.8a3.965,3.965,0,0,0-3.521-.787C-725.172,1465.417-726.263,1467.176-726.083,1469.846Zm47.532,46.649a3.919,3.919,0,0,0,3.725-2.349,3.968,3.968,0,0,0-.519-4.31c-.274-.36-.445-.468-.8-.03a22.914,22.914,0,0,1-1.822,1.9,1.561,1.561,0,0,0-.506.942,17.308,17.308,0,0,1-.793,2.941C-679.566,1516.522-679.566,1516.522-678.55,1516.495Z" fill="#ff8900"/>
  </g>
</svg>
