<svg xmlns="http://www.w3.org/2000/svg" width="100" height="100" viewBox="0 0 100 100">
  <g id="Grupo_128049" data-name="Grupo 128049" transform="translate(482.994 -1436.033)">
    <path id="Trazado_186586" data-name="Trazado 186586" d="M-439.627,1477.7c-.012,3.678-.008,7.356-.05,11.034-.007.634.293.648.755.626a9.223,9.223,0,0,1,4.272.7,8.357,8.357,0,0,1,4.8,9.314,8.34,8.34,0,0,1-7.985,6.651c-1.829.051-1.829.051-1.829,1.931q0,4.633,0,9.267c0,1.569-.568,2.141-2.122,2.142q-18.013,0-36.026,0a5,5,0,0,1-5.176-5.191q-.014-14.733,0-29.467c0-1.366.344-1.78,1.663-2.063,1.348.3,1.667.7,1.668,2.174q0,14.527,0,29.054c0,1.559.538,2.159,1.988,2.159q16.922.01,33.844.02c.706,0,.849-.22.843-.875-.03-3.471-.019-6.942-.012-10.413,0-1.493.579-2.052,2.088-2.06,1.041-.006,2.084.028,3.124-.016a4.943,4.943,0,0,0,4.783-5.035,4.951,4.951,0,0,0-4.876-4.945c-.971-.026-1.944-.007-2.916-.011-1.65-.006-2.2-.543-2.2-2.163,0-3.437-.019-6.873.014-10.309.006-.666-.153-.882-.85-.869-2.394.044-4.79.017-7.185.017-1.929,0-1.929,0-1.981,1.9a8.326,8.326,0,0,1-7.042,7.976,8.31,8.31,0,0,1-9.024-5.149,9.186,9.186,0,0,1-.586-3.98c.033-.585-.15-.762-.744-.756-3.644.037-7.288.035-10.932.046-1.317-.349-1.665-.771-1.665-2.1q0-18.051,0-36.1a4.983,4.983,0,0,1,5.195-5.162q14.774-.021,29.548,0c1.312,0,1.688.312,2.117,1.666-.44,1.439-.727,1.658-2.2,1.658q-14.579,0-29.157,0c-1.645,0-2.166.531-2.166,2.187q0,16.766-.02,33.531c0,.772.176.983.963.973,3.47-.047,6.942-.028,10.413-.016,1.359,0,1.956.615,1.973,1.976.013,1.041-.017,2.083.009,3.124a4.955,4.955,0,0,0,4.93,4.895,4.964,4.964,0,0,0,5.056-4.874c.026-.937.005-1.874.007-2.812,0-1.79.511-2.311,2.267-2.312,3.4,0,6.8-.017,10.2.014.661.006.888-.145.875-.848-.045-2.394-.018-4.79-.018-7.185,0-1.931,0-1.931-1.9-1.988a8.389,8.389,0,0,1-7.828-6.219,8.344,8.344,0,0,1,3.79-9.244,8.745,8.745,0,0,1,5.187-1.187c.582.035.767-.145.761-.743-.036-3.644-.035-7.287-.046-10.931.334-1.3.779-1.664,2.1-1.665q18.007-.005,36.015,0a4.994,4.994,0,0,1,5.248,5.219q.014,18.007,0,36.015c0,1.5-.576,2.089-2.059,2.091q-6.3.01-12.595,0c-1.417,0-2-.6-2.012-2.036-.008-.971.01-1.943,0-2.914a4.938,4.938,0,0,0-4.979-5.043,4.954,4.954,0,0,0-5.014,5.012c-.016,1.041.013,2.082-.007,3.123a1.682,1.682,0,0,1-1.875,1.857c-1.978.018-3.955.008-5.933,0-1.459,0-1.8-.265-2.2-1.665.4-1.4.743-1.661,2.2-1.667.868,0,1.736,0,2.6,0,1.84,0,1.84,0,1.874-1.8a8.343,8.343,0,0,1,10.642-7.867c3.745,1.076,6.035,4.31,6,8.6-.007.844.167,1.114,1.061,1.091,2.671-.067,5.346-.059,8.019,0,.8.017.959-.219.958-.98q-.038-16.768-.019-33.537c0-1.645-.529-2.173-2.182-2.174q-16.768,0-33.537-.02c-.786,0-.976.2-.966.973.045,3.436.025,6.874.017,10.311,0,1.483-.6,2.06-2.1,2.073-1.007.009-2.014-.016-3.02.007a4.953,4.953,0,0,0-4.872,4.952,4.949,4.949,0,0,0,4.792,5.03c.971.037,1.944.01,2.916.012,1.768,0,2.278.517,2.283,2.3Z" transform="translate(0 0)" fill="#010101"/>
    <path id="Trazado_186587" data-name="Trazado 186587" d="M-353.215,1486.283l-.034-12.7c-.005-1.78-.515-2.294-2.283-2.3-.972,0-1.945.025-2.916-.012a4.949,4.949,0,0,1-4.792-5.03,4.953,4.953,0,0,1,4.872-4.952c1.006-.022,2.014,0,3.02-.007,1.5-.013,2.092-.59,2.1-2.073.008-3.437.028-6.874-.017-10.311-.01-.774.181-.975.966-.973q16.768.042,33.537.02c1.654,0,2.182.529,2.182,2.174q0,16.768.019,33.537c0,.761-.158,1-.958.98-2.672-.056-5.347-.064-8.019,0-.895.023-1.068-.247-1.061-1.091.033-4.288-2.258-7.522-6-8.6a8.343,8.343,0,0,0-10.642,7.867c-.034,1.8-.034,1.8-1.874,1.8-.868,0-1.736,0-2.6,0-1.461.006-1.8.266-2.2,1.667Z" transform="translate(-86.413 -8.58)" fill="#45c6e5"/>
    <path id="Trazado_186588" data-name="Trazado 186588" d="M-477,1591.667c3.644-.011,7.288-.009,10.932-.046.595-.006.778.17.744.756a9.186,9.186,0,0,0,.586,3.98,8.31,8.31,0,0,0,9.024,5.149,8.326,8.326,0,0,0,7.042-7.976c.052-1.9.052-1.9,1.981-1.9,2.395,0,4.79.027,7.185-.017.7-.013.856.2.85.869-.032,3.436-.018,6.873-.014,10.309,0,1.62.554,2.157,2.2,2.163.972,0,1.944-.016,2.916.011a4.951,4.951,0,0,1,4.876,4.945,4.943,4.943,0,0,1-4.783,5.035c-1.04.044-2.083.011-3.124.016-1.509.009-2.085.568-2.088,2.06-.007,3.471-.018,6.943.012,10.413.006.655-.136.876-.843.875q-16.922-.035-33.844-.02c-1.45,0-1.988-.6-1.988-2.159q0-14.527,0-29.054c0-1.471-.32-1.877-1.668-2.174Q-477.006,1593.287-477,1591.667Z" transform="translate(-4.32 -112.267)" fill="#2df0da"/>
    <path id="Trazado_186589" data-name="Trazado 186589" d="M-434.431,1442.03c.011,3.644.009,7.288.046,10.931.006.6-.179.778-.761.743a8.746,8.746,0,0,0-5.187,1.187,8.344,8.344,0,0,0-3.79,9.244,8.389,8.389,0,0,0,7.828,6.219c1.9.057,1.9.057,1.9,1.988,0,2.4-.028,4.791.018,7.185.013.7-.214.854-.875.848-3.4-.031-6.8-.016-10.2-.014-1.756,0-2.263.522-2.267,2.313,0,.937.019,1.875-.007,2.812a4.964,4.964,0,0,1-5.056,4.874,4.955,4.955,0,0,1-4.93-4.895c-.026-1.041,0-2.083-.009-3.124-.016-1.361-.614-1.972-1.973-1.976-3.471-.011-6.943-.031-10.413.016-.788.011-.965-.2-.963-.973q.041-16.766.02-33.531c0-1.656.522-2.186,2.166-2.187q14.578,0,29.157,0c1.477,0,1.764-.219,2.2-1.658Zm-29.963,19.2c0-1.353.018-2.706-.005-4.059a1.643,1.643,0,0,0-1.7-1.813,1.63,1.63,0,0,0-1.621,1.785q-.03,4.059,0,8.118a1.583,1.583,0,0,0,1.7,1.787,1.584,1.584,0,0,0,1.623-1.759C-464.377,1463.934-464.394,1462.581-464.394,1461.228Zm-.017-11.631h.014c0-.312.019-.625,0-.935a1.633,1.633,0,0,0-1.656-1.642,1.615,1.615,0,0,0-1.659,1.634,11.349,11.349,0,0,0,.019,1.973,1.492,1.492,0,0,0,1.632,1.408,1.517,1.517,0,0,0,1.645-1.4A6.544,6.544,0,0,0-464.411,1449.6Z" transform="translate(-8.598 -4.327)" fill="#ff8900"/>
    <path id="Trazado_186590" data-name="Trazado 186590" d="M-259.264,1656.99q-9.007,0-18.014,0c-1.641,0-2.191-.543-2.192-2.168q-.006-6.144,0-12.287c0-1.683.54-2.206,2.259-2.21.972,0,1.944.023,2.915-.009a4.956,4.956,0,0,0,4.821-5,4.929,4.929,0,0,0-4.825-4.985c-1.04-.03-2.083,0-3.124-.009-1.437-.013-2.042-.6-2.045-2.007q-.013-6.352,0-12.7c0-1.352.614-1.954,1.982-1.958,3.436-.01,6.873-.038,10.308.02.881.015,1.07-.222,1.061-1.076-.04-4.107,1.983-7.157,5.5-8.434a8.336,8.336,0,0,1,11.148,7.675c.04,1.812.04,1.812,1.847,1.812q4.686,0,9.372,0c1.55,0,2.113.575,2.113,2.148q0,17.962,0,35.924a5.014,5.014,0,0,1-5.314,5.263Q-250.362,1657-259.264,1656.99Zm.864-3.334q8.382,0,16.763,0c1.632,0,2.161-.535,2.161-2.2q0-16.763.021-33.526c0-.8-.217-.969-.98-.959-3.366.043-6.733.021-10.1.017-1.72,0-2.262-.533-2.27-2.211,0-.972.017-1.944-.008-2.915a4.95,4.95,0,0,0-4.956-4.866,4.945,4.945,0,0,0-5.026,4.79c-.037,1.005-.008,2.013-.012,3.019-.007,1.627-.556,2.18-2.191,2.182-3.4.005-6.8.03-10.2-.02-.8-.012-.973.223-.957.983.05,2.394.019,4.789.019,7.184,0,1.823,0,1.823,1.817,1.854a8.326,8.326,0,0,1,7.777,10.849c-1.171,3.659-4.317,5.829-8.542,5.793-.871-.007-1.095.213-1.074,1.079.062,2.636.048,5.275.006,7.912-.012.761.118,1.06.99,1.053C-269.576,1653.633-263.988,1653.656-258.4,1653.656Z" transform="translate(-146.855 -120.958)" fill="#010101"/>
    <path id="Trazado_186591" data-name="Trazado 186591" d="M-455.727,1495.763c0,1.353.018,2.706-.006,4.059a1.584,1.584,0,0,1-1.623,1.759,1.583,1.583,0,0,1-1.7-1.787q-.027-4.058,0-8.118a1.63,1.63,0,0,1,1.621-1.785,1.643,1.643,0,0,1,1.7,1.813C-455.709,1493.057-455.726,1494.411-455.727,1495.763Z" transform="translate(-17.266 -38.863)" fill="#010101"/>
    <path id="Trazado_186592" data-name="Trazado 186592" d="M-455.783,1462.529a6.544,6.544,0,0,1-.009,1.038,1.517,1.517,0,0,1-1.645,1.4,1.492,1.492,0,0,1-1.632-1.408,11.35,11.35,0,0,1-.019-1.973,1.615,1.615,0,0,1,1.659-1.634,1.633,1.633,0,0,1,1.656,1.642c.023.31,0,.624,0,.935Z" transform="translate(-17.226 -17.26)" fill="#010101"/>
    <path id="Trazado_186593" data-name="Trazado 186593" d="M-249.812,1662.3c-5.588,0-11.176-.023-16.763.023-.873.007-1-.292-.99-1.053.041-2.637.055-5.276-.006-7.912-.02-.866.2-1.087,1.074-1.079,4.225.036,7.371-2.134,8.542-5.793a8.326,8.326,0,0,0-7.777-10.849c-1.817-.031-1.817-.031-1.817-1.854,0-2.4.032-4.79-.019-7.184-.016-.76.155-.995.957-.983,3.4.05,6.8.025,10.2.02,1.635,0,2.184-.556,2.191-2.182,0-1.007-.025-2.014.012-3.019a4.945,4.945,0,0,1,5.026-4.79,4.95,4.95,0,0,1,4.956,4.866c.025.971,0,1.943.008,2.915.007,1.678.549,2.209,2.27,2.211,3.366,0,6.733.026,10.1-.018.762-.01.982.162.98.959q-.044,16.763-.021,33.526c0,1.66-.529,2.195-2.161,2.2Q-241.43,1662.305-249.812,1662.3Z" transform="translate(-155.444 -129.605)" fill="#a9f73f"/>
  </g>
</svg>
