<svg xmlns="http://www.w3.org/2000/svg" width="273.756" height="272.96" viewBox="0 0 273.756 272.96">
  <g id="Grupo_121997" data-name="Grupo 121997" transform="translate(-33.38 -34.01)">
    <g id="Grupo_121918" data-name="Grupo 121918" transform="translate(33.38 34.01)">
      <path id="Trazado_183510" data-name="Trazado 183510" d="M115.265,74.956a40.813,40.813,0,0,1-12.871,29.8,41.269,41.269,0,0,1-7.627,5.681q-.616.351-1.251.682-1.441.777-2.957,1.428a41.05,41.05,0,0,1-31.834.272q-1.706-.7-3.324-1.548a40.946,40.946,0,1,1,59.864-36.314Z" transform="translate(-33.38 -34.01)" fill="#a9f73f"/>
      <g id="Grupo_121917" data-name="Grupo 121917" transform="translate(12.227 12.157)">
        <g id="Grupo_121912" data-name="Grupo 121912">
          <g id="Grupo_121910" data-name="Grupo 121910" transform="translate(0 31.006)">
            <g id="Grupo_121909" data-name="Grupo 121909">
              <path id="Trazado_183511" data-name="Trazado 183511" d="M109.517,129.9a41.269,41.269,0,0,1-7.627,5.681q-.616.351-1.251.682-1.441.777-2.957,1.428a41.05,41.05,0,0,1-31.834.272q-1.706-.7-3.324-1.548a40.938,40.938,0,0,1-9.794-7.14,18.359,18.359,0,0,1,8.366-6.5l3.772-1.453a16.217,16.217,0,0,0,8.284-7.128l.082-.145c.07-.126.133-.253.2-.379.025-.044.044-.088.07-.139a16.36,16.36,0,0,0,1.131-2.843c.1-.354.2-.72.272-1.087.013-.044.019-.095.032-.139l.8-3.892v-.006l.057-.259.619-2.982H85.4l.67,3.248.809,3.892c.013.044.019.095.032.139.013.063.025.12.044.183a15.708,15.708,0,0,0,1.359,3.747c.038.076.076.152.12.227s.063.126.107.2l.126.234c.272.474.562.929.878,1.371a15.972,15.972,0,0,0,2.761,3.008,16.261,16.261,0,0,0,4.644,2.749l3.772,1.453A18.283,18.283,0,0,1,109.517,129.9Z" transform="translate(-52.73 -102.32)" fill="#f69779"/>
            </g>
          </g>
          <path id="Trazado_183512" data-name="Trazado 183512" d="M100.4,109.783a10.318,10.318,0,0,1-1.858.227,12.815,12.815,0,0,1-9.3-4.708l.619-2.982h8.985l1.479,7.14c.013.044.019.095.032.139C100.367,109.662,100.38,109.719,100.4,109.783Z" transform="translate(-66.17 -71.314)" fill="#f37a67"/>
          <path id="Trazado_183513" data-name="Trazado 183513" d="M92.607,55.081h0c-1.341-.854-3.761-1.831-7.809-1.831-4.857,0-7.859,2.922-9.646,5.845a17.178,17.178,0,0,0-2.435,8.483l-.221,7.7c-.16,5.607-.547,15.907,7.088,14.147V82.037L96.8,79.024v22.17c6.845-.846,10.348-7,10.348-12.659V67.783C107.151,53.015,92.607,55.081,92.607,55.081Z" transform="translate(-59.984 -53.25)" fill="#12263f"/>
          <path id="Trazado_183514" data-name="Trazado 183514" d="M102.348,74.118C101.394,63.1,90.557,63.01,90.178,63.01h-.025c-.379,0-11.216.095-12.17,11.108l-.108,3.959a15.657,15.657,0,0,0,1.265,6.811,12.7,12.7,0,0,0,11.026,7.567,12.7,12.7,0,0,0,11.026-7.567,15.657,15.657,0,0,0,1.265-6.811Z" transform="translate(-61.984 -56.843)" fill="#f69779"/>
          <path id="Trazado_183515" data-name="Trazado 183515" d="M109.517,133.939a41.269,41.269,0,0,1-7.627,5.681q-.616.351-1.251.682-1.441.777-2.957,1.428A41.051,41.051,0,0,1,65.848,142q-1.706-.7-3.324-1.548a40.939,40.939,0,0,1-9.794-7.14,18.359,18.359,0,0,1,8.366-6.5l3.772-1.453a16.217,16.217,0,0,0,8.284-7.128l.082-.145a2.5,2.5,0,0,0,.2-.379c.025-.044.044-.088.07-.139.051-.758-.436-1.624-.423-2.49a1.868,1.868,0,0,1,.227-.891c.126-.227.72-.411,1.6-.55a44.167,44.167,0,0,1,6.433-.348h.006a39.352,39.352,0,0,1,5.567.348c.878.139,1.472.322,1.6.55.638,1.15-.265,2.357-.2,3.381.038.076.076.152.12.227s.063.126.107.2l.126.234c.272.474.562.929.878,1.371a15.972,15.972,0,0,0,2.761,3.008,16.261,16.261,0,0,0,4.644,2.749l3.772,1.453A18.283,18.283,0,0,1,109.517,133.939Z" transform="translate(-52.73 -75.351)" fill="#ff8900"/>
          <path id="Trazado_183516" data-name="Trazado 183516" d="M94.257,60.393C90.483,67,83.465,71.289,76.1,73.2c-.471-2.48.993-5.041,2.56-7.019a19.3,19.3,0,0,1,6.833-5.8A10.028,10.028,0,0,1,94.257,60.393Z" transform="translate(-61.3 -55.506)" fill="#12263f"/>
          <path id="Trazado_183517" data-name="Trazado 183517" d="M100.9,61.123a7.849,7.849,0,0,0,2.078,3.267c2.78,3.01,5.993,5.758,9.838,7.171.261-3.027-1.384-6.058-3.634-8.1A9.5,9.5,0,0,0,100.9,61.123Z" transform="translate(-70.463 -56.067)" fill="#12263f"/>
          <path id="Trazado_183518" data-name="Trazado 183518" d="M121.374,133.939a41.269,41.269,0,0,1-7.627,5.681q-.616.351-1.251.682a25.531,25.531,0,0,0-3.046-9.44,11.15,11.15,0,0,0-1.782-2.483,19.28,19.28,0,0,0-3.45-2.389A27.036,27.036,0,0,1,98.69,121.4a6.352,6.352,0,0,1-1.757-2.907c-.107-.493-.1-1-.246-1.491a3.669,3.669,0,0,0-2.528-2.275,11.136,11.136,0,0,0-3.551-.3,28.788,28.788,0,0,0-4.114.3,10.853,10.853,0,0,0-1.554.354,1.868,1.868,0,0,1,.227-.891c.126-.227.72-.411,1.6-.55a44.167,44.167,0,0,1,6.433-.348,39.45,39.45,0,0,1,5.573.348c.878.139,1.472.322,1.6.55.638,1.15-.265,2.357-.2,3.381.038.076.076.152.12.227s.063.126.107.2l.126.234c.272.474.562.929.878,1.371a15.972,15.972,0,0,0,2.761,3.008,16.261,16.261,0,0,0,4.644,2.749l3.772,1.453A18.283,18.283,0,0,1,121.374,133.939Z" transform="translate(-64.587 -75.351)" fill="#d87808"/>
          <path id="Trazado_183519" data-name="Trazado 183519" d="M89.261,116.955c-.042-.4-.674-.405-.632,0a6.421,6.421,0,0,1-.851,3.983.316.316,0,0,0,.546.319A6.991,6.991,0,0,0,89.261,116.955Z" transform="translate(-65.615 -76.59)" fill="#d87808"/>
          <path id="Trazado_183520" data-name="Trazado 183520" d="M93.658,116.676c-.068-.4-.677-.23-.609.168a5.911,5.911,0,0,1-.6,3.774c-.188.361.358.681.545.318A6.626,6.626,0,0,0,93.658,116.676Z" transform="translate(-67.338 -76.514)" fill="#d87808"/>
          <path id="Trazado_183521" data-name="Trazado 183521" d="M97.063,117.118v4.119a.316.316,0,0,0,.632,0v-4.119A.316.316,0,0,0,97.063,117.118Z" transform="translate(-69.05 -76.648)" fill="#d87808"/>
          <path id="Trazado_183522" data-name="Trazado 183522" d="M102.243,120.891a5.414,5.414,0,0,1-1.463-3.592.316.316,0,0,0-.632,0,6.092,6.092,0,0,0,1.648,4.039C102.073,121.638,102.519,121.19,102.243,120.891Z" transform="translate(-70.185 -76.715)" fill="#d87808"/>
          <g id="Grupo_121911" data-name="Grupo 121911" transform="translate(9.794 55.511)">
            <path id="Trazado_183523" data-name="Trazado 183523" d="M71.554,152.571q-1.706-.7-3.324-1.548L71.212,142Z" transform="translate(-68.23 -141.431)" fill="#d87808"/>
            <path id="Trazado_183524" data-name="Trazado 183524" d="M128.027,149.858q-.616.351-1.251.682-1.441.777-2.957,1.428a32.924,32.924,0,0,0-.088-10.868C126.384,143.1,127.553,146.174,128.027,149.858Z" transform="translate(-88.661 -141.1)" fill="#d87808"/>
          </g>
        </g>
        <g id="Grupo_121916" data-name="Grupo 121916" transform="translate(19.545 15.488)">
          <path id="Trazado_183525" data-name="Trazado 183525" d="M96.391,83.351V90.58h1.225C99.716,90.58,96.781,84.182,96.391,83.351Z" transform="translate(-88.348 -79.819)" fill="#f37a67"/>
          <g id="Grupo_121915" data-name="Grupo 121915">
            <g id="Grupo_121913" data-name="Grupo 121913" transform="translate(11.187)">
              <path id="Trazado_183526" data-name="Trazado 183526" d="M107.13,78.477a6.476,6.476,0,0,0-5.341-.259c-.748.3-.422,1.52.336,1.219a5.248,5.248,0,0,1,4.367.131C107.221,79.928,107.861,78.838,107.13,78.477Z" transform="translate(-101.367 -77.762)" fill="#051733"/>
              <path id="Trazado_183527" data-name="Trazado 183527" d="M106.686,82.092a1.374,1.374,0,0,0-1.192-.627,1.192,1.192,0,0,0,0,2.384,1.169,1.169,0,0,0,.411-.078v0c.008,0,.013-.007.021-.009a1.194,1.194,0,0,0,.111-.053,2.075,2.075,0,0,0,1.153-1.609C106.984,82.278,106.686,82.092,106.686,82.092Z" transform="translate(-102.447 -79.125)" fill="#051733"/>
            </g>
            <g id="Grupo_121914" data-name="Grupo 121914">
              <path id="Trazado_183528" data-name="Trazado 183528" d="M83.984,78.477a6.476,6.476,0,0,1,5.341-.259c.748.3.422,1.52-.336,1.219a5.248,5.248,0,0,0-4.367.131C83.894,79.928,83.254,78.838,83.984,78.477Z" transform="translate(-83.662 -77.762)" fill="#051733"/>
              <path id="Trazado_183529" data-name="Trazado 183529" d="M86.29,82.092a1.376,1.376,0,0,1,1.192-.627,1.192,1.192,0,0,1,0,2.384,1.169,1.169,0,0,1-.411-.078v0c-.008,0-.013-.007-.021-.009a1.2,1.2,0,0,1-.111-.053A2.075,2.075,0,0,1,85.785,82.1C85.993,82.278,86.29,82.092,86.29,82.092Z" transform="translate(-84.443 -79.125)" fill="#051733"/>
            </g>
          </g>
          <path id="Trazado_183530" data-name="Trazado 183530" d="M91.185,98.879a4.123,4.123,0,0,0,7.766,0Z" transform="translate(-86.431 -85.535)" fill="#fff"/>
        </g>
      </g>
    </g>
    <g id="Grupo_121929" data-name="Grupo 121929" transform="translate(225.251 34.01)">
      <path id="Trazado_183531" data-name="Trazado 183531" d="M418.915,74.956a40.943,40.943,0,1,1-40.94-40.946A40.817,40.817,0,0,1,418.915,74.956Z" transform="translate(-337.03 -34.01)" fill="#a9f73f"/>
      <g id="Grupo_121928" data-name="Grupo 121928" transform="translate(12.549 12.964)">
        <g id="Grupo_121923" data-name="Grupo 121923">
          <path id="Trazado_183532" data-name="Trazado 183532" d="M411.255,113.3c-.367-.558-.907-.99-1.27-1.551-1.784-2.759,1.487-6.771-.277-9.541a18.6,18.6,0,0,0-1.325-1.53,4.6,4.6,0,0,1-.855-3.978c.406-1.563,1.647-2.952,1.493-4.56a9.471,9.471,0,0,0-1.245-2.915,6.647,6.647,0,0,1-.294-4.813c.5-1.537,1.572-2.937,1.577-4.552.006-2.35-2.239-4.2-2.449-6.546-.073-.816.11-1.633.111-2.452a5.641,5.641,0,0,0-2.075-4.328,7.415,7.415,0,0,1-1.877-1.64c-.693-1.131-.268-2.677-.935-3.823-1.144-1.966-4.32-1.286-6.141-2.665-1.371-1.038-1.817-3.145-3.437-3.735a3.175,3.175,0,0,0-2.143.113,6.13,6.13,0,0,1-4.063,0,3.175,3.175,0,0,0-2.143-.113c-1.621.59-2.066,2.7-3.437,3.735-1.821,1.379-5,.7-6.141,2.665-.667,1.146-.242,2.692-.936,3.823a7.4,7.4,0,0,1-1.877,1.64,5.641,5.641,0,0,0-2.075,4.328c0,.82.184,1.637.111,2.452-.21,2.341-2.455,4.2-2.449,6.546,0,1.615,1.077,3.015,1.577,4.552a6.647,6.647,0,0,1-.294,4.813,9.471,9.471,0,0,0-1.245,2.915c-.155,1.608,1.087,3,1.492,4.56a4.6,4.6,0,0,1-.855,3.978,18.59,18.59,0,0,0-1.325,1.53c-1.764,2.77,1.506,6.782-.277,9.541-.363.561-.9.993-1.27,1.551s-.643,1.308-.2,1.813h46.76C411.9,114.6,411.622,113.855,411.255,113.3Z" transform="translate(-359.681 -54.527)" fill="#e44424"/>
          <path id="Trazado_183533" data-name="Trazado 183533" d="M413.683,129.592a40.917,40.917,0,0,1-56.793,0,18.551,18.551,0,0,1,8.581-6.818l2.439-.941,1.333-.512a16.254,16.254,0,0,0,10.072-11.86l.449-2.167.36-1.725.67-3.248h8.985l.67,3.248.809,3.892a15.567,15.567,0,0,0,.638,2.231,16.223,16.223,0,0,0,9.434,9.63l.095.038,1.239.474,2.439.941a18.551,18.551,0,0,1,8.581,6.818Z" transform="translate(-356.89 -72.12)" fill="#f69779"/>
          <g id="Grupo_121920" data-name="Grupo 121920" transform="translate(22.874 30.2)">
            <g id="Grupo_121919" data-name="Grupo 121919">
              <path id="Trazado_183534" data-name="Trazado 183534" d="M405.222,111.691a11.563,11.563,0,0,1-2.723.43,12.843,12.843,0,0,1-9.409-4.828l1.03-4.973h8.985l1.479,7.14A15.563,15.563,0,0,0,405.222,111.691Z" transform="translate(-393.09 -102.32)" fill="#f37a67"/>
            </g>
          </g>
          <g id="Grupo_121922" data-name="Grupo 121922" transform="translate(12.916 5.546)">
            <g id="Grupo_121921" data-name="Grupo 121921">
              <path id="Trazado_183535" data-name="Trazado 183535" d="M408.247,75.607a2.2,2.2,0,0,0-.648-1.351,1.84,1.84,0,0,0-1.284-.406,3.39,3.39,0,0,0-1.318.373s-.006-1.651-.234-3.717a8.086,8.086,0,0,0-8.034-7.2h-7.834a8.086,8.086,0,0,0-8.034,7.2c-.228,2.066-.234,3.717-.234,3.717a3.391,3.391,0,0,0-1.318-.373,1.84,1.84,0,0,0-1.284.406,2.2,2.2,0,0,0-.648,1.351,4.151,4.151,0,0,0,.664,2.925,4.06,4.06,0,0,0,2.424,1.71c1.76,12.321,12.348,12.321,12.348,12.321s10.587,0,12.348-12.321a4.06,4.06,0,0,0,2.424-1.71A4.151,4.151,0,0,0,408.247,75.607Z" transform="translate(-377.331 -63.303)" fill="#f69779"/>
            </g>
          </g>
        </g>
        <path id="Trazado_183536" data-name="Trazado 183536" d="M403.9,66.517l-3.782-1.753c-1.418-.657-3.193-1.283-4.432-.332-1,.771-1.2,2.3-2.236,3.022-1.893,1.319-4.751-1.05-6.7.176-1.311.823-1.353,2.756-2.38,3.914-.813.916-2.133,1.223-3.011,2.078-1.36,1.323-1.277,3.491-1.125,5.382s.162,4.081-1.27,5.325a3.216,3.216,0,0,1-2.619-2.531c-1.123-3.408-.171-7.133,1.053-10.506a21.232,21.232,0,0,1,4.117-7.463c3.828-4.076,10.039-5.142,15.543-4.154a10.1,10.1,0,0,1,4.992,2.077A6.23,6.23,0,0,1,403.9,66.517Z" transform="translate(-363.868 -56.296)" fill="#e44424"/>
        <path id="Trazado_183537" data-name="Trazado 183537" d="M409.74,145.663a40.983,40.983,0,0,1-37.9,0c.3-1.043.55-2.1.752-3.147.038-.183.07-.366.1-.55a54.122,54.122,0,0,0,.72-10.868l1.333-.512a16.219,16.219,0,0,0,5.042-3.1c-1.017,14.306,11,12.2,11,12.2s12.018,2.1,11.007-12.2a16.291,16.291,0,0,0,5.036,3.09l.095.038,1.238.474a54.034,54.034,0,0,0,.714,10.868A36.762,36.762,0,0,0,409.74,145.663Z" transform="translate(-362.393 -81.386)" fill="#a3edff"/>
        <path id="Trazado_183538" data-name="Trazado 183538" d="M409.74,147.489a40.983,40.983,0,0,1-37.9,0c.3-1.043.55-2.1.752-3.147.474-.209.948-.392,1.409-.55a15.63,15.63,0,0,1,9.832,0,19.357,19.357,0,0,1,6.363,3.418,13.533,13.533,0,0,1,6.85-3.418,9.52,9.52,0,0,1,2.844,0,11.364,11.364,0,0,1,6.382,3.418c-.164-1.2-.278-2.338-.341-3.418a34.4,34.4,0,0,1,1-11.342l1.238.474a54.034,54.034,0,0,0,.714,10.868A36.763,36.763,0,0,0,409.74,147.489Z" transform="translate(-362.393 -83.212)" fill="#74ddf7"/>
        <g id="Grupo_121927" data-name="Grupo 121927" transform="translate(19.76 14.682)">
          <path id="Trazado_183539" data-name="Trazado 183539" d="M400.891,83.351V90.58h1.225C404.216,90.58,401.281,84.182,400.891,83.351Z" transform="translate(-392.848 -79.819)" fill="#f37a67"/>
          <g id="Grupo_121926" data-name="Grupo 121926">
            <g id="Grupo_121924" data-name="Grupo 121924" transform="translate(11.187)">
              <path id="Trazado_183540" data-name="Trazado 183540" d="M411.63,78.477a6.476,6.476,0,0,0-5.341-.259c-.748.3-.422,1.52.336,1.219a5.248,5.248,0,0,1,4.367.131C411.721,79.928,412.361,78.838,411.63,78.477Z" transform="translate(-405.867 -77.762)" fill="#e44424"/>
              <path id="Trazado_183541" data-name="Trazado 183541" d="M411.186,82.092a1.374,1.374,0,0,0-1.192-.627,1.192,1.192,0,0,0,0,2.384,1.17,1.17,0,0,0,.411-.078v0c.008,0,.013-.007.021-.009a1.2,1.2,0,0,0,.111-.053,2.075,2.075,0,0,0,1.153-1.609C411.484,82.278,411.186,82.092,411.186,82.092Z" transform="translate(-406.947 -79.125)" fill="#051733"/>
            </g>
            <g id="Grupo_121925" data-name="Grupo 121925">
              <path id="Trazado_183542" data-name="Trazado 183542" d="M388.484,78.477a6.476,6.476,0,0,1,5.341-.259c.747.3.422,1.52-.336,1.219a5.248,5.248,0,0,0-4.367.131C388.394,79.928,387.754,78.838,388.484,78.477Z" transform="translate(-388.162 -77.762)" fill="#e44424"/>
              <path id="Trazado_183543" data-name="Trazado 183543" d="M390.791,82.092a1.374,1.374,0,0,1,1.192-.627,1.192,1.192,0,0,1,0,2.384,1.17,1.17,0,0,1-.411-.078v0c-.008,0-.013-.007-.021-.009a1.188,1.188,0,0,1-.111-.053,2.075,2.075,0,0,1-1.153-1.609C390.493,82.278,390.791,82.092,390.791,82.092Z" transform="translate(-388.943 -79.125)" fill="#051733"/>
            </g>
          </g>
          <path id="Trazado_183544" data-name="Trazado 183544" d="M395.684,98.879a4.124,4.124,0,0,0,7.766,0Z" transform="translate(-390.931 -85.535)" fill="#fff"/>
        </g>
      </g>
    </g>
    <g id="Grupo_121937" data-name="Grupo 121937" transform="translate(129.312 34.01)">
      <path id="Trazado_183545" data-name="Trazado 183545" d="M267.092,74.956a40.975,40.975,0,0,1-19.879,35.107c-.935.569-1.9,1.1-2.888,1.586a41.038,41.038,0,0,1-36.358,0c-.986-.487-1.953-1.017-2.888-1.586a40.945,40.945,0,1,1,62.013-35.107Z" transform="translate(-185.2 -34.01)" fill="#a9f73f"/>
      <g id="Grupo_121936" data-name="Grupo 121936" transform="translate(9.061 13.645)">
        <path id="Trazado_183546" data-name="Trazado 183546" d="M255.933,63.643a2.273,2.273,0,0,0-.986-1.846,1.745,1.745,0,0,0-.957-1.367,2.192,2.192,0,0,0-1.436-1.23,2.023,2.023,0,0,0-1.709-.992c-.478-.855-1.709-.717-1.709-.717-.547-.752-2.119-.684-2.119-.684-.411-.82-2.119-.547-2.119-.547-.684-.752-1.915-.136-1.915-.136-.273-1.026-1.283-.214-1.283-.214s-1.01-.812-1.283.214c0,0-1.23-.615-1.914.136,0,0-1.709-.273-2.119.547,0,0-1.572-.068-2.119.684a1.848,1.848,0,0,0-1.709.717,2.024,2.024,0,0,0-1.709.992,2.192,2.192,0,0,0-1.436,1.23,1.747,1.747,0,0,0-.957,1.367,2.274,2.274,0,0,0-.985,1.846c-.109,1.367.414,2.393,2.751,3.418h0a25.427,25.427,0,0,1,22.963,0h0C255.519,66.036,256.041,65.01,255.933,63.643Z" transform="translate(-209.816 -55.604)" fill="#051733"/>
        <path id="Rectángulo_37272" data-name="Rectángulo 37272" d="M13.848,0h.767A13.848,13.848,0,0,1,28.464,13.848v1.5a0,0,0,0,1,0,0H0a0,0,0,0,1,0,0v-1.5A13.848,13.848,0,0,1,13.848,0Z" transform="translate(17.653 3.161)" fill="#051733"/>
        <g id="Grupo_121930" data-name="Grupo 121930" transform="translate(0 7.144)">
          <path id="Trazado_183547" data-name="Trazado 183547" d="M263.309,125.782a40.888,40.888,0,0,1-10.818,9.428c-.935.569-1.9,1.1-2.888,1.586a41.038,41.038,0,0,1-36.358,0c-.986-.487-1.952-1.017-2.888-1.586a40.888,40.888,0,0,1-10.818-9.428,11.186,11.186,0,0,1,7.734-7.551l9.813-2.711,1.03-.284,1.826-.506,3.741-1.036,1.491-8.347.032-.19.025-.164.48-2.673,5.712,2.237,5.712-2.237.48,2.673.36,2.054.638,3.583.55,3.065,3.741,1.036,1.826.506,1.03.284,9.813,2.711A11.186,11.186,0,0,1,263.309,125.782Z" transform="translate(-199.54 -79.946)" fill="#45c6e5"/>
          <path id="Trazado_183548" data-name="Trazado 183548" d="M255.555,115.236c-.4,1.82-2.193,6.9-9.819,7.481l-1.656,6.129a1.9,1.9,0,0,1-3.665,0l-1.656-6.129c-7.633-.581-9.421-5.662-9.819-7.481l1.826-.506,3.741-1.036,2.028-11.374,5.712,2.237,5.712-2.237,2.028,11.374,3.741,1.036Z" transform="translate(-210.363 -79.946)" fill="#2df0da"/>
          <path id="Trazado_183549" data-name="Trazado 183549" d="M254.793,114.73c-.385,1.927-2.066,6.148-9.459,6.148l-2.022,7.475-2.022-7.475c-7.393,0-9.074-4.221-9.459-6.148l3.741-1.036,1.491-8.347.537-3.027,5.712,2.237,5.712-2.237,1.479,8.309.55,3.065Z" transform="translate(-211.427 -79.946)" fill="#f69779"/>
          <path id="Trazado_183550" data-name="Trazado 183550" d="M253.55,110.629a11.921,11.921,0,0,1-3.3.607,12.743,12.743,0,0,1-10.135-5.889l.537-3.027,5.712,2.237,5.712-2.237Z" transform="translate(-214.475 -79.946)" fill="#f37a67"/>
          <path id="Trazado_183551" data-name="Trazado 183551" d="M256.417,76.935a2.2,2.2,0,0,0-.648-1.351,1.84,1.84,0,0,0-1.284-.406,3.39,3.39,0,0,0-1.318.373s-.041-8.489-4.17-8.625c-2.708-.135-3.913.677-8.015.677s-5.307-.813-8.015-.677c-4.129.136-4.17,8.625-4.17,8.625a3.393,3.393,0,0,0-1.318-.373,1.84,1.84,0,0,0-1.284.406,2.2,2.2,0,0,0-.648,1.351,4.147,4.147,0,0,0,.664,2.925,4.06,4.06,0,0,0,2.424,1.71c1.76,12.321,12.348,12.321,12.348,12.321s10.587,0,12.348-12.321a4.06,4.06,0,0,0,2.424-1.71A4.151,4.151,0,0,0,256.417,76.935Z" transform="translate(-209.096 -66.911)" fill="#f69779"/>
        </g>
        <g id="Grupo_121931" data-name="Grupo 121931" transform="translate(10.818 54.592)">
          <path id="Trazado_183552" data-name="Trazado 183552" d="M219.548,151.4c-.986-.487-1.952-1.017-2.888-1.586L219.244,142Z" transform="translate(-216.66 -142)" fill="#35a3be"/>
          <path id="Trazado_183553" data-name="Trazado 183553" d="M281.658,149.816c-.935.569-1.9,1.1-2.888,1.586l.3-9.4Z" transform="translate(-239.524 -142)" fill="#35a3be"/>
        </g>
        <g id="Grupo_121935" data-name="Grupo 121935" transform="translate(23.248 13.293)">
          <path id="Trazado_183554" data-name="Trazado 183554" d="M249.061,82.23v7.229h1.225C252.386,89.459,249.451,83.061,249.061,82.23Z" transform="translate(-241.018 -78.698)" fill="#f37a67"/>
          <g id="Grupo_121934" data-name="Grupo 121934">
            <g id="Grupo_121932" data-name="Grupo 121932" transform="translate(11.187)">
              <path id="Trazado_183555" data-name="Trazado 183555" d="M259.8,77.356a6.476,6.476,0,0,0-5.341-.259c-.748.3-.422,1.52.336,1.219a5.248,5.248,0,0,1,4.367.131C259.891,78.807,260.531,77.717,259.8,77.356Z" transform="translate(-254.036 -76.641)" fill="#051733"/>
              <circle id="Elipse_5153" data-name="Elipse 5153" cx="1.192" cy="1.192" r="1.192" transform="translate(1.856 2.34)" fill="#051733"/>
            </g>
            <g id="Grupo_121933" data-name="Grupo 121933">
              <path id="Trazado_183556" data-name="Trazado 183556" d="M236.654,77.356a6.476,6.476,0,0,1,5.341-.259c.748.3.422,1.52-.336,1.219a5.248,5.248,0,0,0-4.367.131C236.564,78.807,235.924,77.717,236.654,77.356Z" transform="translate(-236.332 -76.641)" fill="#051733"/>
              <circle id="Elipse_5154" data-name="Elipse 5154" cx="1.192" cy="1.192" r="1.192" transform="translate(1.847 2.34)" fill="#051733"/>
            </g>
          </g>
          <path id="Trazado_183557" data-name="Trazado 183557" d="M243.854,98.345a4.124,4.124,0,0,0,7.766,0Z" transform="translate(-239.101 -84.63)" fill="#fff"/>
        </g>
      </g>
    </g>
    <g id="Grupo_121944" data-name="Grupo 121944" transform="translate(33.38 129.544)">
      <path id="Trazado_183558" data-name="Trazado 183558" d="M115.265,226.146a40.839,40.839,0,0,1-13.345,30.248,41.331,41.331,0,0,1-5.516,4.234,40.949,40.949,0,0,1-45.047-.581,41.542,41.542,0,0,1-5.264-4.24,40.945,40.945,0,1,1,69.172-29.66Z" transform="translate(-33.38 -185.2)" fill="#a9f73f"/>
      <g id="Grupo_121943" data-name="Grupo 121943" transform="translate(12.713 8.266)">
        <g id="Grupo_121938" data-name="Grupo 121938">
          <path id="Trazado_183559" data-name="Trazado 183559" d="M109.327,282.207a41.334,41.334,0,0,1-5.516,4.234,40.949,40.949,0,0,1-45.047-.581,41.542,41.542,0,0,1-5.264-4.24,18.354,18.354,0,0,1,7.88-5.845l3.772-1.453a16.249,16.249,0,0,0,10.072-11.86l.3-1.447.506-2.445v-.006l.676-3.242h8.985l.67,3.248.809,3.892a16.22,16.22,0,0,0,10.072,11.86l3.772,1.453A18.3,18.3,0,0,1,109.327,282.207Z" transform="translate(-53.5 -219.278)" fill="#f69779"/>
          <path id="Trazado_183560" data-name="Trazado 183560" d="M100.956,265.531a11.776,11.776,0,0,1-3.046.524,12.791,12.791,0,0,1-9.56-5.042l1.182-5.693h8.985L100,262.46A16.36,16.36,0,0,0,100.956,265.531Z" transform="translate(-66.329 -219.278)" fill="#f37a67"/>
          <path id="Trazado_183561" data-name="Trazado 183561" d="M84.912,199.56a9,9,0,0,0-13.512,6.07,18.051,18.051,0,0,0-.116,4.168q.2,4.086.4,8.171a14.936,14.936,0,0,1-.594,6.319,14.9,14.9,0,0,1-2.625,3.9l-2.961,3.526a3.471,3.471,0,0,0-.818,1.347c-.309,1.266.95,2.478,2.244,2.629a6.984,6.984,0,0,0,3.725-1,5.364,5.364,0,0,0-.111,1.671,2.613,2.613,0,0,0,.868,1.7,2.385,2.385,0,0,0,2.116.365,3.928,3.928,0,0,0,1.828-1.225,1.881,1.881,0,0,0,1.908,2.239,3.255,3.255,0,0,0,2.186-2.2c.838-2.159.572-4.57.257-6.865a70.469,70.469,0,0,1-.94-9.516,56.461,56.461,0,0,1,.988-9.288,31.993,31.993,0,0,1,1.509-6.293C82.046,203.265,83.163,200.829,84.912,199.56Z" transform="translate(-57.602 -198.281)" fill="#051733"/>
          <path id="Trazado_183562" data-name="Trazado 183562" d="M98.587,201.446a3.012,3.012,0,1,1-3.012-3.013A3.012,3.012,0,0,1,98.587,201.446Z" transform="translate(-67.88 -198.337)" fill="#00a593"/>
          <path id="Trazado_183563" data-name="Trazado 183563" d="M101.245,210.108a11.593,11.593,0,0,0-6.83-5.535,16.909,16.909,0,0,0-11.3,0,11.593,11.593,0,0,0-6.83,5.535c-2.641,5.5-2.191,14.046-2.191,14.046l2.754,3.176,11.917-1.644,11.917,1.644,2.754-3.176S103.887,215.6,101.245,210.108Z" transform="translate(-61.071 -200.24)" fill="#051733"/>
        </g>
        <path id="Trazado_183564" data-name="Trazado 183564" d="M103.748,227.738a2.193,2.193,0,0,0-.651-1.346,1.834,1.834,0,0,0-1.283-.411,3.377,3.377,0,0,0-1.321.379c-.569-6.641-5.409-9.87-8.815-11.323h-.006a17.316,17.316,0,0,0-3.362-1.087,17.316,17.316,0,0,0-3.362,1.087h-.006c-3.406,1.453-8.246,4.682-8.815,11.323a3.377,3.377,0,0,0-1.321-.379,1.834,1.834,0,0,0-1.283.411,2.193,2.193,0,0,0-.651,1.346,4.159,4.159,0,0,0,.663,2.926,4.06,4.06,0,0,0,2.426,1.712C77.721,244.7,88.311,244.7,88.311,244.7s10.59,0,12.347-12.322a4.06,4.06,0,0,0,2.426-1.712A4.159,4.159,0,0,0,103.748,227.738Z" transform="translate(-60.616 -204.049)" fill="#f69779"/>
        <path id="Trazado_183565" data-name="Trazado 183565" d="M106.877,299.729a40.949,40.949,0,0,1-45.047-.581l.506-1.6,1.257-3.968a3.879,3.879,0,0,1,3.659-2.161,2.741,2.741,0,0,1,2.224.9,4.213,4.213,0,0,1,2.635-.9,2.962,2.962,0,0,1,2.294.9,3.939,3.939,0,0,1,2.565-.9,3.175,3.175,0,0,1,2.363.9,3.665,3.665,0,0,1,2.5-.9,3.422,3.422,0,0,1,2.433.9,3.422,3.422,0,0,1,2.433-.9,3.665,3.665,0,0,1,2.5.9,3.175,3.175,0,0,1,2.363-.9,3.939,3.939,0,0,1,2.565.9,2.962,2.962,0,0,1,2.294-.9,4.213,4.213,0,0,1,2.635.9,2.741,2.741,0,0,1,2.224-.9,3.879,3.879,0,0,1,3.659,2.161l1.257,3.968Z" transform="translate(-56.566 -232.567)" fill="#05d6bf"/>
        <path id="Trazado_183566" data-name="Trazado 183566" d="M106.877,302.95a40.949,40.949,0,0,1-45.047-.581l.506-1.6a5.81,5.81,0,0,1,2.565-.6,3.341,3.341,0,0,1,2.534.9,5.209,5.209,0,0,1,3-.9,3.644,3.644,0,0,1,2.616.9,4.864,4.864,0,0,1,2.919-.9,3.886,3.886,0,0,1,2.685.9,4.536,4.536,0,0,1,2.843-.9,4.211,4.211,0,0,1,2.768.9,4.211,4.211,0,0,1,2.768-.9,4.536,4.536,0,0,1,2.843.9,3.886,3.886,0,0,1,2.685-.9,4.864,4.864,0,0,1,2.919.9,3.644,3.644,0,0,1,2.616-.9,5.209,5.209,0,0,1,3,.9,3.341,3.341,0,0,1,2.534-.9,5.81,5.81,0,0,1,2.565.6Z" transform="translate(-56.566 -235.789)" fill="#00a593"/>
        <g id="Grupo_121942" data-name="Grupo 121942" transform="translate(19.059 19.13)">
          <path id="Trazado_183567" data-name="Trazado 183567" d="M96.391,234.146v7.229h1.225C99.716,241.375,96.781,234.977,96.391,234.146Z" transform="translate(-88.348 -230.614)" fill="#f37a67"/>
          <g id="Grupo_121941" data-name="Grupo 121941">
            <g id="Grupo_121939" data-name="Grupo 121939" transform="translate(11.187)">
              <path id="Trazado_183568" data-name="Trazado 183568" d="M107.13,229.271a6.476,6.476,0,0,0-5.341-.258c-.748.3-.422,1.52.336,1.218a5.248,5.248,0,0,1,4.367.131C107.221,230.722,107.861,229.633,107.13,229.271Z" transform="translate(-101.367 -228.556)" fill="#051733"/>
              <path id="Trazado_183569" data-name="Trazado 183569" d="M106.686,232.887a1.374,1.374,0,0,0-1.192-.627,1.192,1.192,0,1,0,.411,2.306v0c.008,0,.013-.008.021-.01a1.2,1.2,0,0,0,.111-.053,2.075,2.075,0,0,0,1.153-1.609C106.984,233.072,106.686,232.887,106.686,232.887Z" transform="translate(-102.447 -229.919)" fill="#051733"/>
            </g>
            <g id="Grupo_121940" data-name="Grupo 121940">
              <path id="Trazado_183570" data-name="Trazado 183570" d="M83.984,229.271a6.476,6.476,0,0,1,5.341-.258c.748.3.422,1.52-.336,1.218a5.248,5.248,0,0,0-4.367.131C83.894,230.722,83.254,229.633,83.984,229.271Z" transform="translate(-83.662 -228.556)" fill="#051733"/>
              <path id="Trazado_183571" data-name="Trazado 183571" d="M86.29,232.887a1.376,1.376,0,0,1,1.192-.627,1.192,1.192,0,1,1-.411,2.306v0c-.008,0-.013-.008-.021-.01a1.2,1.2,0,0,1-.111-.053,2.075,2.075,0,0,1-1.153-1.609C85.993,233.072,86.29,232.887,86.29,232.887Z" transform="translate(-84.443 -229.919)" fill="#051733"/>
            </g>
          </g>
          <path id="Trazado_183572" data-name="Trazado 183572" d="M91.185,249.673a4.123,4.123,0,0,0,7.766,0Z" transform="translate(-86.431 -236.33)" fill="#fff"/>
        </g>
      </g>
    </g>
    <g id="Grupo_121955" data-name="Grupo 121955" transform="translate(225.251 129.544)">
      <path id="Trazado_183573" data-name="Trazado 183573" d="M418.915,226.146a41.007,41.007,0,0,1-22,36.308q-1.431.749-2.919,1.384a38.555,38.555,0,0,1-4.2,1.516c-.961.291-1.934.55-2.919.765-.329.076-.663.145-1,.208a41.245,41.245,0,0,1-15.81,0c-1.043-.2-2.066-.442-3.077-.727-.278-.076-.562-.158-.84-.246a40.036,40.036,0,0,1-4.2-1.516c-.992-.423-1.971-.885-2.919-1.384a40.948,40.948,0,1,1,59.883-36.308Z" transform="translate(-337.03 -185.2)" fill="#a9f73f"/>
      <g id="Grupo_121954" data-name="Grupo 121954" transform="translate(13.029 12.222)">
        <path id="Trazado_183574" data-name="Trazado 183574" d="M406.176,223.455h0c0-.03.445-7.876-2.191-12.924-1.462-2.739-4.256-4.256-6.83-5.094a18.289,18.289,0,0,0-11.3,0c-2.574.838-5.368,2.354-6.83,5.094-2.636,5.048-2.193,12.894-2.192,12.924h0c-.389,6.954-5.36,13.172-1.743,16.985,7.049,6.029,16.416-3.71,16.416-3.71s9.368,9.738,16.416,3.71C411.536,236.628,406.564,230.41,406.176,223.455Z" transform="translate(-363.586 -204.542)" fill="#051733"/>
        <path id="Trazado_183575" data-name="Trazado 183575" d="M413.477,281.909a40.837,40.837,0,0,1-8.973,6.357q-1.431.749-2.919,1.384a38.553,38.553,0,0,1-4.2,1.517c-.96.291-1.934.55-2.919.765-.329.076-.663.145-1,.208a41.247,41.247,0,0,1-15.81,0q-1.564-.3-3.077-.727c-.278-.076-.562-.158-.84-.246a40.034,40.034,0,0,1-4.2-1.517c-.992-.423-1.971-.885-2.919-1.384a41.022,41.022,0,0,1-8.973-6.35,18.278,18.278,0,0,1,8.1-6.142l3.772-1.453c.227-.088.455-.183.676-.278.171-.076.341-.152.505-.234s.354-.171.524-.265.366-.19.543-.3a15.084,15.084,0,0,0,1.422-.91v-.006q.313-.218.607-.455a16.271,16.271,0,0,0,5.794-9.415l.234-1.112.4-1.927v-.006l.177-.847.67-3.248h8.985l.67,3.248.177.853.632,3.039c.057.278.12.55.2.821s.152.569.24.847c.082.259.177.512.272.765.07.183.139.36.215.537.063.145.12.291.19.43.082.183.164.36.253.537s.177.354.272.524a16.32,16.32,0,0,0,4.764,5.409v.006a15.875,15.875,0,0,0,1.851,1.15c.265.145.531.278.809.4.329.152.67.3,1.011.43l3.772,1.453A18.259,18.259,0,0,1,413.477,281.909Z" transform="translate(-357.65 -223.234)" fill="#e44424"/>
        <path id="Trazado_183576" data-name="Trazado 183576" d="M434.927,290.358a40.835,40.835,0,0,1-8.973,6.357q-1.431.749-2.919,1.384a38.559,38.559,0,0,1-4.2,1.516c-.96.291-1.934.55-2.919.765.234-7.361.638-14.723.739-22.091v-.019a16.136,16.136,0,0,0,2.742,2.5h.006a14.22,14.22,0,0,0,1.832,1.163c.265.145.531.278.809.4.329.152.67.3,1.011.43l3.772,1.453A18.258,18.258,0,0,1,434.927,290.358Z" transform="translate(-379.1 -231.683)" fill="#a1cc36"/>
        <path id="Trazado_183577" data-name="Trazado 183577" d="M374.584,301.047c-.278-.076-.562-.158-.84-.246a40.034,40.034,0,0,1-4.2-1.517c-.992-.423-1.971-.885-2.919-1.384a41.022,41.022,0,0,1-8.973-6.35,18.279,18.279,0,0,1,8.1-6.142l3.772-1.453c.227-.088.455-.183.676-.278.171-.076.341-.152.505-.234s.354-.171.524-.265.366-.2.543-.3a14.92,14.92,0,0,0,1.4-.923h.006c.209-.152.417-.31.619-.468v.019c.032,4.524.215,9.036.613,13.541C374.591,297.047,374.6,299.044,374.584,301.047Z" transform="translate(-357.65 -232.868)" fill="#a1cc36"/>
        <path id="Trazado_183578" data-name="Trazado 183578" d="M405.006,266.921a9.971,9.971,0,0,1-15.216,0,16.276,16.276,0,0,0,1.637-4.461l.234-1.112,1.245-6.028h8.985l1.479,7.14q.18.853.436,1.668A16.61,16.61,0,0,0,405.006,266.921Z" transform="translate(-369.481 -223.234)" fill="#f69779"/>
        <path id="Trazado_183579" data-name="Trazado 183579" d="M404.895,264.128a12.3,12.3,0,0,1-3.854.8,12.937,12.937,0,0,1-8.29-3.576l1.245-6.028h8.985l1.479,7.14Q404.639,263.313,404.895,264.128Z" transform="translate(-370.571 -223.234)" fill="#f37a67"/>
        <g id="Grupo_121947" data-name="Grupo 121947" transform="translate(3.721 34.878)">
          <g id="Grupo_121945" data-name="Grupo 121945" transform="translate(39.677 0)">
            <path id="Trazado_183580" data-name="Trazado 183580" d="M429.388,262.165a3.476,3.476,0,0,1,3.849.185,5.615,5.615,0,0,1,2.09,3.418,15.4,15.4,0,0,1,.189,4.083,5.5,5.5,0,0,1-4.929.334,5.042,5.042,0,0,1-2.8-3.8A4.255,4.255,0,0,1,429.388,262.165Z" transform="translate(-426.848 -260.449)" fill="#051733"/>
            <path id="Trazado_183581" data-name="Trazado 183581" d="M429.494,261.321a1.582,1.582,0,1,1-1.582-1.582A1.582,1.582,0,0,1,429.494,261.321Z" transform="translate(-426.33 -259.739)" fill="#e44424"/>
          </g>
          <g id="Grupo_121946" data-name="Grupo 121946">
            <path id="Trazado_183582" data-name="Trazado 183582" d="M369.713,262.165a3.476,3.476,0,0,0-3.849.185,5.613,5.613,0,0,0-2.09,3.418,15.4,15.4,0,0,0-.189,4.083,5.5,5.5,0,0,0,4.929.334,5.043,5.043,0,0,0,2.8-3.8A4.255,4.255,0,0,0,369.713,262.165Z" transform="translate(-363.538 -260.448)" fill="#051733"/>
            <circle id="Elipse_5155" data-name="Elipse 5155" cx="1.582" cy="1.582" r="1.582" transform="translate(5.551)" fill="#e44424"/>
          </g>
        </g>
        <path id="Trazado_183583" data-name="Trazado 183583" d="M408.248,226.763a2.193,2.193,0,0,0-.651-1.346,1.834,1.834,0,0,0-1.283-.411,3.376,3.376,0,0,0-1.321.379,22.134,22.134,0,0,0-.316-4.4c-.7-3.861-2.458-6.11-4.417-7.406a13.312,13.312,0,0,0-14.9,0c-1.959,1.3-3.722,3.545-4.417,7.406a22.136,22.136,0,0,0-.316,4.4,3.376,3.376,0,0,0-1.321-.379,1.834,1.834,0,0,0-1.283.411,2.193,2.193,0,0,0-.651,1.346,4.159,4.159,0,0,0,.664,2.926,4.06,4.06,0,0,0,2.426,1.712c1.757,12.322,12.347,12.322,12.347,12.322s10.59,0,12.347-12.322a4.06,4.06,0,0,0,2.426-1.712A4.159,4.159,0,0,0,408.248,226.763Z" transform="translate(-364.894 -207.03)" fill="#f69779"/>
        <g id="Grupo_121948" data-name="Grupo 121948" transform="translate(13.66 39.226)">
          <path id="Trazado_183584" data-name="Trazado 183584" d="M419.494,281.817l-2.363,13.51c-.96.291-1.934.55-2.919.765-.329.076-.663.145-1,.208l-1.561-23.986-.259-3.911-.114-1.782s7.715,2.97,8.177,6.053c.43,2.9-1.529,3.728-1.757,3.81h-.006a.02.02,0,0,1-.013.006v.006l1.251,2.148A4.716,4.716,0,0,1,419.494,281.817Z" transform="translate(-391.053 -266.62)" fill="#718f26"/>
          <path id="Trazado_183585" data-name="Trazado 183585" d="M387.553,266.62l-.373,5.693L385.62,296.3q-1.564-.3-3.077-.727c-.278-.076-.562-.158-.84-.246l-2.363-13.51a4.716,4.716,0,0,1,.562-3.172l1.251-2.148v-.006a.02.02,0,0,1-.013-.006h-.006c-.227-.082-2.186-.91-1.757-3.81C379.838,269.59,387.553,266.62,387.553,266.62Z" transform="translate(-379.269 -266.62)" fill="#718f26"/>
        </g>
        <g id="Grupo_121949" data-name="Grupo 121949" transform="translate(8.973 58.024)">
          <path id="Trazado_183586" data-name="Trazado 183586" d="M374.769,304.761c-.992-.423-1.971-.885-2.919-1.384l1.34-7.008Z" transform="translate(-371.85 -296.37)" fill="#718f26"/>
          <path id="Trazado_183587" data-name="Trazado 183587" d="M430.1,303.378q-1.431.749-2.919,1.384l1.58-8.391Z" transform="translate(-392.218 -296.37)" fill="#718f26"/>
        </g>
        <g id="Grupo_121953" data-name="Grupo 121953" transform="translate(19.28 15.174)">
          <path id="Trazado_183588" data-name="Trazado 183588" d="M400.891,234.146v7.229h1.225C404.216,241.375,401.281,234.977,400.891,234.146Z" transform="translate(-392.848 -230.614)" fill="#f37a67"/>
          <g id="Grupo_121952" data-name="Grupo 121952">
            <g id="Grupo_121950" data-name="Grupo 121950" transform="translate(11.187)">
              <path id="Trazado_183589" data-name="Trazado 183589" d="M411.63,229.271a6.476,6.476,0,0,0-5.341-.258c-.748.3-.422,1.52.336,1.218a5.248,5.248,0,0,1,4.367.131C411.721,230.722,412.361,229.633,411.63,229.271Z" transform="translate(-405.867 -228.556)" fill="#051733"/>
              <path id="Trazado_183590" data-name="Trazado 183590" d="M411.186,232.887a1.374,1.374,0,0,0-1.192-.627,1.192,1.192,0,1,0,.411,2.306v0c.008,0,.013-.008.021-.01a1.2,1.2,0,0,0,.111-.053,2.075,2.075,0,0,0,1.153-1.609C411.484,233.072,411.186,232.887,411.186,232.887Z" transform="translate(-406.947 -229.919)" fill="#051733"/>
            </g>
            <g id="Grupo_121951" data-name="Grupo 121951">
              <path id="Trazado_183591" data-name="Trazado 183591" d="M388.484,229.271a6.476,6.476,0,0,1,5.341-.258c.747.3.422,1.52-.336,1.218a5.248,5.248,0,0,0-4.367.131C388.394,230.722,387.754,229.633,388.484,229.271Z" transform="translate(-388.162 -228.556)" fill="#051733"/>
              <path id="Trazado_183592" data-name="Trazado 183592" d="M390.79,232.887a1.376,1.376,0,0,1,1.192-.627,1.192,1.192,0,1,1-.411,2.306v0c-.008,0-.013-.008-.021-.01a1.19,1.19,0,0,1-.111-.053,2.075,2.075,0,0,1-1.153-1.609C390.493,233.072,390.79,232.887,390.79,232.887Z" transform="translate(-388.943 -229.919)" fill="#051733"/>
            </g>
          </g>
          <path id="Trazado_183593" data-name="Trazado 183593" d="M395.684,249.673a4.123,4.123,0,0,0,7.766,0Z" transform="translate(-390.931 -236.33)" fill="#fff"/>
        </g>
        <path id="Trazado_183594" data-name="Trazado 183594" d="M399.649,208.48l2.564,4.1a17.7,17.7,0,0,0,1.781,2.51,14.261,14.261,0,0,0,1.939,1.726,17.743,17.743,0,0,0,8.593,3.944c-.78-2.713-1.229-5.592-2.917-7.854A12.083,12.083,0,0,0,399.649,208.48Z" transform="translate(-373.111 -205.903)" fill="#051733"/>
        <path id="Trazado_183595" data-name="Trazado 183595" d="M395.42,209.568a12.136,12.136,0,0,1-4.174,5.958,26.106,26.106,0,0,1-9.417,5.255,11.69,11.69,0,0,1,1.962-6.467,9.651,9.651,0,0,1,2.368-2.837,10.692,10.692,0,0,1,3.007-1.35A11.222,11.222,0,0,1,395.42,209.568Z" transform="translate(-366.549 -206.303)" fill="#051733"/>
      </g>
    </g>
    <g id="Grupo_121964" data-name="Grupo 121964" transform="translate(129.312 129.544)">
      <path id="Trazado_183596" data-name="Trazado 183596" d="M267.092,226.146a41,41,0,0,1-19.051,34.608,38.772,38.772,0,0,1-3.425,1.94,40.983,40.983,0,0,1-36.94,0,38.773,38.773,0,0,1-3.425-1.94,40.949,40.949,0,1,1,62.841-34.608Z" transform="translate(-185.2 -185.2)" fill="#a9f73f"/>
      <g id="Grupo_121963" data-name="Grupo 121963" transform="translate(9.339 9.773)">
        <g id="Grupo_121956" data-name="Grupo 121956">
          <path id="Trazado_183597" data-name="Trazado 183597" d="M263.193,277.986a41.027,41.027,0,0,1-9.712,8.581,38.791,38.791,0,0,1-3.425,1.94,40.983,40.983,0,0,1-36.94,0,38.788,38.788,0,0,1-3.425-1.94,41.026,41.026,0,0,1-9.712-8.581,11.174,11.174,0,0,1,7.456-6.755l9.813-2.711,3.444-.954,3.153-.872,1.194-6.685.36-2.016.474-2.673,5.712,2.237,5.712-2.237.474,2.673.96,5.377.594,3.324,3.153.872,3.444.954,9.813,2.711A11.174,11.174,0,0,1,263.193,277.986Z" transform="translate(-199.98 -220.786)" fill="#75b51d"/>
          <path id="Trazado_183598" data-name="Trazado 183598" d="M254.547,267.566l-.095.164c-.708,4.221-4.587,6.805-10.331,6.805-.2,0-.354,0-.468-.006s-.272.006-.468.006c-5.75,0-9.624-2.584-10.331-6.805l-.095-.164,3.153-.872,2.028-11.374,5.712,2.237,5.712-2.237,2.028,11.374Z" transform="translate(-212.047 -220.786)" fill="#c1ff6e"/>
          <path id="Trazado_183599" data-name="Trazado 183599" d="M253.231,266.694c-.348,5.137-7.741,4.67-7.741,4.67s-7.393.468-7.741-4.67l1.194-6.685.834-4.689,5.712,2.237,5.712-2.237,1.434,8.05Z" transform="translate(-213.884 -220.786)" fill="#86201b"/>
          <path id="Trazado_183600" data-name="Trazado 183600" d="M255.968,215.208a.8.8,0,0,0,.324-.676c-.013-.26-.1-.721-.321-.854a1.414,1.414,0,0,0-.231-1.431,1.188,1.188,0,0,0-.263-1.317c.22-.389-.191-1.1-.625-1.2a1.6,1.6,0,0,0-.717-1.334,1.319,1.319,0,0,0-.818-1.616,10.281,10.281,0,0,0-1.745-2.31,1.842,1.842,0,0,0-1.438-1.157,1.336,1.336,0,0,0-.659-.876,1.842,1.842,0,0,0-1.288-.117,1.248,1.248,0,0,0-1.5-.432,1.057,1.057,0,0,0-1.463-.322,1.3,1.3,0,0,0-1.58-.264,1.527,1.527,0,0,0-1.361-.081,1.3,1.3,0,0,0-2.124,0,1.527,1.527,0,0,0-1.361.081,1.3,1.3,0,0,0-1.58.264,1.057,1.057,0,0,0-1.463.322,1.249,1.249,0,0,0-1.5.432,1.84,1.84,0,0,0-1.288.117,1.336,1.336,0,0,0-.659.876,1.844,1.844,0,0,0-1.439,1.157,10.331,10.331,0,0,0-1.745,2.31,1.319,1.319,0,0,0-.818,1.616,1.6,1.6,0,0,0-.718,1.334c-.433.109-.844.816-.624,1.2a1.188,1.188,0,0,0-.263,1.317,1.414,1.414,0,0,0-.231,1.431c-.224.133-.309.595-.321.854a.805.805,0,0,0,.324.676,1.432,1.432,0,0,0,.047,1.686,2.237,2.237,0,0,0,.224,1.886,1.342,1.342,0,0,0,.2,1.375,1.569,1.569,0,0,0,.586,1.887c.052,0,.262.214.314.214h10.8l2.58-9.741,2.579,9.741h10.8c.052,0,.262-.214.314-.214a1.569,1.569,0,0,0,.586-1.887,1.342,1.342,0,0,0,.2-1.375,2.237,2.237,0,0,0,.224-1.886A1.433,1.433,0,0,0,255.968,215.208Z" transform="translate(-209.611 -200.667)" fill="#051733"/>
          <path id="Trazado_183601" data-name="Trazado 183601" d="M255.754,231.018a4.06,4.06,0,0,1-2.426,1.712c-.013.07-.019.139-.032.2-1.845,12.119-12.315,12.119-12.315,12.119s-10.47,0-12.315-12.119c-.013-.063-.019-.133-.032-.2a4.061,4.061,0,0,1-2.426-1.712,4.159,4.159,0,0,1-.663-2.926,2.192,2.192,0,0,1,.651-1.346,1.834,1.834,0,0,1,1.283-.411,3.291,3.291,0,0,1,1.264.354c.019.006.038.019.057.025v-.107c.019-1.188.272-11.551,4.17-11.677,2.7-.139,3.911.676,8.012.676s5.308-.815,8.012-.676c3.9.126,4.151,10.5,4.17,11.677v.107c.019-.006.038-.019.057-.025a3.291,3.291,0,0,1,1.264-.354,1.834,1.834,0,0,1,1.283.411,2.193,2.193,0,0,1,.651,1.346A4.159,4.159,0,0,1,255.754,231.018Z" transform="translate(-209.374 -205.912)" fill="#86201b"/>
          <path id="Trazado_183602" data-name="Trazado 183602" d="M253.333,263.37a12.574,12.574,0,0,1-4.594,1.1,12.83,12.83,0,0,1-9.1-4.461l.834-4.689,5.712,2.237,5.712-2.237Z" transform="translate(-214.58 -220.786)" fill="#611714"/>
        </g>
        <path id="Trazado_183603" data-name="Trazado 183603" d="M255.489,220.4a18.585,18.585,0,0,0-.974-4.922,6.724,6.724,0,0,0-3.03-4.016,8.813,8.813,0,0,0-4.431-.863,6.821,6.821,0,0,0-2.2.329c-1.1.4-2.277.173-2.521,1.237-.243-1.065-1.426-.839-2.521-1.237a6.821,6.821,0,0,0-2.2-.329,8.813,8.813,0,0,0-4.431.863,6.721,6.721,0,0,0-3.03,4.016,18.582,18.582,0,0,0-.974,4.922,9.172,9.172,0,0,0,.973,4.721c.4.117.3-.679.247-1.067s-.289-.761-.222-1.147c.1-.6.869-.944.981-1.541.121-.641-.576-1.251-.409-1.884.171-.653,1.087-.821,1.585-1.308.443-.433.537-1.11,1.008-1.517.895-.773,2.459-.1,3.511-.673a12.954,12.954,0,0,0,1.053-.858,2.105,2.105,0,0,1,1.154-.363,12.2,12.2,0,0,1,1.68.284,1.44,1.44,0,0,0,1.486-.545,1.4,1.4,0,0,0,.11-.31,1.406,1.406,0,0,0,.11.31,1.44,1.44,0,0,0,1.486.545,12.194,12.194,0,0,1,1.68-.284,2.1,2.1,0,0,1,1.154.363,12.968,12.968,0,0,0,1.054.858c1.052.575,2.616-.1,3.511.673.471.407.565,1.084,1.008,1.517.5.487,1.414.655,1.585,1.308.167.633-.53,1.243-.409,1.884.112.6.878.943.981,1.541.066.386-.167.76-.222,1.147s-.155,1.184.247,1.067A9.172,9.172,0,0,0,255.489,220.4Z" transform="translate(-210.724 -204.323)" fill="#051733"/>
        <path id="Trazado_183604" data-name="Trazado 183604" d="M255.141,239.517v.2c-1.845,12.119-12.315,12.119-12.315,12.119s-10.47,0-12.315-12.119v-.2l.076-6.041v-.126a.346.346,0,0,1,.057.044,2.443,2.443,0,0,1,1,2.218,1.564,1.564,0,0,1,.524,1.75,1.905,1.905,0,0,1,.638,1.289,2.3,2.3,0,0,1-.373,1.548,1.693,1.693,0,0,1,.828.967,2.227,2.227,0,0,1-.051,1.447,2.053,2.053,0,0,1,.632,2.186,2.185,2.185,0,0,1,1.4,1.611,1.7,1.7,0,0,1,1.523.575,1.831,1.831,0,0,1,2.1-.335,1.81,1.81,0,0,1,2.054.19,4.424,4.424,0,0,1,3.8,0,1.81,1.81,0,0,1,2.054-.19,1.831,1.831,0,0,1,2.1.335,1.7,1.7,0,0,1,1.523-.575,2.185,2.185,0,0,1,1.4-1.611,2.053,2.053,0,0,1,.632-2.186,2.227,2.227,0,0,1-.051-1.447,1.693,1.693,0,0,1,.828-.967,2.3,2.3,0,0,1-.373-1.548,1.905,1.905,0,0,1,.638-1.289,1.564,1.564,0,0,1,.525-1.75,2.443,2.443,0,0,1,1-2.218.348.348,0,0,1,.057-.044v.126Z" transform="translate(-211.219 -212.698)" fill="#051733"/>
        <g id="Grupo_121957" data-name="Grupo 121957" transform="translate(9.712 57.345)">
          <path id="Trazado_183605" data-name="Trazado 183605" d="M218.775,301.8a38.783,38.783,0,0,1-3.425-1.94l1.548-8.436Z" transform="translate(-215.35 -291.42)" fill="#588817"/>
          <path id="Trazado_183606" data-name="Trazado 183606" d="M282.655,299.856a38.779,38.779,0,0,1-3.425,1.94l1.877-10.375Z" transform="translate(-238.865 -291.42)" fill="#588817"/>
        </g>
        <g id="Grupo_121962" data-name="Grupo 121962" transform="translate(22.97 15.595)">
          <path id="Trazado_183607" data-name="Trazado 183607" d="M249.061,230.937v7.229h1.225C252.386,238.166,249.451,231.768,249.061,230.937Z" transform="translate(-241.018 -227.405)" fill="#611714"/>
          <g id="Grupo_121961" data-name="Grupo 121961">
            <g id="Grupo_121958" data-name="Grupo 121958" transform="translate(11.187)">
              <path id="Trazado_183608" data-name="Trazado 183608" d="M259.8,226.063a6.476,6.476,0,0,0-5.341-.259c-.748.3-.422,1.52.336,1.219a5.248,5.248,0,0,1,4.367.131C259.891,227.514,260.531,226.424,259.8,226.063Z" transform="translate(-254.036 -225.348)" fill="#051733"/>
              <circle id="Elipse_5156" data-name="Elipse 5156" cx="1.192" cy="1.192" r="1.192" transform="translate(1.856 2.34)" fill="#051733"/>
            </g>
            <g id="Grupo_121960" data-name="Grupo 121960">
              <g id="Grupo_121959" data-name="Grupo 121959">
                <path id="Trazado_183609" data-name="Trazado 183609" d="M236.654,226.063a6.476,6.476,0,0,1,5.341-.259c.748.3.422,1.52-.336,1.219a5.248,5.248,0,0,0-4.367.131C236.564,227.514,235.924,226.424,236.654,226.063Z" transform="translate(-236.332 -225.348)" fill="#051733"/>
                <circle id="Elipse_5157" data-name="Elipse 5157" cx="1.192" cy="1.192" r="1.192" transform="translate(1.847 2.34)" fill="#051733"/>
              </g>
            </g>
          </g>
          <path id="Trazado_183610" data-name="Trazado 183610" d="M243.854,247.847a4.124,4.124,0,0,0,7.766,0Z" transform="translate(-239.101 -233.63)" fill="#fff"/>
        </g>
      </g>
    </g>
    <g id="Grupo_121973" data-name="Grupo 121973" transform="translate(33.38 225.084)">
      <path id="Trazado_183611" data-name="Trazado 183611" d="M115.265,377.34a40.854,40.854,0,0,1-12.77,29.717,41.635,41.635,0,0,1-6.148,4.8,38.894,38.894,0,0,1-3.709,2.1,40.944,40.944,0,1,1,22.628-36.624Z" transform="translate(-33.38 -336.4)" fill="#a9f73f"/>
      <g id="Grupo_121972" data-name="Grupo 121972" transform="translate(12.126 12.13)">
        <g id="Grupo_121966" data-name="Grupo 121966">
          <path id="Trazado_183612" data-name="Trazado 183612" d="M103.561,403.381c-3.408-2.738-2.595-5.581-.8-10.426s.421-9.583-2.422-12.111a15.606,15.606,0,0,1-3.987-5.7l-14.082.636-14.082-.636a15.606,15.606,0,0,1-3.987,5.7c-2.843,2.528-4.213,7.267-2.423,12.111s2.6,7.688-.8,10.426-6.778,9.584-2.671,15.8h47.933C110.339,412.965,106.97,406.12,103.561,403.381Z" transform="translate(-53.983 -362.791)" fill="#e44424"/>
          <path id="Trazado_183613" data-name="Trazado 183613" d="M109.559,440.184a41.638,41.638,0,0,1-6.148,4.8,38.894,38.894,0,0,1-3.709,2.1,40.851,40.851,0,0,1-47.132-7.545A17.982,17.982,0,0,1,55.805,436a18.283,18.283,0,0,1,5.232-3.1l3.772-1.453a16.382,16.382,0,0,0,2.806-1.4,16.183,16.183,0,0,0,2.641-2.073c.145-.139.284-.284.423-.43.107-.107.215-.221.316-.335.12-.133.24-.265.354-.4a.5.5,0,0,0,.076-.095.272.272,0,0,0,.057-.063c.006,0,.006-.006.013-.013a1.844,1.844,0,0,0,.164-.208.063.063,0,0,0,.025-.032H90.022c.114.139.221.278.335.411s.227.265.348.392c-.006.006,0,.013.006.013l.07.07c.013.019.032.038.044.057a.006.006,0,0,0,.006.006c.076.088.158.171.24.253l.379.379a16.183,16.183,0,0,0,2.641,2.073,16.382,16.382,0,0,0,2.806,1.4l3.772,1.453A18.283,18.283,0,0,1,105.9,436,17.963,17.963,0,0,1,109.559,440.184Z" transform="translate(-52.57 -381.657)" fill="#00a593"/>
          <path id="Trazado_183614" data-name="Trazado 183614" d="M98.789,426.39H80.446a16.008,16.008,0,0,1-4.066,3.652,23.664,23.664,0,0,0,13.238,3.684,23.664,23.664,0,0,0,13.238-3.684,16.03,16.03,0,0,1-4.067-3.652Z" transform="translate(-61.335 -381.657)" fill="#05d6bf"/>
          <path id="Trazado_183615" data-name="Trazado 183615" d="M101.753,419.845a22.917,22.917,0,0,1-21.193,0,16.244,16.244,0,0,0,4.625-8.385l.36-1.731,1.118-5.409h8.985l1.479,7.14a16.179,16.179,0,0,0,1.314,3.823A16,16,0,0,0,101.753,419.845Z" transform="translate(-62.874 -373.533)" fill="#f69779"/>
          <path id="Trazado_183616" data-name="Trazado 183616" d="M101.347,415.283a11.4,11.4,0,0,1-2.7.43,12.726,12.726,0,0,1-10.192-5.984l1.118-5.409h8.985l1.479,7.14A16.179,16.179,0,0,0,101.347,415.283Z" transform="translate(-65.778 -373.533)" fill="#f37a67"/>
          <g id="Grupo_121965" data-name="Grupo 121965" transform="translate(12.802)">
            <path id="Trazado_183617" data-name="Trazado 183617" d="M101.245,361.585c-1.462-2.739-4.256-4.256-6.83-5.094a18.289,18.289,0,0,0-11.3,0c-2.574.838-5.368,2.354-6.83,5.094C73.646,366.643,74.1,374.51,74.1,374.51l2.754,2.922,11.917-1.513,11.917,1.513,2.754-2.922S103.887,366.643,101.245,361.585Z" transform="translate(-73.285 -355.597)" fill="#e44424"/>
            <path id="Trazado_183618" data-name="Trazado 183618" d="M100.658,381.377C98.9,393.7,88.311,393.7,88.311,393.7s-10.59,0-12.347-12.322a4.06,4.06,0,0,1-2.426-1.712,4.159,4.159,0,0,1-.663-2.926,2.193,2.193,0,0,1,.651-1.346,1.834,1.834,0,0,1,1.283-.411,3.376,3.376,0,0,1,1.321.379s.708-13.036,9.516-12.385c5.365.727,5.8,3.7,6.6,5.8s2.9,6.376,5.725,8.695S100.658,381.377,100.658,381.377Z" transform="translate(-72.83 -358.305)" fill="#f69779"/>
          </g>
        </g>
        <g id="Grupo_121967" data-name="Grupo 121967" transform="translate(6.793 54.281)">
          <path id="Trazado_183619" data-name="Trazado 183619" d="M67.029,452.659a40.3,40.3,0,0,1-3.709-2.1l1.289-6.951L65,441.5l.385,2.1Z" transform="translate(-63.32 -441.5)" fill="#058174"/>
          <path id="Trazado_183620" data-name="Trazado 183620" d="M130.869,450.549a38.9,38.9,0,0,1-3.709,2.1L128.8,443.6l.385-2.1.392,2.1Z" transform="translate(-86.821 -441.5)" fill="#058174"/>
        </g>
        <g id="Grupo_121971" data-name="Grupo 121971" transform="translate(19.646 15.741)">
          <path id="Trazado_183621" data-name="Trazado 183621" d="M96.391,386.1v7.229h1.225C99.716,393.327,96.781,386.929,96.391,386.1Z" transform="translate(-88.348 -382.566)" fill="#f37a67"/>
          <g id="Grupo_121970" data-name="Grupo 121970">
            <g id="Grupo_121968" data-name="Grupo 121968" transform="translate(11.187)">
              <path id="Trazado_183622" data-name="Trazado 183622" d="M107.13,381.224a6.476,6.476,0,0,0-5.341-.259c-.748.3-.422,1.52.336,1.218a5.248,5.248,0,0,1,4.367.132C107.221,382.675,107.861,381.585,107.13,381.224Z" transform="translate(-101.367 -380.509)" fill="#e44424"/>
              <path id="Trazado_183623" data-name="Trazado 183623" d="M106.686,384.839a1.374,1.374,0,0,0-1.192-.627,1.192,1.192,0,1,0,.411,2.306v0a.221.221,0,0,0,.021-.01,1.191,1.191,0,0,0,.111-.052,2.076,2.076,0,0,0,1.153-1.609C106.984,385.024,106.686,384.839,106.686,384.839Z" transform="translate(-102.447 -381.872)" fill="#051733"/>
            </g>
            <g id="Grupo_121969" data-name="Grupo 121969">
              <path id="Trazado_183624" data-name="Trazado 183624" d="M83.984,381.224a6.476,6.476,0,0,1,5.341-.259c.748.3.422,1.52-.336,1.218a5.248,5.248,0,0,0-4.367.132C83.894,382.675,83.254,381.585,83.984,381.224Z" transform="translate(-83.662 -380.509)" fill="#e44424"/>
              <path id="Trazado_183625" data-name="Trazado 183625" d="M86.29,384.839a1.376,1.376,0,0,1,1.192-.627,1.192,1.192,0,1,1-.411,2.306v0a.224.224,0,0,1-.021-.01,1.191,1.191,0,0,1-.111-.052,2.076,2.076,0,0,1-1.153-1.609C85.993,385.024,86.29,384.839,86.29,384.839Z" transform="translate(-84.443 -381.872)" fill="#051733"/>
            </g>
          </g>
          <path id="Trazado_183626" data-name="Trazado 183626" d="M91.185,401.724a4.123,4.123,0,0,0,7.766,0Z" transform="translate(-86.431 -388.318)" fill="#fff"/>
        </g>
      </g>
    </g>
    <g id="Grupo_121983" data-name="Grupo 121983" transform="translate(225.251 225.084)">
      <path id="Trazado_183627" data-name="Trazado 183627" d="M418.915,377.34a40.8,40.8,0,0,1-12.448,29.4,40.168,40.168,0,0,1-6.685,5.257,37.316,37.316,0,0,1-3.242,1.851,41.027,41.027,0,0,1-37.136,0c-1.112-.569-2.193-1.182-3.242-1.851a40.942,40.942,0,1,1,62.752-34.652Z" transform="translate(-337.03 -336.4)" fill="#a9f73f"/>
      <g id="Grupo_121982" data-name="Grupo 121982" transform="translate(12.448 8.962)">
        <g id="Grupo_121976" data-name="Grupo 121976">
          <path id="Trazado_183628" data-name="Trazado 183628" d="M413.719,431.737a40.171,40.171,0,0,1-6.685,5.257,37.288,37.288,0,0,1-3.242,1.851,41.027,41.027,0,0,1-37.136,0c-1.112-.569-2.193-1.182-3.242-1.851a40.8,40.8,0,0,1-6.685-5.251,18.265,18.265,0,0,1,8.682-6.97l3.772-1.453a15.314,15.314,0,0,0,1.927-.9,15.844,15.844,0,0,0,2.6-1.75,16.63,16.63,0,0,0,2.041-2.016,16.312,16.312,0,0,0,3.507-7.2l.31-1.491.5-2.4.373-1.795v-.006l.3-1.447h8.985l.3,1.447.366,1.8.809,3.892a15.618,15.618,0,0,0,.942,3.014,16.188,16.188,0,0,0,2.565,4.183,16.63,16.63,0,0,0,2.041,2.016,15.844,15.844,0,0,0,2.6,1.75,15.314,15.314,0,0,0,1.927.9l3.772,1.453A18.3,18.3,0,0,1,413.719,431.737Z" transform="translate(-356.73 -370.364)" fill="#f69779"/>
          <path id="Trazado_183629" data-name="Trazado 183629" d="M405.444,414.474a11.757,11.757,0,0,1-3.027.518,12.8,12.8,0,0,1-9.548-5.023l1.169-5.649h8.985l1.479,7.14A15.618,15.618,0,0,0,405.444,414.474Z" transform="translate(-370.034 -370.364)" fill="#f37a67"/>
          <g id="Grupo_121974" data-name="Grupo 121974" transform="translate(0 48.27)">
            <path id="Trazado_183630" data-name="Trazado 183630" d="M407.722,430.762a2.515,2.515,0,0,1-1,.36,2.665,2.665,0,0,0-3.734.442,2.477,2.477,0,0,1-1.934-.626,7.82,7.82,0,0,0-5.567,1.068,2.67,2.67,0,0,0-3.753,0,2.664,2.664,0,0,0-3.753-.145,2.509,2.509,0,0,1-1.814-.923,7.8,7.8,0,0,0-5.668.183,2.515,2.515,0,0,1-1-.36,15.846,15.846,0,0,0,2.6-1.75A16.621,16.621,0,0,0,384.128,427a2.332,2.332,0,0,1,.556-.013,2.381,2.381,0,0,0,3.564.284,2.376,2.376,0,0,0,3.57.139,2.381,2.381,0,0,0,3.576,0,2.376,2.376,0,0,0,3.57-.139,2.381,2.381,0,0,0,3.564-.284,2.331,2.331,0,0,1,.556.013,16.63,16.63,0,0,0,2.041,2.016A15.846,15.846,0,0,0,407.722,430.762Z" transform="translate(-365.108 -426.973)" fill="#45c6e5"/>
            <path id="Trazado_183631" data-name="Trazado 183631" d="M413.719,441.264a40.171,40.171,0,0,1-6.685,5.257,37.288,37.288,0,0,1-3.242,1.851,41.027,41.027,0,0,1-37.136,0c-1.112-.569-2.193-1.182-3.242-1.851a40.805,40.805,0,0,1-6.685-5.251,18.265,18.265,0,0,1,8.682-6.97l3.772-1.453a15.322,15.322,0,0,0,1.927-.9,15.846,15.846,0,0,0,2.6-1.75,93.074,93.074,0,0,0,23.038,0,15.846,15.846,0,0,0,2.6,1.75,15.322,15.322,0,0,0,1.927.9l3.772,1.453A18.3,18.3,0,0,1,413.719,441.264Z" transform="translate(-356.73 -428.161)" fill="#2df0da"/>
          </g>
          <g id="Grupo_121975" data-name="Grupo 121975" transform="translate(13.412)">
            <path id="Trazado_183632" data-name="Trazado 183632" d="M405.848,357.186a11.872,11.872,0,0,0-7.009-5.618,17.534,17.534,0,0,0-11.595,0,11.872,11.872,0,0,0-7.009,5.618c-2.711,5.578-2.25,14.256-2.25,14.256l2.826,3.223L393.041,373l12.23,1.668,2.826-3.223S408.559,362.765,405.848,357.186Z" transform="translate(-377.955 -350.582)" fill="#051733"/>
            <path id="Trazado_183633" data-name="Trazado 183633" d="M421.83,398.023s6.678,3.21,7.368,20.81C429.2,418.833,418.606,410.733,421.83,398.023Z" transform="translate(-393.882 -368.046)" fill="#051733"/>
            <path id="Trazado_183634" data-name="Trazado 183634" d="M421.842,396.856a2,2,0,1,1-2-2A2,2,0,0,1,421.842,396.856Z" transform="translate(-392.636 -366.88)" fill="#f03832"/>
            <path id="Trazado_183635" data-name="Trazado 183635" d="M393.08,378.637l-15.02,6.356c1.077,10.616,15.02,12.641,15.02,12.641s13.942-2.026,15.019-12.641Z" transform="translate(-377.994 -360.91)" fill="#051733"/>
          </g>
        </g>
        <path id="Trazado_183636" data-name="Trazado 183636" d="M408.248,375.242a2.193,2.193,0,0,0-.651-1.346,1.834,1.834,0,0,0-1.283-.411,3.377,3.377,0,0,0-1.321.379,15.863,15.863,0,0,0-.183-3.279.186.186,0,0,1-.013-.063,13.983,13.983,0,0,0-4.392-8.455,13.755,13.755,0,0,0-6.326-3.045,6.052,6.052,0,0,0-2.539,0,13.774,13.774,0,0,0-6.332,3.045,13.978,13.978,0,0,0-4.385,8.436c0,.013-.006.019-.006.032a15.9,15.9,0,0,0-.2,3.33,3.347,3.347,0,0,0-1.314-.379,1.834,1.834,0,0,0-1.283.411,2.193,2.193,0,0,0-.651,1.346,4.159,4.159,0,0,0,.664,2.926,4.06,4.06,0,0,0,2.426,1.712c1.757,12.322,12.347,12.322,12.347,12.322s10.59,0,12.347-12.322a4.06,4.06,0,0,0,2.426-1.712A4.159,4.159,0,0,0,408.248,375.242Z" transform="translate(-364.313 -353.64)" fill="#f69779"/>
        <g id="Grupo_121977" data-name="Grupo 121977" transform="translate(6.685 58.713)">
          <path id="Trazado_183637" data-name="Trazado 183637" d="M370.552,453.269c-1.112-.569-2.193-1.182-3.242-1.851l1.466-7.917Z" transform="translate(-367.31 -443.5)" fill="#35a3be"/>
          <path id="Trazado_183638" data-name="Trazado 183638" d="M434.452,451.417a37.288,37.288,0,0,1-3.242,1.851l1.776-9.769Z" transform="translate(-390.833 -443.5)" fill="#35a3be"/>
        </g>
        <g id="Grupo_121981" data-name="Grupo 121981" transform="translate(19.861 16.934)">
          <path id="Trazado_183639" data-name="Trazado 183639" d="M400.891,382.97V390.2h1.225C404.216,390.2,401.281,383.8,400.891,382.97Z" transform="translate(-392.848 -379.439)" fill="#f37a67"/>
          <g id="Grupo_121980" data-name="Grupo 121980">
            <g id="Grupo_121978" data-name="Grupo 121978" transform="translate(11.187)">
              <path id="Trazado_183640" data-name="Trazado 183640" d="M411.63,378.1a6.478,6.478,0,0,0-5.341-.259c-.748.3-.422,1.52.336,1.219a5.248,5.248,0,0,1,4.367.131C411.721,379.547,412.361,378.457,411.63,378.1Z" transform="translate(-405.867 -377.381)" fill="#051733"/>
              <path id="Trazado_183641" data-name="Trazado 183641" d="M411.186,381.711a1.374,1.374,0,0,0-1.192-.627,1.192,1.192,0,1,0,.411,2.306v0c.008,0,.013-.007.021-.009a1.2,1.2,0,0,0,.111-.053,2.075,2.075,0,0,0,1.153-1.609C411.484,381.9,411.186,381.711,411.186,381.711Z" transform="translate(-406.947 -378.744)" fill="#051733"/>
            </g>
            <g id="Grupo_121979" data-name="Grupo 121979">
              <path id="Trazado_183642" data-name="Trazado 183642" d="M388.484,378.1a6.478,6.478,0,0,1,5.341-.259c.747.3.422,1.52-.336,1.219a5.248,5.248,0,0,0-4.367.131C388.394,379.547,387.754,378.457,388.484,378.1Z" transform="translate(-388.162 -377.381)" fill="#051733"/>
              <path id="Trazado_183643" data-name="Trazado 183643" d="M390.79,381.711a1.376,1.376,0,0,1,1.192-.627,1.192,1.192,0,1,1-.411,2.306v0c-.008,0-.013-.007-.021-.009a1.19,1.19,0,0,1-.111-.053,2.075,2.075,0,0,1-1.153-1.609C390.493,381.9,390.79,381.711,390.79,381.711Z" transform="translate(-388.943 -378.744)" fill="#051733"/>
            </g>
          </g>
          <path id="Trazado_183644" data-name="Trazado 183644" d="M395.684,398.6a4.124,4.124,0,0,0,7.766,0Z" transform="translate(-390.931 -385.191)" fill="#fff"/>
        </g>
      </g>
    </g>
    <g id="Grupo_121996" data-name="Grupo 121996" transform="translate(129.312 225.084)">
      <path id="Trazado_183645" data-name="Trazado 183645" d="M267.092,377.34a41.025,41.025,0,0,1-18.925,34.526,40.305,40.305,0,0,1-3.709,2.1,41.007,41.007,0,0,1-36.624,0,40.306,40.306,0,0,1-3.709-2.1,40.946,40.946,0,1,1,62.967-34.526Z" transform="translate(-185.2 -336.4)" fill="#a9f73f"/>
      <g id="Grupo_121995" data-name="Grupo 121995" transform="translate(9.011 7.297)">
        <g id="Grupo_121989" data-name="Grupo 121989">
          <path id="Trazado_183646" data-name="Trazado 183646" d="M263.33,427.959a40.768,40.768,0,0,1-9.914,8.909,40.308,40.308,0,0,1-3.709,2.1,41.007,41.007,0,0,1-36.624,0,40.3,40.3,0,0,1-3.709-2.1,40.768,40.768,0,0,1-9.914-8.909,11.181,11.181,0,0,1,7.785-7.728l6.18-1.706h.006l3.627-1,6.6-1.826,1-5.636.461-2.578.082-.487.48-2.673,5.712,2.237,5.712-2.237.48,2.673.543,3.065.487,2.73.518,2.907,6.6,1.826,3.627,1h.006l6.18,1.706A11.181,11.181,0,0,1,263.33,427.959Z" transform="translate(-199.46 -368.699)" fill="#ff8900"/>
          <g id="Grupo_121988" data-name="Grupo 121988" transform="translate(21.85 61.086)">
            <g id="Grupo_121985" data-name="Grupo 121985" transform="translate(12.267)">
              <g id="Grupo_121984" data-name="Grupo 121984">
                <path id="Trazado_183647" data-name="Trazado 183647" d="M259.378,455.293h0a.316.316,0,0,1-.314-.318,11.573,11.573,0,0,0-5.458-9.769.316.316,0,0,1,.329-.54,12.219,12.219,0,0,1,5.761,10.312A.316.316,0,0,1,259.378,455.293Z" transform="translate(-253.453 -444.621)" fill="#00a593"/>
              </g>
              <path id="Trazado_183648" data-name="Trazado 183648" d="M263.656,459.859a1.977,1.977,0,1,1-1.978-1.978A1.977,1.977,0,0,1,263.656,459.859Z" transform="translate(-255.753 -449.502)" fill="#00a593"/>
            </g>
            <g id="Grupo_121987" data-name="Grupo 121987" transform="translate(0 0)">
              <g id="Grupo_121986" data-name="Grupo 121986" transform="translate(1.661)">
                <path id="Trazado_183649" data-name="Trazado 183649" d="M236.985,455.293a.316.316,0,0,1-.316-.314,12.218,12.218,0,0,1,5.762-10.312.316.316,0,0,1,.329.54,11.574,11.574,0,0,0-5.458,9.769.316.316,0,0,1-.314.318Z" transform="translate(-236.669 -444.621)" fill="#00a593"/>
              </g>
              <path id="Trazado_183650" data-name="Trazado 183650" d="M234.04,459.859a1.977,1.977,0,1,0,1.977-1.978A1.977,1.977,0,0,0,234.04,459.859Z" transform="translate(-234.04 -449.502)" fill="#00a593"/>
            </g>
          </g>
          <path id="Trazado_183651" data-name="Trazado 183651" d="M257.518,419.783c-1.243-11.029-18.065-4.939-18.065-4.939s-16.822-6.09-18.065,4.939c-1.01,8.958,18.065,16.466,18.065,16.466S258.527,428.742,257.518,419.783Z" transform="translate(-207.518 -371.956)" fill="#b26001"/>
          <path id="Trazado_183652" data-name="Trazado 183652" d="M253.231,415.694c0,4.215-15.481,4.215-15.481,0l1.466-8.214.562-3.159,5.712,2.237,5.712-2.237,1.51,8.467Z" transform="translate(-213.555 -368.699)" fill="#f69779"/>
          <path id="Trazado_183653" data-name="Trazado 183653" d="M253.567,412.787a11.918,11.918,0,0,1-3.336.619,12.74,12.74,0,0,1-10.161-5.927l.562-3.159,5.712,2.237,5.712-2.237Z" transform="translate(-214.409 -368.699)" fill="#f37a67"/>
          <path id="Trazado_183654" data-name="Trazado 183654" d="M253.915,361.585c-1.462-2.739-4.256-4.256-6.83-5.094a18.289,18.289,0,0,0-11.3,0c-2.574.838-5.368,2.354-6.83,5.094-2.641,5.058-2.191,12.926-2.191,12.926l2.754,2.922,11.917-1.513,11.917,1.513,2.754-2.922S256.557,366.643,253.915,361.585Z" transform="translate(-209.501 -350.763)" fill="#051733"/>
          <path id="Trazado_183655" data-name="Trazado 183655" d="M251.183,359.9s4.777-.983,4.215-2.6-1.769-.837-1.769-.837,2.963-1.692,1.137-3.027a2.92,2.92,0,0,0-2.459,0s2.107-2.388.351-3.3a2.653,2.653,0,0,0-3.021.281s.281-2.529-1.545-2.459-2.88,2.74-2.88,2.74-.426-2.107-1.513-2.037-2.211,2.177-2.211,2.177.071-3.024-1.686-2.881-2.459,3.514-2.459,3.514-.888-2.389-2.13-2.037-.329,3.352-.329,3.352-1.9-1.666-2.739-.612.843,2.318.843,2.318-1.827-.562-2.107.773,2.483,3.583,4.332,4.144Z" transform="translate(-211.02 -347.947)" fill="#051733"/>
          <path id="Trazado_183656" data-name="Trazado 183656" d="M256.417,377.095a2.2,2.2,0,0,0-.648-1.351,1.84,1.84,0,0,0-1.284-.406,3.39,3.39,0,0,0-1.318.373s-.041-11.649-4.17-11.785c-2.708-.135-3.913.677-8.015.677s-5.307-.813-8.015-.677c-4.129.136-4.17,11.785-4.17,11.785a3.393,3.393,0,0,0-1.318-.373,1.84,1.84,0,0,0-1.284.406,2.2,2.2,0,0,0-.648,1.351,4.147,4.147,0,0,0,.664,2.925,4.06,4.06,0,0,0,2.424,1.711c1.76,12.321,12.348,12.321,12.348,12.321s10.587,0,12.348-12.321a4.06,4.06,0,0,0,2.424-1.711A4.151,4.151,0,0,0,256.417,377.095Z" transform="translate(-209.046 -353.824)" fill="#f69779"/>
        </g>
        <g id="Grupo_121990" data-name="Grupo 121990" transform="translate(9.914 59.114)">
          <path id="Trazado_183657" data-name="Trazado 183657" d="M218.859,452.659a40.3,40.3,0,0,1-3.709-2.1l1.674-9.055Z" transform="translate(-215.15 -441.5)" fill="#d87808"/>
          <path id="Trazado_183658" data-name="Trazado 183658" d="M282.689,450.555a40.3,40.3,0,0,1-3.709,2.1l2.035-11.159Z" transform="translate(-238.647 -441.5)" fill="#d87808"/>
        </g>
        <g id="Grupo_121994" data-name="Grupo 121994" transform="translate(23.299 18.196)">
          <path id="Trazado_183659" data-name="Trazado 183659" d="M249.061,382.333v7.229h1.225C252.386,389.562,249.451,383.163,249.061,382.333Z" transform="translate(-241.018 -378.801)" fill="#f37a67"/>
          <g id="Grupo_121993" data-name="Grupo 121993">
            <g id="Grupo_121991" data-name="Grupo 121991" transform="translate(11.187)">
              <path id="Trazado_183660" data-name="Trazado 183660" d="M259.8,377.459a6.478,6.478,0,0,0-5.341-.258c-.748.3-.422,1.52.336,1.218a5.248,5.248,0,0,1,4.367.131C259.891,378.909,260.531,377.82,259.8,377.459Z" transform="translate(-254.036 -376.744)" fill="#051733"/>
              <circle id="Elipse_5158" data-name="Elipse 5158" cx="1.192" cy="1.192" r="1.192" transform="translate(1.856 2.34)" fill="#051733"/>
            </g>
            <g id="Grupo_121992" data-name="Grupo 121992">
              <path id="Trazado_183661" data-name="Trazado 183661" d="M236.654,377.459a6.478,6.478,0,0,1,5.341-.258c.748.3.422,1.52-.336,1.218a5.247,5.247,0,0,0-4.367.131C236.564,378.909,235.924,377.82,236.654,377.459Z" transform="translate(-236.332 -376.744)" fill="#051733"/>
              <circle id="Elipse_5159" data-name="Elipse 5159" cx="1.192" cy="1.192" r="1.192" transform="translate(1.847 2.34)" fill="#051733"/>
            </g>
          </g>
          <path id="Trazado_183662" data-name="Trazado 183662" d="M243.854,398.447a4.123,4.123,0,0,0,7.766,0Z" transform="translate(-239.101 -384.733)" fill="#fff"/>
        </g>
      </g>
    </g>
  </g>
</svg>
