<svg xmlns="http://www.w3.org/2000/svg" width="295" height="231.947" viewBox="0 0 295 231.947">
  <g id="Grupo_128812" data-name="Grupo 128812" transform="translate(-915 -1335.911)">
    <path id="Rectángulo_37514" data-name="Rectángulo 37514" d="M80,0H295a0,0,0,0,1,0,0V120a80,80,0,0,1-80,80H0a0,0,0,0,1,0,0V80A80,80,0,0,1,80,0Z" transform="translate(915 1345.945)" fill="#2df0da"/>
    <g id="Grupo_128383" data-name="Grupo 128383" transform="translate(1631.183 1331.442)">
      <path id="Trazado_187420" data-name="Trazado 187420" d="M7.807,0H238.751a7.807,7.807,0,0,1,7.807,7.807V143.838a7.807,7.807,0,0,1-7.807,7.807H7.807A7.807,7.807,0,0,1,0,143.838V7.807A7.807,7.807,0,0,1,7.807,0Z" transform="translate(-685.46 4.468)" fill="#1d7e96"/>
      <path id="Trazado_187421" data-name="Trazado 187421" d="M0,0H85.373V71.545H0Z" transform="translate(-681.063 8.865)" fill="#edffd5"/>
      <rect id="Rectángulo_37527" data-name="Rectángulo 37527" width="85.373" height="71.545" transform="translate(-681.04 80.41)" fill="#fff"/>
      <path id="Trazado_187267" data-name="Trazado 187267" d="M-608.472,32.4s7.561,4.775,7.084,12.1,9.84,11.3,3.646,21.369-17.732,4.644-19.8-.994S-608.472,32.4-608.472,32.4Z" transform="translate(-18.903 -7.803)" fill="#12263f"/>
      <path id="Trazado_187268" data-name="Trazado 187268" d="M-668.592,99.108s4.453-26.8,34.785-26.8,36.745,26.936,36.745,26.936Z" transform="translate(-4.713 -18.954)" fill="#35a3be"/>
      <path id="Trazado_187422" data-name="Trazado 187422" d="M6.37,0A6.37,6.37,0,1,1,0,6.37,6.37,6.37,0,0,1,6.37,0Z" transform="translate(-678.826 136.223)" fill="#ff8900"/>
      <rect id="Rectángulo_37528" data-name="Rectángulo 37528" width="5.795" height="4.704" transform="translate(-675.97 140.547)" fill="#b26001"/>
      <path id="Trazado_187269" data-name="Trazado 187269" d="M-620.521,87.035a8.661,8.661,0,0,0,1.276-.1A7.13,7.13,0,0,0-614,83.8c2.227-3.479,1.13-8.551.815-9.784-.138-.035-.272-.071-.41-.1.175.649,1.557,6.141-.717,9.691a6.774,6.774,0,0,1-4.987,2.969c-8.961,1.327-13.425-12.34-13.469-12.479a.185.185,0,0,0-.232-.12.185.185,0,0,0-.12.232C-633.077,74.342-628.933,87.035-620.521,87.035Z" transform="translate(-14.621 -19.403)" fill="#12263f"/>
      <path id="Trazado_187270" data-name="Trazado 187270" d="M-643.669,101.837A26.935,26.935,0,0,0-651.846,82.1c-.1.076-.2.151-.294.228a26.561,26.561,0,0,1,8.1,19.5Z" transform="translate(-9.309 -21.691)" fill="#12263f"/>
      <path id="Trazado_187271" data-name="Trazado 187271" d="M-583.182,100.749c.581-10.857-5.81-18.234-9.441-21.512q-.829-.5-1.713-.966c2.846,2.227,11.458,10.045,10.784,22.478Z" transform="translate(-25.459 -20.62)" fill="#12263f"/>
      <path id="Trazado_187272" data-name="Trazado 187272" d="M-667.488,195.665l4.046,2.336V193.33Z" transform="translate(-5.021 -52.767)" fill="#b26001"/>
      <path id="Trazado_187273" data-name="Trazado 187273" d="M-675.552,199.6a.185.185,0,0,1-.131-.054.184.184,0,0,1,0-.261l10.9-10.9a.184.184,0,0,1,.261,0,.185.185,0,0,1,0,.262l-10.9,10.9A.184.184,0,0,1-675.552,199.6Z" transform="translate(-2.716 -51.369)" fill="#fff"/>
      <path id="Trazado_187274" data-name="Trazado 187274" d="M-627.94,69.817l.428-12.661h12.528s3.2,15.292-1.038,18.873S-625.36,74.382-627.94,69.817Z" transform="translate(-16.071 -14.721)" fill="#faa88d"/>
      <path id="Trazado_187275" data-name="Trazado 187275" d="M-627.434,64.745l.355,1.568c1.255,5.846,7.3,8.446,10.667,8.216s2.8-4.174,2.68-6.708l-9.11-3.3S-626.36,62.7-627.434,64.745Z" transform="translate(-16.212 -16.57)" fill="#ec8777"/>
      <path id="Trazado_187276" data-name="Trazado 187276" d="M-610.7,44.3c0,9.464.328,17.989-6.7,17.989S-634.6,54.621-634.6,45.157s5.7-17.135,12.733-17.135S-610.7,34.84-610.7,44.3Z" transform="translate(-14.21 -6.581)" fill="#faa88d"/>
      <path id="Trazado_187277" data-name="Trazado 187277" d="M-634.568,32.811s3.867,2.664,11.905,2.027,10.187-8.2,8.993-9.709-5.546,1.83-10.015,0S-635,21.786-640.093,27.516s-3.184,10.108-2.547,14.724-13.292,8.118-13.132,17.35,12.119,10.611,15.917,7.561,6.318-5.6,4.757-16.382S-634.568,32.811-634.568,32.811Z" transform="translate(-8.294 -5.311)" fill="#12263f"/>
      <path id="Trazado_187278" data-name="Trazado 187278" d="M-609.484,45.284l-.077,2.63,5.144-.215.3-2.7Z" transform="translate(-21.206 -11.324)" fill="#ec8777"/>
      <path id="Trazado_187279" data-name="Trazado 187279" d="M-623.584,46.193l.557,2.86,5.21-.468.392-2.623Z" transform="translate(-17.288 -11.593)" fill="#ec8777"/>
      <rect id="Rectángulo_37529" data-name="Rectángulo 37529" width="67.017" height="128.27" transform="translate(-510.316 23.446)" fill="#fff"/>
      <rect id="Rectángulo_37530" data-name="Rectángulo 37530" width="67.017" height="14.581" transform="translate(-510.316 8.865)" fill="#fff"/>
      <rect id="Rectángulo_37531" data-name="Rectángulo 37531" width="47.755" height="12.529" transform="translate(-507.324 136.622)" fill="#edffd5"/>
      <rect id="Rectángulo_37532" data-name="Rectángulo 37532" width="13.597" height="12.529" transform="translate(-459.696 136.622)" fill="#ff8900"/>
      <rect id="Rectángulo_37533" data-name="Rectángulo 37533" width="85.373" height="71.545" transform="translate(-595.689 8.865)" fill="#a3edff"/>
      <path id="Trazado_187423" data-name="Trazado 187423" d="M0,0H41.912V72.531H0Z" transform="translate(-595.504 8.865)" fill="#74ddf7"/>
      <path id="Trazado_187280" data-name="Trazado 187280" d="M-452.431,96.077h-25.185V85.115A25.186,25.186,0,0,1-452.431,59.93h0Z" transform="translate(-58.07 -15.496)" fill="#ccfff9"/>
      <path id="Trazado_187281" data-name="Trazado 187281" d="M-478.923,99.852s-5.756-29.66-36.088-29.66S-551.6,98.944-551.6,98.944Z" transform="translate(-37.4 -18.363)" fill="#ffdcd1"/>
      <path id="Trazado_187282" data-name="Trazado 187282" d="M-478.923,99.852s-5.756-29.66-36.088-29.66S-551.6,98.944-551.6,98.944Z" transform="translate(-37.4 -18.363)" fill="#75b51d"/>
      <path id="Trazado_187283" data-name="Trazado 187283" d="M-497.073,66.078l-.427-12.662h-12.528s-3.2,15.293,1.038,18.873S-499.653,70.642-497.073,66.078Z" transform="translate(-48.69 -13.676)" fill="#faa88d"/>
      <path id="Trazado_187284" data-name="Trazado 187284" d="M-497.194,60.868l-.114,1.871c-1.255,5.846-6.692,7.794-10.725,7.931s-3.264-4.085-3.142-6.619l9.11-3.3S-498.268,58.824-497.194,60.868Z" transform="translate(-48.656 -15.496)" fill="#ec8777"/>
      <path id="Trazado_187285" data-name="Trazado 187285" d="M-518.088,41.972c.651,9.441.912,17.969,7.927,17.485s15.05-6.725,12.348-18.405c-.651-9.441-3.242-16.576-10.258-16.092S-518.74,32.531-518.088,41.972Z" transform="translate(-46.742 -5.719)" fill="#faa88d"/>
      <path id="Trazado_187286" data-name="Trazado 187286" d="M-512.5,42.815l.258,2.619-5.186.17-.444-2.7Z" transform="translate(-46.822 -10.714)" fill="#ec8777"/>
      <path id="Trazado_187287" data-name="Trazado 187287" d="M-498.651,42.728l-.359,2.892-5.23-.109-.571-2.59Z" transform="translate(-50.472 -10.69)" fill="#ec8777"/>
      <path id="Trazado_187288" data-name="Trazado 187288" d="M-505.154,41.992c.035,1.264,2.784.847,4.762.543,1.148-.177,1.562-.16,1.645-.326s-.3-.718-1.425-1.018C-502.18,40.654-505.191,40.711-505.154,41.992Z" transform="translate(-50.376 -10.171)" fill="#6f3d47"/>
      <path id="Trazado_187289" data-name="Trazado 187289" d="M-512.011,42.146c.078,1.262-2.655.625-4.652.5-1.159-.073-1.376.133-1.473-.024s.035-.818,1.126-1.218C-515.058,40.687-512.09,40.866-512.011,42.146Z" transform="translate(-46.742 -10.203)" fill="#6f3d47"/>
      <path id="Trazado_187290" data-name="Trazado 187290" d="M-508.395,56.457c-.1.393-1.125.473-2.292.178s-1.99-.76-1.891-1.152.9.026,2.07.321S-508.3,56.065-508.395,56.457Z" transform="translate(-48.3 -14.209)" fill="#ec8777"/>
      <path id="Trazado_187291" data-name="Trazado 187291" d="M-505.156,60.009l-6.937.021a4.1,4.1,0,0,0,3.654,1.645C-505.848,61.585-505.156,60.009-505.156,60.009Z" transform="translate(-48.437 -15.518)" fill="#fff"/>
      <path id="Trazado_187292" data-name="Trazado 187292" d="M-504.094,46.462c.02.755,1.222,1.336,2.685,1.3s2.632-.684,2.612-1.439-1.082-.517-2.544-.478S-504.115,45.706-504.094,46.462Z" transform="translate(-50.672 -11.541)" fill="#fff"/>
      <path id="Trazado_187293" data-name="Trazado 187293" d="M-504.165,46.575l-.03,0a.193.193,0,0,1-.154-.218c.02-.135.248-.811,2.817-.864,2.5-.048,2.81.533,2.845.714a.185.185,0,0,1-.148.215.185.185,0,0,1-.211-.129c-.02-.035-.319-.472-2.478-.431-2.246.046-2.461.56-2.463.566A.174.174,0,0,1-504.165,46.575Z" transform="translate(-50.601 -11.461)" fill="#522d34"/>
      <path id="Trazado_187294" data-name="Trazado 187294" d="M-517.259,46.213c-.039.754,1.115,1.427,2.576,1.5s2.677-.476,2.716-1.231-1.038-.6-2.5-.675S-517.221,45.459-517.259,46.213Z" transform="translate(-46.994 -11.519)" fill="#fff"/>
      <path id="Trazado_187295" data-name="Trazado 187295" d="M-512.039,46.586a.184.184,0,0,1-.174-.123c-.013-.027-.323-.607-2.479-.685-2.175-.081-2.469.422-2.472.427a.18.18,0,0,1-.233.106.192.192,0,0,1-.11-.243c.045-.125.39-.742,2.827-.659,2.484.089,2.789.851,2.816.938a.184.184,0,0,1-.122.231A.181.181,0,0,1-512.039,46.586Z" transform="translate(-46.922 -11.437)" fill="#522d34"/>
      <path id="Trazado_187296" data-name="Trazado 187296" d="M-512.43,52.424a.182.182,0,0,1-.1-.027.185.185,0,0,1-.061-.254c1.41-2.289,3.235-5.66,2.8-8.509a.184.184,0,0,1,.155-.21.188.188,0,0,1,.21.155c.45,2.968-1.413,6.42-2.853,8.758A.185.185,0,0,1-512.43,52.424Z" transform="translate(-48.292 -10.883)" fill="#ec8777"/>
      <path id="Trazado_187297" data-name="Trazado 187297" d="M-502.315,46.867a1.285,1.285,0,0,1,.384-1.005c.338,0,.706,0,1.086-.007.244-.007.475-.019.694-.031a1.286,1.286,0,0,1,.42.865,1.288,1.288,0,0,1-.374,1,5.024,5.024,0,0,1-.808.087,4.91,4.91,0,0,1-1.018-.077A1.286,1.286,0,0,1-502.315,46.867Z" transform="translate(-51.168 -11.555)" fill="#522d34"/>
      <path id="Trazado_187298" data-name="Trazado 187298" d="M-515.031,46.753a1.287,1.287,0,0,1,.359-.981c.264.021.543.043.827.057.411.022.79.025,1.123.035a1.289,1.289,0,0,1,.275.711,1.291,1.291,0,0,1-.468,1.085,4.779,4.779,0,0,1-1.146.076c-.158-.009-.311-.025-.46-.046A1.285,1.285,0,0,1-515.031,46.753Z" transform="translate(-47.616 -11.54)" fill="#522d34"/>
      <path id="Trazado_187299" data-name="Trazado 187299" d="M-509.777,64.434c.024.345.8.573,1.729.509s1.667-.4,1.643-.742-.8-.573-1.729-.509S-509.8,64.089-509.777,64.434Z" transform="translate(-49.084 -16.544)" fill="#ec8777"/>
      <path id="Trazado_187300" data-name="Trazado 187300" d="M-509.307,84.625a8.53,8.53,0,0,0,1.257.047c7.374-.276,11.709-10.237,12.752-12.943-.12-.03-.239-.061-.361-.089-1.1,2.862-5.757,13.485-13.608,12.619a6.247,6.247,0,0,1-4.835-2.7c-2.165-3.327-.86-8.681-.528-9.882-.138.032-.275.064-.411.1-.417,1.549-1.544,6.644.628,9.985A6.6,6.6,0,0,0-509.307,84.625Z" transform="translate(-47.428 -18.767)" fill="#c1ff6e"/>
      <path id="Trazado_187301" data-name="Trazado 187301" d="M-472.367,80.787c-.1-.078-.189-.157-.285-.235-2.421,3.129-8.166,11.653-8.084,21.925l.37,0C-480.45,92.323-474.763,83.884-472.367,80.787Z" transform="translate(-57.198 -21.257)" fill="#c1ff6e"/>
      <path id="Trazado_187302" data-name="Trazado 187302" d="M-531.6,76.879c-.418.244-.829.491-1.229.747-3.589,3.864-10.158,12.454-9.834,23.268l.37,0C-542.648,89.145-534.746,80.031-531.6,76.879Z" transform="translate(-39.894 -20.231)" fill="#c1ff6e"/>
      <path id="Trazado_187303" data-name="Trazado 187303" d="M-500.067,38.445l-.535,3.081s-.558-6.909-.972-7.87c-1.02-2.364-2.637-4.773-5.066-5.18-4.987-.835-9.362,6.349-14.056,2.4s-4.423-9.28-1.283-10.086,4.853.943,10.5,1.34,9.723-2.49,13.779-.705,2.1,7.622,2.1,7.622,3.228-1.648,5.351,3.465S-496.565,44.3-496.565,44.3Z" transform="translate(-45.03 -4.5)" fill="#b26001"/>
      <rect id="Rectángulo_37535" data-name="Rectángulo 37535" width="85.373" height="71.545" transform="translate(-595.689 80.41)" fill="#effadc"/>
      <path id="Trazado_187304" data-name="Trazado 187304" d="M-486.446,49.489c-.473,2.5-2.5,4.217-4.524,3.833s-3.284-2.721-2.81-5.222,2.5-4.216,4.525-3.833S-485.973,46.989-486.446,49.489Z" transform="translate(-53.526 -11.105)" fill="#faa88d"/>
      <path id="Trazado_187305" data-name="Trazado 187305" d="M-487.6,49.026c1.614,1.864-.721,2.978-2.492,2.774l-.37-3.432s-.154-1.956,1.447-2.124S-489.213,47.161-487.6,49.026Z" transform="translate(-54.48 -11.667)" fill="#ec8777"/>
      <g id="Grupo_128380" data-name="Grupo 128380" transform="translate(-681.247 8.681)">
        <path id="Trazado_187306" data-name="Trazado 187306" d="M-442.481,153.535a.185.185,0,0,1-.185-.185V10.5a.185.185,0,0,1,.185-.184.184.184,0,0,1,.184.184V153.349A.185.185,0,0,1-442.481,153.535Z" transform="translate(613.412 -10.314)" fill="#8bc7ff"/>
        <path id="Trazado_187307" data-name="Trazado 187307" d="M-560.955,143.072a.184.184,0,0,1-.185-.184V10.5a.184.184,0,0,1,.185-.184.184.184,0,0,1,.184.184V142.888A.184.184,0,0,1-560.955,143.072Z" transform="translate(646.513 -10.314)" fill="#8bc7ff"/>
        <path id="Trazado_187308" data-name="Trazado 187308" d="M-508.682,109.967H-679.43a.185.185,0,0,1-.185-.185.184.184,0,0,1,.185-.184h170.747a.185.185,0,0,1,.184.184A.185.185,0,0,1-508.682,109.967Z" transform="translate(679.614 -38.053)" fill="#8bc7ff"/>
        <path id="Trazado_187309" data-name="Trazado 187309" d="M-375.464,30.917h-67.017a.185.185,0,0,1-.185-.184.185.185,0,0,1,.185-.184h67.017a.185.185,0,0,1,.185.184A.185.185,0,0,1-375.464,30.917Z" transform="translate(613.412 -15.967)" fill="#8bc7ff"/>
      </g>
      <path id="Trazado_187310" data-name="Trazado 187310" d="M-472.231,265.738c0,10.068-33.392,16.082-81.83,16.082s-80.557-4.277-80.557-16.082,38.134-30.561,80.994-30.561S-472.231,255.67-472.231,265.738Z" transform="translate(-14.205 -64.458)" fill="#05d6bf"/>
      <path id="Trazado_187311" data-name="Trazado 187311" d="M-490.786,279.618c-.837,5.136-2.277,9.088-3.591,8.874s-2-4.514-1.167-9.65,2.831-8.988,4.145-8.774S-489.95,274.483-490.786,279.618Z" transform="translate(-52.959 -74.205)" fill="#112633"/>
      <path id="Trazado_187312" data-name="Trazado 187312" d="M-463.277,288.251c3.184,10.45-1.283,18.487-5.854,22.33l-8.471-.045,6.215-21.122Z" transform="translate(-58.074 -79.287)" fill="#05d6bf"/>
      <g id="Grupo_128381" data-name="Grupo 128381" transform="translate(-552.507 199.229)">
        <path id="Trazado_187313" data-name="Trazado 187313" d="M-500.959,287.212l6.926,1.869,4.833,1.2c1.978.291,3.948-12.409,3.256-12.552-5-1.038-11.2-2.989-11.2-2.989Z" transform="translate(500.959 -274.741)" fill="#faa88d"/>
        <path id="Trazado_187314" data-name="Trazado 187314" d="M-493.625,275.626l-2.3,12.813,3.253.878.4.1c-1.141-1.4.929-11.229,4.656-12.137C-489.76,276.739-492.161,276.058-493.625,275.626Z" transform="translate(499.551 -274.988)" fill="#ec8777"/>
        <path id="Trazado_187315" data-name="Trazado 187315" d="M-466.566,285.475c-1.387-6.007-7.837-5.384-13-6.216-.626-.1-1.295-.227-1.986-.37-2.294,1.427-4.667,9.168-3.256,12.554a4.08,4.08,0,0,1,3.253,4.229c-.006,4.926-6.805,15-.119,15.608S-465.178,291.482-466.566,285.475Z" transform="translate(496.564 -275.9)" fill="#edffd5"/>
        <path id="Trazado_187316" data-name="Trazado 187316" d="M-467.83,280.767a7.59,7.59,0,0,0-.869,1.982,7.6,7.6,0,0,0,5.294,9.356c.221.061.441.11.662.151a13.993,13.993,0,0,0,.718-6.256C-462.786,282.705-465.071,281.407-467.83,280.767Z" transform="translate(492.024 -276.425)" fill="#c1ff6e"/>
        <path id="Trazado_187317" data-name="Trazado 187317" d="M-483.935,315.242c-.811,3.119-.77,5.684,2.5,5.983,2.074.19,4.448-1.644,6.7-4.443C-478.683,313.8-481.84,314.228-483.935,315.242Z" transform="translate(496.325 -285.845)" fill="#c1ff6e"/>
        <path id="Trazado_187318" data-name="Trazado 187318" d="M-480.982,293.767a26.252,26.252,0,0,1,5.056-13.939l-.526-.056A26.773,26.773,0,0,0-481.4,293.1,4.272,4.272,0,0,1-480.982,293.767Z" transform="translate(495.494 -276.147)" fill="#ffdcd1"/>
      </g>
      <path id="Trazado_187319" data-name="Trazado 187319" d="M-549.607,297.926c-7.87.811-1.817,9.961.25,14.063h-9.771l-1.306-18.524Z" transform="translate(-34.932 -80.744)" fill="#05d6bf"/>
      <path id="Trazado_187320" data-name="Trazado 187320" d="M-531.339,112.013s-3.732-3.523-5.124-.616,3.094,8.36,5.518,7.292S-531.339,112.013-531.339,112.013Z" transform="translate(-41.555 -29.554)" fill="#faa88d"/>
      <path id="Trazado_187321" data-name="Trazado 187321" d="M-531.208,113.645s-2.721-2.569-3.736-.449,2.255,6.095,4.024,5.317S-531.208,113.645-531.208,113.645Z" transform="translate(-42 -30.144)" fill="#ec8777"/>
      <path id="Trazado_187322" data-name="Trazado 187322" d="M-531.7,103.8a14.044,14.044,0,0,1-3.53-11.852c1.044-7.6,7.4-5.14,7.4-5.14s2.264-5.761,7.839-5.413,9.951,6.031,14.287,6.842a10.381,10.381,0,0,0,7.177-1.043s0,12.492-9.974,17.148S-531.7,103.8-531.7,103.8Z" transform="translate(-41.93 -21.489)" fill="#12263f"/>
      <path id="Trazado_187323" data-name="Trazado 187323" d="M-497.506,112.013s3.732-3.523,5.124-.616-3.094,8.36-5.518,7.292S-497.506,112.013-497.506,112.013Z" transform="translate(-52.128 -29.554)" fill="#faa88d"/>
      <path id="Trazado_187324" data-name="Trazado 187324" d="M-497.461,113.376s2.838-2.679,3.9-.468-2.353,6.358-4.2,5.546S-497.461,113.376-497.461,113.376Z" transform="translate(-52.233 -30.053)" fill="#ec8777"/>
      <path id="Trazado_187325" data-name="Trazado 187325" d="M-472.472,245.8c-.149-23.877-37.215-25.337-37.215-25.337s-61.775-1.289-86.059,1.72c0,0-44.281,4.51-42.192,26.9,1.317,14.112,42.165,20.525,72.176,23.338a6.074,6.074,0,0,1-.749,2.789s7-.411,17.18-1.492c9.066.587,15.029.764,15.029.764a3.962,3.962,0,0,1-.3-2.571C-507.293,268.076-472.381,260.341-472.472,245.8Zm-44.582,1.018-32.84,4.735-45.853-4.915Z" transform="translate(-13.257 -60.27)" fill="#1d7e96"/>
      <path id="Trazado_187326" data-name="Trazado 187326" d="M-552.262,268a.185.185,0,0,1-.184-.177.185.185,0,0,1,.177-.192c.607-.026,60.845-2.759,71.588-16.115a6.462,6.462,0,0,0,1.533-5.312c-1.773-10.137-47.652-14.3-89.391-11.841-32.54,1.923-52.98,7.216-53.344,13.815a8.344,8.344,0,0,0,2.569,6.435c4.35,4.484,14.422,7.638,29.128,9.12a192.083,192.083,0,0,0,21.191.89.191.191,0,0,1,.19.18.186.186,0,0,1-.18.19,192.553,192.553,0,0,1-21.233-.892c-15.007-1.512-24.885-4.617-29.36-9.23a8.7,8.7,0,0,1-2.673-6.712c.2-3.643,5.693-6.787,16.326-9.346,9.4-2.263,22.319-3.928,37.364-4.817,20.351-1.2,42.433-.789,59.071,1.106,24.266,2.764,30.092,7.529,30.706,11.04a6.82,6.82,0,0,1-1.608,5.607c-4.559,5.668-18.043,10.125-40.075,13.249-16.385,2.323-31.633,3-31.785,3Z" transform="translate(-17.656 -63.94)" fill="#719fd1"/>
      <path id="Trazado_187327" data-name="Trazado 187327" d="M-621.187,174.762c-4.106.668-7.638.716-7.784-.181s3.149-2.4,7.256-3.068,7.811-1.376,7.958-.479C-613.783,172.72-617.08,174.094-621.187,174.762Z" transform="translate(-15.781 -46.419)" fill="#e08035"/>
      <path id="Trazado_187328" data-name="Trazado 187328" d="M-618.29,166.053s-1.337-10.563,4.688-17.422c2.067-2.942,4.53-1.065,4.114-3.306s-5.151-1.239-6.212-.863a19.238,19.238,0,0,0-3.316,2.142l-4.445-7.4s-3.308-6.294-5.071-7.261.4,6.05.4,6.05l1.894,3.656s-7.841-7.344-11.338-6.94c-1.023.192-.659.976-.659.976s-1.551-.927-1.972.363,6.808,9.243,6.808,9.243-7.919-4.639-8.884-3.216,13.738,13.357,13.738,13.357l.344,14.508Z" transform="translate(-12.052 -35.589)" fill="#faa88d"/>
      <path id="Trazado_187329" data-name="Trazado 187329" d="M-622.906,176.134c1.619.041,8.073.1,9.892-1.409a29.889,29.889,0,0,1,.267-4.582c-3.567,2.035-8.765,2.577-10.262,1.633Z" transform="translate(-17.448 -46.288)" fill="#ec8777"/>
      <path id="Trazado_187330" data-name="Trazado 187330" d="M-595.049,202.106l2.826-11.881s-15.074,22.027-33.436,15.309-5.08-37.41-5.08-37.41c.829,1.914,15.541-1.007,15.185-3.429l2.155,16.61s17.893-22.729,38.493-29,40.306-4.777,51.055,1.344c28.833,15.768,45.016,40.92,43.252,52.547s-32.254,16.753-32.254,16.753l-8.737-9.181,11.61-14.5Z" transform="translate(-13.991 -40.178)" fill="#ff8900"/>
      <path id="Trazado_187331" data-name="Trazado 187331" d="M-493.835,172.406l-4.908,4.908-6.857-6.857-6.857,6.857-6.857-6.857-6.857,6.857-6.857-6.857-6.954,6.939-6.939-6.939-6.857,6.857-6.857-6.857-6.857,6.857-6.857-6.857-6.857,6.857-5.266-5.267c-2.714,2.276-5.158,4.554-7.256,6.638l5.666,5.666,6.857-6.857,6.857,6.857,6.857-6.857,6.857,6.857,6.857-6.857,6.857,6.857,6.939-6.939,6.954,6.939,6.857-6.857,6.857,6.857,6.857-6.857,6.857,6.857,6.857-6.857,6.857,6.857,5.273-5.273C-488.83,176.825-491.239,174.59-493.835,172.406Z" transform="translate(-25.629 -46.376)" fill="#fddab1"/>
      <path id="Trazado_187332" data-name="Trazado 187332" d="M-526.65,138.456v-6.662l17.63.745-.207,7.32-8.467,7.762Z" transform="translate(-44.37 -35.574)" fill="#ec8777"/>
      <path id="Trazado_187333" data-name="Trazado 187333" d="M-525.5,97.8c-.436,5.285-2.1,8.085-4.768,10.586l1.55,15.062s6.279,5.957,7.638,6.028,2.529-.233,3.7-.233a28.254,28.254,0,0,0,3.827.236c1.644-.143,6.394-5.957,6.394-5.957l.886-14.988-1.55-6.055S-521.146,105.038-525.5,97.8Z" transform="translate(-43.359 -26.077)" fill="#faa88d"/>
      <path id="Trazado_187334" data-name="Trazado 187334" d="M-513.005,117.56h-3.836a.184.184,0,0,1-.185-.178l-.36-10.191a.184.184,0,0,1,.178-.191.189.189,0,0,1,.191.178l.353,10.012h3.659a.185.185,0,0,1,.185.185A.185.185,0,0,1-513.005,117.56Z" transform="translate(-46.959 -28.646)" fill="#ec8777"/>
      <path id="Trazado_187335" data-name="Trazado 187335" d="M-526.165,159.7l8.466-4.432,7.854,4.409-6.441-6.333-1.124-1.073Z" transform="translate(-44.506 -41.294)" fill="#ff9b39"/>
      <path id="Trazado_187336" data-name="Trazado 187336" d="M-470.2,214.44l11.589-8.04c-5.713-3.453-14.885-12.085-19.591-17.858,0,0,4.474,8.009,6.981,12.32S-470.2,214.44-470.2,214.44Z" transform="translate(-57.907 -51.429)" fill="#ff9b39"/>
      <path id="Trazado_187337" data-name="Trazado 187337" d="M-526.849,109.884s-.963,4,3.332,3.452,2.266-4.744,2.266-4.744Z" transform="translate(-44.289 -29.091)" fill="#ec8777"/>
      <path id="Trazado_187338" data-name="Trazado 187338" d="M-591.672,200.587l4.4-16.9s-7.69,27.221-30.73,27.115c-6.557-.03-11.522-1.261-15.208-3.068a13.522,13.522,0,0,0,8.152,7.69h0c.336.123.67.233,1,.337.1.031.2.059.3.089q.36.107.718.2l.318.08q.393.094.785.172c.068.014.136.03.2.043q.5.094.987.161c.064.009.129.016.193.024.264.034.528.063.791.086l.279.022q.375.028.747.042c.076,0,.153.007.229.009q.979.026,1.938-.041l.18-.014q.4-.03.8-.076l.185-.022c.309-.039.617-.082.922-.133h0c.651-.11,1.292-.249,1.924-.412l.1-.026q.45-.119.893-.254l.022-.006a26.237,26.237,0,0,0,2.787-1.031C-598.7,209.924-591.672,200.587-591.672,200.587Z" transform="translate(-14.599 -50.074)" fill="#ff9b39"/>
      <path id="Trazado_187339" data-name="Trazado 187339" d="M-463.911,209.217a.185.185,0,0,1-.113-.038c-6.84-5.306-15.237-22.242-15.322-22.412a.185.185,0,0,1,.084-.247.186.186,0,0,1,.247.084c.084.169,8.444,17.029,15.216,22.283a.185.185,0,0,1,.032.259A.183.183,0,0,1-463.911,209.217Z" transform="translate(-57.582 -50.859)" fill="#e08035"/>
      <path id="Trazado_187340" data-name="Trazado 187340" d="M-462.275,218.806a.185.185,0,0,1-.152-.079.185.185,0,0,1,.047-.257l8.775-6.05a.186.186,0,0,1,.257.048.186.186,0,0,1-.047.257l-8.776,6.049A.181.181,0,0,1-462.275,218.806Z" transform="translate(-62.305 -58.091)" fill="#e08035"/>
      <path id="Trazado_187341" data-name="Trazado 187341" d="M-521.028,107.707c.314,1.26-2.519,1.608-4.56,1.853-1.185.142-1.59.274-1.717.133s.1-.793,1.128-1.4C-524.339,107.205-521.346,106.429-521.028,107.707Z" transform="translate(-44.178 -28.659)" fill="#6f3d47"/>
      <path id="Trazado_187342" data-name="Trazado 187342" d="M-511.326,107.256s-1.756,5.369,2.807,5.185,3.152-4.768,3.152-4.768Z" transform="translate(-48.559 -28.718)" fill="#ec8777"/>
      <path id="Trazado_187343" data-name="Trazado 187343" d="M-515.442,198.4h0a.185.185,0,0,1-.181-.189l.952-45.54a.2.2,0,0,1,.189-.18.185.185,0,0,1,.181.188l-.952,45.54A.185.185,0,0,1-515.442,198.4Z" transform="translate(-47.45 -41.357)" fill="#e08035"/>
      <path id="Trazado_187344" data-name="Trazado 187344" d="M-536.726,147.675l7.509,8.8,8.857-7.349,7.723,7.312,8.643-7.981-8.047-6.02-8.318,6.688-9.1-8.092Z" transform="translate(-41.555 -38.157)" fill="#8dd52c"/>
      <path id="Trazado_187345" data-name="Trazado 187345" d="M-511.692,107.234c.009,1.3,2.764.453,4.8.182,1.183-.157,1.42.039,1.508-.129s-.094-.836-1.241-1.169C-508.673,105.524-511.7,105.917-511.692,107.234Z" transform="translate(-48.549 -28.325)" fill="#6f3d47"/>
      <path id="Trazado_187346" data-name="Trazado 187346" d="M-617.212,45c.051,1.263-2.72,1.036-4.714.869-1.158-.1-1.57-.052-1.665-.212s.253-.736,1.352-1.113C-620.271,43.865-617.263,43.714-617.212,45Z" transform="translate(-17.282 -11.053)" fill="#6f3d47"/>
      <path id="Trazado_187347" data-name="Trazado 187347" d="M-609.691,44.668c.009,1.265,2.692.44,4.676.177,1.151-.153,1.382.038,1.468-.126s-.092-.814-1.208-1.138C-606.752,43-609.7,43.386-609.691,44.668Z" transform="translate(-21.169 -10.854)" fill="#6f3d47"/>
      <path id="Trazado_187348" data-name="Trazado 187348" d="M-511.06,135.7c0,.424-1.136.241-2.538.241s-2.539.182-2.539-.241,1.137-1.169,2.539-1.169S-511.06,135.279-511.06,135.7Z" transform="translate(-47.308 -36.34)" fill="#ec8777"/>
      <path id="Trazado_187349" data-name="Trazado 187349" d="M-546.111,188.36a10.925,10.925,0,0,1-6.663-2.325.186.186,0,0,1-.073-.157l.45-8.98a.187.187,0,0,1,.064-.13.191.191,0,0,1,.139-.043,65.2,65.2,0,0,0,13.373.2.194.194,0,0,1,.146.052.188.188,0,0,1,.055.144l-.6,9.158a.185.185,0,0,1-.1.151A14.256,14.256,0,0,1-546.111,188.36Z" transform="translate(-37.051 -48.127)" fill="#ffc857"/>
      <path id="Trazado_187350" data-name="Trazado 187350" d="M-546.111,188.36a10.925,10.925,0,0,1-6.663-2.325.186.186,0,0,1-.073-.157l.45-8.98a.187.187,0,0,1,.064-.13.191.191,0,0,1,.139-.043,65.2,65.2,0,0,0,13.373.2.194.194,0,0,1,.146.052.188.188,0,0,1,.055.144l-.6,9.158a.185.185,0,0,1-.1.151A14.256,14.256,0,0,1-546.111,188.36Zm-6.362-2.562c3.844,2.835,8.064,2.95,12.892.352l.579-8.841a65.452,65.452,0,0,1-13.036-.2Z" transform="translate(-37.051 -48.127)" fill="#e08035"/>
      <path id="Trazado_187351" data-name="Trazado 187351" d="M-576.129,202.005a.15.15,0,0,1-.047-.005.184.184,0,0,1-.138-.222l5.1-21.538a.185.185,0,0,1,.223-.137.185.185,0,0,1,.137.223l-5.1,21.538A.184.184,0,0,1-576.129,202.005Z" transform="translate(-30.493 -49.07)" fill="#e08035"/>
      <path id="Trazado_187352" data-name="Trazado 187352" d="M-536.933,150.319l7.509,8.805a.184.184,0,0,0,.14.065.187.187,0,0,0,.117-.043l8.73-7.244,7.573,7.229a.184.184,0,0,0,.253,0l8.673-8.012a.29.29,0,0,0,.048-.078l-.351-.191-8.493,7.891-7.566-7.223a.184.184,0,0,0-.246-.009l-8.716,7.232-7.395-8.671-.307.19A.268.268,0,0,0-536.933,150.319Z" transform="translate(-41.489 -40.682)" fill="#e08035"/>
      <path id="Trazado_187353" data-name="Trazado 187353" d="M-524.817,87.3c-.733-3.329,3.233-5.673,6.046-5.882a7.523,7.523,0,0,1,7.1,3.955c.141.262.54.029.4-.233a8.02,8.02,0,0,0-5.78-4.116,7.987,7.987,0,0,0-6.91,2.352,4.523,4.523,0,0,0-1.3,4.045c.064.29.509.168.445-.123Z" transform="translate(-44.733 -21.366)" fill="#522d34"/>
      <path id="Trazado_187354" data-name="Trazado 187354" d="M-531.025,88.381c-2.6.46-4.306,3.034-4.966,5.419a9.658,9.658,0,0,0,1.435,8.109c.17.241.571.011.4-.233a9.208,9.208,0,0,1-1.43-7.6c.594-2.294,2.181-4.807,4.685-5.25.292-.051.168-.5-.123-.445Z" transform="translate(-41.665 -23.444)" fill="#522d34"/>
      <path id="Trazado_187355" data-name="Trazado 187355" d="M-636.092,137.828q4.418,3.206,8.572,6.754c.226.193.478-.195.255-.386q-4.152-3.544-8.573-6.753c-.241-.175-.494.211-.254.385Z" transform="translate(-13.766 -37.14)" fill="#ec8777"/>
      <path id="Trazado_187356" data-name="Trazado 187356" d="M-512.433,121.325c0,.354-.995.64-2.22.64s-2.156-.218-2.156-.571.9-.171,2.125-.171S-512.433,120.971-512.433,121.325Z" transform="translate(-47.12 -32.596)" fill="#ec8777"/>
      <path id="Trazado_187357" data-name="Trazado 187357" d="M-612.129,59.15c.126.385,1.155.394,2.3.02s1.933-.895,1.807-1.28-.9.088-2.044.462S-612.255,58.765-612.129,59.15Z" transform="translate(-20.485 -14.886)" fill="#ec8777"/>
      <path id="Trazado_187358" data-name="Trazado 187358" d="M-541.107,277.027c1.928,5.607,2.379,10.431.552,11.06s-5.244-3.177-7.172-8.784-1.6-10.687.224-11.316S-543.035,271.42-541.107,277.027Z" transform="translate(-38.117 -73.607)" fill="#112633"/>
      <path id="Trazado_187359" data-name="Trazado 187359" d="M-537.8,286.712A61.7,61.7,0,0,1-543.319,290s-8.865,1.432-11.28,3.341-2.524-13.881,1.087-14.367c4.326-.582,9.092-3.7,11.847-5.174C-536.61,271.1-537.8,286.712-537.8,286.712Z" transform="translate(-36.078 -75.162)" fill="#faa88d"/>
      <g id="Grupo_128382" data-name="Grupo 128382" transform="translate(-634.988 110.558)">
        <path id="Trazado_187360" data-name="Trazado 187360" d="M-613.691,159.485c.236.182.529-.175.293-.357a4.034,4.034,0,0,1-1.353-4.443,4.035,4.035,0,0,1,3.233-2.57l-.254-.424a4.482,4.482,0,0,0-3.434,2.906A4.506,4.506,0,0,0-613.691,159.485Z" transform="translate(615.419 -151.691)" fill="#ec8777"/>
      </g>
      <path id="Trazado_187361" data-name="Trazado 187361" d="M-625.142,158.231a13.707,13.707,0,0,1,7.14-1.1c.295.033.316-.428.021-.462a14.169,14.169,0,0,0-7.37,1.153c-.272.122-.061.533.209.412Z" transform="translate(-16.758 -42.498)" fill="#ec8777"/>
      <path id="Trazado_187362" data-name="Trazado 187362" d="M-545.933,277.919c3.38-.64,6.209,10.257,5.519,12.43h0s.621-.339,1.446-.8a6.521,6.521,0,0,0,3.105-5.417c-.022-3.035-2.449-7.125-3.968-9.389C-541.7,275.8-545.933,277.919-545.933,277.919Z" transform="translate(-38.983 -75.512)" fill="#ec8777"/>
      <path id="Trazado_187363" data-name="Trazado 187363" d="M-629.986,152.1a20.962,20.962,0,0,1,9.223-7.062c.277-.108.066-.519-.209-.411a21.391,21.391,0,0,0-9.4,7.219c-.177.24.21.493.385.254Z" transform="translate(-15.379 -39.154)" fill="#ec8777"/>
      <path id="Trazado_187364" data-name="Trazado 187364" d="M-623.2,164.573c.642.654,2.279,1.025,2.127,1.493s-2.093-.086-2.093-.086Z" transform="translate(-17.396 -44.732)" fill="#ec8777"/>
      <path id="Trazado_187365" data-name="Trazado 187365" d="M-612.934,179.2a1.313,1.313,0,0,1-.683-1.466,1.409,1.409,0,0,1,.517-.853,1.133,1.133,0,0,1,.917-.227,1.132,1.132,0,0,1,.762.557,1.412,1.412,0,0,1,.156.984h0a1.274,1.274,0,0,1-1.434,1.08A1.07,1.07,0,0,1-612.934,179.2Zm.837-2.134a.7.7,0,0,0-.158-.05.765.765,0,0,0-.62.158,1.041,1.041,0,0,0-.38.631.9.9,0,0,0,.628,1.108.907.907,0,0,0,1-.788,1.044,1.044,0,0,0-.112-.728A.8.8,0,0,0-612.1,177.063Z" transform="translate(-20.064 -48.101)" fill="#e08035"/>
      <path id="Trazado_187366" data-name="Trazado 187366" d="M-544.644,267.311l-2.021.133c5.487.684,8.885,18.53,5.582,20.6l9.979-.807-1.813-21.094Z" transform="translate(-38.778 -73.11)" fill="#2e6589"/>
      <path id="Trazado_187367" data-name="Trazado 187367" d="M-544.873,182.585a39.075,39.075,0,0,1-7.411-.828.185.185,0,0,1-.147-.216.184.184,0,0,1,.216-.146c4.67.891,8.519,1.225,13.273.133a.184.184,0,0,1,.221.139.185.185,0,0,1-.139.221A26.429,26.429,0,0,1-544.873,182.585Z" transform="translate(-37.166 -49.431)" fill="#e08035"/>
      <path id="Trazado_187368" data-name="Trazado 187368" d="M-551.958,176.75a45.9,45.9,0,0,0,13.4.2A110.3,110.3,0,0,0-551.958,176.75Z" transform="translate(-37.299 -48.101)" fill="#e08035"/>
      <path id="Trazado_187369" data-name="Trazado 187369" d="M-539.266,261.359h-.019l-59.413-6.383a.185.185,0,0,1-.164-.2.184.184,0,0,1,.2-.164l59.413,6.383a.185.185,0,0,1,.164.2A.185.185,0,0,1-539.266,261.359Z" transform="translate(-24.194 -69.887)" fill="#719fd1"/>
      <path id="Trazado_187370" data-name="Trazado 187370" d="M-527.284,287.26c1.138-2.867.723-6.534.273-8.8-1.016-5.118-3.435-10.052-5.865-12.322l-.409.132c2.4,2.136,4.9,7.177,5.911,12.263.45,2.264.865,5.964-.33,8.763Z" transform="translate(-42.517 -73.11)" fill="#719fd1"/>
      <path id="Trazado_187371" data-name="Trazado 187371" d="M-546.741,264.168a.225.225,0,0,1,.073-.037l67.531-9.753a.185.185,0,0,1,.21.156.185.185,0,0,1-.156.209l-66.784,9.645A2.942,2.942,0,0,0-546.741,264.168Z" transform="translate(-38.757 -69.823)" fill="#719fd1"/>
      <path id="Trazado_187372" data-name="Trazado 187372" d="M-559.125,281.055c-5.067.775-9.646-1.118-13.557.7-8.593,3.988-.927,31.639,8.411,31.9s1.643-16.324,4.058-18.234A10.752,10.752,0,0,1-557.164,294C-554.529,290.471-557.893,281.564-559.125,281.055Z" transform="translate(-30.465 -77.243)" fill="#edffd5"/>
      <path id="Trazado_187373" data-name="Trazado 187373" d="M-572.666,281.753c-2.348,1.09-3.48,3.947-3.7,7.529a7.709,7.709,0,0,0,1.038.072,7.6,7.6,0,0,0,7.6-7.6,7.7,7.7,0,0,0-.043-.809A10.713,10.713,0,0,0-572.666,281.753Z" transform="translate(-30.481 -77.243)" fill="#c1ff6e"/>
      <path id="Trazado_187374" data-name="Trazado 187374" d="M-569.707,317.543c2.065,3.408,4.618,5.766,7.312,5.842,3.783.107,4.77-2.552,4.767-5.881C-559.88,316.049-564.15,314.426-569.707,317.543Z" transform="translate(-32.34 -86.973)" fill="#c1ff6e"/>
      <path id="Trazado_187375" data-name="Trazado 187375" d="M-557.443,281.353c-.189-.005-.377-.011-.564-.019,2.758,4.181,2.963,9.362,2.866,14.268a.961.961,0,0,1,.073-.07,4.3,4.3,0,0,1,.393-.27C-554.6,290.48-554.854,285.456-557.443,281.353Z" transform="translate(-35.609 -77.354)" fill="#ffdcd1"/>
      <path id="Trazado_187376" data-name="Trazado 187376" d="M-363.7,197.143l1.986.841-.027-4.638-5.169,2.29,1.8.921.4,1.838Z" transform="translate(-89.001 -52.771)" fill="#fff"/>
      <path id="Trazado_187377" data-name="Trazado 187377" d="M-364.4,196.821l2.784-2.531-2,2.872-.379,1.5Z" transform="translate(-89.701 -53.035)" fill="#fff6eb"/>
      <path id="Trazado_187378" data-name="Trazado 187378" d="M-520.59,112.687c.1.827-1.117,1.652-2.718,1.845s-2.979-.32-3.078-1.146,1.1-.739,2.7-.932S-520.69,111.86-520.59,112.687Z" transform="translate(-44.442 -30.095)" fill="#fff"/>
      <path id="Trazado_187379" data-name="Trazado 187379" d="M-505.309,111.79c.1.826-1.113,1.655-2.713,1.852s-2.98-.314-3.081-1.14,1.094-.742,2.694-.938S-505.41,110.964-505.309,111.79Z" transform="translate(-48.712 -29.846)" fill="#fff"/>
      <path id="Trazado_187380" data-name="Trazado 187380" d="M-519.132,124.893s2.459-.8,3.091-.88.67.271,1.03.22.1-.313,1.015-.448a31.514,31.514,0,0,1,3.321-.081s1.061,2.694-.178,3.947-5.467,1.78-6.834.875S-519.132,124.893-519.132,124.893Z" transform="translate(-46.471 -33.311)" fill="#ec8777"/>
      <path id="Trazado_187381" data-name="Trazado 187381" d="M-518.727,125.2l8.021-1.109s.189,2.078-.847,3.1-4.422,1.345-5.565.608A4.977,4.977,0,0,1-518.727,125.2Z" transform="translate(-46.584 -33.422)" fill="#fff"/>
      <path id="Trazado_187382" data-name="Trazado 187382" d="M-616.205,62.918l6.923-.457a4.094,4.094,0,0,1-3.532,1.893C-615.405,64.442-616.205,62.918-616.205,62.918Z" transform="translate(-19.349 -16.203)" fill="#fff"/>
      <path id="Trazado_187383" data-name="Trazado 187383" d="M-526.456,113.5a.182.182,0,0,1-.185-.17c0-.034-.032-.838,1.495-.989.305-.031.672-.093,1.061-.158,1.426-.24,3.041-.51,3.581.338a.185.185,0,0,1-.057.255.185.185,0,0,1-.254-.057c-.409-.641-1.961-.38-3.209-.172-.395.066-.767.129-1.085.161-.918.092-1.162.437-1.162.606a.187.187,0,0,1-.179.187Z" transform="translate(-44.373 -30.027)" fill="#522d34"/>
      <path id="Trazado_187384" data-name="Trazado 187384" d="M-498.19,250.845h-73.346a2.343,2.343,0,0,1-2.33-2.106l-4.724-46.494a2.343,2.343,0,0,1,2.331-2.58h81.542a2.343,2.343,0,0,1,2.336,2.518l-3.472,46.494A2.344,2.344,0,0,1-498.19,250.845Z" transform="translate(-29.855 -54.537)" fill="#a3edff"/>
      <path id="Trazado_187385" data-name="Trazado 187385" d="M-578.512,203.023a2.342,2.342,0,0,1,2.252-1.7h81.542a2.344,2.344,0,0,1,2.27,1.761l.066-.9a2.343,2.343,0,0,0-2.336-2.518H-576.26a2.343,2.343,0,0,0-2.331,2.58Z" transform="translate(-29.855 -54.537)" fill="#45c6e5"/>
      <path id="Trazado_187386" data-name="Trazado 187386" d="M-518.105,235.061a4.312,4.312,0,0,1-4.313,4.312,4.312,4.312,0,0,1-4.312-4.312,4.312,4.312,0,0,1,4.312-4.313A4.312,4.312,0,0,1-518.105,235.061Z" transform="translate(-44.348 -63.221)" fill="#fff"/>
      <path id="Trazado_187387" data-name="Trazado 187387" d="M-511.17,112.64a.182.182,0,0,1-.184-.169c0-.035-.037-.837,1.489-1,.306-.033.672-.1,1.06-.164,1.423-.247,3.038-.528,3.583.316a.185.185,0,0,1-.055.256.184.184,0,0,1-.255-.055c-.413-.639-1.964-.37-3.21-.153-.395.068-.767.134-1.085.167-.917.1-1.159.444-1.158.613a.187.187,0,0,1-.179.188Z" transform="translate(-48.644 -29.78)" fill="#522d34"/>
      <path id="Trazado_187388" data-name="Trazado 187388" d="M-522.462,113.025a1.662,1.662,0,0,0-1.662,1.662c0,.019.005.038.006.058a5.131,5.131,0,0,0,1.444.022,4.826,4.826,0,0,0,1.8-.56A1.658,1.658,0,0,0-522.462,113.025Z" transform="translate(-45.076 -30.33)" fill="#522d34"/>
      <path id="Trazado_187389" data-name="Trazado 187389" d="M-617.547,49.531c.032.754-1.128,1.417-2.59,1.478s-2.673-.5-2.705-1.255,1.044-.592,2.506-.653S-617.579,48.775-617.547,49.531Z" transform="translate(-17.495 -12.444)" fill="#fff"/>
      <path id="Trazado_187390" data-name="Trazado 187390" d="M-622.913,49.815a.177.177,0,0,1-.116-.042.183.183,0,0,1-.027-.257c.027-.033.68-.816,2.878-.816,2.16,0,2.655.532,2.7.593a.184.184,0,0,1-.027.259.185.185,0,0,1-.26-.027h0s-.448-.456-2.416-.456c-1.994,0-2.586.673-2.592.68A.185.185,0,0,1-622.913,49.815Z" transform="translate(-17.424 -12.358)" fill="#522d34"/>
      <path id="Trazado_187391" data-name="Trazado 187391" d="M-604.424,48.337c.09.75-1.014,1.5-2.467,1.675s-2.7-.291-2.795-1.041.994-.67,2.447-.845S-604.515,47.586-604.424,48.337Z" transform="translate(-21.169 -12.129)" fill="#fff"/>
      <path id="Trazado_187392" data-name="Trazado 187392" d="M-609.754,49.116a.2.2,0,0,1-.041,0,.189.189,0,0,1-.141-.225c.031-.142.307-.865,2.7-1.1s2.831.3,2.9.414a.185.185,0,0,1-.063.254.185.185,0,0,1-.254-.063h0s-.4-.45-2.545-.237-2.378.819-2.38.825A.177.177,0,0,1-609.754,49.116Z" transform="translate(-21.1 -12.085)" fill="#522d34"/>
      <path id="Trazado_187393" data-name="Trazado 187393" d="M-508.88,113.81a5.153,5.153,0,0,0,1.479.024,4.828,4.828,0,0,0,1.786-.561,1.657,1.657,0,0,0-1.791-1.285A1.662,1.662,0,0,0-508.88,113.81Z" transform="translate(-49.333 -30.038)" fill="#522d34"/>
      <rect id="Rectángulo_37536" data-name="Rectángulo 37536" width="26.572" height="3.755" transform="translate(-507.63 26.775)" fill="#74ddf7"/>
      <rect id="Rectángulo_37537" data-name="Rectángulo 37537" width="31.415" height="3.755" transform="translate(-477.193 26.775)" fill="#a3edff"/>
      <rect id="Rectángulo_37538" data-name="Rectángulo 37538" width="18.502" height="3.755" transform="translate(-507.63 35.341)" fill="#a3edff"/>
      <rect id="Rectángulo_37539" data-name="Rectángulo 37539" width="18.502" height="3.755" transform="translate(-507.63 50.879)" fill="#74ddf7"/>
      <rect id="Rectángulo_37540" data-name="Rectángulo 37540" width="21.874" height="3.755" transform="translate(-484.721 35.341)" fill="#a3edff"/>
      <rect id="Rectángulo_37541" data-name="Rectángulo 37541" width="14.558" height="3.755" transform="translate(-460.335 35.341)" fill="#a3edff"/>
      <rect id="Rectángulo_37542" data-name="Rectángulo 37542" width="27.306" height="3.755" transform="translate(-507.63 41.795)" fill="#a3edff"/>
      <circle id="Elipse_5314" data-name="Elipse 5314" cx="2.556" cy="2.556" r="2.556" transform="translate(-476.716 40.774)" fill="#35a3be"/>
      <path id="Trazado_187394" data-name="Trazado 187394" d="M-394.083,57.756s-1.374-.885-1.06-1.176.716.34.716.34-.17-.857.32-.825S-394.083,57.756-394.083,57.756Z" transform="translate(-81.099 -14.424)" fill="#fff"/>
      <path id="Trazado_187395" data-name="Trazado 187395" d="M-391.018,57.7s-.585-1.526-.16-1.575.423.756.423.756.323-.85.7-.535S-391.018,57.7-391.018,57.7Z" transform="translate(-82.177 -14.431)" fill="#fff"/>
      <path id="Trazado_187396" data-name="Trazado 187396" d="M-391.95,58.75a.511.511,0,0,1-.512.511.511.511,0,0,1-.512-.511c0-.282.229-.235.512-.235S-391.95,58.467-391.95,58.75Z" transform="translate(-81.719 -15.099)" fill="#fff"/>
      <path id="Trazado_187397" data-name="Trazado 187397" d="M-402.386,69.989a2.557,2.557,0,0,1-2.557,2.557,2.557,2.557,0,0,1-2.556-2.557,2.557,2.557,0,0,1,2.556-2.557A2.557,2.557,0,0,1-402.386,69.989Z" transform="translate(-77.66 -17.592)" fill="#35a3be"/>
      <path id="Trazado_187398" data-name="Trazado 187398" d="M-405.8,70.338s-1.374-.885-1.06-1.176.716.339.716.339-.17-.856.32-.824S-405.8,70.338-405.8,70.338Z" transform="translate(-77.826 -17.939)" fill="#fff"/>
      <path id="Trazado_187399" data-name="Trazado 187399" d="M-402.734,70.278s-.586-1.526-.161-1.575.424.756.424.756.322-.85.7-.535S-402.734,70.278-402.734,70.278Z" transform="translate(-78.903 -17.946)" fill="#fff"/>
      <path id="Trazado_187400" data-name="Trazado 187400" d="M-403.667,71.332a.511.511,0,0,1-.512.511.511.511,0,0,1-.512-.511c0-.282.229-.235.512-.235S-403.667,71.049-403.667,71.332Z" transform="translate(-78.445 -18.615)" fill="#fff"/>
      <circle id="Elipse_5315" data-name="Elipse 5315" cx="2.556" cy="2.556" r="2.556" transform="translate(-477.913 49.841)" fill="#35a3be"/>
      <path id="Trazado_187401" data-name="Trazado 187401" d="M-395.744,70.338s-1.374-.885-1.06-1.176.717.339.717.339-.171-.856.319-.824S-395.744,70.338-395.744,70.338Z" transform="translate(-80.635 -17.939)" fill="#fff"/>
      <path id="Trazado_187402" data-name="Trazado 187402" d="M-392.678,70.278s-.586-1.526-.161-1.575.424.756.424.756.322-.85.7-.535S-392.678,70.278-392.678,70.278Z" transform="translate(-81.713 -17.946)" fill="#fff"/>
      <path id="Trazado_187403" data-name="Trazado 187403" d="M-393.61,71.332a.511.511,0,0,1-.512.511.511.511,0,0,1-.511-.511c0-.282.228-.235.511-.235S-393.61,71.049-393.61,71.332Z" transform="translate(-81.255 -18.615)" fill="#fff"/>
      <circle id="Elipse_5316" data-name="Elipse 5316" cx="2.556" cy="2.556" r="2.556" transform="translate(-470.341 49.841)" fill="#35a3be"/>
      <path id="Trazado_187404" data-name="Trazado 187404" d="M-385.235,70.338s-1.374-.885-1.061-1.176.717.339.717.339-.171-.856.32-.824S-385.235,70.338-385.235,70.338Z" transform="translate(-83.571 -17.939)" fill="#fff"/>
      <path id="Trazado_187405" data-name="Trazado 187405" d="M-382.17,70.278s-.585-1.526-.16-1.575.423.756.423.756.323-.85.7-.535S-382.17,70.278-382.17,70.278Z" transform="translate(-84.649 -17.946)" fill="#fff"/>
      <path id="Trazado_187406" data-name="Trazado 187406" d="M-383.1,71.332a.511.511,0,0,1-.512.511.511.511,0,0,1-.512-.511c0-.282.229-.235.512-.235S-383.1,71.049-383.1,71.332Z" transform="translate(-84.191 -18.615)" fill="#fff"/>
      <path id="Trazado_187407" data-name="Trazado 187407" d="M-608.039,54.923a.184.184,0,0,1-.15-.077c-1.6-2.233-3.695-5.549-3.45-8.541a.187.187,0,0,1,.2-.169.184.184,0,0,1,.169.2c-.235,2.872,1.817,6.11,3.381,8.3a.184.184,0,0,1-.043.257A.18.18,0,0,1-608.039,54.923Z" transform="translate(-20.62 -11.642)" fill="#ec8777"/>
      <path id="Trazado_187408" data-name="Trazado 187408" d="M-618.237,50.02a1.286,1.286,0,0,0-.453-.976c-.337.022-.7.051-1.083.067-.244.01-.476.014-.7.017a1.289,1.289,0,0,0-.36.892,1.287,1.287,0,0,0,.442.967,4.977,4.977,0,0,0,.811.032,4.879,4.879,0,0,0,1.01-.147A1.285,1.285,0,0,0-618.237,50.02Z" transform="translate(-18.058 -12.454)" fill="#522d34"/>
      <path id="Trazado_187409" data-name="Trazado 187409" d="M-605.561,49.015a1.287,1.287,0,0,0-.426-.954c-.262.039-.538.08-.821.114-.409.05-.786.079-1.119.112a1.291,1.291,0,0,0-.224.729,1.291,1.291,0,0,0,.541,1.049,4.754,4.754,0,0,0,1.149,0c.156-.019.308-.046.455-.077A1.287,1.287,0,0,0-605.561,49.015Z" transform="translate(-21.599 -12.18)" fill="#522d34"/>
      <path id="Trazado_187410" data-name="Trazado 187410" d="M-590.885,86.495s5.919-13.151,7.375-13.124-1.384,8.908-1.384,8.908,5.944-10.948,7.527-10.645-3.788,11.109-3.788,11.109,5.614-8.492,6.086-7.536-3.5,10.785-3.5,10.785,4.314-5.261,5.4-4.427-6.459,14.259-10.6,15.083a9.831,9.831,0,0,1-10.7-4.873c-1.151-1.884-.63-3.2-.322-5.63.37-2.926-.9-5.595.071-5.893s2.9,1.723,3.048,3.3A10.353,10.353,0,0,0-590.885,86.495Z" transform="translate(-25.227 -18.764)" fill="#faa88d"/>
      <path id="Trazado_187411" data-name="Trazado 187411" d="M-621.11,57.012a2.049,2.049,0,0,1-2.685.966,2.05,2.05,0,0,1-1.6-2.364,2.051,2.051,0,0,1,2.685-.966A2.05,2.05,0,0,1-621.11,57.012Z" transform="translate(-16.763 -13.98)" fill="#ec8777"/>
      <ellipse id="Elipse_5317" data-name="Elipse 5317" cx="1.69" cy="0.627" rx="1.69" ry="0.627" transform="translate(-633.444 49.117)" fill="#ec8777"/>
      <path id="Trazado_187412" data-name="Trazado 187412" d="M-603.647,53.492a2.05,2.05,0,0,0-1.075,2.643,1.891,1.891,0,0,0,2.294.622c.022-1.175.025-2.392.024-3.635A2.717,2.717,0,0,0-603.647,53.492Z" transform="translate(-22.505 -13.594)" fill="#ec8777"/>
      <path id="Trazado_187413" data-name="Trazado 187413" d="M-430.1,19.05a4.143,4.143,0,0,1-4.142,4.142,4.143,4.143,0,0,1-4.142-4.142,4.143,4.143,0,0,1,4.142-4.142A4.143,4.143,0,0,1-430.1,19.05Z" transform="translate(-69.032 -2.917)" fill="#edffd5"/>
      <rect id="Rectángulo_37543" data-name="Rectángulo 37543" width="3.768" height="3.059" transform="translate(-505.556 14.803)" fill="#1d7e96"/>
      <path id="Trazado_187414" data-name="Trazado 187414" d="M-432.681,20.343l2.63,1.519V18.825Z" transform="translate(-70.624 -4.011)" fill="#1d7e96"/>
      <path id="Trazado_187415" data-name="Trazado 187415" d="M-414.946,19.05a4.142,4.142,0,0,1-4.142,4.142,4.142,4.142,0,0,1-4.141-4.142,4.142,4.142,0,0,1,4.141-4.142A4.142,4.142,0,0,1-414.946,19.05Z" transform="translate(-73.265 -2.917)" fill="#edffd5"/>
      <path id="Trazado_187416" data-name="Trazado 187416" d="M-417.932,21.634h0a1.161,1.161,0,0,1-1.161-1.161V18.467a1.161,1.161,0,0,1,1.161-1.161h0a1.162,1.162,0,0,1,1.162,1.161v2.006A1.161,1.161,0,0,1-417.932,21.634Z" transform="translate(-74.421 -3.587)" fill="#1d7e96"/>
      <path id="Trazado_187417" data-name="Trazado 187417" d="M-418.247,23.276a1.9,1.9,0,0,1-1.474-.593,3.058,3.058,0,0,1-.59-2.117.187.187,0,0,1,.2-.166.185.185,0,0,1,.166.2,2.726,2.726,0,0,0,.5,1.834,1.544,1.544,0,0,0,1.2.471,1.5,1.5,0,0,0,1.184-.468,2.672,2.672,0,0,0,.451-1.831.185.185,0,0,1,.161-.206.184.184,0,0,1,.206.161,3.011,3.011,0,0,1-.541,2.121A1.854,1.854,0,0,1-418.247,23.276Z" transform="translate(-74.078 -4.451)" fill="#1d7e96"/>
      <path id="Trazado_187418" data-name="Trazado 187418" d="M-417.553,25.971a.185.185,0,0,1-.185-.184V24.219a.185.185,0,0,1,.185-.184.184.184,0,0,1,.184.184v1.567A.185.185,0,0,1-417.553,25.971Z" transform="translate(-74.8 -5.467)" fill="#1d7e96"/>
      <rect id="Rectángulo_37544" data-name="Rectángulo 37544" width="37.182" height="6.769" transform="translate(-484.154 12.947)" fill="#edffd5"/>
      <rect id="Rectángulo_37545" data-name="Rectángulo 37545" width="61.1" height="5.304" transform="translate(-507.324 127.713)" fill="#35a3be"/>
      <path id="Trazado_187419" data-name="Trazado 187419" d="M-613.789,181.592c-1.815,1.778-6.059,3.578-11.34,4.112-4.7.476-6.63-.394-7.351-.939-.036.127-.071.256-.107.385.694.477,2.115,1.061,4.922,1.061a25.747,25.747,0,0,0,2.572-.14c4.84-.489,9.271-2.127,11.363-4.015Z" transform="translate(-14.772 -49.487)" fill="#e08035"/>
    </g>
  </g>
</svg>
