<svg xmlns="http://www.w3.org/2000/svg" width="100" height="89.403" viewBox="0 0 100 89.403">
  <g id="Grupo_128059" data-name="Grupo 128059" transform="translate(-1809.63 -2053.914)">
    <path id="Trazado_186630" data-name="Trazado 186630" d="M2171.7,2354.766c-.34.171-.289.542-.417.821a5.641,5.641,0,0,1-5.3,3.644c-8.255.055-16.51.044-24.765.009a5.742,5.742,0,0,1-5.733-5.818q-.1-9.408,0-18.818a5.717,5.717,0,0,1,5.474-5.765c.548-.054.618-.253.61-.708-.021-1.2-.005-2.405-.006-3.607a1.965,1.965,0,0,1,3.46-1.427c1.677,1.678,3.376,3.335,5.018,5.048a2.1,2.1,0,0,0,1.7.677c4.485-.027,8.97-.014,13.455-.014,3.434,0,5.28,1.337,6.353,4.591.014.043.1.063.151.093Zm-26.231-25.743c0,.608,0,.931,0,1.253-.024,1.74-.708,2.428-2.418,2.436-.422,0-.845,0-1.268,0-1.707.009-2.409.708-2.416,2.441-.009,2.438,0,4.876,0,7.314v3.4c1.851-1.853,3.517-3.528,5.192-5.194,1.227-1.22,2.193-1.218,3.422,0,1.659,1.651,3.323,3.3,4.956,4.973.391.4.614.383.994-.006,1.566-1.606,3.163-3.181,4.749-4.767,1.407-1.406,2.3-1.408,3.7-.006,1.758,1.757,3.513,3.516,5.419,5.426v-1.052q0-4.974,0-9.948c0-1.953-.625-2.588-2.547-2.588-4.908,0-9.817-.019-14.725.015a2.987,2.987,0,0,1-2.408-1.013C2147.339,2330.856,2146.495,2330.055,2145.473,2329.023Zm11.537,26.326a2.355,2.355,0,0,0-.208-.327c-3.348-3.354-6.706-6.7-10.04-10.068-.411-.415-.629-.338-.994.034-1.773,1.807-3.539,3.625-5.38,5.362a2.969,2.969,0,0,0-1.041,2.541c.1,1.771.728,2.457,2.517,2.458q6.622,0,13.244,0Zm7.224-.012c.682,0,1.137.016,1.591,0a1.736,1.736,0,0,0,1.784-1.249c.232-.907.548-1.9-.282-2.726-2.091-2.091-4.194-4.17-6.263-6.282-.412-.42-.635-.46-1.057-.008q-1.529,1.638-3.169,3.171c-.507.473-.6.744-.03,1.275,1.561,1.469,3.087,2.981,4.55,4.547C2162.227,2354.992,2163.1,2355.713,2164.235,2355.337Z" transform="translate(-262.075 -215.952)" fill="#020202"/>
    <path id="Trazado_186631" data-name="Trazado 186631" d="M2171.745,2079.875c-.311.1-.272.415-.359.635a5.812,5.812,0,0,1-5.553,3.849q-7.069.026-14.137-.012a2.006,2.006,0,0,0-1.6.679c-1.6,1.658-3.255,3.271-4.88,4.91a2.042,2.042,0,0,1-2.346.706,2.02,2.02,0,0,1-1.264-2.186c.016-1.137-.011-2.275.01-3.412.009-.452-.056-.655-.607-.711a5.784,5.784,0,0,1-5.491-5.958q-.062-9.214,0-18.428a5.833,5.833,0,0,1,6.131-6.026q11.992-.013,23.984,0a5.781,5.781,0,0,1,5.929,4.5c.022.073.121.124.183.185Zm-26.252,3.975.255.073c.794-.806,1.617-1.587,2.374-2.427a3.065,3.065,0,0,1,2.491-1.053c4.908.038,9.817.019,14.726.016,1.85,0,2.5-.664,2.5-2.542q0-8.778,0-17.556c0-1.881-.648-2.539-2.5-2.539q-11.7,0-23.406,0c-1.846,0-2.521.674-2.524,2.533q-.008,5.9,0,11.8c0,1.918,0,3.836,0,5.754.006,1.866.678,2.543,2.512,2.548.52,0,1.041-.015,1.56,0a1.914,1.914,0,0,1,2,1.846A15.058,15.058,0,0,1,2145.493,2083.849Z" transform="translate(-262.115)" fill="#020202"/>
    <path id="Trazado_186632" data-name="Trazado 186632" d="M1965.008,2204.733q0,2.185,0,4.37c-1.5.421-1.922.952-1.926,2.485-.007,3.447-.027,6.9.016,10.342.01.8-.18.891-.911.673q-15.243-4.553-30.5-9.045a.976.976,0,0,1-.846-1.134q.048-9.561,0-19.123a1.182,1.182,0,0,1,1.01-1.392q15.173-4.448,30.319-8.986c.737-.22.941-.156.931.661-.041,3.187-.026,6.374-.013,9.561a2.048,2.048,0,0,0,1.928,2.366q0,2.615-.008,5.229c-1.355.431-1.96,1.1-1.9,2.107C1963.157,2203.827,1963.773,2204.436,1965.008,2204.733Z" transform="translate(-97.5 -103.686)" fill="#ff8900"/>
    <path id="Trazado_186633" data-name="Trazado 186633" d="M1867.514,2176.213a2.048,2.048,0,0,1-1.927-2.366c-.013-3.187-.029-6.375.013-9.561.01-.817-.194-.882-.931-.661q-15.148,4.531-30.319,8.986a1.181,1.181,0,0,0-1.01,1.392q.052,9.561,0,19.123a.976.976,0,0,0,.846,1.134q15.26,4.495,30.5,9.045c.731.219.921.131.911-.673-.044-3.447-.024-6.895-.016-10.342,0-1.533.427-2.064,1.926-2.485,1.557.365,1.974.883,1.976,2.506q.007,6.683,0,13.367c0,2.032-1.067,2.8-3.031,2.22l-31.42-9.324c-.18-.053-.347-.191-.646-.052.643,2.172,1.286,4.36,1.939,6.545q1.671,5.591,3.352,11.18c.58,1.942-.226,3.032-2.245,3.035q-5.9.008-11.806,0c-1.525,0-2.057-.4-2.507-1.9q-2.918-9.736-5.818-19.477a1.8,1.8,0,0,0-1.127-1.275,9.967,9.967,0,0,1-6.435-9.478,54.407,54.407,0,0,1,.156-9.058,10.185,10.185,0,0,1,9.8-8.556c2.828-.051,5.66-.079,8.487,0a18.149,18.149,0,0,0,5.826-.861q16.2-4.873,32.433-9.661c1.978-.588,3.034.181,3.038,2.219q.012,6.342,0,12.685C1869.481,2175.365,1868.963,2175.943,1867.514,2176.213Zm-38.063,7.273c0-3.089-.016-6.178.014-9.267.006-.616-.128-.823-.788-.813-2.828.039-5.657,0-8.486.02a6.39,6.39,0,0,0-6.571,6.6q-.018,3.414,0,6.828a6.438,6.438,0,0,0,6.627,6.663c2.8.023,5.593-.022,8.388.023.72.012.837-.235.83-.881C1829.434,2189.6,1829.452,2186.542,1829.452,2183.486Zm-8.236,13.94c1.766,5.888,3.51,11.687,5.233,17.491.124.418.355.466.708.465,2.5-.007,5-.014,7.5,0,.528,0,.667-.094.5-.656q-2.53-8.377-5.011-16.77c-.1-.328-.22-.551-.653-.547C1826.767,2197.437,1824.042,2197.426,1821.216,2197.426Z" transform="translate(0 -84.387)" fill="#020202"/>
    <path id="Trazado_186634" data-name="Trazado 186634" d="M2097.66,2278.449c-1.235-.3-1.851-.907-1.906-1.886-.056-1.006.549-1.676,1.9-2.107a2.12,2.12,0,0,1,1.917,1.529C2099.88,2277.238,2099.162,2278.149,2097.66,2278.449Z" transform="translate(-230.152 -177.401)" fill="#020202"/>
    <path id="Trazado_186635" data-name="Trazado 186635" d="M2161.631,2356.33c1.022,1.033,1.866,1.834,2.647,2.692a2.985,2.985,0,0,0,2.408,1.013c4.908-.034,9.816-.017,14.725-.015,1.923,0,2.546.635,2.547,2.588q0,4.974,0,9.947v1.052c-1.907-1.909-3.662-3.669-5.419-5.426-1.4-1.4-2.294-1.4-3.7.006-1.586,1.585-3.183,3.161-4.749,4.767-.38.389-.6.408-.994.006-1.632-1.677-3.3-3.323-4.956-4.973-1.229-1.222-2.195-1.224-3.422,0-1.676,1.666-3.342,3.341-5.192,5.194v-3.4c0-2.438-.007-4.876,0-7.315.006-1.733.708-2.433,2.416-2.441.423,0,.845,0,1.268,0,1.71-.008,2.395-.7,2.418-2.436C2161.635,2357.261,2161.631,2356.938,2161.631,2356.33Z" transform="translate(-278.232 -243.259)" fill="#45c6e5"/>
    <path id="Trazado_186636" data-name="Trazado 186636" d="M2173.07,2447.015h-1.9q-6.622,0-13.244,0c-1.789,0-2.418-.687-2.517-2.458a2.968,2.968,0,0,1,1.04-2.541c1.841-1.736,3.607-3.554,5.38-5.362.365-.372.583-.449.994-.034,3.333,3.369,6.691,6.714,10.04,10.068A2.381,2.381,0,0,1,2173.07,2447.015Z" transform="translate(-278.134 -307.618)" fill="#8dd52c"/>
    <path id="Trazado_186637" data-name="Trazado 186637" d="M2250.52,2447.294c-1.139.376-2.008-.345-2.876-1.275-1.463-1.566-2.989-3.078-4.55-4.547-.565-.532-.477-.8.03-1.275q1.639-1.528,3.169-3.171c.422-.452.645-.412,1.057.008,2.069,2.112,4.172,4.191,6.263,6.282.83.83.514,1.819.282,2.726a1.737,1.737,0,0,1-1.784,1.249C2251.657,2447.311,2251.2,2447.294,2250.52,2447.294Z" transform="translate(-348.36 -307.91)" fill="#8dd52c"/>
    <path id="Trazado_186638" data-name="Trazado 186638" d="M2161.606,2099.915a14.989,14.989,0,0,0-.009-1.54,1.914,1.914,0,0,0-2-1.846c-.519-.02-1.04,0-1.56,0-1.834-.005-2.506-.682-2.512-2.548-.006-1.918,0-3.836,0-5.754q0-5.9,0-11.8c0-1.859.678-2.533,2.524-2.533q11.7,0,23.406,0c1.854,0,2.5.658,2.5,2.539q0,8.778,0,17.556c0,1.878-.652,2.541-2.5,2.542-4.909,0-9.818.022-14.726-.016a3.065,3.065,0,0,0-2.491,1.053c-.757.84-1.58,1.621-2.374,2.427Zm2.236-14.725c0,1.3-.013,2.6,0,3.9a3.326,3.326,0,0,0,5.192,2.959q3.16-1.922,6.233-3.986a3.312,3.312,0,0,0,.023-5.694c-2.073-1.394-4.177-2.746-6.314-4.038a3.317,3.317,0,0,0-5.13,2.864C2163.822,2082.525,2163.843,2083.857,2163.842,2085.189Z" transform="translate(-278.228 -16.065)" fill="#a9f73f"/>
    <path id="Trazado_186639" data-name="Trazado 186639" d="M1845.83,2243.452c0,3.056-.018,6.113.015,9.169.007.646-.11.893-.83.881-2.8-.045-5.592,0-8.388-.023a6.438,6.438,0,0,1-6.627-6.663q-.015-3.414,0-6.828a6.39,6.39,0,0,1,6.571-6.6c2.828-.015,5.657.02,8.485-.02.659-.009.794.2.787.813C1845.813,2237.274,1845.83,2240.363,1845.83,2243.452Z" transform="translate(-16.378 -144.353)" fill="#ccfff9"/>
    <path id="Trazado_186640" data-name="Trazado 186640" d="M1868.858,2356.121c2.827,0,5.552.011,8.277-.011.434,0,.556.219.653.548q2.5,8.387,5.011,16.769c.17.562.031.66-.5.656-2.5-.019-5-.011-7.5-.005-.353,0-.584-.047-.708-.465C1872.368,2367.808,1870.624,2362.01,1868.858,2356.121Z" transform="translate(-47.643 -243.082)" fill="#1d7e96"/>
    <path id="Trazado_186641" data-name="Trazado 186641" d="M2198.042,2101.261c0-1.332-.021-2.665.005-4a3.317,3.317,0,0,1,5.13-2.864c2.138,1.292,4.241,2.645,6.314,4.038a3.312,3.312,0,0,1-.023,5.695q-3.072,2.059-6.232,3.986a3.326,3.326,0,0,1-5.192-2.959C2198.029,2103.86,2198.042,2102.561,2198.042,2101.261Zm3.96-3v6.037l4.7-3.02Z" transform="translate(-312.427 -32.137)" fill="#020202"/>
    <path id="Trazado_186642" data-name="Trazado 186642" d="M2218.316,2116.323l4.7,3.017-4.7,3.02Z" transform="translate(-328.742 -50.201)" fill="#fefefe"/>
  </g>
</svg>
