<svg xmlns="http://www.w3.org/2000/svg" xmlns:xlink="http://www.w3.org/1999/xlink" width="1060" height="535" viewBox="0 0 1060 535">
  <defs>
    <linearGradient id="linear-gradient" x1="0.5" x2="0.5" y2="1" gradientUnits="objectBoundingBox">
      <stop offset="0" stop-color="#ccfff9"/>
      <stop offset="1" stop-color="#89fff2"/>
    </linearGradient>
    <filter id="Trazado_187600" x="0" y="0" width="1060" height="535" filterUnits="userSpaceOnUse">
      <feOffset input="SourceAlpha"/>
      <feGaussianBlur stdDeviation="5" result="blur"/>
      <feFlood flood-opacity="0.161"/>
      <feComposite operator="in" in2="blur"/>
      <feComposite in="SourceGraphic"/>
    </filter>
    <clipPath id="clip-path">
      <rect id="Rectángulo_37094" data-name="Rectángulo 37094" width="1030" height="505" rx="20" fill="url(#linear-gradient)"/>
    </clipPath>
    <clipPath id="clip-path-2">
      <ellipse id="Elipse_5045" data-name="Elipse 5045" cx="210.636" cy="210.636" rx="210.636" ry="210.636" transform="translate(0 1.219) rotate(-0.166)" fill="none"/>
    </clipPath>
  </defs>
  <g id="Grupo_128811" data-name="Grupo 128811" transform="translate(-270 -4323)">
    <g transform="matrix(1, 0, 0, 1, 270, 4323)" filter="url(#Trazado_187600)">
      <path id="Trazado_187600-2" data-name="Trazado 187600" d="M20,0h990a20,20,0,0,1,20,20V485a20,20,0,0,1-20,20H20A20,20,0,0,1,0,485V20A20,20,0,0,1,20,0Z" transform="translate(15 15)" fill="#edffd5" opacity="0.5"/>
    </g>
    <g id="Enmascarar_grupo_82" data-name="Enmascarar grupo 82" transform="translate(285 4345)" opacity="0.5" clip-path="url(#clip-path)">
      <path id="Trazado_182729" data-name="Trazado 182729" d="M-227.838-189.913c-124.156,0-224.8,100.648-224.8,224.8S-351.994,259.7-227.838,259.7-3.028,159.052-3.028,34.891-103.677-189.913-227.838-189.913Zm0,338.953A114.148,114.148,0,0,1-341.982,34.891,114.147,114.147,0,0,1-227.838-79.253,114.148,114.148,0,0,1-113.689,34.891,114.149,114.149,0,0,1-227.838,149.04Z" transform="translate(337.545 547.522)" fill="#a9f73f" fill-rule="evenodd" opacity="0.208"/>
      <circle id="Elipse_5044" data-name="Elipse 5044" cx="47.75" cy="47.75" r="47.75" transform="translate(-56.828 254.601) rotate(-18.79)" fill="#a9f73f" opacity="0.398"/>
      <path id="Trazado_182730" data-name="Trazado 182730" d="M-527.294,122.139a78.131,78.131,0,0,1-90.692-63.111,78.132,78.132,0,0,1,63.114-90.692,78.126,78.126,0,0,1,90.689,63.111A78.127,78.127,0,0,1-527.294,122.139ZM-552.623-19.125a65.387,65.387,0,0,0-52.82,75.9,65.387,65.387,0,0,0,75.9,52.82,65.389,65.389,0,0,0,52.82-75.9A65.39,65.39,0,0,0-552.623-19.125Z" transform="translate(1562.811 449.098)" fill="#a9f73f" opacity="0.497"/>
      <path id="Trazado_182731" data-name="Trazado 182731" d="M-581.772-15.531a47.923,47.923,0,0,1,41.608,53.5,47.925,47.925,0,0,1-53.5,41.608,47.927,47.927,0,0,1-41.608-53.5A47.925,47.925,0,0,1-581.772-15.531Zm-8.965,71.7a24.333,24.333,0,0,0,27.165-21.127A24.334,24.334,0,0,0-584.7,7.877,24.334,24.334,0,0,0-611.863,29,24.333,24.333,0,0,0-590.736,56.169Z" transform="translate(874.304 -38.869)" fill="#a9f73f" fill-rule="evenodd" opacity="0.221"/>
      <g id="Enmascarar_grupo_81" data-name="Enmascarar grupo 81" transform="translate(662.072 -170.159)" clip-path="url(#clip-path-2)">
        <g id="Grupo_121018" data-name="Grupo 121018" transform="translate(-169.755 -142.048)" style="isolation: isolate">
          <line id="Línea_562" data-name="Línea 562" x1="400.32" y2="400.323" transform="translate(331.178 331.176)" fill="none" stroke="#45c6e5" stroke-miterlimit="10" stroke-width="1"/>
          <line id="Línea_563" data-name="Línea 563" x1="400.32" y2="400.323" transform="translate(327.089 327.088)" fill="none" stroke="#45c6e5" stroke-miterlimit="10" stroke-width="1"/>
          <line id="Línea_564" data-name="Línea 564" x1="400.32" y2="400.323" transform="translate(323.001 322.999)" fill="none" stroke="#45c6e5" stroke-miterlimit="10" stroke-width="1"/>
          <line id="Línea_565" data-name="Línea 565" x1="400.32" y2="400.323" transform="translate(318.912 318.911)" fill="none" stroke="#45c6e5" stroke-miterlimit="10" stroke-width="1"/>
          <line id="Línea_566" data-name="Línea 566" x1="400.32" y2="400.323" transform="translate(314.824 314.822)" fill="none" stroke="#45c6e5" stroke-miterlimit="10" stroke-width="1"/>
          <line id="Línea_567" data-name="Línea 567" x1="400.32" y2="400.323" transform="translate(310.735 310.734)" fill="none" stroke="#45c6e5" stroke-miterlimit="10" stroke-width="1"/>
          <line id="Línea_568" data-name="Línea 568" x1="400.32" y2="400.323" transform="translate(306.646 306.645)" fill="none" stroke="#45c6e5" stroke-miterlimit="10" stroke-width="1"/>
          <line id="Línea_569" data-name="Línea 569" x1="400.32" y2="400.323" transform="translate(302.558 302.556)" fill="none" stroke="#45c6e5" stroke-miterlimit="10" stroke-width="1"/>
          <line id="Línea_570" data-name="Línea 570" x1="400.32" y2="400.323" transform="translate(298.469 298.468)" fill="none" stroke="#45c6e5" stroke-miterlimit="10" stroke-width="1"/>
          <line id="Línea_571" data-name="Línea 571" x1="400.32" y2="400.323" transform="translate(294.38 294.379)" fill="none" stroke="#45c6e5" stroke-miterlimit="10" stroke-width="1"/>
          <line id="Línea_572" data-name="Línea 572" x1="400.32" y2="400.323" transform="translate(290.292 290.29)" fill="none" stroke="#45c6e5" stroke-miterlimit="10" stroke-width="1"/>
          <line id="Línea_573" data-name="Línea 573" x1="400.32" y2="400.323" transform="translate(286.203 286.202)" fill="none" stroke="#a9f73f" stroke-miterlimit="10" stroke-width="1"/>
          <line id="Línea_574" data-name="Línea 574" x1="400.32" y2="400.323" transform="translate(282.115 282.113)" fill="none" stroke="#45c6e5" stroke-miterlimit="10" stroke-width="1"/>
          <line id="Línea_575" data-name="Línea 575" x1="400.32" y2="400.323" transform="translate(278.026 278.025)" fill="none" stroke="#45c6e5" stroke-miterlimit="10" stroke-width="1"/>
          <line id="Línea_576" data-name="Línea 576" x1="400.32" y2="400.323" transform="translate(273.937 273.936)" fill="none" stroke="#45c6e5" stroke-miterlimit="10" stroke-width="1"/>
          <line id="Línea_577" data-name="Línea 577" x1="400.32" y2="400.323" transform="translate(269.849 269.848)" fill="none" stroke="#45c6e5" stroke-miterlimit="10" stroke-width="1"/>
          <line id="Línea_578" data-name="Línea 578" x1="400.32" y2="400.323" transform="translate(265.76 265.759)" fill="none" stroke="#45c6e5" stroke-miterlimit="10" stroke-width="1"/>
          <line id="Línea_579" data-name="Línea 579" x1="400.32" y2="400.322" transform="translate(261.672 261.67)" fill="none" stroke="#45c6e5" stroke-miterlimit="10" stroke-width="1"/>
          <line id="Línea_580" data-name="Línea 580" x1="400.32" y2="400.322" transform="translate(257.583 257.582)" fill="none" stroke="#45c6e5" stroke-miterlimit="10" stroke-width="1"/>
          <line id="Línea_581" data-name="Línea 581" x1="400.32" y2="400.322" transform="translate(253.494 253.493)" fill="none" stroke="#45c6e5" stroke-miterlimit="10" stroke-width="1"/>
          <line id="Línea_582" data-name="Línea 582" x1="400.32" y2="400.322" transform="translate(249.406 249.405)" fill="none" stroke="#45c6e5" stroke-miterlimit="10" stroke-width="1"/>
          <line id="Línea_583" data-name="Línea 583" x1="400.32" y2="400.322" transform="translate(245.317 245.316)" fill="none" stroke="#45c6e5" stroke-miterlimit="10" stroke-width="1"/>
          <line id="Línea_584" data-name="Línea 584" x1="400.32" y2="400.322" transform="translate(241.229 241.227)" fill="none" stroke="#45c6e5" stroke-miterlimit="10" stroke-width="1"/>
          <line id="Línea_585" data-name="Línea 585" x1="400.32" y2="400.322" transform="translate(237.14 237.139)" fill="none" stroke="#45c6e5" stroke-miterlimit="10" stroke-width="1"/>
          <line id="Línea_586" data-name="Línea 586" x1="400.32" y2="400.322" transform="translate(233.051 233.05)" fill="none" stroke="#45c6e5" stroke-miterlimit="10" stroke-width="1"/>
          <line id="Línea_587" data-name="Línea 587" x1="400.32" y2="400.322" transform="translate(228.963 228.962)" fill="none" stroke="#45c6e5" stroke-miterlimit="10" stroke-width="1"/>
          <line id="Línea_588" data-name="Línea 588" x1="400.32" y2="400.322" transform="translate(224.874 224.873)" fill="none" stroke="#45c6e5" stroke-miterlimit="10" stroke-width="1"/>
          <line id="Línea_589" data-name="Línea 589" x1="400.32" y2="400.322" transform="translate(220.785 220.784)" fill="none" stroke="#45c6e5" stroke-miterlimit="10" stroke-width="1"/>
          <line id="Línea_590" data-name="Línea 590" x1="400.32" y2="400.322" transform="translate(216.697 216.696)" fill="none" stroke="#45c6e5" stroke-miterlimit="10" stroke-width="1"/>
          <line id="Línea_591" data-name="Línea 591" x1="400.32" y2="400.322" transform="translate(212.608 212.607)" fill="none" stroke="#45c6e5" stroke-miterlimit="10" stroke-width="1"/>
          <line id="Línea_592" data-name="Línea 592" x1="400.32" y2="400.322" transform="translate(208.52 208.519)" fill="none" stroke="#45c6e5" stroke-miterlimit="10" stroke-width="1"/>
          <line id="Línea_593" data-name="Línea 593" x1="400.32" y2="400.322" transform="translate(204.431 204.43)" fill="none" stroke="#45c6e5" stroke-miterlimit="10" stroke-width="1"/>
          <line id="Línea_594" data-name="Línea 594" x1="400.32" y2="400.322" transform="translate(200.342 200.341)" fill="none" stroke="#45c6e5" stroke-miterlimit="10" stroke-width="1"/>
          <line id="Línea_595" data-name="Línea 595" x1="400.32" y2="400.322" transform="translate(196.254 196.253)" fill="none" stroke="#45c6e5" stroke-miterlimit="10" stroke-width="1"/>
          <line id="Línea_596" data-name="Línea 596" x1="400.32" y2="400.322" transform="translate(192.165 192.164)" fill="none" stroke="#45c6e5" stroke-miterlimit="10" stroke-width="1"/>
          <line id="Línea_597" data-name="Línea 597" x1="400.32" y2="400.322" transform="translate(188.076 188.076)" fill="none" stroke="#45c6e5" stroke-miterlimit="10" stroke-width="1"/>
          <line id="Línea_598" data-name="Línea 598" x1="400.32" y2="400.322" transform="translate(183.988 183.987)" fill="none" stroke="#45c6e5" stroke-miterlimit="10" stroke-width="1"/>
          <line id="Línea_599" data-name="Línea 599" x1="400.32" y2="400.322" transform="translate(179.899 179.898)" fill="none" stroke="#45c6e5" stroke-miterlimit="10" stroke-width="1"/>
          <line id="Línea_600" data-name="Línea 600" x1="400.32" y2="400.322" transform="translate(175.811 175.81)" fill="none" stroke="#45c6e5" stroke-miterlimit="10" stroke-width="1"/>
          <line id="Línea_601" data-name="Línea 601" x1="400.32" y2="400.322" transform="translate(171.722 171.721)" fill="none" stroke="#45c6e5" stroke-miterlimit="10" stroke-width="1"/>
          <line id="Línea_602" data-name="Línea 602" x1="400.32" y2="400.322" transform="translate(167.633 167.633)" fill="none" stroke="#45c6e5" stroke-miterlimit="10" stroke-width="1"/>
          <line id="Línea_603" data-name="Línea 603" x1="400.32" y2="400.322" transform="translate(163.545 163.544)" fill="none" stroke="#45c6e5" stroke-miterlimit="10" stroke-width="1"/>
          <line id="Línea_604" data-name="Línea 604" x1="400.32" y2="400.322" transform="translate(159.456 159.455)" fill="none" stroke="#45c6e5" stroke-miterlimit="10" stroke-width="1"/>
          <line id="Línea_605" data-name="Línea 605" x1="400.32" y2="400.322" transform="translate(155.368 155.367)" fill="none" stroke="#45c6e5" stroke-miterlimit="10" stroke-width="1"/>
          <line id="Línea_606" data-name="Línea 606" x1="400.32" y2="400.322" transform="translate(151.279 151.278)" fill="none" stroke="#45c6e5" stroke-miterlimit="10" stroke-width="1"/>
          <line id="Línea_607" data-name="Línea 607" x1="400.32" y2="400.322" transform="translate(147.19 147.19)" fill="none" stroke="#45c6e5" stroke-miterlimit="10" stroke-width="1"/>
          <line id="Línea_608" data-name="Línea 608" x1="400.32" y2="400.322" transform="translate(143.102 143.101)" fill="none" stroke="#45c6e5" stroke-miterlimit="10" stroke-width="1"/>
          <line id="Línea_609" data-name="Línea 609" x1="400.32" y2="400.322" transform="translate(139.013 139.012)" fill="none" stroke="#45c6e5" stroke-miterlimit="10" stroke-width="1"/>
          <line id="Línea_610" data-name="Línea 610" x1="400.32" y2="400.322" transform="translate(134.924 134.924)" fill="none" stroke="#45c6e5" stroke-miterlimit="10" stroke-width="1"/>
          <line id="Línea_611" data-name="Línea 611" x1="400.32" y2="400.321" transform="translate(130.836 130.835)" fill="none" stroke="#45c6e5" stroke-miterlimit="10" stroke-width="1"/>
          <line id="Línea_612" data-name="Línea 612" x1="400.32" y2="400.321" transform="translate(126.747 126.747)" fill="none" stroke="#45c6e5" stroke-miterlimit="10" stroke-width="1"/>
          <line id="Línea_613" data-name="Línea 613" x1="400.32" y2="400.321" transform="translate(122.659 122.658)" fill="none" stroke="#45c6e5" stroke-miterlimit="10" stroke-width="1"/>
          <line id="Línea_614" data-name="Línea 614" x1="400.32" y2="400.321" transform="translate(118.57 118.569)" fill="none" stroke="#45c6e5" stroke-miterlimit="10" stroke-width="1"/>
          <line id="Línea_615" data-name="Línea 615" x1="400.32" y2="400.321" transform="translate(114.481 114.481)" fill="none" stroke="#45c6e5" stroke-miterlimit="10" stroke-width="1"/>
          <line id="Línea_616" data-name="Línea 616" x1="400.32" y2="400.321" transform="translate(110.393 110.392)" fill="none" stroke="#45c6e5" stroke-miterlimit="10" stroke-width="1"/>
          <line id="Línea_617" data-name="Línea 617" x1="400.32" y2="400.321" transform="translate(106.304 106.304)" fill="none" stroke="#45c6e5" stroke-miterlimit="10" stroke-width="1"/>
          <line id="Línea_618" data-name="Línea 618" x1="400.32" y2="400.321" transform="translate(102.215 102.215)" fill="none" stroke="#45c6e5" stroke-miterlimit="10" stroke-width="1"/>
          <line id="Línea_619" data-name="Línea 619" x1="400.32" y2="400.321" transform="translate(98.127 98.126)" fill="none" stroke="#45c6e5" stroke-miterlimit="10" stroke-width="1"/>
          <line id="Línea_620" data-name="Línea 620" x1="400.32" y2="400.321" transform="translate(94.038 94.038)" fill="none" stroke="#45c6e5" stroke-miterlimit="10" stroke-width="1"/>
          <line id="Línea_621" data-name="Línea 621" x1="400.32" y2="400.321" transform="translate(89.95 89.949)" fill="none" stroke="#45c6e5" stroke-miterlimit="10" stroke-width="1"/>
          <line id="Línea_622" data-name="Línea 622" x1="400.32" y2="400.321" transform="translate(85.861 85.861)" fill="none" stroke="#45c6e5" stroke-miterlimit="10" stroke-width="1"/>
          <line id="Línea_623" data-name="Línea 623" x1="400.32" y2="400.321" transform="translate(81.772 81.772)" fill="none" stroke="#45c6e5" stroke-miterlimit="10" stroke-width="1"/>
          <line id="Línea_624" data-name="Línea 624" x1="400.32" y2="400.321" transform="translate(77.684 77.683)" fill="none" stroke="#45c6e5" stroke-miterlimit="10" stroke-width="1"/>
          <line id="Línea_625" data-name="Línea 625" x1="400.32" y2="400.321" transform="translate(73.595 73.595)" fill="none" stroke="#45c6e5" stroke-miterlimit="10" stroke-width="1"/>
          <line id="Línea_626" data-name="Línea 626" x1="400.32" y2="400.321" transform="translate(69.506 69.506)" fill="none" stroke="#45c6e5" stroke-miterlimit="10" stroke-width="1"/>
          <line id="Línea_627" data-name="Línea 627" x1="400.32" y2="400.321" transform="translate(65.418 65.418)" fill="none" stroke="#45c6e5" stroke-miterlimit="10" stroke-width="1"/>
          <line id="Línea_628" data-name="Línea 628" x1="400.32" y2="400.321" transform="translate(61.329 61.329)" fill="none" stroke="#45c6e5" stroke-miterlimit="10" stroke-width="1"/>
          <line id="Línea_629" data-name="Línea 629" x1="400.32" y2="400.321" transform="translate(57.241 57.24)" fill="none" stroke="#45c6e5" stroke-miterlimit="10" stroke-width="1"/>
          <line id="Línea_630" data-name="Línea 630" x1="400.32" y2="400.321" transform="translate(53.152 53.152)" fill="none" stroke="#45c6e5" stroke-miterlimit="10" stroke-width="1"/>
          <line id="Línea_631" data-name="Línea 631" x1="400.32" y2="400.321" transform="translate(49.063 49.063)" fill="none" stroke="#45c6e5" stroke-miterlimit="10" stroke-width="1"/>
          <line id="Línea_632" data-name="Línea 632" x1="400.32" y2="400.321" transform="translate(44.975 44.975)" fill="none" stroke="#45c6e5" stroke-miterlimit="10" stroke-width="1"/>
          <line id="Línea_633" data-name="Línea 633" x1="400.32" y2="400.321" transform="translate(40.886 40.886)" fill="none" stroke="#45c6e5" stroke-miterlimit="10" stroke-width="1"/>
          <line id="Línea_634" data-name="Línea 634" x1="400.32" y2="400.321" transform="translate(36.798 36.797)" fill="none" stroke="#45c6e5" stroke-miterlimit="10" stroke-width="1"/>
          <line id="Línea_635" data-name="Línea 635" x1="400.32" y2="400.321" transform="translate(32.709 32.709)" fill="none" stroke="#45c6e5" stroke-miterlimit="10" stroke-width="1"/>
          <line id="Línea_636" data-name="Línea 636" x1="400.32" y2="400.321" transform="translate(28.62 28.62)" fill="none" stroke="#45c6e5" stroke-miterlimit="10" stroke-width="1"/>
          <line id="Línea_637" data-name="Línea 637" x1="400.32" y2="400.321" transform="translate(24.532 24.532)" fill="none" stroke="#45c6e5" stroke-miterlimit="10" stroke-width="1"/>
          <line id="Línea_638" data-name="Línea 638" x1="400.32" y2="400.321" transform="translate(20.443 20.443)" fill="none" stroke="#45c6e5" stroke-miterlimit="10" stroke-width="1"/>
          <line id="Línea_639" data-name="Línea 639" x1="400.32" y2="400.321" transform="translate(16.354 16.354)" fill="none" stroke="#45c6e5" stroke-miterlimit="10" stroke-width="1"/>
          <line id="Línea_640" data-name="Línea 640" x1="400.32" y2="400.321" transform="translate(12.266 12.266)" fill="none" stroke="#45c6e5" stroke-miterlimit="10" stroke-width="1"/>
          <line id="Línea_641" data-name="Línea 641" x1="400.32" y2="400.321" transform="translate(8.177 8.177)" fill="none" stroke="#45c6e5" stroke-miterlimit="10" stroke-width="1"/>
          <line id="Línea_642" data-name="Línea 642" x1="400.32" y2="400.321" transform="translate(4.089 4.089)" fill="none" stroke="#45c6e5" stroke-miterlimit="10" stroke-width="1"/>
          <line id="Línea_643" data-name="Línea 643" x1="400.32" y2="400.32" fill="none" stroke="#45c6e5" stroke-miterlimit="10" stroke-width="1"/>
        </g>
      </g>
    </g>
    <path id="Image_Place_Holder" data-name="Image Place Holder" d="M43.512,0,269.306-.372l.307,63.2a27.144,27.144,0,0,1-27.144,27.144l-225.794.372-.307-63.2A27.144,27.144,0,0,1,43.512,0Z" transform="translate(933.33 4422.512)" fill="#fff" stroke="#35a3be" stroke-width="2"/>
    <path id="Image_Place_Holder-2" data-name="Image Place Holder" d="M43.512,0H249.387l.307,63.2A27.144,27.144,0,0,1,222.55,90.349H16.676l-.307-63.2A27.144,27.144,0,0,1,43.512,0Z" transform="translate(617.094 4487.474)" fill="#fff" stroke="#35a3be" stroke-width="2"/>
    <path id="Image_Place_Holder-3" data-name="Image Place Holder" d="M43.512,0H249.387l.307,63.2A27.144,27.144,0,0,1,222.55,90.349H16.676l-.307-63.2A27.144,27.144,0,0,1,43.512,0Z" transform="translate(373.632 4584.474)" fill="#fff" stroke="#35a3be" stroke-width="2"/>
    <path id="Image_Place_Holder-4" data-name="Image Place Holder" d="M43.512,0H249.387l.307,63.2A27.144,27.144,0,0,1,222.55,90.349H16.676l-.307-63.2A27.144,27.144,0,0,1,43.512,0Z" transform="translate(617.094 4682.512)" fill="#fff" stroke="#35a3be" stroke-width="2"/>
    <path id="Image_Place_Holder-5" data-name="Image Place Holder" d="M43.512,0,269.306-.372l.307,63.2a27.144,27.144,0,0,1-27.144,27.144l-225.794.372-.307-63.2A27.144,27.144,0,0,1,43.512,0Z" transform="translate(933.33 4552.512)" fill="#fff" stroke="#35a3be" stroke-width="2"/>
    <path id="Image_Place_Holder-6" data-name="Image Place Holder" d="M43.512,0,269.306-.372l.307,63.2a27.144,27.144,0,0,1-27.144,27.144l-225.794.372-.307-63.2A27.144,27.144,0,0,1,43.512,0Z" transform="translate(933.33 4682.512)" fill="#fff" stroke="#35a3be" stroke-width="2"/>
    <path id="Trazado_182727" data-name="Trazado 182727" d="M1.816,25.527h0a6.2,6.2,0,0,1,0-8.77L16.757,1.816a6.2,6.2,0,0,1,8.77,0h0a6.2,6.2,0,0,1,0,8.77L10.586,25.527A6.2,6.2,0,0,1,1.816,25.527Z" transform="translate(391.805 4577.448) rotate(8)" fill="#a9f73f"/>
    <path id="Trazado_182733" data-name="Trazado 182733" d="M1.816,25.527h0a6.2,6.2,0,0,1,0-8.77L16.757,1.816a6.2,6.2,0,0,1,8.77,0h0a6.2,6.2,0,0,1,0,8.77L10.586,25.527A6.2,6.2,0,0,1,1.816,25.527Z" transform="translate(636.687 4481.116) rotate(8)" fill="#ff8900"/>
    <path id="Trazado_182735" data-name="Trazado 182735" d="M1.816,25.527h0a6.2,6.2,0,0,1,0-8.77L16.757,1.816a6.2,6.2,0,0,1,8.77,0h0a6.2,6.2,0,0,1,0,8.77L10.586,25.527A6.2,6.2,0,0,1,1.816,25.527Z" transform="translate(636.687 4674.822) rotate(8)" fill="#ff8900"/>
    <path id="Trazado_182737" data-name="Trazado 182737" d="M1.816,25.527h0a6.2,6.2,0,0,1,0-8.77L16.757,1.816a6.2,6.2,0,0,1,8.77,0h0a6.2,6.2,0,0,1,0,8.77L10.586,25.527A6.2,6.2,0,0,1,1.816,25.527Z" transform="translate(953.923 4674.822) rotate(8)" fill="#45c6e5"/>
    <path id="Trazado_182740" data-name="Trazado 182740" d="M1.816,25.527h0a6.2,6.2,0,0,1,0-8.77L16.757,1.816a6.2,6.2,0,0,1,8.77,0h0a6.2,6.2,0,0,1,0,8.77L10.586,25.527A6.2,6.2,0,0,1,1.816,25.527Z" transform="translate(953.923 4541.796) rotate(8)" fill="#45c6e5"/>
    <path id="Trazado_182742" data-name="Trazado 182742" d="M1.816,25.527h0a6.2,6.2,0,0,1,0-8.77L16.757,1.816a6.2,6.2,0,0,1,8.77,0h0a6.2,6.2,0,0,1,0,8.77L10.586,25.527A6.2,6.2,0,0,1,1.816,25.527Z" transform="translate(953.923 4411.796) rotate(8)" fill="#45c6e5"/>
    <path id="Trazado_182732" data-name="Trazado 182732" d="M1.816,25.527h0a6.2,6.2,0,0,1,0-8.77L16.757,1.816a6.2,6.2,0,0,1,8.77,0h0a6.2,6.2,0,0,1,0,8.77L10.586,25.527A6.2,6.2,0,0,1,1.816,25.527Z" transform="translate(600.805 4647.629) rotate(8)" fill="#a9f73f"/>
    <path id="Trazado_182734" data-name="Trazado 182734" d="M1.816,25.527h0a6.2,6.2,0,0,1,0-8.77L16.757,1.816a6.2,6.2,0,0,1,8.77,0h0a6.2,6.2,0,0,1,0,8.77L10.586,25.527A6.2,6.2,0,0,1,1.816,25.527Z" transform="translate(845.687 4551.298) rotate(8)" fill="#ff8900"/>
    <path id="Trazado_182736" data-name="Trazado 182736" d="M1.816,25.527h0a6.2,6.2,0,0,1,0-8.77L16.757,1.816a6.2,6.2,0,0,1,8.77,0h0a6.2,6.2,0,0,1,0,8.77L10.586,25.527A6.2,6.2,0,0,1,1.816,25.527Z" transform="translate(845.687 4745.004) rotate(8)" fill="#ff8900"/>
    <path id="Trazado_182738" data-name="Trazado 182738" d="M1.816,25.527h0a6.2,6.2,0,0,1,0-8.77L16.757,1.816a6.2,6.2,0,0,1,8.77,0h0a6.2,6.2,0,0,1,0,8.77L10.586,25.527A6.2,6.2,0,0,1,1.816,25.527Z" transform="translate(1182.923 4745.004) rotate(8)" fill="#45c6e5"/>
    <path id="Trazado_182739" data-name="Trazado 182739" d="M1.816,25.527h0a6.2,6.2,0,0,1,0-8.77L16.757,1.816a6.2,6.2,0,0,1,8.77,0h0a6.2,6.2,0,0,1,0,8.77L10.586,25.527A6.2,6.2,0,0,1,1.816,25.527Z" transform="translate(1182.923 4611.978) rotate(8)" fill="#45c6e5"/>
    <path id="Trazado_182741" data-name="Trazado 182741" d="M1.816,25.527h0a6.2,6.2,0,0,1,0-8.77L16.757,1.816a6.2,6.2,0,0,1,8.77,0h0a6.2,6.2,0,0,1,0,8.77L10.586,25.527A6.2,6.2,0,0,1,1.816,25.527Z" transform="translate(1182.923 4481.978) rotate(8)" fill="#45c6e5"/>
    <path id="Trazado_188141" data-name="Trazado 188141" d="M0,0H127" transform="translate(623.125 4629.648)" fill="none" stroke="#ff8900" stroke-linecap="round" stroke-width="2" stroke-dasharray="4 6"/>
    <path id="Trazado_188134" data-name="Trazado 188134" d="M0,0H82.712" transform="translate(866.788 4727.686)" fill="none" stroke="#ff8900" stroke-linecap="round" stroke-width="2" stroke-dasharray="4 6"/>
    <path id="Trazado_187708" data-name="Trazado 187708" d="M0,0,208.871.307" transform="translate(866.788 4532.296)" fill="none" stroke="#ff8900" stroke-linecap="round" stroke-width="2" stroke-dasharray="4 6"/>
    <path id="Trazado_188135" data-name="Trazado 188135" d="M0,0V105" transform="translate(750.125 4577.5)" fill="none" stroke="#ff8900" stroke-linecap="round" stroke-width="2" stroke-dasharray="4 6"/>
    <path id="Trazado_188142" data-name="Trazado 188142" d="M0,0V40" transform="translate(1076.321 4512.5)" fill="none" stroke="#ff8900" stroke-linecap="round" stroke-width="2" stroke-dasharray="4 6"/>
    <path id="Trazado_188143" data-name="Trazado 188143" d="M50.324,12.737A4.528,4.528,0,0,1,48.8,15.989a5.355,5.355,0,0,1-3.625,1.187A4.816,4.816,0,0,1,41.3,15.519a6.793,6.793,0,0,1-1.411-4.548v-.782a7.671,7.671,0,0,1,.65-3.252A4.874,4.874,0,0,1,42.4,4.779a5.809,5.809,0,0,1,6.376.435,4.866,4.866,0,0,1,1.564,3.331H47.705a2.673,2.673,0,0,0-.69-1.8,2.555,2.555,0,0,0-1.806-.558,2.24,2.24,0,0,0-1.973.945,5.3,5.3,0,0,0-.672,2.931v.967a5.667,5.667,0,0,0,.628,3.032,2.2,2.2,0,0,0,1.982.958A2.6,2.6,0,0,0,47,14.464a2.521,2.521,0,0,0,.69-1.727Zm7.26,3.3a3.185,3.185,0,0,1-2.6,1.143,3,3,0,0,1-2.333-.879,3.752,3.752,0,0,1-.822-2.575V7.49h2.54v6.151q0,1.487,1.354,1.487a1.834,1.834,0,0,0,1.775-.9V7.49h2.549V17H57.654ZM64.642,17H62.093V3.5h2.549ZM69.774,5.152V7.49H71.4V9.354H69.774V14.1a1.133,1.133,0,0,0,.2.756,1.015,1.015,0,0,0,.773.229,4.051,4.051,0,0,0,.747-.062v1.925a5.229,5.229,0,0,1-1.538.229,2.425,2.425,0,0,1-2.725-2.7V9.354H65.846V7.49h1.389V5.152Zm8.736,10.881a3.185,3.185,0,0,1-2.6,1.143,3,3,0,0,1-2.333-.879,3.752,3.752,0,0,1-.822-2.575V7.49h2.54v6.151q0,1.487,1.354,1.487a1.834,1.834,0,0,0,1.775-.9V7.49h2.549V17H78.581Zm9.721-6.161a6.9,6.9,0,0,0-.914-.07,1.86,1.86,0,0,0-1.89.976V17h-2.54V7.49h2.4l.07,1.134a2.354,2.354,0,0,1,2.118-1.31,2.662,2.662,0,0,1,.791.114ZM94.7,17a2.821,2.821,0,0,1-.255-.853,3.073,3.073,0,0,1-2.4,1.028,3.376,3.376,0,0,1-2.316-.809,2.6,2.6,0,0,1-.918-2.039,2.687,2.687,0,0,1,1.121-2.32,5.529,5.529,0,0,1,3.239-.817H94.34v-.545A1.567,1.567,0,0,0,94,9.591a1.331,1.331,0,0,0-1.068-.4,1.513,1.513,0,0,0-1.006.308,1.045,1.045,0,0,0-.365.844h-2.54a2.551,2.551,0,0,1,.51-1.529,3.37,3.37,0,0,1,1.441-1.1,5.253,5.253,0,0,1,2.092-.4,4.15,4.15,0,0,1,2.791.883,3.09,3.09,0,0,1,1.033,2.483V14.8a4.546,4.546,0,0,0,.378,2.048V17Zm-2.1-1.767a2.188,2.188,0,0,0,1.037-.25,1.645,1.645,0,0,0,.7-.672V12.676h-.949q-1.907,0-2.03,1.318l-.009.149a1.017,1.017,0,0,0,.334.782A1.3,1.3,0,0,0,92.6,15.233ZM9.578,32.157a5.64,5.64,0,0,1,.545-2.522,3.989,3.989,0,0,1,1.569-1.714,4.577,4.577,0,0,1,2.377-.606,4.33,4.33,0,0,1,3.142,1.178,4.727,4.727,0,0,1,1.358,3.2l.018.65a4.97,4.97,0,0,1-1.222,3.511,4.247,4.247,0,0,1-3.278,1.323A4.268,4.268,0,0,1,10.8,35.857a5.058,5.058,0,0,1-1.226-3.586Zm2.54.18a3.555,3.555,0,0,0,.51,2.073,1.682,1.682,0,0,0,1.459.717,1.686,1.686,0,0,0,1.441-.709,3.89,3.89,0,0,0,.519-2.267,3.519,3.519,0,0,0-.519-2.06,1.686,1.686,0,0,0-1.459-.731,1.658,1.658,0,0,0-1.441.726A3.955,3.955,0,0,0,12.118,32.338ZM25.5,29.872a6.9,6.9,0,0,0-.914-.07,1.86,1.86,0,0,0-1.89.976V37h-2.54V27.49h2.4l.07,1.134a2.354,2.354,0,0,1,2.118-1.31,2.662,2.662,0,0,1,.791.114Zm.686,2.3a5.573,5.573,0,0,1,1.042-3.524,3.375,3.375,0,0,1,2.808-1.336,2.96,2.96,0,0,1,2.435,1.072l.105-.9h2.3v9.193a4.064,4.064,0,0,1-.567,2.171,3.641,3.641,0,0,1-1.6,1.406,5.608,5.608,0,0,1-2.408.483,5.215,5.215,0,0,1-2.039-.417,3.619,3.619,0,0,1-1.5-1.077L27.886,37.7a2.975,2.975,0,0,0,2.3,1.063,2.178,2.178,0,0,0,1.573-.541,2.027,2.027,0,0,0,.563-1.534v-.51a2.938,2.938,0,0,1-2.312.993,3.366,3.366,0,0,1-2.773-1.34,5.572,5.572,0,0,1-1.059-3.555Zm2.54.181a3.489,3.489,0,0,0,.519,2.035,1.648,1.648,0,0,0,1.424.737,1.762,1.762,0,0,0,1.661-.874V30.236a1.758,1.758,0,0,0-1.644-.874,1.659,1.659,0,0,0-1.437.751A3.933,3.933,0,0,0,28.721,32.356ZM42.335,37a2.821,2.821,0,0,1-.255-.853,3.073,3.073,0,0,1-2.4,1.028,3.376,3.376,0,0,1-2.316-.809,2.6,2.6,0,0,1-.918-2.039,2.687,2.687,0,0,1,1.121-2.32,5.529,5.529,0,0,1,3.239-.817h1.169v-.545a1.567,1.567,0,0,0-.338-1.055,1.331,1.331,0,0,0-1.068-.4,1.513,1.513,0,0,0-1.006.308,1.045,1.045,0,0,0-.365.844h-2.54a2.551,2.551,0,0,1,.51-1.529,3.37,3.37,0,0,1,1.441-1.1,5.253,5.253,0,0,1,2.092-.4,4.15,4.15,0,0,1,2.791.883,3.09,3.09,0,0,1,1.033,2.483V34.8a4.546,4.546,0,0,0,.378,2.048V37Zm-2.1-1.767a2.188,2.188,0,0,0,1.037-.25,1.645,1.645,0,0,0,.7-.672V32.676h-.949q-1.907,0-2.03,1.318l-.009.149a1.017,1.017,0,0,0,.334.782A1.3,1.3,0,0,0,40.234,35.233Zm8.578-7.743.079,1.1a3.32,3.32,0,0,1,2.733-1.274,2.759,2.759,0,0,1,2.25.888,4.142,4.142,0,0,1,.756,2.654V37h-2.54V30.9a1.654,1.654,0,0,0-.352-1.176,1.572,1.572,0,0,0-1.169-.366,1.747,1.747,0,0,0-1.608.916V37h-2.54V27.49ZM59.236,37H56.688V27.49h2.549Zm-2.7-11.971a1.251,1.251,0,0,1,.382-.94,1.648,1.648,0,0,1,2.079,0,1.342,1.342,0,0,1,0,1.89,1.629,1.629,0,0,1-2.065,0A1.247,1.247,0,0,1,56.538,25.029Zm7.708,9.923H68.9V37H61V35.453l4.474-5.915H61.135V27.49h7.62v1.5ZM76,37a2.821,2.821,0,0,1-.255-.853,3.073,3.073,0,0,1-2.4,1.028,3.376,3.376,0,0,1-2.316-.809,2.6,2.6,0,0,1-.918-2.039,2.687,2.687,0,0,1,1.121-2.32,5.529,5.529,0,0,1,3.239-.817h1.169v-.545a1.567,1.567,0,0,0-.338-1.055,1.331,1.331,0,0,0-1.068-.4,1.513,1.513,0,0,0-1.006.308,1.045,1.045,0,0,0-.365.844h-2.54a2.551,2.551,0,0,1,.51-1.529,3.37,3.37,0,0,1,1.441-1.1,5.253,5.253,0,0,1,2.092-.4,4.15,4.15,0,0,1,2.791.883,3.09,3.09,0,0,1,1.033,2.483V34.8a4.546,4.546,0,0,0,.378,2.048V37Zm-2.1-1.767a2.188,2.188,0,0,0,1.037-.25,1.645,1.645,0,0,0,.7-.672V32.676h-.949q-1.907,0-2.03,1.318l-.009.149a1.017,1.017,0,0,0,.334.782A1.3,1.3,0,0,0,73.9,35.233Zm10.2-.105a1.666,1.666,0,0,0,1.143-.387,1.355,1.355,0,0,0,.457-1.028h2.382a3.258,3.258,0,0,1-.527,1.771,3.48,3.48,0,0,1-1.419,1.248,4.442,4.442,0,0,1-1.991.444,4.129,4.129,0,0,1-3.217-1.3A5.13,5.13,0,0,1,79.741,32.3v-.167a5.071,5.071,0,0,1,1.169-3.507,4.08,4.08,0,0,1,3.208-1.31,4,4,0,0,1,2.861,1.015,3.594,3.594,0,0,1,1.094,2.7H85.691a1.745,1.745,0,0,0-.457-1.206,1.7,1.7,0,0,0-2.5.183,3.749,3.749,0,0,0-.453,2.1v.264a3.8,3.8,0,0,0,.448,2.113A1.549,1.549,0,0,0,84.092,35.128ZM92.2,37H89.655V27.49H92.2Zm-2.7-11.971a1.251,1.251,0,0,1,.382-.94,1.648,1.648,0,0,1,2.079,0,1.342,1.342,0,0,1,0,1.89,1.629,1.629,0,0,1-2.065,0A1.247,1.247,0,0,1,89.506,25.029ZM93.9,32.157a5.64,5.64,0,0,1,.545-2.522,3.989,3.989,0,0,1,1.569-1.714,4.577,4.577,0,0,1,2.377-.606,4.33,4.33,0,0,1,3.142,1.178,4.727,4.727,0,0,1,1.358,3.2l.018.65a4.97,4.97,0,0,1-1.222,3.511,4.735,4.735,0,0,1-6.561,0A5.058,5.058,0,0,1,93.9,32.271Zm2.54.18a3.555,3.555,0,0,0,.51,2.073,1.831,1.831,0,0,0,2.9.009,3.89,3.89,0,0,0,.519-2.267,3.519,3.519,0,0,0-.519-2.06,1.686,1.686,0,0,0-1.459-.731,1.658,1.658,0,0,0-1.441.726A3.955,3.955,0,0,0,96.44,32.338Zm10.371-4.847.079,1.1a3.32,3.32,0,0,1,2.733-1.274,2.759,2.759,0,0,1,2.25.888,4.142,4.142,0,0,1,.756,2.654V37h-2.54V30.9a1.654,1.654,0,0,0-.352-1.176,1.572,1.572,0,0,0-1.169-.366,1.747,1.747,0,0,0-1.608.916V37h-2.54V27.49ZM120.065,37a2.821,2.821,0,0,1-.255-.853,3.073,3.073,0,0,1-2.4,1.028,3.376,3.376,0,0,1-2.316-.809,2.6,2.6,0,0,1-.918-2.039,2.687,2.687,0,0,1,1.121-2.32,5.529,5.529,0,0,1,3.239-.817h1.169v-.545a1.567,1.567,0,0,0-.338-1.055,1.331,1.331,0,0,0-1.068-.4,1.513,1.513,0,0,0-1.006.308,1.045,1.045,0,0,0-.365.844h-2.54a2.551,2.551,0,0,1,.51-1.529,3.37,3.37,0,0,1,1.441-1.1,5.253,5.253,0,0,1,2.092-.4,4.15,4.15,0,0,1,2.791.883,3.09,3.09,0,0,1,1.033,2.483V34.8a4.546,4.546,0,0,0,.378,2.048V37Zm-2.1-1.767a2.188,2.188,0,0,0,1.037-.25,1.645,1.645,0,0,0,.7-.672V32.676h-.949q-1.907,0-2.03,1.318l-.009.149a1.017,1.017,0,0,0,.334.782A1.3,1.3,0,0,0,117.965,35.233ZM126.886,37h-2.549V23.5h2.549Z" transform="translate(438 4611)" fill="#12263f"/>
    <path id="Trazado_188144" data-name="Trazado 188144" d="M10.333,11.771H5.271V17H2.634V4.2h8.332V6.339h-5.7v3.3h5.063Zm7.5,4.263a3.185,3.185,0,0,1-2.6,1.143A3,3,0,0,1,12.9,16.3a3.752,3.752,0,0,1-.822-2.575V7.49h2.54v6.151q0,1.487,1.354,1.487a1.834,1.834,0,0,0,1.775-.9V7.49h2.549V17H17.9ZM24.545,7.49l.079,1.1a3.32,3.32,0,0,1,2.733-1.274,2.759,2.759,0,0,1,2.25.888,4.142,4.142,0,0,1,.756,2.654V17h-2.54V10.9a1.654,1.654,0,0,0-.352-1.176A1.572,1.572,0,0,0,26.3,9.362a1.747,1.747,0,0,0-1.608.916V17h-2.54V7.49Zm7.348,4.685a5.731,5.731,0,0,1,1-3.542A3.237,3.237,0,0,1,35.62,7.314a2.913,2.913,0,0,1,2.294,1.037V3.5h2.549V17H38.168l-.123-1.011A2.989,2.989,0,0,1,35.6,17.176a3.228,3.228,0,0,1-2.694-1.323A5.916,5.916,0,0,1,31.893,12.175Zm2.54.181a3.775,3.775,0,0,0,.466,2.057,1.516,1.516,0,0,0,1.354.715,1.7,1.7,0,0,0,1.661-1V10.36a1.675,1.675,0,0,0-1.644-1Q34.433,9.362,34.433,12.356ZM47.942,17a2.821,2.821,0,0,1-.255-.853,3.073,3.073,0,0,1-2.4,1.028,3.376,3.376,0,0,1-2.316-.809,2.6,2.6,0,0,1-.918-2.039,2.687,2.687,0,0,1,1.121-2.32,5.529,5.529,0,0,1,3.239-.817h1.169v-.545a1.567,1.567,0,0,0-.338-1.055,1.331,1.331,0,0,0-1.068-.4,1.513,1.513,0,0,0-1.006.308,1.045,1.045,0,0,0-.365.844h-2.54a2.551,2.551,0,0,1,.51-1.529,3.37,3.37,0,0,1,1.441-1.1,5.253,5.253,0,0,1,2.092-.4A4.15,4.15,0,0,1,49.1,8.2a3.09,3.09,0,0,1,1.033,2.483V14.8a4.546,4.546,0,0,0,.378,2.048V17Zm-2.1-1.767a2.188,2.188,0,0,0,1.037-.25,1.645,1.645,0,0,0,.7-.672V12.676h-.949q-1.907,0-2.03,1.318l-.009.149a1.017,1.017,0,0,0,.334.782A1.3,1.3,0,0,0,45.841,15.233Zm10.2-.105a1.666,1.666,0,0,0,1.143-.387,1.355,1.355,0,0,0,.457-1.028h2.382a3.258,3.258,0,0,1-.527,1.771,3.48,3.48,0,0,1-1.419,1.248,4.442,4.442,0,0,1-1.991.444,4.129,4.129,0,0,1-3.217-1.3A5.13,5.13,0,0,1,51.686,12.3v-.167a5.071,5.071,0,0,1,1.169-3.507,4.08,4.08,0,0,1,3.208-1.31A4,4,0,0,1,58.924,8.33a3.594,3.594,0,0,1,1.094,2.7H57.636a1.745,1.745,0,0,0-.457-1.206,1.7,1.7,0,0,0-2.5.183,3.749,3.749,0,0,0-.453,2.1v.264a3.8,3.8,0,0,0,.448,2.113A1.549,1.549,0,0,0,56.037,15.128ZM64.149,17H61.6V7.49h2.549Zm-2.7-11.971a1.251,1.251,0,0,1,.382-.94,1.648,1.648,0,0,1,2.079,0,1.244,1.244,0,0,1,.387.94,1.247,1.247,0,0,1-.391.949,1.629,1.629,0,0,1-2.065,0A1.247,1.247,0,0,1,61.451,5.029Zm4.395,7.128a5.64,5.64,0,0,1,.545-2.522,3.989,3.989,0,0,1,1.569-1.714,4.577,4.577,0,0,1,2.377-.606,4.33,4.33,0,0,1,3.142,1.178,4.727,4.727,0,0,1,1.358,3.2l.018.65a4.97,4.97,0,0,1-1.222,3.511,4.735,4.735,0,0,1-6.561,0,5.058,5.058,0,0,1-1.226-3.586Zm2.54.18a3.555,3.555,0,0,0,.51,2.073,1.831,1.831,0,0,0,2.9.009,3.89,3.89,0,0,0,.519-2.267,3.519,3.519,0,0,0-.519-2.06,1.686,1.686,0,0,0-1.459-.731,1.658,1.658,0,0,0-1.441.726A3.955,3.955,0,0,0,68.385,12.338ZM78.756,7.49l.079,1.1a3.32,3.32,0,0,1,2.733-1.274,2.759,2.759,0,0,1,2.25.888,4.142,4.142,0,0,1,.756,2.654V17h-2.54V10.9a1.654,1.654,0,0,0-.352-1.176,1.572,1.572,0,0,0-1.169-.366,1.747,1.747,0,0,0-1.608.916V17h-2.54V7.49Zm12.12,9.686a4.668,4.668,0,0,1-3.406-1.283,4.561,4.561,0,0,1-1.314-3.419v-.246a5.745,5.745,0,0,1,.554-2.562,4.064,4.064,0,0,1,1.569-1.74A4.4,4.4,0,0,1,90.6,7.314a3.947,3.947,0,0,1,3.072,1.23,5,5,0,0,1,1.121,3.489v1.037H88.732a2.36,2.36,0,0,0,.743,1.494,2.245,2.245,0,0,0,1.569.563,2.742,2.742,0,0,0,2.294-1.063l1.248,1.4a3.813,3.813,0,0,1-1.547,1.261A5.075,5.075,0,0,1,90.876,17.176Zm-.29-7.813a1.587,1.587,0,0,0-1.226.512,2.651,2.651,0,0,0-.6,1.466h3.533v-.2a1.891,1.891,0,0,0-.457-1.311A1.638,1.638,0,0,0,90.586,9.362Zm10.793,5.01a.818.818,0,0,0-.461-.734,5.241,5.241,0,0,0-1.481-.479q-3.393-.712-3.393-2.883a2.613,2.613,0,0,1,1.05-2.114,4.237,4.237,0,0,1,2.747-.848,4.56,4.56,0,0,1,2.9.853,2.687,2.687,0,0,1,1.085,2.215h-2.54a1.229,1.229,0,0,0-.352-.9,1.488,1.488,0,0,0-1.1-.356,1.52,1.52,0,0,0-.993.29.916.916,0,0,0-.352.738.783.783,0,0,0,.4.681,4.114,4.114,0,0,0,1.349.448,11.019,11.019,0,0,1,1.6.426,2.628,2.628,0,0,1,2.013,2.558,2.481,2.481,0,0,1-1.116,2.1,4.815,4.815,0,0,1-2.883.8,5.029,5.029,0,0,1-2.123-.426,3.561,3.561,0,0,1-1.455-1.169,2.716,2.716,0,0,1-.527-1.6h2.408a1.326,1.326,0,0,0,.5,1.037,1.987,1.987,0,0,0,1.248.36,1.839,1.839,0,0,0,1.1-.277A.861.861,0,0,0,101.379,14.372ZM14.838,33.405,16.6,27.49H19.32L15.5,38.477l-.211.5a2.9,2.9,0,0,1-2.812,1.863,4,4,0,0,1-1.125-.167V38.749l.387.009a2.09,2.09,0,0,0,1.077-.22,1.443,1.443,0,0,0,.558-.729l.3-.782L10.338,27.49h2.733ZM21.122,38.1h-1.89l4.711-13.9h1.89Zm5.528-5.941a5.64,5.64,0,0,1,.545-2.522,3.989,3.989,0,0,1,1.569-1.714,4.577,4.577,0,0,1,2.377-.606,4.33,4.33,0,0,1,3.142,1.178,4.727,4.727,0,0,1,1.358,3.2l.018.65a4.97,4.97,0,0,1-1.222,3.511,4.247,4.247,0,0,1-3.278,1.323,4.268,4.268,0,0,1-3.283-1.318,5.058,5.058,0,0,1-1.226-3.586Zm2.54.18a3.555,3.555,0,0,0,.51,2.073,1.831,1.831,0,0,0,2.9.009,3.89,3.89,0,0,0,.519-2.267,3.519,3.519,0,0,0-.519-2.06,1.686,1.686,0,0,0-1.459-.731,1.658,1.658,0,0,0-1.441.726A3.955,3.955,0,0,0,29.19,32.338ZM44.387,37H41.838V23.5h2.549Zm4.834,0h-2.54V27.49h2.54Zm-.747-13.368h2.769l-2.435,2.725H46.742Zm2.54,8.543a5.731,5.731,0,0,1,1-3.542,3.237,3.237,0,0,1,2.729-1.318,2.913,2.913,0,0,1,2.294,1.037V23.5h2.549V37H57.289l-.123-1.011a2.989,2.989,0,0,1-2.443,1.187,3.228,3.228,0,0,1-2.694-1.323A5.916,5.916,0,0,1,51.014,32.175Zm2.54.181a3.775,3.775,0,0,0,.466,2.057,1.516,1.516,0,0,0,1.354.715,1.7,1.7,0,0,0,1.661-1V30.36a1.675,1.675,0,0,0-1.644-1Q53.554,29.362,53.554,32.356Zm12.375,4.82a4.668,4.668,0,0,1-3.406-1.283,4.561,4.561,0,0,1-1.314-3.419v-.246a5.745,5.745,0,0,1,.554-2.562,4.064,4.064,0,0,1,1.569-1.74,4.4,4.4,0,0,1,2.316-.611,3.947,3.947,0,0,1,3.072,1.23,5,5,0,0,1,1.121,3.489v1.037H63.784a2.36,2.36,0,0,0,.743,1.494,2.245,2.245,0,0,0,1.569.563,2.742,2.742,0,0,0,2.294-1.063l1.248,1.4a3.813,3.813,0,0,1-1.547,1.261A5.075,5.075,0,0,1,65.929,37.176Zm-.29-7.813a1.587,1.587,0,0,0-1.226.512,2.651,2.651,0,0,0-.6,1.466h3.533v-.2a1.891,1.891,0,0,0-.457-1.311A1.638,1.638,0,0,0,65.639,29.362Zm10.986.51a6.9,6.9,0,0,0-.914-.07,1.86,1.86,0,0,0-1.89.976V37h-2.54V27.49h2.4l.07,1.134a2.354,2.354,0,0,1,2.118-1.31,2.662,2.662,0,0,1,.791.114Zm5.432,7.3a4.668,4.668,0,0,1-3.406-1.283,4.561,4.561,0,0,1-1.314-3.419v-.246a5.745,5.745,0,0,1,.554-2.562,4.064,4.064,0,0,1,1.569-1.74,4.4,4.4,0,0,1,2.316-.611,3.947,3.947,0,0,1,3.072,1.23,5,5,0,0,1,1.121,3.489v1.037H79.912a2.36,2.36,0,0,0,.743,1.494,2.245,2.245,0,0,0,1.569.563,2.742,2.742,0,0,0,2.294-1.063l1.248,1.4a3.813,3.813,0,0,1-1.547,1.261A5.075,5.075,0,0,1,82.057,37.176Zm-.29-7.813a1.587,1.587,0,0,0-1.226.512,2.651,2.651,0,0,0-.6,1.466h3.533v-.2a1.891,1.891,0,0,0-.457-1.311A1.638,1.638,0,0,0,81.767,29.362Zm10.793,5.01a.818.818,0,0,0-.461-.734,5.241,5.241,0,0,0-1.481-.479q-3.393-.712-3.393-2.883a2.613,2.613,0,0,1,1.05-2.114,4.237,4.237,0,0,1,2.747-.848,4.56,4.56,0,0,1,2.9.853A2.687,2.687,0,0,1,95,30.382h-2.54a1.229,1.229,0,0,0-.352-.9,1.488,1.488,0,0,0-1.1-.356,1.52,1.52,0,0,0-.993.29.916.916,0,0,0-.352.738.783.783,0,0,0,.4.681,4.114,4.114,0,0,0,1.349.448,11.019,11.019,0,0,1,1.6.426,2.628,2.628,0,0,1,2.013,2.558,2.481,2.481,0,0,1-1.116,2.1,4.815,4.815,0,0,1-2.883.8,5.029,5.029,0,0,1-2.123-.426,3.561,3.561,0,0,1-1.455-1.169,2.716,2.716,0,0,1-.527-1.6h2.408a1.326,1.326,0,0,0,.5,1.037,1.987,1.987,0,0,0,1.248.36,1.839,1.839,0,0,0,1.1-.277A.861.861,0,0,0,92.56,34.372Z" transform="translate(697 4514)" fill="#12263f"/>
    <path id="Trazado_188151" data-name="Trazado 188151" d="M2.93,15H1.43V3.625h1.5Zm2.164-4.3a4.952,4.952,0,0,1,.922-3.129A2.915,2.915,0,0,1,8.43,6.391a2.932,2.932,0,0,1,2.352,1.016V3h1.445V15H10.9l-.07-.906a2.943,2.943,0,0,1-2.414,1.063,2.887,2.887,0,0,1-2.395-1.2,5.008,5.008,0,0,1-.926-3.141Zm1.445.164a3.749,3.749,0,0,0,.594,2.25,1.92,1.92,0,0,0,1.641.813A2.108,2.108,0,0,0,10.781,12.7V8.813a2.125,2.125,0,0,0-1.992-1.2,1.929,1.929,0,0,0-1.656.82A4.128,4.128,0,0,0,6.539,10.867Zm11.438,4.289a3.693,3.693,0,0,1-2.8-1.129,4.19,4.19,0,0,1-1.078-3.02v-.266a5.073,5.073,0,0,1,.48-2.246,3.748,3.748,0,0,1,1.344-1.547A3.378,3.378,0,0,1,17.8,6.391a3.166,3.166,0,0,1,2.563,1.086,4.7,4.7,0,0,1,.914,3.109v.6H15.547a3,3,0,0,0,.73,2.02,2.3,2.3,0,0,0,1.777.77,2.517,2.517,0,0,0,1.3-.312,3.259,3.259,0,0,0,.93-.828l.883.688A3.55,3.55,0,0,1,17.977,15.156ZM17.8,7.578a1.928,1.928,0,0,0-1.469.637A3.1,3.1,0,0,0,15.594,10h4.234V9.891a2.753,2.753,0,0,0-.594-1.707A1.815,1.815,0,0,0,17.8,7.578ZM28.164,15a3.036,3.036,0,0,1-.2-.891,3.225,3.225,0,0,1-2.406,1.047,2.984,2.984,0,0,1-2.051-.707,2.287,2.287,0,0,1-.8-1.793,2.39,2.39,0,0,1,1-2.051,4.733,4.733,0,0,1,2.824-.73h1.406V9.211A1.623,1.623,0,0,0,27.484,8a1.821,1.821,0,0,0-1.336-.449,2.108,2.108,0,0,0-1.3.391,1.151,1.151,0,0,0-.523.945H22.875a2,2,0,0,1,.449-1.223,3.066,3.066,0,0,1,1.219-.934,4.1,4.1,0,0,1,1.691-.344,3.342,3.342,0,0,1,2.289.73,2.635,2.635,0,0,1,.859,2.012v3.891a4.757,4.757,0,0,0,.3,1.852V15Zm-2.4-1.1a2.54,2.54,0,0,0,1.289-.352,2.127,2.127,0,0,0,.883-.914V10.9H26.8q-2.656,0-2.656,1.555a1.316,1.316,0,0,0,.453,1.063A1.742,1.742,0,0,0,25.766,13.9Zm10.8-1.141a1.064,1.064,0,0,0-.441-.91,4.249,4.249,0,0,0-1.539-.559,7.277,7.277,0,0,1-1.742-.562,2.479,2.479,0,0,1-.953-.781,1.869,1.869,0,0,1-.309-1.078,2.193,2.193,0,0,1,.879-1.758,3.432,3.432,0,0,1,2.246-.719,3.532,3.532,0,0,1,2.332.742,2.357,2.357,0,0,1,.895,1.9H36.484a1.3,1.3,0,0,0-.5-1.023,1.888,1.888,0,0,0-1.27-.43,1.976,1.976,0,0,0-1.234.344,1.082,1.082,0,0,0-.445.9.877.877,0,0,0,.414.789,5.1,5.1,0,0,0,1.5.508A7.8,7.8,0,0,1,36.7,10.7a2.558,2.558,0,0,1,1,.809,1.988,1.988,0,0,1,.324,1.152,2.163,2.163,0,0,1-.906,1.816,3.8,3.8,0,0,1-2.352.684,4.257,4.257,0,0,1-1.8-.359,2.922,2.922,0,0,1-1.223-1A2.42,2.42,0,0,1,31.3,12.4h1.445a1.5,1.5,0,0,0,.582,1.152,2.258,2.258,0,0,0,1.434.426,2.331,2.331,0,0,0,1.316-.332A1.02,1.02,0,0,0,36.57,12.758Z" transform="translate(995.236 4441)" fill="#12263f"/>
    <path id="Trazado_188136" data-name="Trazado 188136" d="M9.688,11.391a4.185,4.185,0,0,1-1.332,2.785,4.365,4.365,0,0,1-2.98.98,4.008,4.008,0,0,1-3.23-1.445A5.815,5.815,0,0,1,.93,9.844V8.75A6.481,6.481,0,0,1,1.5,5.961,4.231,4.231,0,0,1,3.1,4.113a4.47,4.47,0,0,1,2.406-.645A4.11,4.11,0,0,1,8.414,4.48a4.235,4.235,0,0,1,1.273,2.8H8.18a3.268,3.268,0,0,0-.848-1.975A2.565,2.565,0,0,0,5.508,4.7,2.684,2.684,0,0,0,3.254,5.759a4.882,4.882,0,0,0-.816,3.026v1.1a5.018,5.018,0,0,0,.773,2.948A2.5,2.5,0,0,0,5.375,13.93a2.887,2.887,0,0,0,1.918-.566,3.143,3.143,0,0,0,.887-1.973Zm5.906-3.547a4.331,4.331,0,0,0-.711-.055A1.9,1.9,0,0,0,12.953,9v6H11.508V6.547h1.406l.023.977a2.251,2.251,0,0,1,2.016-1.133,1.477,1.477,0,0,1,.641.109Zm4.688,7.313a3.693,3.693,0,0,1-2.8-1.129,4.19,4.19,0,0,1-1.078-3.02v-.266a5.073,5.073,0,0,1,.48-2.246A3.748,3.748,0,0,1,18.23,6.949,3.378,3.378,0,0,1,20.1,6.391a3.166,3.166,0,0,1,2.563,1.086,4.7,4.7,0,0,1,.914,3.109v.6H17.852a3,3,0,0,0,.73,2.02,2.3,2.3,0,0,0,1.777.77,2.517,2.517,0,0,0,1.3-.312,3.259,3.259,0,0,0,.93-.828l.883.688A3.55,3.55,0,0,1,20.281,15.156ZM20.1,7.578a1.928,1.928,0,0,0-1.469.637A3.1,3.1,0,0,0,17.9,10h4.234V9.891a2.753,2.753,0,0,0-.594-1.707A1.815,1.815,0,0,0,20.1,7.578Zm8.656,7.578a3.693,3.693,0,0,1-2.8-1.129,4.19,4.19,0,0,1-1.078-3.02v-.266a5.073,5.073,0,0,1,.48-2.246,3.748,3.748,0,0,1,1.344-1.547,3.378,3.378,0,0,1,1.871-.559,3.166,3.166,0,0,1,2.563,1.086,4.7,4.7,0,0,1,.914,3.109v.6H26.328a3,3,0,0,0,.73,2.02,2.3,2.3,0,0,0,1.777.77,2.517,2.517,0,0,0,1.3-.312,3.259,3.259,0,0,0,.93-.828l.883.688A3.55,3.55,0,0,1,28.758,15.156Zm-.18-7.578a1.928,1.928,0,0,0-1.469.637A3.1,3.1,0,0,0,26.375,10h4.234V9.891a2.753,2.753,0,0,0-.594-1.707A1.815,1.815,0,0,0,28.578,7.578Zm6.516-1.031.047,1.063a3.08,3.08,0,0,1,2.531-1.219q2.68,0,2.7,3.023V15H38.93V9.406a1.946,1.946,0,0,0-.418-1.352,1.675,1.675,0,0,0-1.277-.437A2.086,2.086,0,0,0,36,7.992a2.546,2.546,0,0,0-.828.984V15H33.727V6.547Zm10.852,7.43a2.082,2.082,0,0,0,1.352-.469,1.649,1.649,0,0,0,.641-1.172H49.3a2.621,2.621,0,0,1-.5,1.383,3.293,3.293,0,0,1-1.23,1.047,3.55,3.55,0,0,1-1.629.391A3.482,3.482,0,0,1,43.2,14a4.59,4.59,0,0,1-1.02-3.152v-.242a5.089,5.089,0,0,1,.453-2.2,3.451,3.451,0,0,1,1.3-1.492,3.7,3.7,0,0,1,2-.531,3.39,3.39,0,0,1,2.363.852,3.043,3.043,0,0,1,1,2.211H47.938a1.992,1.992,0,0,0-.621-1.348,1.932,1.932,0,0,0-1.379-.527,2.023,2.023,0,0,0-1.707.793,3.724,3.724,0,0,0-.605,2.293v.273a3.65,3.65,0,0,0,.6,2.25A2.033,2.033,0,0,0,45.945,13.977ZM52.5,15H51.055V6.547H52.5ZM50.938,4.3a.863.863,0,0,1,.215-.594.807.807,0,0,1,.637-.242.819.819,0,0,1,.641.242.854.854,0,0,1,.219.594.826.826,0,0,1-.219.586.834.834,0,0,1-.641.234.821.821,0,0,1-.637-.234A.834.834,0,0,1,50.938,4.3ZM60.031,15a3.036,3.036,0,0,1-.2-.891,3.225,3.225,0,0,1-2.406,1.047,2.984,2.984,0,0,1-2.051-.707,2.287,2.287,0,0,1-.8-1.793,2.39,2.39,0,0,1,1-2.051,4.733,4.733,0,0,1,2.824-.73H59.8V9.211A1.623,1.623,0,0,0,59.352,8a1.821,1.821,0,0,0-1.336-.449,2.107,2.107,0,0,0-1.3.391,1.151,1.151,0,0,0-.523.945H54.742a2,2,0,0,1,.449-1.223,3.066,3.066,0,0,1,1.219-.934A4.1,4.1,0,0,1,58.1,6.391a3.342,3.342,0,0,1,2.289.73,2.635,2.635,0,0,1,.859,2.012v3.891a4.757,4.757,0,0,0,.3,1.852V15Zm-2.4-1.1a2.54,2.54,0,0,0,1.289-.352,2.127,2.127,0,0,0,.883-.914V10.9H58.672q-2.656,0-2.656,1.555a1.316,1.316,0,0,0,.453,1.063A1.742,1.742,0,0,0,57.633,13.9Zm10.8-1.141a1.064,1.064,0,0,0-.441-.91,4.249,4.249,0,0,0-1.539-.559,7.277,7.277,0,0,1-1.742-.562,2.479,2.479,0,0,1-.953-.781,1.869,1.869,0,0,1-.309-1.078,2.193,2.193,0,0,1,.879-1.758,3.432,3.432,0,0,1,2.246-.719,3.532,3.532,0,0,1,2.332.742,2.357,2.357,0,0,1,.895,1.9H68.352a1.3,1.3,0,0,0-.5-1.023,1.888,1.888,0,0,0-1.27-.43,1.976,1.976,0,0,0-1.234.344,1.082,1.082,0,0,0-.445.9.877.877,0,0,0,.414.789,5.1,5.1,0,0,0,1.5.508,7.8,7.8,0,0,1,1.754.578,2.558,2.558,0,0,1,1,.809,1.988,1.988,0,0,1,.324,1.152,2.163,2.163,0,0,1-.906,1.816,3.8,3.8,0,0,1-2.352.684,4.257,4.257,0,0,1-1.8-.359,2.922,2.922,0,0,1-1.223-1,2.42,2.42,0,0,1-.441-1.395h1.445a1.5,1.5,0,0,0,.582,1.152,2.258,2.258,0,0,0,1.434.426,2.331,2.331,0,0,0,1.316-.332A1.02,1.02,0,0,0,68.438,12.758Z" transform="translate(992.236 4696)" fill="#12263f"/>
    <path id="Trazado_188145" data-name="Trazado 188145" d="M7.75,9.742H2.82v4.031H8.547V15H1.32V3.625H8.469V4.852H2.82V8.516H7.75Zm7.359,3.016a1.064,1.064,0,0,0-.441-.91,4.249,4.249,0,0,0-1.539-.559,7.277,7.277,0,0,1-1.742-.562,2.479,2.479,0,0,1-.953-.781,1.869,1.869,0,0,1-.309-1.078A2.193,2.193,0,0,1,11,7.109a3.432,3.432,0,0,1,2.246-.719,3.532,3.532,0,0,1,2.332.742,2.357,2.357,0,0,1,.895,1.9H15.023a1.3,1.3,0,0,0-.5-1.023,1.888,1.888,0,0,0-1.27-.43,1.976,1.976,0,0,0-1.234.344,1.082,1.082,0,0,0-.445.9.877.877,0,0,0,.414.789,5.1,5.1,0,0,0,1.5.508,7.8,7.8,0,0,1,1.754.578,2.558,2.558,0,0,1,1,.809,1.988,1.988,0,0,1,.324,1.152,2.163,2.163,0,0,1-.906,1.816,3.8,3.8,0,0,1-2.352.684,4.257,4.257,0,0,1-1.8-.359,2.922,2.922,0,0,1-1.223-1A2.42,2.42,0,0,1,9.836,12.4h1.445a1.5,1.5,0,0,0,.582,1.152,2.258,2.258,0,0,0,1.434.426,2.331,2.331,0,0,0,1.316-.332A1.02,1.02,0,0,0,15.109,12.758ZM20.4,4.5V6.547h1.578V7.664H20.4v5.249a1.173,1.173,0,0,0,.211.763.888.888,0,0,0,.719.254,3.5,3.5,0,0,0,.688-.094V15a4.215,4.215,0,0,1-1.109.155,1.8,1.8,0,0,1-1.461-.586,2.517,2.517,0,0,1-.492-1.664V7.664H17.414V6.547h1.539V4.5ZM27.75,7.844a4.331,4.331,0,0,0-.711-.055A1.9,1.9,0,0,0,25.109,9v6H23.664V6.547H25.07l.023.977a2.251,2.251,0,0,1,2.016-1.133,1.477,1.477,0,0,1,.641.109ZM33.984,15a3.036,3.036,0,0,1-.2-.891,3.225,3.225,0,0,1-2.406,1.047,2.984,2.984,0,0,1-2.051-.707,2.287,2.287,0,0,1-.8-1.793,2.39,2.39,0,0,1,1-2.051,4.733,4.733,0,0,1,2.824-.73h1.406V9.211A1.623,1.623,0,0,0,33.3,8a1.821,1.821,0,0,0-1.336-.449,2.108,2.108,0,0,0-1.3.391,1.151,1.151,0,0,0-.523.945H28.7a2,2,0,0,1,.449-1.223,3.066,3.066,0,0,1,1.219-.934,4.1,4.1,0,0,1,1.691-.344,3.342,3.342,0,0,1,2.289.73A2.635,2.635,0,0,1,35.2,9.133v3.891a4.757,4.757,0,0,0,.3,1.852V15Zm-2.4-1.1a2.54,2.54,0,0,0,1.289-.352,2.127,2.127,0,0,0,.883-.914V10.9H32.625q-2.656,0-2.656,1.555a1.316,1.316,0,0,0,.453,1.063A1.742,1.742,0,0,0,31.586,13.9ZM39.43,4.5V6.547h1.578V7.664H39.43v5.249a1.173,1.173,0,0,0,.211.763.888.888,0,0,0,.719.254,3.5,3.5,0,0,0,.688-.094V15a4.215,4.215,0,0,1-1.109.155,1.8,1.8,0,0,1-1.461-.586,2.517,2.517,0,0,1-.492-1.664V7.664H36.445V6.547h1.539V4.5ZM46.2,15.156a3.693,3.693,0,0,1-2.8-1.129,4.19,4.19,0,0,1-1.078-3.02v-.266a5.073,5.073,0,0,1,.48-2.246,3.748,3.748,0,0,1,1.344-1.547,3.378,3.378,0,0,1,1.871-.559,3.166,3.166,0,0,1,2.563,1.086,4.7,4.7,0,0,1,.914,3.109v.6H43.773a3,3,0,0,0,.73,2.02,2.3,2.3,0,0,0,1.777.77,2.517,2.517,0,0,0,1.3-.312,3.259,3.259,0,0,0,.93-.828l.883.688A3.55,3.55,0,0,1,46.2,15.156Zm-.18-7.578a1.928,1.928,0,0,0-1.469.637A3.1,3.1,0,0,0,43.82,10h4.234V9.891a2.753,2.753,0,0,0-.594-1.707A1.815,1.815,0,0,0,46.023,7.578Zm4.8,3.125a4.968,4.968,0,0,1,.914-3.145,3.151,3.151,0,0,1,4.836-.074l.07-.937h1.32V14.8A3.439,3.439,0,0,1,57,17.383a3.589,3.589,0,0,1-2.613.945,4.348,4.348,0,0,1-1.789-.391,3.08,3.08,0,0,1-1.336-1.07l.75-.867a2.826,2.826,0,0,0,2.273,1.148,2.214,2.214,0,0,0,1.645-.594,2.269,2.269,0,0,0,.59-1.672v-.727a2.971,2.971,0,0,1-2.367,1,2.887,2.887,0,0,1-2.4-1.2A5.224,5.224,0,0,1,50.828,10.7Zm1.453.164a3.79,3.79,0,0,0,.586,2.246,1.9,1.9,0,0,0,1.641.816,2.117,2.117,0,0,0,2.008-1.242V8.828a2.142,2.142,0,0,0-1.992-1.211,1.921,1.921,0,0,0-1.648.82A4.128,4.128,0,0,0,52.281,10.867ZM61.719,15H60.273V6.547h1.445ZM60.156,4.3a.863.863,0,0,1,.215-.594.807.807,0,0,1,.637-.242.819.819,0,0,1,.641.242.854.854,0,0,1,.219.594.826.826,0,0,1-.219.586.834.834,0,0,1-.641.234.821.821,0,0,1-.637-.234A.834.834,0,0,1,60.156,4.3ZM69.25,15a3.036,3.036,0,0,1-.2-.891,3.225,3.225,0,0,1-2.406,1.047,2.984,2.984,0,0,1-2.051-.707,2.288,2.288,0,0,1-.8-1.793,2.39,2.39,0,0,1,1-2.051,4.733,4.733,0,0,1,2.824-.73h1.406V9.211A1.623,1.623,0,0,0,68.57,8a1.821,1.821,0,0,0-1.336-.449,2.108,2.108,0,0,0-1.3.391,1.151,1.151,0,0,0-.523.945H63.961a2,2,0,0,1,.449-1.223,3.066,3.066,0,0,1,1.219-.934,4.1,4.1,0,0,1,1.691-.344,3.342,3.342,0,0,1,2.289.73,2.635,2.635,0,0,1,.859,2.012v3.891a4.757,4.757,0,0,0,.3,1.852V15Zm-2.4-1.1a2.54,2.54,0,0,0,1.289-.352,2.127,2.127,0,0,0,.883-.914V10.9H67.891q-2.656,0-2.656,1.555a1.316,1.316,0,0,0,.453,1.063A1.742,1.742,0,0,0,66.852,13.9Zm10.8-1.141a1.064,1.064,0,0,0-.441-.91,4.249,4.249,0,0,0-1.539-.559,7.277,7.277,0,0,1-1.742-.562,2.479,2.479,0,0,1-.953-.781,1.869,1.869,0,0,1-.309-1.078,2.193,2.193,0,0,1,.879-1.758A3.432,3.432,0,0,1,75.8,6.391a3.532,3.532,0,0,1,2.332.742,2.357,2.357,0,0,1,.895,1.9H77.57a1.3,1.3,0,0,0-.5-1.023,1.888,1.888,0,0,0-1.27-.43,1.976,1.976,0,0,0-1.234.344,1.082,1.082,0,0,0-.445.9.877.877,0,0,0,.414.789,5.1,5.1,0,0,0,1.5.508,7.8,7.8,0,0,1,1.754.578,2.558,2.558,0,0,1,1,.809,1.988,1.988,0,0,1,.324,1.152,2.163,2.163,0,0,1-.906,1.816,3.8,3.8,0,0,1-2.352.684,4.257,4.257,0,0,1-1.8-.359,2.922,2.922,0,0,1-1.223-1,2.42,2.42,0,0,1-.441-1.395h1.445a1.5,1.5,0,0,0,.582,1.152,2.258,2.258,0,0,0,1.434.426,2.331,2.331,0,0,0,1.316-.332A1.02,1.02,0,0,0,77.656,12.758ZM84.594,10.7a4.952,4.952,0,0,1,.922-3.129,3.137,3.137,0,0,1,4.766-.168V3h1.445V15H90.4l-.07-.906a2.943,2.943,0,0,1-2.414,1.063,2.887,2.887,0,0,1-2.395-1.2,5.008,5.008,0,0,1-.926-3.141Zm1.445.164a3.749,3.749,0,0,0,.594,2.25,1.92,1.92,0,0,0,1.641.813A2.108,2.108,0,0,0,90.281,12.7V8.813a2.125,2.125,0,0,0-1.992-1.2,1.929,1.929,0,0,0-1.656.82A4.128,4.128,0,0,0,86.039,10.867Zm11.438,4.289a3.693,3.693,0,0,1-2.8-1.129,4.19,4.19,0,0,1-1.078-3.02v-.266a5.073,5.073,0,0,1,.48-2.246,3.748,3.748,0,0,1,1.344-1.547A3.378,3.378,0,0,1,97.3,6.391a3.166,3.166,0,0,1,2.563,1.086,4.7,4.7,0,0,1,.914,3.109v.6H95.047a3,3,0,0,0,.73,2.02,2.3,2.3,0,0,0,1.777.77,2.517,2.517,0,0,0,1.3-.312,3.259,3.259,0,0,0,.93-.828l.883.688A3.55,3.55,0,0,1,97.477,15.156ZM97.3,7.578a1.928,1.928,0,0,0-1.469.637A3.1,3.1,0,0,0,95.094,10h4.234V9.891a2.753,2.753,0,0,0-.594-1.707A1.815,1.815,0,0,0,97.3,7.578Zm8.766,3.125a4.968,4.968,0,0,1,.914-3.145,3.151,3.151,0,0,1,4.836-.074l.07-.937h1.32V14.8a3.439,3.439,0,0,1-.973,2.586,3.589,3.589,0,0,1-2.613.945,4.348,4.348,0,0,1-1.789-.391,3.08,3.08,0,0,1-1.336-1.07l.75-.867a2.826,2.826,0,0,0,2.273,1.148,2.214,2.214,0,0,0,1.645-.594,2.269,2.269,0,0,0,.59-1.672v-.727a2.971,2.971,0,0,1-2.367,1,2.887,2.887,0,0,1-2.4-1.2A5.224,5.224,0,0,1,106.063,10.7Zm1.453.164a3.79,3.79,0,0,0,.586,2.246,1.9,1.9,0,0,0,1.641.816,2.117,2.117,0,0,0,2.008-1.242V8.828a2.142,2.142,0,0,0-1.992-1.211,1.921,1.921,0,0,0-1.648.82A4.128,4.128,0,0,0,107.516,10.867Zm11.375,4.289a3.693,3.693,0,0,1-2.8-1.129,4.19,4.19,0,0,1-1.078-3.02v-.266A5.073,5.073,0,0,1,115.5,8.5a3.748,3.748,0,0,1,1.344-1.547,3.378,3.378,0,0,1,1.871-.559,3.166,3.166,0,0,1,2.563,1.086,4.7,4.7,0,0,1,.914,3.109v.6h-5.727a3,3,0,0,0,.73,2.02,2.3,2.3,0,0,0,1.777.77,2.517,2.517,0,0,0,1.3-.312,3.259,3.259,0,0,0,.93-.828l.883.688A3.55,3.55,0,0,1,118.891,15.156Zm-.18-7.578a1.928,1.928,0,0,0-1.469.637A3.1,3.1,0,0,0,116.508,10h4.234V9.891a2.753,2.753,0,0,0-.594-1.707A1.815,1.815,0,0,0,118.711,7.578Zm10.07,5.18a1.064,1.064,0,0,0-.441-.91,4.249,4.249,0,0,0-1.539-.559,7.277,7.277,0,0,1-1.742-.562,2.479,2.479,0,0,1-.953-.781,1.869,1.869,0,0,1-.309-1.078,2.193,2.193,0,0,1,.879-1.758,3.432,3.432,0,0,1,2.246-.719,3.532,3.532,0,0,1,2.332.742,2.357,2.357,0,0,1,.895,1.9H128.7a1.3,1.3,0,0,0-.5-1.023,1.888,1.888,0,0,0-1.27-.43,1.976,1.976,0,0,0-1.234.344,1.082,1.082,0,0,0-.445.9.877.877,0,0,0,.414.789,5.1,5.1,0,0,0,1.5.508,7.8,7.8,0,0,1,1.754.578,2.558,2.558,0,0,1,1,.809,1.988,1.988,0,0,1,.324,1.152,2.163,2.163,0,0,1-.906,1.816,3.8,3.8,0,0,1-2.352.684,4.257,4.257,0,0,1-1.8-.359,2.922,2.922,0,0,1-1.223-1,2.42,2.42,0,0,1-.441-1.395h1.445a1.5,1.5,0,0,0,.582,1.152,2.258,2.258,0,0,0,1.434.426,2.331,2.331,0,0,0,1.316-.332A1.02,1.02,0,0,0,128.781,12.758ZM134.07,4.5V6.547h1.578V7.664H134.07v5.249a1.173,1.173,0,0,0,.211.763.888.888,0,0,0,.719.254,3.5,3.5,0,0,0,.688-.094V15a4.215,4.215,0,0,1-1.109.155,1.8,1.8,0,0,1-1.461-.586,2.517,2.517,0,0,1-.492-1.664V7.664h-1.539V6.547h1.539V4.5ZM138.906,15h-1.445V6.547h1.445ZM137.344,4.3a.863.863,0,0,1,.215-.594.807.807,0,0,1,.637-.242.819.819,0,0,1,.641.242.854.854,0,0,1,.219.594.826.826,0,0,1-.219.586.834.834,0,0,1-.641.234.821.821,0,0,1-.637-.234A.834.834,0,0,1,137.344,4.3Zm3.492,6.391a4.993,4.993,0,0,1,.488-2.234,3.642,3.642,0,0,1,1.359-1.531,3.7,3.7,0,0,1,1.988-.539,3.565,3.565,0,0,1,2.793,1.2,4.6,4.6,0,0,1,1.066,3.18v.1a5.036,5.036,0,0,1-.473,2.215,3.589,3.589,0,0,1-1.352,1.527,3.743,3.743,0,0,1-2.02.547,3.556,3.556,0,0,1-2.785-1.2,4.575,4.575,0,0,1-1.066-3.164Zm1.453.172a3.616,3.616,0,0,0,.652,2.258,2.211,2.211,0,0,0,3.5-.012,3.954,3.954,0,0,0,.648-2.418,3.61,3.61,0,0,0-.66-2.254,2.1,2.1,0,0,0-1.754-.863,2.075,2.075,0,0,0-1.727.852A3.925,3.925,0,0,0,142.289,10.867Zm3.039-7.852h1.75l-2.094,2.3-1.164,0Zm6.383,3.531.047,1.063a3.08,3.08,0,0,1,2.531-1.219q2.68,0,2.7,3.023V15h-1.445V9.406a1.946,1.946,0,0,0-.418-1.352,1.675,1.675,0,0,0-1.277-.437,2.086,2.086,0,0,0-1.234.375,2.546,2.546,0,0,0-.828.984V15h-1.445V6.547Z" transform="translate(992.236 4575.024)" fill="#12263f"/>
    <path id="Trazado_188149" data-name="Trazado 188149" d="M7.75,9.742H2.82v4.031H8.547V15H1.32V3.625H8.469V4.852H2.82V8.516H7.75Zm7.359,3.016a1.064,1.064,0,0,0-.441-.91,4.249,4.249,0,0,0-1.539-.559,7.277,7.277,0,0,1-1.742-.562,2.479,2.479,0,0,1-.953-.781,1.869,1.869,0,0,1-.309-1.078A2.193,2.193,0,0,1,11,7.109a3.432,3.432,0,0,1,2.246-.719,3.532,3.532,0,0,1,2.332.742,2.357,2.357,0,0,1,.895,1.9H15.023a1.3,1.3,0,0,0-.5-1.023,1.888,1.888,0,0,0-1.27-.43,1.976,1.976,0,0,0-1.234.344,1.082,1.082,0,0,0-.445.9.877.877,0,0,0,.414.789,5.1,5.1,0,0,0,1.5.508,7.8,7.8,0,0,1,1.754.578,2.558,2.558,0,0,1,1,.809,1.988,1.988,0,0,1,.324,1.152,2.163,2.163,0,0,1-.906,1.816,3.8,3.8,0,0,1-2.352.684,4.257,4.257,0,0,1-1.8-.359,2.922,2.922,0,0,1-1.223-1A2.42,2.42,0,0,1,9.836,12.4h1.445a1.5,1.5,0,0,0,.582,1.152,2.258,2.258,0,0,0,1.434.426,2.331,2.331,0,0,0,1.316-.332A1.02,1.02,0,0,0,15.109,12.758Zm6.836,2.4a3.693,3.693,0,0,1-2.8-1.129,4.19,4.19,0,0,1-1.078-3.02v-.266a5.073,5.073,0,0,1,.48-2.246,3.748,3.748,0,0,1,1.344-1.547,3.378,3.378,0,0,1,1.871-.559,3.166,3.166,0,0,1,2.563,1.086,4.7,4.7,0,0,1,.914,3.109v.6H19.516a3,3,0,0,0,.73,2.02,2.3,2.3,0,0,0,1.777.77,2.517,2.517,0,0,0,1.3-.312,3.259,3.259,0,0,0,.93-.828l.883.688A3.55,3.55,0,0,1,21.945,15.156Zm-.18-7.578a1.928,1.928,0,0,0-1.469.637A3.1,3.1,0,0,0,19.563,10H23.8V9.891A2.753,2.753,0,0,0,23.2,8.184,1.815,1.815,0,0,0,21.766,7.578Zm6.516-1.031.047,1.063a3.08,3.08,0,0,1,2.531-1.219q2.68,0,2.7,3.023V15H32.117V9.406A1.946,1.946,0,0,0,31.7,8.055a1.675,1.675,0,0,0-1.277-.437,2.086,2.086,0,0,0-1.234.375,2.546,2.546,0,0,0-.828.984V15H26.914V6.547Zm10.852,7.43a2.082,2.082,0,0,0,1.352-.469,1.649,1.649,0,0,0,.641-1.172h1.367a2.621,2.621,0,0,1-.5,1.383,3.293,3.293,0,0,1-1.23,1.047,3.55,3.55,0,0,1-1.629.391A3.482,3.482,0,0,1,36.387,14a4.59,4.59,0,0,1-1.02-3.152v-.242a5.089,5.089,0,0,1,.453-2.2,3.451,3.451,0,0,1,1.3-1.492,3.7,3.7,0,0,1,2-.531,3.39,3.39,0,0,1,2.363.852,3.043,3.043,0,0,1,1,2.211H41.125A1.992,1.992,0,0,0,40.5,8.105a1.932,1.932,0,0,0-1.379-.527,2.023,2.023,0,0,0-1.707.793,3.724,3.724,0,0,0-.605,2.293v.273a3.65,3.65,0,0,0,.6,2.25A2.033,2.033,0,0,0,39.133,13.977ZM45.688,15H44.242V6.547h1.445ZM44.125,4.3a.863.863,0,0,1,.215-.594.807.807,0,0,1,.637-.242.819.819,0,0,1,.641.242.854.854,0,0,1,.219.594.826.826,0,0,1-.219.586.834.834,0,0,1-.641.234.821.821,0,0,1-.637-.234A.834.834,0,0,1,44.125,4.3ZM53.219,15a3.036,3.036,0,0,1-.2-.891,3.225,3.225,0,0,1-2.406,1.047,2.984,2.984,0,0,1-2.051-.707,2.287,2.287,0,0,1-.8-1.793,2.39,2.39,0,0,1,1-2.051,4.733,4.733,0,0,1,2.824-.73h1.406V9.211A1.623,1.623,0,0,0,52.539,8,1.821,1.821,0,0,0,51.2,7.555a2.107,2.107,0,0,0-1.3.391,1.151,1.151,0,0,0-.523.945H47.93a2,2,0,0,1,.449-1.223A3.066,3.066,0,0,1,49.6,6.734a4.1,4.1,0,0,1,1.691-.344,3.342,3.342,0,0,1,2.289.73,2.635,2.635,0,0,1,.859,2.012v3.891a4.757,4.757,0,0,0,.3,1.852V15Zm-2.4-1.1a2.54,2.54,0,0,0,1.289-.352,2.127,2.127,0,0,0,.883-.914V10.9H51.859q-2.656,0-2.656,1.555a1.316,1.316,0,0,0,.453,1.063A1.742,1.742,0,0,0,50.82,13.9Zm9.492-3.2a4.952,4.952,0,0,1,.922-3.129A3.137,3.137,0,0,1,66,7.406V3h1.445V15H66.117l-.07-.906a2.943,2.943,0,0,1-2.414,1.063,2.887,2.887,0,0,1-2.395-1.2,5.008,5.008,0,0,1-.926-3.141Zm1.445.164a3.749,3.749,0,0,0,.594,2.25,1.92,1.92,0,0,0,1.641.813A2.108,2.108,0,0,0,66,12.7V8.813a2.125,2.125,0,0,0-1.992-1.2,1.929,1.929,0,0,0-1.656.82A4.128,4.128,0,0,0,61.758,10.867ZM73.2,15.156a3.693,3.693,0,0,1-2.8-1.129,4.19,4.19,0,0,1-1.078-3.02v-.266A5.073,5.073,0,0,1,69.8,8.5a3.748,3.748,0,0,1,1.344-1.547,3.378,3.378,0,0,1,1.871-.559,3.166,3.166,0,0,1,2.563,1.086,4.7,4.7,0,0,1,.914,3.109v.6H70.766a3,3,0,0,0,.73,2.02,2.3,2.3,0,0,0,1.777.77,2.517,2.517,0,0,0,1.3-.312,3.259,3.259,0,0,0,.93-.828l.883.688A3.55,3.55,0,0,1,73.2,15.156Zm-.18-7.578a1.928,1.928,0,0,0-1.469.637A3.1,3.1,0,0,0,70.813,10h4.234V9.891a2.753,2.753,0,0,0-.594-1.707A1.815,1.815,0,0,0,73.016,7.578ZM83.7,15H82.25V3H83.7Zm7.531,0a3.036,3.036,0,0,1-.2-.891,3.225,3.225,0,0,1-2.406,1.047,2.984,2.984,0,0,1-2.051-.707,2.288,2.288,0,0,1-.8-1.793,2.39,2.39,0,0,1,1-2.051,4.733,4.733,0,0,1,2.824-.73H91V9.211A1.623,1.623,0,0,0,90.547,8a1.821,1.821,0,0,0-1.336-.449,2.108,2.108,0,0,0-1.3.391,1.151,1.151,0,0,0-.523.945H85.938a2,2,0,0,1,.449-1.223,3.066,3.066,0,0,1,1.219-.934A4.1,4.1,0,0,1,89.3,6.391a3.342,3.342,0,0,1,2.289.73,2.635,2.635,0,0,1,.859,2.012v3.891a4.757,4.757,0,0,0,.3,1.852V15Zm-2.4-1.1a2.54,2.54,0,0,0,1.289-.352A2.127,2.127,0,0,0,91,12.633V10.9H89.867q-2.656,0-2.656,1.555a1.316,1.316,0,0,0,.453,1.063A1.742,1.742,0,0,0,88.828,13.9Zm9.461-3.2a4.993,4.993,0,0,1,.488-2.234,3.643,3.643,0,0,1,1.359-1.531,3.7,3.7,0,0,1,1.988-.539,3.565,3.565,0,0,1,2.793,1.2,4.6,4.6,0,0,1,1.066,3.18v.1a5.036,5.036,0,0,1-.473,2.215,3.589,3.589,0,0,1-1.352,1.527,3.743,3.743,0,0,1-2.02.547,3.556,3.556,0,0,1-2.785-1.2A4.575,4.575,0,0,1,98.289,10.8Zm1.453.172a3.616,3.616,0,0,0,.652,2.258,2.211,2.211,0,0,0,3.5-.012,3.955,3.955,0,0,0,.648-2.418,3.61,3.61,0,0,0-.66-2.254,2.1,2.1,0,0,0-1.754-.863,2.075,2.075,0,0,0-1.727.852A3.925,3.925,0,0,0,99.742,10.867Zm12.141-3.023a4.331,4.331,0,0,0-.711-.055A1.9,1.9,0,0,0,109.242,9v6H107.8V6.547H109.2l.023.977a2.251,2.251,0,0,1,2.016-1.133,1.477,1.477,0,0,1,.641.109Zm.836,2.859a4.968,4.968,0,0,1,.914-3.145,3.151,3.151,0,0,1,4.836-.074l.07-.937h1.32V14.8a3.439,3.439,0,0,1-.973,2.586,3.589,3.589,0,0,1-2.613.945,4.348,4.348,0,0,1-1.789-.391,3.08,3.08,0,0,1-1.336-1.07L113.9,16a2.826,2.826,0,0,0,2.273,1.148,2.214,2.214,0,0,0,1.645-.594,2.269,2.269,0,0,0,.59-1.672v-.727a2.971,2.971,0,0,1-2.367,1,2.887,2.887,0,0,1-2.4-1.2A5.224,5.224,0,0,1,112.719,10.7Zm1.453.164a3.79,3.79,0,0,0,.586,2.246,1.9,1.9,0,0,0,1.641.816,2.117,2.117,0,0,0,2.008-1.242V8.828a2.142,2.142,0,0,0-1.992-1.211,1.921,1.921,0,0,0-1.648.82A4.128,4.128,0,0,0,114.172,10.867ZM127.258,15a3.036,3.036,0,0,1-.2-.891,3.225,3.225,0,0,1-2.406,1.047,2.984,2.984,0,0,1-2.051-.707,2.288,2.288,0,0,1-.8-1.793,2.39,2.39,0,0,1,1-2.051,4.733,4.733,0,0,1,2.824-.73h1.406V9.211A1.623,1.623,0,0,0,126.578,8a1.821,1.821,0,0,0-1.336-.449,2.108,2.108,0,0,0-1.3.391,1.151,1.151,0,0,0-.523.945h-1.453a2,2,0,0,1,.449-1.223,3.066,3.066,0,0,1,1.219-.934,4.1,4.1,0,0,1,1.691-.344,3.342,3.342,0,0,1,2.289.73,2.635,2.635,0,0,1,.859,2.012v3.891a4.757,4.757,0,0,0,.3,1.852V15Zm-2.4-1.1a2.54,2.54,0,0,0,1.289-.352,2.127,2.127,0,0,0,.883-.914V10.9H125.9q-2.656,0-2.656,1.555a1.316,1.316,0,0,0,.453,1.063A1.742,1.742,0,0,0,124.859,13.9Zm7.25-7.352.047,1.063a3.08,3.08,0,0,1,2.531-1.219q2.68,0,2.7,3.023V15h-1.445V9.406a1.946,1.946,0,0,0-.418-1.352,1.675,1.675,0,0,0-1.277-.437,2.086,2.086,0,0,0-1.234.375,2.546,2.546,0,0,0-.828.984V15h-1.445V6.547ZM141.141,15H139.7V6.547h1.445ZM139.578,4.3a.863.863,0,0,1,.215-.594.807.807,0,0,1,.637-.242.819.819,0,0,1,.641.242.854.854,0,0,1,.219.594.826.826,0,0,1-.219.586.834.834,0,0,1-.641.234.821.821,0,0,1-.637-.234A.834.834,0,0,1,139.578,4.3Zm5.234,9.516h4.945V15h-6.711V13.938l4.664-6.2h-4.594v-1.2h6.406V7.57ZM156.6,15a3.036,3.036,0,0,1-.2-.891,3.225,3.225,0,0,1-2.406,1.047,2.984,2.984,0,0,1-2.051-.707,2.287,2.287,0,0,1-.8-1.793,2.39,2.39,0,0,1,1-2.051,4.733,4.733,0,0,1,2.824-.73h1.406V9.211A1.623,1.623,0,0,0,155.922,8a1.821,1.821,0,0,0-1.336-.449,2.107,2.107,0,0,0-1.3.391,1.151,1.151,0,0,0-.523.945h-1.453a2,2,0,0,1,.449-1.223,3.066,3.066,0,0,1,1.219-.934,4.1,4.1,0,0,1,1.691-.344,3.342,3.342,0,0,1,2.289.73,2.635,2.635,0,0,1,.859,2.012v3.891a4.757,4.757,0,0,0,.3,1.852V15Zm-2.4-1.1a2.54,2.54,0,0,0,1.289-.352,2.127,2.127,0,0,0,.883-.914V10.9h-1.133q-2.656,0-2.656,1.555a1.316,1.316,0,0,0,.453,1.063A1.742,1.742,0,0,0,154.2,13.9Zm9.273.078a2.082,2.082,0,0,0,1.352-.469,1.649,1.649,0,0,0,.641-1.172h1.367a2.621,2.621,0,0,1-.5,1.383,3.293,3.293,0,0,1-1.23,1.047,3.55,3.55,0,0,1-1.629.391A3.482,3.482,0,0,1,160.73,14a4.59,4.59,0,0,1-1.02-3.152v-.242a5.089,5.089,0,0,1,.453-2.2,3.451,3.451,0,0,1,1.3-1.492,3.7,3.7,0,0,1,2-.531,3.39,3.39,0,0,1,2.363.852,3.043,3.043,0,0,1,1,2.211h-1.367a1.992,1.992,0,0,0-.621-1.348,1.932,1.932,0,0,0-1.379-.527,2.023,2.023,0,0,0-1.707.793,3.724,3.724,0,0,0-.605,2.293v.273a3.65,3.65,0,0,0,.6,2.25A2.033,2.033,0,0,0,163.477,13.977ZM170.031,15h-1.445V6.547h1.445ZM168.469,4.3a.863.863,0,0,1,.215-.594.807.807,0,0,1,.637-.242.819.819,0,0,1,.641.242.854.854,0,0,1,.219.594.826.826,0,0,1-.219.586.834.834,0,0,1-.641.234.821.821,0,0,1-.637-.234A.834.834,0,0,1,168.469,4.3Zm3.492,6.391a4.993,4.993,0,0,1,.488-2.234,3.642,3.642,0,0,1,1.359-1.531,3.7,3.7,0,0,1,1.988-.539,3.565,3.565,0,0,1,2.793,1.2,4.6,4.6,0,0,1,1.066,3.18v.1a5.036,5.036,0,0,1-.473,2.215,3.589,3.589,0,0,1-1.352,1.527,3.743,3.743,0,0,1-2.02.547,3.556,3.556,0,0,1-2.785-1.2,4.575,4.575,0,0,1-1.066-3.164Zm1.453.172a3.616,3.616,0,0,0,.652,2.258,2.211,2.211,0,0,0,3.5-.012,3.954,3.954,0,0,0,.648-2.418,3.61,3.61,0,0,0-.66-2.254,2.1,2.1,0,0,0-1.754-.863,2.075,2.075,0,0,0-1.727.852A3.925,3.925,0,0,0,173.414,10.867Zm3.039-7.852h1.75l-2.094,2.3-1.164,0Zm6.383,3.531.047,1.063a3.08,3.08,0,0,1,2.531-1.219q2.68,0,2.7,3.023V15h-1.445V9.406a1.946,1.946,0,0,0-.418-1.352,1.675,1.675,0,0,0-1.277-.437,2.086,2.086,0,0,0-1.234.375,2.546,2.546,0,0,0-.828.984V15h-1.445V6.547Z" transform="translate(995.236 4468)" fill="#12263f"/>
    <path id="Trazado_188137" data-name="Trazado 188137" d="M7.6,12.023H2.836L1.766,15H.219L4.563,3.625H5.875L10.227,15H8.688ZM3.289,10.8H7.156L5.219,5.477Zm11.633,3.18a2.082,2.082,0,0,0,1.352-.469,1.649,1.649,0,0,0,.641-1.172h1.367a2.621,2.621,0,0,1-.5,1.383,3.293,3.293,0,0,1-1.23,1.047,3.55,3.55,0,0,1-1.629.391A3.482,3.482,0,0,1,12.176,14a4.59,4.59,0,0,1-1.02-3.152v-.242a5.089,5.089,0,0,1,.453-2.2,3.451,3.451,0,0,1,1.3-1.492,3.7,3.7,0,0,1,2-.531,3.39,3.39,0,0,1,2.363.852,3.043,3.043,0,0,1,1,2.211H16.914a1.992,1.992,0,0,0-.621-1.348,1.932,1.932,0,0,0-1.379-.527,2.023,2.023,0,0,0-1.707.793,3.724,3.724,0,0,0-.605,2.293v.273a3.65,3.65,0,0,0,.6,2.25A2.033,2.033,0,0,0,14.922,13.977Zm8.375,0a2.082,2.082,0,0,0,1.352-.469,1.649,1.649,0,0,0,.641-1.172h1.367a2.621,2.621,0,0,1-.5,1.383,3.293,3.293,0,0,1-1.23,1.047,3.55,3.55,0,0,1-1.629.391A3.482,3.482,0,0,1,20.551,14a4.59,4.59,0,0,1-1.02-3.152v-.242a5.089,5.089,0,0,1,.453-2.2,3.451,3.451,0,0,1,1.3-1.492,3.7,3.7,0,0,1,2-.531,3.39,3.39,0,0,1,2.363.852,3.043,3.043,0,0,1,1,2.211H25.289a1.992,1.992,0,0,0-.621-1.348,1.932,1.932,0,0,0-1.379-.527,2.023,2.023,0,0,0-1.707.793,3.724,3.724,0,0,0-.605,2.293v.273a3.65,3.65,0,0,0,.6,2.25A2.033,2.033,0,0,0,23.3,13.977ZM29.852,15H28.406V6.547h1.445ZM28.289,4.3a.863.863,0,0,1,.215-.594.807.807,0,0,1,.637-.242.819.819,0,0,1,.641.242A.854.854,0,0,1,30,4.3a.826.826,0,0,1-.219.586.834.834,0,0,1-.641.234.821.821,0,0,1-.637-.234A.834.834,0,0,1,28.289,4.3ZM31.781,10.7a4.993,4.993,0,0,1,.488-2.234A3.643,3.643,0,0,1,33.629,6.93a3.7,3.7,0,0,1,1.988-.539,3.565,3.565,0,0,1,2.793,1.2,4.6,4.6,0,0,1,1.066,3.18v.1A5.036,5.036,0,0,1,39,13.082a3.589,3.589,0,0,1-1.352,1.527,3.743,3.743,0,0,1-2.02.547,3.556,3.556,0,0,1-2.785-1.2A4.575,4.575,0,0,1,31.781,10.8Zm1.453.172a3.616,3.616,0,0,0,.652,2.258,2.211,2.211,0,0,0,3.5-.012,3.955,3.955,0,0,0,.648-2.418,3.61,3.61,0,0,0-.66-2.254,2.1,2.1,0,0,0-1.754-.863,2.075,2.075,0,0,0-1.727.852A3.925,3.925,0,0,0,33.234,10.867Zm9.422-4.32L42.7,7.609a3.08,3.08,0,0,1,2.531-1.219q2.68,0,2.7,3.023V15H46.492V9.406a1.946,1.946,0,0,0-.418-1.352A1.675,1.675,0,0,0,44.8,7.617a2.086,2.086,0,0,0-1.234.375,2.546,2.546,0,0,0-.828.984V15H41.289V6.547Zm10.969,8.609a3.693,3.693,0,0,1-2.8-1.129,4.19,4.19,0,0,1-1.078-3.02v-.266A5.073,5.073,0,0,1,50.23,8.5a3.748,3.748,0,0,1,1.344-1.547,3.378,3.378,0,0,1,1.871-.559,3.166,3.166,0,0,1,2.563,1.086,4.7,4.7,0,0,1,.914,3.109v.6H51.2a3,3,0,0,0,.73,2.02,2.3,2.3,0,0,0,1.777.77,2.517,2.517,0,0,0,1.3-.312,3.259,3.259,0,0,0,.93-.828l.883.688A3.55,3.55,0,0,1,53.625,15.156Zm-.18-7.578a1.928,1.928,0,0,0-1.469.637A3.1,3.1,0,0,0,51.242,10h4.234V9.891a2.753,2.753,0,0,0-.594-1.707A1.815,1.815,0,0,0,53.445,7.578Zm10.07,5.18a1.064,1.064,0,0,0-.441-.91,4.249,4.249,0,0,0-1.539-.559,7.277,7.277,0,0,1-1.742-.562,2.479,2.479,0,0,1-.953-.781,1.869,1.869,0,0,1-.309-1.078,2.193,2.193,0,0,1,.879-1.758,3.432,3.432,0,0,1,2.246-.719,3.532,3.532,0,0,1,2.332.742,2.357,2.357,0,0,1,.895,1.9H63.43a1.3,1.3,0,0,0-.5-1.023,1.888,1.888,0,0,0-1.27-.43,1.976,1.976,0,0,0-1.234.344,1.082,1.082,0,0,0-.445.9.877.877,0,0,0,.414.789,5.1,5.1,0,0,0,1.5.508,7.8,7.8,0,0,1,1.754.578,2.558,2.558,0,0,1,1,.809,1.988,1.988,0,0,1,.324,1.152,2.163,2.163,0,0,1-.906,1.816,3.8,3.8,0,0,1-2.352.684,4.257,4.257,0,0,1-1.8-.359,2.922,2.922,0,0,1-1.223-1,2.42,2.42,0,0,1-.441-1.395h1.445a1.5,1.5,0,0,0,.582,1.152,2.258,2.258,0,0,0,1.434.426,2.331,2.331,0,0,0,1.316-.332A1.02,1.02,0,0,0,63.516,12.758Zm10.055.125,1.969-6.336h1.547l-3.4,9.758q-.789,2.109-2.508,2.109l-.273-.023-.539-.1V17.117l.391.031a1.923,1.923,0,0,0,1.145-.3,2.149,2.149,0,0,0,.676-1.086l.32-.859L69.883,6.547h1.578ZM4.484,31.977a2.082,2.082,0,0,0,1.352-.469,1.649,1.649,0,0,0,.641-1.172H7.844a2.621,2.621,0,0,1-.5,1.383,3.293,3.293,0,0,1-1.23,1.047,3.55,3.55,0,0,1-1.629.391A3.482,3.482,0,0,1,1.738,32a4.59,4.59,0,0,1-1.02-3.152v-.242a5.089,5.089,0,0,1,.453-2.2,3.451,3.451,0,0,1,1.3-1.492,3.7,3.7,0,0,1,2-.531,3.39,3.39,0,0,1,2.363.852,3.043,3.043,0,0,1,1,2.211H6.477a1.992,1.992,0,0,0-.621-1.348,1.932,1.932,0,0,0-1.379-.527,2.023,2.023,0,0,0-1.707.793,3.724,3.724,0,0,0-.605,2.293v.273a3.65,3.65,0,0,0,.6,2.25A2.033,2.033,0,0,0,4.484,31.977Zm4.6-3.281a4.993,4.993,0,0,1,.488-2.234,3.643,3.643,0,0,1,1.359-1.531,3.7,3.7,0,0,1,1.988-.539,3.565,3.565,0,0,1,2.793,1.2,4.6,4.6,0,0,1,1.066,3.18v.1a5.036,5.036,0,0,1-.473,2.215,3.589,3.589,0,0,1-1.352,1.527,3.743,3.743,0,0,1-2.02.547,3.556,3.556,0,0,1-2.785-1.2A4.575,4.575,0,0,1,9.086,28.8Zm1.453.172a3.616,3.616,0,0,0,.652,2.258,2.211,2.211,0,0,0,3.5-.012,3.955,3.955,0,0,0,.648-2.418,3.61,3.61,0,0,0-.66-2.254,2.1,2.1,0,0,0-1.754-.863,2.075,2.075,0,0,0-1.727.852A3.925,3.925,0,0,0,10.539,28.867Zm9.414-4.32.039.938A3.122,3.122,0,0,1,22.5,24.391a2.417,2.417,0,0,1,2.414,1.359,3.2,3.2,0,0,1,1.1-.984,3.242,3.242,0,0,1,1.6-.375q2.781,0,2.828,2.945V33H28.992V27.422a1.941,1.941,0,0,0-.414-1.355,1.823,1.823,0,0,0-1.391-.449,1.916,1.916,0,0,0-1.336.48,1.949,1.949,0,0,0-.617,1.293V33H23.781V27.461a1.613,1.613,0,0,0-1.8-1.844,1.934,1.934,0,0,0-1.945,1.211V33H18.586V24.547Zm19.8,4.32a5.062,5.062,0,0,1-.883,3.109,2.829,2.829,0,0,1-2.391,1.18,3.1,3.1,0,0,1-2.422-.977v4.07H32.617v-11.7h1.32l.07.938a2.977,2.977,0,0,1,2.453-1.094,2.882,2.882,0,0,1,2.41,1.148,5.117,5.117,0,0,1,.887,3.2ZM38.313,28.7a3.735,3.735,0,0,0-.609-2.258,1.963,1.963,0,0,0-1.672-.828,2.125,2.125,0,0,0-1.969,1.164V30.82a2.129,2.129,0,0,0,1.984,1.156,1.954,1.954,0,0,0,1.652-.824A4.077,4.077,0,0,0,38.313,28.7Zm2.9-.008a4.993,4.993,0,0,1,.488-2.234,3.643,3.643,0,0,1,1.359-1.531,3.7,3.7,0,0,1,1.988-.539,3.565,3.565,0,0,1,2.793,1.2,4.6,4.6,0,0,1,1.066,3.18v.1a5.036,5.036,0,0,1-.473,2.215,3.589,3.589,0,0,1-1.352,1.527,3.743,3.743,0,0,1-2.02.547,3.556,3.556,0,0,1-2.785-1.2A4.575,4.575,0,0,1,41.211,28.8Zm1.453.172a3.616,3.616,0,0,0,.652,2.258,2.211,2.211,0,0,0,3.5-.012,3.955,3.955,0,0,0,.648-2.418,3.61,3.61,0,0,0-.66-2.254,2.1,2.1,0,0,0-1.754-.863,2.075,2.075,0,0,0-1.727.852A3.925,3.925,0,0,0,42.664,28.867ZM54.8,25.844a4.331,4.331,0,0,0-.711-.055A1.9,1.9,0,0,0,52.164,27v6H50.719V24.547h1.406l.023.977a2.251,2.251,0,0,1,2.016-1.133,1.477,1.477,0,0,1,.641.109Zm3.68-3.344v2.047h1.578v1.117H58.484v5.249a1.173,1.173,0,0,0,.211.763.888.888,0,0,0,.719.254,3.5,3.5,0,0,0,.688-.094V33a4.215,4.215,0,0,1-1.109.155,1.8,1.8,0,0,1-1.461-.586,2.517,2.517,0,0,1-.492-1.664V25.664H55.5V24.547h1.539V22.5ZM66.969,33a3.036,3.036,0,0,1-.2-.891,3.225,3.225,0,0,1-2.406,1.047,2.984,2.984,0,0,1-2.051-.707,2.287,2.287,0,0,1-.8-1.793,2.39,2.39,0,0,1,1-2.051,4.733,4.733,0,0,1,2.824-.73h1.406v-.664A1.623,1.623,0,0,0,66.289,26a1.821,1.821,0,0,0-1.336-.449,2.108,2.108,0,0,0-1.3.391,1.151,1.151,0,0,0-.523.945H61.68a2,2,0,0,1,.449-1.223,3.066,3.066,0,0,1,1.219-.934,4.1,4.1,0,0,1,1.691-.344,3.342,3.342,0,0,1,2.289.73,2.635,2.635,0,0,1,.859,2.012v3.891a4.757,4.757,0,0,0,.3,1.852V33Zm-2.4-1.1a2.54,2.54,0,0,0,1.289-.352,2.127,2.127,0,0,0,.883-.914V28.9H65.609q-2.656,0-2.656,1.555a1.316,1.316,0,0,0,.453,1.063A1.742,1.742,0,0,0,64.57,31.9Zm7.242-7.352.039.938a3.122,3.122,0,0,1,2.508-1.094,2.417,2.417,0,0,1,2.414,1.359,3.2,3.2,0,0,1,1.1-.984,3.242,3.242,0,0,1,1.6-.375q2.781,0,2.828,2.945V33H80.852V27.422a1.941,1.941,0,0,0-.414-1.355,1.823,1.823,0,0,0-1.391-.449,1.916,1.916,0,0,0-1.336.48,1.949,1.949,0,0,0-.617,1.293V33H75.641V27.461a1.613,1.613,0,0,0-1.8-1.844,1.934,1.934,0,0,0-1.945,1.211V33H70.445V24.547ZM86.047,33H84.6V24.547h1.445ZM84.484,22.3a.863.863,0,0,1,.215-.594.807.807,0,0,1,.637-.242.819.819,0,0,1,.641.242.854.854,0,0,1,.219.594.826.826,0,0,1-.219.586.834.834,0,0,1-.641.234.821.821,0,0,1-.637-.234A.834.834,0,0,1,84.484,22.3Zm7.383,10.852a3.693,3.693,0,0,1-2.8-1.129,4.19,4.19,0,0,1-1.078-3.02v-.266a5.073,5.073,0,0,1,.48-2.246,3.748,3.748,0,0,1,1.344-1.547,3.378,3.378,0,0,1,1.871-.559,3.166,3.166,0,0,1,2.563,1.086,4.7,4.7,0,0,1,.914,3.109v.6H89.438a3,3,0,0,0,.73,2.02,2.3,2.3,0,0,0,1.777.77,2.517,2.517,0,0,0,1.3-.312,3.259,3.259,0,0,0,.93-.828l.883.688A3.55,3.55,0,0,1,91.867,33.156Zm-.18-7.578a1.928,1.928,0,0,0-1.469.637A3.1,3.1,0,0,0,89.484,28h4.234v-.109a2.753,2.753,0,0,0-.594-1.707A1.815,1.815,0,0,0,91.688,25.578ZM98.2,24.547l.047,1.063a3.08,3.08,0,0,1,2.531-1.219q2.68,0,2.7,3.023V33h-1.445V27.406a1.946,1.946,0,0,0-.418-1.352,1.675,1.675,0,0,0-1.277-.437,2.086,2.086,0,0,0-1.234.375,2.546,2.546,0,0,0-.828.984V33H96.836V24.547Zm9.422-2.047v2.047H109.2v1.117h-1.578v5.249a1.173,1.173,0,0,0,.211.763.888.888,0,0,0,.719.254,3.5,3.5,0,0,0,.688-.094V33a4.215,4.215,0,0,1-1.109.155,1.8,1.8,0,0,1-1.461-.586,2.517,2.517,0,0,1-.492-1.664V25.664h-1.539V24.547h1.539V22.5Zm2.727,6.2a4.993,4.993,0,0,1,.488-2.234A3.643,3.643,0,0,1,112.2,24.93a3.7,3.7,0,0,1,1.988-.539,3.565,3.565,0,0,1,2.793,1.2,4.6,4.6,0,0,1,1.066,3.18v.1a5.036,5.036,0,0,1-.473,2.215,3.589,3.589,0,0,1-1.352,1.527,3.743,3.743,0,0,1-2.02.547,3.556,3.556,0,0,1-2.785-1.2,4.575,4.575,0,0,1-1.066-3.164Zm1.453.172a3.616,3.616,0,0,0,.652,2.258,2.211,2.211,0,0,0,3.5-.012A3.955,3.955,0,0,0,116.6,28.7a3.61,3.61,0,0,0-.66-2.254,2.1,2.1,0,0,0-1.754-.863,2.075,2.075,0,0,0-1.727.852A3.925,3.925,0,0,0,111.8,28.867Zm12.977,1.891a1.064,1.064,0,0,0-.441-.91,4.249,4.249,0,0,0-1.539-.559,7.277,7.277,0,0,1-1.742-.562,2.478,2.478,0,0,1-.953-.781,1.869,1.869,0,0,1-.309-1.078,2.193,2.193,0,0,1,.879-1.758,3.432,3.432,0,0,1,2.246-.719,3.532,3.532,0,0,1,2.332.742,2.357,2.357,0,0,1,.895,1.9H124.7a1.3,1.3,0,0,0-.5-1.023,1.888,1.888,0,0,0-1.27-.43,1.976,1.976,0,0,0-1.234.344,1.082,1.082,0,0,0-.445.9.877.877,0,0,0,.414.789,5.1,5.1,0,0,0,1.5.508,7.8,7.8,0,0,1,1.754.578,2.558,2.558,0,0,1,1,.809,1.988,1.988,0,0,1,.324,1.152,2.163,2.163,0,0,1-.906,1.816,3.8,3.8,0,0,1-2.352.684,4.257,4.257,0,0,1-1.8-.359,2.922,2.922,0,0,1-1.223-1,2.42,2.42,0,0,1-.441-1.395h1.445a1.5,1.5,0,0,0,.582,1.152,2.258,2.258,0,0,0,1.434.426,2.331,2.331,0,0,0,1.316-.332A1.02,1.02,0,0,0,124.781,30.758Z" transform="translate(992.236 4723)" fill="#12263f"/>
    <path id="Trazado_188146" data-name="Trazado 188146" d="M7.6,12.023H2.836L1.766,15H.219L4.563,3.625H5.875L10.227,15H8.688ZM3.289,10.8H7.156L5.219,5.477Zm11.633,3.18a2.082,2.082,0,0,0,1.352-.469,1.649,1.649,0,0,0,.641-1.172h1.367a2.621,2.621,0,0,1-.5,1.383,3.293,3.293,0,0,1-1.23,1.047,3.55,3.55,0,0,1-1.629.391A3.482,3.482,0,0,1,12.176,14a4.59,4.59,0,0,1-1.02-3.152v-.242a5.089,5.089,0,0,1,.453-2.2,3.451,3.451,0,0,1,1.3-1.492,3.7,3.7,0,0,1,2-.531,3.39,3.39,0,0,1,2.363.852,3.043,3.043,0,0,1,1,2.211H16.914a1.992,1.992,0,0,0-.621-1.348,1.932,1.932,0,0,0-1.379-.527,2.023,2.023,0,0,0-1.707.793,3.724,3.724,0,0,0-.605,2.293v.273a3.65,3.65,0,0,0,.6,2.25A2.033,2.033,0,0,0,14.922,13.977Zm8.375,0a2.082,2.082,0,0,0,1.352-.469,1.649,1.649,0,0,0,.641-1.172h1.367a2.621,2.621,0,0,1-.5,1.383,3.293,3.293,0,0,1-1.23,1.047,3.55,3.55,0,0,1-1.629.391A3.482,3.482,0,0,1,20.551,14a4.59,4.59,0,0,1-1.02-3.152v-.242a5.089,5.089,0,0,1,.453-2.2,3.451,3.451,0,0,1,1.3-1.492,3.7,3.7,0,0,1,2-.531,3.39,3.39,0,0,1,2.363.852,3.043,3.043,0,0,1,1,2.211H25.289a1.992,1.992,0,0,0-.621-1.348,1.932,1.932,0,0,0-1.379-.527,2.023,2.023,0,0,0-1.707.793,3.724,3.724,0,0,0-.605,2.293v.273a3.65,3.65,0,0,0,.6,2.25A2.033,2.033,0,0,0,23.3,13.977ZM29.852,15H28.406V6.547h1.445ZM28.289,4.3a.863.863,0,0,1,.215-.594.807.807,0,0,1,.637-.242.819.819,0,0,1,.641.242A.854.854,0,0,1,30,4.3a.826.826,0,0,1-.219.586.834.834,0,0,1-.641.234.821.821,0,0,1-.637-.234A.834.834,0,0,1,28.289,4.3ZM31.781,10.7a4.993,4.993,0,0,1,.488-2.234A3.643,3.643,0,0,1,33.629,6.93a3.7,3.7,0,0,1,1.988-.539,3.565,3.565,0,0,1,2.793,1.2,4.6,4.6,0,0,1,1.066,3.18v.1A5.036,5.036,0,0,1,39,13.082a3.589,3.589,0,0,1-1.352,1.527,3.743,3.743,0,0,1-2.02.547,3.556,3.556,0,0,1-2.785-1.2A4.575,4.575,0,0,1,31.781,10.8Zm1.453.172a3.616,3.616,0,0,0,.652,2.258,2.211,2.211,0,0,0,3.5-.012,3.955,3.955,0,0,0,.648-2.418,3.61,3.61,0,0,0-.66-2.254,2.1,2.1,0,0,0-1.754-.863,2.075,2.075,0,0,0-1.727.852A3.925,3.925,0,0,0,33.234,10.867Zm3.039-7.852h1.75l-2.094,2.3-1.164,0Zm6.383,3.531L42.7,7.609a3.08,3.08,0,0,1,2.531-1.219q2.68,0,2.7,3.023V15H46.492V9.406a1.946,1.946,0,0,0-.418-1.352A1.675,1.675,0,0,0,44.8,7.617a2.086,2.086,0,0,0-1.234.375,2.546,2.546,0,0,0-.828.984V15H41.289V6.547Z" transform="translate(992.236 4600.976)" fill="#12263f"/>
    <path id="Trazado_188138" data-name="Trazado 188138" d="M28.2,13.827,31.1,4.2h2.936L29.577,17H26.826L22.388,4.2h2.927ZM40.177,17a2.821,2.821,0,0,1-.255-.853,3.073,3.073,0,0,1-2.4,1.028,3.376,3.376,0,0,1-2.316-.809,2.6,2.6,0,0,1-.918-2.039,2.687,2.687,0,0,1,1.121-2.32,5.529,5.529,0,0,1,3.239-.817h1.169v-.545a1.567,1.567,0,0,0-.338-1.055,1.331,1.331,0,0,0-1.068-.4A1.513,1.513,0,0,0,37.4,9.5a1.045,1.045,0,0,0-.365.844H34.5a2.551,2.551,0,0,1,.51-1.529,3.37,3.37,0,0,1,1.441-1.1,5.253,5.253,0,0,1,2.092-.4,4.15,4.15,0,0,1,2.791.883,3.09,3.09,0,0,1,1.033,2.483V14.8a4.546,4.546,0,0,0,.378,2.048V17Zm-2.1-1.767a2.188,2.188,0,0,0,1.037-.25,1.645,1.645,0,0,0,.7-.672V12.676h-.949q-1.907,0-2.03,1.318l-.009.149a1.017,1.017,0,0,0,.334.782A1.3,1.3,0,0,0,38.076,15.233ZM47,17H44.448V3.5H47Zm1.7-4.843a5.64,5.64,0,0,1,.545-2.522,3.989,3.989,0,0,1,1.569-1.714,4.577,4.577,0,0,1,2.377-.606,4.33,4.33,0,0,1,3.142,1.178,4.727,4.727,0,0,1,1.358,3.2l.018.65a4.97,4.97,0,0,1-1.222,3.511,4.735,4.735,0,0,1-6.561,0,5.058,5.058,0,0,1-1.226-3.586Zm2.54.18a3.555,3.555,0,0,0,.51,2.073,1.831,1.831,0,0,0,2.9.009,3.89,3.89,0,0,0,.519-2.267,3.519,3.519,0,0,0-.519-2.06,1.686,1.686,0,0,0-1.459-.731,1.658,1.658,0,0,0-1.441.726A3.955,3.955,0,0,0,51.233,12.338ZM64.61,9.872A6.9,6.9,0,0,0,63.7,9.8a1.86,1.86,0,0,0-1.89.976V17h-2.54V7.49h2.4l.07,1.134a2.354,2.354,0,0,1,2.118-1.31,2.662,2.662,0,0,1,.791.114Zm5.432,7.3a4.668,4.668,0,0,1-3.406-1.283,4.561,4.561,0,0,1-1.314-3.419v-.246a5.745,5.745,0,0,1,.554-2.562,4.064,4.064,0,0,1,1.569-1.74,4.4,4.4,0,0,1,2.316-.611,3.947,3.947,0,0,1,3.072,1.23,5,5,0,0,1,1.121,3.489v1.037H67.9a2.36,2.36,0,0,0,.743,1.494,2.245,2.245,0,0,0,1.569.563A2.742,2.742,0,0,0,72.5,14.064l1.248,1.4A3.813,3.813,0,0,1,72.2,16.723,5.075,5.075,0,0,1,70.042,17.176Zm-.29-7.813a1.587,1.587,0,0,0-1.226.512,2.651,2.651,0,0,0-.6,1.466h3.533v-.2A1.891,1.891,0,0,0,71,9.826,1.638,1.638,0,0,0,69.752,9.362Zm10.793,5.01a.818.818,0,0,0-.461-.734,5.241,5.241,0,0,0-1.481-.479q-3.393-.712-3.393-2.883a2.613,2.613,0,0,1,1.05-2.114,4.237,4.237,0,0,1,2.747-.848,4.56,4.56,0,0,1,2.9.853,2.687,2.687,0,0,1,1.085,2.215h-2.54a1.229,1.229,0,0,0-.352-.9A1.488,1.488,0,0,0,79,9.125a1.52,1.52,0,0,0-.993.29.916.916,0,0,0-.352.738.783.783,0,0,0,.4.681,4.114,4.114,0,0,0,1.349.448,11.019,11.019,0,0,1,1.6.426,2.628,2.628,0,0,1,2.013,2.558,2.481,2.481,0,0,1-1.116,2.1,4.815,4.815,0,0,1-2.883.8,5.029,5.029,0,0,1-2.123-.426,3.561,3.561,0,0,1-1.455-1.169,2.716,2.716,0,0,1-.527-1.6h2.408a1.326,1.326,0,0,0,.5,1.037,1.987,1.987,0,0,0,1.248.36,1.839,1.839,0,0,0,1.1-.277A.861.861,0,0,0,80.545,14.372Z" transform="translate(697 4719)" fill="#12263f"/>
    <g id="Trazado_188152" data-name="Trazado 188152" transform="translate(976.38 4444.63)" fill="none">
      <path d="M6,0A6,6,0,1,1,0,6,6,6,0,0,1,6,0Z" stroke="none"/>
      <path d="M 6 4 C 4.897200107574463 4 4 4.897200107574463 4 6 C 4 7.102799892425537 4.897200107574463 8 6 8 C 7.102799892425537 8 8 7.102799892425537 8 6 C 8 4.897200107574463 7.102799892425537 4 6 4 M 6 0 C 9.31371021270752 0 12 2.68628978729248 12 6 C 12 9.31371021270752 9.31371021270752 12 6 12 C 2.68628978729248 12 0 9.31371021270752 0 6 C 0 2.68628978729248 2.68628978729248 0 6 0 Z" stroke="none" fill="#ff8900"/>
    </g>
    <g id="Trazado_188139" data-name="Trazado 188139" transform="translate(975 4699.63)" fill="none">
      <path d="M6,0A6,6,0,1,1,0,6,6,6,0,0,1,6,0Z" stroke="none"/>
      <path d="M 6 4 C 4.897200107574463 4 4 4.897200107574463 4 6 C 4 7.102799892425537 4.897200107574463 8 6 8 C 7.102799892425537 8 8 7.102799892425537 8 6 C 8 4.897200107574463 7.102799892425537 4 6 4 M 6 0 C 9.31371021270752 0 12 2.68628978729248 12 6 C 12 9.31371021270752 9.31371021270752 12 6 12 C 2.68628978729248 12 0 9.31371021270752 0 6 C 0 2.68628978729248 2.68628978729248 0 6 0 Z" stroke="none" fill="#ff8900"/>
    </g>
    <g id="Trazado_188147" data-name="Trazado 188147" transform="translate(976.38 4578.654)" fill="none">
      <path d="M6,0A6,6,0,1,1,0,6,6,6,0,0,1,6,0Z" stroke="none"/>
      <path d="M 6 4 C 4.897200107574463 4 4 4.897200107574463 4 6 C 4 7.102799892425537 4.897200107574463 8 6 8 C 7.102799892425537 8 8 7.102799892425537 8 6 C 8 4.897200107574463 7.102799892425537 4 6 4 M 6 0 C 9.31371021270752 0 12 2.68628978729248 12 6 C 12 9.31371021270752 9.31371021270752 12 6 12 C 2.68628978729248 12 0 9.31371021270752 0 6 C 0 2.68628978729248 2.68628978729248 0 6 0 Z" stroke="none" fill="#ff8900"/>
    </g>
    <g id="Trazado_188150" data-name="Trazado 188150" transform="translate(976.236 4472)" fill="none">
      <path d="M6,0A6,6,0,1,1,0,6,6,6,0,0,1,6,0Z" stroke="none"/>
      <path d="M 6 4 C 4.897200107574463 4 4 4.897200107574463 4 6 C 4 7.102799892425537 4.897200107574463 8 6 8 C 7.102799892425537 8 8 7.102799892425537 8 6 C 8 4.897200107574463 7.102799892425537 4 6 4 M 6 0 C 9.31371021270752 0 12 2.68628978729248 12 6 C 12 9.31371021270752 9.31371021270752 12 6 12 C 2.68628978729248 12 0 9.31371021270752 0 6 C 0 2.68628978729248 2.68628978729248 0 6 0 Z" stroke="none" fill="#ff8900"/>
    </g>
    <g id="Trazado_188140" data-name="Trazado 188140" transform="translate(975 4727)" fill="none">
      <path d="M6,0A6,6,0,1,1,0,6,6,6,0,0,1,6,0Z" stroke="none"/>
      <path d="M 6 4 C 4.897200107574463 4 4 4.897200107574463 4 6 C 4 7.102799892425537 4.897200107574463 8 6 8 C 7.102799892425537 8 8 7.102799892425537 8 6 C 8 4.897200107574463 7.102799892425537 4 6 4 M 6 0 C 9.31371021270752 0 12 2.68628978729248 12 6 C 12 9.31371021270752 9.31371021270752 12 6 12 C 2.68628978729248 12 0 9.31371021270752 0 6 C 0 2.68628978729248 2.68628978729248 0 6 0 Z" stroke="none" fill="#ff8900"/>
    </g>
    <g id="Trazado_188148" data-name="Trazado 188148" transform="translate(976.236 4604.976)" fill="none">
      <path d="M6,0A6,6,0,1,1,0,6,6,6,0,0,1,6,0Z" stroke="none"/>
      <path d="M 6 4 C 4.897200107574463 4 4 4.897200107574463 4 6 C 4 7.102799892425537 4.897200107574463 8 6 8 C 7.102799892425537 8 8 7.102799892425537 8 6 C 8 4.897200107574463 7.102799892425537 4 6 4 M 6 0 C 9.31371021270752 0 12 2.68628978729248 12 6 C 12 9.31371021270752 9.31371021270752 12 6 12 C 2.68628978729248 12 0 9.31371021270752 0 6 C 0 2.68628978729248 2.68628978729248 0 6 0 Z" stroke="none" fill="#ff8900"/>
    </g>
  </g>
</svg>
