<svg xmlns="http://www.w3.org/2000/svg" width="90.108" height="120" viewBox="0 0 90.108 120">
  <g id="Grupo_128788" data-name="Grupo 128788" transform="translate(590.681 -1438.924)">
    <path id="Trazado_187721" data-name="Trazado 187721" d="M-587.763,1452.012c-1.246-1.436-1.242-2.044.023-3.524,3.525-4.125,10.537-5.182,15.432-2.236a1.958,1.958,0,0,0,2.1.066c10.775-4.807,21.967-7.8,33.865-7.351,9.256.347,17.7,3.092,24.9,9.123,10.461,8.771,12.9,20.982,6.645,33.141-.658,1.279-1.417,2.507-2.154,3.8.321.158.664.328,1.009.5a9.461,9.461,0,0,1,1.207,16.37c-.691.469-.821.749-.452,1.526a14.746,14.746,0,0,1,1.463,6.221c.049,6.715.361,13.44-.428,20.137a29.384,29.384,0,0,1-3.6,12c-.891,1.48-1.48,1.65-3.092.986a2.248,2.248,0,0,1,.057-2.8,14.456,14.456,0,0,0,1.73-3.824,42.342,42.342,0,0,0,1.776-11.65c.133-3.731.029-7.471.029-11.338-2.415.89-4.72,1.834-7.089,2.574-1.2.375-1.46.941-1.251,2.1a36.3,36.3,0,0,1,.393,8.873,10.359,10.359,0,0,1-1.99,6.134,1.822,1.822,0,0,1-2.582.474,1.732,1.732,0,0,1-.229-2.584c1.151-1.565,1.246-3.362,1.349-5.294a26.193,26.193,0,0,1-3.063,1.455,7.171,7.171,0,0,0-3,2.122q-4.451,4.74-8.95,9.435c-1.212,1.272-2.032,1.286-3.253.062-2.013-2.019-4.01-4.054-6.027-6.069-.225-.225-.368-.612-.862-.556q0,11.435-.011,22.848c0,.614.283.686.785.685,5.194-.011,10.388-.019,15.582.007.678,0,.852-.22.842-.867-.034-2.226-.118-4.459.017-6.677s-.1-4.069-2.224-5.386a1.644,1.644,0,0,1-.4-2.632c.735-.843,1.745-.815,2.769.106a25.138,25.138,0,0,0,5.036,3.594,6.6,6.6,0,0,0,5.425.533,2.353,2.353,0,0,1,2.755.6c.246,1.763-.092,2.254-1.8,2.78a9.616,9.616,0,0,1-7.152-.4c-.265-.124-.524-.356-.92-.227,0,3.211-.034,6.435.019,9.658a2.392,2.392,0,0,1-1.219,2.422h-42.654a2.6,2.6,0,0,1-1.174-2.468c.054-3.2.019-6.4.019-9.678a2.7,2.7,0,0,0-.466.129c-5.213,2.609-10.881-.027-13.578-3.378a23.071,23.071,0,0,1-4.486-11.27c-1.229-7.876-1-15.806-.689-23.73a13.559,13.559,0,0,1,1.381-5.169c.291-.624.3-.948-.355-1.389a9.37,9.37,0,0,1-1.738-14.343,1.678,1.678,0,0,0,.488-1.548q-1.152-7.815-2.242-15.639a72.224,72.224,0,0,1-.839-13.074c.062-1.383.495-1.872,1.838-2.087a1.7,1.7,0,0,1,1.679,1.868,68.045,68.045,0,0,0,.68,11.544c.733,5.163,1.439,10.329,2.153,15.495.061.442.227.756.744.677a12.1,12.1,0,0,0,5.109-1.457,21.161,21.161,0,0,0,5.144-4.9,43.409,43.409,0,0,0,5.547-9.6c.724-1.712,1.471-2.021,3.088-1.325.642.276,1.289.539,1.933.808a6.05,6.05,0,0,0,.6.364,216.948,216.948,0,0,0,36.216,13.479,72.426,72.426,0,0,0,14.047,2.328,1.1,1.1,0,0,0,1.115-.418c3.615-4.9,5.875-10.319,5.816-16.474a20.661,20.661,0,0,0-6.369-14.654c-6.976-7.063-15.657-10.113-25.394-10.559a55.6,55.6,0,0,0-12.574.954,54.368,54.368,0,0,0-11.149,2.968,54.184,54.184,0,0,0-9.656,3.8,2.6,2.6,0,0,1-3.2-.331c-3.253-2.709-9.092-2.229-11.8.992A2.7,2.7,0,0,1-587.763,1452.012Zm10.279,59.549.018.15.1-.033-.138-.1a23.158,23.158,0,0,1-.482-8.228,42,42,0,0,1,1.263-5.911c-.968.858-1.716,1.471-2.406,2.144a15.261,15.261,0,0,0-4.616,8.609c-.071.434-.451,1.08.246,1.323A37.576,37.576,0,0,0-577.484,1511.561Zm6.784-17.8c.253-.1.515-.173.757-.292a14.676,14.676,0,0,1,14,.283,22.217,22.217,0,0,1,3.992,3.089c0-1.3.076-2.416-.013-3.517-.33-4.073-4.913-7.578-8.909-6.909a13.773,13.773,0,0,0-7.349,4.032,8.1,8.1,0,0,0-2.5,3.291l-.117.111Zm-1.775,31.661a8.609,8.609,0,0,0,1.323,5.3,1.751,1.751,0,0,1-.254,2.587,1.786,1.786,0,0,1-2.5-.41,8.033,8.033,0,0,1-1.743-3.9,35.734,35.734,0,0,1,.122-11.766c.095-.714,0-1.028-.708-1.272-2.283-.786-4.554-1.613-6.8-2.5-.873-.345-.947-.033-.955.722a111.156,111.156,0,0,0,.667,16.478c.482,3.453,1.246,6.842,3.286,9.773,2.9,4.169,7.352,5.061,11.619,2.365a24.324,24.324,0,0,0,3.619-2.772c1.032-.963,1.992-1.034,2.773-.242s.634,1.845-.412,2.837a11.565,11.565,0,0,1-1.41,1.229,1.641,1.641,0,0,0-.764,1.561c.037,2.967.048,5.935-.005,8.9-.015.858.185,1.121,1.085,1.113q7.494-.07,14.989,0c.953.009,1.244-.214,1.237-1.208-.045-7.145-.022-14.29-.033-21.435,0-.321.161-.7-.08-.908-2.25,2.185-4.491,4.349-6.718,6.528-1.352,1.322-2.156,1.34-3.439-.006-2.719-2.854-5.573-5.6-8.094-8.62C-567.528,1527.548-570.1,1526.748-572.475,1525.426Zm-6.758-30.5a31.336,31.336,0,0,1,4.339-2.682,4.252,4.252,0,0,0,1.654-1.4,20.309,20.309,0,0,1,8.712-7.05,11.141,11.141,0,0,1,12.639,2.4,11.007,11.007,0,0,1,3.537,8.025c.021.806.284,1.064,1.091,1.011a27.229,27.229,0,0,1,3.393,0c.8.048,1.028-.182,1.067-1.011a11.551,11.551,0,0,1,6.758-10.3c.324-.167.785-.147.948-.6-1.629-.554-3.248-1.094-4.861-1.656a248.781,248.781,0,0,1-23.97-9.843c-.722-.339-1.094-.428-1.477.465a33.986,33.986,0,0,1-2.8,5.122c-2.729,4.189-5.717,8.118-10.556,10.107a.687.687,0,0,0-.478.712C-579.228,1490.424-579.233,1492.632-579.233,1494.926Zm7.189,23.949c-.6,1.92-.493,2.226,1.021,3.219a18.979,18.979,0,0,0,9.816,3.033q15.633.663,31.265.009a18.655,18.655,0,0,0,9.713-2.978c1.688-1.109,1.752-1.267,1.112-3.249a.321.321,0,0,0-.108.026,14.915,14.915,0,0,1-23.389-9.755c-.082-.566-.381-.665-.879-.653a28.312,28.312,0,0,1-3.512-.018c-1.129-.115-1.474.3-1.685,1.378a14.874,14.874,0,0,1-13.9,11.808A15.212,15.212,0,0,1-572.044,1518.875Zm20.161-12.11a11.323,11.323,0,0,0-11.385-11.373,11.43,11.43,0,0,0-11.4,11.412,11.411,11.411,0,0,0,11.438,11.36A11.272,11.272,0,0,0-551.883,1506.765Zm23.85,11.4a11.33,11.33,0,0,0,11.489-11.271,11.359,11.359,0,0,0-11.27-11.5,11.373,11.373,0,0,0-11.494,11.279A11.343,11.343,0,0,0-528.033,1518.162Zm7.61-24.486a16.276,16.276,0,0,0-7.252-6.5,7.667,7.667,0,0,0-6.76-.1c-3.727,1.747-5.513,5.421-4.713,9.909a14.666,14.666,0,0,1,8.711-4.909A16.208,16.208,0,0,1-520.424,1493.676Zm6.614,18.138c2.107-.776,4.057-1.513,6.022-2.208.578-.2.482-.568.425-1.013a15.016,15.016,0,0,0-4.373-8.715,10.485,10.485,0,0,0-2.631-2.181C-513.032,1502.4-512.392,1507-513.809,1511.814Zm-15.418,16.938a119.291,119.291,0,0,0-12.135.345c1.947,1.967,3.826,3.861,5.7,5.761.262.266.465.186.686-.047C-533.106,1532.837-531.232,1530.864-529.227,1528.752Zm-32.78-.061c2.019,2.126,3.88,4.06,5.706,6.027.449.483.692.243,1.023-.1,1.473-1.506,2.966-2.993,4.435-4.5.332-.341.788-.606.94-1.179-3.858-.117-7.631-.231-11.4-.341A6.213,6.213,0,0,0-562.007,1528.692Zm50.151-33.684c0-1.547.016-2.906,0-4.265-.038-2.649-.046-2.647-2.745-2.863-.31-.025-.618-.075-.925-.118-1.9-.264-3.792-.53-5.981-.836a27.585,27.585,0,0,1,4.1,4.622,1.174,1.174,0,0,0,.455.344A34.161,34.161,0,0,1-511.857,1495.008Zm3.538-6.526c0,1.052,0,2.1,0,3.152.011,2.069.013,4.137.048,6.205.018,1.062.637,1.656,1.3,1.315a6.022,6.022,0,0,0,2.807-6A5.642,5.642,0,0,0-508.319,1488.481ZM-582.9,1493.6h.064c0-1.405-.054-2.813.018-4.214.054-1.045-.309-.977-1.045-.6a5.945,5.945,0,0,0-1.06,9.836c.372.312.8.857,1.265.645a1.536,1.536,0,0,0,.776-1.571C-582.942,1496.334-582.9,1494.966-582.9,1493.6Zm40.071,8.507c0-1.007-.02-1.828.007-2.647.018-.548-.188-.771-.746-.761-1.288.024-2.577.027-3.865,0-.608-.014-.835.218-.819.822.029,1.053.008,2.108.008,3.163,0,2.33,0,2.346,2.332,2.322.969-.01,2.208.411,2.838-.167C-542.374,1504.194-542.961,1502.914-542.831,1502.108Z" transform="translate(0)" fill="#030202"/>
    <path id="Trazado_187722" data-name="Trazado 187722" d="M-410.465,1707.476a2.353,2.353,0,0,0-2.755-.6,6.6,6.6,0,0,1-5.426-.533,25.14,25.14,0,0,1-5.036-3.594c-1.024-.921-2.034-.95-2.769-.106a1.644,1.644,0,0,0,.4,2.632c2.122,1.318,2.358,3.178,2.224,5.386s-.051,4.452-.017,6.677c.01.647-.164.87-.842.867-5.194-.026-10.388-.018-15.582-.007-.5,0-.786-.071-.785-.685q.024-11.419.011-22.848c.493-.055.637.332.862.556,2.017,2.015,4.014,4.05,6.027,6.069,1.221,1.224,2.04,1.21,3.253-.062q4.486-4.707,8.95-9.435a7.171,7.171,0,0,1,3-2.122,26.2,26.2,0,0,0,3.063-1.455c-.1,1.933-.2,3.729-1.349,5.294a1.732,1.732,0,0,0,.229,2.584,1.822,1.822,0,0,0,2.582-.474,10.36,10.36,0,0,0,1.99-6.134,36.3,36.3,0,0,0-.393-8.873c-.209-1.157.049-1.723,1.251-2.1,2.369-.74,4.674-1.684,7.089-2.574,0,3.866.1,7.606-.029,11.338a42.342,42.342,0,0,1-1.776,11.65,14.458,14.458,0,0,1-1.73,3.824,2.248,2.248,0,0,0-.057,2.8A4.53,4.53,0,0,1-410.465,1707.476Z" transform="translate(-102.767 -162.784)" fill="#a9f73f"/>
    <path id="Trazado_187723" data-name="Trazado 187723" d="M-558.583,1484.737c-.645-.269-1.292-.532-1.933-.808-1.618-.7-2.365-.386-3.088,1.325a43.409,43.409,0,0,1-5.547,9.6,21.161,21.161,0,0,1-5.144,4.9,12.1,12.1,0,0,1-5.109,1.457c-.518.079-.683-.236-.744-.677-.714-5.165-1.42-10.332-2.153-15.495a68.04,68.04,0,0,1-.68-11.544,1.7,1.7,0,0,0-1.679-1.868c.416-1.066.37-2.278,1.033-3.266a2.7,2.7,0,0,0,2.7-1.169c2.708-3.221,8.548-3.7,11.8-.992a2.6,2.6,0,0,0,3.2.331,54.155,54.155,0,0,1,9.656-3.8c.069.407-.244.643-.435.921-3.406,4.969-4.083,10.442-3.117,16.261C-559.554,1481.564-558.875,1483.1-558.583,1484.737Z" transform="translate(-4.135 -16.347)" fill="#12263f"/>
    <path id="Trazado_187724" data-name="Trazado 187724" d="M-505.011,1476.027c-.292-1.641-.971-3.173-1.246-4.829-.967-5.819-.289-11.293,3.117-16.261.191-.278.5-.514.435-.921a54.354,54.354,0,0,1,11.149-2.969,55.6,55.6,0,0,1,12.574-.954c9.737.445,18.418,3.5,25.394,10.558a20.662,20.662,0,0,1,6.369,14.654c.059,6.155-2.2,11.571-5.816,16.474a1.1,1.1,0,0,1-1.115.418,72.435,72.435,0,0,1-14.047-2.328,216.968,216.968,0,0,1-36.216-13.479A6.028,6.028,0,0,1-505.011,1476.027Z" transform="translate(-57.707 -7.637)" fill="#12263f"/>
    <path id="Trazado_187725" data-name="Trazado 187725" d="M-557.849,1688.579c2.379,1.322,4.947,2.121,6.809,4.353,2.521,3.022,5.374,5.766,8.094,8.62,1.283,1.346,2.087,1.328,3.439.006,2.227-2.178,4.468-4.343,6.718-6.528.242.212.08.586.08.908.011,7.145-.013,14.29.033,21.435.006,1-.285,1.218-1.237,1.209q-7.494-.071-14.989,0c-.9.008-1.1-.255-1.085-1.113.053-2.966.042-5.934.005-8.9a1.641,1.641,0,0,1,.764-1.561,11.543,11.543,0,0,0,1.41-1.229c1.045-.992,1.191-2.046.412-2.837s-1.741-.721-2.773.242a24.329,24.329,0,0,1-3.619,2.772c-4.267,2.7-8.718,1.8-11.619-2.365-2.04-2.931-2.8-6.32-3.286-9.773a111.136,111.136,0,0,1-.667-16.478c.007-.755.082-1.066.955-.722,2.246.887,4.517,1.714,6.8,2.5.71.245.8.559.708,1.273a35.733,35.733,0,0,0-.122,11.766,8.033,8.033,0,0,0,1.743,3.9,1.785,1.785,0,0,0,2.5.41,1.751,1.751,0,0,0,.254-2.587A8.61,8.61,0,0,1-557.849,1688.579Z" transform="translate(-14.626 -163.153)" fill="#a9f73f"/>
    <path id="Trazado_187726" data-name="Trazado 187726" d="M-554.14,1566.516c0-2.294.005-4.5-.005-6.71a.687.687,0,0,1,.478-.712c4.838-1.989,7.827-5.918,10.556-10.107a33.991,33.991,0,0,0,2.8-5.122c.383-.893.755-.8,1.477-.465a248.743,248.743,0,0,0,23.97,9.843c1.613.562,3.232,1.1,4.861,1.656-.164.454-.624.434-.948.6a11.551,11.551,0,0,0-6.758,10.3c-.039.829-.267,1.059-1.067,1.011a27.251,27.251,0,0,0-3.393,0c-.807.052-1.07-.205-1.091-1.011a11.007,11.007,0,0,0-3.537-8.025,11.141,11.141,0,0,0-12.639-2.4,20.309,20.309,0,0,0-8.712,7.05,4.252,4.252,0,0,1-1.654,1.4A31.333,31.333,0,0,0-554.14,1566.516Z" transform="translate(-25.093 -71.589)" fill="#eecea3"/>
    <path id="Trazado_187727" data-name="Trazado 187727" d="M-531.923,1671.424a15.21,15.21,0,0,0,9.456,2.819,14.874,14.874,0,0,0,13.9-11.808c.211-1.083.556-1.493,1.685-1.378a28.313,28.313,0,0,0,3.512.018c.5-.012.8.087.879.653a14.915,14.915,0,0,0,23.389,9.755.318.318,0,0,1,.108-.026c.64,1.982.575,2.139-1.112,3.248a18.655,18.655,0,0,1-9.713,2.978q-15.633.631-31.265-.009a18.979,18.979,0,0,1-9.816-3.033C-532.416,1673.651-532.526,1673.344-531.923,1671.424Z" transform="translate(-40.121 -152.549)" fill="#eecea3"/>
    <path id="Trazado_187728" data-name="Trazado 187728" d="M-516.761,1630.592a11.271,11.271,0,0,1-11.344,11.4,11.41,11.41,0,0,1-11.438-11.36,11.43,11.43,0,0,1,11.4-11.412A11.323,11.323,0,0,1-516.761,1630.592Zm-11.372,8.844a8.888,8.888,0,0,0,8.905-8.812,8.891,8.891,0,0,0-8.878-8.845,8.84,8.84,0,0,0-8.88,8.818A8.818,8.818,0,0,0-528.133,1639.436Z" transform="translate(-35.122 -123.827)" fill="#607780"/>
    <path id="Trazado_187729" data-name="Trazado 187729" d="M-415.38,1641.99a11.344,11.344,0,0,1-11.275-11.49,11.373,11.373,0,0,1,11.494-11.279,11.359,11.359,0,0,1,11.27,11.5A11.33,11.33,0,0,1-415.38,1641.99Zm8.934-11.3a8.729,8.729,0,0,0-8.746-8.907,8.752,8.752,0,0,0-8.905,8.755,8.735,8.735,0,0,0,8.752,8.9A8.726,8.726,0,0,0-406.446,1630.687Z" transform="translate(-112.653 -123.828)" fill="#607780"/>
    <path id="Trazado_187730" data-name="Trazado 187730" d="M-407.829,1597.646a16.208,16.208,0,0,0-10.013-1.6,14.666,14.666,0,0,0-8.711,4.909c-.8-4.488.986-8.162,4.713-9.909a7.667,7.667,0,0,1,6.76.1A16.276,16.276,0,0,1-407.829,1597.646Z" transform="translate(-112.594 -103.97)" fill="#475858"/>
    <path id="Trazado_187731" data-name="Trazado 187731" d="M-526.954,1597.717a8.112,8.112,0,0,1,2.5-3.29,13.773,13.773,0,0,1,7.349-4.032c4-.669,8.579,2.836,8.909,6.909.089,1.1.013,2.215.013,3.516a22.216,22.216,0,0,0-3.992-3.089,14.676,14.676,0,0,0-14-.283c-.242.118-.5.2-.757.292Z" transform="translate(-43.768 -103.974)" fill="#475858"/>
    <path id="Trazado_187732" data-name="Trazado 187732" d="M-346.462,1640.7c1.417-4.815.778-9.419-.558-14.117a10.485,10.485,0,0,1,2.631,2.181,15.016,15.016,0,0,1,4.373,8.715c.057.445.154.809-.425,1.013C-342.405,1639.184-344.355,1639.921-346.462,1640.7Z" transform="translate(-167.347 -128.883)" fill="#eecea3"/>
    <path id="Trazado_187733" data-name="Trazado 187733" d="M-562.654,1639.884a37.563,37.563,0,0,1-6.021-2.044c-.7-.243-.318-.889-.246-1.323a15.26,15.26,0,0,1,4.616-8.609c.69-.672,1.438-1.285,2.406-2.144a42,42,0,0,0-1.263,5.911,23.155,23.155,0,0,0,.482,8.228Z" transform="translate(-14.83 -128.322)" fill="#eecea3"/>
    <path id="Trazado_187734" data-name="Trazado 187734" d="M-421.076,1725.618c-2.005,2.112-3.879,4.085-5.75,6.06-.221.233-.424.313-.686.047-1.874-1.9-3.753-3.795-5.7-5.761A119.289,119.289,0,0,1-421.076,1725.618Z" transform="translate(-108.151 -196.866)" fill="#75b51d"/>
    <path id="Trazado_187735" data-name="Trazado 187735" d="M-499.129,1725.341a6.214,6.214,0,0,1,.7-.091c3.773.11,7.546.224,11.4.341-.152.573-.608.839-.94,1.179-1.469,1.51-2.962,3-4.435,4.5-.331.339-.575.579-1.024.1C-495.249,1729.4-497.11,1727.467-499.129,1725.341Z" transform="translate(-62.878 -196.649)" fill="#75b51d"/>
    <path id="Trazado_187736" data-name="Trazado 187736" d="M-360.174,1600.272a34.165,34.165,0,0,0-5.1-3.115,1.175,1.175,0,0,1-.455-.344,27.582,27.582,0,0,0-4.1-4.622c2.188.306,4.084.572,5.981.836.308.043.616.093.926.118,2.7.215,2.707.214,2.745,2.863C-360.158,1597.366-360.174,1598.725-360.174,1600.272Z" transform="translate(-151.683 -105.264)" fill="#eecea3"/>
    <path id="Trazado_187737" data-name="Trazado 187737" d="M-327.712,1597.155a5.642,5.642,0,0,1,4.157,4.673,6.022,6.022,0,0,1-2.807,6c-.664.341-1.284-.253-1.3-1.315-.035-2.068-.037-4.137-.048-6.205C-327.717,1599.257-327.712,1598.207-327.712,1597.155Z" transform="translate(-180.607 -108.674)" fill="#eecea3"/>
    <path id="Trazado_187738" data-name="Trazado 187738" d="M-574.964,1602.39c0,1.366-.039,2.734.016,4.1a1.536,1.536,0,0,1-.776,1.571c-.463.212-.893-.333-1.265-.645a5.945,5.945,0,0,1,1.06-9.836c.736-.379,1.1-.448,1.045.6-.072,1.4-.018,2.809-.018,4.214Z" transform="translate(-7.938 -108.789)" fill="#eecea3"/>
    <path id="Trazado_187739" data-name="Trazado 187739" d="M-449.795,1633.185c-.13.807.457,2.086-.245,2.73-.63.578-1.869.157-2.838.167-2.332.023-2.332.008-2.332-2.322,0-1.055.022-2.109-.008-3.163-.017-.6.211-.835.819-.822,1.288.029,2.577.025,3.865,0,.558-.01.764.212.746.761C-449.815,1631.357-449.795,1632.178-449.795,1633.185Z" transform="translate(-93.036 -131.077)" fill="#475858"/>
    <path id="Trazado_187740" data-name="Trazado 187740" d="M-527.187,1613.976l-.137.089.116-.111Z" transform="translate(-43.514 -120.211)" fill="#475858"/>
    <path id="Trazado_187741" data-name="Trazado 187741" d="M-548.625,1670.865l.138.1-.1.034c-.006-.05-.012-.1-.017-.15Z" transform="translate(-28.884 -159.285)" fill="#eecea3"/>
    <path id="Trazado_187742" data-name="Trazado 187742" d="M-522.525,1645.049a8.818,8.818,0,0,1-8.853-8.839,8.84,8.84,0,0,1,8.88-8.818,8.891,8.891,0,0,1,8.878,8.845A8.888,8.888,0,0,1-522.525,1645.049Zm.06-3.531a5.309,5.309,0,0,0,5.283-5.283,5.315,5.315,0,0,0-5.378-5.306,5.313,5.313,0,0,0-5.278,5.285A5.309,5.309,0,0,0-522.465,1641.518Z" transform="translate(-40.73 -129.441)" fill="#030202"/>
    <path id="Trazado_187743" data-name="Trazado 187743" d="M-400.837,1636.3a8.726,8.726,0,0,1-8.9,8.75,8.735,8.735,0,0,1-8.752-8.9,8.752,8.752,0,0,1,8.905-8.755A8.729,8.729,0,0,1-400.837,1636.3Zm-8.846,5.222a5.24,5.24,0,0,0,5.315-5.216,5.244,5.244,0,0,0-5.267-5.378,5.257,5.257,0,0,0-5.318,5.215A5.25,5.25,0,0,0-409.683,1641.522Z" transform="translate(-118.263 -129.441)" fill="#030202"/>
    <path id="Trazado_187744" data-name="Trazado 187744" d="M-514.7,1649.275a5.309,5.309,0,0,1-5.373-5.3,5.313,5.313,0,0,1,5.278-5.285,5.315,5.315,0,0,1,5.378,5.306A5.309,5.309,0,0,1-514.7,1649.275Z" transform="translate(-48.492 -137.197)" fill="#fefefe"/>
    <path id="Trazado_187745" data-name="Trazado 187745" d="M-401.931,1649.274a5.25,5.25,0,0,1-5.27-5.379,5.257,5.257,0,0,1,5.318-5.215,5.244,5.244,0,0,1,5.267,5.378A5.24,5.24,0,0,1-401.931,1649.274Z" transform="translate(-126.015 -137.193)" fill="#fefefe"/>
  </g>
</svg>
