<svg xmlns="http://www.w3.org/2000/svg" width="80" height="80" viewBox="0 0 80 80">
  <g id="Grupo_124992" data-name="Grupo 124992" transform="translate(0 0)">
    <g id="Grupo_121133" data-name="Grupo 121133" transform="translate(0 0)">
      <path id="Trazado_183137" data-name="Trazado 183137" d="M-190.065,354.409a40.045,40.045,0,0,1-40-40,40.045,40.045,0,0,1,40-40,40.045,40.045,0,0,1,40,40A40.045,40.045,0,0,1-190.065,354.409Zm0-77.739A37.782,37.782,0,0,0-227.8,314.409a37.782,37.782,0,0,0,37.739,37.739,37.782,37.782,0,0,0,37.739-37.739A37.782,37.782,0,0,0-190.065,276.67Z" transform="translate(230.065 -274.409)" fill="#ff8900"/>
    </g>
    <g id="Grupo_121137" data-name="Grupo 121137" transform="translate(28.001 23.174)">
      <g id="Grupo_121135" data-name="Grupo 121135">
        <path id="Trazado_183139" data-name="Trazado 183139" d="M-173.473,337.61h0a4.555,4.555,0,0,1-4.555-4.555V322.029a4.555,4.555,0,0,1,4.555-4.555h0a4.554,4.554,0,0,1,4.555,4.555v11.027A4.554,4.554,0,0,1-173.473,337.61Z" transform="translate(178.028 -317.474)" fill="#ff8900"/>
      </g>
      <g id="Grupo_121136" data-name="Grupo 121136" transform="translate(23.996)">
        <path id="Trazado_183140" data-name="Trazado 183140" d="M-128.879,337.61h0a4.554,4.554,0,0,1-4.555-4.555V322.029a4.554,4.554,0,0,1,4.555-4.555h0a4.554,4.554,0,0,1,4.555,4.555v11.027A4.554,4.554,0,0,1-128.879,337.61Z" transform="translate(133.434 -317.474)" fill="#ff8900"/>
      </g>
    </g>
    <g id="Grupo_121139" data-name="Grupo 121139" transform="translate(34.842 54.914)">
      <g id="Grupo_121138" data-name="Grupo 121138">
        <path id="Trazado_183141" data-name="Trazado 183141" d="M-156.621,384.574a9.332,9.332,0,0,1-8.541-5.58,1.809,1.809,0,0,1,.929-2.383,1.809,1.809,0,0,1,2.383.929,5.713,5.713,0,0,0,5.229,3.417,5.713,5.713,0,0,0,5.229-3.417,1.81,1.81,0,0,1,2.383-.929,1.809,1.809,0,0,1,.929,2.383A9.332,9.332,0,0,1-156.621,384.574Z" transform="translate(165.315 -376.458)" fill="#ff8900"/>
      </g>
    </g>
  </g>
</svg>
