<svg xmlns="http://www.w3.org/2000/svg" width="156.378" height="156.274" viewBox="0 0 156.378 156.274">
  <g id="Grupo_121068" data-name="Grupo 121068" transform="translate(-248.87 -496.863)">
    <g id="Grupo_121067" data-name="Grupo 121067" transform="translate(1257.561 -1504.174)">
      <path id="Trazado_182841" data-name="Trazado 182841" d="M-1008.69,2037.973v-3.357c.314-.08.29-.371.376-.6,1.479-3.843,4.531-5.676,8.638-5.043.789.122.989-.283,1.3-.709q5.292-7.27,10.579-14.545a1.324,1.324,0,0,0,.19-1.612,7.5,7.5,0,0,1,3.7-10.455,7.465,7.465,0,0,1,10.067,4.628,1.411,1.411,0,0,0,1.24,1.082c5.576.833,11.151,1.669,16.719,2.556a1.614,1.614,0,0,0,1.763-.771,7.327,7.327,0,0,1,10.269-1.628,2.06,2.06,0,0,0,2.067.344,36.871,36.871,0,0,1,31.15,4,1.7,1.7,0,0,0,1.918.107,7.233,7.233,0,0,1,9.154,2.022,1.572,1.572,0,0,0,1.926.613q14.461-3.335,28.941-6.589a1.639,1.639,0,0,0,1.508-1.345,7.392,7.392,0,0,1,7.4-5.626,7.578,7.578,0,0,1,7.173,5.97,7.391,7.391,0,0,1-4.122,8.335,1.305,1.305,0,0,0-.9,1.334q-.065,5.492-.263,10.982a1.673,1.673,0,0,0,1.156,1.916,7.417,7.417,0,0,1,3.622,9.907,7.439,7.439,0,0,1-9.889,3.645,1.591,1.591,0,0,0-1.912.193q-4.778,3.791-9.63,7.485a1.647,1.647,0,0,0-.728,1.91,6.561,6.561,0,0,1-1.387,5.717,1.722,1.722,0,0,0-.188,2.142q4.027,8.609,7.962,17.26a2,2,0,0,0,1.965,1.41,7.328,7.328,0,0,1,6.473,9.749,2.771,2.771,0,0,0,.547,3.078c8.723,12.426,10.059,25.632,3.351,39.255-5.176,10.512-13.815,17.066-25.235,19.871-.468.115-1.019.073-1.222.71-.948,2.977-3.121,4.6-6.031,5.388H-892.1c-2.108-1.1-4.142-2.277-5.071-4.661-.2-.506-.651-.388-1.04-.388q-12.167,0-24.333,0c-.452,0-.894-.061-1.135.5a8.045,8.045,0,0,1-5.658,4.551h-3.052c-.052-.327-.348-.318-.568-.408-5.5-2.271-6.837-8.071-2.824-12.472a1.4,1.4,0,0,0,.268-1.621c-.808-2.4-1.6-4.811-2.42-7.208-.121-.352-.1-.886-.6-.962-.581-.087-.719.47-.962.827a36.894,36.894,0,0,1-7.616,8.264c-9.7,7.659-20.655,10.406-32.628,7.387-14.314-3.609-23.463-12.877-27.691-27.022-.546-1.826-.474-3.781-1.259-5.547v-8.24c.231-.068.278-.249.306-.459a37.33,37.33,0,0,1,12-23.117,1.616,1.616,0,0,0,.444-1.643,6.8,6.8,0,0,1,2.259-6.29,1.76,1.76,0,0,0,.586-2.071q-4.061-15.268-8.018-30.564c-.386-1.5-.771-2.765-2.65-2.835a3.626,3.626,0,0,1-1.354-.65C-1007.01,2041.648-1007.814,2039.783-1008.69,2037.973Zm62.959,91.506V2135c2.141-1.9,2.2-2.2,1.035-4.313-.216-.394-.383-.814-.573-1.223q-.211-1.023-.423-2.044c.41-4.55,2.03-6.543,6.381-7.717.714-.193.774-.6.862-1.194a30.6,30.6,0,0,0-.7-12.092c-4.469-17.779-23.2-28.6-40.563-23.481a1.492,1.492,0,0,0-1.3,1.61,7.448,7.448,0,0,1-11.066,6.257c-.891-.456-1.242-.083-1.759.429a32.476,32.476,0,0,0-5.51,39.377,18.528,18.528,0,0,0,3.229,4.505c0-1.6-.012-2.917,0-4.238.055-5.352,2.858-9.035,8-10.51,2.876-.826,5.757-1.633,8.63-2.468.363-.106,1.005-.1.974-.545-.088-1.278.537-2.612-.814-3.777a11.476,11.476,0,0,1-4.1-8.849c-.027-2.184-.042-4.375.08-6.554a12.455,12.455,0,0,1,9.6-11.074,12.717,12.717,0,0,1,13.5,5.519c3.726,6.194,2.55,16.2-2.5,21.312a2.554,2.554,0,0,0,.986,4.1c2.679.773,5.348,1.589,8.041,2.309a10.348,10.348,0,0,1,7.651,7.132Q-945.9,2128.476-945.731,2129.479Zm47.961-105.066c-.118-.03-.3-.121-.341-.079-.126.134,0,.232.125.3.174.363.332.735.525,1.088a36.55,36.55,0,0,1,2.892,29.606,37.221,37.221,0,0,1-40.619,25.95c-15.411-2.059-25.723-10.892-31.159-25.443-.249-.665-.253-1.464-.94-2.091-4.785,7.965-9.51,15.829-14.229,23.7-.085.141-.387.22-.191.475.169.221.3.287.61.106.283-.166.7-.094,1.036-.183a34.979,34.979,0,0,1,14.506-.763c12.917,2.071,22.458,8.958,28.454,20.563a35.217,35.217,0,0,1,3.551,22.025,1.89,1.89,0,0,0,.5,1.918,7.247,7.247,0,0,1,.267,10.7,1.387,1.387,0,0,0-.425,1.6c.87,2.486,1.7,4.985,2.525,7.488.173.526.368.869,1,.938a7.131,7.131,0,0,1,5.9,4.224c.212.429.414.717,1,.713,4.451-.03,8.9-.016,13.8-.016-.776-.492-1.19-.734-1.583-1.006-12.655-8.762-18.708-20.789-17.13-36.156,1.162-11.319,6.815-20.319,16.177-26.768a36.536,36.536,0,0,1,27.536-6.059,48.693,48.693,0,0,1,10.412,3.252l.314.117-.13-.3c-2.773-6.081-5.557-12.158-8.3-18.251-.29-.644-.752-.54-1.244-.573a7.223,7.223,0,0,1-6.788-5,7.124,7.124,0,0,1,1.873-7.961,7.209,7.209,0,0,1,8.3-1.342,1.481,1.481,0,0,0,1.777-.187q4.9-3.875,9.857-7.68a1.489,1.489,0,0,0,.611-1.5,2.322,2.322,0,0,0-1.971-2.418c-1.4-.407-2.738-1.057-4.108-1.587Q-885.575,2029.11-897.77,2024.413Zm32.643,110.346c9.855-11.018,10.029-28.883.789-40.238a1.159,1.159,0,0,0-1.372-.509c-5.174,1.083-9.3-2.285-9.308-7.588a1.269,1.269,0,0,0-.867-1.354,32.792,32.792,0,0,0-20.616-2.765c-20.712,3.78-32.532,27.163-23.31,46.092a26.225,26.225,0,0,0,4.4,6.705c0-1.779-.033-3.186.006-4.591a10.135,10.135,0,0,1,7.854-10.124c2.874-.828,5.754-1.636,8.629-2.461.377-.107.823-.116,1.048-.517a4.822,4.822,0,0,0-.686-3.659,11.829,11.829,0,0,1-4.133-7.749,36.025,36.025,0,0,1,.064-8.525,12.518,12.518,0,0,1,10.229-10.514,12.636,12.636,0,0,1,13.213,6.4c1.7,3.007,1.448,6.249,1.562,9.489.156,4.423-1.13,8.176-4.536,11.142-1.217,1.06-.567,3.564.936,4,3.067.889,6.167,1.683,9.191,2.7a9.526,9.526,0,0,1,6.87,8.46A50.19,50.19,0,0,1-865.127,2134.759Zm-90.658-70.138c0-1.771-.02-3.078,0-4.384.1-5.353,2.8-8.9,7.913-10.4,2.822-.826,5.657-1.611,8.478-2.44.413-.122.936-.092,1.194-.539a4.888,4.888,0,0,0-.676-3.666,11.915,11.915,0,0,1-4.048-7.144,38.4,38.4,0,0,1-.108-8.524,12.628,12.628,0,0,1,9.982-11.108,12.859,12.859,0,0,1,13.316,5.96c1.842,3.12,1.67,6.5,1.781,9.9.145,4.431-1.144,8.17-4.52,11.153a2.543,2.543,0,0,0,.924,4.017c2.828.807,5.66,1.6,8.481,2.431a9.911,9.911,0,0,1,7.626,9.178c.157,1.735.025,3.5.025,5.219.319.025.391.05.41.029,8.569-9.706,9.581-26.768,2.276-37.613a1.3,1.3,0,0,0-1.508-.583,7.432,7.432,0,0,1-8.523-8.612,1.268,1.268,0,0,0-.786-1.526,32.161,32.161,0,0,0-26.076-3.541c-.86.237-1.013.632-1.054,1.466a7.473,7.473,0,0,1-11,6.4,1.268,1.268,0,0,0-1.794.3,33.175,33.175,0,0,0-9.334,17.946,1.066,1.066,0,0,0,.623,1.307c4.845,3.037,5.226,8.79.855,12.516-.4.342-.689.557-.473,1.233A33.064,33.064,0,0,0-955.785,2064.621Zm-35.234,70.149c0,1.372.058,2.749-.02,4.117a2.2,2.2,0,0,0,1.045,2.142,32.713,32.713,0,0,0,38.452-.155,1.776,1.776,0,0,0,.85-1.622c-.045-2.846.01-5.694-.026-8.541a5.213,5.213,0,0,0-4.026-5.411c-3.107-.937-6.241-1.785-9.354-2.7a1.522,1.522,0,0,0-1.75.463c-1.323,1.407-2.763,2.7-4.07,4.125-.693.752-1.126.887-1.881.047-1.29-1.434-2.738-2.724-4.07-4.123a1.534,1.534,0,0,0-1.731-.537c-3.161.932-6.348,1.781-9.5,2.743a5.139,5.139,0,0,0-3.914,5.333C-991.038,2132.024-991.019,2133.4-991.019,2134.77Zm40.314-70.514c0,1.423.047,2.847-.019,4.267a1.849,1.849,0,0,0,.876,1.758,32.6,32.6,0,0,0,38.546.063,1.891,1.891,0,0,0,.92-1.738c-.053-2.794,0-5.589-.025-8.384-.023-2.934-1.278-4.646-4.085-5.493-3.058-.922-6.139-1.763-9.2-2.673a1.617,1.617,0,0,0-1.879.484c-1.279,1.376-2.715,2.61-3.95,4.021-.842.962-1.346.779-2.108-.055-1.266-1.387-2.661-2.656-3.965-4.01a1.412,1.412,0,0,0-1.594-.494c-3.258.961-6.549,1.813-9.789,2.826a5.068,5.068,0,0,0-3.722,5.16C-950.731,2061.409-950.7,2062.833-950.706,2064.255Zm80.616,70.505c0-1.322.013-2.644,0-3.966-.037-3.01-1.3-4.69-4.222-5.552-3.016-.89-6.05-1.72-9.063-2.624a1.619,1.619,0,0,0-1.877.5c-1.323,1.406-2.757,2.709-4.073,4.121-.653.7-1.066.813-1.774.038-1.335-1.463-2.808-2.8-4.179-4.231a1.432,1.432,0,0,0-1.608-.48c-3.213.939-6.451,1.8-9.649,2.783a5.148,5.148,0,0,0-3.847,5.239c-.049,2.9-.005,5.8-.018,8.693a1.391,1.391,0,0,0,.56,1.3,33.823,33.823,0,0,0,12.038,5.671.992.992,0,0,0,1.267-.488,7.368,7.368,0,0,1,12.578-.058,1.083,1.083,0,0,0,1.388.529,38.609,38.609,0,0,0,9.912-4.194c1.946-1.133,3.053-2.485,2.595-4.849A13.043,13.043,0,0,1-870.089,2134.76Zm-124.623-93.982c-.833.006-2.105,1.923-1.856,2.874q4.178,15.946,8.377,31.887c.113.427-.009,1.1.689,1.2.764.109.863-.592,1.129-1.034,4.494-7.469,8.944-14.965,13.488-22.4.825-1.351,1.4-2.478.2-3.875a2.333,2.333,0,0,1-.492-1.414c0-.967-.527-1.256-1.337-1.485-6.434-1.812-12.858-3.657-19.285-5.492C-994.088,2040.952-994.38,2040.871-994.712,2040.778Zm98.547-21.346a7.591,7.591,0,0,0,.721.4q14.435,5.612,28.875,11.211c1.127.436,3.63-1.339,3.659-2.612.091-3.961.149-7.922.213-11.884.009-.542-3.63-3.859-4.161-3.807a2.57,2.57,0,0,0-.289.092C-876.731,2015.016-886.316,2017.195-896.165,2019.433Zm-74.68,21.271c-.129-.331-.217-.567-.311-.8-3.033-7.57-6.095-15.13-9.066-22.725-.394-1.007-1.061-.995-1.843-1.165a1.492,1.492,0,0,0-1.748.757c-3.072,4.3-6.154,8.586-9.325,12.809-1.1,1.468-2.139,2.788-.83,4.635a1.642,1.642,0,0,1,.21.88.932.932,0,0,0,.792.96q10.161,2.9,20.32,5.809C-971.529,2042.184-971.36,2041.188-970.845,2040.7Zm-7.6,61.23a19.8,19.8,0,0,0,.251,4.16,7.454,7.454,0,0,0,7.9,5.746,7.339,7.339,0,0,0,6.811-6.464,29.173,29.173,0,0,0,0-7,7.479,7.479,0,0,0-7.235-6.579,7.613,7.613,0,0,0-7.47,5.788A19.763,19.763,0,0,0-978.44,2101.934Zm95.672-.009a26.522,26.522,0,0,0-.024-3.5,7.541,7.541,0,0,0-7.521-6.625,7.485,7.485,0,0,0-7.342,6.8,28.65,28.65,0,0,0,.015,6.692,7.347,7.347,0,0,0,7.041,6.561,7.45,7.45,0,0,0,7.728-5.976A15.2,15.2,0,0,0-882.768,2101.925Zm-40.225-70.664a20.961,20.961,0,0,0-.2-3.953,7.617,7.617,0,0,0-7.386-6.08,7.489,7.489,0,0,0-7.317,6.135,24.915,24.915,0,0,0,.006,7.9,7.408,7.408,0,0,0,7.363,6.058,7.52,7.52,0,0,0,7.343-6.105A22.239,22.239,0,0,0-922.993,2031.261Zm-44.389,4.5a38.369,38.369,0,0,1,11.153-19.49c.276-.26.753-.461.624-.954-.116-.443-.593-.339-.9-.388-5.61-.88-11.222-1.751-16.839-2.582a2.273,2.273,0,0,0-2.247,2.9q2.785,6.978,5.591,13.948C-969.181,2031.243-968.364,2033.3-967.382,2035.757Zm4.067,10.633a2.615,2.615,0,0,0-2.582-2.493,2.61,2.61,0,0,0-2.466,2.605,2.668,2.668,0,0,0,2.5,2.433A2.647,2.647,0,0,0-963.315,2046.391Zm-25.1,35.3a2.562,2.562,0,0,0-2.6,2.454,2.56,2.56,0,0,0,2.3,2.587,2.513,2.513,0,0,0,2.655-2.365A2.532,2.532,0,0,0-988.415,2081.691Zm60.338,67.991a2.49,2.49,0,0,0-2.579-2.44,2.5,2.5,0,0,0-2.374,2.644,2.436,2.436,0,0,0,2.5,2.335A2.432,2.432,0,0,0-928.077,2149.682Zm25.253-130.923a2.516,2.516,0,0,0-2.491-2.549,2.5,2.5,0,0,0-2.543,2.331,2.556,2.556,0,0,0,2.4,2.646A2.588,2.588,0,0,0-902.824,2018.758Zm-98.3,15.052a2.516,2.516,0,0,0-2.477,2.555,2.527,2.527,0,0,0,2.4,2.49,2.631,2.631,0,0,0,2.587-2.488A2.6,2.6,0,0,0-1001.128,2033.81Zm141.208,5.047a2.528,2.528,0,0,0,2.414-2.627,2.5,2.5,0,0,0-2.609-2.409,2.594,2.594,0,0,0-2.377,2.528A2.635,2.635,0,0,0-859.919,2038.858Zm-22.762,17.635a2.555,2.555,0,0,0,2.51-2.542,2.58,2.58,0,0,0-2.4-2.5,2.512,2.512,0,0,0-2.567,2.47A2.509,2.509,0,0,0-882.681,2056.493Zm-52.963,70.609a2.432,2.432,0,0,0-2.473-2.51,2.477,2.477,0,0,0-2.505,2.514,2.528,2.528,0,0,0,2.431,2.448A2.443,2.443,0,0,0-935.645,2127.1Zm78.141-118.52a2.436,2.436,0,0,0-2.538-2.448,2.5,2.5,0,0,0-2.449,2.421,2.586,2.586,0,0,0,2.5,2.557A2.5,2.5,0,0,0-857.5,2008.581Zm-30.253,141.1a2.472,2.472,0,0,0-2.576-2.437,2.532,2.532,0,0,0-2.389,2.493,2.459,2.459,0,0,0,2.523,2.487A2.428,2.428,0,0,0-887.756,2149.68Zm20.144-65.417a2.519,2.519,0,0,0-2.451,2.586,2.635,2.635,0,0,0,2.519,2.4,2.617,2.617,0,0,0,2.532-2.548A2.526,2.526,0,0,0-867.612,2084.264Zm-80.6-73.136a2.576,2.576,0,0,0-2.49,2.567,2.536,2.536,0,0,0,2.6,2.445,2.475,2.475,0,0,0,2.387-2.473A2.506,2.506,0,0,0-948.214,2011.127Zm-32.754-5a2.429,2.429,0,0,0-2.466,2.518,2.475,2.475,0,0,0,2.4,2.465,2.552,2.552,0,0,0,2.568-2.473A2.462,2.462,0,0,0-980.968,2006.131Zm7.626,111.457a6.282,6.282,0,0,0,2.253,3.135.452.452,0,0,0,.535-.125,27.346,27.346,0,0,0,2.016-2.076,1.558,1.558,0,0,0,.078-1.469c-.22-.6-.8-.211-1.19-.152a7.385,7.385,0,0,1-2.728-.065C-973.086,2116.679-973.476,2116.846-973.342,2117.588Zm81.6-.755c-.459-.023-.945-.266-.984.53-.039.78,1.7,3.32,2.443,3.381a.772.772,0,0,0,.5-.246c.587-.562,1.164-1.137,1.725-1.725a1.637,1.637,0,0,0,.216-1.729c-.2-.575-.8-.193-1.2-.134A7.466,7.466,0,0,1-891.738,2116.833Zm-40.688-70.656c-.569-.166-.674.368-.593,1.076.163,1.425,1.493,1.932,2.275,2.869.148.177.377.052.527-.1a18.763,18.763,0,0,0,1.988-2.08,1.812,1.812,0,0,0,.078-1.456c-.2-.545-.812-.238-1.205-.172A8.368,8.368,0,0,1-932.426,2046.177Z" transform="translate(0 0)" fill="#030303"/>
      <path id="Trazado_182842" data-name="Trazado 182842" d="M-952.787,2397.934c0-1.373-.019-2.746,0-4.118a5.139,5.139,0,0,1,3.914-5.333c3.152-.962,6.338-1.811,9.5-2.743a1.533,1.533,0,0,1,1.731.536c1.331,1.4,2.78,2.688,4.07,4.123.755.839,1.189.7,1.881-.047,1.307-1.42,2.747-2.717,4.07-4.124a1.523,1.523,0,0,1,1.75-.463c3.114.915,6.247,1.764,9.354,2.7a5.214,5.214,0,0,1,4.026,5.411c.036,2.847-.018,5.694.026,8.54a1.777,1.777,0,0,1-.85,1.622,32.714,32.714,0,0,1-38.452.155,2.2,2.2,0,0,1-1.044-2.142C-952.73,2400.683-952.788,2399.307-952.787,2397.934Z" transform="translate(-38.232 -263.165)" fill="#2df0da"/>
      <path id="Trazado_182843" data-name="Trazado 182843" d="M-825.113,2174.515c0-1.423-.026-2.846.006-4.268a5.068,5.068,0,0,1,3.722-5.16c3.24-1.014,6.532-1.865,9.789-2.826a1.412,1.412,0,0,1,1.594.495c1.3,1.353,2.7,2.623,3.965,4.009.762.834,1.265,1.017,2.108.055,1.236-1.411,2.671-2.646,3.95-4.022a1.617,1.617,0,0,1,1.879-.483c3.061.91,6.143,1.751,9.2,2.673,2.807.847,4.062,2.559,4.085,5.493.021,2.795-.028,5.59.025,8.383a1.89,1.89,0,0,1-.92,1.738,32.6,32.6,0,0,1-38.547-.063,1.848,1.848,0,0,1-.876-1.758C-825.066,2177.363-825.114,2175.938-825.113,2174.515Z" transform="translate(-125.592 -110.26)" fill="#ff8900"/>
      <path id="Trazado_182844" data-name="Trazado 182844" d="M-657.135,2397.924a13.02,13.02,0,0,0,.024,2.436c.458,2.364-.649,3.716-2.595,4.849a38.621,38.621,0,0,1-9.912,4.194,1.083,1.083,0,0,1-1.388-.529,7.368,7.368,0,0,0-12.578.059.991.991,0,0,1-1.267.487,33.818,33.818,0,0,1-12.038-5.67,1.391,1.391,0,0,1-.56-1.3c.013-2.9-.031-5.8.018-8.694a5.148,5.148,0,0,1,3.847-5.239c3.2-.987,6.436-1.844,9.649-2.783a1.432,1.432,0,0,1,1.608.48c1.371,1.432,2.844,2.768,4.179,4.231.708.776,1.121.663,1.774-.037,1.316-1.413,2.75-2.715,4.073-4.121a1.619,1.619,0,0,1,1.877-.5c3.012.9,6.046,1.734,9.063,2.623,2.922.862,4.186,2.541,4.222,5.551C-657.122,2395.28-657.135,2396.6-657.135,2397.924Z" transform="translate(-212.954 -263.163)" fill="#a9f73f"/>
      <path id="Trazado_182845" data-name="Trazado 182845" d="M-912.9,2298.59a19.767,19.767,0,0,1,.259-4.344,7.614,7.614,0,0,1,7.47-5.788,7.479,7.479,0,0,1,7.235,6.578,29.175,29.175,0,0,1,0,7,7.339,7.339,0,0,1-6.811,6.463,7.454,7.454,0,0,1-7.9-5.745A19.8,19.8,0,0,1-912.9,2298.59Z" transform="translate(-65.545 -196.656)" fill="#fddab1"/>
      <path id="Trazado_182846" data-name="Trazado 182846" d="M-642.587,2298.585a15.2,15.2,0,0,1-.1,3.953,7.45,7.45,0,0,1-7.728,5.976,7.348,7.348,0,0,1-7.042-6.561,28.67,28.67,0,0,1-.015-6.692,7.485,7.485,0,0,1,7.342-6.8,7.54,7.54,0,0,1,7.521,6.625A26.512,26.512,0,0,1-642.587,2298.585Z" transform="translate(-240.181 -196.66)" fill="#fddab1"/>
      <path id="Trazado_182847" data-name="Trazado 182847" d="M-770.276,2075.011a22.329,22.329,0,0,1-.192,3.954,7.521,7.521,0,0,1-7.343,6.105,7.408,7.408,0,0,1-7.363-6.058,24.918,24.918,0,0,1-.006-7.9,7.489,7.489,0,0,1,7.317-6.135,7.617,7.617,0,0,1,7.386,6.08A21.044,21.044,0,0,1-770.276,2075.011Z" transform="translate(-152.717 -43.75)" fill="#fddab1"/>
      <path id="Trazado_182848" data-name="Trazado 182848" d="M-875.941,2139.26a2.647,2.647,0,0,1-2.544,2.547,2.667,2.667,0,0,1-2.5-2.434,2.61,2.61,0,0,1,2.466-2.605A2.616,2.616,0,0,1-875.941,2139.26Z" transform="translate(-87.374 -92.87)" fill="#a9f73f"/>
      <path id="Trazado_182849" data-name="Trazado 182849" d="M-950.115,2256.445a2.531,2.531,0,0,1,2.357,2.676,2.513,2.513,0,0,1-2.655,2.365,2.56,2.56,0,0,1-2.3-2.587A2.562,2.562,0,0,1-950.115,2256.445Z" transform="translate(-38.3 -174.753)" fill="#a9f73f"/>
      <path id="Trazado_182850" data-name="Trazado 182850" d="M-764.144,2466.47a2.431,2.431,0,0,1-2.451,2.539,2.435,2.435,0,0,1-2.5-2.335,2.5,2.5,0,0,1,2.373-2.644A2.49,2.49,0,0,1-764.144,2466.47Z" transform="translate(-163.932 -316.788)" fill="#a9f73f"/>
      <path id="Trazado_182851" data-name="Trazado 182851" d="M-684.354,2051.634a2.587,2.587,0,0,1-2.634,2.427,2.556,2.556,0,0,1-2.4-2.646,2.5,2.5,0,0,1,2.543-2.33A2.516,2.516,0,0,1-684.354,2051.634Z" transform="translate(-218.47 -32.876)" fill="#a9f73f"/>
      <path id="Trazado_182852" data-name="Trazado 182852" d="M-990.109,2104.824a2.6,2.6,0,0,1,2.51,2.557,2.631,2.631,0,0,1-2.587,2.489,2.527,2.527,0,0,1-2.4-2.491A2.516,2.516,0,0,1-990.109,2104.824Z" transform="translate(-11.019 -71.013)" fill="#a9f73f"/>
      <path id="Trazado_182853" data-name="Trazado 182853" d="M-543.139,2109.886a2.635,2.635,0,0,1-2.571-2.507,2.6,2.6,0,0,1,2.377-2.529,2.5,2.5,0,0,1,2.609,2.409A2.528,2.528,0,0,1-543.139,2109.886Z" transform="translate(-316.781 -71.028)" fill="#a9f73f"/>
      <path id="Trazado_182854" data-name="Trazado 182854" d="M-614.974,2165.716a2.509,2.509,0,0,1-2.458-2.575,2.512,2.512,0,0,1,2.567-2.47,2.581,2.581,0,0,1,2.4,2.5A2.556,2.556,0,0,1-614.974,2165.716Z" transform="translate(-267.707 -109.223)" fill="#a9f73f"/>
      <path id="Trazado_182855" data-name="Trazado 182855" d="M-788.16,2394.817a2.443,2.443,0,0,1-2.547,2.452,2.527,2.527,0,0,1-2.431-2.448,2.478,2.478,0,0,1,2.505-2.514A2.431,2.431,0,0,1-788.16,2394.817Z" transform="translate(-147.485 -267.715)" fill="#a9f73f"/>
      <path id="Trazado_182856" data-name="Trazado 182856" d="M-540.723,2019.624a2.5,2.5,0,0,1-2.492,2.531,2.586,2.586,0,0,1-2.5-2.557,2.5,2.5,0,0,1,2.449-2.421A2.436,2.436,0,0,1-540.723,2019.624Z" transform="translate(-316.78 -11.042)" fill="#a9f73f"/>
      <path id="Trazado_182857" data-name="Trazado 182857" d="M-636.475,2466.471a2.428,2.428,0,0,1-2.441,2.542,2.46,2.46,0,0,1-2.523-2.487,2.532,2.532,0,0,1,2.389-2.492A2.471,2.471,0,0,1-636.475,2466.471Z" transform="translate(-251.28 -316.791)" fill="#a9f73f"/>
      <path id="Trazado_182858" data-name="Trazado 182858" d="M-567.246,2264.6a2.526,2.526,0,0,1,2.6,2.441,2.616,2.616,0,0,1-2.532,2.547,2.633,2.633,0,0,1-2.519-2.4A2.519,2.519,0,0,1-567.246,2264.6Z" transform="translate(-300.366 -180.332)" fill="#a9f73f"/>
      <path id="Trazado_182859" data-name="Trazado 182859" d="M-822.574,2032.992a2.506,2.506,0,0,1,2.494,2.539,2.475,2.475,0,0,1-2.387,2.473,2.537,2.537,0,0,1-2.6-2.445A2.576,2.576,0,0,1-822.574,2032.992Z" transform="translate(-125.64 -21.864)" fill="#a9f73f"/>
      <path id="Trazado_182860" data-name="Trazado 182860" d="M-926.246,2017.169a2.462,2.462,0,0,1,2.5,2.51,2.552,2.552,0,0,1-2.568,2.473,2.475,2.475,0,0,1-2.4-2.465A2.429,2.429,0,0,1-926.246,2017.169Z" transform="translate(-54.723 -11.038)" fill="#a9f73f"/>
      <path id="Trazado_182861" data-name="Trazado 182861" d="M-896.807,2368.255c-.133-.742.256-.909.963-.752a7.39,7.39,0,0,0,2.728.066c.393-.059.97-.449,1.19.151a1.559,1.559,0,0,1-.078,1.469,27.419,27.419,0,0,1-2.016,2.076.453.453,0,0,1-.535.125A6.289,6.289,0,0,1-896.807,2368.255Z" transform="translate(-76.535 -250.667)" fill="#fddab1"/>
      <path id="Trazado_182862" data-name="Trazado 182862" d="M-640.463,2367.515a7.471,7.471,0,0,0,2.694.075c.4-.059,1-.44,1.2.134a1.637,1.637,0,0,1-.216,1.729c-.56.589-1.138,1.162-1.725,1.725a.776.776,0,0,1-.5.246c-.746-.061-2.482-2.6-2.443-3.381C-641.408,2367.249-640.922,2367.491-640.463,2367.515Z" transform="translate(-251.275 -250.682)" fill="#fddab1"/>
      <path id="Trazado_182863" data-name="Trazado 182863" d="M-768.516,2143.921a8.365,8.365,0,0,0,3.07.137c.393-.067,1.005-.373,1.205.172a1.812,1.812,0,0,1-.078,1.457,18.771,18.771,0,0,1-1.987,2.08c-.15.151-.379.276-.527.1-.782-.937-2.112-1.445-2.275-2.87C-769.19,2144.288-769.085,2143.754-768.516,2143.921Z" transform="translate(-163.91 -97.743)" fill="#fddab1"/>
      <path id="Trazado_182864" data-name="Trazado 182864" d="M-808.852,2407.751c.19.408.357.83.573,1.223,1.163,2.117,1.106,2.415-1.035,4.313v-5.525Z" transform="translate(-136.417 -278.282)" fill="#e3e6ea"/>
      <path id="Trazado_182865" data-name="Trazado 182865" d="M-809.6,2403.32l-.462.012q-.172-1.005-.345-2.007l.384-.05Z" transform="translate(-135.67 -273.852)" fill="#b3db7e"/>
      <path id="Trazado_182866" data-name="Trazado 182866" d="M-658.5,2075.09c-.128-.067-.251-.166-.125-.3.04-.043.223.049.342.078Z" transform="translate(-239.486 -50.456)" fill="#fdfdfd"/>
      <path id="Trazado_182867" data-name="Trazado 182867" d="M-580.634,2252.084l.129.3-.314-.117Z" transform="translate(-292.759 -171.772)" fill="#fdfdfd"/>
    </g>
  </g>
</svg>
