<svg xmlns="http://www.w3.org/2000/svg" xmlns:xlink="http://www.w3.org/1999/xlink" width="93.087" height="93.088" viewBox="0 0 93.087 93.088">
  <defs>
    <linearGradient id="linear-gradient" x1="0.183" y1="0.121" x2="0.82" y2="0.883" gradientUnits="objectBoundingBox">
      <stop offset="0" stop-color="#6bfefc"/>
      <stop offset="1" stop-color="#0099e6"/>
    </linearGradient>
    <filter id="Trazado_182043" x="0" y="0" width="93.087" height="93.088" filterUnits="userSpaceOnUse">
      <feOffset dx="3" dy="3" input="SourceAlpha"/>
      <feGaussianBlur stdDeviation="3" result="blur"/>
      <feFlood flood-opacity="0.282"/>
      <feComposite operator="in" in2="blur"/>
      <feComposite in="SourceGraphic"/>
    </filter>
    <linearGradient id="linear-gradient-2" x1="0.183" y1="0.121" x2="0.82" y2="0.883" gradientUnits="objectBoundingBox">
      <stop offset="0" stop-color="#4bc4ff"/>
      <stop offset="1" stop-color="#43c0eb"/>
    </linearGradient>
    <linearGradient id="linear-gradient-3" x1="0.18" y1="0.116" x2="0.82" y2="0.884" gradientUnits="objectBoundingBox">
      <stop offset="0" stop-color="#fff"/>
      <stop offset="1" stop-color="#b4e7e8"/>
    </linearGradient>
    <linearGradient id="linear-gradient-4" x1="0.18" y1="0.116" x2="0.82" y2="0.884" gradientUnits="objectBoundingBox">
      <stop offset="0" stop-color="#0072c9"/>
      <stop offset="0.012" stop-color="#0174c9"/>
      <stop offset="0.344" stop-color="#2da9e0"/>
      <stop offset="0.63" stop-color="#4dd0f0"/>
      <stop offset="0.859" stop-color="#60e8fa"/>
      <stop offset="1" stop-color="#68f1fe"/>
    </linearGradient>
  </defs>
  <g id="Grupo_120589" data-name="Grupo 120589" transform="translate(-1294.839 -405.345)">
    <g id="Grupo_120546" data-name="Grupo 120546" transform="translate(1518.072 294.426)">
      <g transform="matrix(1, 0, 0, 1, -223.23, 110.92)" filter="url(#Trazado_182043)">
        <path id="Trazado_182043-2" data-name="Trazado 182043" d="M-142.146,154.463a37.543,37.543,0,0,1-37.543,37.544,37.544,37.544,0,0,1-37.544-37.544,37.544,37.544,0,0,1,37.544-37.544A37.543,37.543,0,0,1-142.146,154.463Z" transform="translate(223.23 -110.92)" fill="url(#linear-gradient)"/>
      </g>
      <path id="Trazado_182044" data-name="Trazado 182044" d="M-142.249,154.841a37.138,37.138,0,0,1-37.138,37.139,37.138,37.138,0,0,1-37.138-37.139A37.137,37.137,0,0,1-179.387,117.7,37.138,37.138,0,0,1-142.249,154.841Z" transform="translate(-0.302 -0.334)" fill="url(#linear-gradient-2)"/>
      <g id="Grupo_120541" data-name="Grupo 120541" transform="translate(-209.761 125.25)">
        <path id="Trazado_182045" data-name="Trazado 182045" d="M-144.1,161.486a30.057,30.057,0,0,1-30.058,30.057,30.056,30.056,0,0,1-30.055-30.057,30.055,30.055,0,0,1,30.055-30.056A30.057,30.057,0,0,1-144.1,161.486Z" transform="translate(204.218 -131.43)" fill="url(#linear-gradient-3)"/>
      </g>
      <g id="Grupo_120543" data-name="Grupo 120543" transform="translate(-209.951 125.013)" opacity="0.5">
        <path id="Trazado_182046" data-name="Trazado 182046" d="M-174.3,134.2a27.091,27.091,0,0,1,27.06,27.06,27.09,27.09,0,0,1-27.06,27.06,27.091,27.091,0,0,1-27.06-27.06A27.091,27.091,0,0,1-174.3,134.2m0-3.185a30.246,30.246,0,0,0-30.245,30.245A30.245,30.245,0,0,0-174.3,191.508a30.244,30.244,0,0,0,30.245-30.245A30.245,30.245,0,0,0-174.3,131.017Z" transform="translate(204.549 -131.017)" fill="#c2ecf9"/>
      </g>
      <path id="Trazado_182047" data-name="Trazado 182047" d="M-174.134,134.6a26.921,26.921,0,0,1,26.891,26.891,26.921,26.921,0,0,1-26.891,26.891,26.921,26.921,0,0,1-26.891-26.891A26.921,26.921,0,0,1-174.134,134.6m0-3.165a30.055,30.055,0,0,0-30.057,30.056,30.056,30.056,0,0,0,30.057,30.057,30.057,30.057,0,0,0,30.057-30.057,30.056,30.056,0,0,0-30.057-30.056Z" transform="translate(-5.554 -6.18)" fill="url(#linear-gradient-4)"/>
    </g>
    <g id="Grupo_120571" data-name="Grupo 120571" transform="translate(1466.77 236.686)">
      <g id="Grupo_120564" data-name="Grupo 120564" transform="translate(-141.912 196.367)">
        <path id="Trazado_182063" data-name="Trazado 182063" d="M-124.275,231.914h-13.116a4.525,4.525,0,0,1-4.521-4.52V201.141a4.526,4.526,0,0,1,4.521-4.521h13.116a4.526,4.526,0,0,1,4.521,4.521v26.254A4.525,4.525,0,0,1-124.275,231.914Zm-13.116-34a3.235,3.235,0,0,0-3.232,3.231v26.254a3.235,3.235,0,0,0,3.232,3.231h13.116a3.235,3.235,0,0,0,3.231-3.231V201.141a3.235,3.235,0,0,0-3.231-3.231Z" transform="translate(141.912 -196.62)" fill="#1d7e96"/>
      </g>
      <g id="Grupo_120565" data-name="Grupo 120565" transform="translate(-141.912 200.243)">
        <path id="Trazado_182064" data-name="Trazado 182064" d="M-120.4,226.154h-20.869a.644.644,0,0,1-.644-.644V201.746a.644.644,0,0,1,.644-.644H-120.4a.645.645,0,0,1,.644.644V225.51A.644.644,0,0,1-120.4,226.154Zm-20.225-1.289h19.579V202.391h-19.579Z" transform="translate(141.912 -201.102)" fill="#1d7e96"/>
      </g>
      <g id="Grupo_120566" data-name="Grupo 120566" transform="translate(-133.457 227.022)">
        <path id="Trazado_182065" data-name="Trazado 182065" d="M-127.534,233.354h-3.958a.645.645,0,0,1-.644-.645.645.645,0,0,1,.644-.644h3.958a.644.644,0,0,1,.644.644A.644.644,0,0,1-127.534,233.354Z" transform="translate(132.136 -232.064)" fill="#1d7e96"/>
      </g>
      <g id="Grupo_120567" data-name="Grupo 120567" transform="translate(-131.213 194.746)">
        <path id="Trazado_182066" data-name="Trazado 182066" d="M-111.4,212.666a10.064,10.064,0,0,0,0-14.233,10.065,10.065,0,0,0-14.233,0,10.066,10.066,0,0,0-2.153,11.04l-1.006,6.351,6.351-1.005h0A10.068,10.068,0,0,0-111.4,212.666Z" transform="translate(129.441 -194.846)" fill="#a3edff"/>
        <path id="Trazado_182067" data-name="Trazado 182067" d="M-128.9,216.369a.644.644,0,0,1-.456-.189.647.647,0,0,1-.181-.556l.977-6.172a10.7,10.7,0,0,1-.592-5.97,10.649,10.649,0,0,1,2.954-5.6,10.721,10.721,0,0,1,15.145,0,10.721,10.721,0,0,1,0,15.144h0a10.644,10.644,0,0,1-5.6,2.954,10.7,10.7,0,0,1-5.97-.592l-6.172.976A.665.665,0,0,1-128.9,216.369Zm10.276-20.334a9.389,9.389,0,0,0-6.661,2.755,9.369,9.369,0,0,0-2.6,4.928,9.418,9.418,0,0,0,.584,5.406.645.645,0,0,1,.043.352l-.867,5.475,5.462-.865a.643.643,0,0,1,.365.041,9.409,9.409,0,0,0,5.406.584,9.363,9.363,0,0,0,4.928-2.6h0a9.431,9.431,0,0,0,0-13.321A9.392,9.392,0,0,0-118.622,196.035Z" transform="translate(129.542 -194.746)" fill="#1d7e96"/>
      </g>
      <g id="Grupo_120570" data-name="Grupo 120570" transform="translate(-127.02 200.689)">
        <g id="Grupo_120568" data-name="Grupo 120568">
          <rect id="Rectángulo_36819" data-name="Rectángulo 36819" width="12.241" height="8.442" transform="translate(0.645 0.645)" fill="#fff"/>
          <path id="Trazado_182068" data-name="Trazado 182068" d="M-111.808,211.35h-12.241a.645.645,0,0,1-.644-.645v-8.441a.645.645,0,0,1,.644-.645h12.241a.645.645,0,0,1,.645.645V210.7A.645.645,0,0,1-111.808,211.35Zm-11.6-1.29h10.952v-7.153H-123.4Z" transform="translate(124.693 -201.618)" fill="#1d7e96"/>
        </g>
        <g id="Grupo_120569" data-name="Grupo 120569" transform="translate(0)">
          <path id="Trazado_182069" data-name="Trazado 182069" d="M-123.948,202.364l6.12,5.487,6.12-5.487Z" transform="translate(124.592 -201.719)" fill="#fff"/>
          <path id="Trazado_182070" data-name="Trazado 182070" d="M-117.928,208.394a.644.644,0,0,1-.431-.164l-6.12-5.488a.645.645,0,0,1-.172-.71.646.646,0,0,1,.6-.414h12.241a.645.645,0,0,1,.6.414.643.643,0,0,1-.171.71l-6.121,5.488A.64.64,0,0,1-117.928,208.394Zm-4.436-5.487,4.436,3.977,4.436-3.977Z" transform="translate(124.693 -201.618)" fill="#1d7e96"/>
        </g>
      </g>
    </g>
  </g>
</svg>
