<svg xmlns="http://www.w3.org/2000/svg" width="100.818" height="90.418" viewBox="0 0 100.818 90.418">
  <g id="Grupo_128779" data-name="Grupo 128779" transform="translate(1028.101 -1567.958)">
    <path id="Trazado_187602" data-name="Trazado 187602" d="M-713.246,1892.033c.406-.045.807-.123,1.208-.2a8.163,8.163,0,0,1-.083-1.621c0-5.861-.043-11.722.015-17.582a12.064,12.064,0,0,0-4.16-9.846c-.217-.186-.486-.345-.566-.658a.166.166,0,0,0-.112-.045c-.135.072-.221.021-.278-.108a5.118,5.118,0,0,0-2.021-.216c.952.813,1.781,1.581,2.674,2.265a2.641,2.641,0,0,1,1.148,2.442c-.075,1.242-.008,2.493-.02,3.74-.012,1.28-.473,1.842-1.739,1.877-.758.021-.751.368-.517.826,1.357,2.652.791,4.872-1.255,6.965a11.212,11.212,0,0,0-2.839,3.958c-.495,1.515-.139,3.309-.148,4.981-.006,1.032.01,2.063,0,3.095.977.029,1.956.072,2.94.12,0-3.651-.006-7.3,0-10.954a1.468,1.468,0,0,1,1.516-1.656c.909.014,1.469.639,1.477,1.705.014,1.865,0,3.731,0,5.6,0,1.809.014,3.618-.007,5.427A22.55,22.55,0,0,0-713.246,1892.033Z" transform="translate(-245.525 -235.681)" fill="#a9f73f"/>
    <path id="Trazado_187603" data-name="Trazado 187603" d="M-807.7,2017.846a3.723,3.723,0,0,1-.238.589c1.639-.184,3.276-.387,4.914-.584Z" transform="translate(-176.622 -360.921)" fill="#fdfdfd"/>
    <path id="Trazado_187604" data-name="Trazado 187604" d="M-884.579,1893.653c.789-.031,3.731-.238,4.413-.3a2.178,2.178,0,0,1-.317-1.275c0-2.492-.013-4.985.011-7.476a2.3,2.3,0,0,0-.491-1.529c-1.4-1.817-2.735-3.681-4.134-5.5a2.178,2.178,0,0,1-.4-2.193c.291-.866.484-1.766.778-2.631.182-.535.15-.73-.5-.761-1.333-.063-1.756-.576-1.76-1.94s.022-2.755-.011-4.131a2,2,0,0,1,.793-1.7c.979-.807,1.933-1.645,3.03-2.583a7.945,7.945,0,0,0-4.1.745,9.692,9.692,0,0,0-5.936,9.372q-.012,2.12-.014,4.24c.353,2.192-1,4.441-.841,6.655.259,3.519-.682,6.929-.828,10.449a77.083,77.083,0,0,0,8.558.6,1.815,1.815,0,0,1-.65-1.555q-.021-5.6,0-11.193a1.464,1.464,0,0,1,1.554-1.624,1.46,1.46,0,0,1,1.437,1.636c.016,1.9,0,3.8,0,5.694,0,1.833.013,3.666,0,5.5A1.865,1.865,0,0,1-884.579,1893.653Z" transform="translate(-106.872 -235.581)" fill="#a9f73f"/>
    <path id="Trazado_187605" data-name="Trazado 187605" d="M-984.326,1656.925c-.349,1.109-.929,1.595-1.779,1.415-.983-.208-1.253-.938-1.251-1.843,0-2.492-.013-4.984.011-7.476a2.3,2.3,0,0,0-.491-1.528c-1.4-1.817-2.735-3.682-4.134-5.5a2.178,2.178,0,0,1-.4-2.193c.291-.867.484-1.766.778-2.631.182-.535.15-.73-.5-.761-1.333-.063-1.756-.576-1.76-1.94s.022-2.755-.011-4.131a1.993,1.993,0,0,1,.793-1.7c.979-.807,1.933-1.645,3.03-2.583a7.944,7.944,0,0,0-4.1.745,9.693,9.693,0,0,0-5.936,9.372c-.035,6.558-.009,13.117-.01,19.675,0,.328.01.657-.015.983a1.473,1.473,0,0,1-1.455,1.533,1.464,1.464,0,0,1-1.5-1.586c-.031-1.573-.008-3.148-.011-4.722,0-.2-.025-.391-.038-.587q.02-7.676.039-15.351a13.908,13.908,0,0,1,1.249-5.813c.29-.636,1.167-1.377.8-1.835s-1.421-.081-2.169-.151c-.586-.055-.69.214-.713.737a4.073,4.073,0,0,1-1.412,2.933,4.192,4.192,0,0,1-4.483.893,4.3,4.3,0,0,1-2.884-3.772c-.054-.445-.026-.817-.676-.8-1.77.054-3.547-.035-5.312.078a6.91,6.91,0,0,0-6.445,6.645c-.081,5.477-.011,10.957-.005,16.435-.3,1.082-.821,1.54-1.65,1.457-.869-.087-1.333-.716-1.333-1.847q-.005-7.576,0-15.151c.005-6.2,4.235-10.48,10.465-10.573,1.41-.021,2.82.005,4.23-.011.254,0,.63.17.693-.306a.64.64,0,0,0-.435-.76,12.01,12.01,0,0,1-6.826-7.906c-.117-.4-.234-.484-.661-.423a5.175,5.175,0,0,1-5.492-2.429,5.168,5.168,0,0,1,.186-6.079,1.226,1.226,0,0,0,.074-1.111,18.144,18.144,0,0,1,2.549-14.748,18.074,18.074,0,0,1,22.415-6.426c.637.284.816.281,1.023-.448a21.9,21.9,0,0,1,3.227-6.682c.766-1.083,1.18-1.214,2.4-.761.761,1.035.759,1.377-.034,2.542a20.164,20.164,0,0,0-3.258,15.356c.262,1.5.268,1.5,1.719,1.346a6,6,0,0,0,.685-.059c.276-.062.713.231.8-.286.067-.411-.176-.623-.561-.78a2.62,2.62,0,0,1-1.684-2.633c-.008-1.017-.015-2.034,0-3.051.018-1.065.6-1.69,1.51-1.672.874.018,1.416.623,1.438,1.641.017.787.03,1.576-.005,2.362-.022.49.157.606.624.586,5.09-.223,9.933-1.284,14.234-4.181,1.4-.943,1.584-.945,2.962-.015,4.327,2.923,9.2,3.981,14.328,4.2.45.019.561-.145.549-.559-.023-.852-.03-1.707,0-2.559a1.424,1.424,0,0,1,1.4-1.472,1.435,1.435,0,0,1,1.531,1.446c.041.752-.018,1.51.018,2.263.083,1.761-.158,3.311-2.222,3.822-.326.081-.316.4-.305.652.016.378.327.227.526.238a5.544,5.544,0,0,1,1.749.215c.536.208.663-.081.757-.522a21.018,21.018,0,0,0-.035-9.555,20.451,20.451,0,0,0-31.854-11.8,1.785,1.785,0,0,1-2.475.058c-.488-1.218-.366-1.652.681-2.422a23.434,23.434,0,0,1,36.114,12.053c.23.762.4.941,1.207.6a17.819,17.819,0,0,1,16.495,1.089c1.158.665,1.308,1.146.86,2.431a1.9,1.9,0,0,1-2.5.049,15.042,15.042,0,0,0-14.33-.6,1.1,1.1,0,0,0-.762,1.27,25.735,25.735,0,0,1-.69,8.295c-.105.423-.288.883.064,1.315a5.873,5.873,0,0,1,1.023,1.783c.179.516.632.392.988.46.481.092.362-.321.431-.582a1.452,1.452,0,0,1,2.222-.979,16.71,16.71,0,0,0,5.866,1.5c.483.042.759.032.977-.488a1.255,1.255,0,0,1,1.724-.717,22.667,22.667,0,0,0,7.511,1.315,1.452,1.452,0,0,1,1.464,1.326,1.334,1.334,0,0,1-.573,1.285.953.953,0,0,0-.27,1.16c.194.4.768.276,1.16.307.469.037.348-.463.4-.753a14.665,14.665,0,0,0-2.183-11.089,1.97,1.97,0,0,1-.124-2.515c1.4-.519,1.784-.4,2.6.862a18.148,18.148,0,0,1,2.371,14.585,1.354,1.354,0,0,0,.188,1.179,5.171,5.171,0,0,1,.112,5.915,5.1,5.1,0,0,1-5.279,2.479c-.655-.081-.81.075-.982.645a11.941,11.941,0,0,1-6.518,7.574c-.355.172-.755.262-.662.8.115.665.629.331.942.343,1.994.077,4.019-.2,5.978.255a9.823,9.823,0,0,1,7.877,8.045c.028.13.032.256.187.3v18.117c-.512.518-1,1.076-1.861.826a1.518,1.518,0,0,1-1.115-1.411c.008-5.509.09-11.019,0-16.526a6.919,6.919,0,0,0-6.423-6.566c-1.5-.1-3.017-.012-4.523-.078-.75-.033-1.052.118-1.145.967a4.333,4.333,0,0,1-3.958,3.865,4.509,4.509,0,0,1-4.577-3.021c-.2-.588.165-1.463-.53-1.734a5.8,5.8,0,0,0-1.949-.062c-.2,0-.394.006-.59,0-.619-.019-.653.219-.356.7a12.415,12.415,0,0,1,1.7,4.263c.507,2.7.243,5.427.252,8.143,0,.823-.6,1.266-1.409,1.4-1.169-.266-1.476-.628-1.483-1.806-.01-1.67,0-3.34,0-5.01a9.567,9.567,0,0,0-.76-3.921,9.156,9.156,0,0,0-6.338-5.626.166.166,0,0,0-.112-.045c-.055-.133-.156-.146-.278-.108a5.116,5.116,0,0,0-2.021-.216c.952.813,1.781,1.581,2.674,2.265a2.641,2.641,0,0,1,1.148,2.442c-.075,1.243-.008,2.493-.02,3.74-.012,1.28-.473,1.842-1.739,1.877-.758.021-.751.368-.517.826,1.357,2.652.791,4.872-1.255,6.965a11.211,11.211,0,0,0-2.839,3.958c-.495,1.515-.139,3.309-.148,4.981-.006,1.116.015,2.232-.006,3.347-.021,1.133-.5,1.8-1.347,1.87-1.013.087-1.48-.518-1.693-1.409q0-11.512.005-23.025c0-2.395-.019-4.789.013-7.183.009-.63-.231-.753-.8-.776-.7-.027-.676.353-.706.855-.2,3.344-2.479,5.625-5.529,5.571-2.984-.053-5.189-2.4-5.288-5.69-.016-.549-.156-.725-.717-.736-.661-.013-.809.228-.808.855Q-984.313,1641.869-984.326,1656.925Zm-11.413-46.2c-.066.484-.1.975-.205,1.451-.131.6.1.813.682.877,1.337.147,2.934-1.031,2.594-2.548.174-.733.068-1.168-.854-.91a3.466,3.466,0,0,1-1.258.12C-995.587,1609.635-995.847,1609.985-995.738,1610.728Zm36.506-.006c.122-.757-.181-1.066-.96-1.007a3.657,3.657,0,0,1-1.242-.152c-.7-.2-.992.014-.9.737a2.348,2.348,0,0,0,2.219,2.75c1.025.055,1.2-.144,1.048-1.161C-959.131,1611.5-959.179,1611.111-959.232,1610.722Zm2.973-1a37.441,37.441,0,0,0,.626,5.26,9.083,9.083,0,0,0,8.965,7.345,9.039,9.039,0,0,0,8.941-7.481c.429-2.683.7-5.392,1.047-8.089.107-.844.543-1.866.218-2.485-.345-.657-1.536-.314-2.337-.517-1.1-.277-2.183-.641-3.2.275-.291.262-.754.175-1.147.154a23.932,23.932,0,0,1-5.8-.945c-.24-.074-.543-.389-.8-.032a3.006,3.006,0,0,1-2.725,1.021c-.6-.208-.855-.01-1.008.625a6.054,6.054,0,0,1-2.416,3.572C-956.423,1608.809-956.552,1609.177-956.259,1609.726Zm-46.441-6.139a3.28,3.28,0,0,1-2.317.6,22.9,22.9,0,0,1-5.407-.934.954.954,0,0,0-1.255.3,2.058,2.058,0,0,1-1.785.648,23.325,23.325,0,0,1-4.383-.531c-.623-.15-.883-.078-.783.661.464,3.409.827,6.832,1.344,10.233a9.015,9.015,0,0,0,8.79,7.766,9.014,9.014,0,0,0,9.183-7.539c.312-1.669.433-3.374.641-5.062a1.147,1.147,0,0,0-.5-1.482,6.253,6.253,0,0,1-2.356-4.131C-1001.646,1603.26-1002.07,1603.227-1002.7,1603.588Zm25.3,15.429a12.413,12.413,0,0,0,12.319-10.55c.592-3.984,1.023-7.992,1.567-11.983.108-.794-.08-1.069-.911-1.146a28.88,28.88,0,0,1-9.72-2.577c-1.062-.5-2.07-1.574-3.1-1.565-1.068.008-2.107,1.053-3.2,1.565a29.653,29.653,0,0,1-9.915,2.606c-.769.072-1.1.217-.964,1.157.545,3.826.931,7.674,1.459,11.5A12.5,12.5,0,0,0-977.4,1619.017Zm-46.035-17.3a15.374,15.374,0,0,0,.283,3.126c.052.258.113.61.458.473.369-.145,1.038.137,1.085-.392a4.061,4.061,0,0,0-.447-2.646c-.473-.7-.77-1.314-.233-2.041a1.561,1.561,0,0,1,2.118-.351,18.726,18.726,0,0,0,5.719,1.294c.383.039.471-.088.573-.444.372-1.3,1.154-1.643,2.381-1.052a16.861,16.861,0,0,0,5.97,1.468c.238.02.416.04.592-.2,1-1.339,1-1.322,2.63-.738.385.138.787.422,1.217.195a4.353,4.353,0,0,0,1.062-2.677,24.466,24.466,0,0,1-.713-8.47.9.9,0,0,0-.606-1.058,15.256,15.256,0,0,0-8.373-1.579A15.086,15.086,0,0,0-1023.436,1601.712Zm59.458,12.589c-.512.7-.968,1.38-1.486,2.012a14.835,14.835,0,0,1-6.013,4.463c-1.006.4-.565,1.2-.571,1.834s.6.34.928.345c1.738.031,3.478.027,5.217.012a13.275,13.275,0,0,1,7.906,2.218,1.171,1.171,0,0,0,.724.241c1.836-.038,3.673-.047,5.51-.08.255,0,.621.158.665-.336a.652.652,0,0,0-.468-.738,11.969,11.969,0,0,1-6.811-7.922c-.1-.343-.186-.485-.592-.414A5.447,5.447,0,0,1-963.978,1614.3Zm-23.6,8.669c1.311,0,2.623.018,3.933-.014.293-.007.878.267.833-.31-.046-.6.494-1.4-.438-1.8a15.481,15.481,0,0,1-7.3-6.176c-.269-.43-.416-.428-.776-.085a5.065,5.065,0,0,1-4.429,1.381c-.619-.094-.738.084-.9.621a12,12,0,0,1-6.511,7.586,3.139,3.139,0,0,1-.36.155c-.364.122-.367.41-.342.715.036.42.363.3.6.3.819.013,1.642-.044,2.458.015a7.239,7.239,0,0,0,5.188-1.145,5.937,5.937,0,0,1,1.816-.71A20.781,20.781,0,0,1-987.577,1622.969Zm12.493,1.808h.023c0-.787,0-1.573,0-2.36,0-.325-.017-.574-.471-.527a19.866,19.866,0,0,1-3.828,0c-.272-.025-.449.054-.442.361a42.151,42.151,0,0,0,.1,5.2,2.28,2.28,0,0,0,2.394,1.9,2.321,2.321,0,0,0,2.214-2.219C-975.04,1626.353-975.084,1625.564-975.084,1624.777Zm15.158-17.99a3.652,3.652,0,0,0,3.7-3.838,3.666,3.666,0,0,0-4.016-3.513c-.437.035-.7.106-.753.647-.2,1.885-.463,3.764-.724,5.642a.675.675,0,0,0,.541.864A4.424,4.424,0,0,0-959.926,1606.787Zm-34.935,0c.123-.008.32-.01.515-.034,1.152-.141,1.286-.326,1.141-1.468-.215-1.688-.454-3.374-.608-5.068-.055-.6-.292-.756-.84-.789a3.649,3.649,0,0,0-3.946,3.489A3.648,3.648,0,0,0-994.861,1606.788Zm7.509,20.909c-.9.764-1.6,1.454-2.394,2.01a2.542,2.542,0,0,0-1.167,2.468c.046.891.1,1.337,1.2,1.279,1.495-.078,2.052.776,1.644,2.231-.371,1.324-.761,2.642-1.14,3.964-.089.31-.27.646-.045.943a18.507,18.507,0,0,0,1.905,2.42Zm19.921.044v15.165c1.55-1.364,2.4-2.838,1.364-4.875a11.369,11.369,0,0,1-.619-2.065c-.523-1.843-.041-2.492,1.873-2.551.276-.009.6.126.811-.189a4.29,4.29,0,0,0-.444-2.94C-965.391,1629.475-966.341,1628.671-967.432,1627.741Zm22.181-.5c.012-1.877.012-1.877-1.891-1.93a4.475,4.475,0,0,1-.491-.024c-.4-.055-.509.127-.5.5.018.984-.023,1.969.019,2.952a1.4,1.4,0,0,0,1.438,1.433,1.387,1.387,0,0,0,1.416-1.358A13.759,13.759,0,0,0-945.251,1627.24Zm-64.472-.015c0,.492-.031.986.006,1.474a1.441,1.441,0,0,0,1.508,1.474,1.44,1.44,0,0,0,1.356-1.517c.027-.818-.053-1.644.024-2.457s-.236-.952-.981-.909C-1009.727,1625.4-1009.729,1625.364-1009.723,1627.225Zm-11.734-14.173c.616.045.95-.2.827-.968-.175-1.1-.3-2.2-.41-3.3-.051-.52-.3-.654-.778-.6a2.457,2.457,0,0,0-2.164,2.582A2.412,2.412,0,0,0-1021.458,1613.052Zm90.479-2.444a2.456,2.456,0,0,0-2.13-2.423c-.456-.059-.756.024-.813.56-.125,1.168-.264,2.335-.431,3.5-.082.566.165.753.68.808A2.426,2.426,0,0,0-930.979,1610.609Z" transform="translate(0 0)" fill="#030303"/>
    <path id="Trazado_187606" data-name="Trazado 187606" d="M-869.3,1586.865a1.785,1.785,0,0,0,2.475-.058,20.451,20.451,0,0,1,31.854,11.8,21.016,21.016,0,0,1,.035,9.555c-.094.442-.221.731-.757.522a5.548,5.548,0,0,0-1.749-.215c-.2-.011-.51.14-.526-.238-.011-.254-.021-.572.3-.652,2.065-.511,2.305-2.061,2.222-3.822-.035-.753.023-1.511-.018-2.263a1.435,1.435,0,0,0-1.531-1.446,1.424,1.424,0,0,0-1.4,1.472c-.033.852-.025,1.706,0,2.559.011.414-.1.578-.549.559-5.124-.216-10-1.275-14.328-4.2-1.378-.931-1.561-.929-2.962.015-4.3,2.9-9.144,3.958-14.234,4.181-.467.02-.646-.1-.624-.586.035-.786.022-1.575.006-2.362-.022-1.017-.564-1.623-1.438-1.641-.913-.018-1.492.606-1.51,1.672-.017,1.017-.01,2.034,0,3.051a2.62,2.62,0,0,0,1.684,2.633c.386.157.628.369.561.78-.084.516-.52.223-.8.286a5.992,5.992,0,0,1-.685.059c-1.451.154-1.458.156-1.719-1.346a20.164,20.164,0,0,1,3.258-15.356c.793-1.165.794-1.506.034-2.542A25.62,25.62,0,0,1-869.3,1586.865Z" transform="translate(-122.554 -12.017)" fill="#fdcd63"/>
    <path id="Trazado_187607" data-name="Trazado 187607" d="M-655.166,1887.425c.8-.129,1.411-.573,1.409-1.4-.008-2.715.255-5.441-.252-8.143a12.418,12.418,0,0,0-1.7-4.263c-.3-.48-.263-.718.356-.7.2.006.394,0,.59,0a5.8,5.8,0,0,1,1.949.062c.695.271.329,1.146.53,1.734a4.509,4.509,0,0,0,4.577,3.021,4.333,4.333,0,0,0,3.958-3.865c.093-.849.395-1,1.145-.967,1.506.066,3.021-.026,4.523.078a6.919,6.919,0,0,1,6.423,6.566c.093,5.507.011,11.017,0,16.526l-3.972-.03c-.021-.358-.06-.716-.06-1.074q-.007-5.751-.005-11.5a6.475,6.475,0,0,0-.061-1.077,1.331,1.331,0,0,0-1.363-1.181,1.329,1.329,0,0,0-1.43,1.1,5.365,5.365,0,0,0-.087,1.169q-.037,6.288-.061,12.577l-14.983.013c-.016-1.144-.057-2.288-.041-3.431a1.654,1.654,0,0,0-1.448-1.89Q-655.165,1889.088-655.166,1887.425Z" transform="translate(-298.606 -244.613)" fill="#a3edff"/>
    <path id="Trazado_187608" data-name="Trazado 187608" d="M-1013.134,1895.994c-.006-5.479-.076-10.958.005-16.435a6.91,6.91,0,0,1,6.445-6.645c1.765-.113,3.542-.024,5.312-.078.651-.02.622.352.677.8a4.294,4.294,0,0,0,2.884,3.772,4.192,4.192,0,0,0,4.482-.893,4.073,4.073,0,0,0,1.412-2.933c.023-.524.127-.792.713-.737.748.07,1.8-.315,2.169.151s-.513,1.2-.8,1.835a13.908,13.908,0,0,0-1.249,5.813q-.018,7.676-.039,15.351l-14.967-.008q-.024-6.336-.051-12.672a4.858,4.858,0,0,0-.081-1.072,1.358,1.358,0,0,0-1.5-1.131,1.339,1.339,0,0,0-1.335,1.217,8.493,8.493,0,0,0-.052,1.176q-.032,6.237-.058,12.474Z" transform="translate(-11.98 -244.525)" fill="#ff8900"/>
    <path id="Trazado_187609" data-name="Trazado 187609" d="M-806.81,1892.213q0-15.056-.017-30.111c0-.628.147-.868.808-.855.561.011.7.187.717.736.1,3.287,2.3,5.637,5.288,5.689,3.051.054,5.329-2.227,5.529-5.571.03-.5,0-.882.706-.855.572.022.812.146.8.775-.033,2.394-.013,4.789-.013,7.183q0,11.513-.006,23.025Z" transform="translate(-177.516 -235.288)" fill="#edffd5"/>
    <path id="Trazado_187610" data-name="Trazado 187610" d="M-637.228,1666.264a1.97,1.97,0,0,0,.124,2.516,14.665,14.665,0,0,1,2.183,11.089c-.053.29.068.79-.4.753-.392-.031-.966.092-1.16-.307a.953.953,0,0,1,.27-1.16,1.335,1.335,0,0,0,.573-1.285,1.452,1.452,0,0,0-1.464-1.326,22.667,22.667,0,0,1-7.511-1.315,1.255,1.255,0,0,0-1.724.717c-.217.52-.493.531-.977.488a16.716,16.716,0,0,1-5.866-1.5,1.452,1.452,0,0,0-2.222.979c-.07.261.05.674-.431.582-.355-.068-.809.056-.988-.46a5.874,5.874,0,0,0-1.023-1.783c-.353-.432-.17-.892-.064-1.315a25.736,25.736,0,0,0,.69-8.295,1.1,1.1,0,0,1,.762-1.27,15.042,15.042,0,0,1,14.33.6,1.9,1.9,0,0,0,2.5-.049A8.327,8.327,0,0,1-637.228,1666.264Z" transform="translate(-296.869 -75.314)" fill="#b86e3b"/>
    <path id="Trazado_187611" data-name="Trazado 187611" d="M-687.063,1880.1q0,1.664,0,3.327c-1.2.306-1.476.639-1.486,1.82q-.038,4.425-.064,8.851c-2.326.053-2.326.053-2.326-2.276,0-5.861-.043-11.722.015-17.582a12.065,12.065,0,0,0-4.16-9.846c-.217-.186-.486-.345-.566-.658a9.155,9.155,0,0,1,6.337,5.626,9.567,9.567,0,0,1,.76,3.921c.006,1.67-.005,3.34,0,5.01C-688.54,1879.468-688.232,1879.83-687.063,1880.1Z" transform="translate(-266.709 -237.285)" fill="#a9f73f"/>
    <path id="Trazado_187612" data-name="Trazado 187612" d="M-992.975,1929.841q.028-6.237.058-12.474a8.5,8.5,0,0,1,.052-1.176,1.339,1.339,0,0,1,1.335-1.217,1.358,1.358,0,0,1,1.5,1.132,4.862,4.862,0,0,1,.081,1.072q.031,6.336.051,12.672c-.208.816-.6,1.471-1.55,1.468S-992.777,1930.658-992.975,1929.841Z" transform="translate(-28.179 -278.39)" fill="#030303"/>
    <path id="Trazado_187613" data-name="Trazado 187613" d="M-568.932,1929.911q.029-6.289.061-12.577a5.367,5.367,0,0,1,.087-1.17,1.329,1.329,0,0,1,1.431-1.1,1.331,1.331,0,0,1,1.363,1.181,6.472,6.472,0,0,1,.062,1.076q.006,5.751.005,11.5c0,.358.039.716.06,1.074-.18.834-.568,1.487-1.525,1.492S-568.74,1930.742-568.932,1929.911Z" transform="translate(-368.366 -278.465)" fill="#030303"/>
    <path id="Trazado_187614" data-name="Trazado 187614" d="M-703.631,1958.468c0,1.865.016,3.731-.007,5.6-.013,1.072-.592,1.711-1.474,1.726s-1.464-.62-1.517-1.677c0-.033,0-.065,0-.1,0-3.731-.007-7.462,0-11.193a1.467,1.467,0,0,1,1.516-1.656c.909.014,1.47.639,1.477,1.705C-703.62,1954.737-703.63,1956.6-703.631,1958.468Z" transform="translate(-257.895 -307.427)" fill="#030303"/>
    <path id="Trazado_187615" data-name="Trazado 187615" d="M-851.942,1958.5c0,1.833.013,3.666-.005,5.5-.011,1.141-.583,1.8-1.5,1.794s-1.489-.663-1.493-1.807q-.021-5.6,0-11.193a1.464,1.464,0,0,1,1.554-1.624,1.46,1.46,0,0,1,1.437,1.636C-851.931,1954.7-851.942,1956.6-851.942,1958.5Z" transform="translate(-138.91 -307.431)" fill="#030303"/>
    <path id="Trazado_187616" data-name="Trazado 187616" d="M-660.064,1973.973q.031-4.425.064-8.851c.01-1.181.289-1.514,1.486-1.82a1.655,1.655,0,0,1,1.447,1.89c-.016,1.143.025,2.287.041,3.431q-.016,2.491-.032,4.982c-.01,1.2-.467,1.84-1.359,1.916C-659.29,1975.6-659.8,1975.112-660.064,1973.973Z" transform="translate(-295.256 -317.163)" fill="#030303"/>
    <path id="Trazado_187617" data-name="Trazado 187617" d="M-697.62,1862.882c.121-.038.222-.024.278.108C-697.477,1863.063-697.564,1863.011-697.62,1862.882Z" transform="translate(-265.127 -236.587)" fill="#4eccb5"/>
    <path id="Trazado_187618" data-name="Trazado 187618" d="M-828.294,1713.286a12.5,12.5,0,0,1-12.457-10.991c-.528-3.828-.914-7.677-1.459-11.5-.134-.94.2-1.085.964-1.157a29.65,29.65,0,0,0,9.915-2.606c1.089-.511,2.128-1.556,3.2-1.565,1.026-.008,2.034,1.066,3.1,1.565a28.874,28.874,0,0,0,9.72,2.577c.831.077,1.02.352.911,1.146-.544,3.991-.976,8-1.567,11.983A12.413,12.413,0,0,1-828.294,1713.286Zm0-7.432a7.246,7.246,0,0,0,5.637-2.774,1.519,1.519,0,0,0-.083-2.193,1.514,1.514,0,0,0-2.172.3c-2.16,2.309-4.675,2.314-6.789.013a1.514,1.514,0,0,0-2.17-.326,1.462,1.462,0,0,0-.117,2.179A7.079,7.079,0,0,0-828.292,1705.854Zm6.125-9.272c.015,1.3.542,1.978,1.522,1.956.919-.02,1.468-.719,1.442-1.835-.028-1.2-.583-1.92-1.49-1.929S-822.18,1695.486-822.167,1696.582Zm-12.3.106c-.014-1.218-.554-1.919-1.476-1.917-.9,0-1.486.721-1.481,1.819.005,1.267.569,1.972,1.552,1.942C-834.94,1698.5-834.454,1697.865-834.467,1696.688Z" transform="translate(-149.107 -94.27)" fill="#fcd4be"/>
    <path id="Trazado_187619" data-name="Trazado 187619" d="M-1004.513,1677.14a15.086,15.086,0,0,1,13.717-15.088,15.255,15.255,0,0,1,8.373,1.579.9.9,0,0,1,.606,1.058,24.464,24.464,0,0,0,.713,8.469,4.353,4.353,0,0,1-1.062,2.677c-.43.227-.832-.056-1.217-.195-1.628-.584-1.631-.6-2.63.738-.176.236-.354.217-.592.2a16.861,16.861,0,0,1-5.97-1.468c-1.227-.591-2.009-.251-2.381,1.052-.1.356-.189.483-.573.444a18.736,18.736,0,0,1-5.719-1.294,1.56,1.56,0,0,0-2.118.351c-.537.728-.24,1.34.233,2.041a4.06,4.06,0,0,1,.447,2.646c-.048.529-.716.246-1.085.392-.346.136-.406-.215-.458-.474A15.364,15.364,0,0,1-1004.513,1677.14Z" transform="translate(-18.923 -75.428)" fill="#b86e3b"/>
    <path id="Trazado_187620" data-name="Trazado 187620" d="M-960.328,1752.46c-.208,1.688-.329,3.393-.641,5.062a9.014,9.014,0,0,1-9.183,7.539,9.015,9.015,0,0,1-8.79-7.766c-.517-3.4-.88-6.824-1.344-10.233-.1-.738.159-.811.783-.66a23.325,23.325,0,0,0,4.383.531,2.059,2.059,0,0,0,1.785-.648.954.954,0,0,1,1.255-.3,22.9,22.9,0,0,0,5.407.934,3.28,3.28,0,0,0,2.317-.6c.172.139.16.34.193.533A7.52,7.52,0,0,0-960.328,1752.46Zm-9.7,7.7a5.765,5.765,0,0,0,4.654-2.219,1.476,1.476,0,0,0-.086-2.183,1.482,1.482,0,0,0-2.166.246c-1.566,1.6-3.063,1.6-4.639-.009a1.479,1.479,0,0,0-2.168-.229,1.459,1.459,0,0,0-.063,2.185A5.741,5.741,0,0,0-970.025,1760.159Zm7.38-7.259c0-1.174-.572-1.872-1.53-1.861a1.494,1.494,0,0,0-1.478,1.7c0,1.157.6,1.892,1.527,1.878A1.537,1.537,0,0,0-962.645,1752.9Zm-11.569-.035c0-1.122-.552-1.8-1.469-1.826-.958-.025-1.521.62-1.515,1.737.006,1.145.531,1.815,1.442,1.84A1.543,1.543,0,0,0-974.214,1752.865Z" transform="translate(-38.343 -142.736)" fill="#fcd4be"/>
    <path id="Trazado_187621" data-name="Trazado 187621" d="M-661.022,1746.571a3.006,3.006,0,0,0,2.725-1.021c.253-.357.556-.042.8.032a23.931,23.931,0,0,0,5.8.946c.393.022.857.108,1.148-.154,1.017-.916,2.1-.552,3.2-.275.8.2,1.991-.14,2.337.517.326.619-.111,1.641-.218,2.485-.342,2.7-.618,5.405-1.047,8.089a9.039,9.039,0,0,1-8.941,7.481,9.083,9.083,0,0,1-8.965-7.345,37.458,37.458,0,0,1-.626-5.26A6.791,6.791,0,0,0-661.022,1746.571Zm5.725,13.192a5.76,5.76,0,0,0,4.565-2.148,1.488,1.488,0,0,0-.028-2.259,1.484,1.484,0,0,0-2.166.256c-1.556,1.6-3.057,1.594-4.642-.019a1.48,1.48,0,0,0-2.168-.222,1.468,1.468,0,0,0-.057,2.184A5.755,5.755,0,0,0-655.3,1759.762Zm-4.22-7.311c-.015-1.165-.614-1.849-1.583-1.809-.9.037-1.434.692-1.417,1.75.019,1.14.559,1.809,1.472,1.826A1.545,1.545,0,0,0-659.517,1752.451Zm11.541.009c-.008-1.159-.518-1.8-1.45-1.818s-1.547.664-1.539,1.742c.009,1.146.632,1.871,1.576,1.834C-648.509,1754.184-647.969,1753.512-647.976,1752.46Z" transform="translate(-291.449 -142.338)" fill="#fcd4be"/>
    <path id="Trazado_187622" data-name="Trazado 187622" d="M-779.278,1843.547c0,.786.044,1.576-.01,2.358a2.321,2.321,0,0,1-2.214,2.219,2.28,2.28,0,0,1-2.394-1.9,42.152,42.152,0,0,1-.1-5.2c-.008-.307.169-.386.442-.361a19.856,19.856,0,0,0,3.828,0c.455-.047.473.2.471.527-.005.786,0,1.573,0,2.36Z" transform="translate(-195.805 -218.77)" fill="#fcd4be"/>
    <path id="Trazado_187623" data-name="Trazado 187623" d="M-690.691,1734.438a4.437,4.437,0,0,1-1.252-.2.675.675,0,0,1-.541-.864c.261-1.878.521-3.757.724-5.642.058-.54.316-.612.753-.647a3.666,3.666,0,0,1,4.016,3.513A3.653,3.653,0,0,1-690.691,1734.438Z" transform="translate(-269.236 -127.651)" fill="#fcd4be"/>
    <path id="Trazado_187624" data-name="Trazado 187624" d="M-875.195,1734.432a3.648,3.648,0,0,1-3.739-3.869,3.649,3.649,0,0,1,3.946-3.489c.549.033.785.184.84.789.154,1.694.393,3.38.608,5.068.146,1.142.011,1.326-1.141,1.468C-874.875,1734.422-875.072,1734.424-875.195,1734.432Z" transform="translate(-119.666 -127.644)" fill="#fcd4be"/>
    <path id="Trazado_187625" data-name="Trazado 187625" d="M-836.516,1870.047v15.316a18.513,18.513,0,0,1-1.905-2.42c-.225-.3-.044-.632.045-.943.378-1.322.768-2.64,1.139-3.964.408-1.455-.149-2.309-1.644-2.231-1.093.057-1.151-.389-1.2-1.28a2.541,2.541,0,0,1,1.167-2.468C-838.116,1871.5-837.415,1870.811-836.516,1870.047Z" transform="translate(-150.837 -242.35)" fill="#a9f73f"/>
    <path id="Trazado_187626" data-name="Trazado 187626" d="M-721.309,1870.269c1.091.93,2.041,1.734,2.984,2.545a4.29,4.29,0,0,1,.444,2.94c-.206.315-.535.18-.811.189-1.914.059-2.4.708-1.873,2.551a11.364,11.364,0,0,0,.619,2.065c1.036,2.037.186,3.51-1.364,4.875Z" transform="translate(-246.122 -242.528)" fill="#a9f73f"/>
    <path id="Trazado_187627" data-name="Trazado 187627" d="M-620.85,1859.769a13.762,13.762,0,0,1-.011,1.573,1.387,1.387,0,0,1-1.416,1.358,1.4,1.4,0,0,1-1.438-1.433c-.042-.982,0-1.968-.019-2.952-.007-.373.106-.555.5-.5a4.447,4.447,0,0,0,.491.024C-620.838,1857.891-620.838,1857.891-620.85,1859.769Z" transform="translate(-324.401 -232.528)" fill="#fdcd63"/>
    <path id="Trazado_187628" data-name="Trazado 187628" d="M-935.219,1859.787c-.005-1.862,0-1.825,1.913-1.934.745-.042,1.059.09.981.91s0,1.638-.024,2.456a1.439,1.439,0,0,1-1.356,1.517,1.44,1.44,0,0,1-1.508-1.474C-935.25,1860.772-935.219,1860.278-935.219,1859.787Z" transform="translate(-74.504 -232.561)" fill="#fdcd63"/>
    <path id="Trazado_187629" data-name="Trazado 187629" d="M-1004.761,1776.182a2.413,2.413,0,0,1-2.525-2.29,2.457,2.457,0,0,1,2.164-2.582c.479-.052.727.082.778.6.109,1.1.235,2.208.41,3.3C-1003.811,1775.981-1004.145,1776.227-1004.761,1776.182Z" transform="translate(-16.697 -163.13)" fill="#fdcd63"/>
    <path id="Trazado_187630" data-name="Trazado 187630" d="M-550.725,1773.736a2.426,2.426,0,0,1-2.694,2.443c-.515-.055-.762-.242-.68-.808.167-1.163.306-2.33.431-3.5.057-.536.357-.619.813-.56A2.456,2.456,0,0,1-550.725,1773.736Z" transform="translate(-380.254 -163.127)" fill="#fdcd63"/>
    <path id="Trazado_187631" data-name="Trazado 187631" d="M-692.5,1782.494c.053.389.1.778.16,1.166.154,1.018-.024,1.216-1.048,1.161a2.348,2.348,0,0,1-2.219-2.75A8.367,8.367,0,0,0-692.5,1782.494Z" transform="translate(-266.735 -171.772)" fill="#fdcd63"/>
    <path id="Trazado_187632" data-name="Trazado 187632" d="M-895.624,1753.387a7.52,7.52,0,0,1-3.836-5.6c-.033-.194-.021-.394-.193-.533.63-.361,1.054-.327,1.176.524a6.253,6.253,0,0,0,2.356,4.131A1.147,1.147,0,0,1-895.624,1753.387Z" transform="translate(-103.047 -143.662)" fill="#fdcd63"/>
    <path id="Trazado_187633" data-name="Trazado 187633" d="M-862.358,1783.128c.34,1.516-1.257,2.695-2.594,2.548-.582-.064-.813-.279-.682-.877.1-.476.14-.967.206-1.451Z" transform="translate(-130.31 -172.62)" fill="#fdcd63"/>
    <path id="Trazado_187634" data-name="Trazado 187634" d="M-661.646,1751.067a6.791,6.791,0,0,1-3.788,5.494c-.293-.55-.165-.917.364-1.3a6.053,6.053,0,0,0,2.416-3.571C-662.5,1751.057-662.242,1750.859-661.646,1751.067Z" transform="translate(-290.825 -146.835)" fill="#fdcd63"/>
    <path id="Trazado_187635" data-name="Trazado 187635" d="M-861.476,1779.132l-3.07.219c-.108-.743.151-1.093.958-1.009a3.471,3.471,0,0,0,1.258-.12C-861.407,1777.964-861.3,1778.4-861.476,1779.132Z" transform="translate(-131.192 -168.624)" fill="#b86e3b"/>
    <path id="Trazado_187636" data-name="Trazado 187636" d="M-692.509,1779.22a8.367,8.367,0,0,1-3.107-.422c-.087-.723.208-.934.9-.737a3.651,3.651,0,0,0,1.242.152C-692.69,1778.154-692.387,1778.462-692.509,1779.22Z" transform="translate(-266.723 -168.498)" fill="#b86e3b"/>
    <path id="Trazado_187637" data-name="Trazado 187637" d="M-796.54,1767.051a7.08,7.08,0,0,1-5.693-2.8,1.462,1.462,0,0,1,.117-2.179,1.514,1.514,0,0,1,2.17.326c2.114,2.3,4.628,2.3,6.789-.013a1.514,1.514,0,0,1,2.172-.3,1.519,1.519,0,0,1,.083,2.193A7.247,7.247,0,0,1-796.54,1767.051Z" transform="translate(-180.858 -155.466)" fill="#030303"/>
    <path id="Trazado_187638" data-name="Trazado 187638" d="M-740.738,1734.346c-.013-1.1.575-1.816,1.474-1.808s1.462.727,1.49,1.929c.026,1.117-.523,1.815-1.442,1.835C-740.2,1736.324-740.722,1735.647-740.738,1734.346Z" transform="translate(-230.536 -132.033)" fill="#030303"/>
    <path id="Trazado_187639" data-name="Trazado 187639" d="M-814.936,1734.441c.014,1.177-.472,1.815-1.406,1.844-.982.031-1.546-.675-1.552-1.942,0-1.1.581-1.818,1.481-1.82C-815.489,1732.522-814.95,1733.223-814.936,1734.441Z" transform="translate(-168.638 -132.023)" fill="#030303"/>
    <path id="Trazado_187640" data-name="Trazado 187640" d="M-948.3,1798.75a5.741,5.741,0,0,1-4.469-2.208,1.459,1.459,0,0,1,.063-2.185,1.479,1.479,0,0,1,2.168.229c1.576,1.611,3.073,1.614,4.639.009a1.482,1.482,0,0,1,2.166-.246,1.476,1.476,0,0,1,.086,2.183A5.766,5.766,0,0,1-948.3,1798.75Z" transform="translate(-60.063 -181.327)" fill="#030303"/>
    <path id="Trazado_187641" data-name="Trazado 187641" d="M-903.2,1773.838a1.537,1.537,0,0,1-1.481,1.716c-.931.013-1.528-.721-1.527-1.878a1.494,1.494,0,0,1,1.478-1.7C-903.773,1771.966-903.2,1772.665-903.2,1773.838Z" transform="translate(-97.787 -163.674)" fill="#030303"/>
    <path id="Trazado_187642" data-name="Trazado 187642" d="M-961.609,1773.8a1.543,1.543,0,0,1-1.542,1.752c-.912-.026-1.437-.7-1.442-1.84-.006-1.117.557-1.762,1.515-1.737C-962.16,1772-961.613,1772.677-961.609,1773.8Z" transform="translate(-50.949 -163.67)" fill="#030303"/>
    <path id="Trazado_187643" data-name="Trazado 187643" d="M-636.8,1798.754a5.756,5.756,0,0,1-4.5-2.207,1.468,1.468,0,0,1,.057-2.184,1.48,1.48,0,0,1,2.168.222c1.585,1.612,3.086,1.618,4.642.019a1.484,1.484,0,0,1,2.166-.256,1.488,1.488,0,0,1,.028,2.259A5.761,5.761,0,0,1-636.8,1798.754Z" transform="translate(-309.95 -181.33)" fill="#030303"/>
    <path id="Trazado_187644" data-name="Trazado 187644" d="M-650.217,1773.781a1.545,1.545,0,0,1-1.528,1.767c-.913-.017-1.453-.686-1.472-1.826-.018-1.058.512-1.713,1.417-1.75C-650.831,1771.932-650.232,1772.616-650.217,1773.781Z" transform="translate(-300.749 -163.668)" fill="#030303"/>
    <path id="Trazado_187645" data-name="Trazado 187645" d="M-591.811,1773.794c.007,1.052-.532,1.724-1.413,1.758-.943.037-1.566-.688-1.576-1.834-.009-1.078.6-1.763,1.539-1.742S-591.819,1772.635-591.811,1773.794Z" transform="translate(-347.614 -163.672)" fill="#030303"/>
  </g>
</svg>
