<svg xmlns="http://www.w3.org/2000/svg" xmlns:xlink="http://www.w3.org/1999/xlink" width="330" height="195.5" viewBox="0 0 330 195.5">
  <defs>
    <clipPath id="clip-path">
      <path id="Rect치ngulo_37276" data-name="Rect치ngulo 37276" d="M80,0H330a0,0,0,0,1,0,0V115.5a80,80,0,0,1-80,80H0a0,0,0,0,1,0,0V80A80,80,0,0,1,80,0Z" transform="translate(905.5 1879.168)" fill="#2df0da"/>
    </clipPath>
  </defs>
  <g id="Grupo_128808" data-name="Grupo 128808" transform="translate(-905.5 -1879.168)">
    <path id="Rect치ngulo_37273" data-name="Rect치ngulo 37273" d="M80,0H330a0,0,0,0,1,0,0V78.5a80,80,0,0,1-80,80H0a0,0,0,0,1,0,0V80A80,80,0,0,1,80,0Z" transform="translate(905.5 1916.168)" fill="#2df0da"/>
    <g id="Enmascarar_grupo_120" data-name="Enmascarar grupo 120" clip-path="url(#clip-path)">
      <g id="Grupo_122098" data-name="Grupo 122098" transform="translate(1983.566 1243.428)">
        <path id="Trazado_183663" data-name="Trazado 183663" d="M-1016.664,791.892c-3.323-.655-6.009,2.454-7.392,3.839-5.617,5.612-18.992,12.4-23.773,17.828-3.116,3.537-2.728,6.951-3.1,7.979-.562,1.558-1.111,10.354-.945,13.354s.615,11.709-.072,16.077a48.063,48.063,0,0,0-1.427,9.073,3.177,3.177,0,0,0,1.5,2.714c.68.679,3.653-7.318,4.173-7.364a43.118,43.118,0,0,1,11.683.352c.761.15,1.668-.1,2.3.356,2.576,1.84,1.875,7.416,1.595,10.09-.854,8.1-1.595,24.6-1.595,24.6s-1.123,11.044,1.079,11.8c4.133,1.4,9.966.612,14.141.241,7.839-.693,15.672-1.907,23.54-2.3,4.115-.209,9.744-.47,15.746-.353s16.217,1.785,20.488,2.134,12.061,1.038,14.715-.35,2.03-6.935,1.794-8.514c-.19-1.266-1.317-7.08-1.5-8.336-1.064-7.085-2.713-15.291-2.713-15.291s-.8-18.976.855-27.7c.415-2.206.62-4.743,2.125-6.551.481-.574,1.754-.316,2.3-.353,1.873-.116,3.975-.664,5.841-.354,1.426.238,5.927,4.255,7.1,2.62,1.361-1.907-.421-8.058-.824-10.013-1.181-5.711-1.091-14.272-2.206-20a35.253,35.253,0,0,0-3.728-10.073c-2.152-3.876-7.117-5.191-10.82-6.9-6.825-3.153-13.481-4.669-20.846-6.247a16.508,16.508,0,0,1-3.845-.567c-3.76-1.381-8.74-3.86-10.679-2.4-2.336,1.75,1.44,6.846-.166,9.167-2.233,3.224-6.607,5.32-10.26,6.995-8.206,3.761-16.517,3.517-23.015-2.218C-1015.4,794.51-1013.341,792.547-1016.664,791.892Z" transform="translate(-4.238 -62.763)" fill="#a9f73f" fill-rule="evenodd"/>
        <path id="Trazado_183664" data-name="Trazado 183664" d="M-993,740.365s5.439-3.269,5.373-7.211c-.108-6.548-4.394-15.449-4.394-15.449s-6.558-1.034-8.761-6.536a4.5,4.5,0,0,1,1.309-5.583c1.629-1.265,3.158.17,3.78-2.328.363-1.439-.117-3.283-.343-4.693a31.6,31.6,0,0,1-.455-8.469,15.8,15.8,0,0,1,2.174-5.721c4.409-8.484,13.513-15.719,23.146-12.757,5.358,1.652,8.966,9.944,10.829,14.707,3.394,8.675,6.634,13.411,6.928,22.827.227,7.311-1.241,8.892-2.235,11.023-.7,1.51-4.547,3.714-4.547,3.714s2.338,3.534,4.1,4.166a24.219,24.219,0,0,0,3.326.946c.3,3.9-5.559,11.361-9.318,13.75a24.443,24.443,0,0,1-21.359,2.739c-2.706-.834-5.211-1.452-7.553-3.092A21.918,21.918,0,0,1-993,740.365Z" transform="translate(-29.657 -9.202)" fill="#fddab1" fill-rule="evenodd"/>
        <path id="Trazado_183665" data-name="Trazado 183665" d="M-872.834,731.18c-1.668-.01-1.943,3.012-2.065,3.752-.147.867-.211,3.689-.211,3.689s-2.8,2.036-2.57,3.669,2.589.675,2.589.675-.651,3.669,0,4.32a3.523,3.523,0,0,0-3.309-.378,6.355,6.355,0,0,0-1.666,1.389s.32-2.012-1.093-2.3c-.854-.172-2.01,1.424-2.467,2.065-.78,1.1-2.377,2.382-2.826,3.879-.3,1,.1,5.051-.083,5.925a25.714,25.714,0,0,0-.191,9.636c.559,3.346,2.963,5.939,4.237,9.336.835,2.224,2.442,6.946,2.442,6.946s1.24,6.939,1.482,8.64c.941,6.577,1.516,9.254,1.805,13.629.183,2.74,1.041,7.557,1.27,10.314.3,3.633.4,8.715,1.052,12.284a55.039,55.039,0,0,0,1.728,8.045c.837,2.231.9,3.55,1.73,5.824,1.269,3.489,3.518,5.68,6.024,8.025,1.717,1.6,3.9,4.6,6.292,5.7,2.257,1.042,5.244.337,7.64-1.591a15.424,15.424,0,0,0,3.935-5.4c1.482-3.351,2.865-4.033,3.53-7.023.777-3.5.277-4.777-.11-8.247a64.988,64.988,0,0,0-1.872-7.057c-.627-2.293-1.231-5.39-1.546-7.028-.532-2.764-1.446-10.118-1.446-10.118s-2.955-.31-4.112-.4a26.619,26.619,0,0,0-5.057.189s-2.579-4.286-3.047-5.222a77.614,77.614,0,0,1-5.75-15.42c-.606-2.422-.821-8.789-1.365-11.232-1.381-6.213-1.686-6.15-.544-12.431a48.9,48.9,0,0,1,2.256-7.126c.9-2.47.343-6.235.611-9.907.151-2.069.564-4.664.254-6.219-.659-3.287-2.138-.861-4.006-3.351a6.444,6.444,0,0,0-1.919-1.6S-871.164,731.189-872.834,731.18Zm-6.4,23.7,1.99.854.589,2.906s-2.458,1.286-3,.772c-.072-.067-.8-.48-.8-.48l-.212-2.963Z" transform="translate(-85.287 -38.563)" fill="#fddab1" fill-rule="evenodd"/>
        <path id="Trazado_183666" data-name="Trazado 183666" d="M-1025.325,918.277a39.675,39.675,0,0,1,.8,5.3c.162,1.576.376,3.965.376,5.106,0,.631.331,4.926.331,4.926s13.152.41,18.926-.146c10.174-.975,18.466-.986,28.337-3.584,1.668-.438,4.066-1.778,6.641-2.509s5.338-.867,6.8-1.84a12.864,12.864,0,0,0,3.915-4.82,30.715,30.715,0,0,0,1.7-4.745,11.362,11.362,0,0,1,2.787-3.847,37.711,37.711,0,0,0,1.815,5.474,96.373,96.373,0,0,1,4.512,10.309c1.362,3.409,3.8,10.546,3.8,10.546a49.529,49.529,0,0,1-6.9,1.179c-1.965,0-3.259-.375-5.168-.209a76.548,76.548,0,0,0-11.845,2.4c-3.491.9-6.2,2.694-9.446,4.209-4.842,2.259-10.713,6.24-15.722,8.119-9.566,3.59-19.1,4.879-29.226,5.891-4.615.462-10.244,1.475-14.115,1.511-1.355.013-2.682.034-3.56-1.174a17.531,17.531,0,0,1-2.316-4.043c-.747-2.239-1.253-3.132-1.867-5.43-.458-1.715-1.585-4.746-2.175-6.394a73.184,73.184,0,0,1-2.9-13.238c-.438-3.062-.587-10.61-.587-10.61a50.164,50.164,0,0,1,6.911-3.526,28.831,28.831,0,0,1,11.406-.622c1.291.213,3.311.695,4.57.944C-1027.408,917.485-1025.325,918.277-1025.325,918.277Z" transform="translate(-5.678 -126.756)" fill="#fddab1" fill-rule="evenodd"/>
        <path id="Trazado_183667" data-name="Trazado 183667" d="M-1012.745,690.112a25.183,25.183,0,0,1-2.608-4.96c-1.031-3.354-.517-5.906.328-9.49.9-3.808,3.432-5.249,5.949-7.807,2.275-2.311,2.676-5.4,5.6-7.149,2.321-1.395,6.743-3.4,9.5-3.8,2.208-.314,4.52.056,6.719-.257,2.036-.291,5.524.276,7.845.4,1.661.093,2.233-.572,3.523.5,2.342,1.952,4.559,3.77,5.121,6.734.506,2.679-1.484,5.649-1.484,5.649s-3.043-3.584-5.978-3.947c-1.388-.172-2.582,1.291-4.969,1.635-2.658.38-6.507-.333-7.777-.079-2.328.467-2.941,4.336-4.96,5.686-1.225.818-2.805.55-3.986,2.028-1.736,2.169-.893,5-.987,7.518-.1,2.662-1.475,4.942-1.475,7.764,0,2.1,1.732,5.7.867,7.715-.465,1.09-2.3.181-3.149.181a19.7,19.7,0,0,0-2.462.506S-1011.084,692.724-1012.745,690.112Z" transform="translate(-22.489 -2.197)" fill="#12263f" fill-rule="evenodd"/>
        <g id="Grupo_121998" data-name="Grupo 121998" transform="translate(-965.073 715.785)">
          <path id="Trazado_183668" data-name="Trazado 183668" d="M-871.545,791.482a.507.507,0,0,1-.5-.446c-.494-4.115.2-6.35.657-7.313.066-.142.17-.342.29-.573a10.58,10.58,0,0,0,.887-2,4.177,4.177,0,0,0-.318-1.9,6.6,6.6,0,0,1-.229-1.065c-.12-.036-.245-.071-.318-.092a5.09,5.09,0,0,1-1.57-.812.507.507,0,0,1-.079-.714.506.506,0,0,1,.711-.077,4.08,4.08,0,0,0,1.21.628c.179.049.645.186.645.186a.511.511,0,0,1,.36.426,7.364,7.364,0,0,0,.222,1.169,5.283,5.283,0,0,1,.369,2.389,9.362,9.362,0,0,1-.992,2.329c-.113.217-.211.407-.273.541-.331.7-1.048,2.749-.566,6.761a.51.51,0,0,1-.44.562Z" transform="translate(872.84 -776.38)"/>
        </g>
        <g id="Grupo_121999" data-name="Grupo 121999" transform="translate(-969.691 710.5)">
          <path id="Trazado_183669" data-name="Trazado 183669" d="M-879.6,778.041a1.422,1.422,0,0,1-.571-.122c-.629-.274-.855-1.116-1.036-1.957l-.028-.134c-.06-.267-.127-.532-.194-.8a6.316,6.316,0,0,1-.075-4.244,8.475,8.475,0,0,1,1.647-2.246c.264-.288.522-.568.75-.852a3.642,3.642,0,0,0,.246-.357,2.893,2.893,0,0,1,.673-.8,2.754,2.754,0,0,1,1.54-.456c2,0,3.746,1.267,5.284,2.379.306.218.6.434.889.632a18.516,18.516,0,0,0,1.868,1.073c.321.171.646.34.963.518a2.406,2.406,0,0,1,1.5,1.779.505.505,0,0,1-.447.558.508.508,0,0,1-.558-.45c-.047-.447-.407-.677-.988-1-.309-.176-.624-.338-.939-.505a20.007,20.007,0,0,1-1.968-1.134c-.3-.2-.6-.423-.908-.648-1.417-1.022-3.02-2.182-4.693-2.185h0a1.607,1.607,0,0,0-.926.251,1.958,1.958,0,0,0-.432.541,4.562,4.562,0,0,1-.309.443c-.243.306-.516.6-.795.906a7.72,7.72,0,0,0-1.465,1.963,5.48,5.48,0,0,0,.127,3.593c.07.277.14.553.2.829l.03.139c.2.93.355,1.189.452,1.242.458.2.8-.543.836-.629a4.776,4.776,0,0,0,.261-3.239.508.508,0,0,1,.3-.65.505.505,0,0,1,.65.3,5.78,5.78,0,0,1-.282,3.993A1.846,1.846,0,0,1-879.6,778.041Z" transform="translate(881.849 -766.07)"/>
        </g>
        <g id="Grupo_122000" data-name="Grupo 122000" transform="translate(-966.419 715.781)">
          <path id="Trazado_183670" data-name="Trazado 183670" d="M-874.96,778.372a.52.52,0,0,1-.316-.111.507.507,0,0,1-.078-.711,3.766,3.766,0,0,1,.6-.567,3.112,3.112,0,0,0,.458-.422.5.5,0,0,1,.709-.077.5.5,0,0,1,.078.709,3.877,3.877,0,0,1-.608.577,2.839,2.839,0,0,0-.446.412A.507.507,0,0,1-874.96,778.372Z" transform="translate(875.465 -776.371)"/>
        </g>
        <g id="Grupo_122001" data-name="Grupo 122001" transform="translate(-963.016 715.938)">
          <path id="Trazado_183671" data-name="Trazado 183671" d="M-868.322,778.37a.507.507,0,0,1-.5-.451.5.5,0,0,1,.448-.559,1.31,1.31,0,0,0,.858-.489.506.506,0,0,1,.713-.08.509.509,0,0,1,.08.711,2.353,2.353,0,0,1-1.541.863C-868.284,778.366-868.3,778.37-868.322,778.37Z" transform="translate(868.827 -776.679)"/>
        </g>
        <g id="Grupo_122002" data-name="Grupo 122002" transform="translate(-965.482 714.375)">
          <path id="Trazado_183672" data-name="Trazado 183672" d="M-872.97,776.114a.506.506,0,0,1-.5-.451l-.163-1.474a.506.506,0,0,1,.449-.557.508.508,0,0,1,.559.448l.162,1.474a.51.51,0,0,1-.452.558A.454.454,0,0,1-872.97,776.114Z" transform="translate(873.638 -773.629)"/>
        </g>
        <g id="Grupo_122003" data-name="Grupo 122003" transform="translate(-968.648 707.855)">
          <path id="Trazado_183673" data-name="Trazado 183673" d="M-879.307,767.766a.518.518,0,0,1-.175-.03.507.507,0,0,1-.3-.651,8.685,8.685,0,0,1,1.692-2.514,11.408,11.408,0,0,0,1.186-1.552c.056-.1.113-.193.167-.293a2.957,2.957,0,0,1,1.643-1.624c2.392-.76,4.748.883,6.639,2.2.464.325.9.63,1.312.883a6.406,6.406,0,0,0,.851.392,5.078,5.078,0,0,1,2.981,2.324.505.505,0,0,1-.245.672.5.5,0,0,1-.671-.243,4.152,4.152,0,0,0-2.45-1.818,7.583,7.583,0,0,1-1-.462c-.434-.272-.883-.583-1.36-.915-1.8-1.254-3.838-2.678-5.757-2.069-.5.159-.763.622-1.063,1.156-.059.106-.118.211-.18.313a12.6,12.6,0,0,1-1.286,1.694,7.789,7.789,0,0,0-1.513,2.208A.5.5,0,0,1-879.307,767.766Z" transform="translate(879.813 -760.909)"/>
        </g>
        <g id="Grupo_122004" data-name="Grupo 122004" transform="translate(-972.733 706.897)">
          <path id="Trazado_183674" data-name="Trazado 183674" d="M-857.28,870.665c-3.285,0-4.957-1.982-7-4.389-.7-.826-1.421-1.682-2.287-2.56-4.068-4.136-6.222-7.978-7.206-12.843-.725-3.577-2.413-12.6-2.474-19.006-.016-2-1.137-10.561-2.035-17.433-.381-2.9-.721-5.505-.928-7.218a94,94,0,0,0-3.15-14.95,38.619,38.619,0,0,0-3.033-6.089l-.085-.148c-1.467-2.57-2.145-4.153-2.284-6.744a45.957,45.957,0,0,1,.263-5.947c.086-1.025.175-2.055.229-3.057.033-.552.025-1.134.017-1.7a16.845,16.845,0,0,1,.09-2.552c.22-1.624,1.423-3.028,2.484-4.267.234-.273.46-.541.666-.8a5.183,5.183,0,0,0,.309-.455,2.952,2.952,0,0,1,1.274-1.321,1.68,1.68,0,0,1,1.731.182c1.09.871.851,3,.848,3.023a.512.512,0,0,1-.57.432.5.5,0,0,1-.433-.568c.059-.443.007-1.709-.477-2.1-.065-.049-.255-.2-.749-.024-.249.094-.55.569-.77.914a6.118,6.118,0,0,1-.373.55c-.214.265-.448.535-.688.819-.97,1.134-2.07,2.419-2.252,3.748a16.639,16.639,0,0,0-.079,2.4c.008.581.018,1.181-.014,1.768-.059,1.01-.147,2.049-.236,3.085a44.7,44.7,0,0,0-.259,5.807c.13,2.4.74,3.822,2.15,6.3l.086.148a38.83,38.83,0,0,1,3.12,6.287A95.26,95.26,0,0,1-878.2,807.1c.206,1.709.546,4.315.925,7.209.9,6.9,2.027,15.485,2.046,17.551.059,6.323,1.734,15.267,2.451,18.816.944,4.66,3.02,8.346,6.938,12.332.893.905,1.662,1.817,2.339,2.619,2.356,2.788,3.911,4.627,7.951,3.848,4.154-.794,5.428-3.077,7.967-7.624.567-1.018,1.211-2.17,1.958-3.43,3.007-5.079.809-12.519-.956-18.5l-.367-1.246a107.922,107.922,0,0,1-2.395-14.931.5.5,0,0,1,.464-.543.513.513,0,0,1,.545.464,106.47,106.47,0,0,0,2.356,14.728l.365,1.244c1.825,6.166,4.092,13.841.858,19.3-.738,1.248-1.379,2.4-1.945,3.408-2.606,4.667-4.042,7.24-8.659,8.124A9.925,9.925,0,0,1-857.28,870.665Z" transform="translate(887.783 -759.039)"/>
        </g>
        <g id="Grupo_122005" data-name="Grupo 122005" transform="translate(-960.974 692.141)">
          <path id="Trazado_183675" data-name="Trazado 183675" d="M-864.291,747.25a.5.5,0,0,1-.5-.45,21.069,21.069,0,0,1,.116-3.848,23,23,0,0,0,.149-3.083,42.528,42.528,0,0,1,.053-5.508c.058-.727.47-2.982,1.57-3.8a1.526,1.526,0,0,1,1.264-.276c1.435.321,1.4,2.435,1.371,4.48a14.28,14.28,0,0,0,.07,2.243,48.566,48.566,0,0,1,.509,5.6c.067,1.266.131,2.575.279,3.905a.5.5,0,0,1-.448.557.5.5,0,0,1-.558-.447c-.15-1.357-.217-2.682-.282-3.963a47.16,47.16,0,0,0-.5-5.482,14.507,14.507,0,0,1-.084-2.423c.021-1.328.051-3.335-.58-3.477a.506.506,0,0,0-.443.1c-.68.5-1.1,2.271-1.16,3.061a41.379,41.379,0,0,0-.054,5.369,23.94,23.94,0,0,1-.148,3.229,20.591,20.591,0,0,0-.121,3.651.506.506,0,0,1-.448.559Z" transform="translate(864.843 -730.251)"/>
        </g>
        <g id="Grupo_122006" data-name="Grupo 122006" transform="translate(-963.464 699.335)">
          <path id="Trazado_183676" data-name="Trazado 183676" d="M-867.709,749.943a2.109,2.109,0,0,1-1.491-.545,1.628,1.628,0,0,1-.429-1.656c.409-1.4,2.472-3.143,2.7-3.336a.5.5,0,0,1,.711.064.506.506,0,0,1-.064.713,8.941,8.941,0,0,0-2.382,2.846.618.618,0,0,0,.16.641,1.538,1.538,0,0,0,1.539.13.508.508,0,0,1,.64.324.506.506,0,0,1-.322.639A3.474,3.474,0,0,1-867.709,749.943Z" transform="translate(869.7 -744.288)"/>
        </g>
        <g id="Grupo_122007" data-name="Grupo 122007" transform="translate(-957.153 698.237)">
          <path id="Trazado_183677" data-name="Trazado 183677" d="M-831.768,843.825l-.048,0a.509.509,0,0,1-.458-.554c.692-7.164-4.148-15.663-5.968-18.861-.167-.291-.311-.543-.426-.749-1.118-2.021-2.36-4.025-3.561-5.965-1.4-2.26-2.848-4.595-4.124-6.987a62.335,62.335,0,0,1-6.517-18.133c-.238-1.416-.343-2.86-.444-4.255-.092-1.293-.189-2.624-.392-3.917-.143-.911-.373-1.824-.6-2.706a25.641,25.641,0,0,1-.708-3.5c-.583-5.313,1.005-10.153,2.978-15.475a14.473,14.473,0,0,0,.4-5.6c-.037-.652-.071-1.291-.075-1.895a22.4,22.4,0,0,1,.182-2.622c.06-.56.121-1.116.153-1.662.015-.283.044-.579.073-.884a6.821,6.821,0,0,0-.043-2.478c-.31-1.054-1.6-1.871-2.74-2.589-.356-.225-.7-.438-.984-.647-.191-.139-.385-.3-.576-.452-.442-.365-.916-.755-1.231-.734a.512.512,0,0,1-.516-.5.508.508,0,0,1,.5-.513,3.111,3.111,0,0,1,1.892.962c.173.144.35.289.524.417.273.2.593.4.932.612,1.226.773,2.75,1.736,3.171,3.156a7.626,7.626,0,0,1,.079,2.865c-.028.289-.055.573-.072.841-.031.568-.093,1.138-.156,1.716a21.64,21.64,0,0,0-.175,2.506c.005.586.037,1.208.074,1.848a15.31,15.31,0,0,1-.464,6c-1.927,5.2-3.478,9.921-2.919,15.017a25.09,25.09,0,0,0,.684,3.362c.228.905.464,1.842.615,2.8.21,1.334.308,2.691.4,4,.1,1.369.2,2.791.432,4.159a61.3,61.3,0,0,0,6.411,17.826c1.26,2.363,2.7,4.684,4.09,6.933,1.207,1.946,2.457,3.964,3.587,6.007.115.2.256.451.418.738,1.868,3.277,6.819,11.978,6.1,19.46A.508.508,0,0,1-831.768,843.825Z" transform="translate(857.388 -742.145)"/>
        </g>
        <g id="Grupo_122008" data-name="Grupo 122008" transform="translate(-956.774 702.179)">
          <path id="Trazado_183678" data-name="Trazado 183678" d="M-855.477,751.772a.506.506,0,0,1-.426-.232c-.094-.147-.2-.283-.307-.424-.122-.161-.246-.325-.358-.5a.5.5,0,0,1,.152-.7.506.506,0,0,1,.7.15c.1.153.2.294.313.438.12.159.241.318.35.486a.5.5,0,0,1-.152.7A.5.5,0,0,1-855.477,751.772Z" transform="translate(856.649 -749.836)"/>
        </g>
        <g id="Grupo_122009" data-name="Grupo 122009" transform="translate(-956.727 702.099)">
          <path id="Trazado_183679" data-name="Trazado 183679" d="M-856.051,757.521a.508.508,0,0,1-.107-.012.5.5,0,0,1-.387-.6c.317-1.476.605-3.417.609-3.435a22.69,22.69,0,0,1,.524-3.464.507.507,0,0,1,.65-.3.5.5,0,0,1,.3.65,23.137,23.137,0,0,0-.471,3.232c0,.047-.3,2.022-.621,3.531A.509.509,0,0,1-856.051,757.521Z" transform="translate(856.557 -749.679)"/>
        </g>
        <g id="Grupo_122010" data-name="Grupo 122010" transform="translate(-997.909 664.763)">
          <path id="Trazado_183680" data-name="Trazado 183680" d="M-929.045,689.565a.514.514,0,0,1-.458-.286c-.173-.362-.375-.817-.608-1.337-1.213-2.727-3.241-7.287-6.613-10.215a.5.5,0,0,1-.051-.712.507.507,0,0,1,.714-.052c3.54,3.074,5.629,7.767,6.876,10.568.226.508.424.952.6,1.308a.506.506,0,0,1-.237.675A.5.5,0,0,1-929.045,689.565Z" transform="translate(936.9 -676.84)"/>
        </g>
        <g id="Grupo_122011" data-name="Grupo 122011" transform="translate(-1013.456 683.023)">
          <path id="Trazado_183681" data-name="Trazado 183681" d="M-949.919,745.433c-7.735,0-15.493-3.72-17.116-4.979a.5.5,0,0,1-.088-.711.5.5,0,0,1,.708-.09c2.041,1.585,15.344,7.635,24.194,3.092,7.512-3.857,4.971-19.619.769-29.577a.506.506,0,0,1,.27-.665.505.505,0,0,1,.662.268c4.055,9.611,7.3,26.488-1.239,30.874A17.764,17.764,0,0,1-949.919,745.433Z" transform="translate(967.231 -712.464)"/>
        </g>
        <g id="Grupo_122012" data-name="Grupo 122012" transform="translate(-1031.348 695.779)">
          <path id="Trazado_183682" data-name="Trazado 183682" d="M-993.119,750.554a7.516,7.516,0,0,1-4-1.3c-2.812-1.794-4.97-5.048-5.016-7.57a4.267,4.267,0,0,1,1.495-3.7c1.149-.823,2.842-.841,5.034-.053a.506.506,0,0,1,.306.647.5.5,0,0,1-.647.3c-1.861-.67-3.241-.694-4.1-.076a3.45,3.45,0,0,0-1.072,2.861c.04,2.176,2.038,5.135,4.549,6.736,1.833,1.168,3.653,1.452,5.127.8a.507.507,0,0,1,.667.259.507.507,0,0,1-.257.666A5.1,5.1,0,0,1-993.119,750.554Z" transform="translate(1002.137 -737.349)"/>
        </g>
        <g id="Grupo_122013" data-name="Grupo 122013" transform="translate(-1027.07 701.324)">
          <path id="Trazado_183683" data-name="Trazado 183683" d="M-991.083,750.307a.5.5,0,0,1-.168-.029,7.31,7.31,0,0,1-1.186-.6,6.355,6.355,0,0,0-1.021-.524.509.509,0,0,1-.3-.648.5.5,0,0,1,.646-.305,7.345,7.345,0,0,1,1.192.606,6.511,6.511,0,0,0,1.012.52.507.507,0,0,1,.307.646A.51.51,0,0,1-991.083,750.307Z" transform="translate(993.791 -748.167)"/>
        </g>
        <g id="Grupo_122014" data-name="Grupo 122014" transform="translate(-997.777 656.256)">
          <path id="Trazado_183684" data-name="Trazado 183684" d="M-933.591,671.918a.514.514,0,0,1-.329-.12.509.509,0,0,1-.061-.714,6.439,6.439,0,0,0,.948-6.367c-.654-1.855-1.91-3.218-3.2-3.47a.507.507,0,0,1-.4-.594.507.507,0,0,1,.6-.4c1.636.322,3.19,1.942,3.959,4.13a7.438,7.438,0,0,1-1.126,7.354A.505.505,0,0,1-933.591,671.918Z" transform="translate(936.643 -660.243)"/>
        </g>
        <g id="Grupo_122015" data-name="Grupo 122015" transform="translate(-1030.908 652.063)">
          <path id="Trazado_183685" data-name="Trazado 183685" d="M-1000.765,665.784a.507.507,0,0,1-.506-.47c-.128-1.931,1.3-4.456,2.715-5.851,4.666-4.62,11.8-6.44,21.8-5.564.3.026.674.078,1.089.136,2.862.4,5.7.605,6.228-1.584a.507.507,0,0,1,.61-.374.5.5,0,0,1,.374.612c-.786,3.259-4.894,2.691-7.352,2.347-.395-.052-.748-.1-1.036-.128-9.687-.848-16.558.875-21,5.273-1.45,1.432-2.512,3.657-2.417,5.063a.5.5,0,0,1-.471.54Z" transform="translate(1001.279 -652.063)"/>
        </g>
        <g id="Grupo_122016" data-name="Grupo 122016" transform="translate(-1034.517 663.161)">
          <path id="Trazado_183686" data-name="Trazado 183686" d="M-1006.127,677.375a.5.5,0,0,1-.293-.093,6.513,6.513,0,0,1-1.886-2.943.5.5,0,0,1,.377-.609.5.5,0,0,1,.609.375,5.715,5.715,0,0,0,1.485,2.353.5.5,0,0,1,.118.706A.507.507,0,0,1-1006.127,677.375Z" transform="translate(1008.32 -673.715)"/>
        </g>
        <g id="Grupo_122017" data-name="Grupo 122017" transform="translate(-1029.896 666.884)">
          <path id="Trazado_183687" data-name="Trazado 183687" d="M-991.3,684.028a.5.5,0,0,1-.259-.073,11.627,11.627,0,0,0-7.173-1.9.505.505,0,0,1-.568-.435.505.505,0,0,1,.434-.567,12.633,12.633,0,0,1,7.826,2.041.5.5,0,0,1,.175.693A.506.506,0,0,1-991.3,684.028Z" transform="translate(999.304 -680.978)"/>
        </g>
        <g id="Grupo_122018" data-name="Grupo 122018" transform="translate(-1002.018 657.89)">
          <path id="Trazado_183688" data-name="Trazado 183688" d="M-942.71,669.632a.5.5,0,0,1-.354-.143.509.509,0,0,1-.012-.716,2.6,2.6,0,0,0,.3-2.491,2.569,2.569,0,0,0-1.731-1.851.5.5,0,0,1-.4-.592.5.5,0,0,1,.592-.4,3.471,3.471,0,0,1,2.5,2.541,3.564,3.564,0,0,1-.538,3.495A.506.506,0,0,1-942.71,669.632Z" transform="translate(944.917 -663.431)"/>
        </g>
        <g id="Grupo_122019" data-name="Grupo 122019" transform="translate(-1017.041 662.172)">
          <path id="Trazado_183689" data-name="Trazado 183689" d="M-973.719,679.477h-.043a.51.51,0,0,1-.461-.548c.424-4.963,3.714-4.747,6.9-4.541,2.862.188,5.818.378,7.916-2.4a.506.506,0,0,1,.708-.1.505.505,0,0,1,.1.708c-2.426,3.218-5.954,2.987-8.787,2.8-3.3-.212-5.482-.355-5.823,3.62A.5.5,0,0,1-973.719,679.477Z" transform="translate(974.224 -671.785)"/>
        </g>
        <g id="Grupo_122020" data-name="Grupo 122020" transform="translate(-1038.918 667.965)">
          <path id="Trazado_183690" data-name="Trazado 183690" d="M-1013.246,703.207a.505.505,0,0,1-.4-.2c-3.091-4.044-3.952-8.383-2.711-13.657.319-1.364,1.88-5.076,3.849-6.2a.508.508,0,0,1,.691.19.508.508,0,0,1-.191.689c-1.539.876-3.03,4.125-3.366,5.55-1.182,5.022-.4,8.975,2.531,12.809a.506.506,0,0,1-.095.711A.509.509,0,0,1-1013.246,703.207Z" transform="translate(1016.906 -683.087)"/>
        </g>
        <g id="Grupo_122021" data-name="Grupo 122021" transform="translate(-1034.702 689.756)">
          <path id="Trazado_183691" data-name="Trazado 183691" d="M-1003.644,733a.508.508,0,0,1-.4-.2,72.44,72.44,0,0,1-4.6-6.5.506.506,0,0,1,.274-.661.5.5,0,0,1,.661.276,69.029,69.029,0,0,0,4.462,6.268.508.508,0,0,1-.093.712A.5.5,0,0,1-1003.644,733Z" transform="translate(1008.681 -725.6)"/>
        </g>
        <g id="Grupo_122022" data-name="Grupo 122022" transform="translate(-1020.61 666.396)">
          <path id="Trazado_183692" data-name="Trazado 183692" d="M-979.344,685.043a.509.509,0,0,1-.41-.208,6.08,6.08,0,0,1-1.4-4.366.512.512,0,0,1,.562-.441.507.507,0,0,1,.442.564,5.118,5.118,0,0,0,1.213,3.646.509.509,0,0,1-.111.709A.517.517,0,0,1-979.344,685.043Z" transform="translate(981.188 -680.025)"/>
        </g>
        <g id="Grupo_122023" data-name="Grupo 122023" transform="translate(-1025.398 687.063)">
          <path id="Trazado_183693" data-name="Trazado 183693" d="M-988.861,728.384a.512.512,0,0,1-.434-.245c-1.195-2-1.223-5.487-1.236-7.165v-.12a.5.5,0,0,1,.5-.508h0a.507.507,0,0,1,.5.5v.119c.013,1.587.038,4.886,1.091,6.652a.5.5,0,0,1-.174.693A.5.5,0,0,1-988.861,728.384Z" transform="translate(990.53 -720.346)"/>
        </g>
        <g id="Grupo_122024" data-name="Grupo 122024" transform="translate(-1028.895 671.465)">
          <path id="Trazado_183694" data-name="Trazado 183694" d="M-996.847,705.556a.506.506,0,0,1-.505-.506.506.506,0,0,1,.505-.506,4.127,4.127,0,0,0,3.187-1.254,6.938,6.938,0,0,0,1.331-5.251c-.165-1.981-.214-5.556,1.333-7.238a2.64,2.64,0,0,1,2.016-.885.508.508,0,0,1,.505.5.509.509,0,0,1-.505.508,1.634,1.634,0,0,0-1.271.557c-.927,1.005-1.326,3.424-1.068,6.47.121,1.465.078,4.2-1.6,6.02A5.11,5.11,0,0,1-996.847,705.556Z" transform="translate(997.352 -689.915)"/>
        </g>
        <g id="Grupo_122025" data-name="Grupo 122025" transform="translate(-996.759 678.076)">
          <path id="Trazado_183695" data-name="Trazado 183695" d="M-930.289,715.973a.5.5,0,0,1-.31-.1.5.5,0,0,1-.091-.708c.162-.259,1.057-2.42.588-3.423a3.166,3.166,0,0,0-1.428-1.31,8.291,8.291,0,0,1-1.552-1.133c-1.249-1.2-1.867-3.814-1.441-6.072a.508.508,0,0,1,.591-.4.505.505,0,0,1,.4.592,6.337,6.337,0,0,0,1.149,5.155,7.4,7.4,0,0,0,1.376,1,4.009,4.009,0,0,1,1.817,1.745c.719,1.532-.492,4.195-.7,4.469A.5.5,0,0,1-930.289,715.973Z" transform="translate(934.657 -702.811)"/>
        </g>
        <g id="Grupo_122026" data-name="Grupo 122026" transform="translate(-998.817 695.174)">
          <path id="Trazado_183696" data-name="Trazado 183696" d="M-938.166,743.057a.506.506,0,0,1-.489-.379.5.5,0,0,1,.361-.618,10.579,10.579,0,0,0,3.978-2.471,21.037,21.037,0,0,1,2.014-1.569,8.088,8.088,0,0,1,2.965-1.136,4.145,4.145,0,0,0,1.688-.616.505.505,0,0,1,.708.107.506.506,0,0,1-.108.706,4.986,4.986,0,0,1-2.076.79,7.049,7.049,0,0,0-2.623,1,19.923,19.923,0,0,0-1.914,1.493,11.374,11.374,0,0,1-4.375,2.677A.476.476,0,0,1-938.166,743.057Z" transform="translate(938.672 -736.169)"/>
        </g>
        <g id="Grupo_122027" data-name="Grupo 122027" transform="translate(-992.741 698.674)">
          <path id="Trazado_183697" data-name="Trazado 183697" d="M-926.312,746.7a.492.492,0,0,1-.352-.146.5.5,0,0,1-.009-.715,5.8,5.8,0,0,0,.51-.654,4.653,4.653,0,0,1,2.8-2.177.5.5,0,0,1,.6.391.5.5,0,0,1-.389.6,3.706,3.706,0,0,0-2.188,1.774,6.781,6.781,0,0,1-.611.777A.51.51,0,0,1-926.312,746.7Z" transform="translate(926.817 -742.997)"/>
        </g>
        <g id="Grupo_122028" data-name="Grupo 122028" transform="translate(-1010.503 680.544)">
          <path id="Trazado_183698" data-name="Trazado 183698" d="M-960.966,709.573a.5.5,0,0,1-.452-.28.506.506,0,0,1,.228-.677,5.624,5.624,0,0,1,4.221-.493c.823.184,1.274.283,1.965-.359a.506.506,0,0,1,.715.026.506.506,0,0,1-.025.716,2.721,2.721,0,0,1-2.874.606,4.62,4.62,0,0,0-3.552.41A.512.512,0,0,1-960.966,709.573Z" transform="translate(961.47 -707.628)"/>
        </g>
        <g id="Grupo_122029" data-name="Grupo 122029" transform="translate(-1003.192 680.44)">
          <path id="Trazado_183699" data-name="Trazado 183699" d="M-946.7,709.569a.516.516,0,0,1-.239-.059.51.51,0,0,1-.207-.686l.609-1.133a.508.508,0,0,1,.684-.206.506.506,0,0,1,.208.685l-.609,1.133A.5.5,0,0,1-946.7,709.569Z" transform="translate(947.206 -707.425)"/>
        </g>
        <g id="Grupo_122030" data-name="Grupo 122030" transform="translate(-994.565 675.333)">
          <path id="Trazado_183700" data-name="Trazado 183700" d="M-929.612,701a2.155,2.155,0,0,1-.328-.026.5.5,0,0,1-.432-.568.5.5,0,0,1,.568-.433c.522.068.639-.1.976-.7a3.045,3.045,0,0,1,2.329-1.8.508.508,0,0,1,.584.413.5.5,0,0,1-.411.585,2.086,2.086,0,0,0-1.621,1.3A1.846,1.846,0,0,1-929.612,701Z" transform="translate(930.377 -697.461)"/>
        </g>
        <g id="Grupo_122031" data-name="Grupo 122031" transform="translate(-1022.775 710.748)">
          <path id="Trazado_183701" data-name="Trazado 183701" d="M-984.906,786.951a.5.5,0,0,1-.474-.331.506.506,0,0,1,.3-.648c1.877-.693,4.1-1.814,4.655-4.359.592-2.719-.423-8.97-3.095-14.326a.509.509,0,0,1,.228-.682.506.506,0,0,1,.679.228c2.808,5.629,3.82,12.046,3.178,15-.746,3.411-4.05,4.631-5.3,5.09A.517.517,0,0,1-984.906,786.951Z" transform="translate(985.411 -766.553)"/>
        </g>
        <g id="Grupo_122032" data-name="Grupo 122032" transform="translate(-990.498 714.273)">
          <path id="Trazado_183702" data-name="Trazado 183702" d="M-914.375,779.191c-.024,0-.048,0-.071,0-3.3-.478-6.551-1.423-7.961-5.067a.5.5,0,0,1,.289-.655.5.5,0,0,1,.651.289c1.289,3.317,4.373,4.026,7.164,4.43a.505.505,0,0,1,.428.575A.508.508,0,0,1-914.375,779.191Z" transform="translate(922.443 -773.431)"/>
        </g>
        <g id="Grupo_122033" data-name="Grupo 122033" transform="translate(-1034.879 785.116)">
          <path id="Trazado_183703" data-name="Trazado 183703" d="M-998.154,934.191c-5.052,0-9.133-.438-10.737-2.161a.5.5,0,0,1,.026-.713.505.505,0,0,1,.715.025c2.1,2.257,10.649,1.913,18.191,1.611,1.316-.052,2.625-.107,3.895-.144,5.322-.167,12.476-.792,18.668-1.632q.857-.118,1.679-.224a59.51,59.51,0,0,0,8.329-1.5,27.52,27.52,0,0,0,3.9-1.433,17.18,17.18,0,0,1,3.117-1.116c.672-.15,1.321-.258,1.95-.362a12.78,12.78,0,0,0,4.945-1.558,13.442,13.442,0,0,0,4.777-6.223c.274-.73.472-1.455.666-2.158.51-1.883.993-3.66,2.8-4.879a.5.5,0,0,1,.7.135.506.506,0,0,1-.135.7c-1.5,1.009-1.912,2.539-2.394,4.307a23.437,23.437,0,0,1-.693,2.251,14.343,14.343,0,0,1-5.19,6.728,13.636,13.636,0,0,1-5.309,1.692c-.615.105-1.254.214-1.9.353a15.852,15.852,0,0,0-2.933,1.056,28.128,28.128,0,0,1-4.036,1.482,60.639,60.639,0,0,1-8.464,1.522l-1.676.222c-6.221.844-13.415,1.473-18.773,1.639-1.266.041-2.57.095-3.885.146C-992.783,934.079-995.6,934.191-998.154,934.191Z" transform="translate(1009.027 -911.639)"/>
        </g>
        <g id="Grupo_122034" data-name="Grupo 122034" transform="translate(-1056.53 793.446)">
          <path id="Trazado_183704" data-name="Trazado 183704" d="M-1036.571,969.668a8.278,8.278,0,0,1-4.326-.97c-2.1-1.289-2.857-3.865-3.662-6.594a32.572,32.572,0,0,0-1.261-3.72,76.436,76.436,0,0,1-5.409-30,.522.522,0,0,1,.52-.49.5.5,0,0,1,.489.524,75.293,75.293,0,0,0,5.328,29.567,33.227,33.227,0,0,1,1.3,3.835c.746,2.537,1.454,4.934,3.221,6.02,2.186,1.344,6.07.724,8.64.313.58-.094,1.1-.175,1.533-.229,1.562-.182,2.939-.268,4.4-.354,2.055-.127,4.181-.254,7.216-.674.8-.112,1.663-.2,2.618-.307,5.346-.579,13.423-1.446,26.009-7.247,2.354-1.082,4.751-2.4,7.288-3.788a78.935,78.935,0,0,1,11.87-5.7,59.451,59.451,0,0,1,14.534-3.324,20.877,20.877,0,0,1,3.12.077c1.836.137,3.736.279,5.19-.407a.5.5,0,0,1,.675.241.507.507,0,0,1-.242.675c-1.7.8-3.731.647-5.7.5a20.344,20.344,0,0,0-2.965-.078,58.608,58.608,0,0,0-14.286,3.274,77.938,77.938,0,0,0-11.711,5.625c-2.553,1.4-4.965,2.722-7.351,3.823-12.735,5.869-20.912,6.749-26.324,7.331-.944.1-1.8.2-2.586.3-3.073.431-5.316.565-7.3.685-1.442.087-2.809.169-4.339.35-.42.051-.927.13-1.493.222A32.233,32.233,0,0,1-1036.571,969.668Z" transform="translate(1051.265 -927.891)"/>
        </g>
        <g id="Grupo_122035" data-name="Grupo 122035" transform="translate(-962.579 793.876)">
          <path id="Trazado_183705" data-name="Trazado 183705" d="M-867.468,937.294a.52.52,0,0,1-.2-.042.5.5,0,0,1-.269-.661,21.576,21.576,0,0,0,1.312-6.537l.084-.867a.5.5,0,0,1,.553-.452.5.5,0,0,1,.454.554l-.084.861A22.3,22.3,0,0,1-867,936.985.506.506,0,0,1-867.468,937.294Z" transform="translate(867.974 -928.731)"/>
        </g>
        <g id="Grupo_122036" data-name="Grupo 122036" transform="translate(-950.6 812.157)">
          <path id="Trazado_183706" data-name="Trazado 183706" d="M-839.421,992.614a.507.507,0,0,1-.5-.449c-.937-7.938-3.311-22.174-3.921-24.775-.218-.922-.727-2.3-.732-2.31a.508.508,0,0,1,.3-.651.5.5,0,0,1,.648.3,24.968,24.968,0,0,1,.769,2.432c.616,2.617,3,16.922,3.941,24.887a.505.505,0,0,1-.444.562A.309.309,0,0,1-839.421,992.614Z" transform="translate(844.605 -964.396)"/>
        </g>
        <g id="Grupo_122037" data-name="Grupo 122037" transform="translate(-958.336 812.596)">
          <path id="Trazado_183707" data-name="Trazado 183707" d="M-855.7,986.915a.506.506,0,0,1-.506-.489c-.076-2.618-2.4-17.315-3.466-20.509a.5.5,0,0,1,.319-.64.511.511,0,0,1,.642.317c1.116,3.359,3.437,18.078,3.517,20.8a.507.507,0,0,1-.491.521Z" transform="translate(859.696 -965.252)"/>
        </g>
        <g id="Grupo_122038" data-name="Grupo 122038" transform="translate(-1038.806 834.072)">
          <path id="Trazado_183708" data-name="Trazado 183708" d="M-1016.179,1013.893h-.024a.5.5,0,0,1-.482-.532l.268-5.728a.493.493,0,0,1,.529-.48.506.506,0,0,1,.482.528l-.269,5.728A.5.5,0,0,1-1016.179,1013.893Z" transform="translate(1016.686 -1007.151)"/>
        </g>
        <g id="Grupo_122039" data-name="Grupo 122039" transform="translate(-1023.525 718.716)">
          <path id="Trazado_183709" data-name="Trazado 183709" d="M-968.938,801.274c-.982,0-1.987-.044-3-.128a29.671,29.671,0,0,1-6.719-1.575c-2.861-.929-6.372-2.4-8.157-5.568a.511.511,0,0,1,.194-.692.5.5,0,0,1,.688.195c1.612,2.863,4.9,4.231,7.588,5.1a28.892,28.892,0,0,0,6.489,1.533,32.521,32.521,0,0,0,7.1-.162,23.024,23.024,0,0,0,13.576-6.948,26.717,26.717,0,0,0,5.2-10.525.507.507,0,0,1,.6-.395.507.507,0,0,1,.394.6,27.488,27.488,0,0,1-5.453,11.01,24.047,24.047,0,0,1-14.173,7.26A30.628,30.628,0,0,1-968.938,801.274Z" transform="translate(986.876 -782.098)"/>
        </g>
        <g id="Grupo_122040" data-name="Grupo 122040" transform="translate(-1048.686 756.236)">
          <path id="Trazado_183710" data-name="Trazado 183710" d="M-1016.975,905.856a.505.505,0,0,1-.5-.508,86.824,86.824,0,0,0-1.951-18.16c-.979-3.916-2.9-6.977-4.927-10.22-1.12-1.786-2.276-3.632-3.293-5.668-1.171-2.345-3.351-6.7-4.211-8.819a30.1,30.1,0,0,0-3.982-6.354.505.505,0,0,1,.063-.713.506.506,0,0,1,.714.065,31.192,31.192,0,0,1,4.144,6.625c.843,2.077,3.011,6.413,4.178,8.742.994,1.994,2.139,3.819,3.245,5.583,2.075,3.316,4.031,6.442,5.051,10.512a87.938,87.938,0,0,1,1.981,18.407A.506.506,0,0,1-1016.975,905.856Z" transform="translate(1035.962 -855.298)"/>
        </g>
        <g id="Grupo_122041" data-name="Grupo 122041" transform="translate(-1058.132 728.403)">
          <path id="Trazado_183711" data-name="Trazado 183711" d="M-1053.884,870.436a.506.506,0,0,1-.507-.505c0-.925,1.286-10.634,1.453-11.814.194-1.351.179-7.393.172-11.391l0-2.138c0-1.068.2-5.033.289-6.689a51.5,51.5,0,0,1,1.032-9.25l.037-.137a14.729,14.729,0,0,1,5.786-8.746,43.716,43.716,0,0,1,6.568-3.994,43.783,43.783,0,0,0,5.344-3.145c.5-.358,1.022-.712,1.544-1.068a29.026,29.026,0,0,0,4.233-3.273c.462-.463.922-.935,1.387-1.413,1.122-1.155,2.283-2.352,3.514-3.428.147-.127.309-.288.484-.464.961-.955,2.411-2.4,4.487-1.871a.5.5,0,0,1,.363.617.5.5,0,0,1-.616.361c-1.514-.388-2.626.721-3.519,1.612-.193.191-.371.369-.531.508-1.2,1.052-2.346,2.231-3.455,3.37-.466.481-.932.958-1.4,1.423a29.74,29.74,0,0,1-4.38,3.394c-.516.352-1.029.7-1.522,1.057a45.419,45.419,0,0,1-5.464,3.213,42.988,42.988,0,0,0-6.425,3.9,13.834,13.834,0,0,0-5.426,8.218l-.04.136a50.94,50.94,0,0,0-.992,9.029c-.069,1.284-.29,5.561-.29,6.635l.005,2.138c.011,4.265.023,10.111-.179,11.535-.245,1.71-1.445,10.913-1.445,11.671A.507.507,0,0,1-1053.884,870.436Z" transform="translate(1054.391 -800.997)"/>
        </g>
        <g id="Grupo_122042" data-name="Grupo 122042" transform="translate(-1058.09 788.854)">
          <path id="Trazado_183712" data-name="Trazado 183712" d="M-1052.25,930.646a.492.492,0,0,1-.305-.1,4.091,4.091,0,0,1-1.748-3.059,5.122,5.122,0,0,1,1.6-3.781c2.75-2.6,7.791-3.841,7.843-3.852a28.39,28.39,0,0,1,17.2.89.506.506,0,0,1,.3.651.507.507,0,0,1-.651.3,27.08,27.08,0,0,0-16.6-.854c-1.334.324-5.264,1.6-7.387,3.6a4.1,4.1,0,0,0-1.282,2.99,3.067,3.067,0,0,0,1.35,2.306.507.507,0,0,1,.1.708A.5.5,0,0,1-1052.25,930.646Z" transform="translate(1054.308 -918.932)"/>
        </g>
        <g id="Grupo_122043" data-name="Grupo 122043" transform="translate(-983.906 717.189)">
          <path id="Trazado_183713" data-name="Trazado 183713" d="M-897.716,784.171a.438.438,0,0,1-.148-.025c-1.347-.411-2.786-.892-4.815-1.617a18.207,18.207,0,0,1-2.764-1.322c-1.381-.766-2.38-1.322-3.477-.967a.5.5,0,0,1-.637-.323.5.5,0,0,1,.325-.635c1.515-.494,2.8.216,4.281,1.039a17.522,17.522,0,0,0,2.614,1.254c2.011.721,3.437,1.2,4.769,1.6a.506.506,0,0,1,.336.631A.5.5,0,0,1-897.716,784.171Z" transform="translate(909.581 -779.119)"/>
        </g>
        <g id="Grupo_122044" data-name="Grupo 122044" transform="translate(-954.027 725.778)">
          <path id="Trazado_183714" data-name="Trazado 183714" d="M-829.269,843.447a.47.47,0,0,1-.1-.009.506.506,0,0,1-.4-.6,13.845,13.845,0,0,0-.577-4.031,74.264,74.264,0,0,1-1.439-8.6c-.168-1.669-.3-3.373-.423-5.015a87.512,87.512,0,0,0-1.479-12.007c-.927-4.228-2.313-7.425-4.12-9.5-2.473-2.836-6.67-4.455-9.737-5.639l-.306-.117c-.967-.377-1.976-.721-3.086-1.065a.506.506,0,0,1-.332-.633.51.51,0,0,1,.631-.336c1.132.35,2.163.705,3.153,1.09l.3.118c3.166,1.218,7.5,2.893,10.135,5.918,1.921,2.2,3.383,5.55,4.347,9.946a88.222,88.222,0,0,1,1.5,12.146c.125,1.637.255,3.33.421,4.995a72.778,72.778,0,0,0,1.424,8.489c.459,2.128.76,3.53.58,4.442A.508.508,0,0,1-829.269,843.447Z" transform="translate(851.29 -795.876)"/>
        </g>
        <g id="Grupo_122045" data-name="Grupo 122045" transform="translate(-943.145 770.257)">
          <path id="Trazado_183715" data-name="Trazado 183715" d="M-819.884,887.777a.516.516,0,0,1-.334-.127.511.511,0,0,1-.045-.717c.5-.561,1.036-1.339.8-1.87-.637-1.4-5.723-1.385-8.167-1.377-.806,0-1.505.006-1.954-.028a.5.5,0,0,1-.469-.54.509.509,0,0,1,.539-.466c.413.027,1.092.025,1.88.022,4.316.005,8.255.127,9.093,1.973.371.82.051,1.815-.959,2.961A.5.5,0,0,1-819.884,887.777Z" transform="translate(830.059 -882.651)"/>
        </g>
        <g id="Grupo_122046" data-name="Grupo 122046" transform="translate(-966.139 719.566)">
          <path id="Trazado_183716" data-name="Trazado 183716" d="M-873.48,785.482a2.168,2.168,0,0,1-1.214-.39.508.508,0,0,1-.14-.7.5.5,0,0,1,.7-.14c.561.373.985.22,1.683-.091a3.553,3.553,0,0,1,1.449-.4.5.5,0,0,1,.5.5.505.505,0,0,1-.5.506,2.723,2.723,0,0,0-1.039.314A3.526,3.526,0,0,1-873.48,785.482Z" transform="translate(874.919 -783.757)"/>
        </g>
        <g id="Grupo_122047" data-name="Grupo 122047" transform="translate(-993.103 679.266)">
          <path id="Trazado_183717" data-name="Trazado 183717" d="M-927.018,708.294a.5.5,0,0,1-.468-.314.5.5,0,0,1,.271-.66,1.709,1.709,0,0,0,.8-.829,2.347,2.347,0,0,1,2.305-1.357.509.509,0,0,1,.507.507.507.507,0,0,1-.507.505,1.391,1.391,0,0,0-1.443.873,2.651,2.651,0,0,1-1.277,1.235A.5.5,0,0,1-927.018,708.294Z" transform="translate(927.525 -705.135)"/>
        </g>
        <g id="Grupo_122048" data-name="Grupo 122048" transform="translate(-1007.858 684.868)">
          <path id="Trazado_183718" data-name="Trazado 183718" d="M-955.8,718.554a.508.508,0,0,1-.381-.172.5.5,0,0,1,.049-.715c2.022-1.762,3.2-1.607,4.14-1.481a2.249,2.249,0,0,0,1.294-.083.5.5,0,0,1,.661.267.506.506,0,0,1-.267.665,3.186,3.186,0,0,1-1.82.153c-.858-.111-1.669-.218-3.345,1.242A.506.506,0,0,1-955.8,718.554Z" transform="translate(956.31 -716.062)"/>
        </g>
        <g id="Grupo_122049" data-name="Grupo 122049" transform="translate(-1062.066 746.558)">
          <path id="Trazado_183719" data-name="Trazado 183719" d="M-1061.561,869.96a.5.5,0,0,1-.5-.5,4.724,4.724,0,0,1,.838-2.31,2.77,2.77,0,0,0,.62-1.9,1.12,1.12,0,0,0-.452-.6,1.612,1.612,0,0,1-.658-1.747,4.434,4.434,0,0,1,.673-1.473,2.194,2.194,0,0,0,.517-1.641,3.438,3.438,0,0,0-.562-1.137,3.207,3.207,0,0,1-.719-2.252,5.364,5.364,0,0,1,.989-2.234,4.89,4.89,0,0,0,.8-1.626,3.526,3.526,0,0,0-.48-2.11,4.3,4.3,0,0,1-.539-2.646,5.791,5.791,0,0,1,1.07-2.149,4.606,4.606,0,0,0,.881-1.743,2.493,2.493,0,0,0-.355-1.422,3.1,3.1,0,0,1-.414-1.7,4.643,4.643,0,0,1,1.541-2.72,5.6,5.6,0,0,0,1.059-1.35.5.5,0,0,1,.679-.225.5.5,0,0,1,.224.679,6.459,6.459,0,0,1-1.232,1.6,3.646,3.646,0,0,0-1.267,2.148,2.343,2.343,0,0,0,.328,1.15,3.334,3.334,0,0,1,.435,2.01,5.372,5.372,0,0,1-1.047,2.15,4.92,4.92,0,0,0-.908,1.773,3.423,3.423,0,0,0,.469,2.037,4.4,4.4,0,0,1,.55,2.722,5.771,5.771,0,0,1-.942,1.977,4.48,4.48,0,0,0-.838,1.809,2.317,2.317,0,0,0,.565,1.575,4.259,4.259,0,0,1,.7,1.493,3.1,3.1,0,0,1-.648,2.369,3.5,3.5,0,0,0-.542,1.142c-.084.424.02.513.327.777a2.111,2.111,0,0,1,.772,1.122,3.543,3.543,0,0,1-.727,2.656,3.865,3.865,0,0,0-.7,1.8A.5.5,0,0,1-1061.561,869.96Z" transform="translate(1062.066 -836.416)"/>
        </g>
        <g id="Grupo_122050" data-name="Grupo 122050" transform="translate(-938.466 726.072)">
          <path id="Trazado_183720" data-name="Trazado 183720" d="M-809.468,826.95a.507.507,0,0,1-.48-.344,1.035,1.035,0,0,0-.355-.419,1.821,1.821,0,0,1-.678-.99,3.446,3.446,0,0,1,0-1.131,1.657,1.657,0,0,0-.08-1.057.837.837,0,0,0-.454-.253,1.379,1.379,0,0,1-.971-.794,2.487,2.487,0,0,1,.185-1.8,2.057,2.057,0,0,0,.219-1.149,1.845,1.845,0,0,0-.665-.8,2.294,2.294,0,0,1-.961-1.389,4.551,4.551,0,0,1,.4-2.134,2.681,2.681,0,0,0,.245-1.957,2.8,2.8,0,0,0-1.06-.906,7.292,7.292,0,0,1-.671-.455c-.956-.763-.475-2.039-.125-2.969a3.747,3.747,0,0,0,.273-.909c0-.489-.3-.756-.779-1.154a2.448,2.448,0,0,1-.988-1.27,3.207,3.207,0,0,1,.215-1.807,1.927,1.927,0,0,0,.148-1.347c-.178-.416-.709-.576-1.273-.747a2.371,2.371,0,0,1-1.6-1.008,2.328,2.328,0,0,1-.029-1.458,2.2,2.2,0,0,0,.071-.683c-.459-.581-.534-.578-1.139-.559-.123,0-.255.007-.406.007a.506.506,0,0,1-.5-.507.5.5,0,0,1,.5-.5c.139,0,.264-.006.375-.008a1.95,1.95,0,0,1,1.978.965,1.792,1.792,0,0,1,.116,1.481,2.048,2.048,0,0,0-.063.814c.115.228.558.362.99.492a2.666,2.666,0,0,1,1.913,1.319,2.8,2.8,0,0,1-.118,2.063,2.388,2.388,0,0,0-.2,1.242c.068.262.337.481.648.734a2.428,2.428,0,0,1,1.152,1.937,3.952,3.952,0,0,1-.336,1.267c-.325.859-.546,1.538-.193,1.821a6.133,6.133,0,0,0,.574.385,3.561,3.561,0,0,1,1.432,1.315,3.46,3.46,0,0,1-.2,2.749,3.793,3.793,0,0,0-.348,1.651c.038.27.3.5.615.761a2.68,2.68,0,0,1,.985,1.3,2.871,2.871,0,0,1-.245,1.764,1.774,1.774,0,0,0-.2,1.069c.041.1.083.123.351.21a1.772,1.772,0,0,1,.946.608,2.4,2.4,0,0,1,.275,1.775,2.747,2.747,0,0,0-.018.8c.036.162.154.268.36.451a1.943,1.943,0,0,1,.647.856.508.508,0,0,1-.321.641A.51.51,0,0,1-809.468,826.95Z" transform="translate(820.932 -796.45)"/>
        </g>
        <g id="Grupo_122051" data-name="Grupo 122051" transform="translate(-1005.996 682.794)">
          <path id="Trazado_183721" data-name="Trazado 183721" d="M-946.785,722.465a3.785,3.785,0,0,1-1.224-.213,8.6,8.6,0,0,1-4.631-4.906.5.5,0,0,1,.283-.657.5.5,0,0,1,.658.283,7.655,7.655,0,0,0,4.016,4.32,2.2,2.2,0,0,0,1.9-.108c1.935-1.15,2.1-5.576.947-8.475a.506.506,0,0,1,.283-.657.5.5,0,0,1,.657.285c1.353,3.4,1.054,8.278-1.371,9.717A2.922,2.922,0,0,1-946.785,722.465Z" transform="translate(952.677 -712.016)"/>
        </g>
        <g id="Grupo_122052" data-name="Grupo 122052" transform="translate(-994.203 677.284)">
          <path id="Trazado_183722" data-name="Trazado 183722" d="M-923.992,711.681a2.868,2.868,0,0,1-.851-.139c-1.955-.611-4.112-3.059-4.808-5.456a.509.509,0,0,1,.345-.627.507.507,0,0,1,.627.347,7.766,7.766,0,0,0,4.138,4.77,1.179,1.179,0,0,0,1.133-.1c1.293-1.051,1.629-5.293.679-8.563a.508.508,0,0,1,.344-.626.5.5,0,0,1,.628.345c.977,3.359.749,8.195-1.012,9.629A1.882,1.882,0,0,1-923.992,711.681Z" transform="translate(929.671 -701.268)"/>
        </g>
        <g id="Grupo_122053" data-name="Grupo 122053" transform="translate(-997.553 682.801)">
          <path id="Trazado_183723" data-name="Trazado 183723" d="M-935.7,715.448a.514.514,0,0,1-.5-.515,2.243,2.243,0,0,1,.751-1.312l.153-.172c1.006-1.21,2.755-1.758,3.821-1.2a.507.507,0,0,1,.213.682.5.5,0,0,1-.681.214,2.507,2.507,0,0,0-2.576.95c-.05.06-.112.128-.182.206a2.753,2.753,0,0,0-.49.648A.5.5,0,0,1-935.7,715.448Z" transform="translate(936.205 -712.031)"/>
        </g>
        <g id="Grupo_122054" data-name="Grupo 122054" transform="translate(-1021.295 688.631)">
          <path id="Trazado_183724" data-name="Trazado 183724" d="M-982.018,727.909a.5.5,0,0,1-.494-.4.507.507,0,0,1,.384-.6l15.688-3.491a.506.506,0,0,1,.6.382.506.506,0,0,1-.384.6l-15.687,3.494A.528.528,0,0,1-982.018,727.909Z" transform="translate(982.525 -723.405)"/>
        </g>
        <path id="Trazado_183725" data-name="Trazado 183725" d="M-629.371,711.661c-.421,4.541,1.606,8.468,3.034,12.743,1.544,4.634,1.02,24.934,1.02,24.934s2.316,2.965,3.581,9.647a11.7,11.7,0,0,0,2.583,5.951c1.09,1.265,3.182,1.994,4.6,2.809s2.877,1.8,4.378,2.467a11.431,11.431,0,0,0,8.868-.561c4.883-2.711,5.478-5.059,9.32-11a23.839,23.839,0,0,0,2.246-5.506,17.675,17.675,0,0,0,.675-6.958c-.217-1.292-1.237-2.47-1.462-3.818a43.729,43.729,0,0,1-.785-6.962c0-2.822,1.143-5.518,1.909-8.2a75.259,75.259,0,0,0,2.807-12.127c.4-3.607.944-4.815.129-8.254a79.729,79.729,0,0,0-6.192-15.323c-2.747-5.15-4.3-11.236-9.319-14.819-1.194-.854-2.9-.938-4.266-1.349a11.516,11.516,0,0,0-5.389-.673c-3,.6-7.458,2.98-8.983,5.84a60.588,60.588,0,0,0-2.807,6.624,74.183,74.183,0,0,0-3.817,13.585c-.5,2.758-1.111,5.634-1.458,8.42C-628.781,709.814-629.3,710.968-629.371,711.661Z" transform="translate(-210.879 -10.96)" fill="#fddab1" fill-rule="evenodd"/>
        <path id="Trazado_183726" data-name="Trazado 183726" d="M-513.642,841.226s-.925,2.206-1.275,7.579c-.412,6.29,0,9.335.151,15.629.133,5.677.623,13.383.418,19.053-.086,2.46-.189,8.764-.189,8.764s2.133,11.541,2.883,17.919c.6,5.11.5,9.573,1.4,14.645.262,1.481.743,6.932,1.247,10.408.2,1.44.275,3.219.787,3.605.758.567,17.721.577,17.965.207.215-.317-.5-2.909-1.082-5.571a138.347,138.347,0,0,1-1.746-16.632c-.216-6.3.063-8.8-.508-15.078-.314-3.445.2-7.571-.116-11.014-.5-5.473.3-11.782-.156-17.258-.573-6.888-1.035-14.049-2.163-20.816-.806-4.83-3.624-10.156-7.684-12.6-1.319-.792-5.058-2.4-5.058-2.4Z" transform="translate(-266.607 -90.471)" fill="#fddab1" fill-rule="evenodd"/>
        <path id="Trazado_183727" data-name="Trazado 183727" d="M-599.124,768.892a5.286,5.286,0,0,0,2.469,2.926,8.4,8.4,0,0,0,2.338,1.391c3.125,1.044,5.993-.605,7.793-2.767a6.653,6.653,0,0,0,1.564-3.115c0-.234-.616-.18-.78-.214a6.654,6.654,0,0,0-2.338.072c-1.591.2-3.239.128-4.824.353-1.336.192-2.434.257-3.768.523C-597.228,768.173-599.3,768.308-599.124,768.892Z" transform="translate(-225.644 -56.039)" fill="#fff" fill-rule="evenodd"/>
        <path id="Trazado_183728" data-name="Trazado 183728" d="M-667.288,829.549c.932,3.823.805,8.37.59,12.242-.063,1.161-.119,2.337-.178,3.513a64.08,64.08,0,0,1-1.477,12.333c-.642,2.566-1.316,5.14-2.011,7.689a24.488,24.488,0,0,0-.947,3.074,39.842,39.842,0,0,1-1.349,4.817s.373,10,1.048,15.375c.359,2.895,2.059,7.686,2.535,10.542a101.576,101.576,0,0,1,.625,11.7c0,4.245.871,5.573-.138,9.609a17.729,17.729,0,0,0-.71,4.378c0,.59-.593,2.389-.173,2.913,1.229,1.541,76.937.861,77.686-.184.6-.845-1.73-12.775-1.726-14.631.011-3.439,1.163-6.508.788-9.146-.469-3.3-.988-3.923-1.355-7.22-.309-2.745.11-4.47.44-7.111.652-5.242,3.153-10.748,4.17-15.833.829-4.143-.217-7.96-.592-12.064-.416-4.578-1.183-7.362-1.6-11.926a67.834,67.834,0,0,1-.043-11.547c.12-1.589.932-7.629.932-7.629s-6.639-1.014-8.869-.122c-3.627,1.453-10.932-15.144-10.932-15.144l-3.854,3.952s-4.109,3.217-6.244,3.22c-3.336,0-7.653,1.456-11.365.927a34.09,34.09,0,0,1-7.59-2.212,22.432,22.432,0,0,1-5.382-3.546l-2.05,2.294s-8.42,9.093-9.826,9.093c-2.627,0-5.337-.12-7.923-.12C-665.6,828.781-667.494,828.709-667.288,829.549Z" transform="translate(-189.806 -79.504)" fill="#45c6e5" fill-rule="evenodd"/>
        <path id="Trazado_183729" data-name="Trazado 183729" d="M-634.8,658a14.908,14.908,0,0,0-8.025,2.2c-6.177,4.494-8.628,11.883-10.7,19.137-1.6,5.622-2.7,13.451-3.412,19.17-1.036,8.257-1.54,15.544-3.567,23.637-1.522,6.114-4.29,12.572-4.983,18.82-.176,1.6-.348,10.452.051,12.049,1.225,4.887,2.359,9.489,5.617,12.811a41.319,41.319,0,0,1,6.041,14.291,21.49,21.49,0,0,1-.5,8.722c-.744,2.409-1.864,3.294-1.438,3.6.813.578,3.7.5,5.812-2.485,0,0-1.468,6.484-.19,10.912,1.486,5.166,7.444,10.172,9.1,8.579,1.209-1.169-5.022-5.23-4.321-11.509.6-5.374,3.5-10.145,5.436-14.968a42.87,42.87,0,0,0,2.322-7.616c1.757-9.474-1.769-17.445-3.688-23.574-1.345-4.308-2.425-10.169-2.425-10.169s2.758-4.189,3.187-6.743a60.376,60.376,0,0,0,.2-9.583c-.059-1.722-.624-5.82-.624-5.82a46.305,46.305,0,0,1-2.9-5.849c-1.152-2.924-3.13-12.436-3.13-12.436s3.358-6.28,4.239-10.1c1.23-5.329.783-13.151,3.522-17.943a9.456,9.456,0,0,1,3.321-3c1.125-.675,2.646-.026,3.912.12,1.185.136,2.065.415,2.98-.271,1.949-1.461,5.355-4.645,8.181-3.23,6.324,3.161,6.567,12.07,9.155,17.9,2.111,4.742,7.009,14.441,7.009,14.441.282,4.764-2.19,13.44-2.93,15.615a51.518,51.518,0,0,1-2.954,6.109s-.079,4.044-.209,6.355c-.1,1.709.134,5.377.943,7.121A6.706,6.706,0,0,0-606.8,737s.777-.178-.745,8.148c-.944,5.16-2.548,9.407-3.868,14.513A42.494,42.494,0,0,0-613.17,770.7a16.325,16.325,0,0,0,2.311,9.54,22.829,22.829,0,0,1,3.23,11.145c.334,6.87-4.012,8.957-3.011,10.024s6.1-3.022,6.483-6.07a41.461,41.461,0,0,0-.034-8.722,8.944,8.944,0,0,0,1.533,2.96c1.23,1.4,3.107,2.164,4.527,1.456.659-.329-2.008-2.833-2.178-7.178a15.322,15.322,0,0,1,1.133-6.428,21.585,21.585,0,0,1,2.336-4.416c.716-1.438,4.9-6.674,6.518-8.9,1.6-2.2,2.385-2.916,4.184-5.458a26.7,26.7,0,0,0,4.082-9.327c1.256-5.437-.444-11.915-1.682-17.223-1.114-4.761-3.052-11.482-4.557-16.137-2.769-8.557-4.082-14.744-6.324-23.457-1.581-6.147-4.246-15.5-6.476-21.452-2.753-7.338-7.433-13.56-15.01-16.088a19.457,19.457,0,0,0-6.316-.785c-2.99,0-6.87,2.191-8.819,3.138Z" transform="translate(-193.207 -1.035)" fill="#b26001" fill-rule="evenodd"/>
        <path id="Trazado_183730" data-name="Trazado 183730" d="M-697.919,784.521s.376,4.645.779,6.668c.78,3.892,2.252,5.5,2.1,9.5-.048,1.241-.124,2.481-.219,3.709a109.819,109.819,0,0,1-2.3,14.7c-.723,3.618-1.6,6.4-2.611,10.067-1.406,5.082-3.118,11.012-5.405,15.589-.87,1.736-2.3,4.415-3.3,6.082a32.808,32.808,0,0,1-7.218,7.964c-.514.429-1.9,1.637-2.461,2.007a5.567,5.567,0,0,1-4.5.945,7.45,7.45,0,0,1-4.813-4.308c-2.238-5.595-2.307-8.826-2.658-14.795a88,88,0,0,1,1.111-16.821c.6-3.378,1.52-6.92,2.064-9.5.86-4.09,1.417-7.452,2.239-11.559.81-4.048.889-6.81,1.781-10.818.39-1.766-.245-3.731.262-5.955.772-3.386,2.683-7.134,3.069-9.844a55.709,55.709,0,0,0,.147-10.924,9.092,9.092,0,0,0-1.215-3.749c-.981-1.649-4.481-4.8-5.33-6.168a22.79,22.79,0,0,1-1.455-2.968c-.732-1.725-2.236-3.819-2.7-5.667-.119-.469-1-2.04-.478-2.428.157-.116.659-.522.873-.522,1.459,0,2.662,1.214,3.419,2.391a52.654,52.654,0,0,0,3.482,5.413,20.158,20.158,0,0,0,2.995,2.582c.842.675,2.22,1.623,3.183.665,1.028-1.028.558-4.018.558-5.23,0-1.535-.248-2.124-.286-3.593a62.951,62.951,0,0,0-.831-10.971,13.232,13.232,0,0,1-.75-3.826c.048-.666.254-2.062,1.175-2.146,2.265-.207,3.141,3.56,3.867,5.133,1.723,3.735,1.382,8.434,2.519,12.416.326,1.141.412,3.289,1.558,4.054,1.691,1.128,3.59-3.4,4.379-4.391A33.77,33.77,0,0,0-698.8,737.2c.329-.881.791-4.575,1.606-5.065.49-.291.726-1.159,1.237-1.287.378-.094,1.2.69,1.376,1.1a20.169,20.169,0,0,1,.262,6.316,34.2,34.2,0,0,1-5.1,12.268,32.527,32.527,0,0,0-2.192,3.472c-.2.43-.7,1.942-.7,1.942a42.226,42.226,0,0,0,3.986-1.411A19.416,19.416,0,0,1-694.507,753a1.825,1.825,0,0,1,2.181.7c.4.476.986,1.132,1.447,1.734a7.4,7.4,0,0,1,1.714,2.705c.335,1.308-.277,2.331-.277,3.593s.215,3.548-1.423,3.956c-.705.178-1.756-2.159-1.906-2.559-.314-.838.046-2.438-.588-3.688a3.408,3.408,0,0,0-1.525-1.323,12.67,12.67,0,0,1-1.744,1.373,7.962,7.962,0,0,0-3.046,3.295,6.84,6.84,0,0,0,.057,3.984c.2,1.159,1.587,1.635,1.587,1.635s.653,4.951.653,6.768c0,1.553-.095,3.043-.186,4.574C-697.583,780.089-697.919,784.521-697.919,784.521Z" transform="translate(-161.279 -38.4)" fill="#fddab1" fill-rule="evenodd"/>
        <path id="Trazado_183731" data-name="Trazado 183731" d="M-667.79,808.759c.1.087.008.374.141.374a19.646,19.646,0,0,0,1.578-1.8c.931-.8,5.338-4.518,6.285-5.463,1.532-1.532,1.841-3.443,2.759-5.348.348-.714,1.827-2.105,2.267-3.208.5-1.23,1.887-1.945.472-2.887-.851-.572-2.257-.043-3.094.124a3.818,3.818,0,0,0-1.9,1.114,37.68,37.68,0,0,1-3.882,3.751,7.818,7.818,0,0,1-3.46,2.045,8.064,8.064,0,0,1-2.428,0c-.127-.034-.643-.427-.746-.374a3.853,3.853,0,0,0,0,.746,8.811,8.811,0,0,0,.185,2.148c.521,2.071.956,4.332,1.31,6.437C-668.2,807.022-668.227,808.376-667.79,808.759Z" transform="translate(-191.191 -67.318)" fill="#fddab1" fill-rule="evenodd"/>
        <g id="Grupo_122097" data-name="Grupo 122097" transform="translate(-915.278 652.925)">
          <g id="Grupo_122055" data-name="Grupo 122055" transform="translate(74.866 46.652)">
            <path id="Trazado_183732" data-name="Trazado 183732" d="M-607.308,774.86c-.2,0-.393,0-.591-.011-10.617-.544-16.5-11.925-18.045-15.4a56.309,56.309,0,0,1-3.688-14.248.4.4,0,0,1,.366-.438.4.4,0,0,1,.44.367,55.347,55.347,0,0,0,3.623,13.988c1.5,3.37,7.188,14.4,17.344,14.921,7.362.374,14.162-6.835,17.068-14.155a68.422,68.422,0,0,0,3.416-13.995.4.4,0,0,1,.451-.353.4.4,0,0,1,.353.452,69.4,69.4,0,0,1-3.466,14.2C-592.973,767.576-599.792,774.86-607.308,774.86Z" transform="translate(629.634 -744.76)"/>
          </g>
          <g id="Grupo_122056" data-name="Grupo 122056" transform="translate(110.945 66.745)">
            <path id="Trazado_183733" data-name="Trazado 183733" d="M-555.006,800.647a.467.467,0,0,1-.093-.009c-4.654-1.106-4.25-9.7-4.028-14.326.036-.785.068-1.459.068-1.948a.405.405,0,0,1,.405-.4.405.405,0,0,1,.408.4c0,.507-.033,1.194-.073,1.987-.209,4.388-.595,12.551,3.406,13.5a.41.41,0,0,1,.3.489A.4.4,0,0,1-555.006,800.647Z" transform="translate(559.246 -783.96)"/>
          </g>
          <g id="Grupo_122057" data-name="Grupo 122057" transform="translate(78.019 64.892)">
            <path id="Trazado_183734" data-name="Trazado 183734" d="M-623.077,803.128a.409.409,0,0,1-.338-.18.4.4,0,0,1,.115-.562,6.807,6.807,0,0,0,1.8-2.2,9.573,9.573,0,0,0,1.153-3.426c.562-3.352.419-8.574-.433-15.966a.407.407,0,0,1,.356-.451.407.407,0,0,1,.449.357c.862,7.468,1,12.764.428,16.194a10.282,10.282,0,0,1-1.242,3.679,7.873,7.873,0,0,1-2.061,2.484A.424.424,0,0,1-623.077,803.128Z" transform="translate(623.483 -780.345)"/>
          </g>
          <g id="Grupo_122058" data-name="Grupo 122058" transform="translate(95.71 39.454)">
            <path id="Trazado_183735" data-name="Trazado 183735" d="M-588.069,743.071a.4.4,0,0,1-.343-.194.408.408,0,0,1,.13-.559l.067-.039c.46-.282,1.681-1.025,1.709-2.151a4.319,4.319,0,0,0-1.025-2.256,8.065,8.065,0,0,1-1.02-1.8c-.72-2.052-.487-3.127.512-5.136a.411.411,0,0,1,.546-.18.4.4,0,0,1,.18.543c-.991,1.985-1.076,2.784-.472,4.506a7.631,7.631,0,0,0,.921,1.606,4.917,4.917,0,0,1,1.167,2.733c-.036,1.57-1.59,2.515-2.1,2.825l-.062.039A.406.406,0,0,1-588.069,743.071Z" transform="translate(588.969 -730.717)"/>
          </g>
          <g id="Grupo_122059" data-name="Grupo 122059" transform="translate(103.267 34.955)">
            <path id="Trazado_183736" data-name="Trazado 183736" d="M-573.821,723.378a.4.4,0,0,1-.361-.228.4.4,0,0,1,.187-.543,6.892,6.892,0,0,1,4.458-.5.411.411,0,0,1,.305.489.407.407,0,0,1-.486.3,6.073,6.073,0,0,0-3.925.44A.387.387,0,0,1-573.821,723.378Z" transform="translate(574.226 -721.94)"/>
          </g>
          <g id="Grupo_122060" data-name="Grupo 122060" transform="translate(82.78 36.497)">
            <path id="Trazado_183737" data-name="Trazado 183737" d="M-613.789,726.27a.406.406,0,0,1-.374-.251.406.406,0,0,1,.222-.531,7.825,7.825,0,0,1,4.766-.3.406.406,0,0,1,.264.507.41.41,0,0,1-.508.268,7.023,7.023,0,0,0-4.216.276A.373.373,0,0,1-613.789,726.27Z" transform="translate(614.194 -724.948)"/>
          </g>
          <path id="Trazado_183738" data-name="Trazado 183738" d="M-610.247,734.873a1.127,1.127,0,0,1,1.119-1.134A1.129,1.129,0,0,1-608,734.873a1.129,1.129,0,0,1-1.123,1.134A1.126,1.126,0,0,1-610.247,734.873Z" transform="translate(695.05 -692.736)" fill-rule="evenodd"/>
          <path id="Trazado_183739" data-name="Trazado 183739" d="M-570.58,732.139a1.127,1.127,0,0,1,1.118-1.134,1.129,1.129,0,0,1,1.123,1.134,1.13,1.13,0,0,1-1.123,1.136A1.128,1.128,0,0,1-570.58,732.139Z" transform="translate(675.716 -691.404)" fill-rule="evenodd"/>
          <g id="Grupo_122061" data-name="Grupo 122061" transform="translate(90.299 10.356)">
            <path id="Trazado_183740" data-name="Trazado 183740" d="M-599.119,680.136a.278.278,0,0,1-.07-.006.4.4,0,0,1-.331-.467,7.092,7.092,0,0,1,5.424-5.707.412.412,0,0,1,.476.318.408.408,0,0,1-.319.479,6.258,6.258,0,0,0-4.779,5.047A.408.408,0,0,1-599.119,680.136Z" transform="translate(599.525 -673.949)"/>
          </g>
          <g id="Grupo_122062" data-name="Grupo 122062" transform="translate(92.661 12.106)">
            <path id="Trazado_183741" data-name="Trazado 183741" d="M-565.65,736.393a.5.5,0,0,1-.1-.011.406.406,0,0,1-.3-.492c2.334-9.336.1-18.037-2.517-22.652-.639-1.125-1.292-2.224-1.938-3.318a70.831,70.831,0,0,1-5.151-9.833c-.921-2.3-1.713-4.589-2.477-6.8a99.69,99.69,0,0,0-3.748-9.708c-1.644-3.551-3.755-5.369-6.269-5.4a7.882,7.882,0,0,0-6,3.347.407.407,0,0,1-.545.181.406.406,0,0,1-.181-.544,8.573,8.573,0,0,1,6.652-3.8h.086c1.962.029,4.766,1.071,7,5.875a101.765,101.765,0,0,1,3.777,9.783c.762,2.2,1.553,4.479,2.469,6.764a69.938,69.938,0,0,0,5.09,9.72c.651,1.1,1.306,2.2,1.945,3.33,2.7,4.747,4.994,13.683,2.6,23.25A.407.407,0,0,1-565.65,736.393Z" transform="translate(594.918 -677.364)"/>
          </g>
          <g id="Grupo_122063" data-name="Grupo 122063" transform="translate(71.217 15.437)">
            <path id="Trazado_183742" data-name="Trazado 183742" d="M-636.087,732.817a.407.407,0,0,1-.405-.357c-1.118-8.83,1.6-13.919,3.781-18.01l.252-.475c3.391-6.383,4.035-8.3,5.365-20.455.266-2.445,1.1-6.833,3.722-8.74a4.94,4.94,0,0,1,4.054-.787.4.4,0,0,1,.315.477.408.408,0,0,1-.477.318,4.177,4.177,0,0,0-3.416.648c-2.454,1.792-3.189,6.312-3.4,8.176-1.344,12.3-1.995,14.242-5.449,20.744l-.256.477c-2.127,3.99-4.777,8.954-3.69,17.529a.408.408,0,0,1-.352.454C-636.054,732.813-636.074,732.817-636.087,732.817Z" transform="translate(636.753 -683.863)"/>
          </g>
          <g id="Grupo_122064" data-name="Grupo 122064" transform="translate(61.858 3.323)">
            <path id="Trazado_183743" data-name="Trazado 183743" d="M-654.6,720.28a.516.516,0,0,1-.069,0,.407.407,0,0,1-.332-.469c1.345-8.03,2.651-17.123,3.514-23.263a107.739,107.739,0,0,1,6.222-24.033c2.745-7.141,9.735-13.576,17.805-12.058a.4.4,0,0,1,.321.473.4.4,0,0,1-.473.323c-7.62-1.437-14.268,4.723-16.9,11.551a107.278,107.278,0,0,0-6.177,23.854c-.863,6.146-2.17,15.245-3.516,23.288A.405.405,0,0,1-654.6,720.28Z" transform="translate(655.011 -660.228)"/>
          </g>
          <g id="Grupo_122065" data-name="Grupo 122065" transform="translate(59.324 70.167)">
            <path id="Trazado_183744" data-name="Trazado 183744" d="M-659.547,796.992a.481.481,0,0,1-.1-.012.41.41,0,0,1-.3-.494c.141-.55.278-1.118.4-1.7.219-1.013.51-2.5.764-3.825a.405.405,0,0,1,.475-.32.408.408,0,0,1,.324.475c-.258,1.326-.552,2.82-.772,3.842-.129.587-.266,1.163-.4,1.721A.408.408,0,0,1-659.547,796.992Z" transform="translate(659.954 -790.636)"/>
          </g>
          <g id="Grupo_122066" data-name="Grupo 122066" transform="translate(55.707 88.449)">
            <path id="Trazado_183745" data-name="Trazado 183745" d="M-655.735,875.55a.423.423,0,0,1-.179-.04.407.407,0,0,1-.188-.541c2.316-4.843,2.152-10.643-.453-16.334-1.4-3.041-2.792-5.48-4.142-7.836-2.719-4.748-5.07-8.852-5.993-15.72a37.113,37.113,0,0,1-.154-8.411.412.412,0,0,1,.443-.361.4.4,0,0,1,.362.443,36.358,36.358,0,0,0,.152,8.223c.9,6.709,3.216,10.747,5.9,15.423,1.354,2.373,2.761,4.825,4.17,7.9,2.711,5.917,2.869,11.958.446,17.026A.4.4,0,0,1-655.735,875.55Z" transform="translate(667.011 -826.303)"/>
          </g>
          <g id="Grupo_122067" data-name="Grupo 122067" transform="translate(76.446 65.938)">
            <path id="Trazado_183746" data-name="Trazado 183746" d="M-624.184,868a.414.414,0,0,1-.334-.177c-4.032-5.882-1.3-11.914,1.594-18.3a67.95,67.95,0,0,0,3.089-7.632c2.016-6.437,1.831-13.243-.559-20.81-.287-.913-.627-1.941-.99-3.036a91.5,91.5,0,0,1-3.426-12.141,91.11,91.11,0,0,1-.118-23.178.41.41,0,0,1,.466-.339.409.409,0,0,1,.339.464,91.479,91.479,0,0,0,.114,22.921,90.172,90.172,0,0,0,3.393,12.015c.364,1.1.7,2.132,1,3.048,2.443,7.731,2.625,14.7.558,21.3a68.653,68.653,0,0,1-3.122,7.726c-2.919,6.44-5.438,12-1.664,17.506a.411.411,0,0,1-.1.565A.429.429,0,0,1-624.184,868Z" transform="translate(626.551 -782.385)"/>
          </g>
          <g id="Grupo_122068" data-name="Grupo 122068" transform="translate(108.447 71.407)">
            <path id="Trazado_183747" data-name="Trazado 183747" d="M-559.154,864.188a.391.391,0,0,1-.229-.069.406.406,0,0,1-.108-.564c2.808-4.112-.307-11.032-2.583-16.083l-.493-1.1c-2.473-5.56-2.049-11.549,1.67-23.728,3.82-12.488,3.755-20.134,2.357-29.117a.4.4,0,0,1,.335-.464.41.41,0,0,1,.465.338c1.381,8.872,1.468,16.9-2.378,29.48-4.112,13.452-3.774,18.515-1.711,23.161l.493,1.1c2.354,5.227,5.578,12.387,2.516,16.871A.4.4,0,0,1-559.154,864.188Z" transform="translate(564.12 -793.056)"/>
          </g>
          <g id="Grupo_122069" data-name="Grupo 122069" transform="translate(88.783 3.874)">
            <path id="Trazado_183748" data-name="Trazado 183748" d="M-602.056,671.862a.407.407,0,0,1-.4-.39c-.2-4.724,1.02-8.335,2.125-9.988a.405.405,0,0,1,.562-.113.407.407,0,0,1,.11.563c-1.034,1.554-2.175,4.974-1.985,9.5a.408.408,0,0,1-.391.423Z" transform="translate(602.482 -661.304)"/>
          </g>
          <g id="Grupo_122070" data-name="Grupo 122070" transform="translate(90.052 57.685)">
            <path id="Trazado_183749" data-name="Trazado 183749" d="M-592.692,773.485c-3.007,0-6.008-2.6-6.943-4.036-.375-.569-.462-1-.281-1.322h0c.138-.233.444-.426,1.546-.666,2.708-.59,12.414-1.529,13.095-1.041.269.189.318.576.151,1.216a8.359,8.359,0,0,1-7.028,5.819A4.885,4.885,0,0,1-592.692,773.485Zm-6.494-4.945a4.2,4.2,0,0,0,1.192,1.584c1.363,1.306,3.687,2.749,5.751,2.524a7.347,7.347,0,0,0,5.272-3.1,5.993,5.993,0,0,0,1.128-2.462C-587.579,766.927-598.009,767.87-599.186,768.54Zm-.377-.211h0Z" transform="translate(600.007 -766.284)"/>
          </g>
          <g id="Grupo_122071" data-name="Grupo 122071" transform="translate(22.528 39.15)">
            <path id="Trazado_183750" data-name="Trazado 183750" d="M-720.174,779.373a.405.405,0,0,1-.406-.406c0-1.129.081-2.273.176-3.6.063-.849.129-1.773.185-2.818.185-3.573-.086-6.212-.829-8.07-.729-1.821-2.969-4.048-4.456-5.521l-.4-.4a8.548,8.548,0,0,1-1.9-3.027c-.169-.4-.35-.809-.574-1.263-.1-.187-.243-.468-.427-.813-2.223-4.2-3.455-6.992-2.726-7.923a1.429,1.429,0,0,1,1.18-.537c1.253.033,2.742,1.348,3.6,2.559.524.747,1,1.482,1.492,2.259.658,1.026,1.332,2.085,2.156,3.182a16.28,16.28,0,0,0,3.162,2.652,5.8,5.8,0,0,1,.481.344c.792.617,1.116.746,1.478.315.972-1.169.967-4.4.59-6.289a15.43,15.43,0,0,1-.046-2.6c.028-1.32.067-2.967-.016-4.755a36.451,36.451,0,0,0-.941-6.555,10.843,10.843,0,0,1-.49-4.576,1.581,1.581,0,0,1,.64-1.107,1.616,1.616,0,0,1,1.3-.107c1.775.443,2.855,2.908,3.757,5.509a34.332,34.332,0,0,1,1.252,4.629c.066.313.12.572.169.779.266,1.055.6,3.31.92,5.488.272,1.863.529,3.62.681,4.147.2.692.371,1.153.944,1.181.594.042,1.244-.928,1.525-1.337.056-.081.1-.148.139-.2.421-.56.655-.9.892-1.246s.492-.7.925-1.288a39.441,39.441,0,0,0,5.585-9.259c.459-1.229.867-2.49,1.263-3.712.178-.552.357-1.107.543-1.662l.052-.15c.065-.207.138-.409.191-.623.162-.649.486-1.956,1.4-2.344a1.584,1.584,0,0,1,1.458.178c1.89,1.1,1.2,8.183.346,10.624a39.172,39.172,0,0,1-3.84,8.132l-.282.463c-2.792,4.579-3.35,5.934-3.329,6.267a.373.373,0,0,1-.188.515.435.435,0,0,1-.555-.212c-.257-.517.2-1.784,3.378-6.992l.286-.465a38.409,38.409,0,0,0,3.765-7.977c1-2.834,1.172-8.98.013-9.654-.438-.256-.663-.162-.738-.131-.542.23-.821,1.35-.926,1.769a7.368,7.368,0,0,1-.214.707l-.051.15q-.274.832-.54,1.655c-.4,1.23-.81,2.5-1.277,3.744a40.18,40.18,0,0,1-5.693,9.463c-.428.572-.665.92-.906,1.263s-.486.7-.916,1.274c-.028.042-.07.1-.114.168-.39.564-1.211,1.743-2.231,1.686-1.2-.055-1.51-1.14-1.676-1.725-.178-.621-.429-2.322-.717-4.292-.307-2.061-.649-4.4-.9-5.413-.057-.214-.111-.484-.18-.809a33.54,33.54,0,0,0-1.224-4.526c-.79-2.271-1.783-4.639-3.184-4.989a.907.907,0,0,0-.667,0,.9.9,0,0,0-.283.58,10.139,10.139,0,0,0,.483,4.193,37.647,37.647,0,0,1,.968,6.74c.085,1.818.047,3.48.014,4.814a16.927,16.927,0,0,0,.03,2.422c.253,1.266.656,5.261-.763,6.966-.919,1.1-2.012.261-2.6-.194a4.67,4.67,0,0,0-.4-.289,16.863,16.863,0,0,1-3.393-2.86c-.844-1.123-1.527-2.195-2.191-3.232-.49-.77-.956-1.495-1.471-2.229-.877-1.245-2.148-2.194-2.958-2.215a.585.585,0,0,0-.519.226c-.251.322.032,1.8,2.8,7.043.189.356.339.64.435.831.234.468.419.9.594,1.3a7.833,7.833,0,0,0,1.724,2.775l.4.4c1.62,1.613,3.844,3.819,4.635,5.8s1.077,4.718.886,8.414c-.052,1.051-.121,1.98-.185,2.832-.095,1.309-.176,2.442-.176,3.539A.4.4,0,0,1-720.174,779.373Z" transform="translate(731.741 -730.124)"/>
          </g>
          <g id="Grupo_122072" data-name="Grupo 122072" transform="translate(51.349 61.114)">
            <path id="Trazado_183751" data-name="Trazado 183751" d="M-663.6,786.641c-.734,0-1.4-.842-1.752-1.3-.679-.863-1.119-3.336-1.135-4.665-.008-.859-.953-1.4-1.714-1.828a3.872,3.872,0,0,1-.934-.646.408.408,0,0,1,.037-.574.407.407,0,0,1,.571.035,3.7,3.7,0,0,0,.726.479c.894.507,2.113,1.2,2.125,2.524a9.871,9.871,0,0,0,.944,4.154c.268.335.925,1.187,1.257.958.583-.4.669-1.761.724-2.663.014-.236.029-.452.048-.631.028-.276.06-.537.09-.792a18.486,18.486,0,0,0,.182-2.419,4.189,4.189,0,0,0-1.383-2.643c-.175-.2-.348-.4-.51-.6s-.32-.415-.472-.626a4.2,4.2,0,0,0-1.561-1.524c-.521-.233-1.031.007-1.622.285l-.257.121c-.353.157-.7.318-1.058.479-.942.432-1.915.881-2.89,1.272a11.519,11.519,0,0,1-2.3.6l-.552.1a.406.406,0,0,1-.475-.321.4.4,0,0,1,.321-.473l.553-.109a10.687,10.687,0,0,0,2.15-.555c.957-.386,1.922-.826,2.856-1.255.356-.163.709-.325,1.058-.481l.249-.117a2.648,2.648,0,0,1,2.3-.291,4.859,4.859,0,0,1,1.888,1.788c.142.2.29.4.442.6s.323.385.491.578a4.849,4.849,0,0,1,1.583,3.171,19.361,19.361,0,0,1-.184,2.519c-.031.251-.063.51-.091.782-.018.168-.03.372-.045.594-.071,1.123-.164,2.657-1.077,3.285A1.016,1.016,0,0,1-663.6,786.641Z" transform="translate(675.515 -772.974)"/>
          </g>
          <g id="Grupo_122073" data-name="Grupo 122073" transform="translate(54.904 66.578)">
            <path id="Trazado_183752" data-name="Trazado 183752" d="M-668.173,787.1a.4.4,0,0,1-.363-.224.407.407,0,0,1,.182-.543,13.419,13.419,0,0,0,2.406-1.673c.37-.307,1.2-.922,1.234-.948a.4.4,0,0,1,.564.083.4.4,0,0,1-.079.566s-.839.622-1.2.922a14.328,14.328,0,0,1-2.563,1.776A.4.4,0,0,1-668.173,787.1Z" transform="translate(668.578 -783.635)"/>
          </g>
          <g id="Grupo_122074" data-name="Grupo 122074" transform="translate(53.594 70.616)">
            <path id="Trazado_183753" data-name="Trazado 183753" d="M-667.68,798.515a2.937,2.937,0,0,1-2.26-1.074,5.593,5.593,0,0,1-.714-5.7.4.4,0,0,1,.542-.182.4.4,0,0,1,.182.544,4.86,4.86,0,0,0,.6,4.81,2.183,2.183,0,0,0,2.507.648,8.011,8.011,0,0,0,3.541-2.731l.3-.33a.4.4,0,0,1,.571-.031.406.406,0,0,1,.029.573l-.3.33a8.766,8.766,0,0,1-3.887,2.959A3.487,3.487,0,0,1-667.68,798.515Z" transform="translate(671.133 -791.512)"/>
          </g>
          <g id="Grupo_122075" data-name="Grupo 122075" transform="translate(47.279 69.645)">
            <path id="Trazado_183754" data-name="Trazado 183754" d="M-683.05,814.784a.4.4,0,0,1-.391-.3.408.408,0,0,1,.283-.5,15.872,15.872,0,0,0,5.58-2.5,26.931,26.931,0,0,0,2.281-2.395c.534-.61,1.086-1.241,1.672-1.827a48.162,48.162,0,0,1,3.768-3.278,45.869,45.869,0,0,0,3.669-3.184,7.992,7.992,0,0,0,1.435-2.933c.131-.394.257-.77.392-1.1a11.124,11.124,0,0,1,2.436-3.755c.954-1.02,1.157-1.935,1-2.257-.02-.044-.087-.173-.361-.254a6.578,6.578,0,0,0-3.6.713,3.018,3.018,0,0,0-.494.349c-.113.092-.238.193-.412.313a.4.4,0,0,1-.563-.1.4.4,0,0,1,.1-.564c.153-.11.266-.2.366-.281a3.964,3.964,0,0,1,.6-.423c.651-.374,2.943-1.178,4.242-.785a1.32,1.32,0,0,1,.849.669c.383.765-.071,2.041-1.131,3.174a10.255,10.255,0,0,0-2.273,3.5c-.127.318-.248.679-.376,1.06a8.467,8.467,0,0,1-1.633,3.25,47.5,47.5,0,0,1-3.726,3.238,47.228,47.228,0,0,0-3.706,3.219c-.568.569-1.113,1.19-1.637,1.789a27.429,27.429,0,0,1-2.35,2.467,16.341,16.341,0,0,1-5.9,2.679A.379.379,0,0,1-683.05,814.784Z" transform="translate(683.455 -789.618)"/>
          </g>
          <g id="Grupo_122076" data-name="Grupo 122076" transform="translate(43.08 95.361)">
            <path id="Trazado_183755" data-name="Trazado 183755" d="M-691.241,903.555a.4.4,0,0,1-.2-.052.408.408,0,0,1-.16-.551c2.954-5.344,2.1-12.009,1.48-16.877-.11-.838-.21-1.627-.281-2.345l-.025-.24c-.368-3.564-.78-7.607-.809-11.211-.039-3.543-.042-7.334.153-11.014.361-6.674,1.906-17.569,3.014-21.191a.407.407,0,0,1,.506-.27.4.4,0,0,1,.268.505c-1.091,3.577-2.618,14.373-2.974,21-.2,3.657-.194,7.43-.158,10.96.033,3.572.443,7.59.806,11.138l.024.239c.073.715.171,1.492.278,2.326.637,4.979,1.509,11.8-1.569,17.371A.417.417,0,0,1-691.241,903.555Z" transform="translate(691.646 -839.787)"/>
          </g>
          <g id="Grupo_122077" data-name="Grupo 122077" transform="translate(23.028 89.477)">
            <path id="Trazado_183756" data-name="Trazado 183756" d="M-721.623,909.725a6.267,6.267,0,0,1-4.791-1.94,18.141,18.141,0,0,1-3.228-7.142,71.7,71.7,0,0,1-1.126-12.723,84.649,84.649,0,0,1,2.139-19.077c.8-3.61,1.541-7.084,2.8-13.044,1.267-6,1.9-11.048,2.273-14.062l.016-.133a17.819,17.819,0,0,0,.1-2.865,12.9,12.9,0,0,1,.306-3.737,17.607,17.607,0,0,1,1.183-3.207,16.269,16.269,0,0,0,1.167-3.177.413.413,0,0,1,.491-.3.408.408,0,0,1,.3.491,17.52,17.52,0,0,1-1.217,3.319,16.412,16.412,0,0,0-1.137,3.067,12.207,12.207,0,0,0-.282,3.523,18.348,18.348,0,0,1-.1,2.985l-.017.135c-.378,3.027-1.011,8.093-2.284,14.124-1.258,5.967-2,9.441-2.8,13.057a83.708,83.708,0,0,0-2.12,18.9,71.185,71.185,0,0,0,1.114,12.59,17.381,17.381,0,0,0,3.047,6.749,5.73,5.73,0,0,0,4.436,1.651c1.99-.075,3.738-1.715,5.59-3.453.739-.692,1.505-1.411,2.319-2.063,2.973-2.379,5.206-6.388,6.819-9.616,3.717-7.428,6.277-17.667,7.973-24.444a.4.4,0,0,1,.491-.292.4.4,0,0,1,.3.493c-1.7,6.807-4.277,17.1-8.033,24.6-1.649,3.3-3.94,7.412-7.042,9.887-.784.633-1.537,1.34-2.266,2.02-1.967,1.846-3.821,3.588-6.115,3.674C-721.413,909.723-721.513,909.725-721.623,909.725Z" transform="translate(730.767 -828.309)"/>
          </g>
          <g id="Grupo_122078" data-name="Grupo 122078" transform="translate(140.034 94.325)">
            <path id="Trazado_183757" data-name="Trazado 183757" d="M-483.861,939.932a.415.415,0,0,1-.392-.3c-3.449-12.388-3.591-30.834-3.731-48.676-.062-8.329-.122-16.194-.521-23.148-.948-16.607-3.452-21.778-5.529-24.432-1.373-1.752-5.138-3.643-8.2-4.828a.406.406,0,0,1-.232-.525.409.409,0,0,1,.524-.233c1.535.6,6.694,2.715,8.549,5.087,2.284,2.913,4.745,8.15,5.7,24.885.4,6.974.461,14.85.522,23.186.14,17.789.282,36.181,3.7,48.465a.409.409,0,0,1-.281.5A.5.5,0,0,1-483.861,939.932Z" transform="translate(502.496 -837.767)"/>
          </g>
          <g id="Grupo_122079" data-name="Grupo 122079" transform="translate(134.378 151.287)">
            <path id="Trazado_183758" data-name="Trazado 183758" d="M-507.732,993.713a.4.4,0,0,1-.4-.337c-1.214-6.786-2.23-16.964-3.131-25.946-.851-8.5-1.587-15.844-2.253-18.007a.406.406,0,0,1,.27-.508.4.4,0,0,1,.505.271c.691,2.241,1.428,9.62,2.282,18.166.9,8.964,1.917,19.127,3.124,25.885a.407.407,0,0,1-.329.471A.518.518,0,0,1-507.732,993.713Z" transform="translate(513.531 -948.896)"/>
          </g>
          <g id="Grupo_122080" data-name="Grupo 122080" transform="translate(52.557 140.01)">
            <path id="Trazado_183759" data-name="Trazado 183759" d="M-669.617,982.821a.407.407,0,0,1-.374-.249c-.73-1.744-.339-3.131.156-4.889a23.348,23.348,0,0,0,.956-5.085c.083-1.233-.011-3.5-.1-5.694-.077-1.9-.153-3.695-.107-4.687.173-3.539-.924-10.6-1.094-11.539a22.35,22.35,0,0,0-.979-3.346,20.673,20.673,0,0,1-1.082-3.925,19.537,19.537,0,0,1-.145-2.48c-.006-.55-.013-1.118-.055-1.665l-.147-1.829c-.266-3.332-.57-7.109-.57-10.131a.406.406,0,0,1,.406-.4.406.406,0,0,1,.406.4c0,2.99.3,6.747.566,10.064l.146,1.836c.043.569.051,1.15.059,1.713a19.443,19.443,0,0,0,.131,2.379,20.374,20.374,0,0,0,1.05,3.772,22.664,22.664,0,0,1,1.007,3.469c.173.954,1.286,8.107,1.11,11.723-.045.953.027,2.732.1,4.616.091,2.213.187,4.5.1,5.778a24.107,24.107,0,0,1-.987,5.252c-.485,1.732-.806,2.874-.187,4.356a.409.409,0,0,1-.217.533A.451.451,0,0,1-669.617,982.821Z" transform="translate(673.157 -926.896)"/>
          </g>
          <g id="Grupo_122081" data-name="Grupo 122081" transform="translate(130.946 107.467)">
            <path id="Trazado_183760" data-name="Trazado 183760" d="M-517.349,951.914a.4.4,0,0,1-.181-.046.4.4,0,0,1-.2-.488c.053-.484-.425-3.912-.806-6.673-.417-2.973-.843-6.048-.929-7.452a20.88,20.88,0,0,1,.307-4.88,17.478,17.478,0,0,0,.18-5.4c-.258-2.023-.679-3.882-.928-4.99-.139-.63-.226-1.011-.242-1.21a39.986,39.986,0,0,1,.395-8.225,41.157,41.157,0,0,1,2.459-8.619,32.313,32.313,0,0,0,1.838-6.109c.588-3.984.292-7.091-.548-12.147l-.248-1.481c-.705-4.217-1.261-7.55-1.535-10.573a87.568,87.568,0,0,1-.133-9.815.394.394,0,0,1,.419-.393.4.4,0,0,1,.391.419,87.113,87.113,0,0,0,.129,9.712c.272,3,.826,6.316,1.528,10.519l.249,1.48c.853,5.141,1.153,8.3.549,12.4a33.011,33.011,0,0,1-1.879,6.271,40.135,40.135,0,0,0-2.417,8.451,39.031,39.031,0,0,0-.388,8.05c.009.143.109.584.227,1.1.252,1.12.677,3.005.939,5.067a18.363,18.363,0,0,1-.181,5.629,20.232,20.232,0,0,0-.3,4.706c.083,1.373.51,4.435.922,7.393.794,5.718.9,6.777.746,7.091A.409.409,0,0,1-517.349,951.914Z" transform="translate(520.226 -863.407)"/>
          </g>
          <g id="Grupo_122082" data-name="Grupo 122082" transform="translate(80.301 84.464)">
            <path id="Trazado_183761" data-name="Trazado 183761" d="M-602.892,825.339a33.7,33.7,0,0,1-4.375-.282c-5.872-.777-10.252-3-11.723-5.943a.408.408,0,0,1,.184-.543.407.407,0,0,1,.543.182c1.349,2.7,5.5,4.758,11.1,5.5,7.066.933,16.208-.4,20.716-5.477a.411.411,0,0,1,.575-.032.409.409,0,0,1,.033.573C-589.636,823.6-596.541,825.339-602.892,825.339Z" transform="translate(619.031 -818.528)"/>
          </g>
          <g id="Grupo_122083" data-name="Grupo 122083" transform="translate(56.033 105.775)">
            <path id="Trazado_183762" data-name="Trazado 183762" d="M-665.968,882.581a.351.351,0,0,1-.12-.02.4.4,0,0,1-.269-.508,62.3,62.3,0,0,0,1.726-8.822,104.476,104.476,0,0,0,.71-12.721.405.405,0,0,1,.4-.4h0a.405.405,0,0,1,.4.4,105.024,105.024,0,0,1-.716,12.831,63.582,63.582,0,0,1-1.753,8.953A.416.416,0,0,1-665.968,882.581Z" transform="translate(666.375 -860.106)"/>
          </g>
          <g id="Grupo_122084" data-name="Grupo 122084" transform="translate(39.732 71.904)">
            <path id="Trazado_183763" data-name="Trazado 183763" d="M-693.862,806.106a.407.407,0,0,1-.4-.344c-.367-2.392-1.478-8.254-3.822-11.072a.411.411,0,0,1,.049-.572.411.411,0,0,1,.575.054c2.382,2.864,3.53,8.412,4,11.465a.406.406,0,0,1-.34.464A.5.5,0,0,1-693.862,806.106Z" transform="translate(698.178 -794.026)"/>
          </g>
          <g id="Grupo_122085" data-name="Grupo 122085" transform="translate(57.788 157.51)">
            <path id="Trazado_183764" data-name="Trazado 183764" d="M-634.872,972.407c-6.908,0-14.3-2.637-18.979-5.192-1.4-.764-2.746-1.647-4.042-2.5a48.279,48.279,0,0,0-4.835-2.909.407.407,0,0,1-.182-.543.4.4,0,0,1,.544-.183,48.273,48.273,0,0,1,4.917,2.958c1.287.843,2.613,1.717,3.988,2.467,5.337,2.914,14.253,5.932,21.807,4.876a.408.408,0,0,1,.458.348.4.4,0,0,1-.343.457A24.282,24.282,0,0,1-634.872,972.407Z" transform="translate(662.952 -961.037)"/>
          </g>
          <g id="Grupo_122086" data-name="Grupo 122086" transform="translate(112.669 122.347)">
            <path id="Trazado_183765" data-name="Trazado 183765" d="M-555.479,917.925a.4.4,0,0,1-.371-.245.4.4,0,0,1,.211-.533c3.644-1.56,4.938-5.571,4.938-8.529a32.785,32.785,0,0,0-.739-6.641c-.573-3.027-1.031-5.42.546-9.289a.4.4,0,0,1,.529-.222.406.406,0,0,1,.22.528c-1.482,3.646-1.049,5.936-.5,8.834a33.428,33.428,0,0,1,.757,6.791c0,3.2-1.424,7.56-5.431,9.277A.436.436,0,0,1-555.479,917.925Z" transform="translate(555.883 -892.435)"/>
          </g>
          <g id="Grupo_122087" data-name="Grupo 122087" transform="translate(70.79 120.317)">
            <path id="Trazado_183766" data-name="Trazado 183766" d="M-630.128,923.885a.4.4,0,0,1-.232-.074c-6.9-4.906-8.943-12.578-5.764-21.609l.093-.26c.143-.438.343-.935.574-1.512,1.113-2.778,2.792-6.975,1.34-11.421a.408.408,0,0,1,.257-.513.41.41,0,0,1,.516.261c1.542,4.727-.2,9.086-1.36,11.973-.227.566-.421,1.053-.558,1.464l-.1.277c-3.047,8.658-1.1,16,5.472,20.677a.409.409,0,0,1,.095.566A.411.411,0,0,1-630.128,923.885Z" transform="translate(637.586 -888.476)"/>
          </g>
          <g id="Grupo_122088" data-name="Grupo 122088" transform="translate(8.261 45.085)">
            <path id="Trazado_183767" data-name="Trazado 183767" d="M-753.842,744.362a.438.438,0,0,1-.13-.021l-5.328-1.85a.4.4,0,0,1-.251-.515.4.4,0,0,1,.515-.25l5.329,1.847a.4.4,0,0,1,.249.516A.405.405,0,0,1-753.842,744.362Z" transform="translate(759.575 -741.703)"/>
          </g>
          <g id="Grupo_122089" data-name="Grupo 122089" transform="translate(7.719 30.949)">
            <path id="Trazado_183768" data-name="Trazado 183768" d="M-750.007,725.7a.4.4,0,0,1-.3-.127l-10.218-10.765a.4.4,0,0,1,.013-.572.4.4,0,0,1,.573.014l10.222,10.765a.408.408,0,0,1-.014.575A.417.417,0,0,1-750.007,725.7Z" transform="translate(760.633 -714.125)"/>
          </g>
          <g id="Grupo_122090" data-name="Grupo 122090" transform="translate(21.309 27.362)">
            <path id="Trazado_183769" data-name="Trazado 183769" d="M-729.693,716.092a.4.4,0,0,1-.359-.227l-4.025-8.155a.4.4,0,0,1,.184-.541.407.407,0,0,1,.543.185l4.022,8.154a.405.405,0,0,1-.184.544A.4.4,0,0,1-729.693,716.092Z" transform="translate(734.119 -707.128)"/>
          </g>
          <g id="Grupo_122091" data-name="Grupo 122091" transform="translate(33.595 14.64)">
            <path id="Trazado_183770" data-name="Trazado 183770" d="M-706.7,699.971a.407.407,0,0,1-.4-.334l-3.046-16.852a.412.412,0,0,1,.328-.472.408.408,0,0,1,.475.328l3.042,16.852a.4.4,0,0,1-.328.471A.324.324,0,0,1-706.7,699.971Z" transform="translate(710.152 -682.306)"/>
          </g>
          <g id="Grupo_122092" data-name="Grupo 122092" transform="translate(44.577 21.599)">
            <path id="Trazado_183771" data-name="Trazado 183771" d="M-688.321,705.392h-.02a.4.4,0,0,1-.384-.425l.434-8.7a.408.408,0,0,1,.426-.384.4.4,0,0,1,.383.425l-.435,8.7A.4.4,0,0,1-688.321,705.392Z" transform="translate(688.726 -695.883)"/>
          </g>
          <g id="Grupo_122093" data-name="Grupo 122093" transform="translate(0 54.327)">
            <path id="Trazado_183772" data-name="Trazado 183772" d="M-775.288,761.74a.4.4,0,0,1-.4-.374.4.4,0,0,1,.368-.436l14.028-1.2a.413.413,0,0,1,.439.37.407.407,0,0,1-.372.437l-14.025,1.2Z" transform="translate(775.692 -759.733)"/>
          </g>
          <g id="Grupo_122094" data-name="Grupo 122094" transform="translate(7.448 63.854)">
            <path id="Trazado_183773" data-name="Trazado 183773" d="M-760.758,781.281a.4.4,0,0,1-.387-.293.408.408,0,0,1,.274-.5l7.3-2.145a.407.407,0,0,1,.5.273.4.4,0,0,1-.274.5l-7.3,2.147A.433.433,0,0,1-760.758,781.281Z" transform="translate(761.161 -778.321)"/>
          </g>
          <g id="Grupo_122095" data-name="Grupo 122095" transform="translate(52.325 18.764)">
            <path id="Trazado_183774" data-name="Trazado 183774" d="M-673.206,702.867a.453.453,0,0,1-.151-.031.411.411,0,0,1-.224-.528l4.723-11.7a.407.407,0,0,1,.528-.22.4.4,0,0,1,.223.525l-4.722,11.7A.408.408,0,0,1-673.206,702.867Z" transform="translate(673.609 -690.353)"/>
          </g>
          <g id="Grupo_122096" data-name="Grupo 122096" transform="translate(92.189 0)">
            <path id="Trazado_183775" data-name="Trazado 183775" d="M-564.265,790.654a.411.411,0,0,1-.291-.121c-3.88-3.937-2.254-11.053.564-16.4a69.651,69.651,0,0,1,8.4-11.718,40.011,40.011,0,0,0,3.693-4.822c3.547-6.372,4.809-10.726,2.911-19.668-.538-2.533-5.18-19.886-9.048-32.676-1.139-3.762-2.142-7.96-3.2-12.405a164.117,164.117,0,0,0-5.208-18.628c-3.177-8.475-6.681-13.6-11.361-16.611-7.2-4.638-14.349-3.157-17.393-1.031a.409.409,0,0,1-.566-.1.409.409,0,0,1,.1-.565c3.226-2.252,10.76-3.84,18.3,1.013,4.837,3.114,8.439,8.36,11.684,17.007a165.05,165.05,0,0,1,5.235,18.721c1.057,4.436,2.056,8.624,3.189,12.359,3.876,12.812,8.528,30.2,9.067,32.745,1.952,9.2.651,13.678-2.994,20.232a39.649,39.649,0,0,1-3.781,4.947,68.966,68.966,0,0,0-8.3,11.575c-2.682,5.094-4.279,11.83-.7,15.456a.406.406,0,0,1,0,.572A.413.413,0,0,1-564.265,790.654Z" transform="translate(595.838 -653.745)"/>
          </g>
        </g>
      </g>
    </g>
  </g>
</svg>
