<svg xmlns="http://www.w3.org/2000/svg" width="254" height="147" viewBox="0 0 254 147">
  <g id="Grupo_128809" data-name="Grupo 128809" transform="translate(-956 -1597)">
    <path id="Rectángulo_37559" data-name="Rectángulo 37559" d="M80,0H254a0,0,0,0,1,0,0V67a80,80,0,0,1-80,80H0a0,0,0,0,1,0,0V80A80,80,0,0,1,80,0Z" transform="translate(956 1597)" fill="#2df0da"/>
    <g id="Grupo_128784" data-name="Grupo 128784" transform="translate(3118.924 265.067)">
      <path id="Trazado_187673" data-name="Trazado 187673" d="M-2083.445,1398.042c-1.061-.446-2.09-.913-3.145-1.31-.565-.213-.8-.375-.508-1.065q2.84-6.7,5.566-13.44c.264-.652.531-.656,1.1-.411,2.072.9,4.163,1.745,6.25,2.605.485.2,1.031.593,1.437-.064.353-.57-.135-.92-.487-1.272-1.6-1.6-3.183-3.225-4.818-4.792-.528-.506-.476-.786.018-1.274q5.1-5.041,10.144-10.145c.505-.512.786-.5,1.275.006,1.57,1.633,3.189,3.216,4.792,4.818.353.352.7.83,1.273.472s.286-.879.1-1.336c-.863-2.086-1.71-4.179-2.617-6.245-.3-.676-.232-.962.511-1.253,2.53-.99,5.012-2.1,7.537-3.1.751-.3,1.084-.6,1.02-1.511a17.168,17.168,0,0,1,1.171-8.5c2.807-6.147,7.606-9.431,14.349-9.666a31.309,31.309,0,0,1,8.765.441,15.786,15.786,0,0,1,11.906,14.888,23.315,23.315,0,0,1-.045,3.017c-.084.747.206,1.015.833,1.266,2.6,1.044,5.165,2.17,7.772,3.189.691.27.776.519.5,1.159-.917,2.108-1.784,4.238-2.663,6.362-.174.419-.449.891.042,1.251.537.393.913.007,1.285-.367,1.6-1.606,3.226-3.181,4.8-4.813.507-.526.793-.63,1.367-.045q5.027,5.116,10.144,10.145c.543.535.432.811-.048,1.276-1.628,1.575-3.212,3.194-4.815,4.795-.356.356-.819.713-.446,1.276s.891.259,1.345.071c2.085-.864,4.179-1.709,6.243-2.621.7-.311.956-.168,1.242.538,1.788,4.417,3.629,8.813,5.461,13.212.183.44.454.867-.269,1.061-.183.049-.352.209-.236.343.676.782.732,2.056,1.732,2.525,5.345,2.508,5.107,9.742,1.008,13.219a2.7,2.7,0,0,0-1.023,2.331,56.482,56.482,0,0,1-.156,7.914,11.746,11.746,0,0,1-4.1,7.284c-.4.348-.935.582-.587,1.305.382.792.011,1.954,1.351,2.251a17.234,17.234,0,0,1,8.331,4.139,15.622,15.622,0,0,1,5.213,11.329c.115,5.073.018,10.151.056,15.227.006.742-.24.878-.92.877q-21.268-.028-42.537,0c-.734,0-.9-.225-.884-.915.043-2.042.015-4.086.015-6.306-1.595.661-3.065,1.232-4.5,1.882-.751.341-1.132.294-1.458-.572-.779-2.073-1.681-4.1-2.525-6.147-.193-.468-.325-1.031-.992-.905s-.6.7-.595,1.208c0,2.14-.052,4.281.026,6.418.036.993-.146,1.343-1.252,1.324q-6.858-.112-13.717,0c-1.048.016-1.214-.337-1.188-1.257.062-2.18.02-4.362.02-6.544,0-.46.077-.976-.533-1.125-.676-.165-.834.35-1.03.829-.824,2.011-1.719,4-2.471,6.034-.373,1.011-.793,1.094-1.706.647-1.34-.656-2.758-1.153-4.328-1.793,0,2.189-.035,4.219.018,6.247.02.754-.147.981-.951.98q-21.205-.042-42.411,0c-.907,0-.982-.337-.978-1.077.027-4.74-.008-9.481.019-14.221a15.956,15.956,0,0,1,7.319-13.7c.171-.118.343-.235.51-.357.03-.022.043-.068.071-.115-.015-.375-.364-.252-.555-.327a8.03,8.03,0,0,1-5.334-7.758c-.016-3.44-.046-6.881,0-10.32.132-8.928,4.293-15.261,12.375-19.034C-2083.787,1398.418-2083.538,1398.428-2083.445,1398.042Zm47.59,10.954c-6.419,0-12.837-.013-19.255.018-.757,0-.989-.152-.979-.953.048-3.817.008-7.635.024-11.452a15.007,15.007,0,0,1,10.726-14.759,2.592,2.592,0,0,0,2.142-2.321c.194-1.376-.229-1.9-1.544-1.49-10.51,3.238-17.663,10.047-21.591,20.3-.284.74-.163,1.1.559,1.549a19.265,19.265,0,0,1,9.472,14.523c.586,4.8.193,9.636.18,14.456a5.213,5.213,0,0,1-.948,2.958c-.52.74-.393,1.132.281,1.708a32.189,32.189,0,0,0,47.538-6.483c1.1-1.64,2.268-3.239,1.534-5.4a1.438,1.438,0,0,1-.014-.626,2.193,2.193,0,0,0-.712-1.882,11.99,11.99,0,0,1,2.571-18.626c.749-.457.8-.824.547-1.57a32.246,32.246,0,0,0-11.576-15.9,30.349,30.349,0,0,0-10.438-5.064c-.838-.22-1.516.219-1.465.916.131,1.774.572,2.336,2.279,2.907a15.127,15.127,0,0,1,10.733,14.781c.018,3.776-.026,7.552.025,11.326.012.872-.191,1.109-1.086,1.1C-2023.186,1408.975-2029.521,1409-2035.855,1409Zm-40.341,52.349c5.7,0,11.4-.01,17.1.013.7,0,1.037-.072,1.025-.924-.054-3.646.044-7.295-.048-10.939a11.948,11.948,0,0,0-4.39-8.977c-.727-.635-1.058-.56-1.59.25-3.771,5.74-7.615,11.431-11.385,17.171-.619.942-.889.835-1.454-.021-3.78-5.734-7.621-11.427-11.386-17.17-.556-.848-.906-.816-1.6-.215a11.97,11.97,0,0,0-4.384,9.107c-.068,3.519.021,7.042-.041,10.562-.017.947.234,1.175,1.172,1.167C-2087.514,1461.321-2081.855,1461.345-2076.2,1461.345Zm14.14-25.434c.408.293.706.509,1.007.722a16.212,16.212,0,0,1,6.644,9.884,29.364,29.364,0,0,1,.354,6.392c.007.731,2.7,2.464,3.314,2.109.184-.106.275-.4.371-.628.458-1.078.865-2.179,1.36-3.241a4.611,4.611,0,0,1,5.4-2.638,4.669,4.669,0,0,1,3.646,4.537c.03,1.174.04,2.351,0,3.523-.023.616.19.79.785.769,1.174-.041,2.349,0,3.524-.015,1.208-.014,2.792.4,3.522-.2.768-.636.154-2.279.236-3.479.009-.125,0-.252,0-.377a4.686,4.686,0,0,1,3.68-4.763,4.69,4.69,0,0,1,5.493,2.908q.689,1.548,1.307,3.126c.162.414.313.594.82.453,2.582-.718,2.8-.974,2.8-3.625,0-.545-.005-1.091,0-1.636a16.127,16.127,0,0,1,11.124-15.191c.913-.3,1.85-.536,2.762-.842.746-.25,1.4-2.556.874-3.076-.74-.732-1.518-1.428-2.3-2.156-.186.257-.36.489-.524.727-12.607,18.349-37.333,21.483-54.1,6.831A1.457,1.457,0,0,0-2062.056,1435.911Zm-5.123-64.051c-1.86,1.874-3.56,3.614-5.3,5.315-.4.4-.373.614.013.98.883.836,1.751,1.691,2.573,2.586a4.691,4.691,0,0,1,.491,5.9,4.674,4.674,0,0,1-5.652,1.755q-1.589-.585-3.132-1.291c-.6-.274-.932-.271-1.205.444-.748,1.953-1.533,3.9-2.4,5.8-.348.769-.094,1.006.57,1.262,2.8,1.077,5.406,2.8,8.6,2.631a2.363,2.363,0,0,1,1.1.232c.981.471,1.275-.039,1.574-.877a35.265,35.265,0,0,1,9.272-14.015,35.879,35.879,0,0,1,13.017-7.874c.324-.111,1.077-.068.851-.641-.348-.879-.42-1.926-1.15-2.6a18.2,18.2,0,0,1-4.9-7.052c-.195-.531-.464-.559-.95-.34-1.22.55-2.454,1.075-3.708,1.54-.558.207-.577.441-.359.924.464,1.029.891,2.076,1.3,3.131a4.7,4.7,0,0,1-1.727,5.868,4.707,4.707,0,0,1-6.08-.712C-2065.339,1373.892-2066.221,1372.883-2067.179,1371.861Zm69.515,80.78a22.925,22.925,0,0,1,.024-3.267,11.422,11.422,0,0,0-3.284-9.9c-1.732-1.874-1.587-2.05-4.042-1.263-4.822,1.547-7.889,4.79-8.6,9.815-.6,4.235-.12,8.54-.207,12.813-.014.719.533.5.895.5,4.781.011,9.562-.009,14.342.024.744.005.894-.252.885-.932C-1997.684,1457.84-1997.664,1455.24-1997.664,1452.64Zm7.551-59.24c-.118-.341-.188-.579-.283-.808-.7-1.7-1.453-3.385-2.1-5.107-.265-.7-.587-.63-1.124-.387q-1.486.671-3.013,1.254a4.7,4.7,0,0,1-5.787-1.659,4.734,4.734,0,0,1,.595-6.1c.78-.821,1.576-1.629,2.406-2.4.44-.407.431-.66,0-1.078q-2.351-2.274-4.629-4.623c-.41-.422-.662-.458-1.076-.01-.8.861-1.63,1.693-2.49,2.492a4.688,4.688,0,0,1-5.895.583,4.672,4.672,0,0,1-1.807-5.735c.409-1.1.84-2.19,1.335-3.25.269-.577.116-.8-.428-1.01-1.134-.431-2.268-.872-3.363-1.391-.73-.347-1.036-.254-1.344.557a15.993,15.993,0,0,1-4.076,6.121,6.717,6.717,0,0,0-1.575,2.341c-.44.995-.211,1.255.766,1.609a36.118,36.118,0,0,1,21.463,20.121c.258.58.476,1.179.732,1.82C-1997.866,1393.041-1995.633,1392.4-1990.113,1393.4Zm-3.521,59.011c0,2.642.033,5.284-.02,7.925-.016.822.214,1.047,1.038,1.04q7.044-.06,14.088,0c.852.008,1.03-.262,1.021-1.057-.042-3.312-.029-6.625-.011-9.937a12.693,12.693,0,0,0-.389-3.486c-1.472-5.3-5.186-8.09-10.373-9.249-.621-.139-.819.208-1.093.573-1.256,1.678-2.5,3.364-3.779,5.023a2.254,2.254,0,0,0-.493,1.493C-1993.62,1447.3-1993.634,1449.853-1993.634,1452.411Zm-30.168-87.236c.37-.717.59-1.114.784-1.524a15.537,15.537,0,0,0,1.19-7.49,11.477,11.477,0,0,0-6.673-10.435c-3.672-1.836-7.619-1.207-11.485-1.017a9.472,9.472,0,0,0-4.978,1.93c-4.639,3.3-5.557,8-4.938,13.254a11.248,11.248,0,0,0,1.84,5.1c.034-.4.053-.545.057-.689.172-6.046,2.161-8.84,7.788-10.865a1.307,1.307,0,0,0,.823-.83,6.161,6.161,0,0,1,2.926-2.995c1.638-.85,1.635-.855,2.469.814.9,1.8.907,1.811-.831,2.872a2.027,2.027,0,0,0-1.081,2.1,1.972,1.972,0,0,0,1.561,1.762,11.981,11.981,0,0,0,1.229.244c2.528.4,5.056.724,6.967,2.756A9.91,9.91,0,0,1-2023.8,1365.175Zm-20.174.51c0,1.316-.028,2.322.005,3.326a8.094,8.094,0,0,0,7.36,7.738,8.059,8.059,0,0,0,8.52-6.267,16.468,16.468,0,0,0,.145-5.251,3.655,3.655,0,0,0-2.974-3.322,20.729,20.729,0,0,0-2.588-.475c-2.5-.29-4.628-1.164-5.8-3.577-.249-.513-.557-.363-.906-.213a5.988,5.988,0,0,0-3.539,3.98A17.3,17.3,0,0,0-2043.976,1365.684Zm-1.072,39.262c2.012,0,4.024-.031,6.035.015.764.017,1.09-.113,1.074-1-.059-3.268-.024-6.538-.022-9.807a1.943,1.943,0,0,0-.226-1.082q-2.182-3.595-4.327-7.212c-.2-.342-.366-.549-.874-.441a11.224,11.224,0,0,0-8.386,8.765c-.545,3.368-.124,6.776-.25,10.164-.025.678.395.6.816.6Q-2048.128,1404.943-2045.048,1404.946Zm18.2,0c1.97,0,3.941-.044,5.909.02.855.028,1.15-.167,1.122-1.081-.07-2.345-.019-4.693-.025-7.04a11.2,11.2,0,0,0-8.234-11.293c-.684-.224-1.014-.17-1.389.487-1.31,2.287-2.688,4.536-4.057,6.788a2.36,2.36,0,0,0-.382,1.291c.016,3.311.028,6.622-.007,9.933-.008.705.184.927.9.911C-2030.953,1404.916-2028.9,1404.946-2026.845,1404.946Zm39.251,13.949c0-1.038-.05-1.88.014-2.712.066-.862-.085-1.181-1.112-1.186a15.6,15.6,0,0,1-9.323-2.829,1.669,1.669,0,0,0-.869-.451,4.5,4.5,0,0,0-4.81,4.273c-.04,1.8-.048,3.6.006,5.4a8.087,8.087,0,0,0,7.251,7.713,8.1,8.1,0,0,0,8.638-6.281A22.073,22.073,0,0,0-1987.594,1418.895Zm-104.722,2.739c0,2.3-.011,4.189,0,6.077a3.964,3.964,0,0,0,3.426,4.286c1.472.312,2.978.465,4.451.771.592.123.731-.143.88-.579a1.621,1.621,0,0,0-.554-2.044,11.281,11.281,0,0,1-4.093-7.686c-.2-1.825-.035-3.687-.1-5.531a1.542,1.542,0,0,1,.831-1.519,71.144,71.144,0,0,0,7.541-5.653c1.194-1.007,1.976-2.025,1.748-3.713a18.892,18.892,0,0,1-.012-3.769c.068-1.031-.316-1.223-1.229-1-6.466,1.6-10.658,5.543-12.407,12.011C-2092.617,1416.174-2092.2,1419.126-2092.316,1421.634Zm32.22-.092c-.126-1.979.142-4.448-.207-6.92a16.245,16.245,0,0,0-12.818-13.383c-.823-.146-1.119.05-1.086.927.061,1.633.063,3.272,0,4.906a2.176,2.176,0,0,0,.827,1.838,64.728,64.728,0,0,0,8.349,6.454c.361.237.917.375.9.951-.084,2.876.362,5.787-.623,8.605a11.773,11.773,0,0,1-3.836,5.491c-.877.693-.3,1.364-.146,2.024.173.74.763.285,1.147.232,1.367-.189,2.737-.387,4.085-.676a3.944,3.944,0,0,0,3.407-4.173C-2060.079,1425.89-2060.1,1423.96-2060.1,1421.542Zm-24.162-1.582c0,.59-.007.925,0,1.26a8.109,8.109,0,0,0,7.1,7.867,8.124,8.124,0,0,0,8.643-5.617,16.142,16.142,0,0,0,.382-4.358,1.541,1.541,0,0,0-.783-1.529,47.792,47.792,0,0,1-6.509-5.115c-.571-.539-.939-.6-1.538-.021a35.49,35.49,0,0,1-5.687,4.535C-2083.941,1417.787-2084.646,1418.676-2084.258,1419.96Zm95.422-8.954a4.951,4.951,0,0,0,5.263-5.249,2.892,2.892,0,0,0-2.084-2.695,3.2,3.2,0,0,0-3.259,1.1c-.406.5-.385,1.491-1.127,1.494-.6,0-1.208-.512-1.811-.8-.3-.145-.589-.325-.9-.44-.587-.215-.588-.537-.338-1.054a6.916,6.916,0,0,1,3.448-3.666c1.153-.483.618-.867.056-1.329a6.367,6.367,0,0,0-9.676,1.955,3,3,0,0,0-.316,2.05C-1998.6,1407.651-1994.515,1410.948-1988.836,1411.007Zm-87.441,30.21a38.089,38.089,0,0,1,4.516.036,3.553,3.553,0,0,0,3.98-2.12c.525-.967.341-1.251-.557-1.34-2.649-.263-4.25-1.522-4.34-4.331-.023-.733-.448-.712-1.033-.581a9.306,9.306,0,0,1-4.476.07c-1.054-.283-1.68-.077-1.712,1.1-.062,2.24-1.316,3.188-3.426,3.577-1.936.357-1.84.468-.808,2.214a2.451,2.451,0,0,0,2.585,1.408C-2079.8,1441.122-2078.035,1441.217-2076.277,1441.217Zm40.349-52.253c1.266-2.11,2.375-4.022,3.552-5.891.549-.871.11-1.662-.163-2.383-.26-.688-.963-.119-1.424-.053a13.57,13.57,0,0,1-3.99-.011c-.435-.065-1.1-.589-1.339.007-.271.684-.74,1.461-.261,2.267C-2038.387,1384.864-2037.211,1386.82-2035.928,1388.964Zm44.057,45.5c-.013-1.395-.411-1.755-1.732-1.5a10.536,10.536,0,0,1-3.991.017c-1.521-.286-1.586-.213-1.814,1.274a1.273,1.273,0,0,0,.309,1.033c.985,1.3,1.991,2.588,2.93,3.922.442.628.669.514,1.06-.036.922-1.295,1.9-2.546,2.853-3.823C-1992.062,1435.087-1991.791,1434.847-1991.871,1434.461Zm-84.331,17.194,4.213-6.349h-8.442Zm68.868-38.311a8.333,8.333,0,0,1,5.07-4.957c.53-.172.445-.428.259-.831a14.157,14.157,0,0,1-1.086-2.665c-.3-1.281-.826-.974-1.509-.393A8.062,8.062,0,0,0-2007.334,1413.344Z" fill="#020202"/>
      <path id="Trazado_187674" data-name="Trazado 187674" d="M-2068.25,1657.856c-5.659,0-11.318-.024-16.976.023-.938.008-1.189-.22-1.172-1.167.062-3.52-.027-7.042.041-10.562a11.971,11.971,0,0,1,4.384-9.107c.69-.6,1.04-.632,1.6.216,3.765,5.743,7.606,11.436,11.386,17.17.565.857.835.964,1.454.021,3.771-5.74,7.615-11.432,11.386-17.171.532-.811.863-.885,1.59-.25a11.948,11.948,0,0,1,4.39,8.977c.092,3.645-.006,7.293.048,10.939.013.852-.326.927-1.024.924C-2056.849,1657.847-2062.549,1657.856-2068.25,1657.856Z" transform="translate(-7.946 -196.511)" fill="#ff8900"/>
      <path id="Trazado_187675" data-name="Trazado 187675" d="M-1990.429,1609.489a1.457,1.457,0,0,1,2.1.113c16.766,14.652,41.491,11.518,54.1-6.832.164-.239.339-.47.524-.727.78.729,1.557,1.424,2.3,2.156.526.52-.128,2.826-.874,3.076-.912.306-1.849.539-2.761.842a16.127,16.127,0,0,0-11.124,15.191c-.007.545,0,1.091,0,1.636,0,2.651-.216,2.907-2.8,3.625-.507.141-.658-.039-.82-.453q-.619-1.577-1.306-3.126a4.69,4.69,0,0,0-5.493-2.908,4.686,4.686,0,0,0-3.68,4.763c0,.126.007.252,0,.377-.083,1.2.532,2.843-.237,3.479-.73.6-2.314.188-3.522.2-1.175.013-2.35-.026-3.524.015-.595.021-.808-.153-.785-.769.044-1.173.035-2.349,0-3.524a4.669,4.669,0,0,0-3.646-4.537,4.611,4.611,0,0,0-5.4,2.638c-.494,1.061-.9,2.162-1.36,3.241-.1.225-.187.522-.371.628-.617.355-3.307-1.378-3.314-2.109a29.356,29.356,0,0,0-.354-6.392,16.213,16.213,0,0,0-6.644-9.884C-1989.722,1610-1990.021,1609.781-1990.429,1609.489Z" transform="translate(-71.627 -173.578)" fill="#ffbf76"/>
      <path id="Trazado_187676" data-name="Trazado 187676" d="M-2034.768,1418.188c.958,1.023,1.84,2.031,2.795,2.965a4.707,4.707,0,0,0,6.08.712,4.7,4.7,0,0,0,1.727-5.868c-.405-1.054-.833-2.1-1.3-3.131-.218-.484-.2-.717.359-.924,1.254-.465,2.488-.99,3.708-1.54.487-.219.756-.192.95.34a18.2,18.2,0,0,0,4.9,7.052c.73.679.8,1.726,1.15,2.6.227.573-.527.53-.851.641a35.88,35.88,0,0,0-13.017,7.874,35.26,35.26,0,0,0-9.272,14.014c-.3.838-.593,1.348-1.574.877a2.368,2.368,0,0,0-1.1-.232c-3.191.166-5.793-1.554-8.6-2.631-.664-.255-.918-.493-.57-1.262.863-1.9,1.649-3.846,2.4-5.8.274-.715.6-.718,1.205-.444q1.54.7,3.132,1.291a4.674,4.674,0,0,0,5.652-1.756,4.691,4.691,0,0,0-.491-5.9c-.822-.9-1.69-1.75-2.573-2.586-.386-.366-.416-.585-.013-.98C-2038.329,1421.8-2036.629,1420.062-2034.768,1418.188Z" transform="translate(-32.411 -46.327)" fill="#ffbf76"/>
      <path id="Trazado_187677" data-name="Trazado 187677" d="M-1831,1644.575c0,2.6-.021,5.2.014,7.8.009.68-.141.938-.885.932-4.78-.033-9.561-.013-14.342-.024-.362,0-.909.214-.895-.5.087-4.273-.39-8.579.207-12.813.708-5.025,3.776-8.269,8.6-9.815,2.456-.788,2.311-.611,4.043,1.263a11.422,11.422,0,0,1,3.284,9.9A22.888,22.888,0,0,0-1831,1644.575Z" transform="translate(-166.665 -191.935)" fill="#45c6e5"/>
      <path id="Trazado_187678" data-name="Trazado 187678" d="M-1845.369,1439.8c-5.52-1-7.753-.359-11.695,3.345-.257-.641-.475-1.239-.733-1.82a36.118,36.118,0,0,0-21.463-20.121c-.977-.354-1.206-.614-.766-1.609a6.719,6.719,0,0,1,1.575-2.341,15.992,15.992,0,0,0,4.076-6.121c.308-.81.613-.9,1.344-.557,1.095.52,2.229.96,3.362,1.392.544.207.7.433.428,1.01-.495,1.06-.926,2.153-1.335,3.25a4.673,4.673,0,0,0,1.807,5.735,4.688,4.688,0,0,0,5.895-.583c.86-.8,1.693-1.63,2.49-2.492.414-.448.666-.412,1.076.01q2.279,2.347,4.629,4.623c.432.418.441.671,0,1.078-.83.769-1.627,1.577-2.406,2.4a4.734,4.734,0,0,0-.595,6.1,4.7,4.7,0,0,0,5.787,1.659c1.015-.389,2.022-.806,3.013-1.254.537-.243.859-.316,1.124.387.65,1.721,1.4,3.405,2.1,5.106C-1845.557,1439.225-1845.487,1439.463-1845.369,1439.8Z" transform="translate(-144.744 -46.404)" fill="#ffbf76"/>
      <path id="Trazado_187679" data-name="Trazado 187679" d="M-1787.1,1644.036c0-2.558.014-5.116-.011-7.673a2.251,2.251,0,0,1,.493-1.493c1.279-1.66,2.524-3.346,3.779-5.023.274-.366.471-.712,1.093-.573,5.186,1.158,8.9,3.945,10.372,9.249a12.7,12.7,0,0,1,.389,3.486c-.018,3.312-.03,6.625.011,9.938.01.794-.169,1.064-1.02,1.056q-7.044-.066-14.089,0c-.824.007-1.054-.217-1.037-1.04C-1787.065,1649.32-1787.1,1646.678-1787.1,1644.036Zm6.162-7.167c-2.136,0-2.136,0-2.136,2.144,0,1.886,0,1.886,1.894,1.886,2.136,0,2.136,0,2.136-2.144C-1779.042,1636.87-1779.042,1636.87-1780.936,1636.87Zm1.894,10.1c0-2.04,0-2.04-1.99-2.04-2.04,0-2.04,0-2.04,1.99,0,2.04,0,2.04,1.99,2.04C-1779.042,1648.956-1779.042,1648.956-1779.042,1646.965Z" transform="translate(-206.536 -191.626)" fill="#45c6e5"/>
      <path id="Trazado_187680" data-name="Trazado 187680" d="M-1928.541,1373.051a9.913,9.913,0,0,0-2.351-5.014c-1.91-2.032-4.438-2.36-6.967-2.756a11.91,11.91,0,0,1-1.229-.244,1.972,1.972,0,0,1-1.561-1.762,2.027,2.027,0,0,1,1.081-2.1c1.737-1.061,1.732-1.07.831-2.872-.834-1.669-.832-1.663-2.469-.814a6.16,6.16,0,0,0-2.926,2.995,1.307,1.307,0,0,1-.824.83c-5.627,2.025-7.616,4.82-7.788,10.865,0,.144-.023.288-.057.689a11.248,11.248,0,0,1-1.84-5.1c-.619-5.25.3-9.956,4.939-13.253a9.469,9.469,0,0,1,4.978-1.93c3.865-.19,7.813-.819,11.484,1.017a11.477,11.477,0,0,1,6.673,10.435,15.534,15.534,0,0,1-1.19,7.49C-1927.951,1371.937-1928.171,1372.334-1928.541,1373.051Z" transform="translate(-95.261 -7.877)" fill="#646c76"/>
      <path id="Trazado_187681" data-name="Trazado 187681" d="M-1936.716,1399.3a17.289,17.289,0,0,1,.225-4.061,5.988,5.988,0,0,1,3.538-3.98c.349-.15.657-.3.906.213,1.17,2.412,3.3,3.287,5.8,3.577a20.734,20.734,0,0,1,2.588.475,3.655,3.655,0,0,1,2.974,3.323,16.477,16.477,0,0,1-.145,5.251,8.059,8.059,0,0,1-8.52,6.267,8.094,8.094,0,0,1-7.36-7.738C-1936.744,1401.621-1936.716,1400.615-1936.716,1399.3Z" transform="translate(-107.259 -33.614)" fill="#eeceb2"/>
      <path id="Trazado_187682" data-name="Trazado 187682" d="M-1953.709,1493.571q-3.081,0-6.161,0c-.421,0-.841.081-.816-.6.127-3.388-.3-6.8.25-10.164a11.224,11.224,0,0,1,8.386-8.765c.508-.108.67.1.874.441q2.154,3.611,4.327,7.212a1.943,1.943,0,0,1,.226,1.082c0,3.269-.036,6.539.023,9.807.016.885-.31,1.016-1.074,1C-1949.685,1493.54-1951.7,1493.571-1953.709,1493.571Z" transform="translate(-91.339 -88.625)" fill="#a9f73f"/>
      <path id="Trazado_187683" data-name="Trazado 187683" d="M-1899.7,1493.65c-2.054,0-4.108-.03-6.161.016-.718.016-.91-.206-.9-.911.035-3.311.023-6.622.007-9.933a2.359,2.359,0,0,1,.382-1.291c1.369-2.253,2.748-4.5,4.057-6.788.376-.656.705-.711,1.39-.487a11.2,11.2,0,0,1,8.234,11.293c.006,2.347-.046,4.7.025,7.04.028.914-.267,1.109-1.122,1.081C-1895.759,1493.606-1897.731,1493.65-1899.7,1493.65Z" transform="translate(-127.144 -88.705)" fill="#a9f73f"/>
      <path id="Trazado_187684" data-name="Trazado 187684" d="M-1800.923,1559.414a22.1,22.1,0,0,1-.205,3.928,8.1,8.1,0,0,1-8.638,6.281,8.087,8.087,0,0,1-7.251-7.713c-.054-1.8-.047-3.6-.007-5.4a4.5,4.5,0,0,1,4.81-4.273,1.67,1.67,0,0,1,.869.451,15.6,15.6,0,0,0,9.323,2.829c1.027.005,1.178.324,1.112,1.186C-1800.973,1557.534-1800.923,1558.375-1800.923,1559.414Z" transform="translate(-186.671 -140.519)" fill="#eeceb2"/>
      <path id="Trazado_187685" data-name="Trazado 187685" d="M-2080.389,1541.422c.114-2.508-.3-5.46.479-8.346,1.75-6.468,5.941-10.408,12.407-12.011.912-.226,1.3-.033,1.229,1a18.928,18.928,0,0,0,.013,3.769c.229,1.687-.554,2.705-1.748,3.713a71.1,71.1,0,0,1-7.541,5.653,1.542,1.542,0,0,0-.831,1.519c.07,1.843-.093,3.705.1,5.531a11.281,11.281,0,0,0,4.093,7.686,1.621,1.621,0,0,1,.554,2.044c-.149.435-.288.7-.88.579-1.473-.306-2.979-.459-4.451-.771a3.964,3.964,0,0,1-3.426-4.286C-2080.4,1545.611-2080.389,1543.724-2080.389,1541.422Z" transform="translate(-11.927 -119.788)" fill="#646c76"/>
      <path id="Trazado_187686" data-name="Trazado 187686" d="M-2012.443,1541.337c0,2.418.017,4.347,0,6.276a3.944,3.944,0,0,1-3.407,4.173c-1.348.289-2.718.487-4.085.676-.384.053-.974.509-1.147-.232-.154-.66-.731-1.331.146-2.024a11.772,11.772,0,0,0,3.836-5.491c.984-2.818.538-5.729.623-8.605.017-.576-.539-.715-.9-.951a64.745,64.745,0,0,1-8.349-6.454,2.176,2.176,0,0,1-.827-1.838c.065-1.633.063-3.273,0-4.906-.033-.877.264-1.073,1.086-.927a16.245,16.245,0,0,1,12.818,13.383C-2012.3,1536.889-2012.569,1539.358-2012.443,1541.337Z" transform="translate(-47.652 -119.794)" fill="#646c76"/>
      <path id="Trazado_187687" data-name="Trazado 187687" d="M-2056.628,1561.14c-.388-1.284.317-2.174,1.6-2.979a35.477,35.477,0,0,0,5.687-4.535c.6-.575.967-.518,1.538.021a47.808,47.808,0,0,0,6.509,5.115,1.54,1.54,0,0,1,.783,1.529,16.131,16.131,0,0,1-.382,4.358,8.124,8.124,0,0,1-8.643,5.617,8.109,8.109,0,0,1-7.1-7.867C-2056.635,1562.066-2056.628,1561.73-2056.628,1561.14Z" transform="translate(-27.63 -141.18)" fill="#eeceb2"/>
      <path id="Trazado_187688" data-name="Trazado 187688" d="M-1794.1,1522.357c-5.678-.059-9.767-3.356-10.744-8.638a3,3,0,0,1,.316-2.05,6.367,6.367,0,0,1,9.675-1.955c.562.462,1.1.846-.056,1.329a6.917,6.917,0,0,0-3.449,3.666c-.25.517-.249.839.338,1.054.312.115.6.3.9.44.6.289,1.209.8,1.811.8.743,0,.722-.995,1.127-1.494a3.194,3.194,0,0,1,3.259-1.1,2.892,2.892,0,0,1,2.084,2.695A4.951,4.951,0,0,1-1794.1,1522.357Z" transform="translate(-194.733 -111.35)" fill="#646c76"/>
      <path id="Trazado_187689" data-name="Trazado 187689" d="M-2049.621,1623.363c-1.758,0-3.522-.094-5.271.032a2.452,2.452,0,0,1-2.585-1.408c-1.031-1.746-1.128-1.857.809-2.214,2.11-.389,3.363-1.337,3.426-3.576.033-1.177.658-1.382,1.712-1.1a9.305,9.305,0,0,0,4.476-.07c.585-.13,1.01-.152,1.033.581.09,2.809,1.691,4.069,4.339,4.331.9.089,1.082.373.557,1.34a3.553,3.553,0,0,1-3.98,2.12A38.085,38.085,0,0,0-2049.621,1623.363Z" transform="translate(-26.656 -182.147)" fill="#eeceb2"/>
      <path id="Trazado_187690" data-name="Trazado 187690" d="M-1920.325,1467.648c-1.283-2.144-2.459-4.1-3.625-6.064-.479-.806-.01-1.583.261-2.267.236-.6.9-.072,1.339-.007a13.569,13.569,0,0,0,3.99.011c.462-.066,1.164-.636,1.425.052.272.721.712,1.511.163,2.383C-1917.95,1463.626-1919.058,1465.538-1920.325,1467.648Z" transform="translate(-115.603 -78.684)" fill="#eeceb2"/>
      <path id="Trazado_187691" data-name="Trazado 187691" d="M-1796.714,1616.677c.081.386-.191.627-.384.887-.948,1.276-1.931,2.528-2.853,3.823-.391.55-.618.663-1.06.036-.939-1.333-1.945-2.62-2.931-3.922a1.274,1.274,0,0,1-.308-1.033c.227-1.487.293-1.56,1.814-1.274a10.532,10.532,0,0,0,3.991-.017C-1797.125,1614.923-1796.727,1615.284-1796.714,1616.677Z" transform="translate(-195.157 -182.217)" fill="#eeceb2"/>
      <path id="Trazado_187692" data-name="Trazado 187692" d="M-2040.814,1658.447l-4.229-6.349h8.442Z" transform="translate(-35.387 -206.792)" fill="#fefefe"/>
      <path id="Trazado_187693" data-name="Trazado 187693" d="M-1828.464,1538.66a8.062,8.062,0,0,1,2.733-8.847c.683-.58,1.213-.888,1.509.393a14.168,14.168,0,0,0,1.086,2.665c.186.4.271.659-.259.831A8.333,8.333,0,0,0-1828.464,1538.66Z" transform="translate(-178.87 -125.316)" fill="#646c76"/>
      <path id="Trazado_187694" data-name="Trazado 187694" d="M-1950.64,1605.942c0,2.115,0,2.115-2.166,2.115-1.863,0-1.863,0-1.863-1.915,0-2.115,0-2.115,2.167-2.115C-1950.64,1604.027-1950.64,1604.027-1950.64,1605.942Z" transform="translate(-95.356 -174.894)" fill="#020202"/>
      <path id="Trazado_187695" data-name="Trazado 187695" d="M-1926.7,1606.068c0,1.989,0,1.989-2.041,1.989-1.989,0-1.989,0-1.989-2.041,0-1.989,0-1.989,2.041-1.989C-1926.7,1604.027-1926.7,1604.027-1926.7,1606.068Z" transform="translate(-111.244 -174.894)" fill="#020202"/>
      <path id="Trazado_187696" data-name="Trazado 187696" d="M-1904.684,1608.057c-2.1,0-2.1,0-2.1-2.057,0-1.972,0-1.972,1.932-1.972,2.1,0,2.1,0,2.1,2.058C-1902.752,1608.057-1902.752,1608.057-1904.684,1608.057Z" transform="translate(-127.132 -174.894)" fill="#020202"/>
      <path id="Trazado_187697" data-name="Trazado 187697" d="M-1880.732,1604.027c1.924,0,1.924,0,1.924,1.98,0,2.05,0,2.05-2.106,2.05-1.924,0-1.924,0-1.924-1.98C-1882.838,1604.027-1882.838,1604.027-1880.732,1604.027Z" transform="translate(-143.02 -174.894)" fill="#020202"/>
      <path id="Trazado_187698" data-name="Trazado 187698" d="M-1772.956,1651.914c1.893,0,1.893,0,1.893,1.886,0,2.144,0,2.144-2.136,2.144-1.894,0-1.894,0-1.894-1.886C-1775.092,1651.914-1775.092,1651.914-1772.956,1651.914Z" transform="translate(-214.516 -206.67)" fill="#020202"/>
      <path id="Trazado_187699" data-name="Trazado 187699" d="M-1771.062,1677.9c0,1.99,0,1.99-2.04,1.99-1.99,0-1.99,0-1.99-2.04,0-1.99,0-1.99,2.04-1.99C-1771.062,1675.858-1771.062,1675.858-1771.062,1677.9Z" transform="translate(-214.516 -222.558)" fill="#020202"/>
    </g>
  </g>
</svg>
