<svg xmlns="http://www.w3.org/2000/svg" width="295" height="230.976" viewBox="0 0 295 230.976">
  <g id="Grupo_128809" data-name="Grupo 128809" transform="translate(-982 -295.834)">
    <path id="Rectángulo_37348" data-name="Rectángulo 37348" d="M80,0H295a0,0,0,0,1,0,0V120a80,80,0,0,1-80,80H0a0,0,0,0,1,0,0V80A80,80,0,0,1,80,0Z" transform="translate(982 326.81)" fill="#2df0da"/>
    <g id="Grupo_125013" data-name="Grupo 125013" transform="translate(-2392.561 -207.234)">
      <g id="Grupo_125006" data-name="Grupo 125006" transform="translate(3451.275 503.306)">
        <path id="Trazado_184957" data-name="Trazado 184957" d="M3955.9,538.905c-6.123-4.344-2.51-13.8-2.51-13.8s-3.613,9.459,2.51,13.8l.3.21a1.175,1.175,0,0,0,1.712-.394,16.386,16.386,0,0,1,1.379-2.071,16.1,16.1,0,0,1-2.793-1.955,16.1,16.1,0,0,0,2.793,1.955c.348.191.717.375,1.1.542.193.083.39.163.59.236a6.149,6.149,0,0,0,4.3.192,2.073,2.073,0,0,0,.89-.654,1.526,1.526,0,0,0,.089-.137,2.464,2.464,0,0,0,.269-1.269,27.366,27.366,0,0,1,.073-4.124,9.262,9.262,0,0,1,5.237-7.2l.079-.037a17.726,17.726,0,0,0,7.264,12.591,13.841,13.841,0,0,0,7.032,2.574,22.059,22.059,0,0,1-3.988-12.964,22.059,22.059,0,0,0,3.988,12.964h0l.011.015a18.223,18.223,0,0,0,7.466,5.889q.627.276,1.3.522-.673-.246-1.3-.522a16.5,16.5,0,0,1,.108,4.368c.1-.1.195-.192.3-.283a6.557,6.557,0,0,1,5.977-1.567,5.69,5.69,0,0,1,.9.318c.738-1.574,1.371-3.1,1.916-4.573-.066-3.247.823-4.617,1.65-5.191a43.039,43.039,0,0,0,1.655-11.814c-.132-16.09-14.479-15.2-14.479-15.2a25,25,0,0,0-16.594-6.17c-7.986.065-18.111,4.63-20.9,12.725a15.176,15.176,0,0,1,1.675-1.5,15.176,15.176,0,0,0-1.675,1.5,19.967,19.967,0,0,0-4.964,9.485c-1.18,5.472-.352,14.39,6.179,15.417q.077-.669.155-1.337Q3955.734,540.17,3955.9,538.905Z" transform="translate(-3891.885 -505.146)" fill="#12263f"/>
        <g id="Grupo_125005" data-name="Grupo 125005" transform="translate(61.975 19.048)">
          <path id="Trazado_184958" data-name="Trazado 184958" d="M4187.382,856.309c.176-1.528-.294-2.837-1.049-2.924s-1.51,1.081-1.686,2.609.294,2.837,1.049,2.924S4187.207,857.837,4187.382,856.309Z" transform="translate(-4162.695 -832.592)" fill="none"/>
          <path id="Trazado_184959" data-name="Trazado 184959" d="M4197.321,919.072c-1.29-.078-2.369.4-2.409,1.066s.974,1.271,2.264,1.348,2.369-.4,2.409-1.066S4198.611,919.15,4197.321,919.072Z" transform="translate(-4171.818 -890.761)" fill="none"/>
          <path id="Trazado_184960" data-name="Trazado 184960" d="M4004.166,892.428c-1.291-.078-2.369.4-2.409,1.067s.973,1.27,2.264,1.348,2.369-.4,2.409-1.067S4005.457,892.506,4004.166,892.428Z" transform="translate(-4000.759 -867.165)" fill="none"/>
          <ellipse id="Elipse_5169" data-name="Elipse 5169" cx="2.785" cy="1.377" rx="2.785" ry="1.377" transform="translate(7.458 24.384) rotate(-83.433)" fill="none"/>
          <path id="Trazado_184961" data-name="Trazado 184961" d="M4178.608,788.706a6.513,6.513,0,0,0-3.584-.713,1.988,1.988,0,0,0-1.021.36.916.916,0,0,0-.344.97c.154.448.687.615,1.144.739a17.258,17.258,0,0,1,2.144.738q.66.277,1.3.607c.542.282,2.269,1.538,2.711.564a1.017,1.017,0,0,0,.071-.449C4180.985,790.21,4179.681,789.231,4178.608,788.706Z" transform="translate(-4152.964 -774.654)" fill="none"/>
          <path id="Trazado_184962" data-name="Trazado 184962" d="M4075.77,1126.825a13.753,13.753,0,0,0,4.987-5.042,10.153,10.153,0,0,0,1.117-2.748c-4.4,3.71-10.655,4.532-16.088,2.842-.1-.032-.208-.064-.312-.1-.134-.044-.267-.091-.4-.139q-.175-.063-.349-.129c-.216-.082-.43-.17-.642-.26l-.086.676-.934,7.314A20.023,20.023,0,0,0,4075.77,1126.825Z" transform="translate(-4055.055 -1067.857)" fill="#d59862"/>
          <path id="Trazado_184963" data-name="Trazado 184963" d="M4043.93,701.272a6.909,6.909,0,0,0-1.824-4.3c-.093-.1-.189-.194-.287-.287a6.049,6.049,0,0,0-1.67-1.126,5.714,5.714,0,0,0-.9-.318,6.557,6.557,0,0,0-5.977,1.567c-.1.091-.2.186-.3.283-.038.038-.076.075-.113.114.037-.039.075-.076.113-.114a16.491,16.491,0,0,0-.108-4.368,18.223,18.223,0,0,1-7.466-5.889l-.011-.015a13.841,13.841,0,0,1-7.032-2.574,17.727,17.727,0,0,1-7.264-12.591l-.079.037a9.262,9.262,0,0,0-5.237,7.2,27.366,27.366,0,0,0-.073,4.124,2.464,2.464,0,0,1-.269,1.269,2.09,2.09,0,0,1,.489.5,1.014,1.014,0,0,1,.184.416c.156,1.059-1.975.938-2.584.995q-.712.066-1.418.191a17.273,17.273,0,0,0-2.2.541,1.5,1.5,0,0,1-1.362,0,.917.917,0,0,1-.236-1,1.989,1.989,0,0,1,.663-.855,5.178,5.178,0,0,1,.594-.422c-.385-.166-.755-.351-1.1-.542a16.386,16.386,0,0,0-1.379,2.071,1.175,1.175,0,0,1-1.711.394l-.3-.21q-.16,1.266-.311,2.532-.079.668-.155,1.337-.1.853-.191,1.705c-.662,6.051-1.511,12.12-1.362,18.223.13,5.333,1.463,10.182,6.116,13.322.046.031.094.06.14.09a17.232,17.232,0,0,0,2.756,1.473c.213.09.427.178.642.26q.174.066.349.129c.133.048.266.095.4.139.1.034.208.066.312.1,5.433,1.69,11.691.868,16.088-2.842a10.152,10.152,0,0,1-1.117,2.748,13.752,13.752,0,0,1-4.987,5.042,20.023,20.023,0,0,1-12.7,2.416l-.271,2.121.271-2.121-.089-.012.089.012.934-7.314c-1.653.443-3.164.863-4.523,1.25q-1.019.291-1.923.556c-1.167,6,5.009,10.786,10.215,12.19a28.8,28.8,0,0,0,9.644.725,33.6,33.6,0,0,0,12.063-3.033,24.805,24.805,0,0,0,4.481-2.769q-.331-1.011-.719-2a57.324,57.324,0,0,1-2.723-10.561,2.331,2.331,0,0,0-.589-1.194,7.194,7.194,0,0,1-1.391-6.829,8.1,8.1,0,0,1,3.978-4.578,16.273,16.273,0,0,1,3.823-1.565,7.793,7.793,0,0,0,1-.35q-.123-.043-.243-.091h0a6.459,6.459,0,0,1-.984-.491,6.459,6.459,0,0,0,.984.491h0q.121.048.243.091a6.644,6.644,0,0,0,3.774.195,6.357,6.357,0,0,0,4.821-5.608A6.289,6.289,0,0,0,4043.93,701.272Zm-45.217-3c-.04.667-1.119,1.144-2.409,1.067s-2.3-.681-2.264-1.348,1.119-1.144,2.409-1.067S3998.753,697.6,3998.713,698.268Zm4.841-4.678c-.176,1.528-.931,2.7-1.686,2.609s-1.225-1.4-1.049-2.924.931-2.7,1.686-2.609S4003.73,692.062,4003.554,693.59Zm-4.473-3.234a3.539,3.539,0,0,1,5.252-.019A3.539,3.539,0,0,0,3999.081,690.356Zm8.731-.164s-2.238,10.506-3.708,13.282l2.226.946-2.226-.946C4005.575,700.7,4007.813,690.192,4007.813,690.192Zm4,20.971a7.466,7.466,0,0,1-2.241,1.1,6.816,6.816,0,0,1-2.5.322,5.014,5.014,0,0,1-1.082-.2,5.014,5.014,0,0,0,1.082.2,6.816,6.816,0,0,0,2.5-.322,7.466,7.466,0,0,0,2.241-1.1,6.515,6.515,0,0,0,1.957-2.362A6.515,6.515,0,0,1,4011.814,711.163Zm4.229-13.18c-.755-.087-1.225-1.4-1.049-2.924s.931-2.7,1.686-2.609,1.225,1.4,1.049,2.924S4016.8,698.07,4016.043,697.983Zm-2.174-6.314a3.538,3.538,0,0,1,5.2.717A3.538,3.538,0,0,0,4013.869,691.669Zm6.94,9.646c-.04.667-1.119,1.144-2.409,1.067s-2.3-.681-2.263-1.348,1.119-1.144,2.409-1.066S4020.85,700.649,4020.809,701.315Zm.222-12.341c-.442.974-2.168-.281-2.711-.564q-.635-.33-1.3-.607a17.286,17.286,0,0,0-2.144-.738c-.457-.124-.99-.291-1.144-.739a.917.917,0,0,1,.344-.97,1.99,1.99,0,0,1,1.021-.36,6.513,6.513,0,0,1,3.584.713c1.073.525,2.377,1.5,2.416,2.815A1.007,1.007,0,0,1,4021.031,688.974Zm16.872,9.92a4.107,4.107,0,0,1,1.484,4.162,4.107,4.107,0,0,0-1.484-4.162c-1.332.577-2.989,1.943-3.81,5.177.821-3.233,2.478-4.6,3.81-5.177a4.645,4.645,0,0,1,1.975-.414A4.645,4.645,0,0,0,4037.9,698.894Z" transform="translate(-3993.043 -671.657)" fill="#fddab1"/>
        </g>
        <path id="Trazado_184964" data-name="Trazado 184964" d="M4044.806,782.894a6.149,6.149,0,0,1-4.3-.192c-.2-.073-.4-.152-.59-.236a5.207,5.207,0,0,0-.594.422,1.989,1.989,0,0,0-.663.855.917.917,0,0,0,.236,1,1.5,1.5,0,0,0,1.362,0,17.267,17.267,0,0,1,2.2-.541q.7-.125,1.417-.191c.609-.057,2.74.064,2.584-.995a1.01,1.01,0,0,0-.183-.416,2.086,2.086,0,0,0-.489-.5,1.517,1.517,0,0,1-.089.137A2.072,2.072,0,0,1,4044.806,782.894Z" transform="translate(-3971.413 -750.421)" fill="#12263f"/>
        <path id="Trazado_184965" data-name="Trazado 184965" d="M3485.309,1773.185l.768-4.393c-.776-5.195-1.42-10.547-1.875-14.664-4.883.011-14.286-5.117-14.286-5.117l-1.489-.7-1.43,12.409a85.147,85.147,0,0,1-3.851,17.3l-.116.347q-1.193,3.562-2.679,7.016c-2.162,4.993-5.24,18.751-9.074,51.456h14.974c2.646-5.157,10.476-20.925,14.072-33.689a20.8,20.8,0,0,1,.669-2l2.111-5.353,1.169-14.464Q3484.6,1777.238,3485.309,1773.185Z" transform="translate(-3451.275 -1606.099)" fill="#fddab1"/>
        <path id="Trazado_184966" data-name="Trazado 184966" d="M4606,1608.32c-.437,9.917-5.175,12.586-6.9,13.231a8.342,8.342,0,0,1-.566,2.555c7.981.953,9.409-4.4,9.561-7.608a7.483,7.483,0,0,0-.594-3.292A32.613,32.613,0,0,1,4606,1608.32Z" transform="translate(-4467.292 -1482.123)" fill="#d15d3e"/>
        <path id="Trazado_184967" data-name="Trazado 184967" d="M4481.4,1227.89c-.251-.426-.48-.864-.7-1.307-1.969-4.013-6.634-3.495-6.634-3.495-6.027-1.594-14.088-6.526-16.735-8.209a30.69,30.69,0,0,0,1.256,4.482c2.553,7,8.218,22.193,11.423,28.164a12.5,12.5,0,0,1,9.845,7.85,6.29,6.29,0,0,1,.418,1.358c.129.68.364,1.849.676,3.154a32.727,32.727,0,0,0,1.5,4.886,7.461,7.461,0,0,1,.55,2.058c.295-4.723.052-12.938.052-12.938a104.981,104.981,0,0,0-.165-12.582A16.936,16.936,0,0,0,4481.4,1227.89Z" transform="translate(-4342.244 -1133.688)" fill="#ff8900"/>
        <path id="Trazado_184968" data-name="Trazado 184968" d="M3611.427,1225.617c-3.134-.077-5.1-4.439-6.335-6.894a59.768,59.768,0,0,1-3.111-7.513,13.05,13.05,0,0,0-.526-1.312c-5.443-11.65-5.446-36.085-5.446-36.085a55.537,55.537,0,0,0-.694-8.159,36.989,36.989,0,0,0-1.456-6.152,24.8,24.8,0,0,1-4.481,2.769,33.6,33.6,0,0,1-12.063,3.033,28.793,28.793,0,0,1-9.644-.725c-5.206-1.4-11.382-6.187-10.215-12.19q.9-.264,1.923-.556c-.08-.041-.167-.082-.261-.122a4.122,4.122,0,0,0-2.975-.078,113.823,113.823,0,0,0-13.325,5.606,52.87,52.87,0,0,1-7.876,3.312c-3.129,1.022-7.356,2.489-10.966,4.041a15.454,15.454,0,0,0-4.973,4.536c-5.475,8.027-11.845,19.442-20.632,45.018l11.764,5.532,1.489.7s9.4,5.128,14.286,5.117c.455,4.117,1.1,9.469,1.875,14.664l-.768,4.393q-.708,4.049-1.039,8.15l-1.169,14.464-.763,9.436a82.949,82.949,0,0,1-1.626,10.949c-1.332,6.124-3.4,15.975-3.981,20.654H3615.2c.406-8.46-1.122-21.674-1.692-26.207-.093-.739-.2-1.475-.333-2.208-.628-3.479-.943-11.567-1.071-15.886a43.383,43.383,0,0,0-.484-5.313c-.154-1-.313-2.107-.476-3.295,1.313-6.982,1.63-16.4,1.646-23.514a53.026,53.026,0,0,0,2.493-6.348,23.165,23.165,0,0,1-2.55.187C3612.29,1225.629,3611.854,1225.627,3611.427,1225.617Zm-27.047,14.254-19.177-11.213-20.109,9.442,4.738-21.7-15.193-16.207,22.106-2.2,10.719-19.458,8.924,20.344,21.818,4.182-16.59,14.774Z" transform="translate(-3492.982 -1077.465)" fill="#ff8900"/>
        <path id="Trazado_184969" data-name="Trazado 184969" d="M4326.494,870.48c-.312-1.306-.546-2.475-.676-3.154a6.316,6.316,0,0,0-.418-1.358,12.5,12.5,0,0,0-9.845-7.85c-3.205-5.971-8.87-21.162-11.423-28.164a30.69,30.69,0,0,1-1.256-4.482q-.231-1.147-.376-2.31a55.558,55.558,0,0,0-1.295-7.047,9.68,9.68,0,0,1,.286-5.43s7.164-8.091,9.242-12.57l2.865-4.052,2.078-4.8,1.505-4.956a.684.684,0,0,0-.6-.883c-1.26-.1-3.664.486-4.847,5.839,0,0-.255.313-.612.767a21.919,21.919,0,0,0-2.182,3.139,32.073,32.073,0,0,0-2.42,3.091,32.073,32.073,0,0,1,2.42-3.091,21.919,21.919,0,0,1,2.182-3.139l.62-4.6.2-5.906a.794.794,0,0,0-.863-.817c-1.153.1-3.052,1.123-3.316,6.723l-.1.425-.985,4.288a50.714,50.714,0,0,0-2.929,4.743,50.714,50.714,0,0,1,2.929-4.743l.985-4.288-.093-2.208-1.433-8.428s-4.681-1.283-2.69,8.587c0,0-.473,2.443-.635,4.383-.015.173-.027.342-.036.5,0,0-1.255,3.773-1.542,5.046.287-1.274,1.542-5.046,1.542-5.046.009-.163.021-.332.036-.5l-.316-6.184c0-.052-.008-.1-.016-.155l-.589-4a.777.777,0,0,0-1.091-.6,2.391,2.391,0,0,0-.368.21c-.826.574-1.716,1.945-1.649,5.191.009.432.034.9.079,1.4l-.075,3.287a2.186,2.186,0,0,1-.137.711l-.113.3c.1.093.195.188.287.287a6.909,6.909,0,0,1,1.824,4.3,6.363,6.363,0,0,1-.015.88,26.989,26.989,0,0,1,7.4,3.863,26.989,26.989,0,0,0-7.4-3.863,6.356,6.356,0,0,1-4.821,5.608,6.646,6.646,0,0,1-3.774-.195,7.766,7.766,0,0,1-1,.35,16.282,16.282,0,0,0-3.823,1.565,8.1,8.1,0,0,0-3.977,4.578,7.192,7.192,0,0,0,1.391,6.829,2.331,2.331,0,0,1,.589,1.194,57.279,57.279,0,0,0,2.723,10.561q.387.992.718,2a37.041,37.041,0,0,1,1.457,6.152,55.535,55.535,0,0,1,.694,8.159s0,24.434,5.446,36.085a13.06,13.06,0,0,1,.526,1.312,59.762,59.762,0,0,0,3.111,7.513c1.232,2.455,3.2,6.817,6.335,6.894.428.01.863.012,1.3,0a23.184,23.184,0,0,0,2.55-.187,12.769,12.769,0,0,0,6.137-2.292,8.633,8.633,0,0,0,2.8-3.692,8.372,8.372,0,0,0,.566-2.555C4321.32,883.066,4326.057,880.4,4326.494,870.48Zm-31.64-66.2c-6.111,2.667-5.268,6.216-5.268,6.216s-.843-3.55,5.268-6.216a15.541,15.541,0,0,0,4.487-2.762A15.541,15.541,0,0,1,4294.854,804.279Z" transform="translate(-4187.788 -744.283)" fill="#fddab1"/>
        <path id="Trazado_184970" data-name="Trazado 184970" d="M4187.382,856.309c.176-1.528-.294-2.837-1.049-2.924s-1.51,1.081-1.686,2.609.294,2.837,1.049,2.924S4187.207,857.837,4187.382,856.309Z" transform="translate(-4100.72 -813.544)" fill="#1a3139"/>
        <ellipse id="Elipse_5170" data-name="Elipse 5170" cx="2.785" cy="1.377" rx="2.785" ry="1.377" transform="translate(69.433 43.432) rotate(-83.433)" fill="#1a3139"/>
        <path id="Trazado_184971" data-name="Trazado 184971" d="M4199.584,920.42c.041-.667-.973-1.27-2.264-1.348s-2.369.4-2.409,1.066.974,1.271,2.264,1.348S4199.544,921.087,4199.584,920.42Z" transform="translate(-4109.843 -871.714)" fill="#e8a28f"/>
        <path id="Trazado_184972" data-name="Trazado 184972" d="M4004.166,892.428c-1.291-.078-2.369.4-2.409,1.067s.973,1.27,2.264,1.348,2.369-.4,2.409-1.067S4005.457,892.506,4004.166,892.428Z" transform="translate(-3938.784 -848.117)" fill="#e8a28f"/>
        <path id="Trazado_184973" data-name="Trazado 184973" d="M4174.8,790.062a17.258,17.258,0,0,1,2.144.738q.66.277,1.3.607c.542.282,2.269,1.538,2.711.564a1.017,1.017,0,0,0,.071-.449c-.039-1.312-1.343-2.291-2.416-2.815a6.513,6.513,0,0,0-3.584-.713,1.988,1.988,0,0,0-1.021.36.916.916,0,0,0-.344.97C4173.813,789.771,4174.345,789.938,4174.8,790.062Z" transform="translate(-4090.989 -755.606)" fill="#12263f"/>
        <path id="Trazado_184974" data-name="Trazado 184974" d="M4330.594,509.438c-7.042-.53-6.656,5.53-6.656,5.53A12.644,12.644,0,0,1,4330.594,509.438Z" transform="translate(-4224.106 -508.918)" fill="#1a3139"/>
        <path id="Trazado_184975" data-name="Trazado 184975" d="M3857.166,1408.952l-8.924-20.344-10.719,19.458-22.106,2.2,15.193,16.207-4.738,21.7,20.109-9.441,19.178,11.213-2.765-22.042,16.59-14.774Z" transform="translate(-3773.761 -1287.545)" fill="#a9f73f"/>
      </g>
      <g id="Grupo_125007" data-name="Grupo 125007" transform="translate(3468.366 534.416)">
        <path id="Trazado_184976" data-name="Trazado 184976" d="M3734.4,1877.252c-1.656,13.745-4.657,12.825-4.657,12.825l-1.27-6.785s-2.287,10.289-3.271,30.963c0,0-.719,8.156.443,8.782a220.922,220.922,0,0,0,7.324-32.313Z" transform="translate(-3710.762 -1751.4)" opacity="0.15"/>
        <path id="Trazado_184977" data-name="Trazado 184977" d="M3600.678,1689.523a70.111,70.111,0,0,0,16.37,10.324L3615.767,1688l-1.051-6.208s1.111,7.515-2.245,2.642C3612.471,1684.435,3610.675,1694.168,3600.678,1689.523Z" transform="translate(-3600.678 -1578.3)" opacity="0.15"/>
        <path id="Trazado_184978" data-name="Trazado 184978" d="M4455.734,1807.319l-3.617-31.754s1.579,2.863,3.954,2.822l3.966-.2s-2.018,5.279-2.6,6.364C4457.432,1784.552,4457.273,1803.092,4455.734,1807.319Z" transform="translate(-4354.717 -1661.345)" opacity="0.15"/>
        <path id="Trazado_184979" data-name="Trazado 184979" d="M4253.185,1770.709s16.782-74.6,16.987-97.068c0,0-1.514,63.207-7.054,97.069Z" transform="translate(-4178.542 -1571.081)" opacity="0.15"/>
        <path id="Trazado_184980" data-name="Trazado 184980" d="M4570.215,1500.9s9.932,1,9.314,19.481c0,0-2.037,5.034-5.486,6a12.758,12.758,0,0,1-.589,2.589s7.8,1.641,9.348-5.831a32.949,32.949,0,0,0,.222-4.129V1507.2s-1.3,8.271-1.907,6.79l-1.1-4.809S4577.635,1501.989,4570.215,1500.9Z" transform="translate(-4459.305 -1418.104)" opacity="0.15"/>
        <path id="Trazado_184981" data-name="Trazado 184981" d="M4467.042,777.1l.562,8.115a5.522,5.522,0,0,1-.023,1.008l-.347,3.012a11.456,11.456,0,0,1-.854,3.208l-1.805,4.2a46.466,46.466,0,0,1,3.017-4.683l.967-4.514-.107-2.1Z" transform="translate(-4365.749 -777.097)" opacity="0.15"/>
        <path id="Trazado_184982" data-name="Trazado 184982" d="M4483.477,829.493l2.382-3.753,1.5-2.7a10,10,0,0,0,1.013-2.672l.4-1.814.764-5.97-.167,5.994-.609,4.525s-2.024,2.722-2.254,3.236c0,0-2.412,2.945-2.508,3.269Z" transform="translate(-4382.489 -808.524)" opacity="0.15"/>
        <path id="Trazado_184983" data-name="Trazado 184983" d="M4438.458,813.487l1.277-4.97v-6.5l-.36-4.276.858,4.087.279,6.707s-1.583,4.6-1.687,5.467l-.485-.168Z" transform="translate(-4342.516 -795.384)" opacity="0.15"/>
      </g>
      <g id="Grupo_125012" data-name="Grupo 125012" transform="translate(3451.275 503.068)">
        <g id="Grupo_125008" data-name="Grupo 125008" transform="translate(56.75 0)">
          <path id="Trazado_184984" data-name="Trazado 184984" d="M4405.94,842.9c-.163.452-.365.889-.551,1.332l-.508,1.2-.055.129.061-.126q.962-1.994,1.773-4.061c-.006-.115-.011-.228-.015-.343C4406.421,841.658,4406.177,842.278,4405.94,842.9Z" transform="translate(-4352.496 -802.37)" fill="#12263f"/>
          <path id="Trazado_184985" data-name="Trazado 184985" d="M4338.537,574.175l-.016-.722a19.663,19.663,0,0,0-1-5.71,14.052,14.052,0,0,0-1.236-2.635,11.9,11.9,0,0,0-1.8-2.29,12.321,12.321,0,0,0-2.289-1.789,13.815,13.815,0,0,0-2.625-1.23,15.96,15.96,0,0,0-2.81-.682,14.344,14.344,0,0,0-2.88-.161,12.671,12.671,0,0,1,1.44.058c.478.043.953.105,1.426.19a15.783,15.783,0,0,1,2.769.75,13.766,13.766,0,0,1,2.568,1.255,12.068,12.068,0,0,1,2.217,1.79,11.541,11.541,0,0,1,.929,1.081c.146.188.282.383.417.577s.263.4.381.6a13.738,13.738,0,0,1,1.188,2.587,19.476,19.476,0,0,1,.959,5.618l.017.719c.008.239.009.476.006.715-.005.477-.022.955-.051,1.433l-.02.358-.029.358-.058.716-.077.714-.039.357q-.018.178-.043.356a52.26,52.26,0,0,1-1.03,5.656c-.086.355-.173.709-.265,1.062l.049-.035.168-.109.088-.048q.108-.4.21-.81a48.264,48.264,0,0,0,1.1-5.677c.037-.238.057-.478.086-.719l.08-.719.061-.721.029-.36.021-.362q.045-.723.056-1.448C4338.544,574.661,4338.544,574.416,4338.537,574.175Z" transform="translate(-4280.817 -552.548)" fill="#12263f"/>
          <path id="Trazado_184986" data-name="Trazado 184986" d="M3980.906,504.082a24.077,24.077,0,0,0-10.988-.663,27.726,27.726,0,0,0-2.7.619,25.481,25.481,0,0,0-2.628.886q-1.289.514-2.521,1.153a23.736,23.736,0,0,0-2.376,1.43l-.285.2c-.1.066-.19.131-.281.2l-.555.416-.538.437c-.091.072-.177.149-.263.226l-.26.23a19.025,19.025,0,0,0-1.917,2,14.727,14.727,0,0,0-2.609,4.714c-.075.073-.148.148-.221.224-.114.12-.23.237-.343.357-.219.247-.443.49-.649.748s-.408.521-.608.784l-.285.406c-.047.067-.1.135-.142.2l-.135.208a19.065,19.065,0,0,0-1,1.716,20.451,20.451,0,0,0-1.468,3.686,19.807,19.807,0,0,0-.7,3.91,21.192,21.192,0,0,0,.061,3.97,16.667,16.667,0,0,0,.336,1.961,13.3,13.3,0,0,0,.588,1.9,10.332,10.332,0,0,0,.906,1.775,7.8,7.8,0,0,0,1.28,1.527,6.515,6.515,0,0,0,1.662,1.085c.075.034.148.073.226.1l.233.085.233.084c.077.029.159.045.238.068l.239.062.12.031c.041.008.081.015.122.022l.419.072v0a7.281,7.281,0,0,1-1.793-.606,6.405,6.405,0,0,1-1.588-1.125,7.73,7.73,0,0,1-1.206-1.525,10.407,10.407,0,0,1-.848-1.752,14.184,14.184,0,0,1-.545-1.874,16.251,16.251,0,0,1-.307-1.93c-.064-.649-.106-1.3-.111-1.954s.019-1.306.07-1.956a20.41,20.41,0,0,1,2.067-7.5c.29-.586.6-1.161.949-1.716l.128-.21c.043-.069.089-.136.134-.206l.271-.409c.19-.266.376-.536.58-.793a16.3,16.3,0,0,1,2.725-2.828q-.4.29-.779.607t-.734.663c-.04.038-.079.076-.118.115a15.522,15.522,0,0,1,2.787-4.545,18.848,18.848,0,0,1,1.945-1.911c.175-.144.345-.295.526-.434l.538-.419.554-.4c.091-.067.186-.13.281-.192l.284-.189a26.471,26.471,0,0,1,2.36-1.364q1.218-.613,2.493-1.1t2.587-.855c.876-.242,1.763-.443,2.658-.6a25.4,25.4,0,0,1,2.7-.319,23.1,23.1,0,0,1,2.72-.005,25.027,25.027,0,0,1,5.371.869l.656.187c.11.029.218.066.326.1l.323.108c.216.074.434.139.646.221l.639.243.319.121.314.135.628.271c.209.092.411.2.617.295l.308.149c.1.049.2.1.3.155a26.105,26.105,0,0,1,4.562,3.029,23.647,23.647,0,0,0-4.444-3.247A24.8,24.8,0,0,0,3980.906,504.082Z" transform="translate(-3947.369 -503.068)" fill="#12263f"/>
          <path id="Trazado_184987" data-name="Trazado 184987" d="M3997.74,671.833c-.12.062-.244.115-.361.184l-.351.2c-.119.065-.229.143-.344.215-.232.14-.446.306-.667.464-.108.082-.21.17-.317.255l-.158.13c-.051.044-.1.092-.151.137-.1.093-.2.185-.3.279l-.281.3c-.1.1-.181.2-.269.308l-.132.158-.066.078-.061.083-.242.332c-.078.112-.147.231-.221.346l-.11.174-.1.18c-.065.121-.132.241-.194.363a9.274,9.274,0,0,0-.588,1.538l-.029.1-.024.1-.048.2c-.03.134-.069.266-.089.4-.047.27-.1.541-.129.813a23.853,23.853,0,0,0-.066,3.252l.011.4,0,.2c0,.064,0,.126,0,.189a2.4,2.4,0,0,1-.12.716,1.337,1.337,0,0,1-.372.566,2.165,2.165,0,0,1-.613.377,3.928,3.928,0,0,1-.723.221,5.231,5.231,0,0,1-.762.084,7.045,7.045,0,0,1-1.551-.147,11.1,11.1,0,0,1-2.959-1.116c-.473-.247-.931-.523-1.379-.815q-.336-.22-.664-.454c-.218-.155-.434-.315-.643-.484a13.543,13.543,0,0,0,1.226,1.052,15.367,15.367,0,0,0,1.338.916l.147.088a14.453,14.453,0,0,0-1.367,1.928,1.075,1.075,0,0,1-1.478.4c-.04-.027-.076-.047-.119-.079l-.125-.092c-.084-.061-.168-.122-.245-.187a8.018,8.018,0,0,1-2.8-3.9,10.722,10.722,0,0,1-.512-2.388,15.239,15.239,0,0,1-.051-2.458,20.11,20.11,0,0,1,.3-2.453,20.7,20.7,0,0,1,.584-2.411,16.228,16.228,0,0,0-.745,2.377,17.411,17.411,0,0,0-.4,2.467,14.183,14.183,0,0,0,0,2.509,10.823,10.823,0,0,0,.51,2.466,8.39,8.39,0,0,0,1.161,2.243,7.773,7.773,0,0,0,1.8,1.762c.055.042.11.083.166.121l0,0,.083.057.129.088c.041.029.1.06.142.089a1.3,1.3,0,0,0,.657.156,1.314,1.314,0,0,0,.638-.2,1.279,1.279,0,0,0,.447-.488,17.645,17.645,0,0,1,1.232-2,10.415,10.415,0,0,0,2.839,1.191,7.781,7.781,0,0,0,.813.152,6.5,6.5,0,0,0,.831.052,5.611,5.611,0,0,0,.839-.073,4.459,4.459,0,0,0,.821-.232,2.5,2.5,0,0,0,.757-.456,1.846,1.846,0,0,0,.51-.762,2.864,2.864,0,0,0,.154-.865c0-.072,0-.143,0-.213l0-.2-.008-.4a24.658,24.658,0,0,1,.037-3.188c.023-.262.067-.521.106-.781.015-.13.051-.257.076-.386l.041-.192.021-.1.026-.094.106-.379a1.835,1.835,0,0,1,.06-.187l.064-.186c.078-.251.188-.49.286-.733a9.3,9.3,0,0,1,.777-1.371l.055-.083.059-.079.119-.158c.08-.105.157-.213.245-.312l.258-.3.275-.286c.046-.048.091-.1.138-.143l.146-.136c.1-.09.193-.184.293-.27.205-.169.407-.345.623-.5a12.587,12.587,0,0,1,1.339-.886,1.8,1.8,0,0,0-.184.083Z" transform="translate(-3974.823 -652.373)" fill="#12263f"/>
          <path id="Trazado_184988" data-name="Trazado 184988" d="M4171.156,691.9a19.086,19.086,0,0,1-2.552-1.73,18.3,18.3,0,0,1-4.069-4.579,21.467,21.467,0,0,1-2.455-5.628,25.3,25.3,0,0,1-.645-3.021,21.234,21.234,0,0,1-.257-3.085,14.21,14.21,0,0,0-.017,1.553q.028.778.11,1.553a22.266,22.266,0,0,0,.554,3.067c.129.5.27,1.006.439,1.5s.35.982.546,1.464a20.253,20.253,0,0,0,1.437,2.777q.332.523.7,1.024a13.868,13.868,0,0,1-5.059-1.684c-.406-.227-.805-.467-1.191-.726s-.759-.536-1.122-.826-.711-.6-1.045-.917-.662-.649-.97-.995a18.7,18.7,0,0,1-3.039-4.643,20.544,20.544,0,0,1-1-2.611c-.135-.448-.259-.9-.367-1.355-.052-.229-.106-.457-.15-.688s-.09-.462-.133-.693c.015.234.027.471.051.705s.054.469.083.7c.07.468.156.933.261,1.4s.235.919.379,1.372.313.9.494,1.338a16.686,16.686,0,0,0,3.052,4.808,15.683,15.683,0,0,0,4.534,3.439c.425.214.863.4,1.305.577a13.544,13.544,0,0,0,1.354.438,12.722,12.722,0,0,0,1.393.281,11.653,11.653,0,0,0,1.184.1,17.683,17.683,0,0,0,1.178,1.449,17.13,17.13,0,0,0,2.3,2.112,18.021,18.021,0,0,0,4.2,2.389l.017.008c.423.172.853.33,1.285.474A22.554,22.554,0,0,1,4171.156,691.9Z" transform="translate(-4127.592 -652.373)" fill="#12263f"/>
        </g>
        <path id="Trazado_184989" data-name="Trazado 184989" d="M4112.508,998.092a7.351,7.351,0,0,1-1.893,1.192,9.4,9.4,0,0,1-2.152.659,6.436,6.436,0,0,1-2.269,0,4.714,4.714,0,0,0,2.31.329,6.655,6.655,0,0,0,1.165-.207,7.678,7.678,0,0,0,1.117-.393,6.119,6.119,0,0,0,1.949-1.34,5.567,5.567,0,0,0,1.244-1.975A8.214,8.214,0,0,1,4112.508,998.092Z" transform="translate(-4031.275 -939.924)" fill="#12263f"/>
        <g id="Grupo_125009" data-name="Grupo 125009" transform="translate(68.014 36.595)">
          <path id="Trazado_184990" data-name="Trazado 184990" d="M4179.3,838.121a3.262,3.262,0,0,0-1.409-.611,2.934,2.934,0,0,0-1.532.17,3.576,3.576,0,0,0-1.251.838,6.079,6.079,0,0,1,1.334-.589,3.315,3.315,0,0,1,1.395-.088,3.879,3.879,0,0,1,1.319.5,6.2,6.2,0,0,1,1.154.9A3.649,3.649,0,0,0,4179.3,838.121Z" transform="translate(-4160.318 -835.816)" fill="#12263f"/>
          <path id="Trazado_184991" data-name="Trazado 184991" d="M4049.955,823.343a2.933,2.933,0,0,0-1.5-.373,3.3,3.3,0,0,0-1.479.418,3.637,3.637,0,0,0-1.148.971,6.163,6.163,0,0,1,1.263-.735,3.854,3.854,0,0,1,1.373-.317,3.312,3.312,0,0,1,1.371.272,6.063,6.063,0,0,1,1.244.761A3.573,3.573,0,0,0,4049.955,823.343Z" transform="translate(-4045.832 -822.969)" fill="#12263f"/>
        </g>
        <g id="Grupo_125010" data-name="Grupo 125010" transform="translate(5.147 74.14)">
          <path id="Trazado_184992" data-name="Trazado 184992" d="M4025.152,1166.668a28.985,28.985,0,0,0,6.646.459c1.11-.042,2.217-.137,3.318-.27s2.2-.311,3.285-.545a30.424,30.424,0,0,0,6.325-2.066,24.463,24.463,0,0,0,5-3.04c-.028-.09-.056-.179-.086-.27a24.029,24.029,0,0,1-2.156,1.449,25.893,25.893,0,0,1-2.922,1.5,31.188,31.188,0,0,1-6.262,1.957,40.089,40.089,0,0,1-6.525.777,28.863,28.863,0,0,1-6.536-.425c-.538-.1-1.069-.224-1.6-.358s-1.041-.312-1.551-.5-1.007-.417-1.5-.654-.968-.5-1.432-.789-.92-.589-1.351-.922l-.163-.123-.159-.128c-.105-.087-.213-.17-.317-.259-.2-.18-.414-.355-.61-.546s-.388-.382-.58-.576c-.093-.1-.182-.2-.273-.3l-.136-.152-.128-.158a10.366,10.366,0,0,1-.941-1.335,8.648,8.648,0,0,1-.712-1.469,7.653,7.653,0,0,1-.408-3.877h0c.018-.115.037-.23.059-.345.04-.21.088-.419.142-.625l-.114.4-.057.2-.008.04-.034.163c-.012.062-.025.122-.038.184s-.031.148-.044.223l-.054.413a7.442,7.442,0,0,0,.009,1.663,7.772,7.772,0,0,0,.365,1.628,8.923,8.923,0,0,0,.677,1.53,10.5,10.5,0,0,0,.929,1.393l.127.166.135.159c.091.106.179.215.272.318.19.2.377.412.579.6s.4.385.612.573c.1.092.213.179.319.27l.16.134.165.129c.436.349.9.664,1.365.968s.957.575,1.451.834,1.008.482,1.528.687,1.051.383,1.591.535S4024.6,1166.563,4025.152,1166.668Z" transform="translate(-3954.063 -1152.855)" fill="#12263f"/>
          <path id="Trazado_184993" data-name="Trazado 184993" d="M4485.229,1239.887a16.639,16.639,0,0,0,.268-3.528,17.724,17.724,0,0,0-.148-1.769,16.959,16.959,0,0,0-1.538-5.088q-.193-.4-.412-.791l-.219-.381q-.106-.188-.209-.379c-.137-.255-.263-.511-.4-.777a6.679,6.679,0,0,0-.463-.784,6.155,6.155,0,0,0-2.821-2.242,7.779,7.779,0,0,0-1.748-.469,8.477,8.477,0,0,0-.9-.087c-.15-.007-.3-.008-.452-.007s-.269.007-.413.019a37.537,37.537,0,0,1-4.581-1.617l-1.128-.489c-.374-.168-.745-.343-1.118-.514s-.741-.351-1.11-.532-.739-.357-1.1-.548c-1.47-.734-2.909-1.529-4.347-2.328q-1.59-.893-3.152-1.835c.006.03.013.061.02.091.31.207.621.409.935.61l.52.333.523.329.523.328.527.323c.7.434,1.412.85,2.126,1.26l1.076.61,1.086.591c.361.2.731.382,1.1.573s.733.38,1.106.557.741.362,1.114.54l1.13.506.283.127.287.118.575.234.575.234c.192.077.388.142.583.215l.585.211c.194.071.388.144.589.2l1.193.357.039.012.051-.005c.127-.012.274-.017.414-.018s.284,0,.425.008a7.684,7.684,0,0,1,.847.085,7.253,7.253,0,0,1,1.634.445,6.738,6.738,0,0,1,.759.368c.119.073.243.141.356.222.058.04.117.078.174.119l.167.128a5.5,5.5,0,0,1,1.147,1.22,5.965,5.965,0,0,1,.431.724c.132.257.265.526.405.785.071.131.143.26.217.39l.22.379c.142.25.28.5.409.761a16.778,16.778,0,0,1,1.21,3.239c.143.56.264,1.126.354,1.7s.145,1.148.18,1.725a17.076,17.076,0,0,1-.177,3.468c-.09.572-.2,1.14-.344,1.7q-.054-.633-.115-1.264-.094-1.024-.216-2.045c.079,1.252.157,2.5.214,3.754v.005c.005.115.01.23.015.344l.01.219q.092,1.942.145,3.886c.03,1.368.054,2.736.044,4.1s-.049,2.734-.134,4.1v.017c.039,1.323.063,2.648.085,3.971s.035,2.649.042,3.973c0,1.225,0,2.45-.033,3.674-.053-.182-.113-.356-.181-.533-.038-.106-.083-.211-.126-.316l-.121-.3a25.4,25.4,0,0,1-.819-2.475c-.226-.789-.43-1.585-.619-2.386q-.148-.627-.283-1.259c-.106-.485-.207-.972-.3-1.46a6.719,6.719,0,0,0-.378-1.306c-.086-.214-.187-.409-.281-.611l-.144-.3c-.05-.1-.1-.2-.157-.295a14,14,0,0,0-1.455-2.237,12.283,12.283,0,0,0-4.1-3.354,12.213,12.213,0,0,0-2.486-.919,11.8,11.8,0,0,0-1.338-.249l.029.056.023.028a11.971,11.971,0,0,1,1.249.3,12.24,12.24,0,0,1,6.311,4.38,14.594,14.594,0,0,1,1.373,2.2c.05.1.1.191.148.289l.135.295c.089.2.188.394.262.589a6.3,6.3,0,0,1,.337,1.226c.21,1.113.445,2.222.712,3.324q.122.5.253,1,.108.413.223.825a25.584,25.584,0,0,0,.846,2.521l.127.309c.041.1.083.2.119.3.076.2.144.4.2.6a7.388,7.388,0,0,1,.239,1.25q.033.317.039.636c0,.212,0,.425-.018.641a11.781,11.781,0,0,1-.134,1.216l0,.014c0,.018-.005.035-.009.053s0,.016,0,.024a9.971,9.971,0,0,1-.291,1.23,7.583,7.583,0,0,1-.468,1.194,6.87,6.87,0,0,1-.666,1.092,6.581,6.581,0,0,1-.875.93,6.252,6.252,0,0,1-1.055.729l-.286.146-.072.037-.074.031-.149.064c-.2.09-.4.155-.6.228a9.589,9.589,0,0,1-2.562.435c-.218.008-.437.021-.655.013s-.438,0-.656-.018l-.328-.018c-.11-.006-.219-.01-.328-.024l-.038,0a.362.362,0,0,1-.014.034l.046.008c.109.019.218.03.328.043l.328.037c.218.029.439.034.659.05s.441.016.662.018.441-.007.663-.018.44-.038.661-.059c.111-.009.22-.029.329-.048l.329-.056c.109-.021.217-.05.325-.074s.218-.047.324-.083c.213-.066.428-.128.634-.215l.157-.061.078-.031.077-.035.3-.144a6.24,6.24,0,0,0,2.083-1.692,7.25,7.25,0,0,0,.73-1.136,8.989,8.989,0,0,0,.848-2.548,12,12,0,0,0,.168-1.331c.016-.222.028-.448.027-.675s-.012-.453-.031-.678a7.357,7.357,0,0,0-.137-.894v0c.006-.083.011-.166.016-.249.077-1.324.118-2.65.138-3.977s.022-2.652.015-3.978-.034-2.651-.066-3.977h0c.083-1.367.115-2.735.119-4.1s-.038-2.745-.1-4.114-.147-2.74-.253-4.106c0-.064-.01-.127-.016-.191v0A17.526,17.526,0,0,0,4485.229,1239.887Z" transform="translate(-4349.08 -1208.355)" fill="#12263f"/>
          <path id="Trazado_184994" data-name="Trazado 184994" d="M4540.637,1345.523q.491-.268,1-.511c.336-.162.678-.31,1.023-.451a11.834,11.834,0,0,1,2.127-.655,6.418,6.418,0,0,1,2.207-.077,4.344,4.344,0,0,1,2.03.877,4.028,4.028,0,0,0-.923-.657,4.362,4.362,0,0,0-1.077-.383,6.229,6.229,0,0,0-2.284-.019,8.979,8.979,0,0,0-1.116.253c-.366.105-.728.226-1.082.363a18.7,18.7,0,0,0-2.063.963q-1,.548-1.942,1.177c-.627.422-1.243.86-1.839,1.324s-1.179.943-1.746,1.441-1.12,1.012-1.642,1.555q1.72-1.466,3.545-2.786c.61-.437,1.225-.866,1.856-1.269S4539.978,1345.877,4540.637,1345.523Z" transform="translate(-4414.675 -1321.545)" fill="#12263f"/>
          <path id="Trazado_184995" data-name="Trazado 184995" d="M4528.029,1309.965c.474-.554.963-1.1,1.474-1.614s1.039-1.02,1.6-1.485a16.116,16.116,0,0,1,1.747-1.3c.306-.195.619-.377.94-.545a10.244,10.244,0,0,1,.988-.447,7.39,7.39,0,0,1,2.1-.5,6.144,6.144,0,0,1,2.163.208,5.918,5.918,0,0,0-2.169-.332,7.171,7.171,0,0,0-2.167.436,10.521,10.521,0,0,0-1.986.975,15.746,15.746,0,0,0-1.783,1.306,23.548,23.548,0,0,0-3.061,3.167,27.758,27.758,0,0,0-2.494,3.616q.61-.912,1.274-1.784T4528.029,1309.965Z" transform="translate(-4407.658 -1286.473)" fill="#12263f"/>
          <path id="Trazado_184996" data-name="Trazado 184996" d="M4114.756,1678.2l-2.11,6.158-2.076,6.17-2.046,6.18c-.342,1.03-.675,2.063-1.006,3.1l-1,3.1c-.671,2.064-1.318,4.135-1.968,6.206l-.969,3.108-.946,3.114-.945,3.115-.91,3.125-.907,3.127c-.155.52-.293,1.045-.439,1.568l-.43,1.569-.859,3.141q-.421,1.569-.873,3.132c-.6,2.083-1.228,4.159-1.926,6.212l-.264.769-.275.765c-.179.511-.381,1.014-.574,1.521-.1.253-.206.5-.308.752l-.156.376c-.051.125-.112.246-.168.37l-.17.369-.085.184c-.028.062-.057.123-.09.182l-.382.719.4-.709c.034-.059.066-.119.094-.18l.089-.183.179-.366c.058-.122.122-.243.177-.366l.164-.372c.109-.25.223-.5.326-.747.2-.5.414-1,.6-1.513l.289-.761.277-.766c.735-2.043,1.4-4.11,2.038-6.186q.474-1.558.915-3.126l.9-3.126.448-1.563c.15-.522.293-1.045.453-1.563l.935-3.116.938-3.115.963-3.108.962-3.108.986-3.1c.66-2.066,1.306-4.137,1.981-6.2l1-3.1.5-1.547.51-1.545,2.034-6.182,2.06-6.173,2.076-6.167,2.09-6.164,2.1-6.159,2.113-6.155,2.119-6.155,2.131-6.15q-4.548,12.2-8.837,24.49Z" transform="translate(-4024.625 -1590.774)" fill="#12263f"/>
          <path id="Trazado_184997" data-name="Trazado 184997" d="M3737.013,1699.309c-.269,2.913-.542,5.826-.874,8.732s-.692,5.81-1.1,8.707-.844,5.788-1.332,8.673-1.05,5.754-1.64,8.619c-.608,2.861-1.267,5.712-2.011,8.54-.184.708-.383,1.411-.574,2.117-.1.352-.19.707-.293,1.057l-.313,1.051c-.4,1.407-.866,2.794-1.312,4.189l.72-2.074.179-.52c.058-.174.111-.348.167-.522l.332-1.047.331-1.046c.11-.35.207-.7.312-1.053.2-.7.415-1.4.612-2.109l.567-2.121.141-.532.132-.532.264-1.067.264-1.066c.087-.355.166-.714.249-1.07.163-.714.33-1.426.489-2.141l.458-2.148q.116-.537.219-1.076l.21-1.078c.288-1.436.537-2.878.8-4.319q.747-4.329,1.363-8.678c.784-5.8,1.429-11.627,1.893-17.464q.346-4.378.587-8.763c.073-1.462.142-2.924.195-4.386s.1-2.926.118-4.389q-.173,4.386-.476,8.765T3737.013,1699.309Z" transform="translate(-3701.108 -1621.093)" fill="#12263f"/>
          <path id="Trazado_184998" data-name="Trazado 184998" d="M3556.842,1151.381a4.039,4.039,0,0,1,.436.155l.03-.009a4.284,4.284,0,0,0-.457-.173,4.116,4.116,0,0,0-1.479-.173,4.323,4.323,0,0,0-.74.114c-.244.058-.478.147-.712.227q-.7.244-1.4.5-2.8,1.008-5.558,2.142c-.917.382-1.832.768-2.739,1.177-.455.2-.9.412-1.355.619s-.9.425-1.342.651l-1.331.665c-.443.22-.89.431-1.34.639q-1.348.62-2.729,1.164c-.922.361-1.851.7-2.79,1.008s-1.889.615-2.829.933c-1.882.637-3.755,1.3-5.61,2.017q-1.391.538-2.766,1.12c-.113.045-.233.107-.35.162a1.766,1.766,0,0,0-.172.09l-.168.094c-.22.131-.434.27-.639.418a14.437,14.437,0,0,0-1.178.947,19.472,19.472,0,0,0-2.088,2.169c-.08.1-.159.195-.236.3s-.154.2-.228.3l-.111.155-.1.155-.208.309c-.277.413-.559.823-.831,1.238l-.812,1.252c-.136.208-.267.419-.4.631l-.394.634-.393.633c-.131.211-.255.427-.383.64l-.761,1.283c-.988,1.726-1.955,3.465-2.86,5.236-1.828,3.532-3.489,7.147-5.057,10.8l-.584,1.371-.292.686-.281.689-1.125,2.76-1.083,2.776c-.366.923-.709,1.855-1.058,2.785l-.521,1.4c-.175.465-.35.93-.516,1.4l-1.009,2.8c-.342.932-.66,1.873-.985,2.811l-.973,2.815-.056.165.157.073,6.921,3.22,3.463,1.606,1.4.651.088.04.241.112,1.083.5c.034.017.076.034.105.051l.105.056.425.221q1.7.872,3.447,1.655.872.392,1.754.759t1.777.7a34.2,34.2,0,0,0,3.642,1.159,17.962,17.962,0,0,0,1.877.361,9.353,9.353,0,0,0,1.063.083q.1.864.2,1.729c.345,2.99.738,5.974,1.159,8.955q.295,2.081.622,4.156l-.513,2.741c-.142.77-.286,1.539-.421,2.312s-.258,1.547-.372,2.324c-.227,1.552-.407,3.112-.55,4.675-.277,3.122-.533,6.243-.8,9.364l-.492,5.973-.039.474-.24,2.918-.373,4.685c-.118,1.562-.265,3.114-.463,4.664s-.43,3.094-.712,4.631q-.211,1.152-.453,2.3l-.481,2.3q-.959,4.6-1.831,9.22c-.285,1.541-.56,3.083-.815,4.629-.128.773-.253,1.547-.366,2.322s-.213,1.553-.3,2.331q.171-1.163.376-2.318t.423-2.311c.293-1.538.606-3.072.927-4.6.634-3.067,1.3-6.127,1.974-9.186l.51-2.293c.171-.767.327-1.536.474-2.307q.442-2.314.75-4.651c.209-1.556.357-3.125.48-4.686l.385-4.683.366-4.617.025-.324.351-4.427.716-9.37c.12-1.558.286-3.113.485-4.664q.149-1.163.33-2.322c.12-.772.253-1.544.378-2.318l.361-2.22q.337,2.1.722,4.2c.265,1.482.572,2.956.883,4.429l.512,2.2.6,2.178-.532-2.193-.461-2.208c-.279-1.477-.553-2.955-.786-4.44l-.181-1.113-.168-1.115c-.11-.743-.228-1.486-.333-2.23l-.094-.672-.073-.524-.144-1.038c-.053-.372-.1-.745-.148-1.117l-.147-1.119c-.389-2.981-.74-5.968-1.072-8.956q-.094-.843-.183-1.686a.027.027,0,0,1,0-.008q-.151-1.4-.292-2.792c-.151-1.5-.3-2.992-.441-4.488V1218l0-.012q-1.127-5.931-1.948-11.916c-.543-3.989-1.022-7.988-1.4-12l-.142-1.5-.134-1.5-.125-1.5q-.057-.752-.1-1.5-.173-3.011-.154-6.031c0-.5,0-1.01-.01-1.515l-.024-.757-.012-.378-.021-.378-.042-.756-.057-.755c-.019-.252-.039-.5-.066-.754l-.075-.753a38.794,38.794,0,0,0-1.084-5.946c.246.977.42,1.969.574,2.964s.271,1.994.361,3a55.051,55.051,0,0,1,.185,6.027c-.042,2.017-.029,4.037.067,6.053q.036.757.084,1.512l.109,1.51.118,1.508.126,1.506q.534,6.026,1.339,12.024.408,3,.89,5.985t1.061,5.945q.341,3.615.76,7.22a9.187,9.187,0,0,1-1.056-.1,17.75,17.75,0,0,1-1.863-.4c-.614-.163-1.221-.354-1.823-.555s-1.2-.425-1.79-.655-1.179-.476-1.762-.728-1.163-.514-1.739-.782q-1.727-.809-3.413-1.7l-.419-.225-.1-.057c-.04-.023-.073-.036-.11-.055l-.215-.1-.862-.411-.331-.158-.083-.04-1.31-.624-3.448-1.644-6.741-3.2c1.3-3.687,2.608-7.373,4.008-11.023.692-1.858,1.436-3.7,2.162-5.543l1.127-2.752.283-.687.292-.684.584-1.366c1.568-3.642,3.237-7.239,5.049-10.763.9-1.765,1.858-3.5,2.84-5.218,1-1.71,2.033-3.4,3.116-5.058.27-.415.548-.824.822-1.237l.206-.309.1-.154.1-.147c.069-.1.142-.2.216-.293s.149-.192.227-.287a19.182,19.182,0,0,1,2.028-2.125,13.847,13.847,0,0,1,1.137-.922c.2-.144.4-.276.6-.4l.156-.089a1.6,1.6,0,0,1,.157-.083c.108-.051.207-.1.325-.152q1.362-.588,2.747-1.128c1.843-.725,3.706-1.4,5.579-2.053.938-.325,1.876-.638,2.819-.954s1.878-.666,2.8-1.04,1.834-.774,2.734-1.2q.675-.32,1.341-.655l1.324-.681c.439-.229.887-.442,1.33-.662s.892-.431,1.344-.636c.9-.421,1.805-.82,2.715-1.213q2.733-1.173,5.521-2.22.7-.263,1.4-.516c.235-.083.464-.175.7-.236a4.154,4.154,0,0,1,.726-.126A4.066,4.066,0,0,1,3556.842,1151.381Z" transform="translate(-3496.271 -1151.172)" fill="#12263f"/>
          <path id="Trazado_184999" data-name="Trazado 184999" d="M3662.28,1504.938c0,.612,0,1.223.024,1.835q.062,1.835.26,3.662a52.647,52.647,0,0,0,1.29,7.229c.073.3.158.591.237.888l.12.443.132.441c.088.293.171.588.264.88l.286.874c.046.146.1.291.15.435l.155.432c.1.288.2.578.319.862l.334.856.361.845.181.422.194.417c.13.277.256.556.389.832l.417.819c.071.135.137.274.21.408l.222.4c.15.267.3.535.45.8l.475.785c.08.131.157.262.239.392l.252.383.508.763c-.62-1.053-1.245-2.1-1.777-3.2l-.209-.407c-.068-.136-.13-.276-.2-.413l-.391-.826-.367-.837-.184-.418-.171-.424a51.742,51.742,0,0,1-2.274-6.936c-.3-1.179-.558-2.371-.785-3.567s-.415-2.4-.571-3.61-.275-2.423-.356-3.64-.133-2.437-.121-3.659C3662.3,1503.715,3662.284,1504.327,3662.28,1504.938Z" transform="translate(-3643.289 -1462.847)" fill="#12263f"/>
          <path id="Trazado_185000" data-name="Trazado 185000" d="M4459.954,1790.612c.274-.71.537-1.425.782-2.145q.188-.558.364-1.119l-.216.029-.109.014q-.533,1.563-1.134,3.1-.48,1.23-1.019,2.433-.023-2.365-.088-4.732c-.006-.209-.014-.419-.022-.628-.048,0-.1,0-.143,0,0,.209,0,.419,0,.628q.018,2.443,0,4.884l0,.42-.008.685-.017,1.337c-.014.814-.028,1.628-.05,2.441-.041,1.627-.087,3.253-.166,4.878s-.159,3.251-.281,4.872-.259,3.243-.44,4.86c-.129,1.143-.278,2.282-.458,3.418-.421-3.07-.8-6.147-1.177-9.223q-.634-5.252-1.239-10.508l-.607-5.256-.6-5.257.226,2.636.241,2.635.495,5.268q.516,5.267,1.094,10.527c.193,1.754.391,3.507.6,5.258.1.876.213,1.751.324,2.627s.225,1.75.342,2.626c.01.077.021.155.03.232.021.152.041.3.062.456.089.645.186,1.29.279,1.935.063.438.131.87.188,1.3s.109.87.152,1.307q.133,1.308.186,2.623l.085,2.643c.065,1.764.141,3.527.237,5.29s.21,3.526.378,5.286c.085.881.185,1.761.318,2.64l.222,1.306c.07.432.133.867.191,1.3q.337,2.621.635,5.248c.2,1.751.375,3.505.543,5.26s.309,3.511.438,5.269.225,3.519.289,5.28c.015.44.022.88.033,1.321l.016.661,0,.661,0,.661,0,.33-.006.33-.024,1.323.063-1.322.015-.33.007-.33.015-.662.013-.661v-.662c0-.441,0-.882-.006-1.323q-.04-2.647-.176-5.292c-.189-3.525-.478-7.043-.835-10.555q-.267-2.633-.588-5.262-.082-.658-.185-1.317l-.212-1.3c-.125-.865-.218-1.739-.3-2.614-.156-1.751-.267-3.51-.36-5.269s-.165-3.52-.226-5.281l-.091-2.646q-.057-1.328-.194-2.653-.068-.662-.157-1.321c-.059-.44-.128-.879-.191-1.313-.129-.871-.262-1.741-.381-2.615-.03-.217-.062-.435-.091-.652,0,0,0,0,0,0,.25-1.328.453-2.661.63-4,.419-3.236.651-6.491.8-9.748q.2-4.61.172-9.222.222-.456.436-.917Q4459.534,1791.675,4459.954,1790.612Z" transform="translate(-4343.837 -1713.152)" fill="#12263f"/>
        </g>
        <g id="Grupo_125011" data-name="Grupo 125011" transform="translate(0 30.959)">
          <path id="Trazado_185001" data-name="Trazado 185001" d="M4316.422,782.663a.849.849,0,0,0-.271-.481.834.834,0,0,0-.508-.208,3.257,3.257,0,0,0-.956.078,3.407,3.407,0,0,0-.891.347,4.052,4.052,0,0,0-.763.564,5.3,5.3,0,0,0-.624.705,7.6,7.6,0,0,0-.5.79,13.089,13.089,0,0,0-1.2,3.466c-.117.147-.234.295-.35.443l.185-1.295.415-2.913v-.015l.145-3.836.068-1.919,0-.12v-.138a1.017,1.017,0,0,0-.066-.282.969.969,0,0,0-.362-.443.952.952,0,0,0-.55-.159c-.024,0-.049,0-.071,0l-.064.008-.127.018c-.085.012-.167.038-.251.056a2.7,2.7,0,0,0-.907.463l-.193.164a.749.749,0,0,0-.09.088l-.086.092-.086.092-.043.046-.038.05-.15.2a6.17,6.17,0,0,0-.829,1.778,13.282,13.282,0,0,0-.469,2.435l-.013-.392v-.018l-.7-4.217-.709-4.215-.019-.109-.1-.024a2.151,2.151,0,0,0-.358-.055,2.6,2.6,0,0,0-.352,0,2.448,2.448,0,0,0-.689.146,2.416,2.416,0,0,0-1.109.845,3.85,3.85,0,0,0-.591,1.235,6.715,6.715,0,0,0-.24,1.326,13.687,13.687,0,0,0,.054,2.662c.093.873.242,1.736.417,2.592q-.215,1.207-.38,2.417c-.035.264-.068.526-.1.791l-.124-2.886-.073-1.523-.019-.381-.009-.19c0-.063-.011-.135-.017-.2l-.109-.754-.435-3.019-.027-.188-.008-.048-.011-.055a.576.576,0,0,0-.03-.106.909.909,0,0,0-.241-.366.9.9,0,0,0-.822-.211.546.546,0,0,0-.1.033.632.632,0,0,0-.1.043l-.089.046-.088.048-.168.109-.049.035c-.037.029-.072.059-.109.087l-.078.062-.071.07c-.047.046-.1.092-.142.14l-.127.152-.064.076-.056.081a4.735,4.735,0,0,0-.656,1.411l-.1.375c-.027.126-.05.253-.074.38-.012.063-.025.126-.036.19l-.024.191-.048.382a13.307,13.307,0,0,0-.045,1.7c0,.115.008.228.014.343.017.337.042.674.073,1.009l-.043,3.345a2.178,2.178,0,0,1-.053.4,2.983,2.983,0,0,1-.116.366,6.159,6.159,0,0,0-1.634-1.064l-.006,0a5.916,5.916,0,0,0-.648-.238,6.23,6.23,0,0,0-1.833-.252,6.319,6.319,0,0,0-1.816.3,6.944,6.944,0,0,0-3.04,1.966,7.485,7.485,0,0,1,1.432-1.106,6.9,6.9,0,0,1,1.655-.7,6.116,6.116,0,0,1,3.522.045,5.878,5.878,0,0,1,1.577.8,5.809,5.809,0,0,1,.679.567l.058.058a6.6,6.6,0,0,1,.537.6,6.789,6.789,0,0,1,1.379,3.23,5.7,5.7,0,0,1,.062.884l0,.222c0,.066-.009.131-.014.2,0,.008,0,.016,0,.024l-.013.161,0,.06-.008.11c0,.037-.012.073-.018.11a5.982,5.982,0,0,1-.5,1.695,6.184,6.184,0,0,1-.949,1.493,6.605,6.605,0,0,1-1.336,1.167c-.126.078-.25.162-.38.233l-.4.2c-.134.064-.275.114-.412.172a3.9,3.9,0,0,1-.422.144,6.088,6.088,0,0,1-1.763.285,6.7,6.7,0,0,1-1.975-.256c-.143-.04-.283-.086-.423-.136a6.712,6.712,0,0,1-1.066-.489,6.439,6.439,0,0,0,.8.44c.062.028.123.055.185.08-.174.069-.352.131-.532.186-.283.084-.588.163-.881.254a16.494,16.494,0,0,0-1.738.638,14.2,14.2,0,0,0-1.653.839,11.107,11.107,0,0,0-1.517,1.077,8.431,8.431,0,0,0-1.284,1.355,6.993,6.993,0,0,0-.9,1.637,7.2,7.2,0,0,0-.437,1.814,7.474,7.474,0,0,0,.5,3.651,6.47,6.47,0,0,0,.94,1.59c.1.118.2.232.3.348a2.634,2.634,0,0,1,.284.353,2.271,2.271,0,0,1,.348.837,2.306,2.306,0,0,0-.305-.864,2.589,2.589,0,0,0-.274-.373c-.1-.119-.193-.235-.286-.356a6.35,6.35,0,0,1-.857-1.595,7.464,7.464,0,0,1-.389-3.559c.025-.148.042-.3.073-.445s.059-.295.1-.439a6.844,6.844,0,0,1,.278-.853,6.722,6.722,0,0,1,.885-1.554,8.4,8.4,0,0,1,1.242-1.3,10.907,10.907,0,0,1,1.476-1.038,15.491,15.491,0,0,1,3.314-1.462c.29-.094.577-.172.878-.265a7.763,7.763,0,0,0,.839-.325c.09.031.18.06.272.087a6.837,6.837,0,0,0,1.81.284,6.6,6.6,0,0,0,.92-.051,5.536,5.536,0,0,0,.9-.186,6.193,6.193,0,0,0,1.691-.741,6.624,6.624,0,0,0,1.416-1.195,6.467,6.467,0,0,0,1.016-1.554,3.556,3.556,0,0,0,.182-.429l.079-.219a1.84,1.84,0,0,0,.072-.222l.12-.451.08-.46c.006-.039.014-.077.019-.115l.007-.1.013,0,.319.116.316.123.316.123c.105.041.209.088.313.131.208.09.419.169.625.265l.617.281c.2.1.407.2.611.295l.305.149.3.158.6.314q.3.168.592.333l.3.166c.1.056.193.118.292.174l.583.35.146.087.144.092.286.184q.287.183.578.362-.267-.212-.538-.419l-.272-.207-.137-.1-.14-.1c-.377-.254-.746-.524-1.139-.756q-.291-.18-.584-.357l-.6-.332-.3-.164-.307-.153c-.2-.1-.408-.205-.614-.3a21.911,21.911,0,0,0-2.549-1l-.059-.018,0-.052c.006-.077.015-.155.017-.233v-.233a6.171,6.171,0,0,0-.062-.93,7.06,7.06,0,0,0-1.462-3.38,6.441,6.441,0,0,0-.666-.717l0-.006a3.3,3.3,0,0,0,.14-.4,2.208,2.208,0,0,0,.068-.422c.023-.56.04-1.116.057-1.674l.053-1.673v-.009c-.039-.493-.062-.988-.064-1.481q0-.224,0-.447c.008-.367.027-.734.062-1.1l.05-.374.024-.186c.01-.062.023-.123.035-.185.025-.123.047-.247.074-.369l.1-.361a4.489,4.489,0,0,1,.629-1.337l.052-.076.059-.07.119-.14c.039-.04.081-.078.121-.117l.01-.01.066-.063.071-.056c.048-.037.094-.078.144-.11l.026-.017.126-.08c.053-.03.107-.056.16-.083a.507.507,0,0,1,.078-.035.421.421,0,0,1,.077-.024.65.65,0,0,1,.595.157.658.658,0,0,1,.172.265.46.46,0,0,1,.021.077l.008.039.008.046.028.189.453,3.016.114.754c0,.06.013.115.016.179l.01.19.021.381.083,1.523.18,3.044.046.762.007.125h0c-.016.2-.029.4-.04.607q-.4,1.252-.771,2.513c-.125.421-.248.844-.366,1.268s-.229.85-.321,1.28c.108-.426.239-.847.372-1.265s.267-.838.4-1.256q.217-.661.442-1.318.174-.514.352-1.028l.037-.157a1.486,1.486,0,0,0,.031-.174c0-.061.009-.121.015-.181.06-.7.154-1.405.261-2.1.126-.811.267-1.622.427-2.425l0-.023,0-.028c-.075-.431-.16-.861-.218-1.294s-.12-.866-.166-1.3a13.4,13.4,0,0,1-.029-2.6,6.339,6.339,0,0,1,.233-1.264,3.545,3.545,0,0,1,.542-1.129,2.06,2.06,0,0,1,1.556-.853,2.316,2.316,0,0,1,.307,0c.062.005.129.013.191.022l.7,4.1.737,4.2.109,2.115-.438,1.982-.512,2.346c-.512.771-1.005,1.553-1.491,2.339-.244.4-.484.794-.717,1.2-.116.2-.229.405-.336.612a6.58,6.58,0,0,0-.3.632,11.612,11.612,0,0,1,.684-1.214c.245-.394.5-.784.754-1.172.512-.776,1.04-1.541,1.569-2.3l.009-.013,0-.019.567-2.35.254-1.066.194-.815.113-.472,0-.01v-.015l.071-.951c.035-.316.074-.631.113-.945a12.344,12.344,0,0,1,.413-1.847,5.915,5.915,0,0,1,.789-1.682l.139-.184.034-.046.04-.041.079-.083.077-.083a.644.644,0,0,1,.082-.079l.172-.146a2.373,2.373,0,0,1,.792-.4c.073-.015.144-.038.217-.048l.11-.014.056-.008c.018,0,.032,0,.048,0a.62.62,0,0,1,.358.1.629.629,0,0,1,.237.287.711.711,0,0,1,.044.183v.1l0,.12-.062,1.919-.112,3.823v0l-.372,2.915-.184,1.46-.028.224q-.418.541-.824,1.092c-.236.326-.468.654-.691.988-.11.169-.221.338-.324.511a4.871,4.871,0,0,0-.281.532c-.417.5-.832,1.006-1.236,1.517q-.306.384-.6.78c-.1.131-.193.264-.286.4-.045.068-.092.136-.134.206-.021.035-.044.069-.062.105l-.055.11.058-.109c.02-.035.044-.068.066-.1.043-.069.093-.135.141-.2q.145-.2.3-.39c.2-.257.412-.509.62-.761q.63-.754,1.279-1.491l0-.006,0-.009a7.364,7.364,0,0,1,.621-1.013c.23-.327.469-.648.711-.966q.318-.418.645-.831.13-.167.264-.334.289-.361.582-.718l.015-.019.006-.024a12.866,12.866,0,0,1,1.233-3.406,7.385,7.385,0,0,1,.492-.752,5.207,5.207,0,0,1,.6-.659,3.756,3.756,0,0,1,.711-.519,3.143,3.143,0,0,1,.816-.31,2.969,2.969,0,0,1,.867-.064.524.524,0,0,1,.323.134.525.525,0,0,1,.169.48.309.309,0,0,1-.01.043.461.461,0,0,1-.013.047l-.033.11-.136.438-.268.877-1.065,3.492v0l-2.066,4.78-2.843,4.045-.006.009-.007.014-.434.864-.481.844c-.163.28-.341.552-.51.829s-.353.546-.532.817-.358.542-.547.807l-.56.8c-.383.526-.764,1.054-1.158,1.572q-1.178,1.557-2.4,3.084-.612.762-1.233,1.516c-.415.5-.829,1.006-1.252,1.5.878-.964,1.73-1.951,2.571-2.947s1.667-2.006,2.466-3.038c.4-.513.793-1.036,1.185-1.558l.574-.793c.193-.263.377-.533.562-.8a25.024,25.024,0,0,0,2.01-3.352l2.872-4.037.01-.014.007-.015,2.081-4.8,0-.008,0-.009,1.062-3.512.266-.878.131-.44.033-.109a.6.6,0,0,0,.017-.064.463.463,0,0,0,.015-.068A.85.85,0,0,0,4316.422,782.663Z" transform="translate(-4186.855 -773.705)" fill="#12263f"/>
          <path id="Trazado_185002" data-name="Trazado 185002" d="M4357.686,905.942a3.736,3.736,0,0,0-1.1.038,4.7,4.7,0,0,0-1.062.317,5.242,5.242,0,0,0-.973.543,6.125,6.125,0,0,0-.837.738c-.122.139-.248.277-.357.427s-.221.3-.323.452c-.052.077-.1.158-.143.238l-.138.24c-.083.164-.167.329-.242.5a8.436,8.436,0,0,0-.613,2.1,15.9,15.9,0,0,1,.85-1.986c.039-.08.087-.155.13-.233l.131-.232.143-.225c.048-.075.094-.151.148-.222s.1-.144.153-.217.109-.14.162-.21c.107-.142.227-.27.345-.4a5.966,5.966,0,0,1,1.674-1.273c.053-.027.106-.053.16-.078a6.4,6.4,0,0,1,.616.807,4.618,4.618,0,0,1,.474,1.008,5.543,5.543,0,0,1,.238,1.094c.044.377.052.759.068,1.153a4,4,0,0,0,.2-1.167,3.646,3.646,0,0,0-.182-1.188,3.291,3.291,0,0,0-.579-1.056,3.141,3.141,0,0,0-.781-.675,5.394,5.394,0,0,1,.778-.291A4.956,4.956,0,0,1,4357.686,905.942Z" transform="translate(-4248.875 -890.792)" fill="#12263f"/>
          <path id="Trazado_185003" data-name="Trazado 185003" d="M4088.6,847.093c.376.144.756.28,1.135.419s.761.271,1.145.4c-.358-.189-.719-.369-1.081-.548-.318-.154-.634-.312-.954-.462l.135-.26.1-.2c.032-.066.06-.133.089-.2l.171-.4c.028-.067.057-.134.084-.2l.077-.2c.1-.271.209-.541.3-.816l.275-.823c.35-1.1.655-2.215.936-3.333q.212-.838.4-1.682c.132-.561.244-1.126.362-1.691.226-1.131.433-2.264.588-3.408-.331,1.105-.633,2.216-.936,3.327l-.447,1.666c-.146.556-.3,1.109-.443,1.665q-.449,1.664-.912,3.32l-.243.824c-.039.138-.085.273-.128.409l-.128.409a17.016,17.016,0,0,1-.595,1.595l-.007.015,0,.005A.136.136,0,0,0,4088.6,847.093Z" transform="translate(-4015.615 -826.821)" fill="#12263f"/>
          <path id="Trazado_185004" data-name="Trazado 185004" d="M4014.794,839.838a16.139,16.139,0,0,1-3.621,1.163,17.569,17.569,0,0,1-3.779.345,18.6,18.6,0,0,1-3.764-.437c-.617-.136-1.226-.308-1.827-.5l-.008,0c-.127-.04-.252-.089-.377-.135l-.061-.022c-.148-.055-.3-.105-.444-.164-.171-.072-.343-.14-.514-.211-.081-.034-.162-.068-.242-.1l-.117-.052a17.089,17.089,0,0,1-1.678-.871,14.834,14.834,0,0,1-1.562-1.056,12.466,12.466,0,0,1-2.593-2.7,13.254,13.254,0,0,1-1.68-3.352,18.624,18.624,0,0,1-.834-3.682,31.432,31.432,0,0,1-.231-3.8c-.015-1.273.008-2.547.061-3.819l.045-.954.057-.954c.041-.637.083-1.273.135-1.909.2-2.543.474-5.084.732-7.626l.371-3.816.376-3.666,0,0-.251,1.755c-.09.633-.17,1.266-.254,1.9l-.008.057v0l-.476,3.744c-.317,2.535-.643,5.071-.879,7.62s-.39,5.109-.383,7.675a30.985,30.985,0,0,0,.219,3.853,19.111,19.111,0,0,0,.847,3.784,13.743,13.743,0,0,0,1.755,3.472,12.78,12.78,0,0,0,2.705,2.8,15.487,15.487,0,0,0,1.622,1.074,17.764,17.764,0,0,0,1.731.878c.076.034.152.067.228.1-.02.131-.04.264-.058.4-1.287.326-2.569.674-3.846,1.031l-.757.219-.03.009c-.473.136-.948.274-1.419.416l-.206.062c-.022.115-.041.229-.059.345l2.129-.6.014,0,.42-.12,3.711-1.05c-.036.254-.072.508-.108.762l-.225,1.691-.208,1.693c-.063.565-.132,1.13-.188,1.7-.12,1.13-.227,2.263-.3,3.4.213-1.12.393-2.242.562-3.367.088-.562.163-1.125.244-1.688l.225-1.69.207-1.693c.033-.3.068-.594.1-.89.011-.1.022-.2.032-.292.008-.071.016-.143.023-.214l.32.128.086.035c.108.042.219.08.33.119l.125.045c.153.052.3.111.459.157.617.19,1.242.356,1.875.486a18.248,18.248,0,0,0,7.676-.051,15.518,15.518,0,0,0,6.814-3.41,15.04,15.04,0,0,1-1.563,1.1A15.443,15.443,0,0,1,4014.794,839.838Z" transform="translate(-3929.244 -798.328)" fill="#12263f"/>
          <path id="Trazado_185005" data-name="Trazado 185005" d="M4344.111,1169.492l0,.049-.01.2-.017.2-.035.4c-.025.265-.042.531-.074.794l-.107.79c-.019.131-.031.264-.057.394l-.072.392-.07.392c-.024.13-.046.262-.079.39l-.181.775c-.026.131-.07.256-.105.383l-.11.382-.056.19c-.018.064-.037.127-.061.19l-.13.375a14.079,14.079,0,0,1-1.358,2.863,10.361,10.361,0,0,1-2.055,2.405,8.352,8.352,0,0,1-1.3.92,7.219,7.219,0,0,1-.714.357l-.107.045c0-.019,0-.036,0-.055.01-.135.008-.27.005-.405l0-.2v-.1l-.008-.1-.031-.4c-.031-.268-.074-.535-.11-.8.03.268.066.536.091.8l.022.4,0,.1v.3c0,.135,0,.269-.015.4,0,.026,0,.051-.006.077s0,.03,0,.044c-.008.094-.015.187-.023.281-.039.266-.069.533-.131.794-.047.265-.127.521-.2.78-.075.216-.145.434-.232.645l-.012.029c-.011.027-.023.053-.035.08l-.077.186c-.026.062-.058.12-.086.181-.061.12-.117.241-.18.359l-.2.349-.05.087-.056.083-.11.168-.111.168c-.037.056-.08.107-.12.161-.082.106-.159.215-.244.318l-.261.3-.066.076-.07.072-.14.143-.14.144c-.046.048-.1.09-.146.136-.1.089-.2.18-.3.268-.21.165-.413.339-.636.486-.11.075-.218.154-.33.227l-.343.206-.172.1-.178.093-.355.184c-.119.06-.244.109-.365.165l-.183.081-.091.041-.094.035c-.251.093-.5.2-.754.271a15.8,15.8,0,0,1-2.787.631c-.105.014-.211.027-.316.04l-.03,0a23.447,23.447,0,0,1-2.347.154c-.045,0-.089,0-.134,0-.242,0-.486,0-.729,0l-.4-.008-.1,0-.1-.007c-.064-.006-.128-.008-.191-.016a3.607,3.607,0,0,1-.746-.18,4.475,4.475,0,0,1-1.328-.8,7.657,7.657,0,0,1-1.09-1.141,13.371,13.371,0,0,1-.911-1.309c-.562-.908-1.043-1.868-1.518-2.835-.237-.485-.479-.965-.708-1.451s-.452-.975-.668-1.467q-.645-1.477-1.209-2.988-.283-.755-.549-1.516l-.263-.766q-.136-.389-.3-.769l-.648-1.48c-.1-.248-.194-.5-.292-.748s-.2-.5-.279-.752c-.174-.508-.355-1.012-.506-1.527l-.237-.769-.214-.776c-.568-2.072-1.014-4.177-1.391-6.3-.752-4.238-1.224-8.526-1.559-12.821q-.254-3.222-.385-6.453-.07-1.615-.105-3.23c-.012-.538-.023-1.078-.026-1.613s-.013-1.086-.038-1.628c-.05-1.083-.146-2.162-.265-3.236s-.264-2.146-.427-3.215a36.945,36.945,0,0,0-1.478-6.114c-.02-.063-.042-.127-.063-.19-.009-.024-.016-.047-.024-.071q-.25-.733-.532-1.454l-.148-.377-.145-.376-.145-.376-.137-.38c-.362-1.013-.681-2.043-.97-3.081s-.548-2.085-.784-3.136-.452-2.109-.64-3.172q.244,1.6.565,3.187t.729,3.156c.272,1.045.574,2.084.921,3.108l.129.384.139.382.139.381.142.378q.279.757.525,1.525a.061.061,0,0,1,0,.009c.03.09.058.179.086.27a36.8,36.8,0,0,1,1.36,6c.295,2.133.542,4.275.627,6.421.02.537.031,1.072.022,1.609s0,1.082.012,1.623q.024,1.621.086,3.24c.08,2.158.192,4.316.351,6.47s.359,4.307.609,6.454.553,4.29.928,6.42.836,4.248,1.413,6.338l.217.782.241.778c.152.52.338,1.031.514,1.544.085.258.188.51.286.763s.195.508.3.759l.329.748.165.371c.057.12.11.241.162.362q.157.365.29.74l.267.763q.27.766.56,1.524.578,1.517,1.236,3,.331.742.682,1.475c.235.489.479.971.721,1.452.484.964.98,1.932,1.563,2.855a13.641,13.641,0,0,0,.949,1.338,8.08,8.08,0,0,0,1.153,1.184,4.831,4.831,0,0,0,1.443.844,3.933,3.933,0,0,0,.825.191c.07.007.141.01.212.014l.106.007h.1l.407,0q.366,0,.733-.009c.047,0,.1,0,.143,0q1.134-.034,2.263-.173l.11-.014.215-.029a16.02,16.02,0,0,0,2.959-.7c.259-.082.51-.191.763-.29l.1-.038.093-.043.185-.086c.123-.059.249-.112.369-.175l.36-.195.179-.1.173-.109.347-.217c.113-.077.221-.158.333-.237.225-.154.43-.335.64-.507.1-.092.2-.186.3-.279.049-.048.1-.092.147-.141l.14-.149.14-.148.07-.075.065-.078.26-.314c.084-.107.162-.219.243-.328.04-.055.081-.109.119-.165l.109-.173.109-.172.055-.086.05-.089.2-.356c.062-.121.117-.245.176-.368.028-.062.06-.121.084-.184l.075-.19c.015-.035.029-.069.042-.1,0-.011.009-.022.013-.034.08-.207.144-.42.212-.63.036-.13.068-.263.1-.393s.06-.264.083-.4c.057-.265.081-.536.113-.8.007-.1.013-.2.018-.3a6.975,6.975,0,0,0,.866-.372,8.508,8.508,0,0,0,1.358-.871,10.06,10.06,0,0,0,2.171-2.39,13.624,13.624,0,0,0,1.437-2.9l.138-.381a1.935,1.935,0,0,0,.063-.192l.058-.195.115-.387c.036-.131.081-.258.108-.39l.188-.787c.035-.131.057-.264.082-.4l.073-.4c.137-.752.233-1.51.3-2.27Q4344.233,1169.995,4344.111,1169.492Z" transform="translate(-4205.584 -1073.702)" fill="#12263f"/>
          <path id="Trazado_185006" data-name="Trazado 185006" d="M4439.683,1088.695a7.848,7.848,0,0,0,.077,1.579l.033.2a1.613,1.613,0,0,0,.039.195l.1.386c.063.248.122.505.178.76.441,2.042.778,4.107,1.021,6.181.087.75.2,1.5.337,2.242l.01.056a30.242,30.242,0,0,0,.989,3.869c.164.5.346,1,.522,1.487l.535,1.478q.535,1.477,1.083,2.949,1.094,2.946,2.219,5.879t2.306,5.846q1.184,2.911,2.44,5.795l.644,1.435.665,1.426c.224.475.461.943.691,1.415.189.381.394.756.594,1.132l.03.056.11.208.008.015.012.014c.619.708,1.226,1.429,1.825,2.156s1.191,1.46,1.769,2.2,1.138,1.5,1.674,2.277a16.714,16.714,0,0,1,1.447,2.424,15.668,15.668,0,0,0-1.36-2.482q-.772-1.189-1.612-2.333c-.558-.762-1.125-1.518-1.711-2.258s-1.152-1.447-1.747-2.157l-.023-.028-.029-.056-.318-.631c-.115-.233-.24-.462-.349-.7-.222-.473-.451-.942-.666-1.418l-.64-1.43-.62-1.441c-.82-1.924-1.61-3.861-2.383-5.805s-1.539-3.892-2.286-5.847-1.5-3.908-2.232-5.868l-1.1-2.941-.547-1.471c-.182-.492-.367-.979-.532-1.471q-.5-1.477-.853-3c-.033-.142-.065-.283-.1-.426-.007-.03-.014-.061-.02-.091-.18-.845-.324-1.7-.437-2.557q-.212-1.561-.5-3.108c-.191-1.032-.409-2.059-.666-3.076-.065-.255-.13-.507-.2-.763l-.1-.374a1.63,1.63,0,0,1-.044-.189l-.037-.19a7.742,7.742,0,0,1-.122-1.548,11.234,11.234,0,0,1,.15-1.555,10.612,10.612,0,0,1,.363-1.525,10.49,10.49,0,0,0-.424,1.513A10.362,10.362,0,0,0,4439.683,1088.695Z" transform="translate(-4326.605 -1049.938)" fill="#12263f"/>
          <path id="Trazado_185007" data-name="Trazado 185007" d="M4341.818,1011.258a7.735,7.735,0,0,1,1.239-1.2,11.752,11.752,0,0,1,1.439-.963c.5-.287,1.025-.542,1.553-.778s1.069-.49,1.584-.772a14.789,14.789,0,0,0,1.5-.925c.12-.085.235-.176.353-.264s.228-.186.34-.279.217-.2.325-.3.2-.214.3-.32a8.522,8.522,0,0,1-1.388,1.056c-.491.312-1,.591-1.521.853s-1.048.507-1.584.725a16.854,16.854,0,0,0-1.585.78,11.414,11.414,0,0,0-1.464,1,7.4,7.4,0,0,0-1.245,1.263,5.169,5.169,0,0,0-.836,1.561,4.083,4.083,0,0,0-.177.867,2.724,2.724,0,0,0,.045.877,3.587,3.587,0,0,1,.248-1.7A5.332,5.332,0,0,1,4341.818,1011.258Z" transform="translate(-4238.897 -978.95)" fill="#12263f"/>
          <path id="Trazado_185008" data-name="Trazado 185008" d="M3597.089,2172.435c-.187.468-.384.936-.554,1.416s-.322.966-.465,1.451l-.443,1.447-.219.725c-.075.241-.158.479-.236.719l-.474,1.437-.119.36-.126.357-.254.714-.5,1.428-.529,1.419-.265.709c-.088.237-.176.474-.27.708l-.553,1.409c-1.476,3.76-3.075,7.471-4.733,11.157l-.623,1.381-.634,1.376q-.316.69-.64,1.374l-.645,1.372c-.856,1.831-1.742,3.648-2.629,5.464l.709-1.339.7-1.347.689-1.351.682-1.355c.226-.451.445-.907.668-1.361s.443-.908.66-1.365l.656-1.368.644-1.373c.434-.913.848-1.836,1.266-2.756s.82-1.85,1.227-2.776l.594-1.4c.2-.466.4-.93.587-1.4l.574-1.4c.1-.235.194-.468.287-.7l.277-.706a119.767,119.767,0,0,0,3.928-11.484c.135-.487.275-.968.439-1.443s.349-.943.529-1.416l1.091-2.83.313-.825.039-.474-.506,1.239Z" transform="translate(-3567.199 -2008.84)" fill="#12263f"/>
          <path id="Trazado_185009" data-name="Trazado 185009" d="M3466.548,1766.109c.154-.97.3-1.941.422-2.916s.227-1.95.332-2.924l.316-2.924.617-5.848.221-2.091-.088-.04-.265,2.116-.729,5.835-.358,2.918c-.12.974-.234,1.946-.372,2.914s-.291,1.935-.453,2.9-.35,1.924-.554,2.88c-.1.479-.209.956-.312,1.434s-.218.953-.34,1.426c-.229.95-.483,1.895-.744,2.837-.53,1.883-1.127,3.743-1.775,5.59s-1.346,3.671-2.113,5.469c-.094.227-.2.446-.287.677l-.276.69c-.1.229-.171.464-.254.7l-.243.7c-.152.469-.292.941-.438,1.412-.076.234-.134.474-.2.71l-.2.711c-.135.474-.248.951-.367,1.429l-.177.715-.088.358-.082.359c-.213.959-.441,1.914-.633,2.877l-.3,1.441c-.1.481-.187.964-.281,1.445l-.277,1.446c-.094.482-.174.965-.261,1.448-.35,1.931-.662,3.867-.979,5.8l-.449,2.907c-.153.969-.284,1.941-.426,2.911-.284,1.941-.545,3.884-.8,5.828-.133.971-.252,1.944-.375,2.917l-.366,2.918-.681,5.842-.322,2.922-.313,2.924.388-2.915.379-2.915.794-5.826c.543-3.883,1.09-7.764,1.689-11.637.291-1.937.612-3.87.921-5.8.328-1.932.652-3.863,1.013-5.788.09-.482.174-.964.266-1.445l.28-1.441c.1-.48.183-.962.284-1.441l.3-1.437c.194-.959.422-1.91.637-2.865l.082-.357.089-.355.177-.712c.119-.474.233-.949.367-1.419l.193-.707c.067-.234.124-.473.2-.7.144-.466.281-.934.43-1.4l.238-.69c.082-.228.154-.462.249-.685l.269-.675c.088-.225.191-.451.285-.677q1.149-2.715,2.109-5.505c.639-1.857,1.229-3.734,1.75-5.629s.976-3.808,1.355-5.736C3466.216,1768.045,3466.385,1767.077,3466.548,1766.109Z" transform="translate(-3451.277 -1637.755)" fill="#12263f"/>
          <path id="Trazado_185010" data-name="Trazado 185010" d="M3582.226,2021.849c.72.243,1.438.5,2.144.775s1.412.561,2.1.879,1.375.645,2.041,1.008c.169.087.332.183.5.277s.331.187.492.287l.486.3.476.314a18.889,18.889,0,0,1,1.813,1.386,14.53,14.53,0,0,0-1.717-1.521,19.5,19.5,0,0,0-1.918-1.269l-.5-.287-.508-.27c-.168-.092-.342-.174-.513-.26s-.343-.172-.517-.252c-.693-.329-1.4-.621-2.114-.9a41.15,41.15,0,0,0-4.37-1.4q-1.11-.292-2.233-.522c-.749-.15-1.5-.29-2.259-.386,1.489.339,2.962.73,4.422,1.16C3580.78,2021.378,3581.506,2021.6,3582.226,2021.849Z" transform="translate(-3561.404 -1877.429)" fill="#12263f"/>
        </g>
      </g>
    </g>
  </g>
</svg>
