<svg xmlns="http://www.w3.org/2000/svg" width="318.636" height="247.298" viewBox="0 0 318.636 247.298">
  <g id="Grupo_128811" data-name="Grupo 128811" transform="translate(-895 -848.945)">
    <path id="Rectángulo_37513" data-name="Rectángulo 37513" d="M80,0H295a0,0,0,0,1,0,0V120a80,80,0,0,1-80,80H0a0,0,0,0,1,0,0V80A80,80,0,0,1,80,0Z" transform="translate(915 870.945)" fill="#2df0da"/>
    <g id="Grupo_128482" data-name="Grupo 128482" transform="translate(1612.374 1316.449)">
      <ellipse id="Elipse_5318" data-name="Elipse 5318" cx="159.318" cy="16.435" rx="159.318" ry="16.435" transform="translate(-717.374 -253.076)" fill="#05d6bf"/>
      <g id="Grupo_128385" data-name="Grupo 128385" transform="translate(-555.408 -365.772)">
        <path id="Trazado_187424" data-name="Trazado 187424" d="M-372.954-255.353c-.012,3.728-.749,25.93-11.668,30.976-11.614,5.364-60.406,9.031-66.92-.767a11.478,11.478,0,0,1-2.007-4.608,6.923,6.923,0,0,1,.132-2.745,5.871,5.871,0,0,1,.443-1.193A11.355,11.355,0,0,1-450.067-237c5.333-4.6,11.164-8.06,17.175-11.65,4.3-2.559,8.905-6.064,9.648-11.374,1.462-10.4-6.682-22.779-1.846-33.074a12.552,12.552,0,0,1,4.171-4.536c9.744-7.119,34.614-3.212,36.447-2.469C-370.484-294.449-372.911-270.215-372.954-255.353Z" transform="translate(453.627 301.843)" fill="#35a3be"/>
        <g id="Grupo_128384" data-name="Grupo 128384" transform="translate(22.329 73.014)">
          <rect id="Rectángulo_37546" data-name="Rectángulo 37546" width="4.794" height="46.69" transform="translate(20.263)" fill="#0c2d41"/>
          <path id="Trazado_187425" data-name="Trazado 187425" d="M-387.2-110.449l-7.4-3.283-7.5,3.268a34.118,34.118,0,0,1-6.789,2.178c-5.1,1.042-8.37,2.637-8.37,4.426,0,3.14,10.056,5.687,22.46,5.687s22.461-2.546,22.461-5.687c0-1.75-3.124-3.315-8.035-4.358A34.543,34.543,0,0,1-387.2-110.449Z" transform="translate(417.266 156.236)" fill="#0c2d41"/>
        </g>
        <path id="Trazado_187426" data-name="Trazado 187426" d="M-372.954-254.261c-.012,3.728-.749,25.93-11.668,30.976-11.614,5.364-60.406,9.031-66.92-.767a11.478,11.478,0,0,1-2.007-4.608,6.923,6.923,0,0,1,.132-2.745,14.558,14.558,0,0,1,3.565.971c17.708,7.191,57.194,1.5,63.738-5.693s9.036-34.757,1.641-47.342,0-15.545,0-15.545C-370.484-293.357-372.911-269.123-372.954-254.261Z" transform="translate(453.627 300.751)" fill="#1d7e96"/>
      </g>
      <g id="Grupo_128386" data-name="Grupo 128386" transform="translate(-663.276 -365.772)">
        <rect id="Rectángulo_37547" data-name="Rectángulo 37547" width="4.794" height="46.69" transform="translate(38.268 119.704) rotate(180)" fill="#0c2d41"/>
        <path id="Trazado_187427" data-name="Trazado 187427" d="M-629.094-255.353c.012,3.728.749,25.93,11.668,30.976,11.614,5.364,60.406,9.031,66.92-.767a11.47,11.47,0,0,0,2.008-4.608,6.922,6.922,0,0,0-.132-2.745,5.867,5.867,0,0,0-.443-1.193A11.354,11.354,0,0,0-551.981-237c-5.333-4.6-11.164-8.06-17.175-11.65-4.3-2.559-8.905-6.064-9.648-11.374-1.462-10.4,6.682-22.779,1.846-33.074a12.552,12.552,0,0,0-4.171-4.536c-9.744-7.119-34.614-3.212-36.447-2.469C-631.563-294.449-629.136-270.215-629.094-255.353Z" transform="translate(629.28 301.843)" fill="#ffd386"/>
        <path id="Trazado_187428" data-name="Trazado 187428" d="M-629.094-254.261c.012,3.728.749,25.93,11.668,30.976,11.614,5.364,60.406,9.031,66.92-.767a11.47,11.47,0,0,0,2.008-4.608,6.922,6.922,0,0,0-.132-2.745,14.559,14.559,0,0,0-3.565.971c-17.708,7.191-57.194,1.5-63.738-5.693s-9.037-34.757-1.642-47.342,0-15.545,0-15.545C-631.563-293.357-629.136-269.123-629.094-254.261Z" transform="translate(629.28 300.751)" fill="#edbe72"/>
        <path id="Trazado_187429" data-name="Trazado 187429" d="M-592.261-110.449l7.4-3.283,7.5,3.268a34.119,34.119,0,0,0,6.789,2.178c5.1,1.042,8.37,2.637,8.37,4.426,0,3.14-10.056,5.687-22.46,5.687s-22.461-2.546-22.461-5.687c0-1.75,3.124-3.315,8.035-4.358A34.541,34.541,0,0,0-592.261-110.449Z" transform="translate(620.728 229.251)" fill="#0c2d41"/>
      </g>
      <g id="Grupo_128413" data-name="Grupo 128413" transform="translate(-656.541 -418.454)">
        <g id="Grupo_128387" data-name="Grupo 128387" transform="translate(9.878 95.041)">
          <path id="Trazado_187430" data-name="Trazado 187430" d="M-528.878-100.5c6.742.944,27.3.56,28.465-.9,2.493-3.121-2.7-5.842-15.581-8.92a9.49,9.49,0,0,1-2.362-4.175c-2.275-.112-6.472,3.163-8.747,3.051C-527.2-109.92-529.688-100.54-528.878-100.5Z" transform="translate(573.984 187.186)" fill="#b26001"/>
          <path id="Trazado_187431" data-name="Trazado 187431" d="M-572.714-97.111c-.046,5.384,13.408,5.087,18.1,2.089,1.573-1,1.69-2.577.192-4.553-2.184-2.879-4.031-4.827-6.412-7.5-1.431-1.6-3.094-3.519-2.6-5.612-.08.338-5.771-.16-6.425-.01-3,.685-1.495-.276-1.988,2.134C-572.643-106.68-572.712-97.351-572.714-97.111Z" transform="translate(590.838 186.502)" fill="#b26001"/>
          <path id="Trazado_187432" data-name="Trazado 187432" d="M-516.506-208.2c2.285,12.3-10.086,29.663-12.969,51.24a10.563,10.563,0,0,1-10.27-.158c-.573-19.584,2.744-36.243,6-43.3.288-.625-9.988-4.856-14.132-6.719-3.276-1.474-6.64-3.008-9.124-5.6-4.344-4.538-5.154-11.411-4.677-17.674a2.566,2.566,0,0,1,.54-1.659,2.627,2.627,0,0,1,1.689-.563c6.962-.617,13.44-.308,20.72,5.286C-535.389-224.788-517.1-211.4-516.506-208.2Z" transform="translate(586.624 232.864)" fill="#404040"/>
          <path id="Trazado_187433" data-name="Trazado 187433" d="M-583.849-202.088c3.051,1.866,6.468,3.394,6.451,5.471-.04,4.88-2.548,14.088-3.668,18.838a91.949,91.949,0,0,0-2.448,21.907c.745,2.96,8.115,3.748,9.764.107,5.018-11.086,10.156-23.067,15.581-33.96,2.1-4.211,3.557-7.192,2.846-10.488-.862-4-15.749-16.952-16.341-19.572a26.244,26.244,0,0,1-.137-8.025l-25.282-2.2c-1.939-.168-4.431,1.46-4.875,3.117-.674,2.513-.149,10.2,2.439,14.391C-594.263-203.978-588.839-205.14-583.849-202.088Z" transform="translate(602.227 231.766)" fill="#636363"/>
        </g>
        <g id="Grupo_128388" data-name="Grupo 128388" transform="translate(43.514 13.694)">
          <path id="Trazado_187434" data-name="Trazado 187434" d="M-493.166-359.284a7.18,7.18,0,0,0,1.439-.975c.475-.513.7-1.3,1.344-1.571.919-.4,3.014-.717,1.907,1.306-.534.976-3.274,2.774-2.688,2.515,1.553-.567,2.993-.39,4.493-1.087.809-.376.924-3.067,1-4.154s.358-2.35,1.4-2.033c.66.2,1.255,8.74.9,9.111-1.411,1.46-3.922,2.852-4.894,3.807-.752.74.407,2.28-.9,3.176-1.2.816-4.953,3.669-6.161,0C-496.108-351.563-495.333-357.863-493.166-359.284Z" transform="translate(527.452 365.331)" fill="#ffaf66"/>
          <path id="Trazado_187435" data-name="Trazado 187435" d="M-522-313.96c6.059-6.534,4.048-19.383,5.546-29.058,1.6-1.181,6.29-.664,8.59,0,0,10.348,2.091,27.518-1.96,35.193a15.274,15.274,0,0,1-4.28,5.625c-2.884,2.036-6.824,1.947-10.168.813s-6.288-3.174-9.369-4.9c-3.12-1.745-6.441-3.2-9.222-5.443-5-4.036-7.816-16.469,1.807-16.753C-534.148-328.684-525.671-318.942-522-313.96Z" transform="translate(547.453 356.993)" fill="#89fff2"/>
        </g>
        <g id="Grupo_128394" data-name="Grupo 128394" transform="translate(6.355 37.198)">
          <path id="Trazado_187436" data-name="Trazado 187436" d="M-607.227-314.566c-1.411,3.615-.332,6.583-.493,10.46-.256,6.152-.5,12.4.973,18.38.742,3.008,1.914,5.908,2.481,8.954a29.111,29.111,0,0,1,.065,9.45,6.14,6.14,0,0,0,.028,2.987c.638,1.73,2.7,2.391,4.494,2.8,6.584,1.5,13.311,2.683,20.057,2.367,7.771-.364,15.3-2.693,22.958-4.057,1.374-.954-7.157-6.739-4.558-19.878,1.357-6.864,2.784-13.772,2.916-20.768.1-5.249-.876-10.453-1.846-15.613a6.344,6.344,0,0,0-1.16-3.072c-1-1.157-2.662-1.427-4.18-1.624-8.048-1.041-15.716-3.975-24.535-2.443-4.714.819-10.039,2.2-11.905,3.367C-604.7-321.523-605.727-318.411-607.227-314.566Z" transform="translate(607.964 327.057)" fill="#ccfff9"/>
          <g id="Grupo_128393" data-name="Grupo 128393" transform="translate(15.55 3.825)">
            <g id="Grupo_128389" data-name="Grupo 128389" transform="translate(1.027)">
              <path id="Trazado_187437" data-name="Trazado 187437" d="M-580.955-320.544a23.932,23.932,0,0,0,3.312,6.41c1.232,1.692,2.585,3.476,4.714,4a.281.281,0,0,0,.149-.542c-3.861-1.537-6.3-6.309-7.724-9.993-.107-.276-.551-.165-.451.125Z" transform="translate(580.97 320.827)" fill="#442b56"/>
            </g>
            <g id="Grupo_128390" data-name="Grupo 128390" transform="translate(1.524 22.588)">
              <path id="Trazado_187438" data-name="Trazado 187438" d="M-580.126-283.76c1.544,2.272,3.726,4.637,6.387,5.553.152.052.211-.157.1-.239-2.281-1.71-4.451-3.158-6.148-5.512-.146-.2-.483-.013-.34.2Z" transform="translate(580.161 284.044)" fill="#442b56"/>
            </g>
            <g id="Grupo_128391" data-name="Grupo 128391" transform="translate(1.566 27.949)">
              <path id="Trazado_187439" data-name="Trazado 187439" d="M-580.024-274.992a18.72,18.72,0,0,0,5.063,3.27c.2.072.291-.217.137-.325-1.61-1.132-3.361-2-4.921-3.223-.2-.154-.476.117-.278.278Z" transform="translate(580.092 275.316)" fill="#442b56"/>
            </g>
            <g id="Grupo_128392" data-name="Grupo 128392" transform="translate(0 51.965)">
              <path id="Trazado_187440" data-name="Trazado 187440" d="M-582.525-235.874a73.972,73.972,0,0,0,11.71,3.03c3.048.517,6.36,1.17,9.418.526.263-.055.209-.513-.065-.478-6.788.866-14.537-1.377-20.974-3.4-.209-.066-.294.255-.09.325Z" transform="translate(582.642 236.207)" fill="#442b56"/>
            </g>
          </g>
        </g>
        <g id="Grupo_128404" data-name="Grupo 128404" transform="translate(23.962)">
          <path id="Trazado_187441" data-name="Trazado 187441" d="M-578.757-334.637a49.427,49.427,0,0,0,2.768,5.964c3.814,6,8.24,6.891,11.8,6.936,5.784.072,9.723-10.533,9.667-11.087-.084-.824-2.849-.375-3.283-1.081-1.268-2.06.164-9.286-.317-9.221-4.514.6-14.814-8.392-15.562-2.928-.472,3.449-.472,7.074-2.307,9.664A3.943,3.943,0,0,1-578.757-334.637Z" transform="translate(579.086 372.269)" fill="#e89b5b"/>
          <path id="Trazado_187442" data-name="Trazado 187442" d="M-568.738-353.369c1.711,1.972,6.73,6.4,10.812,4.715a10.907,10.907,0,0,0,3.9-2.971c3.86-4.373,3.79-10.8,3.884-19.713.044-4.229-3.207-4.711-7.155-6.229-4.479-1.722-11.738-1.691-13.827,2.7C-573.7-369.464-572.606-357.827-568.738-353.369Z" transform="translate(576.68 384.156)" fill="#ffaf66"/>
          <path id="Trazado_187443" data-name="Trazado 187443" d="M-554.435-342.575s.061,5.738,1.511,5.62c1.349-.111,2.674-3.391,2.7-4.691C-550.22-341.646-552.924-341.476-554.435-342.575Z" transform="translate(569.7 370.243)" fill="#fff"/>
          <path id="Trazado_187444" data-name="Trazado 187444" d="M-573.087-368.686c.712-5.158.93-10.659,2.893-9.706,5.14,2.5,12.349,4.344,17.436,3.58,1.646-2.485,2.66-5.6.744-8.774-2.385-3.952-18.355-6.553-20.91-.261-5.394-.449-6.136,4.562-6.29,6.465-.407,5.032.879,7.445,1.462,11.728a18.637,18.637,0,0,1,4.108,1.274C-573.648-365.061-572.907-366.758-573.087-368.686Z" transform="translate(579.292 387.63)" fill="#12263f"/>
          <path id="Trazado_187445" data-name="Trazado 187445" d="M-571.462-356.093c-.553-2.1-2.417-4.529-4.308-3.462-2.4,1.352-1.263,5.238-.046,7.169a3.2,3.2,0,0,0,2.744,1.7C-570.535-350.836-571.462-356.093-571.462-356.093Z" transform="translate(578.477 376.896)" fill="#ffaf66"/>
          <circle id="Elipse_5319" data-name="Elipse 5319" cx="0.884" cy="0.884" r="0.884" transform="translate(13.424 18.872)" fill="#0c2d41"/>
          <g id="Grupo_128395" data-name="Grupo 128395" transform="translate(16.535 18.517)">
            <path id="Trazado_187446" data-name="Trazado 187446" d="M-550.244-357.22a8.046,8.046,0,0,0,.152,4.272c.193.628.711,1.368.542,1.924-.341,1.123-1.72.913-2.574.862a.246.246,0,0,0-.235.308c.428,1.859,3.026.273,3.661-.619.485-.68.211-1-.124-1.7a9.054,9.054,0,0,1-.7-4.947c.042-.412-.623-.493-.717-.1Z" transform="translate(552.366 357.478)" fill="#e89b5b"/>
          </g>
          <g id="Grupo_128396" data-name="Grupo 128396" transform="translate(11.657 14.439)">
            <path id="Trazado_187447" data-name="Trazado 187447" d="M-559.38-362.018a3.249,3.249,0,0,1,3.543.026c.9.765,2.2-.563,1.291-1.291a4.471,4.471,0,0,0-5.566.316c-.549.434.154,1.278.732.948Z" transform="translate(560.31 364.117)" fill="#0c2d41"/>
          </g>
          <circle id="Elipse_5320" data-name="Elipse 5320" cx="0.884" cy="0.884" r="0.884" transform="translate(22.257 18.872)" fill="#0c2d41"/>
          <g id="Grupo_128397" data-name="Grupo 128397" transform="translate(20.752 14.694)">
            <path id="Trazado_187448" data-name="Trazado 187448" d="M-540.491-362.028c-.8-1.94-2.833-1.963-4.537-1.228-1.062.458-.147,2.085.922,1.576.824-.392,1.906-.823,2.511.117.349.542,1.377.2,1.1-.466Z" transform="translate(545.5 363.702)" fill="#0c2d41"/>
          </g>
          <g id="Grupo_128398" data-name="Grupo 128398" transform="translate(2.775 19.121)">
            <path id="Trazado_187449" data-name="Trazado 187449" d="M-572.454-356.127a1.717,1.717,0,0,0-1.869-.141c-.485.357-.44,1.007-.449,1.544-.02,1.175.333,2.977,1.823,3.027a.26.26,0,0,0,.13-.48,2.02,2.02,0,0,1-1.3-1.853,4.111,4.111,0,0,1,0-.833q-.075-.7.835-.862.288.1.58.189a.324.324,0,0,0,.249-.59Z" transform="translate(574.773 356.494)" fill="#e89b5b"/>
          </g>
          <g id="Grupo_128399" data-name="Grupo 128399" transform="translate(11.452 6.144)">
            <path id="Trazado_187450" data-name="Trazado 187450" d="M-560.559-377.273c3.448,2.342,8.153,4.216,12.394,3.545.234-.037.142-.352-.051-.377-4.5-.585-8.175-1.049-12.154-3.491-.208-.128-.387.189-.189.323Z" transform="translate(560.644 377.625)" fill="#113f56"/>
          </g>
          <g id="Grupo_128400" data-name="Grupo 128400" transform="translate(11.921 4.014)">
            <path id="Trazado_187451" data-name="Trazado 187451" d="M-559.7-380.729a31.737,31.737,0,0,1,7.187,1.489c2.052.7,3.895,1.828,5.914,2.582a.151.151,0,0,0,.146-.251c-3.419-2.988-8.847-4.018-13.247-4.185-.238-.009-.23.343,0,.365Z" transform="translate(559.88 381.094)" fill="#113f56"/>
          </g>
          <g id="Grupo_128401" data-name="Grupo 128401" transform="translate(2.034 6.802)">
            <path id="Trazado_187452" data-name="Trazado 187452" d="M-575.467-369.718a11.026,11.026,0,0,1,.319-3.9c.475-1.4,1.381-1.866,2.518-2.63a.166.166,0,0,0-.083-.306c-1.177-.083-2.167,1.084-2.654,2.047a8.819,8.819,0,0,0-.521,4.784c.023.267.43.275.421,0Z" transform="translate(575.98 376.554)" fill="#113f56"/>
          </g>
          <g id="Grupo_128402" data-name="Grupo 128402" transform="translate(4.129 8.114)">
            <path id="Trazado_187453" data-name="Trazado 187453" d="M-572.207-369.1a6.487,6.487,0,0,1,.673-2.815,9.051,9.051,0,0,1,1.682-2.049.268.268,0,0,0-.323-.419c-1.791.943-2.6,3.39-2.35,5.283a.159.159,0,0,0,.318,0Z" transform="translate(572.569 374.418)" fill="#113f56"/>
          </g>
          <g id="Grupo_128403" data-name="Grupo 128403" transform="translate(12.002 1.633)">
            <path id="Trazado_187454" data-name="Trazado 187454" d="M-559.653-384.64c4.745-.351,8.216,1.258,12.4,3.176.214.1.48-.173.272-.353-3.341-2.9-8.444-3.462-12.672-3.02-.124.013-.128.206,0,.2Z" transform="translate(559.748 384.971)" fill="#113f56"/>
          </g>
        </g>
        <g id="Grupo_128412" data-name="Grupo 128412" transform="translate(0 40.572)">
          <g id="Grupo_128405" data-name="Grupo 128405">
            <path id="Trazado_187455" data-name="Trazado 187455" d="M-555.015-260.829c.558-.02,6.6,4.88,6.487,5.893-.171,1.552-5.1-1.145-5.712-1.2a21.224,21.224,0,0,0-4.189,1.2c-2.116.9-3.661-.2-5.889-.776-3.207-.829-4.874-3.072-3.565-6.116C-563.5-260.452-560.652-260.629-555.015-260.829Z" transform="translate(599.025 298.511)" fill="#ffaf66"/>
            <path id="Trazado_187456" data-name="Trazado 187456" d="M-613.686-309.056a71.854,71.854,0,0,0-4.627,25.125c-.029,4.295,1.875,5.882,2.847,5.943a228.105,228.105,0,0,0,34.674,0c.466-3.245-.437-3.646.029-6.891-8.015-.139-19.171-4.894-25.064-3.9,1.153-2.935,7.99-13.777,9.688-20.269.855-3.272,1.088-7.6-1.4-9.888-2.995-2.76-5.656-3.058-8.39-2.2C-611.957-319.238-612.407-312.323-613.686-309.056Z" transform="translate(618.313 321.563)" fill="#89fff2"/>
          </g>
          <g id="Grupo_128411" data-name="Grupo 128411" transform="translate(4.904 32.542)">
            <g id="Grupo_128406" data-name="Grupo 128406" transform="translate(0.162 0.715)">
              <path id="Trazado_187457" data-name="Trazado 187457" d="M-609.62-263.869a9.488,9.488,0,0,1,3.2-2.181c1.006-.412,2.117-.426,3.09-.858.175-.078.115-.349-.052-.394-2.267-.6-5.174,1.5-6.6,3.062-.227.247.133.613.371.371Z" transform="translate(610.064 267.408)" fill="#553568"/>
            </g>
            <g id="Grupo_128407" data-name="Grupo 128407">
              <path id="Trazado_187458" data-name="Trazado 187458" d="M-610.1-267.177a10.066,10.066,0,0,1,2.5-.631,22.927,22.927,0,0,0,2.3-.1.189.189,0,0,0,.045-.342c-1.456-.762-3.664-.013-4.988.743-.174.1-.058.409.141.333Z" transform="translate(610.327 268.572)" fill="#553568"/>
            </g>
            <g id="Grupo_128408" data-name="Grupo 128408" transform="translate(28.802 5.268)">
              <path id="Trazado_187459" data-name="Trazado 187459" d="M-563.072-259.263a4.991,4.991,0,0,1,1.293.208,4.722,4.722,0,0,0,1.1.343.311.311,0,0,0,.267-.465c-.551-.716-1.823-.822-2.663-.816a.365.365,0,0,0,0,.73Z" transform="translate(563.425 259.993)" fill="#553568"/>
            </g>
            <g id="Grupo_128409" data-name="Grupo 128409" transform="translate(28.827 7.06)">
              <path id="Trazado_187460" data-name="Trazado 187460" d="M-563.055-256.351a4.5,4.5,0,0,1,1.761.165.374.374,0,0,0,.373-.1.355.355,0,0,0,.112-.271.4.4,0,0,0-.281-.37,5.225,5.225,0,0,0-2.054-.088c-.372.055-.289.7.09.662Z" transform="translate(563.385 257.075)" fill="#553568"/>
            </g>
            <g id="Grupo_128410" data-name="Grupo 128410" transform="translate(28.802 9.041)">
              <path id="Trazado_187461" data-name="Trazado 187461" d="M-563.073-253.09l1.229.024a1.272,1.272,0,0,0,.951-.207.259.259,0,0,0,0-.364,1.269,1.269,0,0,0-.951-.208l-1.229.024a.366.366,0,0,0,0,.731Z" transform="translate(563.425 253.849)" fill="#553568"/>
            </g>
          </g>
        </g>
      </g>
      <g id="Grupo_128449" data-name="Grupo 128449" transform="translate(-485.092 -467.504)">
        <g id="Grupo_128420" data-name="Grupo 128420" transform="translate(1.641 97.766)">
          <path id="Trazado_187462" data-name="Trazado 187462" d="M-274.217-121.489c-1.228,1.967-6.754,4.7-8.444,5.171-8.839,2.48-8.745,4.556-6.692,6.072,1.148.848,5.943.67,15.081.52,1.1-.018,9.8-.791,9.768-1.225-.382-4.493-2.771-11.291-3.373-16.777a1.155,1.155,0,0,0-.579-.848,1.536,1.536,0,0,0-.809-.117l-6.156.233C-274.057-128.51-273.83-122.109-274.217-121.489Z" transform="translate(318.717 238.991)" fill="#b26001"/>
          <path id="Trazado_187463" data-name="Trazado 187463" d="M-320.073-120.992a100.592,100.592,0,0,1-9.688,3.783c-2.881.87-7.419,2.717-6.592,5.316,2.217,1.977,6.768,1.153,9.738,1.145,3.747-.01,18.727-.341,18.727-.6.014-6.312-1.9-10.735-3.155-16.094a66.935,66.935,0,0,0-7.232-.234C-318.832-124.859-316.544-122.962-320.073-120.992Z" transform="translate(336.452 238.611)" fill="#b26001"/>
          <g id="Grupo_128419" data-name="Grupo 128419" transform="translate(10.742)">
            <path id="Trazado_187464" data-name="Trazado 187464" d="M-312.323-192.63c.111,1.675,9.372,2.144,9.484-.591.887-21.52,2.5-77.153,5.1-86.841.755-.487,1.077-.333,1.624.38s4.628,59.328,9.761,88.447c.222,1.257,6.9.075,9.14-.6-.206-42.379,2.715-79.658,1.374-112.361-3.521-4.035-18.72-4.557-26.784-3.836-5.235.469-13.293.6-16.333,5.7,0,5.118.606,13.912.6,15.644-.036,6.089.571,11.721.846,17.8C-316.812-253.276-313.117-204.542-312.323-192.63Z" transform="translate(318.96 308.301)" fill="#12263f"/>
            <g id="Grupo_128418" data-name="Grupo 128418" transform="translate(10.377 16.976)">
              <g id="Grupo_128414" data-name="Grupo 128414" transform="translate(0 4.046)">
                <path id="Trazado_187465" data-name="Trazado 187465" d="M-302-273.652c2.1,2.494,5.408,5.139,8.79,5.407a.231.231,0,0,0,.116-.427,44.223,44.223,0,0,1-4.469-1.907,16.838,16.838,0,0,1-4.1-3.41c-.205-.232-.533.105-.338.338Z" transform="translate(302.062 274.068)" fill="#12263f"/>
              </g>
              <g id="Grupo_128415" data-name="Grupo 128415" transform="translate(8.16 2.408)">
                <path id="Trazado_187466" data-name="Trazado 187466" d="M-288.763-276.394a27.069,27.069,0,0,0,1.251,4.252c.112.235.54.13.506-.137a27.1,27.1,0,0,0-1.224-4.262.277.277,0,0,0-.533.147Z" transform="translate(288.775 276.736)" fill="#12263f"/>
              </g>
              <g id="Grupo_128416" data-name="Grupo 128416" transform="translate(20.853)">
                <path id="Trazado_187467" data-name="Trazado 187467" d="M-268.083-280.279a5.891,5.891,0,0,0,2.674,3.11c1,.553,2.712,1.145,3.771.512a.218.218,0,0,0-.052-.394c-1.1-.279-2.146-.067-3.239-.613a5.217,5.217,0,0,1-2.549-2.781c-.146-.371-.75-.212-.6.166Z" transform="translate(268.105 280.656)" fill="#12263f"/>
              </g>
              <g id="Grupo_128417" data-name="Grupo 128417" transform="translate(23.737 5.821)">
                <path id="Trazado_187468" data-name="Trazado 187468" d="M-263.2-270.621l1.832.39a3.062,3.062,0,0,0,1.493.148c.137-.04.225-.251.093-.352a2.934,2.934,0,0,0-1.414-.422l-1.853-.314c-.357-.061-.516.473-.152.551Z" transform="translate(263.409 271.177)" fill="#12263f"/>
              </g>
            </g>
          </g>
        </g>
        <g id="Grupo_128422" data-name="Grupo 128422" transform="translate(10.074 34.699)">
          <path id="Trazado_187469" data-name="Trazado 187469" d="M-322.719-406.089c.081,19.31,1.62,46.171.708,65.625-.239,5.09,4.418,7.426,5.454,7.787,7.592,2.639,14.907,4.385,21.643,0,6.388-4.159,7.221-5.561,12.361-10.233,3.136-2.851,6.709.106,6.693-.2-1.061-20.224-3.6-45.209-4.658-65.433-.057-1.089-9.835-2.166-10.935-2.263a48.951,48.951,0,0,0-11.836.388C-310.864-409.241-317.44-408.485-322.719-406.089Z" transform="translate(322.719 411.001)" fill="#ff8900"/>
          <g id="Grupo_128421" data-name="Grupo 128421" transform="translate(34.855 1.681)">
            <path id="Trazado_187470" data-name="Trazado 187470" d="M-235.12-363.8c.956,5.992-7.351,24.925-14.226,32.16-1.509,1.587-2.437,4.041-3.378,6.018-.513,1.08-.933,2.382-2.038,2.841-1.147.478-2.466-.243-3.279-1.182a8.675,8.675,0,0,1-1.519-7.493c1.025-4.679,4.524-3.67,5.832-5.965,3.276-5.747,7.154-23.054,6.307-23.984-2.889-3.168-8.021-14.533-12.278-20.619-1.113-1.591,9.831-7.8,11.352-6.048C-244.423-383.538-236.292-371.143-235.12-363.8Z" transform="translate(263.587 400.59)" fill="#ffaf66"/>
            <path id="Trazado_187471" data-name="Trazado 187471" d="M-242.182-384.131c-2.943,1.141-13.11,6.352-14.63,4.737-2.856-3.035-3.053-6.767-5.261-10.3a23.433,23.433,0,0,1-3.885-11.725c-.076-3.529,1.705-7.26,5.829-6.806,3.055.336,5.569,3.607,7.46,5.788C-251.356-400.923-241.392-384.437-242.182-384.131Z" transform="translate(265.961 408.263)" fill="#ff8900"/>
          </g>
        </g>
        <g id="Grupo_128433" data-name="Grupo 128433" transform="translate(2.929)">
          <path id="Trazado_187472" data-name="Trazado 187472" d="M-288.5-416.472c1.2,5.729-10.846,7.257-15.951,5.828a1.944,1.944,0,0,1-1.315-.844c-.323-.662.125-1.417.465-2.071,1.793-3.453.626-7.634-.57-11.336-.361-1.116,10.5-6.563,11.478-3.926A76.446,76.446,0,0,0-288.5-416.472Z" transform="translate(323.366 452.851)" fill="#e89b5b"/>
          <path id="Trazado_187473" data-name="Trazado 187473" d="M-319.525-434.9a17.655,17.655,0,0,0,5.928,6.827c2.612,1.572,6.158,1.9,8.637.128s3.283-5.029,3.708-8.035a28.8,28.8,0,0,0,.018-9.719,13.748,13.748,0,0,0-4.807-8.261,10.958,10.958,0,0,0-9.731-1.735C-326.907-452.247-323.864-442.691-319.525-434.9Z" transform="translate(330.148 463.126)" fill="#f9a86b"/>
          <path id="Trazado_187474" data-name="Trazado 187474" d="M-331.908-454.327c.305.793-.415,1.571-.7,2.37a2.534,2.534,0,0,0,3.044,3.085c1.556-.541,2.515-2.622,4.152-2.44,1.065.118,1.809,1.2,2.865,1.385,2.6.446,3.7-4.527,6.3-4.071.853.149,1.525.9,2.386.978,1.608.147,2.473-.391,3.643.721.856.812,1.221,5.4,1.728,6.468.875,2.257,2.589-.382,3.082,0,2.914,2.257,4.164-2.466,3.626-3.622s-1.791-2.541-1.08-4.2c.266-.619.674-1.408.335-1.99-2.5-4.278,2.574-6.21-2.5-7.633-2.056-1.933-2.16-3.093-4.6-1.682a3.02,3.02,0,0,1-1.188.518c-.786.069-1.417-.594-1.971-1.156-1.418-1.436-3.689-2.563-5.387-1.471-.739.475-.792,2.126-3.675,1.613-4.323-.769-2.576,1.934-5.325,2.076-1.7.088-2.67-.482-4.122.524a8.407,8.407,0,0,0-2.926,4.014C-334.892-455.8-332.721-456.44-331.908-454.327Z" transform="translate(334.355 467.504)" fill="#12263f"/>
          <path id="Trazado_187475" data-name="Trazado 187475" d="M-288.242-440.923c-3.5.044-2.422,4.848-2.422,4.848,1.271,6.333,4.295,2.242,4.258.443C-286.435-436.953-286.407-440.946-288.242-440.923Z" transform="translate(317.554 457.246)" fill="#ffaf66"/>
          <path id="Trazado_187476" data-name="Trazado 187476" d="M-312.907-429.1a.9.9,0,0,1-.9.9.9.9,0,0,1-.9-.9.9.9,0,0,1,.9-.9A.9.9,0,0,1-312.907-429.1Z" transform="translate(326.772 453.031)" fill="#12263f"/>
          <path id="Trazado_187477" data-name="Trazado 187477" d="M-300.021-432.776a.9.9,0,0,1-.9.9.9.9,0,0,1-.9-.9.9.9,0,0,1,.9-.9A.9.9,0,0,1-300.021-432.776Z" transform="translate(321.799 454.449)" fill="#12263f"/>
          <g id="Grupo_128423" data-name="Grupo 128423" transform="translate(15.948 22.764)">
            <path id="Trazado_187478" data-name="Trazado 187478" d="M-308.334-429.983a5.167,5.167,0,0,1,.722,2.892c-.008.761-.245,1.565-.2,2.314.079,1.191,1.505,1.258,2.437,1.017.515-.134.338-.8-.115-.855a3.267,3.267,0,0,1-1.157-.163c-.372-.224-.23-.423-.208-.835a13.982,13.982,0,0,0,0-1.843,5.6,5.6,0,0,0-.952-2.838c-.224-.322-.746-.031-.534.312Z" transform="translate(308.384 430.434)" fill="#e99c5b"/>
          </g>
          <path id="Trazado_187479" data-name="Trazado 187479" d="M-300.738-419.24a12.111,12.111,0,0,1-5.351,1.736c.726,2.187,3.8,3.5,5.537,2.256C-299.519-415.987-300.738-419.24-300.738-419.24Z" transform="translate(323.447 448.879)" fill="#fff"/>
          <g id="Grupo_128424" data-name="Grupo 128424" transform="translate(9.006 19.119)">
            <path id="Trazado_187480" data-name="Trazado 187480" d="M-318.886-434.072a3.381,3.381,0,0,1,1.2-.849c.43-.173,1-.184,1.236-.645a.489.489,0,0,0-.074-.578c-.52-.468-1.239-.115-1.75.205a4.546,4.546,0,0,0-1.341,1.306c-.3.436.371.943.728.562Z" transform="translate(319.689 436.37)" fill="#12263f"/>
          </g>
          <g id="Grupo_128425" data-name="Grupo 128425" transform="translate(17.733 16.431)">
            <path id="Trazado_187481" data-name="Trazado 187481" d="M-304.84-439.144a9.309,9.309,0,0,1,2.266-.285c.594,0,1.185.143,1.637-.323a.4.4,0,0,0,.061-.477c-.422-.624-1.153-.543-1.834-.469a10.505,10.505,0,0,0-2.407.551.52.52,0,0,0,.276,1Z" transform="translate(305.478 440.747)" fill="#12263f"/>
          </g>
          <g id="Grupo_128426" data-name="Grupo 128426" transform="translate(27.641 18.164)">
            <path id="Trazado_187482" data-name="Trazado 187482" d="M-288.782-435.76a3.374,3.374,0,0,1,.092-.735q1.238-.946,1.353-.048a4.944,4.944,0,0,1,.1,1.14c.037.756.214,1.888-.581,2.325-.34.187-.039.691.3.518a2.032,2.032,0,0,0,.967-1.845,5.873,5.873,0,0,0-.272-2.821,1.176,1.176,0,0,0-1.482-.622c-.873.323-1.032,1.271-1.042,2.088a.281.281,0,0,0,.562,0Z" transform="translate(289.344 437.925)" fill="#e99c5b"/>
          </g>
          <g id="Grupo_128427" data-name="Grupo 128427" transform="translate(3.286 8.631)">
            <path id="Trazado_187483" data-name="Trazado 187483" d="M-327.885-453.448a1.253,1.253,0,0,0-.294,2.426c.52.214,1.033.216,1.339.771.22.4.275.834.631,1.148s1.059.525,1.218-.066a.132.132,0,0,0-.092-.161,2.023,2.023,0,0,1-.594-.114c-.338-.186-.386-.547-.5-.862a2.031,2.031,0,0,0-.507-.872,2.454,2.454,0,0,0-1-.433c-.327-.1-.658-.212-.638-.633a.637.637,0,0,1,.518-.6c.333-.075.268-.644-.082-.607Z" transform="translate(329.004 453.45)" fill="#1d7e96"/>
          </g>
          <g id="Grupo_128428" data-name="Grupo 128428" transform="translate(8.726 8.023)">
            <path id="Trazado_187484" data-name="Trazado 187484" d="M-319.948-454.266a2.255,2.255,0,0,0,1.885,3.2,3.608,3.608,0,0,0,.465-.043,1.567,1.567,0,0,1,1.6.55,1.987,1.987,0,0,0,.742.542,2.469,2.469,0,0,0,2.354-.72c.263-.237-.071-.582-.352-.456a6.713,6.713,0,0,1-.647.333c-2.86.895-1.147-.131-1.824-.622a1.547,1.547,0,0,0-.763-.416,3.085,3.085,0,0,0-.919.046c-1.173.123-2.587-.623-1.969-2.078.165-.388-.4-.729-.574-.336Z" transform="translate(320.146 454.44)" fill="#1d7e96"/>
          </g>
          <g id="Grupo_128429" data-name="Grupo 128429" transform="translate(15.016 6.169)">
            <path id="Trazado_187485" data-name="Trazado 187485" d="M-309.334-456.988l.033-.018a.224.224,0,0,0,0-.385.412.412,0,0,0-.377-.039.31.31,0,0,0-.219.287,1.258,1.258,0,0,0,.825,1.283,2.76,2.76,0,0,0,1.174.211,3.032,3.032,0,0,1,1.1.071,1.9,1.9,0,0,1,.771,1.49c.092.7.189,1.49.889,1.848a.955.955,0,0,0,1.4-.384c.1-.214-.112-.489-.346-.346-1.267.779-1.22-1.541-1.346-1.988a1.923,1.923,0,0,0-.56-.973,1.87,1.87,0,0,0-1-.395,8.91,8.91,0,0,0-.906-.018h-.3a1.419,1.419,0,0,1-1.156-.641l-.252-.327-.016.034a.213.213,0,0,0,.288.289Z" transform="translate(309.903 457.458)" fill="#1d7e96"/>
          </g>
          <g id="Grupo_128430" data-name="Grupo 128430" transform="translate(22.728 6.506)">
            <path id="Trazado_187486" data-name="Trazado 187486" d="M-297.279-456.784a2.509,2.509,0,0,0,.883,2.561c.507.381,2.1.911,2.427.087a.178.178,0,0,0-.082-.2c-.271-.166-.451-.033-.755-.013a2.082,2.082,0,0,1-1.158-.276,2.064,2.064,0,0,1-.967-2.111c.026-.2-.306-.241-.349-.047Z" transform="translate(297.344 456.91)" fill="#1d7e96"/>
          </g>
          <g id="Grupo_128431" data-name="Grupo 128431" transform="translate(24.715 11.88)">
            <path id="Trazado_187487" data-name="Trazado 187487" d="M-294.072-447.769a3.416,3.416,0,0,0,1.166,1.232c.376.235,1.021.609,1.418.292a.23.23,0,0,0,.036-.278c-.215-.338-.75-.322-1.092-.5a2.829,2.829,0,0,1-1.075-1.008.263.263,0,0,0-.453.265Z" transform="translate(294.109 448.158)" fill="#1d7e96"/>
          </g>
          <g id="Grupo_128432" data-name="Grupo 128432" transform="translate(26.351 5.595)">
            <path id="Trazado_187488" data-name="Trazado 187488" d="M-291.161-457.9a1.708,1.708,0,0,1,1.837.965c.31.743-.073,1.223-.24,1.914a.313.313,0,0,0,.454.349c.884-.51.783-1.975.284-2.72a2.346,2.346,0,0,0-2.456-.941c-.289.063-.158.473.12.434Z" transform="translate(291.444 458.394)" fill="#1d7e96"/>
          </g>
        </g>
        <g id="Grupo_128434" data-name="Grupo 128434" transform="translate(0 34.232)">
          <path id="Trazado_187489" data-name="Trazado 187489" d="M-335.554-367.9c.678,2.912,3.286,4.974,5.783,6.757,2.434,1.737,9.538,0,12.582-8.425,3.648-10.1,4.691-17.863,4.2-30.217-.051-1.27,1.656-2.545,1.6-4.195-.148-4.228-1.056-3.941-.807-4.095,1.831-1.124,2.392-.5,2.305-2.5-1.5-1.9-7.4-1.826-10.153,2.53a5.686,5.686,0,0,0-.833,3.363c.053,1.118.917,3.2,1.057,4.307.78,6.165-.582,9.687-2.541,14.67-2.072,5.271-2.935,6.8-4.075,11.578a57.812,57.812,0,0,0-.335-10.08c-2.31.228-10.864-2.32-10.986.3C-337.934-380.224-336.058-370.07-335.554-367.9Z" transform="translate(338.603 411.76)" fill="#ffaf66"/>
          <path id="Trazado_187490" data-name="Trazado 187490" d="M-336.988-394.263c-2.108,6.317-2.41,13.159-1.952,19.8l12.353-.383c.162-2.528,1.268-14.2.689-18.8-.385-3.066.145-11.1-3.152-9.49A14.848,14.848,0,0,0-336.988-394.263Z" transform="translate(339.124 408.513)" fill="#ff8900"/>
        </g>
        <g id="Grupo_128443" data-name="Grupo 128443" transform="translate(13.083 38.021)">
          <g id="Grupo_128435" data-name="Grupo 128435" transform="translate(14.555)">
            <path id="Trazado_187491" data-name="Trazado 187491" d="M-293.922-398.844a13.317,13.317,0,0,0,8.928-1.729c1.362-.887,3.941-2.864,3.83-4.726a.3.3,0,0,0-.588-.08c-1.587,4.668-7.663,6.488-12.1,5.992-.307-.034-.381.491-.074.543Z" transform="translate(294.118 405.591)" fill="#b26001"/>
          </g>
          <g id="Grupo_128436" data-name="Grupo 128436" transform="translate(35.562 5.777)">
            <path id="Trazado_187492" data-name="Trazado 187492" d="M-256.191-380.409c-1.518-4.837-3.723-10.359-2.657-15.463a.253.253,0,0,0-.488-.135c-1.826,4.8,1.153,11.169,2.711,15.717.093.271.521.159.434-.119Z" transform="translate(259.91 396.183)" fill="#b26001"/>
          </g>
          <g id="Grupo_128437" data-name="Grupo 128437" transform="translate(32.884 9.263)">
            <path id="Trazado_187493" data-name="Trazado 187493" d="M-264.26-390.17c1.1,4.3,3.035,9.558,5.866,13.014a.24.24,0,0,0,.4-.232c-.728-1.932-1.874-3.7-2.747-5.57-1.123-2.407-2-4.9-2.985-7.359a.277.277,0,0,0-.533.147Z" transform="translate(264.271 390.507)" fill="#b26001"/>
          </g>
          <g id="Grupo_128438" data-name="Grupo 128438" transform="translate(0 11.492)">
            <path id="Trazado_187494" data-name="Trazado 187494" d="M-317.4-373.3c.481-4.331.954-9.138.031-13.436-.048-.223-.38-.163-.386.052-.141,4.474.318,8.891-.066,13.384-.023.272.392.265.421,0Z" transform="translate(317.82 386.876)" fill="#b26001"/>
          </g>
          <g id="Grupo_128439" data-name="Grupo 128439" transform="translate(0.961 15.073)">
            <path id="Trazado_187495" data-name="Trazado 187495" d="M-315.774-373.581c.2-1.283.411-2.566.6-3.853a13.5,13.5,0,0,0,.342-3.408.212.212,0,0,0-.413-.056,13.583,13.583,0,0,0-.566,3.377c-.159,1.29-.3,2.583-.438,3.875-.029.27.435.336.478.064Z" transform="translate(316.254 381.046)" fill="#b26001"/>
          </g>
          <g id="Grupo_128440" data-name="Grupo 128440" transform="translate(6.596 60.706)">
            <path id="Trazado_187496" data-name="Trazado 187496" d="M-306.849-298.258c4.592,1.4,9.776,2.547,14.4.634,2.439-1.008,4.17-2.918,6.218-4.5,3.007-2.326,6.193-2.917,9.742-3.906a.339.339,0,0,0-.09-.662c-4.59-.425-8.9,2.467-12.189,5.337-5.338,4.661-11.429,4.218-17.91,2.467a.328.328,0,0,0-.174.632Z" transform="translate(307.079 306.736)" fill="#b26001"/>
          </g>
          <g id="Grupo_128441" data-name="Grupo 128441" transform="translate(11.292 51.943)">
            <path id="Trazado_187497" data-name="Trazado 187497" d="M-299.293-315.567c5.636,3.874,14.344,1.6,16.738-5.1.115-.324-.338-.452-.513-.217-1.949,2.625-3.658,4.986-6.923,6.071a10.188,10.188,0,0,1-8.99-1.286c-.333-.221-.637.31-.312.534Z" transform="translate(299.432 321.006)" fill="#b26001"/>
          </g>
          <g id="Grupo_128442" data-name="Grupo 128442" transform="translate(15.673 33.32)">
            <path id="Trazado_187498" data-name="Trazado 187498" d="M-291.984-338.991c4.583-1.416,6.925-7.626,7.676-11.915a.347.347,0,0,0-.668-.184c-1.582,4-2.525,9.942-7.145,11.6-.308.111-.184.6.137.5Z" transform="translate(292.298 351.332)" fill="#b26001"/>
          </g>
        </g>
        <g id="Grupo_128448" data-name="Grupo 128448" transform="translate(22.76 114.743)">
          <g id="Grupo_128444" data-name="Grupo 128444" transform="translate(0 4.046)">
            <path id="Trazado_187499" data-name="Trazado 187499" d="M-302-273.652c2.1,2.494,5.408,5.139,8.79,5.407a.231.231,0,0,0,.116-.427,44.223,44.223,0,0,1-4.469-1.907,16.838,16.838,0,0,1-4.1-3.41c-.205-.232-.533.105-.338.338Z" transform="translate(302.062 274.068)" fill="#1d7e96"/>
          </g>
          <g id="Grupo_128445" data-name="Grupo 128445" transform="translate(8.16 2.408)">
            <path id="Trazado_187500" data-name="Trazado 187500" d="M-288.763-276.394a27.069,27.069,0,0,0,1.251,4.252c.112.235.54.13.506-.137a27.1,27.1,0,0,0-1.224-4.262.277.277,0,0,0-.533.147Z" transform="translate(288.775 276.736)" fill="#1d7e96"/>
          </g>
          <g id="Grupo_128446" data-name="Grupo 128446" transform="translate(20.853)">
            <path id="Trazado_187501" data-name="Trazado 187501" d="M-268.083-280.279a5.891,5.891,0,0,0,2.674,3.11c1,.553,2.712,1.145,3.771.512a.218.218,0,0,0-.052-.394c-1.1-.279-2.146-.067-3.239-.613a5.217,5.217,0,0,1-2.549-2.781c-.146-.371-.75-.212-.6.166Z" transform="translate(268.105 280.656)" fill="#1d7e96"/>
          </g>
          <g id="Grupo_128447" data-name="Grupo 128447" transform="translate(23.737 5.821)">
            <path id="Trazado_187502" data-name="Trazado 187502" d="M-263.2-270.621l1.832.39a3.062,3.062,0,0,0,1.493.148c.137-.04.225-.251.093-.352a2.934,2.934,0,0,0-1.414-.422l-1.853-.314c-.357-.061-.516.473-.152.551Z" transform="translate(263.409 271.177)" fill="#1d7e96"/>
          </g>
        </g>
      </g>
      <g id="Grupo_128478" data-name="Grupo 128478" transform="translate(-572.144 -412.621)">
        <path id="Trazado_187503" data-name="Trazado 187503" d="M-398.413-354.3c-.505,1.7-1.149,3.6,1.967,5.5,1.323.809,2.751,1.53,3.391,3,.939,2.154-1.151,4.277-2.477,6.156a11,11,0,0,0-1.3,9.6,15.021,15.021,0,0,1,.829,2.557,6.89,6.89,0,0,1-.214,2.7,12.255,12.255,0,0,1-7.577,8.672,10.5,10.5,0,0,1-10.577-2.548,11.864,11.864,0,0,1-9.366-5.423c-2.176-3.271,1.426-13.829-1.977-11.625-4.836,3.134.741-4.722.72-7.922-.021-3.233-3.6-5.179-3.423-8.419.086-1.54,1.655-3.334,1.648-4.877-.01-2.3-1.519-4.83-1.556-7.108a13.4,13.4,0,0,1,5.843-11.237c4.574-2.939,13.574-5.183,17.379,1.56,0,0,2.025-.549,4.8,2.085C-397.35-368.825-395.616-363.69-398.413-354.3Z" transform="translate(460.637 378.131)" fill="#b26001"/>
        <g id="Grupo_128450" data-name="Grupo 128450" transform="translate(0 92.047)">
          <path id="Trazado_187504" data-name="Trazado 187504" d="M-461.826-112.684c-.943,2.467-3.153,4.225-5.445,5.537a8.982,8.982,0,0,0-2.4,1.689,2.538,2.538,0,0,0-.547,2.723q8.592-1.993,17.273-3.578a1.138,1.138,0,0,0,.871-.456,1.137,1.137,0,0,0-.094-.924c-1.921-4.715-1.533-10.266-3.454-14.981-.1-.243-2.516.338-2.727.182a25.353,25.353,0,0,0-3.434-.242S-460.758-115.48-461.826-112.684Z" transform="translate(476.843 187.526)" fill="#e89b5b"/>
          <path id="Trazado_187505" data-name="Trazado 187505" d="M-457.114-104.35c-5.962,3.487-8.136-.792-8.747-2.082-1.481-.888-7.97,4.386-13.057,6.035-1.831.593-2.913,4.544-.8,5.012a195.643,195.643,0,0,0,24.558-.468C-454.116-96.483-455.5-105.291-457.114-104.35Z" transform="translate(480.879 181.274)" fill="#1d7e96"/>
          <path id="Trazado_187506" data-name="Trazado 187506" d="M-438.886-110.611c-.943,2.467-3.153,4.225-5.445,5.537a8.982,8.982,0,0,0-2.4,1.689,2.538,2.538,0,0,0-.547,2.723q8.592-1.993,17.273-3.578a1.138,1.138,0,0,0,.871-.456,1.137,1.137,0,0,0-.094-.924c-1.921-4.715-1.533-10.266-3.454-14.981-.1-.243-2.516.338-2.727.182a25.347,25.347,0,0,0-3.434-.242S-437.819-113.407-438.886-110.611Z" transform="translate(467.991 186.726)" fill="#e89b5b"/>
          <path id="Trazado_187507" data-name="Trazado 187507" d="M-434.175-102.277c-5.962,3.487-8.136-.792-8.747-2.082-1.481-.888-7.97,4.386-13.058,6.035-1.831.593-2.913,4.544-.8,5.012a195.51,195.51,0,0,0,24.558-.467C-431.177-94.41-432.566-103.218-434.175-102.277Z" transform="translate(472.027 180.474)" fill="#1d7e96"/>
          <path id="Trazado_187508" data-name="Trazado 187508" d="M-466.12-203.956c-.62,10.382,3.3,32.72,5.2,45.55,2.355.291,6.788.814,9.114.348-1.051-8.405-.7-18.778-.685-26.87.006-3.518-1.049-10.224.685-13.285,1.428-2.521,4.766-3.944,10.157-6.2s11.079-3.121,16.722-4.638c11.644-3.13,10.879-14.265,8.464-17.469-6.626,1.256-21.239,1.961-27.938,2.187C-458.915-213.9-465.876-208.038-466.12-203.956Z" transform="translate(475.209 227.577)" fill="#09212d"/>
          <path id="Trazado_187509" data-name="Trazado 187509" d="M-441.227-202.524c-.523,2.182,3.133,31.619,4.136,43.954,1.856.628,6.215.154,8.149-.154.723-12.33,2.41-17.725,2.41-26.121,0-5.765-1.851-13.04.561-14.1,7.82-3.431,25.726-6.307,31.638-12.27,3.442-3.472,4.418-7.636,2.247-13.634-.656-1.813-4.957-2.35-6.745-3.073-1.522-.616-3.244-.229-4.838.165-5.278,1.3-8.438.208-13.158,2.908C-424.447-220.487-438.534-213.755-441.227-202.524Z" transform="translate(465.597 228.242)" fill="#0c2d41"/>
        </g>
        <path id="Trazado_187510" data-name="Trazado 187510" d="M-446.092-283.652c-3.565,1.455-13.959,3.977-17.791,3.6-3.982-.395-5.555-.337-7.278.7-.813.491-1.7,4.972-.552,4.542.444-.166,1.648-2.671,1.81-2.266.2,3.374,1.674,5.357,1.372.82-.061-.92,1.9-.641,2.681-.628.661.01-.98,2.5-.318,2.5,2.1,0,1.917-1.745,2.864-1.8,4.339-.265,7.586.052,10.12.012,5.914-.095,11.529-.785,12.285-2.283,3.478-6.885-.555-16.766-.839-24.474-.233-6.328-6.672-7.757-6.245-.338C-447.392-292.99-445.916-290.664-446.092-283.652Z" transform="translate(477.553 351.172)" fill="#e89b5b"/>
        <path id="Trazado_187511" data-name="Trazado 187511" d="M-390.568-310.508a30.684,30.684,0,0,1-2.153,9.943c-1.8,5.064-3.99,8.843-4.195,13.5-.755,17.227,6.143,19.009,8.09,27.249-14.264,5.038-28.007,3.46-42.7-.15a61.9,61.9,0,0,1,3.3-10.13c.611-1.536,3.705-5.035,3.745-6.687.125-5.2,0-8.8-.9-12.1-1.14-4.161-9.388-4.689-3.446-14.47.486-.8.463-1.333.637-3.322,0,0-2.247-.278-4.576-.679,0,0-.706-6.049,2.641-7.847a27.63,27.63,0,0,1,9.871-3.112c6.068-.769,6-.667,12.1-.084a88.174,88.174,0,0,1,10.921,1.622C-392.158-315.339-390.439-313.152-390.568-310.508Z" transform="translate(462.336 355.258)" fill="#a9f73f"/>
        <g id="Grupo_128451" data-name="Grupo 128451" transform="translate(21.138 38.44)">
          <path id="Trazado_187512" data-name="Trazado 187512" d="M-406.337-302.7c-1.208,4.232-4.881,18.487-5.728,18.5-11.251.158-17.251,2.977-24.268,2.731-1.9-.066-5.637-1.037-7.491-.6s-2.838,3.8-2.6,5.693c1,1.648,1.749-2.813,2.2-3.1.263-.166-.254,3.178,0,3.5,1,1.248,1-1.313,1.362-3.7.082-.534.953,4.675,1.334,4.173s.226-3.237.6-3.274c1.722-.173.8,1.888,5.545,1.589,9.571-.6,18.63,4.285,27.115,1.719,2.7-.816,4.431-4.6,4.794-5.406,1.277-2.841,6.385-14.87,7.581-17.747s1.546-8.507-.59-10.774C-401.113-314.31-404.808-308.061-406.337-302.7Z" transform="translate(446.458 313.853)" fill="#ffaf66"/>
          <path id="Trazado_187513" data-name="Trazado 187513" d="M-371.442-299.91c1.671-3.323,2.818-7.77,1.487-10.11s-2.23-4.492-7.906-5.469c-4.951-.852-4.686,10.208-4.773,12.4C-374.907-306.174-372.888-300.421-371.442-299.91Z" transform="translate(421.828 315.536)" fill="#a9f73f"/>
        </g>
        <g id="Grupo_128461" data-name="Grupo 128461" transform="translate(33.597 41.769)">
          <g id="Grupo_128452" data-name="Grupo 128452" transform="translate(1.025)">
            <path id="Trazado_187514" data-name="Trazado 187514" d="M-424.11-304.065c.488-1.728.861-4.215.166-5.917a.188.188,0,0,0-.368.05c-.075.888.128,1.809.12,2.706a21.243,21.243,0,0,1-.306,3.054c-.039.249.316.363.388.107Z" transform="translate(424.501 310.114)" fill="#75b51d"/>
          </g>
          <g id="Grupo_128453" data-name="Grupo 128453" transform="translate(0 2.215)">
            <path id="Trazado_187515" data-name="Trazado 187515" d="M-425.314-303.746a8.54,8.54,0,0,0-.516-2.681.17.17,0,0,0-.308.041,8.5,8.5,0,0,0,.327,2.707c.052.276.534.217.5-.067Z" transform="translate(426.17 306.507)" fill="#75b51d"/>
          </g>
          <g id="Grupo_128454" data-name="Grupo 128454" transform="translate(26.216 0.185)">
            <path id="Trazado_187516" data-name="Trazado 187516" d="M-383.219-302.447c.669-.716.478-1.7.528-2.626.087-1.572.6-3.024.79-4.566.021-.181-.251-.234-.332-.09a8.513,8.513,0,0,0-.835,3.072c-.162,1.209.185,2.935-.394,4.022-.08.15.119.32.243.187Z" transform="translate(383.48 309.812)" fill="#75b51d"/>
          </g>
          <g id="Grupo_128455" data-name="Grupo 128455" transform="translate(24.858 2.936)">
            <path id="Trazado_187517" data-name="Trazado 187517" d="M-385.687-305.084a16.25,16.25,0,0,0,.139,2.533,4.531,4.531,0,0,0,.527,1.984.25.25,0,0,0,.462-.125,8.784,8.784,0,0,0-.371-1.942,15.745,15.745,0,0,1-.243-2.449.257.257,0,0,0-.515,0Z" transform="translate(385.691 305.333)" fill="#75b51d"/>
          </g>
          <g id="Grupo_128456" data-name="Grupo 128456" transform="translate(4.271 0.151)">
            <path id="Trazado_187518" data-name="Trazado 187518" d="M-419.216-309.661a6.92,6.92,0,0,0,5.43,6.751c3.444.863,8.96-.024,10.731-3.46a.231.231,0,0,0-.36-.278c-4.324,4.314-14.76,5.115-15.371-3.013-.02-.273-.438-.28-.43,0Z" transform="translate(419.216 309.869)" fill="#75b51d"/>
          </g>
          <g id="Grupo_128457" data-name="Grupo 128457" transform="translate(7.938 14.851)">
            <path id="Trazado_187519" data-name="Trazado 187519" d="M-413.16-285.71c-1.084,5.958,8.564,9.371,12.172,4.963.173-.211-.047-.572-.312-.4-1.767,1.12-3.387,1.922-5.572,1.581-2.738-.427-6.241-2.707-5.7-5.977.063-.381-.516-.55-.587-.162Z" transform="translate(413.245 285.931)" fill="#75b51d"/>
          </g>
          <g id="Grupo_128458" data-name="Grupo 128458" transform="translate(3.126 20.99)">
            <path id="Trazado_187520" data-name="Trazado 187520" d="M-420.944-274.99c1.215.742,3.57.864,4.361-.589a.241.241,0,0,0-.327-.327,6.276,6.276,0,0,1-1.672.8,2.987,2.987,0,0,1-2.074-.373.286.286,0,0,0-.289.493Z" transform="translate(421.08 275.933)" fill="#75b51d"/>
          </g>
          <g id="Grupo_128459" data-name="Grupo 128459" transform="translate(4.744 47.615)">
            <path id="Trazado_187521" data-name="Trazado 187521" d="M-418.314-232.2c6.562,2.432,14.493,3.249,21.172.738a.272.272,0,0,0-.144-.524c-7.25,1.455-13.8,1.844-20.925-.584-.236-.08-.331.286-.1.37Z" transform="translate(418.445 232.578)" fill="#75b51d"/>
          </g>
          <g id="Grupo_128460" data-name="Grupo 128460" transform="translate(9.383 45.945)">
            <path id="Trazado_187522" data-name="Trazado 187522" d="M-410.768-234.945c2.5.9,5.617,1.769,8.291,1.244.2-.038.207-.378,0-.406-2.792-.376-5.454-.327-8.2-1.18-.221-.069-.308.267-.095.343Z" transform="translate(410.89 235.297)" fill="#75b51d"/>
          </g>
        </g>
        <g id="Grupo_128477" data-name="Grupo 128477" transform="translate(34.067 1.998)">
          <path id="Trazado_187523" data-name="Trazado 187523" d="M-407.473-318.052a8.516,8.516,0,0,1-6.943-.5c-2.023-1.28-3.059-4.224-1.709-6.2.6-.884,1.586-1.482,2.082-2.43a5.409,5.409,0,0,0,.464-2.3c.16-3.653-2.012-9.932.868-11.587,2.829-1.625,8.715-.668,9.271,2.111.5,2.486-.6,9.321,1.5,11.688C-398.76-323.681-401.638-319.808-407.473-318.052Z" transform="translate(422.059 362.138)" fill="#e89b5b"/>
          <path id="Trazado_187524" data-name="Trazado 187524" d="M-413.36-342.74c4.195.086,8.517-4.568,9.649-7.881a33.871,33.871,0,0,0,1.25-4.347,15.13,15.13,0,0,0-2.122-11.621c-4.966-7-17.384-5.445-18.245,3.868C-423.377-356.773-420.835-342.893-413.36-342.74Z" transform="translate(424.438 373.359)" fill="#ffaf66"/>
          <path id="Trazado_187525" data-name="Trazado 187525" d="M-422.627-358.412c2.625-.077,4.95-1.683,6.912-3.428s3.79-3.729,6.159-4.862a1.925,1.925,0,0,1,1.042-.254,1.666,1.666,0,0,1,.975.588,16.6,16.6,0,0,1,3.337,6.282c.43,1.306-.079,3.144,1.021,3.97a1,1,0,0,0,.615.259,1.016,1.016,0,0,0,.653-.406c1.788-1.972,2.513-4.663,3.085-7.262a11.344,11.344,0,0,0,.3-5.008,4.153,4.153,0,0,0-3.362-3.333c-1.19-.1-2.488.475-3.53-.11a5.894,5.894,0,0,1-1.31-1.341c-2.82-3.106-11.123-1.07-14.251,1.722C-424.5-368.453-423.268-358.393-422.627-358.412Z" transform="translate(424.619 374.878)" fill="#b26001"/>
          <path id="Trazado_187526" data-name="Trazado 187526" d="M-388.5-345.811c-.01-1.3-.224-2.876-1.62-3.4a2.919,2.919,0,0,0-3.32,1.337c-.59,1.037-.255,5.276.735,5.615C-389.467-341.149-388.493-345.3-388.5-345.811Z" transform="translate(413.18 365.025)" fill="#ffaf66"/>
          <circle id="Elipse_5321" data-name="Elipse 5321" cx="0.884" cy="0.884" r="0.884" transform="translate(12.247 16.499)" fill="#0c2d41"/>
          <path id="Trazado_187527" data-name="Trazado 187527" d="M-416.406-347.188a.884.884,0,0,1-.884.884.884.884,0,0,1-.884-.884.884.884,0,0,1,.884-.884A.884.884,0,0,1-416.406-347.188Z" transform="translate(422.614 364.534)" fill="#0c2d41"/>
          <g id="Grupo_128462" data-name="Grupo 128462" transform="translate(7.028 17.004)">
            <path id="Trazado_187528" data-name="Trazado 187528" d="M-412.832-347.018a3.562,3.562,0,0,0-.3,1.923,2.257,2.257,0,0,1-.5,1.561,1.48,1.48,0,0,0-.311.5c-.169.771.983,1.806,1.491,2.254s1.147-.386.567-.735a.873.873,0,0,0-.381-.1c-.258-.03-.387.256-.352.462a.733.733,0,0,0,.093.279l.735-.567a6.991,6.991,0,0,1-.567-.6c-.215-.248-.61-.572-.535-.938.022-.107.263-.294.33-.4.6-.963.2-2.31.348-3.378.049-.351-.412-.622-.616-.26Z" transform="translate(413.96 347.189)" fill="#e89b5b"/>
          </g>
          <g id="Grupo_128463" data-name="Grupo 128463" transform="translate(11.309 12.512)">
            <path id="Trazado_187529" data-name="Trazado 187529" d="M-406.637-353.733a14.547,14.547,0,0,1,2.856,0v-.63h-.032a.312.312,0,0,0-.083.61l.031.007a.315.315,0,0,0,.167-.607,6.681,6.681,0,0,0-3.088.081c-.356.085-.2.607.149.542Z" transform="translate(406.988 354.503)" fill="#e6335a"/>
          </g>
          <g id="Grupo_128464" data-name="Grupo 128464" transform="translate(6.959 23.986)">
            <path id="Trazado_187530" data-name="Trazado 187530" d="M-413.867-334.454a3.879,3.879,0,0,0,2.755.574c.827-.138,1.965-.535,2.213-1.425a.412.412,0,0,0-.5-.5c-.642.158-1.1.672-1.769.833a3.488,3.488,0,0,1-2.273-.208.422.422,0,0,0-.426.727Z" transform="translate(414.073 335.819)" fill="#e89b5b"/>
          </g>
          <g id="Grupo_128465" data-name="Grupo 128465" transform="translate(21.011 21.207)">
            <path id="Trazado_187531" data-name="Trazado 187531" d="M-390.585-339.095a.626.626,0,0,0,0-1.25.626.626,0,0,0,0,1.25Z" transform="translate(391.189 340.345)" fill="#fff"/>
          </g>
          <g id="Grupo_128466" data-name="Grupo 128466" transform="translate(20.923 16.672)">
            <path id="Trazado_187532" data-name="Trazado 187532" d="M-390.829-346.84c.806-.944,1.6.528,1.759,1.2a1.966,1.966,0,0,1-.405,1.993c-.209.19.069.564.306.4,1.03-.728.83-2.325.4-3.352s-1.754-1.632-2.517-.593c-.194.264.242.6.456.352Z" transform="translate(391.333 347.729)" fill="#e89b5b"/>
          </g>
          <g id="Grupo_128467" data-name="Grupo 128467" transform="translate(0 6.316)">
            <path id="Trazado_187533" data-name="Trazado 187533" d="M-425.111-356.663a11.389,11.389,0,0,0,5.838-2.843c.944-.89,1.634-1.993,2.658-2.8,1.476-1.159,3.155-1.341,4.926-1.707.321-.066.255-.617-.079-.58a9.507,9.507,0,0,0-5.539,2.074c-1.065.973-1.825,2.187-2.949,3.114a11.041,11.041,0,0,1-4.979,2.289c-.3.06-.169.507.124.451Z" transform="translate(425.404 364.593)" fill="#d87808"/>
          </g>
          <g id="Grupo_128468" data-name="Grupo 128468" transform="translate(0.508 2.885)">
            <path id="Trazado_187534" data-name="Trazado 187534" d="M-424.376-364.574a25.405,25.405,0,0,0,4.829-3.114c2.847-2,5.712-2.067,9.047-1.618a.335.335,0,1,0,.09-.662,13.515,13.515,0,0,0-7.275.614c-2.51,1.121-4.3,3.357-6.813,4.489-.163.073-.045.36.123.291Z" transform="translate(424.577 370.181)" fill="#d87808"/>
          </g>
          <g id="Grupo_128469" data-name="Grupo 128469" transform="translate(6.758 0.334)">
            <path id="Trazado_187535" data-name="Trazado 187535" d="M-414.23-373.133c3.128-.618,6.06-1,9.131.055.3.1.517-.389.22-.522-3.019-1.358-6.355-.56-9.423.205-.171.043-.1.3.072.262Z" transform="translate(414.4 374.335)" fill="#d87808"/>
          </g>
          <g id="Grupo_128470" data-name="Grupo 128470" transform="translate(18.317 7.526)">
            <path id="Trazado_187536" data-name="Trazado 187536" d="M-395.448-362.24a5.4,5.4,0,0,1,2.428,2.011,15.044,15.044,0,0,1,.949,2.375.185.185,0,0,0,.334-.044,4.11,4.11,0,0,0-1.007-2.83,5.672,5.672,0,0,0-2.6-1.882c-.236-.087-.324.278-.1.37Z" transform="translate(395.577 362.624)" fill="#d87808"/>
          </g>
          <g id="Grupo_128471" data-name="Grupo 128471" transform="translate(20.04 5.595)">
            <path id="Trazado_187537" data-name="Trazado 187537" d="M-392.664-365.351a8.01,8.01,0,0,1,3.29,2.7,24.872,24.872,0,0,1,1.512,3.362c.084.166.3.064.314-.085.333-2.764-2.679-5.426-4.946-6.38-.228-.1-.4.3-.169.4Z" transform="translate(392.771 365.768)" fill="#d87808"/>
          </g>
          <g id="Grupo_128472" data-name="Grupo 128472" transform="translate(21.246 4.106)">
            <path id="Trazado_187538" data-name="Trazado 187538" d="M-390.671-367.814a7.414,7.414,0,0,1,4.81,3.241c.994,1.428,1.385,3.137,2.3,4.585a.2.2,0,0,0,.36-.152c-.575-3.651-3.611-7.6-7.415-8.051-.213-.026-.265.341-.051.377Z" transform="translate(390.808 368.192)" fill="#d87808"/>
          </g>
          <g id="Grupo_128473" data-name="Grupo 128473" transform="translate(24.336 23.349)">
            <path id="Trazado_187539" data-name="Trazado 187539" d="M-385.492-336.687c-.3,1.372-.592,2.945.408,4.111a8.529,8.529,0,0,0,1.834,1.235c1.493,1.037,1.816,2.4,1.991,4.081a.113.113,0,0,0,.22.03,4.223,4.223,0,0,0-.771-3.544,5.69,5.69,0,0,0-1.592-1.357c-1.015-.7-1.677-1.053-1.826-2.438a7.281,7.281,0,0,1,.188-1.995c.051-.292-.387-.423-.452-.125Z" transform="translate(385.776 336.856)" fill="#d87808"/>
          </g>
          <g id="Grupo_128474" data-name="Grupo 128474" transform="translate(21.271 26.287)">
            <path id="Trazado_187540" data-name="Trazado 187540" d="M-390.377-331.922a3.1,3.1,0,0,0-.035,2.943,6.492,6.492,0,0,0,2.518,2.861.152.152,0,0,0,.22-.169c-.179-.745-.846-1.247-1.326-1.82-.817-.973-1.495-2.255-.851-3.507.178-.347-.33-.65-.526-.308Z" transform="translate(390.766 332.072)" fill="#d87808"/>
          </g>
          <g id="Grupo_128475" data-name="Grupo 128475" transform="translate(0.83 23.783)">
            <path id="Trazado_187541" data-name="Trazado 187541" d="M-423.864-336a4.077,4.077,0,0,0,.469,3.408c1.042,1.885,3.646,4.363,1.333,6.412-.208.184.072.558.3.39a2.9,2.9,0,0,0,1.086-3.083c-.547-2.6-3.51-4.046-2.79-7.018a.206.206,0,0,0-.4-.109Z" transform="translate(424.053 336.15)" fill="#d87808"/>
          </g>
          <g id="Grupo_128476" data-name="Grupo 128476" transform="translate(5.424 31.591)">
            <path id="Trazado_187542" data-name="Trazado 187542" d="M-416.063-321.313a3.619,3.619,0,0,0,.427-1.177c.05-.306.128-.738-.184-.919a.175.175,0,0,0-.18,0c-.237.182-.2.433-.225.714a3.124,3.124,0,0,1-.314,1.1c-.156.316.3.592.477.279Z" transform="translate(416.572 323.435)" fill="#d87808"/>
          </g>
        </g>
      </g>
      <g id="Grupo_128479" data-name="Grupo 128479" transform="translate(-684.813 -334.307)">
        <rect id="Rectángulo_37548" data-name="Rectángulo 37548" width="239.517" height="6.85" transform="translate(0 0)" fill="#24283f"/>
        <rect id="Rectángulo_37549" data-name="Rectángulo 37549" width="24.443" height="6.85" transform="translate(215.074 0)" fill="#373e5b"/>
        <rect id="Rectángulo_37550" data-name="Rectángulo 37550" width="5.194" height="95.026" transform="translate(3.003 6.85)" fill="#56aece"/>
        <rect id="Rectángulo_37551" data-name="Rectángulo 37551" width="5.194" height="88.034" transform="translate(14.989 6.85)" fill="#4198af"/>
        <rect id="Rectángulo_37552" data-name="Rectángulo 37552" width="5.194" height="95.026" transform="translate(218.74 6.85)" fill="#56aece"/>
        <rect id="Rectángulo_37553" data-name="Rectángulo 37553" width="5.194" height="88.034" transform="translate(230.725 6.85)" fill="#4198af"/>
      </g>
      <g id="Grupo_128481" data-name="Grupo 128481" transform="translate(-623.88 -387.544)">
        <rect id="Rectángulo_37554" data-name="Rectángulo 37554" width="75.106" height="43.003" rx="3.938" fill="#35a3be"/>
        <path id="Trazado_187543" data-name="Trazado 187543" d="M-484.117-337.3h-57.026a2.418,2.418,0,0,0-2.418,2.418v20.018a12.428,12.428,0,0,0,12.429,12.429h47.015a2.418,2.418,0,0,0,2.418-2.418v-30.029A2.418,2.418,0,0,0-484.117-337.3Z" transform="translate(556.805 337.297)" fill="#74ddf7"/>
        <g id="Grupo_128480" data-name="Grupo 128480" transform="translate(23.371 27.668)">
          <path id="Trazado_187544" data-name="Trazado 187544" d="M-506.359-292.242a3.8,3.8,0,0,0-3.8,3.8v21.773h7.591v-21.773A3.8,3.8,0,0,0-506.359-292.242Z" transform="translate(520.542 292.242)" fill="#1d7e96"/>
          <rect id="Rectángulo_37555" data-name="Rectángulo 37555" width="43.547" height="2.397" transform="translate(12.984 23.172)" fill="#1d7e96"/>
          <rect id="Rectángulo_37556" data-name="Rectángulo 37556" width="28.365" height="2.397" transform="translate(0 23.172)" fill="#1d7e96"/>
        </g>
      </g>
    </g>
  </g>
</svg>
