<svg xmlns="http://www.w3.org/2000/svg" xmlns:xlink="http://www.w3.org/1999/xlink" width="400" height="350" viewBox="0 0 400 350">
  <defs>
    <linearGradient id="linear-gradient" x1="0.5" x2="0.5" y2="1" gradientUnits="objectBoundingBox">
      <stop offset="0" stop-color="#45c6e5"/>
      <stop offset="1" stop-color="#2df0da"/>
    </linearGradient>
  </defs>
  <g id="Grupo_128811" data-name="Grupo 128811" transform="translate(-600 -3053)">
    <g id="Grupo_128810" data-name="Grupo 128810" transform="translate(0 -32)">
      <path id="Rectángulo_37281" data-name="Rectángulo 37281" d="M80,0H400a0,0,0,0,1,0,0V350a0,0,0,0,1,0,0H0a0,0,0,0,1,0,0V80A80,80,0,0,1,80,0Z" transform="translate(600 3085)" fill="#edffd5"/>
      <g id="Grupo_122157" data-name="Grupo 122157" transform="translate(621.244 3075.667)">
        <g id="Grupo_122117" data-name="Grupo 122117" transform="translate(50.756 25.044)">
          <g id="Grupo_122104" data-name="Grupo 122104" transform="translate(6.992 4.18)">
            <path id="Trazado_183790" data-name="Trazado 183790" d="M116.255,136.291c-6.754,3.076-14.608,2.241-21.863.678-9.732-2.1-19.7-5.722-26.1-13.344a17.1,17.1,0,0,1-3.833-7.225,9.721,9.721,0,0,1,1.478-7.869c-2.728-3.921-5.188-8.565-4.309-13.26.814-4.348,4.263-7.62,6.931-11.148,8.206-10.852,9.535-25.4,15.952-37.4a16.664,16.664,0,0,1,4.817-6.028c2.128-1.487,6.385-3.2,8.689-2,4.811-4.2,8.961-6.623,15.323-7.177s13.132,1.759,17.1,6.765c2.949,3.724,4.136,8.5,5.247,13.122l2.849,11.848c1.058,4.4,2.162,9.462,6.016,11.83C162.967,86.4,157.05,97,155.109,99.8c3.842,2.2,4.418,7.877,2.288,11.758s-3.122,6.306-7.085,8.278c1.179,2.126.553,5.007-.847,6.994a15.248,15.248,0,0,1-5.689,4.445C135.438,135.578,125.538,137.654,116.255,136.291Z" transform="translate(-61.446 -31.434)" fill="#12263f"/>
            <g id="Grupo_122103" data-name="Grupo 122103" transform="translate(8.848 19.25)">
              <path id="Trazado_183791" data-name="Trazado 183791" d="M174.939,61.96c2.787,8.242.236,19.394,4.214,27.13,2.492,4.845,6.386,8.839,9.049,13.592s3.921,10.96.9,15.5a9.418,9.418,0,0,0-1.4,2.358,9.786,9.786,0,0,0,.094,3.639A9.306,9.306,0,0,1,184.1,132.3" transform="translate(-109.551 -61.243)" fill="#12263f" stroke="#fff" stroke-miterlimit="10" stroke-width="0.463"/>
              <path id="Trazado_183792" data-name="Trazado 183792" d="M171.71,98.667a30.908,30.908,0,0,0,1.445,7.807c1.251,3.376,3.638,6.213,5.125,9.492a19.763,19.763,0,0,1-2.125,19.581" transform="translate(-108.434 -73.94)" fill="#12263f" stroke="#fff" stroke-miterlimit="10" stroke-width="0.463"/>
              <path id="Trazado_183793" data-name="Trazado 183793" d="M87.278,60.864c-3.184,8.214-.593,26.849-5.567,34.12-2.4,3.507-5.936,6.539-6.621,10.733-.5,3.093.688,6.222,2.263,8.932a12.17,12.17,0,0,0,2.376,15.172" transform="translate(-74.973 -60.864)" fill="#12263f" stroke="#fff" stroke-miterlimit="10" stroke-width="0.463"/>
              <path id="Trazado_183794" data-name="Trazado 183794" d="M95.652,82.813c-2.182,7.274,1.254,17.262-.084,19.694s-3.006,4.7-3.991,7.3A15.6,15.6,0,0,0,94.8,125.736" transform="translate(-80.389 -68.456)" fill="#12263f" stroke="#fff" stroke-miterlimit="10" stroke-width="0.463"/>
            </g>
          </g>
          <g id="Grupo_122105" data-name="Grupo 122105" transform="translate(44.521 52.042)">
            <path id="Trazado_183795" data-name="Trazado 183795" d="M139.194,121.168c-1.368-4.494-1.692-9.452-4.708-13a11.107,11.107,0,0,0-13.1-2.418c-2.323,1.178-2.452,2.125-2.27,4.619q.049.673.094,1.34A34.039,34.039,0,0,0,139.194,121.168Z" transform="translate(-118.904 -104.607)" fill="#f38390"/>
            <path id="Trazado_183796" data-name="Trazado 183796" d="M140.11,127.608a20.865,20.865,0,0,1-1-2.682,34.039,34.039,0,0,1-19.982-9.455,47.925,47.925,0,0,1-.036,8.782,18.359,18.359,0,0,0-.23,3.953,10.308,10.308,0,0,0,1.165,3.621,14.618,14.618,0,0,0,9.073,7.511,12.028,12.028,0,0,0,11.264-2.8,5.59,5.59,0,0,0,1.552-2.357C142.57,131.946,141.088,129.724,140.11,127.608Z" transform="translate(-118.821 -108.365)" fill="#ffa69e"/>
          </g>
          <path id="Trazado_183797" data-name="Trazado 183797" d="M106.87,59.532c-1.71,6.111-.79,12.737,1.54,18.64a30.067,30.067,0,0,0,4.6,8.079,28.71,28.71,0,0,0,9.252,7.223c5.491,2.794,12.3,4.075,17.723,1.143a16.1,16.1,0,0,0,6.006-6.005A25.316,25.316,0,0,0,149.2,74.2,43.012,43.012,0,0,0,145.45,59.76c-1.886-4.361-4.337-8.631-8.077-11.561-8.3-6.5-20.235-4.045-26.65,3.868A20.805,20.805,0,0,0,106.87,59.532Z" transform="translate(-69.861 -31.764)" fill="#ffa69e"/>
          <path id="Trazado_183798" data-name="Trazado 183798" d="M111.119,50.087a41.381,41.381,0,0,1,35.26,4.177c-1.284-4.307-3.823-8.392-7.671-10.714-4.534-2.736-10.224-2.695-15.436-1.763a32.705,32.705,0,0,0-13.289,5.16,18.963,18.963,0,0,0-7.877,11.6,14.209,14.209,0,0,0,.988,8.4c1.024,2.264,3.1,5.257,5.057,2.4C111.519,64.428,111.755,55.747,111.119,50.087Z" transform="translate(-68.434 -30.637)" fill="#12263f"/>
          <path id="Trazado_183799" data-name="Trazado 183799" d="M100.732,79.516a3.543,3.543,0,0,0-2.665,2.149,6.7,6.7,0,0,0-.383,3.516,12.485,12.485,0,0,0,5.084,8.57,4.879,4.879,0,0,0,3.375,1.112,4.51,4.51,0,0,0,3.28-3.19,8.447,8.447,0,0,0-.241-6.189C108.076,83,103.7,79.155,100.732,79.516Z" transform="translate(-66.964 -43.878)" fill="#ffa69e"/>
          <path id="Trazado_183800" data-name="Trazado 183800" d="M142.723,67.666a16.3,16.3,0,0,0,1.32,5.267,6.572,6.572,0,0,0,3.921,3.559.943.943,0,0,1,.629.356.8.8,0,0,1,.062.418,9.9,9.9,0,0,1-2.25,4.861" transform="translate(-82.568 -39.787)" fill="rgba(0,0,0,0)" stroke="#462255" stroke-miterlimit="10" stroke-width="0.926"/>
          <path id="Trazado_183801" data-name="Trazado 183801" d="M150.674,70.613a10.655,10.655,0,0,0,1.649,3.161,5.3,5.3,0,0,0,1.8,1.607,2.665,2.665,0,0,0,2.345.08c1.145-.58,1.506-2.032,1.582-3.312a15.613,15.613,0,0,0-.114-3.022" transform="translate(-85.318 -40.293)" fill="rgba(0,0,0,0)" stroke="#462255" stroke-miterlimit="10" stroke-width="0.926"/>
          <path id="Trazado_183802" data-name="Trazado 183802" d="M123.6,74.768a10.652,10.652,0,0,0,1.649,3.161,5.281,5.281,0,0,0,1.8,1.607,2.663,2.663,0,0,0,2.345.081c1.145-.58,1.505-2.032,1.582-3.312a15.665,15.665,0,0,0-.114-3.022" transform="translate(-75.953 -41.73)" fill="rgba(0,0,0,0)" stroke="#462255" stroke-miterlimit="10" stroke-width="0.926"/>
          <g id="Grupo_122106" data-name="Grupo 122106" transform="translate(55.755 41.849)">
            <path id="Trazado_183803" data-name="Trazado 183803" d="M143.94,99.217a14.449,14.449,0,0,0-3.581-.332c1.792,1.684,4.209,3.286,6.608,2.787a4.275,4.275,0,0,0,.951-.322A8.283,8.283,0,0,0,143.94,99.217Z" transform="translate(-137.505 -92.434)" fill="#aa4465"/>
            <path id="Trazado_183804" data-name="Trazado 183804" d="M150.94,89.024s-1.928,4.725-5.608,5.664S136,92.181,136,92.181a22.119,22.119,0,0,0,2.854,3.294,14.448,14.448,0,0,1,3.581.332,8.283,8.283,0,0,1,3.979,2.133C150.257,96.137,150.94,89.024,150.94,89.024Z" transform="translate(-135.996 -89.024)" fill="#462255"/>
          </g>
          <g id="Grupo_122107" data-name="Grupo 122107" transform="translate(48.891 36.575)" opacity="0.3" style="mix-blend-mode: multiply;isolation: isolate">
            <path id="Trazado_183805" data-name="Trazado 183805" d="M163.35,82.991c.077,1.245-1.589,2.361-3.72,2.491s-3.921-.772-4-2.017,1.589-2.361,3.72-2.491S163.273,81.745,163.35,82.991Z" transform="translate(-135.923 -80.961)" fill="#ffa69e"/>
            <path id="Trazado_183806" data-name="Trazado 183806" d="M133.029,88.467c.164,1.213-1.387,2.422-3.461,2.7s-3.89-.476-4.053-1.689,1.386-2.422,3.461-2.7S132.865,87.255,133.029,88.467Z" transform="translate(-125.502 -82.953)" fill="#ffa69e"/>
          </g>
          <path id="Trazado_183807" data-name="Trazado 183807" d="M147.04,61.156a9.316,9.316,0,0,1,10.424,4.405" transform="translate(-84.061 -37.434)" fill="rgba(0,0,0,0)" stroke="#462255" stroke-miterlimit="10" stroke-width="0.926"/>
          <path id="Trazado_183808" data-name="Trazado 183808" d="M120.335,70.6a9.238,9.238,0,0,1,8.631-7.854" transform="translate(-74.823 -38.086)" fill="rgba(0,0,0,0)" stroke="#462255" stroke-miterlimit="10" stroke-width="0.926"/>
          <path id="Trazado_183809" data-name="Trazado 183809" d="M101.039,85.6a2.511,2.511,0,0,1,2.633-1.778,4.1,4.1,0,0,1,2.87,1.746,12.147,12.147,0,0,1,1.514,3.1,2.455,2.455,0,0,0-2.6,4.139,4.228,4.228,0,0,0,2.41.694" transform="translate(-68.149 -45.375)" fill="rgba(0,0,0,0)" stroke="#462255" stroke-miterlimit="10" stroke-width="0.926"/>
          <path id="Trazado_183810" data-name="Trazado 183810" d="M123.185,181.891,85.9,197.118a42.155,42.155,0,0,1-3.076-40.226c8.834-19.838,22.253-25.342,22.253-25.342s5.838,14.295,15.782,11.808,5.507-10.189,5.507-10.189,16.867,6.926,24.791,22.774,3.279,34.478,3.279,34.478Z" transform="translate(-60.551 -61.885)" fill="#8dd52c"/>
          <g id="Grupo_122108" data-name="Grupo 122108" transform="translate(6.992 13.677)" opacity="0.5" style="mix-blend-mode: multiply;isolation: isolate">
            <path id="Trazado_183811" data-name="Trazado 183811" d="M76.6,113.187c-3.18-4.114-2.58-10.056-.634-14.879s5.044-9.151,6.625-14.1c2.3-7.221,1.179-15.051,2.115-22.572a69.279,69.279,0,0,1,4.312-15.677,17.236,17.236,0,0,0-4.509,5.791c-6.417,12-7.746,26.549-15.952,37.4-2.667,3.528-6.117,6.8-6.931,11.148-.879,4.7,1.581,9.339,4.309,13.26a9.721,9.721,0,0,0-1.478,7.869,17.1,17.1,0,0,0,3.833,7.225A35.717,35.717,0,0,0,82.46,138.42,32.031,32.031,0,0,1,75.422,126.9C73.859,122.359,73.5,116.856,76.6,113.187Z" transform="translate(-61.446 -45.954)" fill="#12263f"/>
          </g>
          <g id="Grupo_122109" data-name="Grupo 122109" transform="translate(18.523 70.397)" opacity="0.4" style="mix-blend-mode: multiply;isolation: isolate">
            <path id="Trazado_183812" data-name="Trazado 183812" d="M94.249,151.98a34.905,34.905,0,0,1,9.358-19.311c-3.712,2.039-13.715,8.729-20.787,24.61A42.155,42.155,0,0,0,85.9,197.5l19.054-7.781a58.882,58.882,0,0,1-7.591-13.712A47.5,47.5,0,0,1,94.249,151.98Z" transform="translate(-79.074 -132.669)" fill="#75b51d"/>
          </g>
          <g id="Grupo_122112" data-name="Grupo 122112" transform="translate(24.929 86.759)">
            <g id="Grupo_122110" data-name="Grupo 122110" transform="translate(44.447)">
              <path id="Trazado_183813" data-name="Trazado 183813" d="M166.538,186.25a5.322,5.322,0,0,1-2.162,1.12,4.705,4.705,0,0,1-3.044-.831,19.105,19.105,0,0,1-3.346-2.461,3.767,3.767,0,0,1-.992-1.251,4.035,4.035,0,0,1,.525-3.242,42.955,42.955,0,0,1,3.528-5.922A6.2,6.2,0,0,1,164,171.068a4.623,4.623,0,0,1,2.166-.067c2.576.458,4.715,2.189,6.727,3.86a7.114,7.114,0,0,1,2.271,2.628C176.551,180.947,168.766,184.616,166.538,186.25Z" transform="translate(-156.819 -162.257)" fill="#ffa69e"/>
              <path id="Trazado_183814" data-name="Trazado 183814" d="M184.005,167.5a1.061,1.061,0,0,0,.217-.717c-.126-.647-1.1-.5-1.673-.175a35.829,35.829,0,0,0-7.121,5.3,47.327,47.327,0,0,0,6.343-8.511c.394-.675.549-1.856-.228-1.95a1.206,1.206,0,0,0-.827.346,54.931,54.931,0,0,0-7.782,7.292,29.175,29.175,0,0,1,3.679-4.82c1.28-1.571,3.566-4.677,2.457-5.434s-6.835,4.6-9.685,7.6c2.24-2.6,6.183-7.416,5.336-8.355s-1.814.043-2.251.393a38.386,38.386,0,0,0-7.76,8.41,6.73,6.73,0,0,0-1.4,3.33,5.29,5.29,0,0,0,.836,2.873c1.911,3.263,5.636,8.355,8.734,6C178.782,174.59,181.955,170.906,184.005,167.5Z" transform="translate(-159.064 -157.683)" fill="#ffa69e"/>
              <path id="Trazado_183815" data-name="Trazado 183815" d="M156.948,178.6s.531-8.8,3.265-13.226,2.3-.338,2.3,1.57-.34,5.859-.34,5.859Z" transform="translate(-156.864 -159.658)" fill="#ffa69e"/>
            </g>
            <g id="Grupo_122111" data-name="Grupo 122111" transform="translate(0 15.69)">
              <path id="Trazado_183816" data-name="Trazado 183816" d="M161.641,188.411l-7.741-6.74a92.311,92.311,0,0,1-12.09,9.686,52.925,52.925,0,0,0,14.429,5.65A82.7,82.7,0,0,0,161.641,188.411Z" transform="translate(-107.18 -181.671)" fill="#ffa69e"/>
              <path id="Trazado_183817" data-name="Trazado 183817" d="M111.552,206.781c-1.258.565-2.543,1.1-3.852,1.582-6.6,2.435-21.5,5.361-18.417,14.777s24.849,5.972,35.962-3.356c.475-.4.939-.806,1.4-1.218A39.683,39.683,0,0,1,111.552,206.781Z" transform="translate(-88.867 -190.357)" fill="#ffa69e"/>
              <path id="Trazado_183818" data-name="Trazado 183818" d="M149.922,202.129a52.925,52.925,0,0,1-14.429-5.65,80.088,80.088,0,0,1-11.945,6.739A39.683,39.683,0,0,0,138.639,215,78.42,78.42,0,0,0,149.922,202.129Z" transform="translate(-100.863 -186.793)" fill="#ffa69e"/>
            </g>
          </g>
          <g id="Grupo_122114" data-name="Grupo 122114" transform="translate(19.724 87.457)">
            <path id="Trazado_183819" data-name="Trazado 183819" d="M117.466,172.744s14.475,12.062,29.988,17.788c6.6,2.435,21.5,5.362,18.417,14.778s-24.849,5.972-35.962-3.356a85.061,85.061,0,0,1-17.234-19.824Z" transform="translate(-91.898 -163.591)" fill="#ffa69e"/>
            <g id="Grupo_122113" data-name="Grupo 122113">
              <path id="Trazado_183820" data-name="Trazado 183820" d="M107.1,181.6a5.322,5.322,0,0,0,2.435-.071,4.7,4.7,0,0,0,2.257-2.2,19.07,19.07,0,0,0,1.729-3.775,3.773,3.773,0,0,0,.26-1.576,4.04,4.04,0,0,0-2.033-2.579,43,43,0,0,0-5.961-3.463,6.2,6.2,0,0,0-3.843-.833,4.624,4.624,0,0,0-1.926.994c-2.03,1.651-3.058,4.2-4.006,6.642a7.121,7.121,0,0,0-.708,3.4C95.776,181.826,104.363,181.253,107.1,181.6Z" transform="translate(-85.88 -161.611)" fill="#ffa69e"/>
              <path id="Trazado_183821" data-name="Trazado 183821" d="M81.943,174.46a1.055,1.055,0,0,1-.538-.521c-.2-.627.717-.971,1.376-.965a35.85,35.85,0,0,1,8.8,1.177,47.326,47.326,0,0,1-9.679-4.358c-.672-.4-1.381-1.357-.748-1.815a1.205,1.205,0,0,1,.891-.1,54.925,54.925,0,0,1,10.344,2.594,29.126,29.126,0,0,0-5.557-2.426c-1.881-.752-5.388-2.356-4.787-3.556s8.208.7,12.156,1.936c-3.221-1.183-9.007-3.479-8.722-4.711s1.606-.844,2.158-.75a38.393,38.393,0,0,1,10.868,3.582,6.735,6.735,0,0,1,2.839,2.232,5.3,5.3,0,0,1,.665,2.919c-.085,3.78-.868,10.04-4.722,9.482C89.952,178.119,85.389,176.44,81.943,174.46Z" transform="translate(-80.91 -159.471)" fill="#ffa69e"/>
              <path id="Trazado_183822" data-name="Trazado 183822" d="M116.154,169.645s-4.738-7.433-9.278-9.976-2.172.821-1.246,2.49,3.144,4.957,3.144,4.957Z" transform="translate(-88.96 -158.75)" fill="#ffa69e"/>
            </g>
          </g>
          <g id="Grupo_122115" data-name="Grupo 122115" transform="translate(43.971 110.526)">
            <path id="Trazado_183823" data-name="Trazado 183823" d="M144.579,209.635c-9.7-3.534-18.529-9.157-26.6-15.617a87.57,87.57,0,0,0,14.2,15.294c10.825,9.086,31.983,12.942,35.531,3.356A58.608,58.608,0,0,1,144.579,209.635Z" transform="translate(-117.98 -194.018)" fill="#f59497"/>
          </g>
          <path id="Trazado_183824" data-name="Trazado 183824" d="M146.4,82.127a9.9,9.9,0,0,0,2.25-4.861.8.8,0,0,0-.062-.418.943.943,0,0,0-.629-.356,6.572,6.572,0,0,1-3.921-3.559,16.3,16.3,0,0,1-1.32-5.267,44.261,44.261,0,0,0,.9,9.032A10.92,10.92,0,0,0,146.4,82.127Z" transform="translate(-82.567 -39.787)" fill="#ffa69e" opacity="0.3" style="mix-blend-mode: multiply;isolation: isolate"/>
          <g id="Grupo_122116" data-name="Grupo 122116">
            <path id="Trazado_183825" data-name="Trazado 183825" d="M178.7,30.5s.848-2.757,1.964-3.594a2.677,2.677,0,0,1,3.718.334c.754,1.134.193,3.872-.422,5.086-1.693,3.346-3.694,5.314-5.971,8.294-3.255-4.067-6.687-8.662-6.366-13.86a2.181,2.181,0,0,1,.235-.984,1.883,1.883,0,0,1,1.809-.722,3.991,3.991,0,0,1,3.471,2.126A11.7,11.7,0,0,1,178.7,30.5Z" transform="translate(-92.556 -25.044)" fill="#ff8900"/>
            <path id="Trazado_183826" data-name="Trazado 183826" d="M68.425,80.086a5.369,5.369,0,0,1,1.137-2.08,1.55,1.55,0,0,1,2.153.193c.436.656.111,2.241-.245,2.945a29.394,29.394,0,0,1-3.456,4.8c-1.884-2.354-3.871-5.014-3.686-8.024a1.267,1.267,0,0,1,.136-.57,1.091,1.091,0,0,1,1.047-.418,2.311,2.311,0,0,1,2.009,1.231A6.768,6.768,0,0,1,68.425,80.086Z" transform="translate(-55.446 -42.991)" fill="#ff8900"/>
            <path id="Trazado_183827" data-name="Trazado 183827" d="M60.284,42.074l6.3,9.778q-5.166-2.413-10.443-4.577l10.454-1.581c-2.648,2.363-4.481,5.488-6.765,7.933C59.856,51.207,60.284,42.074,60.284,42.074Z" transform="translate(-52.619 -30.935)" fill="url(#linear-gradient)"/>
            <path id="Trazado_183828" data-name="Trazado 183828" d="M221.6,117.011l-6.3,9.778q5.167-2.412,10.443-4.577l-10.453-1.581c2.648,2.363,4.48,5.489,6.765,7.934C222.024,126.145,221.6,117.011,221.6,117.011Z" transform="translate(-107.667 -56.856)" fill="#2df0da"/>
            <path id="Trazado_183829" data-name="Trazado 183829" d="M240.578,133.481a10.506,10.506,0,0,0,.893-3.615,10.694,10.694,0,0,0,.714,2.516c.373.79.506,1.259,1.313,1.593a10.579,10.579,0,0,0,1.707.542c-3.208.124-3.523,4.9-3.523,4.9a16.635,16.635,0,0,0-1.25-3.722,8.074,8.074,0,0,0-2.272-1.262S240.309,133.939,240.578,133.481Z" transform="translate(-115.579 -61.302)" fill="#a9f73f"/>
            <path id="Trazado_183830" data-name="Trazado 183830" d="M53.176,106.557a10.505,10.505,0,0,0,.893-3.615,10.664,10.664,0,0,0,.714,2.516c.373.79.5,1.259,1.313,1.593a10.6,10.6,0,0,0,1.706.542c-3.207.124-3.522,4.9-3.522,4.9a16.61,16.61,0,0,0-1.251-3.722,8.073,8.073,0,0,0-2.272-1.262S52.907,107.015,53.176,106.557Z" transform="translate(-50.756 -51.989)" fill="#a9f73f"/>
            <path id="Trazado_183831" data-name="Trazado 183831" d="M90.175,30.3a10.535,10.535,0,0,0,.893-3.615,10.656,10.656,0,0,0,.714,2.516c.373.791.5,1.26,1.313,1.593a10.53,10.53,0,0,0,1.706.543c-3.207.124-3.522,4.9-3.522,4.9a16.6,16.6,0,0,0-1.251-3.722,8.063,8.063,0,0,0-2.272-1.263S89.907,30.756,90.175,30.3Z" transform="translate(-63.554 -25.611)" fill="#a9f73f"/>
          </g>
        </g>
        <g id="Grupo_122130" data-name="Grupo 122130" transform="translate(54.698 178.218)">
          <path id="Trazado_183832" data-name="Trazado 183832" d="M58.114,432.794s5.228-42.032,18.525-50.319,22.68-9.027,22.68-9.027l27.081.216s17.3.909,26.554,12.858,10.683,28.605,10.683,28.605l-17.152,4.411,8.964,17.568H67.382Z" transform="translate(-57.243 -298.732)" fill="#ff8900"/>
          <g id="Grupo_122118" data-name="Grupo 122118" transform="translate(1.226 74.768)" opacity="0.5" style="mix-blend-mode: multiply;isolation: isolate">
            <path id="Trazado_183833" data-name="Trazado 183833" d="M193.976,416.726l5.774-1.485s-1.432-16.657-10.683-28.605-26.554-12.858-26.554-12.858C177.788,385.172,188.771,399.078,193.976,416.726Z" transform="translate(-94.581 -373.614)" fill="#d87808"/>
            <path id="Trazado_183834" data-name="Trazado 183834" d="M99.049,373.527c-2.029.265-10.639,1.757-22.222,8.975-13.3,8.287-18.17,47.79-18.17,47.79H64.3c1.79-10.488,5.7-28.445,12.326-36.786A95.228,95.228,0,0,1,99.049,373.527Z" transform="translate(-58.657 -373.527)" fill="#d87808"/>
          </g>
          <g id="Grupo_122126" data-name="Grupo 122126" transform="translate(24.202 1.196)">
            <g id="Grupo_122119" data-name="Grupo 122119" transform="translate(17.088 57.164)">
              <path id="Trazado_183835" data-name="Trazado 183835" d="M138.622,356.221a41.865,41.865,0,0,0,5.889-.978c-.107-1.413-.148-2.837-.308-4.244a2.833,2.833,0,0,0-.44-1.414,2.88,2.88,0,0,0-1.991-.865,30.025,30.025,0,0,0-8.546.06c-3.04.458-4.373.406-4.407,3.443a20.538,20.538,0,0,1-.311,3.414A33.41,33.41,0,0,0,138.622,356.221Z" transform="translate(-122.882 -348.442)" fill="#f38390"/>
              <path id="Trazado_183836" data-name="Trazado 183836" d="M142.072,362.41a19.889,19.889,0,0,1-.537-3.571,41.87,41.87,0,0,1-5.889.978,33.408,33.408,0,0,1-10.114-.585,12.022,12.022,0,0,1-5.626,8.622c1.426,3.325,6.118,5.36,9.728,5.6,8.408.561,12.847-.19,17.353-5.385C144.438,367.446,142.74,364.948,142.072,362.41Z" transform="translate(-119.907 -352.038)" fill="#ffa69e"/>
            </g>
            <path id="Trazado_183837" data-name="Trazado 183837" d="M108.015,286.876c-3.026,7.014-2.756,15.085-.864,22.485,1.51,5.9,4.232,11.824,9.2,15.351a21.4,21.4,0,0,0,5.853,2.838c4.933,1.588,10.509,1.754,15.149-.555,4.957-2.468,8.259-7.441,10.117-12.658a36.307,36.307,0,0,0-.713-25.943,20.556,20.556,0,0,0-5.38-7.886,26.739,26.739,0,0,0-7.52-4.063c-5.356-2.144-10.056-3.321-15.448-.685A22.233,22.233,0,0,0,108.015,286.876Z" transform="translate(-97.915 -265.613)" fill="#ffa69e"/>
            <g id="Grupo_122123" data-name="Grupo 122123" transform="translate(16.462 24.516)">
              <path id="Trazado_183838" data-name="Trazado 183838" d="M119.451,303.461a8.19,8.19,0,0,1,7.281-4.931,5.94,5.94,0,0,1,1.576.174" transform="translate(-119.123 -298.529)" fill="rgba(0,0,0,0)" stroke="#462255" stroke-miterlimit="10" stroke-width="0.973"/>
              <path id="Trazado_183839" data-name="Trazado 183839" d="M156.626,303.461a8.19,8.19,0,0,0-7.28-4.931,5.947,5.947,0,0,0-1.576.174" transform="translate(-128.918 -298.529)" fill="rgba(0,0,0,0)" stroke="#462255" stroke-miterlimit="10" stroke-width="0.973"/>
              <g id="Grupo_122120" data-name="Grupo 122120" transform="translate(0 14.485)" opacity="0.3" style="mix-blend-mode: multiply;isolation: isolate">
                <path id="Trazado_183840" data-name="Trazado 183840" d="M126.906,323.219c-.068,1.283-1.9,2.23-4.1,2.113s-3.923-1.251-3.855-2.535,1.9-2.23,4.1-2.113S126.974,321.935,126.906,323.219Z" transform="translate(-118.949 -320.674)" fill="#ffa69e"/>
              </g>
              <g id="Grupo_122121" data-name="Grupo 122121" transform="translate(21.619 14.485)" opacity="0.3" style="mix-blend-mode: multiply;isolation: isolate">
                <path id="Trazado_183841" data-name="Trazado 183841" d="M159.957,323.219c-.068,1.283-1.9,2.23-4.1,2.113s-3.922-1.251-3.855-2.535,1.9-2.23,4.1-2.113S160.025,321.935,159.957,323.219Z" transform="translate(-152 -320.674)" fill="#ffa69e"/>
              </g>
              <g id="Grupo_122122" data-name="Grupo 122122" transform="translate(6.722 19.353)">
                <path id="Trazado_183842" data-name="Trazado 183842" d="M136.377,335.731a15.146,15.146,0,0,0-3.631-1.041c1.521,2.088,3.7,4.213,6.277,4.167a4.5,4.5,0,0,0,1.045-.146A8.7,8.7,0,0,0,136.377,335.731Z" transform="translate(-130.444 -330.391)" fill="#aa4465"/>
                <path id="Trazado_183843" data-name="Trazado 183843" d="M145.268,328.117s-2.913,4.5-6.9,4.753-9.146-4.411-9.146-4.411a23.182,23.182,0,0,0,2.3,3.958,15.147,15.147,0,0,1,3.631,1.041,8.7,8.7,0,0,1,3.691,2.979C143.174,335.326,145.268,328.117,145.268,328.117Z" transform="translate(-129.226 -328.117)" fill="#462255"/>
              </g>
              <path id="Trazado_183844" data-name="Trazado 183844" d="M141.556,306.069a60.8,60.8,0,0,1,2.932,13.225,20.343,20.343,0,0,1-5.385,1.143" transform="translate(-125.92 -301.137)" fill="rgba(0,0,0,0)" stroke="#43314b" stroke-miterlimit="10" stroke-width="1.051"/>
              <path id="Trazado_183845" data-name="Trazado 183845" d="M141.556,306.069a60.8,60.8,0,0,1,2.932,13.225,20.343,20.343,0,0,1-5.385,1.143" transform="translate(-125.92 -301.137)" fill="#ffa69e" opacity="0.2" style="mix-blend-mode: multiply;isolation: isolate"/>
              <path id="Trazado_183846" data-name="Trazado 183846" d="M124.774,312.531a5.623,5.623,0,0,1,4-1.226,5.922,5.922,0,0,1,3.5,1.652" transform="translate(-120.964 -302.936)" fill="rgba(0,0,0,0)" stroke="#462255" stroke-miterlimit="10" stroke-width="1.051"/>
              <path id="Trazado_183847" data-name="Trazado 183847" d="M149.842,312.531a5.626,5.626,0,0,1,4-1.226,5.918,5.918,0,0,1,3.5,1.652" transform="translate(-129.635 -302.936)" fill="rgba(0,0,0,0)" stroke="#462255" stroke-miterlimit="10" stroke-width="1.051"/>
            </g>
            <path id="Trazado_183848" data-name="Trazado 183848" d="M108.116,280.562c1.187,1.516,3.579.856,5.33.055,4.423-2.022,9.357-4.121,13.991-2.647,2.652.842,4.8,2.754,7.146,4.253,3.944,2.522,9.284,3.838,13.218,1.3a11.194,11.194,0,0,0,3.882-4.769,17.779,17.779,0,0,0,1.21-11.435,10.834,10.834,0,0,1-6.012,5.048,7.449,7.449,0,0,0,2.041-5.42,22.1,22.1,0,0,0-1.058-5.839,10.765,10.765,0,0,1-5.8,6.664,7.493,7.493,0,0,0,1.5-6.725c-.168,1.659-1.774,2.785-3.336,3.367-4,1.491-8.47.9-12.605-.164s-8.192-2.586-12.448-2.924c-3.072-.245-6.413.24-8.668,2.341-1.979,1.843-2.788,4.594-3.439,7.219-6.379-1.206-9.6,7.889-9.263,12.294a26.618,26.618,0,0,0,3.138,11.665c.932,1.709,2.283,5.122,4.641,5.064,2.254-.055,3.52-3.071,4.311-4.769a26.5,26.5,0,0,0,2.159-7.132C108.291,286.474,109.153,281.888,108.116,280.562Z" transform="translate(-93.782 -261.048)" fill="#12263f"/>
            <path id="Trazado_183849" data-name="Trazado 183849" d="M175.458,292.413a21.9,21.9,0,0,1,1.065,6.459,10.472,10.472,0,0,1-1.93,6.168c-.945,1.249-2.532,2.272-4.021,1.785-1.314-.429-2.014-1.836-2.476-3.139a28.455,28.455,0,0,1-1.614-8.541,7.846,7.846,0,0,1,.485-3.475,5.627,5.627,0,0,1,5.071-3.02C174.426,288.634,174.824,290.254,175.458,292.413Z" transform="translate(-118.926 -270.596)" fill="#12263f"/>
            <g id="Grupo_122124" data-name="Grupo 122124" opacity="0.5">
              <path id="Trazado_183850" data-name="Trazado 183850" d="M101.27,278.385c1.418-2.5,4.721-4.129,7.284-2.821a9.5,9.5,0,0,1,4.248-6.734,12.664,12.664,0,0,1,7.844-1.929c4.495.3,8.788,2.6,13.277,2.217a11.573,11.573,0,0,0,9.719-7.695c-.027-.125-.043-.251-.077-.375-.168,1.659-1.774,2.785-3.336,3.367-4,1.491-8.47.9-12.605-.164s-8.192-2.586-12.448-2.924c-3.072-.245-6.413.24-8.668,2.341-1.979,1.843-2.788,4.594-3.439,7.219-6.379-1.206-9.6,7.889-9.263,12.294a26.619,26.619,0,0,0,3.138,11.665c.932,1.709,2.283,5.122,4.641,5.064a3.029,3.029,0,0,0,2.1-1.036,35.76,35.76,0,0,1-3.469-12.071C99.882,283.944,99.851,280.887,101.27,278.385Z" transform="translate(-93.782 -261.048)" fill="#404040" style="mix-blend-mode: multiply;isolation: isolate"/>
            </g>
            <g id="Grupo_122125" data-name="Grupo 122125" transform="translate(1.409 30.589)">
              <path id="Trazado_183851" data-name="Trazado 183851" d="M176.872,312.522c.454,3.339-.549,7.069-3.278,9.046a3.69,3.69,0,0,1-2.7.821,3.742,3.742,0,0,1-2.3-1.693,10.272,10.272,0,0,1-1.64-5.229C166.514,308.647,175.684,303.785,176.872,312.522Z" transform="translate(-120.495 -307.813)" fill="#ffa69e"/>
              <path id="Trazado_183852" data-name="Trazado 183852" d="M96.041,312.522c-.454,3.339.549,7.069,3.278,9.046a3.691,3.691,0,0,0,2.7.821,3.742,3.742,0,0,0,2.3-1.693,10.272,10.272,0,0,0,1.64-5.229C106.4,308.647,97.229,303.785,96.041,312.522Z" transform="translate(-95.936 -307.813)" fill="#ffa69e"/>
              <path id="Trazado_183853" data-name="Trazado 183853" d="M176.846,309.144a4.948,4.948,0,0,0-2.522,2.9,12.015,12.015,0,0,0-.572,3.893,1.177,1.177,0,0,1,1.659.1,2.094,2.094,0,0,1,.412,1.758,3.594,3.594,0,0,1-2.643,2.853" transform="translate(-122.655 -308.274)" fill="rgba(0,0,0,0)" stroke="#43314b" stroke-miterlimit="10" stroke-width="0.973"/>
              <path id="Trazado_183854" data-name="Trazado 183854" d="M99.111,309.144a4.948,4.948,0,0,1,2.522,2.9,12.015,12.015,0,0,1,.572,3.893,1.177,1.177,0,0,0-1.659.1,2.1,2.1,0,0,0-.412,1.758,3.594,3.594,0,0,0,2.643,2.853" transform="translate(-97.034 -308.274)" fill="rgba(0,0,0,0)" stroke="#43314b" stroke-miterlimit="10" stroke-width="0.973"/>
            </g>
          </g>
          <path id="Trazado_183855" data-name="Trazado 183855" d="M201.586,431.608c-12.828,0-10.829-22.8-7.972-46.506s2.924-27.549,2.924-27.549h9.073s7.427,50.973,5.714,61.542S201.586,431.608,201.586,431.608Z" transform="translate(-103.378 -293.234)" fill="#ffa69e"/>
          <path id="Trazado_183856" data-name="Trazado 183856" d="M97.863,410.207a199.179,199.179,0,0,0,1.394,30.2" transform="translate(-70.961 -311.447)" fill="rgba(0,0,0,0)" stroke="#ddfff7" stroke-miterlimit="10" stroke-width="1.051"/>
          <path id="Trazado_183857" data-name="Trazado 183857" d="M58.114,458.967c.1-12.2,22.832-10.753,46.532-7.817s27.539,3.016,27.539,3.016l-.03,9.073s-51,7.258-61.561,5.509S58.08,463.28,58.114,458.967Z" transform="translate(-57.243 -324.905)" fill="#ffa69e"/>
          <g id="Grupo_122127" data-name="Grupo 122127" transform="translate(66.202 111.245)">
            <path id="Trazado_183858" data-name="Trazado 183858" d="M169.119,460.337a5.591,5.591,0,0,1-2.058,1.521,4.941,4.941,0,0,1-3.3-.357,20.068,20.068,0,0,1-3.879-2,3.966,3.966,0,0,1-1.237-1.134,4.243,4.243,0,0,1,.007-3.45,45.12,45.12,0,0,1,2.678-6.729,6.507,6.507,0,0,1,2.635-3.182,4.851,4.851,0,0,1,2.236-.428c2.749.047,5.254,1.489,7.619,2.889a7.478,7.478,0,0,1,2.792,2.351C178.626,453.176,171.159,458.273,169.119,460.337Z" transform="translate(-158.092 -434.582)" fill="#ffa69e"/>
            <path id="Trazado_183859" data-name="Trazado 183859" d="M184.273,437.821a1.111,1.111,0,0,0,.107-.779c-.238-.651-1.223-.338-1.763.095a37.651,37.651,0,0,0-6.509,6.682,49.708,49.708,0,0,0,5.17-9.88c.3-.766.261-2.017-.559-1.985a1.266,1.266,0,0,0-.8.5,57.753,57.753,0,0,0-6.865,8.855,30.639,30.639,0,0,1,3.018-5.61c1.067-1.842,2.924-5.443,1.648-6.044s-6.329,5.9-8.788,9.486c1.893-3.067,5.185-8.718,4.15-9.551s-1.875.345-2.27.78a40.342,40.342,0,0,0-6.655,10.011,7.076,7.076,0,0,0-.9,3.687,5.555,5.555,0,0,0,1.344,2.843c2.523,3.068,7.231,7.733,10.054,4.772C180.03,446.041,182.711,441.693,184.273,437.821Z" transform="translate(-159.806 -429.294)" fill="#ffa69e"/>
            <path id="Trazado_183860" data-name="Trazado 183860" d="M158.188,454.316s-.908-9.214,1.194-14.261,2.327-.731,2.645,1.248.618,6.135.618,6.135Z" transform="translate(-157.993 -432.2)" fill="#ffa69e"/>
          </g>
          <g id="Grupo_122128" data-name="Grupo 122128" transform="translate(91.082 41.699)">
            <path id="Trazado_183861" data-name="Trazado 183861" d="M210.319,358.547a6.661,6.661,0,0,1-1.557,2.619,5.887,5.887,0,0,1-3.783,1.128,23.883,23.883,0,0,1-5.18-.4,4.719,4.719,0,0,1-1.881-.674c-1.154-.818-1.444-2.383-1.584-3.79a53.761,53.761,0,0,1-.165-8.623,7.752,7.752,0,0,1,1.425-4.708,5.78,5.78,0,0,1,2.257-1.5c3.039-1.217,6.454-.79,9.7-.344a8.9,8.9,0,0,1,4.15,1.292C217.452,346.3,211.607,355.34,210.319,358.547Z" transform="translate(-196.044 -329.482)" fill="#ffa69e"/>
            <path id="Trazado_183862" data-name="Trazado 183862" d="M201.34,337.072c.663-4.241,1.2-13.593-.316-14.03s-1.943,1.23-2.132,1.9c-3.588,12.833-2.785,21.692-2.785,21.692S205.277,336.918,201.34,337.072Z" transform="translate(-196.031 -322.97)" fill="#ffa69e"/>
          </g>
          <path id="Trazado_183863" data-name="Trazado 183863" d="M203.9,342.23s-1.756,11.768-.721,12.456,6.023-10.98,6.023-10.98-3.46,10.379-2.092,11.506,6.357-10.3,6.357-10.3-3.7,8.6-2.575,10.377,6.081-6.53,6.081-6.53" transform="translate(-107.31 -287.933)" fill="rgba(0,0,0,0)" stroke="#43314b" stroke-linecap="round" stroke-linejoin="round" stroke-width="1.251"/>
          <path id="Trazado_183864" data-name="Trazado 183864" d="M196.29,351.011a30.779,30.779,0,0,1,3.337-3.146,6.746,6.746,0,0,1,2.094-1.273,1.473,1.473,0,0,1,1.646.3,1.685,1.685,0,0,1,.058,1.455,12.916,12.916,0,0,1-5.167,7.048" transform="translate(-105.038 -289.403)" fill="#ffa69e" stroke="#43314b" stroke-miterlimit="10" stroke-width="0.981"/>
          <g id="Grupo_122129" data-name="Grupo 122129" transform="translate(0)">
            <path id="Trazado_183865" data-name="Trazado 183865" d="M72.665,294.983s.848-2.757,1.964-3.594a2.677,2.677,0,0,1,3.719.334c.754,1.134.193,3.872-.422,5.086-1.693,3.346-3.694,5.314-5.971,8.294-3.255-4.066-6.687-8.662-6.366-13.86a2.182,2.182,0,0,1,.235-.984,1.883,1.883,0,0,1,1.809-.722,3.99,3.99,0,0,1,3.47,2.127A11.688,11.688,0,0,1,72.665,294.983Z" transform="translate(-59.821 -269.704)" fill="#ff8900"/>
            <path id="Trazado_183866" data-name="Trazado 183866" d="M237.092,363.586a5.369,5.369,0,0,1,1.137-2.08,1.55,1.55,0,0,1,2.153.193c.436.656.112,2.241-.244,2.944a29.374,29.374,0,0,1-3.457,4.8c-1.884-2.354-3.871-5.014-3.685-8.023a1.267,1.267,0,0,1,.135-.57,1.09,1.09,0,0,1,1.047-.418,2.309,2.309,0,0,1,2.009,1.231A6.768,6.768,0,0,1,237.092,363.586Z" transform="translate(-117.73 -294.228)" fill="#ff8900"/>
            <path id="Trazado_183867" data-name="Trazado 183867" d="M63.092,329.045l-6.3,9.778q5.166-2.413,10.443-4.577l-10.454-1.581c2.648,2.363,4.48,5.488,6.765,7.933C63.521,338.178,63.092,329.045,63.092,329.045Z" transform="translate(-56.782 -283.373)" fill="#2df0da"/>
            <path id="Trazado_183868" data-name="Trazado 183868" d="M220.525,318.806l-6.3,9.778q5.166-2.413,10.443-4.577l-10.454-1.581c2.648,2.363,4.481,5.488,6.765,7.933C220.953,327.94,220.525,318.806,220.525,318.806Z" transform="translate(-111.238 -279.831)" fill="#2df0da"/>
            <path id="Trazado_183869" data-name="Trazado 183869" d="M82.695,262.835a10.506,10.506,0,0,0,.893-3.615,10.7,10.7,0,0,0,.714,2.516c.373.79.5,1.259,1.313,1.593a10.6,10.6,0,0,0,1.706.543c-3.207.124-3.522,4.9-3.522,4.9a16.6,16.6,0,0,0-1.251-3.722,8.06,8.06,0,0,0-2.272-1.263S82.426,263.294,82.695,262.835Z" transform="translate(-64.908 -259.22)" fill="#a9f73f"/>
            <path id="Trazado_183870" data-name="Trazado 183870" d="M241.649,338.111a10.534,10.534,0,0,0,.893-3.615,10.667,10.667,0,0,0,.714,2.516c.373.79.5,1.259,1.313,1.593a10.6,10.6,0,0,0,1.706.542c-3.207.124-3.522,4.9-3.522,4.9a16.6,16.6,0,0,0-1.251-3.721,8.062,8.062,0,0,0-2.272-1.263S241.381,338.57,241.649,338.111Z" transform="translate(-119.891 -285.258)" fill="#a9f73f"/>
            <path id="Trazado_183871" data-name="Trazado 183871" d="M92.971,344.756a10.505,10.505,0,0,0,.893-3.616,10.686,10.686,0,0,0,.714,2.516c.373.791.506,1.26,1.313,1.593a10.531,10.531,0,0,0,1.706.543c-3.207.124-3.522,4.9-3.522,4.9a16.611,16.611,0,0,0-1.251-3.722,8.073,8.073,0,0,0-2.272-1.262S92.7,345.214,92.971,344.756Z" transform="translate(-68.463 -287.556)" fill="#a9f73f"/>
          </g>
        </g>
        <g id="Grupo_122142" data-name="Grupo 122142" transform="translate(207.767 29.8)">
          <g id="Grupo_122131" data-name="Grupo 122131" transform="translate(24.004 37.695)">
            <path id="Trazado_183872" data-name="Trazado 183872" d="M404.536,94.426c.432,3.178-.523,6.729-3.12,8.611a3.517,3.517,0,0,1-2.573.782,3.563,3.563,0,0,1-2.189-1.612,9.777,9.777,0,0,1-1.561-4.977C394.676,90.738,403.405,86.11,404.536,94.426Z" transform="translate(-350.872 -89.945)" fill="#ffa69e"/>
            <path id="Trazado_183873" data-name="Trazado 183873" d="M327.6,94.426c-.432,3.178.524,6.729,3.12,8.611a3.519,3.519,0,0,0,2.574.782,3.564,3.564,0,0,0,2.189-1.612,9.772,9.772,0,0,0,1.561-4.977C337.455,90.738,328.726,86.11,327.6,94.426Z" transform="translate(-327.495 -89.945)" fill="#ffa69e"/>
            <path id="Trazado_183874" data-name="Trazado 183874" d="M404.51,91.211a4.709,4.709,0,0,0-2.4,2.763,11.417,11.417,0,0,0-.545,3.705,1.121,1.121,0,0,1,1.58.1,1.992,1.992,0,0,1,.392,1.673,3.421,3.421,0,0,1-2.516,2.715" transform="translate(-352.928 -90.383)" fill="rgba(0,0,0,0)" stroke="#43314b" stroke-miterlimit="10" stroke-width="0.926"/>
            <path id="Trazado_183875" data-name="Trazado 183875" d="M330.518,91.211a4.711,4.711,0,0,1,2.4,2.763,11.436,11.436,0,0,1,.544,3.705,1.121,1.121,0,0,0-1.58.1,2,2,0,0,0-.392,1.673,3.422,3.422,0,0,0,2.516,2.715" transform="translate(-328.541 -90.383)" fill="rgba(0,0,0,0)" stroke="#43314b" stroke-miterlimit="10" stroke-width="0.926"/>
          </g>
          <path id="Trazado_183876" data-name="Trazado 183876" d="M293.848,189.234s2.687-21.121,15.345-29.009,21.589-8.592,21.589-8.592l25.777.205s16.471.866,25.276,12.239S392,191.3,392,191.3l-16.327,4.2,8.533,16.722H300.381Z" transform="translate(-291.852 -73.587)" fill="#05d6bf"/>
          <g id="Grupo_122132" data-name="Grupo 122132" transform="translate(38.929 62.991)">
            <path id="Trazado_183877" data-name="Trazado 183877" d="M368.126,136.022a39.8,39.8,0,0,0,5.606-.931c-.1-1.345-.141-2.7-.294-4.04a2.688,2.688,0,0,0-.418-1.345,2.738,2.738,0,0,0-1.9-.824,28.606,28.606,0,0,0-8.135.057c-2.894.436-4.163.386-4.194,3.277a19.632,19.632,0,0,1-.3,3.25A31.784,31.784,0,0,0,368.126,136.022Z" transform="translate(-353.144 -128.618)" fill="#f38390"/>
            <path id="Trazado_183878" data-name="Trazado 183878" d="M371.411,141.913a18.888,18.888,0,0,1-.512-3.4,39.8,39.8,0,0,1-5.606.931,31.785,31.785,0,0,1-9.626-.557,11.444,11.444,0,0,1-5.356,8.207c1.358,3.165,5.823,5.1,9.26,5.332,8,.534,12.228-.181,16.517-5.126C373.663,146.707,372.047,144.329,371.411,141.913Z" transform="translate(-350.312 -132.041)" fill="#ffa69e"/>
          </g>
          <path id="Trazado_183879" data-name="Trazado 183879" d="M338.993,70.015c-2.88,6.676-2.624,14.358-.823,21.4,1.437,5.618,4.029,11.255,8.758,14.612a20.359,20.359,0,0,0,5.571,2.7c4.7,1.512,10,1.67,14.42-.528,4.718-2.349,7.862-7.083,9.63-12.048a34.558,34.558,0,0,0-.678-24.694,19.567,19.567,0,0,0-5.121-7.506,25.456,25.456,0,0,0-7.158-3.867c-5.1-2.041-9.572-3.161-14.7-.652A21.155,21.155,0,0,0,338.993,70.015Z" transform="translate(-306.716 -41.197)" fill="#ffa69e"/>
          <g id="Grupo_122133" data-name="Grupo 122133" transform="translate(1.996 78.095)" opacity="0.5" style="mix-blend-mode: multiply;isolation: isolate">
            <path id="Trazado_183880" data-name="Trazado 183880" d="M419.67,192.827l5.5-1.414S423.8,175.558,415,164.185s-25.276-12.239-25.276-12.239C404.262,162.792,414.717,176.028,419.67,192.827Z" transform="translate(-327.011 -151.79)" fill="#05d6bf"/>
            <path id="Trazado_183881" data-name="Trazado 183881" d="M330.344,151.708c-1.931.252-10.127,1.672-21.152,8.543-12.657,7.888-15.344,29.009-15.344,29.009l2.493,8.773A60.919,60.919,0,0,1,309,170.725,90.648,90.648,0,0,1,330.344,151.708Z" transform="translate(-293.848 -151.708)" fill="#05d6bf"/>
          </g>
          <g id="Grupo_122134" data-name="Grupo 122134" transform="translate(0 85.412)">
            <path id="Trazado_183882" data-name="Trazado 183882" d="M293.928,229.92c-6.306-5.449-1.135-20.8-1.135-20.8l19.087,4.359S300.233,235.37,293.928,229.92Z" transform="translate(-290.797 -178.883)" fill="#f38390"/>
            <path id="Trazado_183883" data-name="Trazado 183883" d="M350.238,164.378a6.587,6.587,0,0,1,8.512.154,7.3,7.3,0,0,1,2.42,4.624c.09.84-.08,1.877-.764,2.182-.729.325-1.465-.4-2.027-1.022a11.346,11.346,0,0,0-2.508-2.194,6.531,6.531,0,0,0-5.458-.621,7.9,7.9,0,0,0-3.8,3.025c-.089-.922.861-2.421,1.29-3.2A10.084,10.084,0,0,1,350.238,164.378Z" transform="translate(-310.101 -162.894)" fill="#f38390"/>
            <path id="Trazado_183884" data-name="Trazado 183884" d="M327.106,192.464a180.574,180.574,0,0,1-15.1,17.922c-2.341,2.438-4.844,4.874-7.992,6.106s-7.113.976-9.437-1.477c-2.257-2.381-2.372-6.228-1.026-9.219s3.887-5.27,6.529-7.215c4.706-3.464,9.948-6.166,14.563-9.751,4.585-3.561,7.1-7.183,10.091-12.156,1.45-2.408,3.063-6.011,5.069-7.98a8.707,8.707,0,0,1,7.693-2.514,6.314,6.314,0,0,1,5.039,5.926,1.736,1.736,0,0,1-.453,1.294,1.76,1.76,0,0,1-1.7.143c-2.126-.691-1.746-3.549-5.139-3.364-2.546.139-3.541,2.387-4.021,3.711a7.931,7.931,0,0,0-.145,4.17c.479,2.515,1.777,5.158,4.166,6.077,2.215.852,5.269,2.072,6.545,4.072a1.478,1.478,0,0,1,.151,1.507,2.023,2.023,0,0,1-1.421.736c-1.9.392-2.2.1-5.811.1C332.015,190.558,328.7,190.295,327.106,192.464Z" transform="translate(-291.449 -163.977)" fill="#ffa69e"/>
          </g>
          <g id="Grupo_122135" data-name="Grupo 122135" transform="translate(50.472 85.412)">
            <path id="Trazado_183885" data-name="Trazado 183885" d="M431.788,229.92c6.306-5.449,1.135-20.8,1.135-20.8l-19.087,4.359S425.483,235.37,431.788,229.92Z" transform="translate(-383.829 -178.883)" fill="#f38390"/>
            <path id="Trazado_183886" data-name="Trazado 183886" d="M378.913,164.378a6.586,6.586,0,0,0-8.511.154,7.3,7.3,0,0,0-2.42,4.624c-.09.84.08,1.877.764,2.182.729.325,1.465-.4,2.027-1.022a11.345,11.345,0,0,1,2.508-2.194,6.531,6.531,0,0,1,5.458-.621,7.9,7.9,0,0,1,3.8,3.025c.088-.922-.861-2.421-1.291-3.2A10.075,10.075,0,0,0,378.913,164.378Z" transform="translate(-367.96 -162.894)" fill="#f38390"/>
            <path id="Trazado_183887" data-name="Trazado 183887" d="M383.392,192.464a180.668,180.668,0,0,0,15.1,17.922c2.341,2.438,4.844,4.874,7.991,6.106s7.113.976,9.438-1.477c2.257-2.381,2.372-6.228,1.026-9.219s-3.887-5.27-6.529-7.215c-4.707-3.464-9.948-6.166-14.563-9.751-4.585-3.561-7.1-7.183-10.091-12.156-1.45-2.408-3.063-6.011-5.069-7.98A8.707,8.707,0,0,0,373,166.18a6.314,6.314,0,0,0-5.039,5.926,1.736,1.736,0,0,0,.453,1.294,1.761,1.761,0,0,0,1.7.143c2.126-.691,1.746-3.549,5.138-3.364,2.546.139,3.541,2.387,4.021,3.711a7.932,7.932,0,0,1,.145,4.17c-.479,2.515-1.777,5.158-4.167,6.077-2.214.852-5.268,2.072-6.544,4.072a1.478,1.478,0,0,0-.151,1.507,2.023,2.023,0,0,0,1.421.736c1.9.392,2.2.1,5.811.1C378.484,190.558,381.794,190.295,383.392,192.464Z" transform="translate(-367.96 -163.977)" fill="#ffa69e"/>
          </g>
          <g id="Grupo_122139" data-name="Grupo 122139" transform="translate(38.333 31.915)">
            <path id="Trazado_183888" data-name="Trazado 183888" d="M369.749,87.989l.161,3.973a3.5,3.5,0,0,0,.558,2.128,7.46,7.46,0,0,0,1.895,1.191,3.482,3.482,0,0,1,.978,4.6,3.719,3.719,0,0,1-4.579,1.313" transform="translate(-356.098 -83.488)" fill="rgba(0,0,0,0)" stroke="#43314b" stroke-miterlimit="10" stroke-width="0.926"/>
            <path id="Trazado_183889" data-name="Trazado 183889" d="M358.5,93.583c0,1.089-.575,1.973-1.283,1.973s-1.283-.884-1.283-1.973.574-1.973,1.283-1.973S358.5,92.493,358.5,93.583Z" transform="translate(-351.66 -84.74)" fill="#462255"/>
            <path id="Trazado_183890" data-name="Trazado 183890" d="M384.146,93.583c0,1.089-.574,1.973-1.283,1.973s-1.283-.884-1.283-1.973.575-1.973,1.283-1.973S384.146,92.493,384.146,93.583Z" transform="translate(-360.532 -84.74)" fill="#462255"/>
            <path id="Trazado_183891" data-name="Trazado 183891" d="M349.879,85.8a7.8,7.8,0,0,1,6.93-4.694,5.644,5.644,0,0,1,1.5.165" transform="translate(-349.566 -81.107)" fill="rgba(0,0,0,0)" stroke="#462255" stroke-miterlimit="10" stroke-width="0.926"/>
            <path id="Trazado_183892" data-name="Trazado 183892" d="M385.265,85.8a7.8,7.8,0,0,0-6.93-4.694,5.644,5.644,0,0,0-1.5.165" transform="translate(-358.891 -81.107)" fill="rgba(0,0,0,0)" stroke="#462255" stroke-miterlimit="10" stroke-width="0.926"/>
            <g id="Grupo_122136" data-name="Grupo 122136" transform="translate(6.381 18.627)">
              <path id="Trazado_183893" data-name="Trazado 183893" d="M365.964,116.833a14.421,14.421,0,0,0-3.457-.992c1.448,1.988,3.526,4.01,5.975,3.966a4.285,4.285,0,0,0,.995-.139A8.286,8.286,0,0,0,365.964,116.833Z" transform="translate(-360.316 -111.749)" fill="#aa4465"/>
              <path id="Trazado_183894" data-name="Trazado 183894" d="M374.427,109.585s-2.773,4.285-6.564,4.524-8.706-4.2-8.706-4.2a22.1,22.1,0,0,0,2.191,3.768,14.422,14.422,0,0,1,3.457.992,8.286,8.286,0,0,1,3.513,2.836C372.434,116.447,374.427,109.585,374.427,109.585Z" transform="translate(-359.157 -109.585)" fill="#462255"/>
            </g>
            <g id="Grupo_122137" data-name="Grupo 122137" transform="translate(0 13.788)" opacity="0.3" style="mix-blend-mode: multiply;isolation: isolate">
              <path id="Trazado_183895" data-name="Trazado 183895" d="M356.975,104.608c-.065,1.222-1.812,2.122-3.9,2.011s-3.734-1.191-3.669-2.412,1.812-2.123,3.9-2.012S357.04,103.386,356.975,104.608Z" transform="translate(-349.401 -102.186)" fill="#ffa69e"/>
            </g>
            <g id="Grupo_122138" data-name="Grupo 122138" transform="translate(20.578 13.788)" opacity="0.3" style="mix-blend-mode: multiply;isolation: isolate">
              <path id="Trazado_183896" data-name="Trazado 183896" d="M388.436,104.608c-.065,1.222-1.813,2.122-3.9,2.011s-3.734-1.191-3.669-2.412,1.813-2.123,3.9-2.012S388.5,103.386,388.436,104.608Z" transform="translate(-380.861 -102.186)" fill="#ffa69e"/>
            </g>
            <path id="Trazado_183897" data-name="Trazado 183897" d="M368.4,101.191a3.719,3.719,0,0,0,4.579-1.313,3.482,3.482,0,0,0-.978-4.6A7.461,7.461,0,0,1,370.1,94.09a3.5,3.5,0,0,1-.558-2.128l-.161-3.973s-1.934,5.92-1.644,9.146A16.133,16.133,0,0,0,368.4,101.191Z" transform="translate(-355.735 -83.488)" fill="#ffa69e" opacity="0.2" style="mix-blend-mode: multiply;isolation: isolate"/>
          </g>
          <g id="Grupo_122140" data-name="Grupo 122140" transform="translate(18.378 2.533)">
            <path id="Trazado_183898" data-name="Trazado 183898" d="M373.687,77.148a6.983,6.983,0,0,1-3.03-9.456,5.23,5.23,0,0,1-4.428-6.785,11.262,11.262,0,0,1-5.144,1.126,6.775,6.775,0,0,1-4.73-2.1c-1.005-1.128-1.138-2.543-1.519-4.005a7.546,7.546,0,0,1-5.245,5.4,5.645,5.645,0,0,1-6.479-3.2,7.491,7.491,0,0,1-2.177,6.288,5.258,5.258,0,0,1-6.362.584,7.461,7.461,0,0,1-3.826,11.522,9.571,9.571,0,0,1-7.895-1.03,8.366,8.366,0,0,1-3.958-6.9,6.937,6.937,0,0,1,4.392-6.432,8.364,8.364,0,0,1,7.072-14.055,11.1,11.1,0,0,1,18-8.8c.423-1.154,1.955-1.806,3.106-2.241a8.942,8.942,0,0,1,5.668-.632c2.3.7,3.813,2.867,4.988,4.969a9.463,9.463,0,0,1,9.766-1.639c3.148,1.453,5.086,5.378,3.879,8.629a8.567,8.567,0,0,1,5.676,15.868,2.58,2.58,0,0,1,2,1.4,7.934,7.934,0,0,1-.58,9.122C380.763,77.277,376.6,78.623,373.687,77.148Z" transform="translate(-318.894 -36.188)" fill="#404040"/>
            <path id="Trazado_183899" data-name="Trazado 183899" d="M387.88,64.256A8.567,8.567,0,0,0,382.2,48.388c1.207-3.251-.731-7.176-3.879-8.629a9.463,9.463,0,0,0-9.766,1.639c-1.175-2.1-2.684-4.268-4.987-4.969a8.942,8.942,0,0,0-5.668.632c-1.151.435-2.682,1.086-3.106,2.241a11.048,11.048,0,0,0-17.283,4.882,11.649,11.649,0,0,1,17.34,4.508,11.787,11.787,0,0,1,21.411,6.18c2.368-1.99,6.449-.305,7.429,2.629s-.563,6.256-2.972,8.2a9.148,9.148,0,0,1,6.6,6.058,8.972,8.972,0,0,1,.186,4.572,7.676,7.676,0,0,0,2.365-10.672A2.58,2.58,0,0,0,387.88,64.256Z" transform="translate(-325.335 -36.188)" fill="#12263f" opacity="0.5" style="mix-blend-mode: multiply;isolation: isolate"/>
            <path id="Trazado_183900" data-name="Trazado 183900" d="M342.585,63.268a6.059,6.059,0,0,1-.938-6.125,4.854,4.854,0,0,1,5.333-2.771,8.533,8.533,0,0,1,2.611,1.325,2.562,2.562,0,0,1,4.176-1.885" transform="translate(-326.606 -42.088)" fill="rgba(0,0,0,0)" stroke="#fff" stroke-miterlimit="10" stroke-width="0.463"/>
            <path id="Trazado_183901" data-name="Trazado 183901" d="M372.766,55.252a6.466,6.466,0,1,1,12.68,2.229,4.228,4.228,0,0,1,5.6.267,4.656,4.656,0,0,1,.459,5.689,3.678,3.678,0,0,1,4.055,5.587" transform="translate(-337.528 -40.728)" fill="rgba(0,0,0,0)" stroke="#fff" stroke-miterlimit="10" stroke-width="0.463"/>
          </g>
          <g id="Grupo_122141" data-name="Grupo 122141" transform="translate(0 0)">
            <path id="Trazado_183902" data-name="Trazado 183902" d="M411.635,126.376s.848-2.758,1.964-3.594a2.677,2.677,0,0,1,3.719.334c.754,1.134.193,3.872-.422,5.086-1.693,3.346-3.694,5.314-5.971,8.293-3.255-4.067-6.687-8.662-6.366-13.86a2.179,2.179,0,0,1,.235-.983,1.882,1.882,0,0,1,1.809-.722,3.989,3.989,0,0,1,3.47,2.126A11.7,11.7,0,0,1,411.635,126.376Z" transform="translate(-330.14 -62.964)" fill="#ff8900"/>
            <path id="Trazado_183903" data-name="Trazado 183903" d="M318.536,36.077A6.39,6.39,0,0,1,319.89,33.6a1.846,1.846,0,0,1,2.564.23c.519.782.133,2.669-.291,3.507C321,39.643,319.615,41,318.045,43.054c-2.244-2.8-4.611-5.972-4.39-9.556a1.5,1.5,0,0,1,.162-.678,1.3,1.3,0,0,1,1.247-.5,2.75,2.75,0,0,1,2.393,1.466A8.054,8.054,0,0,1,318.536,36.077Z" transform="translate(-298.699 -32.315)" fill="#ff8900"/>
            <path id="Trazado_183904" data-name="Trazado 183904" d="M294.94,46.717s4.2,6.519,6.3,9.779q-5.166-2.413-10.443-4.578l10.454-1.581c-2.648,2.363-4.481,5.489-6.765,7.934C294.512,55.851,294.94,46.717,294.94,46.717Z" transform="translate(-290.797 -37.297)" fill="#45c6e5"/>
            <path id="Trazado_183905" data-name="Trazado 183905" d="M431.919,88.723l-6.3,9.778q5.167-2.413,10.443-4.577l-10.453-1.581c2.648,2.363,4.48,5.489,6.765,7.933C432.348,97.857,431.919,88.723,431.919,88.723Z" transform="translate(-337.429 -51.827)" fill="#45c6e5"/>
            <path id="Trazado_183906" data-name="Trazado 183906" d="M436.634,120.027a10.533,10.533,0,0,0,.893-3.615,10.661,10.661,0,0,0,.714,2.516c.373.79.5,1.259,1.313,1.593a10.507,10.507,0,0,0,1.706.542c-3.208.125-3.522,4.9-3.522,4.9a16.6,16.6,0,0,0-1.251-3.721,8.064,8.064,0,0,0-2.272-1.263S436.366,120.486,436.634,120.027Z" transform="translate(-340.405 -61.404)" fill="#2df0da"/>
            <path id="Trazado_183907" data-name="Trazado 183907" d="M425.249,39.8a10.5,10.5,0,0,0,.893-3.615,10.687,10.687,0,0,0,.714,2.516c.372.791.5,1.26,1.312,1.593a10.515,10.515,0,0,0,1.707.543c-3.208.124-3.523,4.9-3.523,4.9a16.6,16.6,0,0,0-1.25-3.722,8.074,8.074,0,0,0-2.272-1.262S424.98,40.262,425.249,39.8Z" transform="translate(-336.467 -33.655)" fill="#2df0da"/>
            <path id="Trazado_183908" data-name="Trazado 183908" d="M334.548,136.461a10.519,10.519,0,0,0,.893-3.615,10.665,10.665,0,0,0,.714,2.516c.373.79.505,1.259,1.313,1.593a10.594,10.594,0,0,0,1.706.542c-3.207.124-3.522,4.9-3.522,4.9a16.611,16.611,0,0,0-1.251-3.722,8.072,8.072,0,0,0-2.272-1.262S334.28,136.919,334.548,136.461Z" transform="translate(-305.094 -67.089)" fill="#2df0da"/>
          </g>
        </g>
        <g id="Grupo_122156" data-name="Grupo 122156" transform="translate(186.085 186.178)">
          <g id="Grupo_122144" data-name="Grupo 122144" transform="translate(41.686)">
            <path id="Trazado_183909" data-name="Trazado 183909" d="M391.2,282.892c7.242,10.256,1.073,24.777,9.686,33.912,3.348,3.552,6.518,6.2,11.36,6.8-4.319,6.4-11.029,10.95-18.294,13.554s-8.342,3.367-16.059,3.242a80.76,80.76,0,0,1-31.849-6.606c-9.955-4.483-18.855-11.589-24.659-20.836,7.064-1.411,12.219-7.508,15.745-13.789s6.1-13.218,10.9-18.592C359.692,267.5,381.013,268.474,391.2,282.892Z" transform="translate(-321.38 -271.389)" fill="#d87808"/>
            <g id="Grupo_122143" data-name="Grupo 122143" transform="translate(7.385 30.432)">
              <path id="Trazado_183910" data-name="Trazado 183910" d="M428.353,335.431a31.11,31.11,0,0,0,12.657,17.513" transform="translate(-365.767 -323.973)" fill="#d87808" stroke="#fff" stroke-miterlimit="10" stroke-width="0.515"/>
              <path id="Trazado_183911" data-name="Trazado 183911" d="M419.105,341.85a26.587,26.587,0,0,0,6.638,20.252" transform="translate(-362.523 -326.194)" fill="#d87808" stroke="#fff" stroke-miterlimit="10" stroke-width="0.515"/>
              <path id="Trazado_183912" data-name="Trazado 183912" d="M348.292,317.914a56.693,56.693,0,0,1-15.622,18.812" transform="translate(-332.67 -317.914)" fill="#d87808" stroke="#fff" stroke-miterlimit="10" stroke-width="0.515"/>
              <path id="Trazado_183913" data-name="Trazado 183913" d="M344.082,353.552a26.833,26.833,0,0,0,8.392-9.419" transform="translate(-336.617 -326.983)" fill="#d87808" stroke="#fff" stroke-miterlimit="10" stroke-width="0.515"/>
            </g>
          </g>
          <g id="Grupo_122145" data-name="Grupo 122145" transform="translate(43.031 43.59)">
            <path id="Trazado_183914" data-name="Trazado 183914" d="M402.237,340.529c-15.976,5.636-30.695,9.83-47.361,7.554-7.749-1.058-15.229-3.543-22.538-6.326-2.993-1.14-5.992-2.352-8.9-3.726a56.879,56.879,0,0,0,23.313,18.819,80.76,80.76,0,0,0,31.849,6.606c7.717.124,8.794-.638,16.059-3.242s13.975-7.157,18.294-13.554C409.263,346.2,405.642,344.3,402.237,340.529Z" transform="translate(-323.437 -338.03)" fill="#462255" opacity="0.5" style="mix-blend-mode: multiply;isolation: isolate"/>
          </g>
          <g id="Grupo_122146" data-name="Grupo 122146" transform="translate(75.473 47.034)">
            <path id="Trazado_183915" data-name="Trazado 183915" d="M377.707,360.359c1.41-4.63,1.744-9.738,4.851-13.391a11.442,11.442,0,0,1,13.5-2.491c2.394,1.213,2.526,2.189,2.339,4.759q-.051.693-.1,1.381A35.075,35.075,0,0,1,377.707,360.359Z" transform="translate(-374.651 -343.296)" fill="#f38390"/>
            <path id="Trazado_183916" data-name="Trazado 183916" d="M375.062,366.994a21.468,21.468,0,0,0,1.029-2.763,35.074,35.074,0,0,0,20.588-9.742,49.311,49.311,0,0,0,.037,9.048,18.884,18.884,0,0,1,.236,4.072,10.619,10.619,0,0,1-1.2,3.732,15.066,15.066,0,0,1-9.349,7.739A12.392,12.392,0,0,1,374.8,376.2a5.755,5.755,0,0,1-1.6-2.429C372.527,371.464,374.054,369.174,375.062,366.994Z" transform="translate(-373.034 -347.168)" fill="#ffa69e"/>
          </g>
          <path id="Trazado_183917" data-name="Trazado 183917" d="M398.41,296.853c1.762,6.3.814,13.124-1.587,19.205a30.99,30.99,0,0,1-4.741,8.325,29.593,29.593,0,0,1-9.533,7.442c-5.657,2.878-12.678,4.2-18.26,1.178a16.589,16.589,0,0,1-6.188-6.188,26.086,26.086,0,0,1-3.3-14.854,44.326,44.326,0,0,1,3.862-14.874c1.943-4.493,4.469-8.893,8.323-11.912,8.554-6.7,20.849-4.169,27.458,3.985A21.449,21.449,0,0,1,398.41,296.853Z" transform="translate(-291.235 -274.829)" fill="#ffa69e"/>
          <path id="Trazado_183918" data-name="Trazado 183918" d="M393.35,287.12a42.636,42.636,0,0,0-36.33,4.3c1.323-4.437,3.938-8.647,7.9-11.04,4.672-2.819,10.535-2.776,15.905-1.816a33.7,33.7,0,0,1,13.693,5.317,19.535,19.535,0,0,1,8.116,11.953,14.645,14.645,0,0,1-1.018,8.653c-1.055,2.333-3.192,5.417-5.211,2.471C392.937,301.9,392.695,292.952,393.35,287.12Z" transform="translate(-292.022 -273.668)" fill="#d87808"/>
          <path id="Trazado_183919" data-name="Trazado 183919" d="M421.613,317.442a3.652,3.652,0,0,1,2.747,2.214,6.9,6.9,0,0,1,.394,3.623,12.861,12.861,0,0,1-5.238,8.83,5.022,5.022,0,0,1-3.476,1.146,4.646,4.646,0,0,1-3.38-3.287,8.7,8.7,0,0,1,.249-6.377C414.046,321.035,418.555,317.071,421.613,317.442Z" transform="translate(-311.099 -287.31)" fill="#ffa69e"/>
          <g id="Grupo_122147" data-name="Grupo 122147" transform="translate(72.462 36.532)">
            <path id="Trazado_183920" data-name="Trazado 183920" d="M379.669,337.741a14.844,14.844,0,0,1,3.689-.342c-1.846,1.735-4.337,3.385-6.809,2.871a4.381,4.381,0,0,1-.98-.332A8.531,8.531,0,0,1,379.669,337.741Z" transform="translate(-370.901 -330.752)" fill="#aa4465"/>
            <path id="Trazado_183921" data-name="Trazado 183921" d="M368.432,327.239s1.987,4.869,5.779,5.837,9.618-2.584,9.618-2.584a22.745,22.745,0,0,1-2.94,3.395,14.847,14.847,0,0,0-3.689.342,8.531,8.531,0,0,0-4.1,2.2C369.136,334.568,368.432,327.239,368.432,327.239Z" transform="translate(-368.432 -327.239)" fill="#462255"/>
          </g>
          <g id="Grupo_122148" data-name="Grupo 122148" transform="translate(66.671 31.097)" opacity="0.3" style="mix-blend-mode: multiply;isolation: isolate">
            <path id="Trazado_183922" data-name="Trazado 183922" d="M359.581,321.023c-.079,1.283,1.637,2.432,3.833,2.567s4.039-.8,4.118-2.079-1.637-2.432-3.833-2.567S359.659,319.74,359.581,321.023Z" transform="translate(-359.578 -318.931)" fill="#ffa69e"/>
            <path id="Trazado_183923" data-name="Trazado 183923" d="M390.923,326.666c-.169,1.249,1.428,2.5,3.566,2.784s4.008-.491,4.176-1.74-1.429-2.5-3.566-2.784S391.091,325.417,390.923,326.666Z" transform="translate(-370.416 -320.984)" fill="#ffa69e"/>
          </g>
          <path id="Trazado_183924" data-name="Trazado 183924" d="M374.913,298.526a9.6,9.6,0,0,0-10.741,4.539" transform="translate(-294.496 -280.671)" fill="rgba(0,0,0,0)" stroke="#462255" stroke-miterlimit="10" stroke-width="0.954"/>
          <path id="Trazado_183925" data-name="Trazado 183925" d="M403.405,308.258a9.518,9.518,0,0,0-8.893-8.093" transform="translate(-304.991 -281.342)" fill="rgba(0,0,0,0)" stroke="#462255" stroke-miterlimit="10" stroke-width="0.954"/>
          <path id="Trazado_183926" data-name="Trazado 183926" d="M424.167,323.717a2.587,2.587,0,0,0-2.713-1.832,4.231,4.231,0,0,0-2.956,1.8,12.563,12.563,0,0,0-1.559,3.2,2.529,2.529,0,0,1,2.676,4.264,4.357,4.357,0,0,1-2.484.716" transform="translate(-312.748 -288.853)" fill="rgba(0,0,0,0)" stroke="#462255" stroke-miterlimit="10" stroke-width="0.954"/>
          <path id="Trazado_183927" data-name="Trazado 183927" d="M398.879,438.613a43.435,43.435,0,0,0,3.17-41.446c-9.1-20.44-22.928-26.111-22.928-26.111s-5.863,11.64-16.109,9.078-5.826-7.41-5.826-7.41-25.695,18.081-33.86,34.41,11.661,27.434,11.661,27.434Z" transform="translate(-279.685 -305.864)" fill="#74ddf7"/>
          <g id="Grupo_122149" data-name="Grupo 122149" transform="translate(99.562 65.946)" opacity="0.4" style="mix-blend-mode: multiply;isolation: isolate">
            <path id="Trazado_183928" data-name="Trazado 183928" d="M420.888,392.106a35.961,35.961,0,0,0-9.641-19.9c3.824,2.1,14.131,8.994,21.418,25.357a43.435,43.435,0,0,1-3.17,41.446L409.862,431a60.666,60.666,0,0,0,7.822-14.128A48.936,48.936,0,0,0,420.888,392.106Z" transform="translate(-409.862 -372.209)" fill="#74ddf7"/>
          </g>
          <g id="Grupo_122151" data-name="Grupo 122151" transform="translate(60.022 75.113)">
            <path id="Trazado_183929" data-name="Trazado 183929" d="M410.44,424.61c-.968-1.063-1.89-2.16-2.773-3.274A82.481,82.481,0,0,1,399.94,409.5a95.107,95.107,0,0,1-6.462-14.6L383.2,397.4a85.313,85.313,0,0,0,.861,10.425,80.847,80.847,0,0,0,4.211,17.128c.225.595.456,1.188.7,1.777,5.738,13.8,24.006,27.28,31.3,20.133S415.319,429.967,410.44,424.61Z" transform="translate(-361.1 -389.227)" fill="#ffa69e"/>
            <g id="Grupo_122150" data-name="Grupo 122150">
              <path id="Trazado_183930" data-name="Trazado 183930" d="M382.221,404.4a6.867,6.867,0,0,0,2.982-.984,6.063,6.063,0,0,0,1.977-3.554,24.623,24.623,0,0,0,.747-5.3,4.854,4.854,0,0,0-.26-2.042c-.565-1.343-2.075-1.983-3.46-2.438A55.505,55.505,0,0,0,375.569,388a7.985,7.985,0,0,0-5.054.385,5.955,5.955,0,0,0-2.013,1.937c-1.9,2.786-2.23,6.317-2.5,9.679a9.172,9.172,0,0,0,.376,4.462C368.312,408.851,378.708,404.982,382.221,404.4Z" transform="translate(-355.116 -386.761)" fill="#ffa69e"/>
              <path id="Trazado_183931" data-name="Trazado 183931" d="M363.46,391.513c-4.414-.277-13.943-1.813-14.043-3.44s1.67-1.682,2.39-1.721c13.709-.754,22.442,2.026,22.442,2.026S362.43,395.44,363.46,391.513Z" transform="translate(-349.413 -386.223)" fill="#ffa69e"/>
            </g>
          </g>
          <g id="Grupo_122154" data-name="Grupo 122154" transform="translate(0 68.56)">
            <g id="Grupo_122152" data-name="Grupo 122152" transform="translate(22.275 6.284)">
              <path id="Trazado_183932" data-name="Trazado 183932" d="M291.7,388.3l10.277-2.491a95.14,95.14,0,0,0,6.462,14.6,54.533,54.533,0,0,1-15.878-1.679A85.168,85.168,0,0,1,291.7,388.3Z" transform="translate(-291.705 -385.813)" fill="#ffa69e"/>
              <path id="Trazado_183933" data-name="Trazado 183933" d="M318.854,426.214c.883,1.115,1.8,2.211,2.773,3.274,4.879,5.357,17.124,15.107,9.832,22.254s-25.56-6.328-31.3-20.133c-.245-.589-.476-1.183-.7-1.777A40.884,40.884,0,0,0,318.854,426.214Z" transform="translate(-294.387 -399.788)" fill="#ffa69e"/>
              <path id="Trazado_183934" data-name="Trazado 183934" d="M293.022,405.56a54.532,54.532,0,0,0,15.878,1.679,82.429,82.429,0,0,0,7.728,11.831,40.883,40.883,0,0,1-19.394,3.618A80.81,80.81,0,0,1,293.022,405.56Z" transform="translate(-292.161 -392.643)" fill="#ffa69e"/>
            </g>
            <g id="Grupo_122153" data-name="Grupo 122153">
              <path id="Trazado_183935" data-name="Trazado 183935" d="M290.277,394.591a6.867,6.867,0,0,0,2.989-.96,6.061,6.061,0,0,0,2-3.539,24.587,24.587,0,0,0,.789-5.295,4.848,4.848,0,0,0-.243-2.043c-.555-1.347-2.06-2-3.441-2.465a55.469,55.469,0,0,0-8.621-2.153,7.992,7.992,0,0,0-5.058.345,5.965,5.965,0,0,0-2.028,1.92c-1.921,2.771-2.28,6.3-2.58,9.659a9.177,9.177,0,0,0,.341,4.465C276.332,398.932,286.759,395.145,290.277,394.591Z" transform="translate(-263.298 -376.791)" fill="#ffa69e"/>
              <path id="Trazado_183936" data-name="Trazado 183936" d="M271.67,381.554c-4.412-.311-13.928-1.923-14.017-3.551s1.684-1.668,2.4-1.7c13.714-.646,22.425,2.2,22.425,2.2S270.608,385.472,271.67,381.554Z" transform="translate(-257.65 -376.205)" fill="#ffa69e"/>
            </g>
            <path id="Trazado_183937" data-name="Trazado 183937" d="M276.7,384.164s12.223.948,12.674,2.146-12.414,3.518-12.414,3.518,11.221-1.083,12.037.551-11.808,4.01-11.808,4.01,9.494-1.733,11.015-.194-7.96,4.6-7.96,4.6" transform="translate(-264.241 -378.958)" fill="rgba(0,0,0,0)" stroke="#43314b" stroke-linecap="round" stroke-linejoin="round" stroke-width="1.289"/>
            <path id="Trazado_183938" data-name="Trazado 183938" d="M286.635,378.537a31.8,31.8,0,0,0-3.928,2.626,6.942,6.942,0,0,0-1.761,1.81,1.518,1.518,0,0,0-.082,1.722,1.735,1.735,0,0,0,1.448.393,13.3,13.3,0,0,0,8.268-3.565" transform="translate(-265.598 -377.012)" fill="#ffa69e" stroke="#43314b" stroke-miterlimit="10" stroke-width="1.01"/>
          </g>
          <path id="Trazado_183939" data-name="Trazado 183939" d="M366.437,310.71a5.793,5.793,0,0,1,4.286-.467,6.1,6.1,0,0,1,3.223,2.348" transform="translate(-295.28 -284.748)" fill="rgba(0,0,0,0)" stroke="#462255" stroke-miterlimit="10" stroke-width="1.082"/>
          <path id="Trazado_183940" data-name="Trazado 183940" d="M396.528,316.294c-.337.922-1.156,1.47-1.829,1.223a1.6,1.6,0,0,1-.608-2.115c.337-.922,1.156-1.469,1.829-1.223A1.6,1.6,0,0,1,396.528,316.294Z" transform="translate(-304.795 -286.17)" fill="#462255"/>
          <path id="Trazado_183941" data-name="Trazado 183941" d="M382.859,306.544q-2.174,4.462-4.036,9.068a10.259,10.259,0,0,1-3.272-.982,13.144,13.144,0,0,0,1.791,5.577" transform="translate(-298.432 -283.549)" fill="rgba(0,0,0,0)" stroke="#462255" stroke-miterlimit="10" stroke-width="1.03"/>
          <path id="Trazado_183942" data-name="Trazado 183942" d="M377.615,320.666a15.556,15.556,0,0,1-2.064-6.035,10.259,10.259,0,0,0,3.272.982q1.86-4.6,4.036-9.068a43.722,43.722,0,0,1-2.6,10.2A11.122,11.122,0,0,1,377.615,320.666Z" transform="translate(-298.432 -283.549)" fill="#ffa69e" opacity="0.3" style="mix-blend-mode: multiply;isolation: isolate"/>
          <g id="Grupo_122155" data-name="Grupo 122155" transform="translate(41.794 0.554)">
            <path id="Trazado_183943" data-name="Trazado 183943" d="M328.439,370.8s.823-2.678,1.907-3.49a2.6,2.6,0,0,1,3.611.324c.732,1.1.187,3.76-.409,4.939-1.644,3.25-3.588,5.16-5.8,8.054-3.161-3.949-6.494-8.411-6.183-13.459a2.129,2.129,0,0,1,.228-.955,1.827,1.827,0,0,1,1.756-.7,3.873,3.873,0,0,1,3.37,2.064A11.36,11.36,0,0,1,328.439,370.8Z" transform="translate(-321.545 -304.497)" fill="#ff8900"/>
            <path id="Trazado_183944" data-name="Trazado 183944" d="M443.266,277.226a4.791,4.791,0,0,1,1.015-1.858,1.384,1.384,0,0,1,1.923.173,3.44,3.44,0,0,1-.218,2.63,26.208,26.208,0,0,1-3.088,4.288c-1.682-2.1-3.458-4.479-3.291-7.167a1.127,1.127,0,0,1,.121-.508.974.974,0,0,1,.935-.374,2.062,2.062,0,0,1,1.794,1.1A6.038,6.038,0,0,1,443.266,277.226Z" transform="translate(-362.379 -272.987)" fill="#ff8900"/>
            <path id="Trazado_183945" data-name="Trazado 183945" d="M466.222,365.646a4.8,4.8,0,0,1,1.015-1.858,1.385,1.385,0,0,1,1.923.173,3.438,3.438,0,0,1-.218,2.63,26.239,26.239,0,0,1-3.087,4.288c-1.683-2.1-3.458-4.479-3.292-7.167a1.129,1.129,0,0,1,.122-.509.974.974,0,0,1,.935-.374,2.064,2.064,0,0,1,1.795,1.1A6.054,6.054,0,0,1,466.222,365.646Z" transform="translate(-370.319 -303.571)" fill="#ff8900"/>
            <path id="Trazado_183946" data-name="Trazado 183946" d="M460.343,293.085l8.945,13.884q-7.335-3.425-14.828-6.5l14.843-2.245c-3.76,3.355-6.362,7.793-9.606,11.264C459.734,306.054,460.343,293.085,460.343,293.085Z" transform="translate(-367.52 -279.448)" fill="#45c6e5"/>
            <path id="Trazado_183947" data-name="Trazado 183947" d="M342.351,272.236l-6.491,10.074q5.323-2.485,10.76-4.716l-10.77-1.629c2.728,2.435,4.616,5.655,6.97,8.174C342.792,281.646,342.351,272.236,342.351,272.236Z" transform="translate(-326.493 -272.236)" fill="#45c6e5"/>
            <path id="Trazado_183948" data-name="Trazado 183948" d="M448.086,326.865a10.85,10.85,0,0,0,.92-3.725,11,11,0,0,0,.735,2.592c.384.814.521,1.3,1.353,1.642a10.868,10.868,0,0,0,1.758.559c-3.3.128-3.629,5.049-3.629,5.049a17.108,17.108,0,0,0-1.289-3.835,8.321,8.321,0,0,0-2.341-1.3S447.81,327.337,448.086,326.865Z" transform="translate(-364.453 -289.844)" fill="#2df0da"/>
            <path id="Trazado_183949" data-name="Trazado 183949" d="M440.746,381.789a10.836,10.836,0,0,0,.92-3.725,10.994,10.994,0,0,0,.735,2.592c.384.814.52,1.3,1.353,1.642a10.865,10.865,0,0,0,1.758.559c-3.3.128-3.63,5.049-3.63,5.049a17.12,17.12,0,0,0-1.288-3.834,8.311,8.311,0,0,0-2.342-1.3S440.47,382.261,440.746,381.789Z" transform="translate(-361.914 -308.842)" fill="#2df0da"/>
          </g>
        </g>
      </g>
    </g>
  </g>
</svg>
