<svg xmlns="http://www.w3.org/2000/svg" width="307.35" height="208.348" viewBox="0 0 307.35 208.348">
  <g id="Grupo_128813" data-name="Grupo 128813" transform="translate(-981.623 -1558.463)">
    <path id="Rectángulo_37359" data-name="Rectángulo 37359" d="M80,0H295a0,0,0,0,1,0,0V120a80,80,0,0,1-80,80H0a0,0,0,0,1,0,0V80A80,80,0,0,1,80,0Z" transform="translate(982 1566.81)" fill="#2df0da"/>
    <g id="Grupo_125300" data-name="Grupo 125300" transform="translate(736.873 1206.876)">
      <g id="_ÎÓÈ_4" data-name="—ÎÓÈ_4" transform="translate(307.404 352.753)">
        <path id="Trazado_185323" data-name="Trazado 185323" d="M882.083,796.355c-1.085-3.719-5.429-8.543-10.325-13.5-6.616-6.7-14.33-13.637-17.229-18.411-6.074-10.005-8.625-16.916-15.827-26.177-5.921-7.612-17.325-9.608-17.325-9.608a8.889,8.889,0,0,0-5.755-3.871c-17.086-2.441-36.367-3.169-53.527-.717-6.718.96-19.7,4.247-19.7,4.247s-3.062,1.186-4.316,1.648c-6.87,2.53-11.13,5.93-14.659,12.032-3.475,6.009-5.993,13.875-9.948,19.817a52.9,52.9,0,0,1-6.254,7.379c-4.9,4.773-9.017,10.651-13.26,17.724-2.168,3.611-5.092,9.537-5.843,13.341-1.133,5.735,2.542,14.574,5.482,19.386,4.435,7.257,17.375,1.4,22.5-2.441a89.906,89.906,0,0,0,7.063-6.112c.917-.917,4.007-4.415,4.007-4.415s.573,4.4.883,5.637c1.2,4.812.951,11.33.951,16.368,0,11.789-2.446,17.515-2.446,29.2,0,3.643,1.843,14.65,1.679,20.57H829.561c-.588-6.2-2.7-14.834-2.7-19.016,0-4.975,1.716-10.1,1.709-14.364-.012-6.418-.1-10.466-.526-16.572-.349-4.963,1.509-9.663,1.63-15.742.109-5.42.6-25.292.6-25.292s4.533,5.429,5.3,6.633c.9,1.415,6.112,9,6.634,9.589,5.73,6.47,3.806,5.94,9.922,11.483,4.482,4.061,14.117,6.419,19.933,6.169a5.576,5.576,0,0,0,4.929-2.657C881.8,812.5,883.628,801.65,882.083,796.355Z" transform="translate(-687.906 -671.274)" fill="#edffd5" fill-rule="evenodd"/>
        <path id="Trazado_185324" data-name="Trazado 185324" d="M1176.891,596.476c-2.5,2.192-5.052,6.054-7.366,8.366-3.789,3.79-8.854,6.159-10.174,10.855-1.768,6.289,1.146,15.058,3.382,20.8,2.556,6.567,7.727,14.615,13.921,18.155,3.283,1.876,8.054,3.47,11.828,3.348a24.789,24.789,0,0,0,9.39-2.727c2.987-1.6,12.019-10.122,13.918-15.25,3.429-9.261,7.047-21.629,2.181-31.36-4.989-9.98-14.1-14.1-24.851-14.1C1186.028,594.568,1179.464,594.221,1176.891,596.476Z" transform="translate(-1092.23 -561.365)" fill="#fddab1" fill-rule="evenodd"/>
        <path id="Trazado_185325" data-name="Trazado 185325" d="M1007.1,640.254s4.678-5.972,7.17-9.418a45.232,45.232,0,0,0,5.247-9.166c3.822-10.417.571-20-1.425-30.979-.733-4.036-4.067-14.646-9.112-15.655-2.516-.5-2.39,5.364-3.269,8.44-1.439,5.03-2.468,9.864-2.017,12.746.2,1.268,1.545,6.837,1.545,7.383,0,4.765,2.439,10.107-.294,14.054-3.495,5.047-11.654,15.051-11.654,15.051a17.876,17.876,0,0,0,5.6,5.084A26.826,26.826,0,0,0,1007.1,640.254Z" transform="translate(-950.117 -544.584)" fill="#fddab1" fill-rule="evenodd"/>
        <path id="Trazado_185326" data-name="Trazado 185326" d="M1542.527,636.421s-8.918-11.143-11.009-14.487c-7.962-12.74-.194-26.22,2.087-39.909.7-4.221,1.182-7.859,3.107-11.708.149-.3,1.9-5.49,2.335-5.4,2.336.467,2.277,4.109,2.554,5.328a64.889,64.889,0,0,1,1.1,20.167c-.555,4.81-2.349,12.619-1.152,17.007a21.272,21.272,0,0,0,7.272,11.174c1.1.825,6.429,5.46,6.429,5.46a17.455,17.455,0,0,1-4.271,7.045A32.522,32.522,0,0,1,1542.527,636.421Z" transform="translate(-1409.236 -535.918)" fill="#fddab1" fill-rule="evenodd"/>
        <path id="Trazado_185327" data-name="Trazado 185327" d="M1120.087,416.12c5.23.548,8.094-5.258,10.973-9.167.879-1.193,3.246-9.166,6.444-9.826,2.142-.443-4.151,10,1.681,15.084s9.834,2.926,9.834,2.926,4.842,2.047,5.534,1.338c1.331-1.363-2.966-5-3.466-8.684-.906-6.685,1.006-13.958,1.41-11.321.627,4.092,1.488,7.795,3.9,10.21,4.192,4.193,6.38,6.537,13.07,7.965a61.9,61.9,0,0,0,7,.974s3.1-5.679,3.856-8.592c.7-2.671-.1-7.934-.007-9.19a30.8,30.8,0,0,1,1.391-6.651,13.955,13.955,0,0,0,1.161-4.429,20.021,20.021,0,0,0-2.176-10.914,21.123,21.123,0,0,0-9.134-9.05,28.972,28.972,0,0,0-6.345-2.307c-4.191-.7-6.117.936-10.219-.09-3.167-.792-6.808-3.559-10.389-4.276-12.981-2.6-30.158,13.191-31.844,24.989a76.491,76.491,0,0,0-.018,9.8,19.219,19.219,0,0,1,.6,2.674,56.484,56.484,0,0,0,3.489,11.313C1118.254,412.42,1120.087,416.12,1120.087,416.12Z" transform="translate(-1052.541 -359.835)" fill="#12263f" fill-rule="evenodd"/>
      </g>
      <g id="_ÎÓÈ_2_1_" data-name="—ÎÓÈ_2_1_" transform="translate(244.75 351.587)">
        <g id="Grupo_125262" data-name="Grupo 125262" transform="translate(182.099 32.968)">
          <path id="Trazado_185328" data-name="Trazado 185328" d="M1546.617,653.944a.491.491,0,0,1-.409-.22c-1.156-1.755-2.864-3.847-4.674-6.062-2.85-3.49-5.8-7.1-7.227-10.129-2.515-5.333-1.449-11.471-.507-16.887.138-.793.274-1.576.4-2.348a46.085,46.085,0,0,1,4.465-13.622c2.529-4.615,2.381-7.842,2.193-11.929l-.02-.448c-.19-4.2.255-6.664,1.324-7.33a1.417,1.417,0,0,1,1.511.037c1.682.921,2.117,4.041,2.537,7.059.094.677.185,1.334.288,1.928a48.053,48.053,0,0,1,.872,12.153c-.228,2.237-.59,4.243-.94,6.183-.956,5.3-1.782,9.883,1.046,15.8,1.624,3.4,8.533,10.43,11.991,12.63a.489.489,0,0,1-.526.826c-3.634-2.312-10.633-9.443-12.348-13.034-2.964-6.2-2.112-10.927-1.125-16.4.346-1.922.705-3.909.93-6.109a47.259,47.259,0,0,0-.863-11.886c-.105-.6-.2-1.271-.294-1.96-.351-2.518-.786-5.651-2.037-6.336-.335-.184-.472-.1-.523-.064-.544.339-1.056,2.213-.865,6.456l.021.447c.194,4.24.348,7.588-2.313,12.444a44.992,44.992,0,0,0-4.356,13.307c-.125.776-.262,1.564-.4,2.361-.961,5.53-1.955,11.249.428,16.3,1.378,2.922,4.287,6.483,7.1,9.928,1.825,2.235,3.549,4.346,4.734,6.142a.489.489,0,0,1-.409.759Z" transform="translate(-1532.749 -584.771)" fill="#12263f"/>
        </g>
        <g id="Grupo_125263" data-name="Grupo 125263" transform="translate(119.069 37.68)">
          <path id="Trazado_185329" data-name="Trazado 185329" d="M1087.422,677.529a.483.483,0,0,1-.269-.081.489.489,0,0,1-.138-.679c1.529-2.311,3.391-4.645,5.193-6.9,3.354-4.2,6.524-8.175,7.345-11.625,1.012-4.252.323-7.806-.55-12.306l-.151-.778c-.872-4.514-1.624-8.413-3.63-12.282a36.824,36.824,0,0,1-3.109-9.735c-.135-.636-.266-1.25-.4-1.837l-.042-.189c-.094-.435-.38-1.76-.818-2.01a.185.185,0,0,0-.168-.01c-.663.221-.883,2.05-.977,2.831l-.05.391a22.756,22.756,0,0,0,.52,7.7,39.747,39.747,0,0,1,.689,4.861.489.489,0,1,1-.977.061,38.962,38.962,0,0,0-.675-4.744,23.531,23.531,0,0,1-.526-8.019l.047-.37c.145-1.206.388-3.225,1.639-3.642a1.157,1.157,0,0,1,.962.088c.719.409,1.045,1.517,1.29,2.653l.039.176c.137.592.269,1.211.4,1.853a36.018,36.018,0,0,0,3.021,9.488c2.071,4,2.836,7.958,3.722,12.547l.151.777c.9,4.616,1.6,8.261.541,12.719-.872,3.663-4.107,7.717-7.532,12.009-1.788,2.24-3.637,4.557-5.141,6.832A.491.491,0,0,1,1087.422,677.529Z" transform="translate(-1086.932 -618.101)" fill="#12263f"/>
        </g>
        <g id="Grupo_125264" data-name="Grupo 125264" transform="translate(117.013 31.01)">
          <path id="Trazado_185330" data-name="Trazado 185330" d="M1074.2,596.025a.49.49,0,0,1-.488-.459,39.915,39.915,0,0,0-.657-4.69c-.558-3.07-1.085-5.97-.155-9.341.384-1.393.65-2.926.907-4.408.6-3.429,1.066-6.136,2.787-6.2a1.45,1.45,0,0,1,1.215.593c1.264,1.553,1.061,5.926,1.013,6.119a.489.489,0,0,1-.955-.212c.06-.471.078-4.306-.854-5.333a.477.477,0,0,0-.381-.19c-.93.036-1.424,2.881-1.86,5.392-.261,1.506-.532,3.062-.928,4.5-.87,3.155-.363,5.948.174,8.906a40.692,40.692,0,0,1,.671,4.8.489.489,0,0,1-.458.519Z" transform="translate(-1072.39 -570.923)" fill="#12263f"/>
        </g>
        <g id="Grupo_125265" data-name="Grupo 125265" transform="translate(105.176 43.224)">
          <path id="Trazado_185331" data-name="Trazado 185331" d="M989.157,703.846a.489.489,0,0,1-.386-.79c1.119-1.436,2.442-2.978,3.843-4.61,4.16-4.847,8.875-10.341,9.212-14.381.283-3.395-.517-7-1.291-10.483-1.189-5.356-2.419-10.9.135-16a.489.489,0,1,1,.875.438c-2.4,4.8-1.26,9.923-.054,15.352.789,3.556,1.606,7.233,1.31,10.776-.363,4.356-5.187,9.977-9.444,14.937-1.393,1.623-2.709,3.156-3.814,4.574A.489.489,0,0,1,989.157,703.846Z" transform="translate(-988.668 -657.312)" fill="#12263f"/>
        </g>
        <g id="Grupo_125266" data-name="Grupo 125266" transform="translate(192.167 29.604)">
          <path id="Trazado_185332" data-name="Trazado 185332" d="M1607.884,578.708a.48.48,0,0,1-.485-.444c-.768-10.7-1.154-16.063-3.019-16.312a.489.489,0,1,1,.13-.97c2.654.354,2.984,4.938,3.864,17.191a.5.5,0,0,1-.452.533Z" transform="translate(-1603.955 -560.978)" fill="#12263f"/>
        </g>
        <g id="Grupo_125267" data-name="Grupo 125267" transform="translate(104.209 85.044)">
          <path id="Trazado_185333" data-name="Trazado 185333" d="M998.4,965.615a15.7,15.7,0,0,1-4.552-.863c-6.732-2.124-10.377-5.625-11.544-8.193a3.872,3.872,0,0,1-.25-3.156.489.489,0,1,1,.9.392,2.993,2.993,0,0,0,.245,2.359c1.079,2.376,4.523,5.637,10.947,7.665,3.294,1.038,5.529,1.082,6.465.123s.474-2.793.125-3.809a.489.489,0,1,1,.925-.317c.516,1.5.874,3.554-.35,4.81A3.883,3.883,0,0,1,998.4,965.615Z" transform="translate(-981.824 -953.109)" fill="#12263f"/>
        </g>
        <g id="Grupo_125268" data-name="Grupo 125268" transform="translate(190.485 85.067)">
          <path id="Trazado_185334" data-name="Trazado 185334" d="M1596.324,970.573a4.257,4.257,0,0,1-3.127-1.306c-1.044-1.149-1.371-2.9-.974-5.212a.49.49,0,0,1,.965.166c-.344,2-.1,3.474.733,4.387a3.274,3.274,0,0,0,2.638.978c3.448-.26,10.692-5.925,12.881-10.868.856-1.936.834-3.5-.068-4.662a.489.489,0,1,1,.772-.6c1.125,1.444,1.19,3.4.19,5.659-2.366,5.345-9.967,11.166-13.7,11.449C1596.533,970.57,1596.43,970.573,1596.324,970.573Z" transform="translate(-1592.06 -953.266)" fill="#12263f"/>
        </g>
        <g id="Grupo_125269" data-name="Grupo 125269" transform="translate(100.821 139.201)">
          <path id="Trazado_185335" data-name="Trazado 185335" d="M958.872,1394.438a55.649,55.649,0,0,1,.683,10.873h.981a56.522,56.522,0,0,0-.695-11.007l-.3-2.207c-.75-5.575-1.092-8.119-.033-16.462.11-.866.222-1.721.334-2.574,1.209-9.216,2.35-17.921.4-36.458a.489.489,0,1,0-.973.1c1.932,18.423.8,27.072-.4,36.229-.112.853-.224,1.711-.335,2.578-1.075,8.469-.728,11.053.034,16.714Z" transform="translate(-957.861 -1336.166)" fill="#12263f"/>
        </g>
        <g id="Grupo_125270" data-name="Grupo 125270" transform="translate(200.984 122.804)">
          <path id="Trazado_185336" data-name="Trazado 185336" d="M1667.607,1295.96c.548,3.1,1.106,6.264,1.411,9.771h.977c-.313-3.651-.889-6.919-1.423-9.941-.514-2.907-1-5.653-1.215-8.431a34.661,34.661,0,0,1,.757-8.6,50.989,50.989,0,0,0,.8-6.04,89.382,89.382,0,0,0-.205-9.84,90.815,90.815,0,0,1-.218-9.528,57.432,57.432,0,0,1,.8-6.438c.3-1.858.615-3.78.757-5.707.525-7.185.566-17.532.566-20.532a.489.489,0,0,0-.979,0c0,2.991-.041,13.309-.564,20.461-.138,1.884-.446,3.784-.745,5.62a57.943,57.943,0,0,0-.809,6.549,91.548,91.548,0,0,0,.217,9.63,88.731,88.731,0,0,1,.206,9.732,50.289,50.289,0,0,1-.787,5.924,35.388,35.388,0,0,0-.767,8.839C1666.6,1290.259,1667.089,1293.029,1667.607,1295.96Z" transform="translate(-1666.323 -1220.187)" fill="#12263f"/>
        </g>
        <g id="Grupo_125271" data-name="Grupo 125271" transform="translate(152.545 100.885)">
          <path id="Trazado_185337" data-name="Trazado 185337" d="M1324.549,1147.359c-.438,8.128-.884,16.459-.836,25.256h.979c-.048-8.772.4-17.089.834-25.2.2-3.731.391-7.255.529-10.76a160.373,160.373,0,0,0-.725-20.707,105.646,105.646,0,0,1-.566-11.514c.083-2.831.429-6.2.83-10.1.835-8.137,1.876-18.263.962-28.728a.489.489,0,1,0-.975.086c.905,10.371-.13,20.446-.96,28.542-.4,3.923-.751,7.31-.835,10.176a106.462,106.462,0,0,0,.57,11.624,159.411,159.411,0,0,1,.722,20.588C1324.94,1140.113,1324.75,1143.632,1324.549,1147.359Z" transform="translate(-1323.71 -1065.153)" fill="#12263f"/>
        </g>
        <g id="Grupo_125272" data-name="Grupo 125272" transform="translate(62.305 84.39)">
          <path id="Trazado_185338" data-name="Trazado 185338" d="M699.369,1017.684q-.485,0-.961-.037a9.933,9.933,0,0,1-7.09-3.657c-2.875-3.449-4.113-7.726-5.047-11.464a21.3,21.3,0,0,1-.415-10.028c2.085-9.382,10.486-15.244,18.611-20.913a77.507,77.507,0,0,0,10.355-8.082,90.319,90.319,0,0,0,5.942-6.9,90.567,90.567,0,0,1,6.015-6.983,4.689,4.689,0,0,1,3.709-1.1.489.489,0,0,1-.144.968,3.746,3.746,0,0,0-2.873.822,90.219,90.219,0,0,0-5.945,6.9,90.684,90.684,0,0,1-6.012,6.98,78.113,78.113,0,0,1-10.488,8.193c-7.97,5.562-16.213,11.313-18.214,20.323a20.364,20.364,0,0,0,.409,9.579c.908,3.633,2.107,7.785,4.85,11.075a8.986,8.986,0,0,0,6.415,3.309c6.095.488,13.739-4.129,18.419-8.222a36.906,36.906,0,0,0,3.819-3.737,99.965,99.965,0,0,0,9.957-14.476l.96-1.588c3.8-6.284,8.5-15.728,10.672-20.317.531-1.122,1.083-2.19,1.611-3.209,1.913-3.7,3.424-6.619,2.549-9.247a.489.489,0,1,1,.928-.31c1.007,3.021-.668,6.258-2.608,10.007-.522,1.009-1.069,2.066-1.6,3.178-2.71,5.722-7.143,14.5-10.719,20.4l-.958,1.587a100.751,100.751,0,0,1-10.049,14.6,37.631,37.631,0,0,1-3.921,3.84C712.964,1013.2,705.594,1017.684,699.369,1017.684Z" transform="translate(-685.436 -948.48)" fill="#12263f"/>
        </g>
        <g id="Grupo_125273" data-name="Grupo 125273" transform="translate(190.344 58.533)">
          <path id="Trazado_185339" data-name="Trazado 185339" d="M1646.568,858.7c-.33,0-.665-.017-1.008-.052-6.043-.6-12.487-1.821-18.672-6.6-3.48-2.687-6.9-7.634-9.642-11.609-.528-.764-1.03-1.492-1.5-2.16a176.808,176.808,0,0,0-11.967-15.478c-.961-1.068-2.07-2.234-3.214-3.437-2.193-2.305-4.459-4.69-6.113-6.816-2.707-3.483-4.07-5.5-3.039-9.783a.49.49,0,1,1,.952.229c-.931,3.863.2,5.536,2.859,8.954,1.624,2.088,3.873,4.453,6.05,6.741,1.151,1.209,2.266,2.383,3.233,3.456a178.244,178.244,0,0,1,12.038,15.568c.475.671.979,1.4,1.51,2.169,2.707,3.918,6.075,8.8,9.435,11.391,5.99,4.63,12.274,5.813,18.172,6.4,5.078.507,8.615-3.321,10.821-11.7,2.431-9.242,1.092-14.62-5.309-21.312-2.3-2.4-4.679-4.765-6.982-7.051a178.224,178.224,0,0,1-14.443-15.527c-2.738-3.451-4.869-7.746-7.126-12.294-1.578-3.181-3.21-6.47-5.12-9.585-3.7-6.032-9.543-10.371-18.4-13.656a.489.489,0,0,1,.34-.918c9.071,3.365,15.074,7.833,18.892,14.062,1.932,3.152,3.573,6.461,5.162,9.66,2.233,4.5,4.343,8.751,7.016,12.121a177.761,177.761,0,0,0,14.366,15.441c2.308,2.29,4.694,4.657,7,7.068,6.684,6.988,8.084,12.6,5.548,22.237C1655.219,854.6,1651.661,858.7,1646.568,858.7Z" transform="translate(-1591.065 -765.596)" fill="#12263f"/>
        </g>
        <g id="Grupo_125274" data-name="Grupo 125274" transform="translate(66.62 59.118)">
          <path id="Trazado_185340" data-name="Trazado 185340" d="M716.449,831.322a.489.489,0,0,1-.444-.694c2.652-5.756,7.944-12.674,10.486-16l.47-.615c1.444-1.9,3.063-3.653,4.628-5.351a50.549,50.549,0,0,0,6.447-8.041,74.99,74.99,0,0,0,4.13-8.636,69.863,69.863,0,0,1,3.966-8.292l.151-.249c2.864-4.728,4.933-8.144,15.965-13.66a.489.489,0,1,1,.438.875c-10.779,5.389-12.787,8.7-15.565,13.292l-.151.249a69.211,69.211,0,0,0-3.9,8.171,75.607,75.607,0,0,1-4.19,8.754,51.327,51.327,0,0,1-6.567,8.2c-1.55,1.682-3.153,3.421-4.569,5.28l-.471.616c-2.521,3.3-7.768,10.156-10.375,15.814A.488.488,0,0,1,716.449,831.322Z" transform="translate(-715.96 -769.734)" fill="#12263f"/>
        </g>
        <g id="Grupo_125275" data-name="Grupo 125275" transform="translate(206.18 84.827)">
          <path id="Trazado_185341" data-name="Trazado 185341" d="M1753.7,994.13a.489.489,0,0,1-.435-.265c-5.32-10.277-12.519-13.814-18.3-16.656a39.216,39.216,0,0,1-6.048-3.4A98.157,98.157,0,0,1,1715.2,961.9c-.622-.665-1.3-1.442-2.015-2.261-2.921-3.348-6.915-7.93-9.441-6.938a.489.489,0,1,1-.359-.91c3.157-1.252,7.08,3.241,10.538,7.2.706.81,1.377,1.578,1.992,2.235a97.206,97.206,0,0,0,13.59,11.79,38.491,38.491,0,0,0,5.894,3.311c5.913,2.905,13.271,6.52,18.74,17.085a.49.49,0,0,1-.21.659A.483.483,0,0,1,1753.7,994.13Z" transform="translate(-1703.075 -951.576)" fill="#12263f"/>
        </g>
        <g id="Grupo_125276" data-name="Grupo 125276" transform="translate(158.009 65.038)">
          <path id="Trazado_185342" data-name="Trazado 185342" d="M1362.866,823.5a.489.489,0,0,1-.346-.835c.162-.162.325-.312.482-.457.784-.721,1.256-1.157,1.021-2.378a6.112,6.112,0,0,0-.6-1.447c-.763-1.507-1.806-3.57-.311-6.506a.489.489,0,0,1,.872.444c-1.269,2.492-.429,4.154.313,5.62a6.84,6.84,0,0,1,.687,1.7,3.133,3.133,0,0,1-1.319,3.282c-.147.136-.3.277-.453.43A.488.488,0,0,1,1362.866,823.5Z" transform="translate(-1362.352 -811.607)" fill="#12263f"/>
        </g>
        <g id="Grupo_125277" data-name="Grupo 125277" transform="translate(152.478 86.297)">
          <path id="Trazado_185343" data-name="Trazado 185343" d="M1335.289,963.9a.473.473,0,0,1-.158-.026,18.442,18.442,0,0,0-11.238-.088.489.489,0,1,1-.336-.919,19.22,19.22,0,0,1,11.89.082.489.489,0,0,1-.158.952Z" transform="translate(-1323.236 -961.97)" fill="#12263f"/>
        </g>
        <g id="Grupo_125278" data-name="Grupo 125278" transform="translate(141.315 64.991)">
          <path id="Trazado_185344" data-name="Trazado 185344" d="M1251.473,813.068a.493.493,0,0,1-.232-.059,7.844,7.844,0,0,0-6.307-.2.489.489,0,0,1-.327-.922,8.816,8.816,0,0,1,7.1.264.489.489,0,0,1-.233.92Z" transform="translate(-1244.28 -811.272)" fill="#12263f"/>
        </g>
        <g id="Grupo_125279" data-name="Grupo 125279" transform="translate(140.435 59.062)">
          <path id="Trazado_185345" data-name="Trazado 185345" d="M1243,771.587a13.646,13.646,0,0,1-4.626-.833.489.489,0,1,1,.351-.914c2.187.841,6.276,1.3,8.11-.379a.489.489,0,0,1,.661.722A6.613,6.613,0,0,1,1243,771.587Z" transform="translate(-1238.057 -769.333)" fill="#12263f"/>
        </g>
        <path id="Trazado_185346" data-name="Trazado 185346" d="M1445.651,796.941a1.941,1.941,0,1,1,1.794,2.382A2.127,2.127,0,0,1,1445.651,796.941Z" transform="translate(-1275.863 -732.092)" fill="#12263f" fill-rule="evenodd"/>
        <g id="Grupo_125280" data-name="Grupo 125280" transform="translate(166.038 58.235)">
          <path id="Trazado_185347" data-name="Trazado 185347" d="M1424.243,766.135a6.7,6.7,0,0,1-4.942-1.8.489.489,0,1,1,.663-.719c1.953,1.8,3.948,1.75,8.039,1.2a.489.489,0,0,1,.132.97A30.162,30.162,0,0,1,1424.243,766.135Z" transform="translate(-1419.143 -763.484)" fill="#12263f"/>
        </g>
        <g id="Grupo_125281" data-name="Grupo 125281" transform="translate(132.139 74.463)">
          <path id="Trazado_185348" data-name="Trazado 185348" d="M1205.424,901.939a21.456,21.456,0,0,1-10.089-2.6c-8.374-4.408-14.042-13.452-15.943-20.461a.489.489,0,0,1,.944-.256c1.846,6.8,7.341,15.58,15.454,19.851a20.144,20.144,0,0,0,16.628,1.247c6.634-2.323,13.051-8.753,16.746-16.78a.489.489,0,1,1,.889.409c-3.8,8.26-10.436,14.887-17.312,17.294A22.047,22.047,0,0,1,1205.424,901.939Z" transform="translate(-1179.375 -878.265)" fill="#12263f"/>
        </g>
        <g id="Grupo_125282" data-name="Grupo 125282" transform="translate(165.414)">
          <path id="Trazado_185349" data-name="Trazado 185349" d="M1415.219,357.837a.473.473,0,0,1-.091-.009.489.489,0,0,1-.391-.571c.6-3.207,3.242-6.182,6.623-5.6a.489.489,0,1,1-.166.964c-2.786-.478-4.981,2.072-5.5,4.813A.489.489,0,0,1,1415.219,357.837Z" transform="translate(-1414.729 -351.587)" fill="#12263f"/>
        </g>
        <g id="Grupo_125283" data-name="Grupo 125283" transform="translate(153.425 26.697)">
          <path id="Trazado_185350" data-name="Trazado 185350" d="M1339.032,572.323a.486.486,0,0,1-.113-.013c-3.118-.739-5.709-3.323-7.3-7.277-2.983-7.422-1.932-17.454,2.553-24.4a.489.489,0,0,1,.822.531c-4.822,7.461-4.891,17.469-2.468,23.5,1.467,3.65,3.817,6.026,6.616,6.69a.489.489,0,0,1-.113.965Z" transform="translate(-1329.935 -540.413)" fill="#12263f"/>
        </g>
        <g id="Grupo_125284" data-name="Grupo 125284" transform="translate(162.544 37.637)">
          <path id="Trazado_185351" data-name="Trazado 185351" d="M1415,637.023c-8.128,0-19.906-7.087-20.567-18.71a.489.489,0,0,1,.461-.516.479.479,0,0,1,.516.461c.642,11.273,12.3,18.044,20.047,17.778a.458.458,0,0,1,.507.471.489.489,0,0,1-.471.506Q1415.247,637.023,1415,637.023Z" transform="translate(-1394.43 -617.797)" fill="#12263f"/>
        </g>
        <g id="Grupo_125285" data-name="Grupo 125285" transform="translate(129.903 42.047)">
          <path id="Trazado_185352" data-name="Trazado 185352" d="M1164.052,664.813a.489.489,0,0,1-.032-.978c5.9-.386,11.835-9.847,12.555-14.435a.489.489,0,1,1,.967.152c-.78,4.974-7,14.838-13.458,15.26Z" transform="translate(-1163.563 -648.987)" fill="#12263f"/>
        </g>
        <g id="Grupo_125286" data-name="Grupo 125286" transform="translate(146.554 34.62)">
          <path id="Trazado_185353" data-name="Trazado 185353" d="M1287.328,618.176a.493.493,0,0,1-.219-.052,10.188,10.188,0,0,1-5.421-7.05c-1.068-4.547.3-10.076,3.582-14.427a.489.489,0,1,1,.782.589c-3.108,4.126-4.415,9.342-3.411,13.615a9.238,9.238,0,0,0,4.906,6.4.489.489,0,0,1-.219.927Z" transform="translate(-1281.331 -596.452)" fill="#12263f"/>
        </g>
        <g id="Grupo_125287" data-name="Grupo 125287" transform="translate(121.99 0.956)">
          <path id="Trazado_185354" data-name="Trazado 185354" d="M1108.9,396.034a.489.489,0,0,1-.463-.33,14.091,14.091,0,0,1-.525-3.446c-.036-.512-.07-1-.127-1.442-2.191-16.858,14.831-30.506,27.051-32.135,6.687-.892,10.043-.05,13.305,3.339a.489.489,0,0,1-.705.678c-2.606-2.707-5.361-4-12.47-3.048-11.972,1.6-28.252,15.333-26.21,31.039.059.457.1.968.133,1.5a13.228,13.228,0,0,0,.474,3.2.489.489,0,0,1-.462.648Z" transform="translate(-1107.59 -358.349)" fill="#12263f"/>
        </g>
        <g id="Grupo_125288" data-name="Grupo 125288" transform="translate(169.564 5.08)">
          <path id="Trazado_185355" data-name="Trazado 185355" d="M1466.129,416.517a.48.48,0,0,1-.191-.039.488.488,0,0,1-.259-.642c2.8-6.587,1.3-14.109-4.028-20.121-4.937-5.575-11.746-8.316-16.941-6.815a.489.489,0,1,1-.271-.94c5.549-1.6,12.761,1.254,17.944,7.107,5.581,6.3,7.15,14.21,4.2,21.154A.489.489,0,0,1,1466.129,416.517Z" transform="translate(-1444.085 -387.518)" fill="#12263f"/>
        </g>
        <g id="Grupo_125289" data-name="Grupo 125289" transform="translate(162.235 10.176)">
          <path id="Trazado_185356" data-name="Trazado 185356" d="M1393.023,435.882a.49.49,0,0,1-.475-.37c-.81-3.237.062-8.6,1.906-11.711a.489.489,0,1,1,.841.5,17.127,17.127,0,0,0-1.8,10.974.49.49,0,0,1-.356.594A.481.481,0,0,1,1393.023,435.882Z" transform="translate(-1392.245 -423.561)" fill="#12263f"/>
        </g>
        <g id="Grupo_125290" data-name="Grupo 125290" transform="translate(96.007 94.638)">
          <path id="Trazado_185357" data-name="Trazado 185357" d="M938.689,1036.661a.23.23,0,0,1-.038,0c-7.107-.546-14.039-7.628-14.835-15.156a.489.489,0,1,1,.973-.1c.751,7.1,7.263,13.771,13.936,14.285a.489.489,0,0,1-.037.977Z" transform="translate(-923.813 -1020.962)" fill="#12263f"/>
        </g>
        <g id="Grupo_125291" data-name="Grupo 125291" transform="translate(200.351 98.414)">
          <path id="Trazado_185358" data-name="Trazado 185358" d="M1662.33,1062.365a.489.489,0,0,1-.04-.977c8.564-.715,13.6-5.309,14.575-13.286a.489.489,0,1,1,.971.119c-1.034,8.494-6.382,13.385-15.464,14.142Z" transform="translate(-1661.841 -1047.672)" fill="#12263f"/>
        </g>
        <g id="Grupo_125292" data-name="Grupo 125292" transform="translate(128.938 81.991)">
          <path id="Trazado_185359" data-name="Trazado 185359" d="M1158.56,944.729a1.679,1.679,0,0,1-1.543-.759c-.514-.837-.232-2.549.157-4.917a25.25,25.25,0,0,0,.514-6.983.489.489,0,0,1,.969-.135,25.9,25.9,0,0,1-.518,7.277c-.3,1.83-.612,3.721-.288,4.247.2.335.979.68,3.867-.778l.239-.118a15.529,15.529,0,0,0,2.327-1.42c1.672-1.166,3.248-2.269,5.95-1.368a.489.489,0,1,1-.31.928c-2.232-.746-3.49.132-5.081,1.242a16.424,16.424,0,0,1-2.473,1.5l-.211.105A9.209,9.209,0,0,1,1158.56,944.729Z" transform="translate(-1156.737 -931.512)" fill="#12263f"/>
        </g>
        <g id="Grupo_125293" data-name="Grupo 125293" transform="translate(171.096 85.532)">
          <path id="Trazado_185360" data-name="Trazado 185360" d="M1464.921,968.251a5.06,5.06,0,0,1-2.5-1.359c-1.718-1.31-4.066-3.1-6.878-2.295a.489.489,0,0,1-.269-.94c3.279-.944,5.966,1.1,7.741,2.457.745.569,1.676,1.275,1.977,1.145.053-.022.326-.192.487-1.394.183-1.382-.292-5.052-.713-8.29l-.06-.463a.49.49,0,1,1,.971-.126l.06.463c.448,3.459.913,7.036.712,8.546-.169,1.26-.5,1.929-1.082,2.169A1.159,1.159,0,0,1,1464.921,968.251Z" transform="translate(-1454.921 -956.559)" fill="#12263f"/>
        </g>
        <g id="Grupo_125294" data-name="Grupo 125294" transform="translate(150.597 58.73)">
          <path id="Trazado_185361" data-name="Trazado 185361" d="M1310.416,769.512a.489.489,0,0,1-.346-.835c.46-.459,1.279-1.491,1.287-1.5a.489.489,0,1,1,.766.608c-.035.044-.863,1.086-1.362,1.585A.488.488,0,0,1,1310.416,769.512Z" transform="translate(-1309.927 -766.99)" fill="#12263f"/>
        </g>
        <g id="Grupo_125295" data-name="Grupo 125295" transform="translate(134.594 65.687)">
          <path id="Trazado_185362" data-name="Trazado 185362" d="M1198.651,824.9a1.857,1.857,0,0,1-.466-.063c-1.982-.514-1.5-3.34-1.026-6.073.13-.758.253-1.475.324-2.131a.489.489,0,1,1,.973.105c-.075.687-.206,1.452-.333,2.192-.376,2.19-.8,4.672.307,4.961.309.08.4-.008.432-.042.285-.274.487-1.235-.17-4.257a.49.49,0,0,1,.957-.208c.451,2.073.79,4.308-.108,5.171A1.245,1.245,0,0,1,1198.651,824.9Z" transform="translate(-1196.74 -816.193)" fill="#12263f"/>
        </g>
        <g id="Grupo_125296" data-name="Grupo 125296" transform="translate(0 45.02)">
          <path id="Trazado_185363" data-name="Trazado 185363" d="M245.239,671.13a.489.489,0,0,1,0-.979l112.562-.136a.5.5,0,0,1,.5.489.48.48,0,0,1-.478.489l-3.982,0-108.6.131Z" transform="translate(-244.75 -670.016)" fill="#12263f"/>
        </g>
        <g id="Grupo_125297" data-name="Grupo 125297" transform="translate(199.636 44.474)">
          <path id="Trazado_185364" data-name="Trazado 185364" d="M1657.273,667.261a.489.489,0,0,1,0-.979l106.735-.129h0a.489.489,0,0,1,0,.979l-106.735.129Z" transform="translate(-1656.784 -666.153)" fill="#12263f"/>
        </g>
        <g id="Grupo_125298" data-name="Grupo 125298" transform="translate(200.206 23.986)">
          <path id="Trazado_185365" data-name="Trazado 185365" d="M1683.775,558.737a.686.686,0,0,1-.19-.027c-.983-.289-1.327-2.766-2.08-11.76-.416-4.96-.929-11.08-1.674-12.363-.466.963-.862,4.8-1.132,7.41-.6,5.775-.908,7.984-1.841,8.278a.788.788,0,0,1-.867-.306c-.957-1.107-1.381-5.423-1.965-12.4-.362-4.317-.9-10.762-1.66-11.709-.6.829-1.118,5.507-1.5,8.964-.635,5.788-1.124,9.663-2.095,10.75a.944.944,0,0,1-1.007.371c-.9-.27-1.229-1.9-1.815-5.827-.288-1.934-.77-5.171-1.3-5.46-.55.2-1.113,3.9-1.416,5.884-.41,2.691-.8,5.233-1.539,6.189a.49.49,0,0,1-.774-.6c.586-.755.989-3.4,1.345-5.737.628-4.117,1.042-6.457,2.255-6.691a.9.9,0,0,1,.7.159c.823.583,1.191,2.7,1.7,6.111.267,1.791.664,4.455,1.091,4.983l.034-.035c.834-.933,1.4-6.073,1.851-10.2.705-6.432,1.116-9.3,2.095-9.811a.786.786,0,0,1,.767.017c1.13.626,1.551,4.309,2.242,12.563.389,4.641.869,10.367,1.625,11.688.45-.983.836-4.728,1.1-7.279.6-5.843.918-8.08,1.863-8.391a.79.79,0,0,1,.864.279c.956,1.047,1.4,5.641,2.027,13.083.333,3.966.776,9.264,1.306,10.654.8-1.859,1.241-9.584,1.635-16.447.57-9.909.986-16.016,1.977-17.27a.774.774,0,0,1,.857-.335c.985.3,1.33,2.741,2.087,11.613.461,5.4.983,11.516,1.849,12.967a1.721,1.721,0,0,0,.141.207,21.965,21.965,0,0,0,1.033-4.747c.6-3.826,1.032-6.184,2.067-6.673a1.084,1.084,0,0,1,.959-.017c.8.385,1.15,1.66,1.645,3.709.355,1.47.842,3.483,1.518,3.693.506.159.989-1.173,1.374-2.242.453-1.26.88-2.449,1.707-2.777a1.261,1.261,0,0,1,1.068.076c1.047.53,1.535,2.773,2.16,6.134a20.631,20.631,0,0,0,.892,3.73,3.545,3.545,0,0,0,.277-.551c.879-2.1,1.321-8.6,1.71-14.332.679-10,1.024-12.746,2.149-13a.72.72,0,0,1,.6.131c.888.653,1.227,3.937,1.841,11.84.429,5.521.915,11.779,1.822,13.688a2.483,2.483,0,0,0,.206.366,20.63,20.63,0,0,0,1.016-4.186c.577-3.155.976-5.106,1.865-5.468a.866.866,0,0,1,.851.12c1.04.741,1.446,3.514,1.99,7.994.292,2.409.735,6.049,1.293,6.39.569-.335,1.126-4.586,1.494-7.4.642-4.9,1.109-7.936,2.167-8.756a.984.984,0,0,1,.983-.189c.914.348,1.276,2.071,1.839,5.084.364,1.949.914,4.894,1.611,5.186a.2.2,0,0,0,.185.01c.468-.226.913-1.786,1.238-2.924.553-1.939,1.075-3.769,2.321-3.944,1.367-.193,1.914,1.606,2.432,3.348.282.946.667,2.24,1.066,2.429.024.012.066.031.167-.012.7-.293,1.212-2.576,1.587-4.242.559-2.484,1.043-4.629,2.371-4.715,1.369-.108,1.834,1.955,2.365,4.321.382,1.705.858,3.828,1.611,4.148.661.278,1.2-.77,1.9-2.285.562-1.225,1.092-2.382,1.949-2.751a1.543,1.543,0,0,1,1.364.026c1.088.567,1.487,2.374,1.529,2.578a.489.489,0,0,1-.959.2,3.233,3.233,0,0,0-1.024-1.909.557.557,0,0,0-.523.005c-.511.221-1.008,1.3-1.447,2.261-.705,1.537-1.583,3.458-3.171,2.777-1.216-.516-1.686-2.614-2.184-4.834-.3-1.346-.783-3.6-1.347-3.559-.6.039-1.15,2.49-1.479,3.954-.514,2.284-1,4.442-2.163,4.929a1.162,1.162,0,0,1-.965,0c-.793-.376-1.16-1.608-1.585-3.035-.324-1.089-.819-2.738-1.359-2.658-.615.086-1.135,1.911-1.516,3.244-.478,1.675-.891,3.121-1.755,3.538a1.171,1.171,0,0,1-.986.012c-1.107-.462-1.568-2.541-2.2-5.909-.288-1.544-.77-4.129-1.227-4.35-.851.681-1.393,4.827-1.829,8.158-.722,5.5-1.157,7.941-2.314,8.215a.865.865,0,0,1-.712-.141c-.877-.612-1.219-3.087-1.7-7.074-.341-2.81-.806-6.64-1.547-7.284-.448.46-.93,3.1-1.223,4.7-.611,3.34-.945,4.951-1.87,5.073-.659.095-1.055-.708-1.2-1.009-.985-2.073-1.458-8.153-1.914-14.033-.342-4.4-.762-9.808-1.335-10.961-.563,1.1-.971,7.109-1.3,11.985-.414,6.091-.842,12.389-1.784,14.643-.261.624-.647,1.325-1.271,1.266-.88-.094-1.177-1.492-1.762-4.644-.376-2.026-.945-5.088-1.639-5.44-.161-.08-.235-.051-.266-.039-.416.165-.822,1.293-1.148,2.2-.553,1.539-1.186,3.281-2.585,2.846-1.206-.375-1.678-2.329-2.178-4.4-.292-1.2-.69-2.853-1.115-3.056-.017-.008-.041-.02-.12.019-.64.3-1.191,3.83-1.519,5.938-.616,3.95-.934,5.459-1.838,5.635-.422.077-.8-.17-1.144-.744-.981-1.645-1.468-7.348-1.983-13.385-.354-4.147-.786-9.22-1.318-10.532-.81,1.83-1.274,9.922-1.652,16.5-.567,9.873-.982,15.959-1.963,17.236A.821.821,0,0,1,1683.775,558.737Z" transform="translate(-1660.819 -521.239)" fill="#12263f"/>
        </g>
        <g id="Grupo_125299" data-name="Grupo 125299" transform="translate(14.258 29.494)">
          <path id="Trazado_185366" data-name="Trazado 185366" d="M383.607,591.6a.786.786,0,0,1-.281-.053c-1-.389-1.355-3-1.975-9.33-.412-4.206-.88-8.974-1.73-10.252-.195-.294-.3-.336-.3-.337a12.755,12.755,0,0,0-1.007,3.261c-.56,2.375-1.044,4.427-2.191,4.717-1.407.354-1.929-1.562-2.39-3.252-.239-.877-.6-2.2-.947-2.346-.035-.014-.1.02-.14.04-.705.4-1.208,2.756-1.612,4.648-.584,2.735-1.088,5.1-2.469,5.149h-.048c-1.372,0-1.863-2.278-2.431-4.912-.4-1.856-.9-4.166-1.631-4.6a.266.266,0,0,0-.2-.055c-.338.13-.709,1.3-.954,2.067-.5,1.57-1.064,3.348-2.507,3-1.253-.3-1.842-2.032-2.467-3.864-.461-1.353-1.035-3.036-1.7-3.036h0c-.6,0-.984,1.6-1.292,2.891-.448,1.874-.911,3.811-2.35,4.044-1.6.263-2.659-1.587-3.592-3.217-.589-1.031-1.2-2.1-1.764-2.328-.26-.106-.366-.036-.412-.006-.422.282-.625,1.53-.629,2.286a.49.49,0,0,1-.489.487h0a.49.49,0,0,1-.487-.491c0-.4.06-2.424,1.063-3.095a1.358,1.358,0,0,1,1.326-.087c.878.359,1.542,1.52,2.243,2.749.774,1.354,1.65,2.886,2.585,2.737.8-.129,1.217-1.89,1.555-3.306.447-1.871.869-3.638,2.241-3.643h.005c1.368,0,1.981,1.8,2.629,3.7.463,1.36,1.04,3.052,1.77,3.229.573.142.994-1.241,1.345-2.345.407-1.28.757-2.386,1.536-2.684a1.17,1.17,0,0,1,1.048.125c1.1.648,1.584,2.876,2.092,5.234.334,1.55.892,4.14,1.478,4.14h.008c.62-.024,1.2-2.748,1.549-4.376.514-2.406,1-4.679,2.087-5.3a1.1,1.1,0,0,1,1-.092c.788.329,1.125,1.563,1.515,2.992.273,1,.729,2.687,1.206,2.56.57-.144,1.139-2.553,1.478-3.993.577-2.446.947-3.837,1.837-4,.659-.115,1.1.54,1.24.756.986,1.482,1.424,5.959,1.889,10.7.316,3.219.742,7.564,1.291,8.419.867-1.152,1.468-7.636,1.954-12.878.577-6.225,1.122-12.1,2.177-13.567.374-.518.753-.548,1-.483.972.257,1.287,2.355,1.879,7.843.343,3.175.81,7.516,1.5,8.1.4-.426.789-2.735,1.049-4.284.508-3.031.878-4.908,1.719-5.424a.93.93,0,0,1,.786-.1c1.182.37,1.651,2.666,2.32,6.38.4,2.22,1,5.574,1.727,5.78a.107.107,0,0,0,.1-.014c.578-.348,1.054-2.592,1.436-4.4.545-2.572,1.016-4.793,2.084-5.408a1.11,1.11,0,0,1,1.016-.1c.79.331,1.114,1.569,1.489,3,.26,1,.691,2.649,1.165,2.574.587-.11,1.146-2.081,1.516-3.384.5-1.763.932-3.285,1.815-3.624a1.1,1.1,0,0,1,1.014.131c1.043.657,1.445,2.826,1.984,6.321.3,1.952.806,5.221,1.464,5.347.5.105,1.217-2.991,1.545-4.479.586-2.659,1.139-5.17,2.333-5.721a1.088,1.088,0,0,1,.949-.007c.863.416,1.24,1.957,1.676,3.741.238.972.68,2.78,1.046,2.9a.372.372,0,0,0,.1-.055c.733-.515,1.261-3.872,1.646-6.324.583-3.7.931-5.65,1.885-5.941a.945.945,0,0,1,1,.352c.985,1.063,1.415,4.75,2.008,10.695.346,3.478.864,8.671,1.548,9.442.6-.76,1.111-5.34,1.453-8.411.716-6.429,1.145-9.291,2.26-9.719a.793.793,0,0,1,.71.065c.887.538,1.265,3.073,1.864,8.328.289,2.54.676,5.941,1.121,6.832.826-1.411,1.362-7.514,1.8-12.461.746-8.492,1.1-11.012,2.034-11.354a.646.646,0,0,1,.577.068c.866.562,1.354,4.309,2.176,16.706l.1,1.471a.49.49,0,0,1-.977.066l-.1-1.473c-.3-4.521-.9-13.552-1.592-15.614-.467,1.364-.911,6.421-1.244,10.214-.632,7.206-1.121,12.015-2.113,13.148a.808.808,0,0,1-.884.311c-.927-.29-1.248-2.37-1.867-7.8-.311-2.728-.773-6.79-1.326-7.524-.66.735-1.2,5.594-1.563,8.849-.658,5.913-1.042,8.569-1.951,9.186a.813.813,0,0,1-.679.119c-1.2-.329-1.612-3.252-2.319-10.347-.41-4.111-.92-9.228-1.752-10.127l-.037-.038c-.443.5-.877,3.262-1.168,5.114-.591,3.756-1.053,6.27-2.05,6.972a1.052,1.052,0,0,1-1.008.171c-.814-.305-1.158-1.559-1.653-3.58-.28-1.146-.7-2.877-1.151-3.092-.016-.009-.039-.02-.114.014-.752.347-1.35,3.062-1.787,5.043-.679,3.08-1.221,5.507-2.686,5.23-1.271-.245-1.682-2.5-2.246-6.16-.356-2.306-.8-5.175-1.539-5.641-.066-.042-.114-.057-.143-.046-.426.163-.906,1.857-1.224,2.977-.563,1.983-1.094,3.857-2.276,4.078-1.362.262-1.836-1.545-2.292-3.287-.23-.878-.577-2.2-.92-2.348-.039-.015-.117.026-.15.045-.69.4-1.2,2.819-1.616,4.764-.508,2.4-.947,4.464-1.888,5.031a1.09,1.09,0,0,1-.876.118c-1.249-.357-1.734-2.721-2.422-6.548-.387-2.154-.972-5.408-1.648-5.62-.487.216-.982,3.167-1.249,4.752-.506,3.016-.835,4.739-1.7,5.073a.9.9,0,0,1-.908-.174c-.947-.749-1.34-3.815-1.875-8.775-.28-2.59-.655-6.072-1.114-6.893-.9,1.247-1.481,7.536-2,13.085-.723,7.8-1.241,12.6-2.336,13.591A.886.886,0,0,1,383.607,591.6Z" transform="translate(-345.6 -560.2)" fill="#12263f"/>
        </g>
      </g>
    </g>
  </g>
</svg>
