<svg xmlns="http://www.w3.org/2000/svg" width="295" height="241.642" viewBox="0 0 295 241.642">
  <g id="Grupo_128808" data-name="Grupo 128808" transform="translate(-982 -2492.359)">
    <path id="Rectángulo_37348" data-name="Rectángulo 37348" d="M80,0H295a0,0,0,0,1,0,0V120a80,80,0,0,1-80,80H0a0,0,0,0,1,0,0V80A80,80,0,0,1,80,0Z" transform="translate(982 2534)" fill="#2df0da"/>
    <g id="Grupo_125003" data-name="Grupo 125003" transform="translate(1576.66 2473.02)">
      <g id="Grupo_124998" data-name="Grupo 124998" transform="translate(-496.236 19.339)">
        <path id="Trazado_184915" data-name="Trazado 184915" d="M-299.547,326.067-311,332.461a5.11,5.11,0,0,1-6.663-1.51l-39.092-55.242,24.691-13.791,29.452,52.731a5.109,5.109,0,0,0,2.515,2.233h0A5.11,5.11,0,0,1-299.547,326.067Z" transform="translate(405.646 -139.967)" fill="#35a3be"/>
        <path id="Trazado_184916" data-name="Trazado 184916" d="M-303.055,328.027l-11.449,6.394a5.109,5.109,0,0,1-6.663-1.509l-39.092-55.243,24.691-13.791,5.683,10.175,23.769,42.555a5.107,5.107,0,0,0,2.515,2.233h0A5.11,5.11,0,0,1-303.055,328.027Z" transform="translate(407.39 -140.942)" fill="#1d7e96"/>
        <path id="Trazado_184954" data-name="Trazado 184954" d="M10.821,0C16.8,0,21.641,13.254,21.641,29.6s-4.845,29.6-10.821,29.6S0,45.953,0,29.6,4.845,0,10.821,0Z" transform="translate(0 99.523) rotate(-29.185)" fill="#ff8900"/>
        <g id="Grupo_124994" data-name="Grupo 124994" transform="translate(9.447 17.204)">
          <path id="Trazado_184917" data-name="Trazado 184917" d="M-333.492,55.178a165.1,165.1,0,0,1-60.25,63.456c-2.248,5.591.547,17.615,7.4,29.885s15.625,20.956,21.565,21.975a165.1,165.1,0,0,1,85.627-18.022l1.83.111-55.308-99.022Z" transform="translate(414.973 -53.561)" fill="#f6f6f6"/>
          <path id="Trazado_184918" data-name="Trazado 184918" d="M-406.588,212.886c-6.854-12.27-9.649-24.294-7.4-29.885q-2.384,1.439-4.819,2.8l-16.413,9.167,28.872,51.691,16.413-9.167q2.436-1.36,4.912-2.633C-390.962,233.842-399.734,225.157-406.588,212.886Z" transform="translate(435.22 -117.928)" fill="#ff8900"/>
        </g>
        <g id="Grupo_124995" data-name="Grupo 124995" transform="translate(63.776 136.055)" opacity="0.3">
          <path id="Trazado_184919" data-name="Trazado 184919" d="M-315.972,292.418l-9.236,5.159a1.306,1.306,0,0,1-1.777-.5h0a1.306,1.306,0,0,1,.5-1.777l9.237-5.159a1.307,1.307,0,0,1,1.777.5h0A1.306,1.306,0,0,1-315.972,292.418Z" transform="translate(327.151 -289.972)" fill="#55a3f3"/>
          <path id="Trazado_184920" data-name="Trazado 184920" d="M-310.95,301.409l-9.236,5.159a1.306,1.306,0,0,1-1.777-.5h0a1.306,1.306,0,0,1,.5-1.777l9.236-5.159a1.307,1.307,0,0,1,1.778.5h0A1.306,1.306,0,0,1-310.95,301.409Z" transform="translate(324.654 -294.443)" fill="#55a3f3"/>
          <path id="Trazado_184921" data-name="Trazado 184921" d="M-305.928,310.4l-9.236,5.159a1.306,1.306,0,0,1-1.777-.5h0a1.306,1.306,0,0,1,.5-1.777l9.236-5.159a1.306,1.306,0,0,1,1.777.5h0A1.306,1.306,0,0,1-305.928,310.4Z" transform="translate(322.157 -298.914)" fill="#55a3f3"/>
          <path id="Trazado_184922" data-name="Trazado 184922" d="M-300.906,319.391l-9.237,5.159a1.306,1.306,0,0,1-1.777-.5h0a1.307,1.307,0,0,1,.5-1.777l9.236-5.158a1.306,1.306,0,0,1,1.777.5h0A1.306,1.306,0,0,1-300.906,319.391Z" transform="translate(319.66 -303.385)" fill="#55a3f3"/>
          <path id="Trazado_184923" data-name="Trazado 184923" d="M-295.885,328.382l-9.236,5.158a1.306,1.306,0,0,1-1.777-.5h0a1.306,1.306,0,0,1,.5-1.777l9.237-5.159a1.306,1.306,0,0,1,1.777.5h0A1.306,1.306,0,0,1-295.885,328.382Z" transform="translate(317.163 -307.855)" fill="#55a3f3"/>
          <path id="Trazado_184924" data-name="Trazado 184924" d="M-290.863,337.373l-9.236,5.159a1.306,1.306,0,0,1-1.777-.5h0a1.306,1.306,0,0,1,.5-1.777l9.236-5.159a1.306,1.306,0,0,1,1.777.5h0A1.306,1.306,0,0,1-290.863,337.373Z" transform="translate(314.665 -312.326)" fill="#55a3f3"/>
          <path id="Trazado_184925" data-name="Trazado 184925" d="M-285.841,346.363l-9.237,5.159a1.306,1.306,0,0,1-1.777-.5h0a1.306,1.306,0,0,1,.5-1.777l9.236-5.159a1.307,1.307,0,0,1,1.777.5h0A1.306,1.306,0,0,1-285.841,346.363Z" transform="translate(312.168 -316.797)" fill="#55a3f3"/>
          <path id="Trazado_184926" data-name="Trazado 184926" d="M-280.82,355.354l-9.236,5.159a1.306,1.306,0,0,1-1.777-.5h0a1.306,1.306,0,0,1,.5-1.777l9.237-5.159a1.306,1.306,0,0,1,1.777.5h0A1.306,1.306,0,0,1-280.82,355.354Z" transform="translate(309.671 -321.268)" fill="#55a3f3"/>
          <path id="Trazado_184927" data-name="Trazado 184927" d="M-275.8,364.345l-9.236,5.159a1.306,1.306,0,0,1-1.777-.5h0a1.306,1.306,0,0,1,.5-1.777l9.236-5.158a1.306,1.306,0,0,1,1.777.5h0A1.306,1.306,0,0,1-275.8,364.345Z" transform="translate(307.174 -325.739)" fill="#55a3f3"/>
        </g>
        <g id="Grupo_124996" data-name="Grupo 124996" transform="translate(21.265 93.517)" opacity="0.3" style="mix-blend-mode: multiply;isolation: isolate">
          <path id="Trazado_184928" data-name="Trazado 184928" d="M-340.3,212.366c-25.569,7.329-49.437,19.851-71.174,35.225,6.439,8,13.137,12.309,16.935,10.188l10.988-6.137,36.918,52.17a5.109,5.109,0,0,0,6.663,1.509l11.449-6.394h0l1.764-.985a5.11,5.11,0,0,0-.545-9.186,5.109,5.109,0,0,1-2.515-2.233l-25.9-46.365-.893-1.6a165.073,165.073,0,0,1,69.022-10.6l1.83.111-.027-.049a10.92,10.92,0,0,0,7.708-.861c5.078-2.836,6.919-10.42,5.842-20.6C-294.922,203.706-318.27,206.051-340.3,212.366Z" transform="translate(411.476 -205.358)" fill="#1d7e96"/>
        </g>
        <path id="Trazado_184956" data-name="Trazado 184956" d="M22.762,0C35.333,0,45.524,26.722,45.524,59.686s-10.191,59.686-22.762,59.686S0,92.65,0,59.686,10.191,0,22.762,0Z" transform="translate(76.7 22.199) rotate(-29.185)" fill="#ff8900"/>
        <path id="Trazado_184955" data-name="Trazado 184955" d="M20.352,0C31.592,0,40.7,24.74,40.7,55.257s-9.112,55.257-20.352,55.257S0,85.775,0,55.257,9.112,0,20.352,0Z" transform="matrix(0.873, -0.488, 0.488, 0.873, 80.964, 24.89)" fill="#1d7e96"/>
        <g id="Grupo_124997" data-name="Grupo 124997" transform="translate(101.421 37.97)">
          <path id="Trazado_184929" data-name="Trazado 184929" d="M-171.891,95.539l-9.262,4.4c2.159,3.219,4.263,6.642,6.272,10.24q.766,1.371,1.493,2.739l8.228-5.332a6.916,6.916,0,0,0,2.277-9.176h0A6.916,6.916,0,0,0-171.891,95.539Z" transform="translate(216.905 -94.868)" fill="#74ddf7"/>
          <path id="Trazado_184930" data-name="Trazado 184930" d="M-216.517,104.961l-35.752,17c1.859,4.287,4.025,8.68,6.488,13.091q1.429,2.558,2.917,5l34.112-22.1q-.728-1.368-1.493-2.739C-212.254,111.6-214.358,108.18-216.517,104.961Z" transform="translate(252.269 -99.887)" fill="#74ddf7"/>
        </g>
      </g>
      <g id="Grupo_125002" data-name="Grupo 125002" transform="translate(-538.924 131.852)">
        <path id="Trazado_184931" data-name="Trazado 184931" d="M-458.079,375.113l35.067,11.418,22.116-28.743,7.7,5.952-25.483,41.449-42.468-9.438Z" transform="translate(500.246 -300.152)" fill="#8dd52c"/>
        <path id="Trazado_184932" data-name="Trazado 184932" d="M-507.29,309.144c.032,4.431.2,8.728.454,13.151A19.251,19.251,0,0,0-497,329.842a22,22,0,0,0,8.818.45,15.111,15.111,0,0,0,7.223-2.513,17.729,17.729,0,0,1-2.859-6.035c-.274-1.434-.511-16.106-.511-16.106s6.676-1.847,9.189-3.319a4.6,4.6,0,0,0,1.95-1.743,4.429,4.429,0,0,0,.2-2.533,32.953,32.953,0,0,0-.932-4.635,13.916,13.916,0,0,1-7.649-3.24,33.025,33.025,0,0,0,6.215-.773,17.963,17.963,0,0,1-.917-2.352c1.546-1.77,3.121-3.587,4.534-5.465-2.894-1.479-5.823-3.218-8.564-4.963a36.152,36.152,0,0,0-4.562-8.137,6.036,6.036,0,0,0-3.486-1.875,13.521,13.521,0,0,0-8.113.732,18.883,18.883,0,0,0-6.689,4.758,23.716,23.716,0,0,0-6.089,13.085,42.107,42.107,0,0,0,.321,10.293C-508.356,300.071-507.323,304.512-507.29,309.144Z" transform="translate(524.262 -254.649)" fill="#ff8775"/>
        <path id="Trazado_184933" data-name="Trazado 184933" d="M-499.526,257.367s-9.08,4.938-14.282,4.866a47,47,0,0,0,1.921,5.1c1.331,3.16,2.459,6.205,3.791,9.366a22.211,22.211,0,0,1-3.643,1.36c-.929-2.149-1.928-4.406-2.857-6.555a4.344,4.344,0,0,0-4.811,2.7,5.947,5.947,0,0,0,.983,5.667,5.755,5.755,0,0,0,2.649,1.988,9.951,9.951,0,0,0,3.735.178,23.349,23.349,0,0,1-2.635,19.608,13.65,13.65,0,0,0-.554-5.568,19.189,19.189,0,0,1-6.386,9.13,20.148,20.148,0,0,0-4.028-10.319c-2.15-3.064-4.768-5.764-7.135-8.662a27.177,27.177,0,0,1-5.521-9.681c-1-3.606-.947-8.026,1.265-11.045a6.329,6.329,0,0,1-.823-7.075,11.22,11.22,0,0,1,5.554-4.961,56.552,56.552,0,0,1,7.2-2.391,54.2,54.2,0,0,0,10.176-4.319c2.725-1.5,5.446-3.281,8.544-3.571a14.9,14.9,0,0,1,6.749,1.269c2.968,1.166,6,2.993,7.066,6,.868,2.449,0,5.05-1.255,7.324a9.128,9.128,0,0,0-1.143-5.072c.334,2.741-.221,5.89-2.275,7.736A21.8,21.8,0,0,0-499.526,257.367Z" transform="translate(538.924 -243.143)" fill="#12263f"/>
        <path id="Trazado_184934" data-name="Trazado 184934" d="M-450.708,442.9s-.7-27.1-3.237-38.22a58.915,58.915,0,0,0-8.674-19.509l-7.781,1.805,7.7,55.924Z" transform="translate(504.848 -313.767)" fill="#edffd5"/>
        <path id="Trazado_184935" data-name="Trazado 184935" d="M-538.924,433.665l17.309-67.063s14.174,2.385,19.944,9.562a50.976,50.976,0,0,1,8.2,15.046l27.826,12.4,33.4-26.05,7.768,10.9-38.075,30.211-29.667-6.474,2.647,21.474Z" transform="translate(538.924 -304.536)" fill="#8dd52c"/>
        <path id="Trazado_184936" data-name="Trazado 184936" d="M-413.491,395.141-442.544,417.8l-49.925-21.181" transform="translate(515.823 -318.727)" fill="none" stroke="#75b51d" stroke-miterlimit="10" stroke-width="1"/>
        <line id="Línea_1431" data-name="Línea 1431" x1="20.308" y1="4.92" transform="translate(26.399 102.736)" fill="none" stroke="#75b51d" stroke-miterlimit="10" stroke-width="1"/>
        <path id="Trazado_184937" data-name="Trazado 184937" d="M-464.914,344.569l-5.486,1.478,5.533,1.15Z" transform="translate(504.849 -293.579)" fill="#0a2a6b"/>
        <path id="Trazado_184938" data-name="Trazado 184938" d="M-460.415,292.1a1.5,1.5,0,0,1-1.5,1.5,1.5,1.5,0,0,1-1.5-1.5,1.5,1.5,0,0,1,1.5-1.5A1.5,1.5,0,0,1-460.415,292.1Z" transform="translate(501.371 -266.743)" fill="#12263f"/>
        <path id="Trazado_184939" data-name="Trazado 184939" d="M-471.775,286.625a8.074,8.074,0,0,1,2.257-5.18,8.074,8.074,0,0,1,5.119-2.392" transform="translate(505.533 -260.999)" fill="none" stroke="#12263f" stroke-linecap="round" stroke-miterlimit="10" stroke-width="2"/>
        <g id="Grupo_124999" data-name="Grupo 124999" transform="translate(20.379 30.422)">
          <path id="Trazado_184940" data-name="Trazado 184940" d="M-492.822,310.654a3.888,3.888,0,0,1-2.19-1.1,1.075,1.075,0,0,1-.268-.8,1.2,1.2,0,0,1,1.042-.848,2.909,2.909,0,0,1,1.254.029,11.314,11.314,0,0,0-1.33-2.809,3.3,3.3,0,0,0-1.374-1.32,1.942,1.942,0,0,0-1.674.091,1.942,1.942,0,0,0-.958,1.375s-.559,1.96,1.5,4.2S-492.822,310.654-492.822,310.654Z" transform="translate(498.388 -303.656)" fill="#ff5748"/>
          <path id="Trazado_184941" data-name="Trazado 184941" d="M-498.251,305.27a1.942,1.942,0,0,1,.958-1.375,1.942,1.942,0,0,1,1.674-.091,3.3,3.3,0,0,1,1.374,1.32,11.319,11.319,0,0,1,1.33,2.809,2.909,2.909,0,0,0-1.254-.029,1.2,1.2,0,0,0-1.042.848,1.075,1.075,0,0,0,.268.8,3.888,3.888,0,0,0,2.19,1.1" transform="translate(498.32 -303.656)" fill="none" stroke="#0a2a6b" stroke-miterlimit="10" stroke-width="1"/>
        </g>
        <path id="Trazado_184942" data-name="Trazado 184942" d="M-461.151,305.5c.207.887-.892,1.9-2.453,2.264s-2.994-.062-3.2-.949.891-1.9,2.452-2.264S-461.358,304.618-461.151,305.5Z" transform="translate(503.073 -273.617)" fill="#ff675d" opacity="0.6" style="mix-blend-mode: multiply;isolation: isolate"/>
        <g id="Grupo_125000" data-name="Grupo 125000" transform="translate(1.404 3.975)" opacity="0.2">
          <path id="Trazado_184943" data-name="Trazado 184943" d="M-490.748,256.776a7.609,7.609,0,0,0-2.769-3.577,8.277,8.277,0,0,0-5.5-2.138c-1.943.134-3.626,1.322-5.258,2.384a35.019,35.019,0,0,1-11.235,5.046c-2.216.5-4.49.7-6.709,1.191a13.279,13.279,0,0,0-6.125,2.811,6.692,6.692,0,0,0-2.317,6.086" transform="translate(533.46 -251.049)" fill="none" stroke="#9ddcf9" stroke-miterlimit="10" stroke-width="1"/>
          <path id="Trazado_184944" data-name="Trazado 184944" d="M-491.714,266.2c1.622-1.767,1.366-4.721-.1-6.616a4.324,4.324,0,0,0-2.85-1.774,5.146,5.146,0,0,0-3.225,1.026c-2.892,1.877-5.084,4.844-8.291,6.109-2.552,1.007-5.4.792-8.139.716s-5.667.056-7.93,1.607a14.438,14.438,0,0,0-3.482,3.926" transform="translate(530.961 -254.402)" fill="none" stroke="#9ddcf9" stroke-miterlimit="10" stroke-width="1"/>
          <path id="Trazado_184945" data-name="Trazado 184945" d="M-502.61,281.1a97.734,97.734,0,0,0-16.517,1.62" transform="translate(527.676 -265.993)" fill="none" stroke="#9ddcf9" stroke-miterlimit="10" stroke-width="1"/>
          <path id="Trazado_184946" data-name="Trazado 184946" d="M-516.268,288.062c2.454,1.711,3.6,4.794,3.9,7.772a19.3,19.3,0,0,1-7.406,16.975" transform="translate(527.997 -269.455)" fill="none" stroke="#9ddcf9" stroke-miterlimit="10" stroke-width="1"/>
          <path id="Trazado_184947" data-name="Trazado 184947" d="M-526.289,290.845a13.691,13.691,0,0,1,.84,9.263,13.693,13.693,0,0,1-5.325,7.625" transform="translate(533.468 -270.838)" fill="none" stroke="#9ddcf9" stroke-miterlimit="10" stroke-width="1"/>
          <path id="Trazado_184948" data-name="Trazado 184948" d="M-536.132,302.243a10.681,10.681,0,0,0,3.274-11.542" transform="translate(536.132 -270.767)" fill="none" stroke="#9ddcf9" stroke-miterlimit="10" stroke-width="1"/>
        </g>
        <g id="Grupo_125001" data-name="Grupo 125001" transform="translate(106.682 56.607)">
          <path id="Trazado_184949" data-name="Trazado 184949" d="M-326.718,377.591l10.756-10.921,6.682,9.892a25.4,25.4,0,0,1-6.84,4.577,32.917,32.917,0,0,1-6.531,2.156Z" transform="translate(326.718 -361.177)" fill="#ff8775"/>
          <path id="Trazado_184950" data-name="Trazado 184950" d="M-305.607,361.355c3.169-2.491,6.6-4.926,10.581-5.566a1.684,1.684,0,0,1,.889.028.633.633,0,0,1,.419.705.651.651,0,0,1-.2.292,4.726,4.726,0,0,1-1.022.68,64.534,64.534,0,0,0-9.588,6.14c3.972-1.824,7.893-3.645,12.245-4.046a3.845,3.845,0,0,1,1.985.2.564.564,0,0,1,.353.358c.046.239-.179.436-.384.568a25.943,25.943,0,0,1-5.991,2.356,34.283,34.283,0,0,0-6.818,3.15c4.7-1.561,9.164-2.993,14.1-3.4l.239-.018a.82.82,0,0,1,.578,1.439,5.133,5.133,0,0,1-1.415.835,17.5,17.5,0,0,1-2.529.759c-.56.122-1.127.218-1.677.379a14.533,14.533,0,0,0-1.706.66l-5.749,2.505a39.052,39.052,0,0,1,11.744-2.343c.264-.01.413.291.441.553a.8.8,0,0,1-.329.684,2.064,2.064,0,0,1-.683.323,13.226,13.226,0,0,1-3.709.631c-1.438.028-2.789.958-4.056,1.638a4.049,4.049,0,0,1-2.032.7,2.88,2.88,0,0,1-1.7-.2,7.693,7.693,0,0,1-3.728-3.826,7.692,7.692,0,0,1-.3-5.333" transform="translate(316.409 -355.743)" fill="#ff8775"/>
        </g>
        <path id="Trazado_184951" data-name="Trazado 184951" d="M-341.3,349.521l8.206-8.358,6.894,9.72-7.4,4.59Z" transform="translate(440.652 -291.885)" fill="#ff8775"/>
        <path id="Trazado_184952" data-name="Trazado 184952" d="M-341.3,347.46s2.567-6.04,4.644-7.608,7.21-3.138,8.02-2.783.075,2.768-1.646,3.78-3.467,2.247-3.467,2.247Z" transform="translate(440.652 -289.824)" fill="#ff8775"/>
        <path id="Trazado_184953" data-name="Trazado 184953" d="M-324.865,345.971l-2.967,1.425a10.366,10.366,0,0,1-.365,3.19" transform="translate(434.136 -294.276)" fill="none" stroke="#0a2a6b" stroke-miterlimit="10" stroke-width="1"/>
      </g>
    </g>
  </g>
</svg>
