<svg xmlns="http://www.w3.org/2000/svg" width="119.991" height="120" viewBox="0 0 119.991 120">
  <g id="Grupo_128787" data-name="Grupo 128787" transform="translate(1862.107 -1865.182)">
    <path id="Trazado_187709" data-name="Trazado 187709" d="M-1806.815,1865.182h9.143c.07.258.258.211.469.234a49.81,49.81,0,0,1,8.085,1.172c18.142,4.289,31.641,14.7,40.315,31.151a57.78,57.78,0,0,1,5.742,37.665,58.166,58.166,0,0,1-12.4,27.378c-.82,1.031-2.369,2.015-2.369,3.047,0,1.125,1.69,1.969,2.651,2.953,1.453,1.523,2.976,2.977,4.383,4.547a2.2,2.2,0,0,1-.164,3.047,2.305,2.305,0,0,1-3,.14,9.439,9.439,0,0,1-1.054-.914q-4.081-4.008-8.158-8.062c-2.086-2.273-4.312-4.453-6.586-6.562a10.763,10.763,0,0,0-.844-.961c-4.336-4.338-8.72-8.627-12.986-13.033a2.5,2.5,0,0,0-3.187-.68,40.812,40.812,0,0,1-24.681,1.875c-12.634-2.906-22.009-10.241-28.641-21.282a3.07,3.07,0,0,1,.023-3.492,46.255,46.255,0,0,1,15.468-15.962c.609-.375.938-.539.234-1.219q-5.66-5.589-11.25-11.273c-.492-.492-.727-.422-1.148.07a49.184,49.184,0,0,0-5.721,8.273,45.5,45.5,0,0,0-4.992,29.087,44.123,44.123,0,0,0,8.111,19.572,45.258,45.258,0,0,0,23.345,16.97,45.232,45.232,0,0,0,18.728,1.9,46.556,46.556,0,0,0,14.882-4.172c1.781-.844,2.484-.68,3.726.7.422,1.8.047,2.672-1.5,3.445a50.476,50.476,0,0,1-19.595,4.922,47.69,47.69,0,0,1-23.017-4.383c-18.257-8.695-28.313-23.275-29.813-43.409-.937-12.679,3-24.095,10.806-34.149.7-.94,2.156-1.783,2.015-2.7-.164-.984-1.547-1.758-2.369-2.648-.492-.562-.8-.586-1.336.023-11.835,13.853-16.288,29.769-12.773,47.6,3.3,16.689,12.726,29.253,27.563,37.526,12.916,7.2,26.7,8.65,40.995,4.945a54.167,54.167,0,0,0,17.392-8.132c1.664-1.172,2.344-1.148,3.867,0,.726,1.711.539,2.6-.8,3.539a55.236,55.236,0,0,1-7.875,4.8,59.735,59.735,0,0,1-44.323,3.869c-21.938-6.4-38.932-26.066-42.026-48.59a14.1,14.1,0,0,0-.633-3.937v-9.843c.164-.047.211-.164.234-.328.211-1.758.4-3.492.7-5.229a58.687,58.687,0,0,1,12.351-27.118c.844-1.055,2.39-2.039,2.39-3.047,0-1.125-1.687-1.992-2.625-2.953-1.477-1.523-3-2.976-4.406-4.547a2.183,2.183,0,0,1,.188-3.07,2.271,2.271,0,0,1,2.976-.141,13.42,13.42,0,0,1,1.055.914q4.078,4.043,8.158,8.062c2.109,2.3,4.312,4.476,6.585,6.586a10.839,10.839,0,0,0,.844.937c4.476,4.5,8.976,8.932,13.408,13.455a1.751,1.751,0,0,0,2.2.469,40.943,40.943,0,0,1,20.157-2.906,42.974,42.974,0,0,1,23.2,9.679c1.523,1.242,1.688,2.109.7,3.844-1.429.94-2.179.963-3.586-.141a40.707,40.707,0,0,0-7.525-4.9,37.752,37.752,0,0,0-27.751-2.461c-.891.258-2.3.352-2.484,1.008-.211.7,1.125,1.289,1.711,1.992l.234.234c.68,1.054,1.336.961,2.344.3a16.726,16.726,0,0,1,21.329,2.813,16.649,16.649,0,0,1,1.711,20.626c-.539.844-.469,1.289.234,1.922,1.078.963,2.062,1.995,3.07,3.049a.959.959,0,0,0,1.453.234,40.586,40.586,0,0,0,14.556-14.251,7.633,7.633,0,0,1,1.5-2.062,2.3,2.3,0,0,1,3,.4,2.407,2.407,0,0,1,.141,3.023c-.539.937-1.1,1.875-1.734,2.789a44.67,44.67,0,0,1-13.923,13.478c-.727.445-.75.7-.164,1.242.961.867,1.83,1.8,2.744,2.719,3.023,3,6.023,6.023,9.046,9.023a3.9,3.9,0,0,0,.3-.281c9.843-11.531,13.431-24.774,10.57-39.656a44.281,44.281,0,0,0-8.718-18.962,45.4,45.4,0,0,0-20.65-15,44.777,44.777,0,0,0-21.306-2.344,47.731,47.731,0,0,0-14.088,4.1c-1.687.773-2.367.586-3.609-.75-.445-1.851-.023-2.719,1.617-3.492a50.989,50.989,0,0,1,33.307-3.609c21.517,4.734,38.159,24.446,39.1,46.525a50.861,50.861,0,0,1-10.877,34.149c-.727.914-2.18,1.784-2.016,2.7.164.984,1.547,1.734,2.344,2.625.515.563.82.609,1.336,0,11.861-13.853,16.314-29.769,12.775-47.629-3.328-16.687-12.728-29.251-27.54-37.5-12.939-7.221-26.722-8.674-41.018-4.971a53.9,53.9,0,0,0-17.369,8.158c-1.687,1.148-2.367,1.125-3.89,0-.7-1.664-.539-2.6.68-3.492a60.141,60.141,0,0,1,26.368-10.643A13.977,13.977,0,0,0-1806.815,1865.182Zm18.259,76.81c-.961-.961-1.875-1.758-2.672-2.648a.987.987,0,0,0-1.547-.164,16.862,16.862,0,0,1-12.377,2.648c-7.312-1.148-13.57-8.158-13.851-15.564a16.84,16.84,0,0,1,2.883-10.5c.4-.609.4-.963-.141-1.455-1.148-1.055-2.25-2.156-3.3-3.281a.969.969,0,0,0-1.455-.211,40.475,40.475,0,0,0-14.132,13.525,1.248,1.248,0,0,0,0,1.641c9.328,13.666,22.079,20.064,38.7,18.118A29.716,29.716,0,0,0-1788.556,1941.992Zm-1.359-16.806a12.161,12.161,0,0,0-3.328-8.39c-3.7-4.033-10.338-5.041-14.791-2.3-.562.328-.891.541-.258,1.174q7.839,7.8,15.658,15.655c.586.586.844.4,1.172-.211A12.231,12.231,0,0,0-1789.915,1925.186Zm-12.1,12.189a11.435,11.435,0,0,0,5.533-1.385c1.172-.586,1.172-.656.234-1.57q-7.527-7.558-15.072-15.093c-1.008-1.008-1.054-.984-1.734.328A12.3,12.3,0,0,0-1802.01,1937.375Z" transform="translate(-0.002 0)" fill="#030202"/>
    <path id="Trazado_187710" data-name="Trazado 187710" d="M-1759.128,1916.892c1.242,1.313,1.922,1.523,3.609.75a47.738,47.738,0,0,1,14.088-4.125,45.37,45.37,0,0,1,21.306,2.344,45.646,45.646,0,0,1,20.65,15.025,43.934,43.934,0,0,1,8.718,18.939c2.859,14.908-.726,28.126-10.57,39.682a3.9,3.9,0,0,1-.3.281c-3.026-3-6.025-6.025-9.049-9.025-.914-.914-1.781-1.875-2.742-2.742-.586-.539-.562-.773.164-1.219a45.005,45.005,0,0,0,13.947-13.478c.609-.914,1.172-1.851,1.711-2.789a2.371,2.371,0,0,0-.141-3.023,2.269,2.269,0,0,0-2.976-.4,19.6,19.6,0,0,0-1.969-3.07c.984-1.406,1.055-2.508.164-3.469-.869-.961-1.9-1.008-3.354-.187a11,11,0,0,0-1.64-1.664c.961-1.711.8-2.578-.727-3.82a42.874,42.874,0,0,0-23.181-9.681,41.261,41.261,0,0,0-20.181,2.883,1.717,1.717,0,0,1-2.2-.445c-4.429-4.523-8.929-8.976-13.406-13.452-.307-.281-.565-.633-.846-.937a32.313,32.313,0,0,1,3.471-2.674c1.148.893,2.156,1.033,3.07.471,1.008-.658,1.312-1.6.938-3.049C-1760.3,1917.36-1759.55,1917.314-1759.128,1916.892Z" transform="translate(-66.435 -33.882)" fill="#a9f73f"/>
    <path id="Trazado_187711" data-name="Trazado 187711" d="M-1744.854,2038.187c-1.242-1.359-1.922-1.523-3.7-.7a46.621,46.621,0,0,1-14.884,4.2,44.863,44.863,0,0,1-18.728-1.922,45.283,45.283,0,0,1-23.368-16.947,44.807,44.807,0,0,1-8.109-19.572,45.568,45.568,0,0,1,5.015-29.11,48.445,48.445,0,0,1,5.719-8.25c.422-.516.633-.562,1.125-.07,3.75,3.773,7.476,7.546,11.275,11.273.68.68.352.844-.234,1.219a46.111,46.111,0,0,0-15.494,15.962,3.111,3.111,0,0,0,0,3.492c6.609,11.041,16.009,18.353,28.641,21.282a41,41,0,0,0,24.681-1.875,2.459,2.459,0,0,1,3.19.68c4.265,4.406,8.648,8.695,12.984,13.033.281.281.563.633.844.938a27.579,27.579,0,0,1-3.492,2.672c-1.125-.867-2.2-1.031-3.117-.422-.937.633-1.219,1.57-.867,3C-1743.659,2037.719-1744.385,2037.766-1744.854,2038.187Z" transform="translate(-33.831 -70.84)" fill="#a9f73f"/>
    <path id="Trazado_187712" data-name="Trazado 187712" d="M-1780.386,1897.9a27.362,27.362,0,0,0-3.492,2.648c-2.25-2.109-4.476-4.289-6.562-6.586a34.011,34.011,0,0,1,3.258-2.836c1.547,1.125,2.226,1.148,3.914,0a53.068,53.068,0,0,1,17.368-8.135c14.3-3.7,28.079-2.273,40.995,4.945,14.838,8.252,24.236,20.837,27.54,37.526,3.539,17.837-.914,33.753-12.749,47.6-.539.609-.844.586-1.359,0-.773-.891-2.182-1.64-2.346-2.625-.141-.914,1.315-1.781,2.041-2.7a50.853,50.853,0,0,0,10.851-34.149c-.914-22.056-17.556-41.791-39.073-46.528a51.055,51.055,0,0,0-33.329,3.612c-1.641.773-2.039,1.641-1.594,3.492-.445.422-1.172.492-1.453,1.125a3.228,3.228,0,0,0-1.174-1.078,2.288,2.288,0,0,0-2.672.563A2.414,2.414,0,0,0-1780.386,1897.9Z" transform="translate(-50.626 -11.189)" fill="#ff8900"/>
    <path id="Trazado_187713" data-name="Trazado 187713" d="M-1762.015,2018.547a27.448,27.448,0,0,0,3.518-2.648c2.273,2.109,4.476,4.291,6.562,6.564a29.263,29.263,0,0,1-3.281,2.859c-1.523-1.125-2.2-1.172-3.867,0a53.961,53.961,0,0,1-17.392,8.132c-14.3,3.7-28.081,2.273-40.995-4.945-14.814-8.25-24.235-20.837-27.54-37.526-3.541-17.837.914-33.75,12.749-47.6.539-.609.844-.586,1.336,0,.82.891,2.2,1.64,2.367,2.625.141.914-1.312,1.781-2.016,2.7-7.8,10.056-11.741,21.47-10.8,34.151,1.5,20.134,11.554,34.711,29.837,43.409a47.541,47.541,0,0,0,22.993,4.383,50.476,50.476,0,0,0,19.595-4.922c1.547-.773,1.922-1.641,1.5-3.445.445-.422,1.2-.492,1.453-1.125,1.008,1.336,2.2,1.664,3.4.891C-1761.429,2021.267-1761.242,2020.072-1762.015,2018.547Z" transform="translate(-11.242 -54.922)" fill="#ff8900"/>
    <path id="Trazado_187714" data-name="Trazado 187714" d="M-1661.421,2012.525a10.02,10.02,0,0,1,1.641,1.664,2.522,2.522,0,0,0-.609,2.252c.445,1.687,1.9,2.226,3.8,1.383a20.993,20.993,0,0,1,1.969,3.094,6.648,6.648,0,0,0-1.523,2.062,40.6,40.6,0,0,1-14.554,14.252.991.991,0,0,1-1.453-.234c-.984-1.057-1.992-2.112-3.073-3.073-.7-.633-.773-1.055-.234-1.9a16.643,16.643,0,0,0-1.711-20.626,16.73,16.73,0,0,0-21.329-2.836c-1.008.656-1.664.75-2.344-.281-.07-.094-.164-.164-.234-.258-.586-.7-1.922-1.289-1.711-1.992.188-.656,1.594-.726,2.484-.984a37.686,37.686,0,0,1,27.73,2.461,39.928,39.928,0,0,1,7.547,4.875C-1663.624,2013.486-1662.874,2013.486-1661.421,2012.525Z" transform="translate(-112.525 -97.692)" fill="#fff"/>
    <path id="Trazado_187715" data-name="Trazado 187715" d="M-1724.437,2051.207a29.762,29.762,0,0,1-7.9,2.133c-16.616,1.945-29.368-4.453-38.7-18.119a1.247,1.247,0,0,1,0-1.64,40.748,40.748,0,0,1,14.132-13.549.983.983,0,0,1,1.453.211c1.055,1.125,2.18,2.25,3.307,3.3.539.492.563.844.141,1.453a17.143,17.143,0,0,0-2.885,10.5c.281,7.406,6.541,14.416,13.853,15.564a16.832,16.832,0,0,0,12.377-2.651.986.986,0,0,1,1.547.164C-1726.312,2049.473-1725.4,2050.27-1724.437,2051.207Z" transform="translate(-64.118 -109.225)" fill="#fff"/>
    <path id="Trazado_187716" data-name="Trazado 187716" d="M-1661.25,2040.129a12.243,12.243,0,0,1-1.547,5.932c-.328.609-.586.8-1.172.211q-7.8-7.843-15.658-15.658c-.633-.633-.3-.844.258-1.172,4.453-2.742,11.088-1.734,14.791,2.3A12.16,12.16,0,0,1-1661.25,2040.129Z" transform="translate(-128.661 -114.944)" fill="#45c6e5"/>
    <path id="Trazado_187717" data-name="Trazado 187717" d="M-1687.1,2065.951c-9.189-.023-15.142-9.75-11.041-17.718.68-1.312.726-1.336,1.734-.3q7.558,7.523,15.072,15.069c.938.914.938.961-.234,1.57A11.192,11.192,0,0,1-1687.1,2065.951Z" transform="translate(-114.892 -128.577)" fill="#45c6e5"/>
    <path id="Trazado_187718" data-name="Trazado 187718" d="M-1554.719,2042.241c-1.9.82-3.351.281-3.8-1.406a2.551,2.551,0,0,1,.6-2.252c1.453-.82,2.508-.75,3.363.188C-1553.664,2039.731-1553.735,2040.835-1554.719,2042.241Z" transform="translate(-214.398 -122.089)" fill="#030202"/>
    <path id="Trazado_187719" data-name="Trazado 187719" d="M-1757.377,1929.161a2.384,2.384,0,0,1,.188-3.094,2.222,2.222,0,0,1,2.672-.562,3.225,3.225,0,0,1,1.172,1.078c.328,1.453.047,2.391-.961,3.047C-1755.22,1930.192-1756.228,1930.052-1757.377,1929.161Z" transform="translate(-73.644 -42.457)" fill="#030202"/>
    <path id="Trazado_187720" data-name="Trazado 187720" d="M-1569.368,2198.6c.773,1.547.574,2.742-.6,3.492-1.2.8-2.391.471-3.387-.914-.352-1.429-.082-2.367.879-2.976A2.559,2.559,0,0,1-1569.368,2198.6Z" transform="translate(-203.872 -234.99)" fill="#030202"/>
  </g>
</svg>
