<svg xmlns="http://www.w3.org/2000/svg" width="100" height="96.775" viewBox="0 0 100 96.775">
  <g id="Grupo_128799" data-name="Grupo 128799" transform="translate(-2849.957 -600.651)">
    <path id="Trazado_187853" data-name="Trazado 187853" d="M2967.58,827.359c-.468.588-.369,1.334-.526,2a21.615,21.615,0,0,1-42.056.569.565.565,0,0,0-.3-.46c-1.258,1.263-2.531,2.555-3.82,3.829a1.924,1.924,0,0,1-2.244.439,1.832,1.832,0,0,1-1.138-1.783,2.087,2.087,0,0,1,.734-1.539c1.051-1.019,2.09-2.05,3.172-3.114-.39-.333-.791-.2-1.147-.2q-19.575-.013-39.15,0c-2.906,0-5.206-1.041-6.549-3.725a6.493,6.493,0,0,1,2.8-8.869c8.309-4.127,16.668-8.153,25.014-12.2a1.918,1.918,0,0,1,2.723.865,1.966,1.966,0,0,1-1.16,2.7q-9.792,4.785-19.593,9.552c-1.6.782-3.213,1.552-4.811,2.348a2.737,2.737,0,0,0-1.743,3.133,2.769,2.769,0,0,0,2.877,2.276c.65.031,1.3.007,1.953.007h38.654l-3.1-2.879a1.919,1.919,0,0,1-.566-2.131,1.848,1.848,0,0,1,1.576-1.285,2.141,2.141,0,0,1,1.832.722c1.163,1.082,2.336,2.152,3.547,3.266.341-1.174.608-2.274.977-3.338a21.621,21.621,0,0,1,41.614,2.717,5.4,5.4,0,0,0,.429,1.823Zm-3.907-2.719a17.712,17.712,0,1,0-17.687,17.718A17.774,17.774,0,0,0,2963.672,824.64Z" transform="translate(-17.622 -148.84)" fill="#030403"/>
    <path id="Trazado_187854" data-name="Trazado 187854" d="M2867.48,645.994a13.289,13.289,0,0,1-2.421-3.926c1.117-.976,1.273-1.509.8-2.905a17.016,17.016,0,0,1-.662-8.842,17.72,17.72,0,1,1,12.019,20,2.071,2.071,0,0,0-2.832.952,30.412,30.412,0,0,1-4.168-2.425c.731-1.077.735-1.97.012-2.719C2869.525,645.4,2868.674,645.356,2867.48,645.994Zm16.607-17.234v0c.878,0,1.758.03,2.635-.008a1.944,1.944,0,0,0,.027-3.887,9.926,9.926,0,0,0-1.268,0c-.538.035-.849-.005-.908-.72a1.827,1.827,0,0,0-1.89-1.622,1.868,1.868,0,0,0-1.918,1.709c-.049.528-.244.686-.709.82a4.573,4.573,0,0,0-3.44,4.533c-.007.455-.008.911,0,1.366a4.676,4.676,0,0,0,4.575,4.641c.845.03,1.692.015,2.537.007a.9.9,0,0,1,.911.427,1.65,1.65,0,0,1-1.448,2.592c-1.5,0-2.993-.024-4.489.011a1.949,1.949,0,1,0-.063,3.892,9.883,9.883,0,0,0,1.171.008.887.887,0,0,1,1.063.672c.505,1.33,2.37,1.745,3.059.589a6.065,6.065,0,0,1,2.573-2.042,4.27,4.27,0,0,0,2.086-3.249,9.98,9.98,0,0,0,.006-2.723,4.62,4.62,0,0,0-4.6-4.078c-.813-.013-1.627-.012-2.44,0-.738.01-1.083-.338-1.042-1.075a3.9,3.9,0,0,0,0-.585c-.088-.909.279-1.336,1.229-1.279C2882.523,628.8,2883.306,628.76,2884.087,628.76Z" transform="translate(-11.035 -11.178)" fill="#ff8900"/>
    <path id="Trazado_187855" data-name="Trazado 187855" d="M2863.348,640.091a2.072,2.072,0,0,1,2.833-.952,17.707,17.707,0,1,0-12.019-20,17.016,17.016,0,0,0,.663,8.842c.473,1.4.317,1.929-.8,2.905-1.61.347-2.357-.073-2.89-1.623a21.617,21.617,0,1,1,41.911-9.619c.094.746.341.858,1.007.858q21.579-.028,43.157-.009a6.68,6.68,0,0,1,6.146,9.654,6.3,6.3,0,0,1-3.157,3.06q-11.062,4.934-22.143,9.831a1.963,1.963,0,1,1-1.541-3.576q10.756-4.787,21.518-9.56c1.749-.778,2.356-1.845,1.978-3.419a2.594,2.594,0,0,0-2.5-2.076c-.324-.017-.651-.011-.976-.011q-21.14,0-42.279-.024c-.891,0-1.19.21-1.316,1.109a21.617,21.617,0,0,1-21.995,18.415,21.132,21.132,0,0,1-5.937-1.03C2863.462,642.355,2863.061,641.7,2863.348,640.091Z" fill="#030303"/>
    <path id="Trazado_187856" data-name="Trazado 187856" d="M3009.666,745.009c-.889,0-1.593.02-2.3,0a1.928,1.928,0,0,1-2.006-1.944,1.9,1.9,0,0,1,1.991-1.95q3.514-.032,7.029.015a1.9,1.9,0,0,1,2.066,1.987q.068,3.611,0,7.224a1.861,1.861,0,0,1-1.911,1.923,1.923,1.923,0,0,1-1.962-1.982c-.026-.389.005-.782-.016-1.171a2.853,2.853,0,0,0-.083-1.138c-2.02,1.307-2.857,4.441-1.872,6.968a6.3,6.3,0,1,0,10.461-6.586c-.178-.189-.378-.358-.561-.542a1.964,1.964,0,0,1-.231-2.793,1.944,1.944,0,0,1,2.868-.08,9.827,9.827,0,0,1,3.512,8.5,10.2,10.2,0,0,1-20.13,1.452C3005.705,751.5,3006.721,748.2,3009.666,745.009Z" transform="translate(-114.847 -103.791)" fill="#030403"/>
    <path id="Trazado_187857" data-name="Trazado 187857" d="M2873.131,730.283c1.194-.638,2.045-.6,2.748.13.723.749.719,1.642-.012,2.719-1.139.751-1.967.761-2.726.033C2872.339,732.4,2872.335,731.478,2873.131,730.283Z" transform="translate(-16.686 -95.467)" fill="#030403"/>
    <path id="Trazado_187858" data-name="Trazado 187858" d="M3117.835,838.326a17.712,17.712,0,1,1-17.748-17.749A17.782,17.782,0,0,1,3117.835,838.326Zm-25.013,5.263a1.879,1.879,0,0,0,1.11,1.883,1.9,1.9,0,0,0,2.308-.474q5.335-5.28,10.662-10.567a1.96,1.96,0,1,0-2.741-2.776q-5.347,5.266-10.663,10.565A1.915,1.915,0,0,0,3092.822,843.589Zm2.32-8.767a1.952,1.952,0,0,0,1.954-1.9,2.013,2.013,0,0,0-2.007-1.975,1.962,1.962,0,0,0-1.88,1.98A1.892,1.892,0,0,0,3095.142,834.822Zm8.809,8.706a1.954,1.954,0,0,0,1.892,1.965,2.057,2.057,0,0,0,1.979-2.015,1.96,1.96,0,0,0-1.981-1.877A1.864,1.864,0,0,0,3103.951,843.528Z" transform="translate(-171.786 -162.526)" fill="#a9f73f"/>
    <path id="Trazado_187859" data-name="Trazado 187859" d="M2917.269,647.842c-.781,0-1.564.037-2.342-.009-.949-.057-1.317.37-1.229,1.279a3.868,3.868,0,0,1,0,.585c-.041.738.3,1.085,1.042,1.075.813-.011,1.627-.012,2.44,0a4.62,4.62,0,0,1,4.6,4.078,9.979,9.979,0,0,1-.006,2.723,4.27,4.27,0,0,1-2.086,3.249,6.065,6.065,0,0,0-2.573,2.042c-.689,1.155-2.554.741-3.059-.589a.887.887,0,0,0-1.063-.672,9.913,9.913,0,0,1-1.171-.008,1.949,1.949,0,1,1,.063-3.892c1.5-.035,2.993-.009,4.489-.011a1.65,1.65,0,0,0,1.447-2.592.9.9,0,0,0-.911-.427c-.846.008-1.692.023-2.538-.006a4.676,4.676,0,0,1-4.575-4.641c-.01-.455-.009-.911,0-1.366a4.573,4.573,0,0,1,3.44-4.533c.465-.134.66-.292.709-.82a1.867,1.867,0,0,1,1.918-1.709,1.827,1.827,0,0,1,1.89,1.622c.059.715.371.755.908.72a9.926,9.926,0,0,1,1.268,0,1.944,1.944,0,0,1-.027,3.887c-.877.038-1.756.008-2.635.008Z" transform="translate(-44.217 -30.26)" fill="#020303"/>
    <path id="Trazado_187860" data-name="Trazado 187860" d="M3122.3,872.91a1.912,1.912,0,0,1,.676-1.369q5.329-5.285,10.663-10.565a1.96,1.96,0,1,1,2.74,2.776q-5.314,5.3-10.662,10.567a1.9,1.9,0,0,1-2.308.474A1.878,1.878,0,0,1,3122.3,872.91Z" transform="translate(-201.261 -191.847)" fill="#030403"/>
    <path id="Trazado_187861" data-name="Trazado 187861" d="M3125.716,864.176a1.892,1.892,0,0,1-1.933-1.9,1.963,1.963,0,0,1,1.88-1.98,2.013,2.013,0,0,1,2.007,1.975A1.953,1.953,0,0,1,3125.716,864.176Z" transform="translate(-202.359 -191.88)" fill="#030403"/>
    <path id="Trazado_187862" data-name="Trazado 187862" d="M3164.94,903.059a1.863,1.863,0,0,1,1.89-1.927,1.96,1.96,0,0,1,1.982,1.876,2.058,2.058,0,0,1-1.979,2.016A1.954,1.954,0,0,1,3164.94,903.059Z" transform="translate(-232.775 -222.058)" fill="#030403"/>
  </g>
</svg>
