<svg xmlns="http://www.w3.org/2000/svg" width="297.112" height="249.383" viewBox="0 0 297.112 249.383">
  <g id="Grupo_126759" data-name="Grupo 126759" transform="translate(1879.325 -253.688)">
    <g id="Grupo_126712" data-name="Grupo 126712" transform="translate(-1879.325 253.688)">
      <g id="Grupo_126683" data-name="Grupo 126683" transform="translate(0 6.455)">
        <rect id="Rectángulo_37376" data-name="Rectángulo 37376" width="269.596" height="121.698" fill="#12263f"/>
      </g>
      <g id="Grupo_126684" data-name="Grupo 126684" transform="translate(8.451 6.455)">
        <path id="Trazado_186075" data-name="Trazado 186075" d="M0,0H261.145V121.7H0Z" fill="#45c6e5"/>
      </g>
      <g id="Grupo_126685" data-name="Grupo 126685" transform="translate(8.451 6.455)">
        <path id="Trazado_185973" data-name="Trazado 185973" d="M-1857.239,333.5h77.658v19.58a5.455,5.455,0,0,0,5.455,5.455h70.043v33.717h107.989v-121.7h-261.145Z" transform="translate(1857.239 -270.556)" fill="#ff8900"/>
      </g>
      <g id="Grupo_126703" data-name="Grupo 126703" transform="translate(50.276)">
        <g id="Grupo_126689" data-name="Grupo 126689">
          <g id="Grupo_126687" data-name="Grupo 126687">
            <g id="Grupo_126686" data-name="Grupo 126686">
              <path id="Trazado_185974" data-name="Trazado 185974" d="M-1707.8,266.337a1.686,1.686,0,0,1-1.686-1.686v-7.59h-24.756l-11.3,5.257a1.687,1.687,0,0,1-2.241-.818,1.686,1.686,0,0,1,.818-2.241l11.637-5.414a1.688,1.688,0,0,1,.712-.158h26.816a1.687,1.687,0,0,1,1.687,1.687v9.276A1.687,1.687,0,0,1-1707.8,266.337Z" transform="translate(1747.939 -253.688)" fill="#1d7e96"/>
            </g>
          </g>
          <g id="Grupo_126688" data-name="Grupo 126688" transform="translate(35.833 9.936)">
            <path id="Trazado_185975" data-name="Trazado 185975" d="M-1651.3,279.653h-2.024a.975.975,0,0,0-.975.975v6.6a.974.974,0,0,0,.975.974h7.571a.975.975,0,0,0,.975-.974v-1.05A6.522,6.522,0,0,0-1651.3,279.653Z" transform="translate(1654.299 -279.653)" fill="#1d7e96"/>
          </g>
        </g>
        <g id="Grupo_126693" data-name="Grupo 126693" transform="translate(100.526)">
          <g id="Grupo_126691" data-name="Grupo 126691">
            <g id="Grupo_126690" data-name="Grupo 126690">
              <path id="Trazado_185976" data-name="Trazado 185976" d="M-1445.1,266.337a1.686,1.686,0,0,1-1.686-1.686v-7.59h-24.756l-11.3,5.257a1.687,1.687,0,0,1-2.241-.818,1.686,1.686,0,0,1,.818-2.241l11.638-5.414a1.686,1.686,0,0,1,.711-.158h26.816a1.687,1.687,0,0,1,1.687,1.687v9.276A1.686,1.686,0,0,1-1445.1,266.337Z" transform="translate(1485.24 -253.688)" fill="#1d7e96"/>
            </g>
          </g>
          <g id="Grupo_126692" data-name="Grupo 126692" transform="translate(35.833 9.936)">
            <path id="Trazado_185977" data-name="Trazado 185977" d="M-1388.6,279.653h-2.024a.975.975,0,0,0-.975.975v6.6a.974.974,0,0,0,.975.974h7.571a.974.974,0,0,0,.975-.974v-1.05A6.522,6.522,0,0,0-1388.6,279.653Z" transform="translate(1391.599 -279.653)" fill="#1d7e96"/>
          </g>
        </g>
        <g id="Grupo_126697" data-name="Grupo 126697" transform="translate(50.263)">
          <g id="Grupo_126695" data-name="Grupo 126695">
            <g id="Grupo_126694" data-name="Grupo 126694">
              <path id="Trazado_185978" data-name="Trazado 185978" d="M-1576.449,266.337a1.686,1.686,0,0,1-1.686-1.686v-7.59h-24.756l-11.3,5.257a1.687,1.687,0,0,1-2.241-.818,1.687,1.687,0,0,1,.818-2.241l11.638-5.414a1.688,1.688,0,0,1,.711-.158h26.816a1.687,1.687,0,0,1,1.687,1.687v9.276A1.687,1.687,0,0,1-1576.449,266.337Z" transform="translate(1616.589 -253.688)" fill="#1d7e96"/>
            </g>
          </g>
          <g id="Grupo_126696" data-name="Grupo 126696" transform="translate(35.833 9.936)">
            <path id="Trazado_185979" data-name="Trazado 185979" d="M-1519.95,279.653h-2.024a.975.975,0,0,0-.975.975v6.6a.974.974,0,0,0,.975.974h7.571a.974.974,0,0,0,.975-.974v-1.05A6.522,6.522,0,0,0-1519.95,279.653Z" transform="translate(1522.949 -279.653)" fill="#1d7e96"/>
          </g>
        </g>
        <g id="Grupo_126702" data-name="Grupo 126702" transform="translate(150.789)">
          <g id="Grupo_126701" data-name="Grupo 126701">
            <g id="Grupo_126699" data-name="Grupo 126699">
              <g id="Grupo_126698" data-name="Grupo 126698">
                <path id="Trazado_185980" data-name="Trazado 185980" d="M-1313.749,266.337a1.686,1.686,0,0,1-1.686-1.686v-7.59h-24.756l-11.3,5.257a1.687,1.687,0,0,1-2.241-.818,1.687,1.687,0,0,1,.818-2.241l11.637-5.414a1.686,1.686,0,0,1,.711-.158h26.816a1.687,1.687,0,0,1,1.687,1.687v9.276A1.687,1.687,0,0,1-1313.749,266.337Z" transform="translate(1353.889 -253.688)" fill="#1d7e96"/>
              </g>
            </g>
            <g id="Grupo_126700" data-name="Grupo 126700" transform="translate(35.833 9.936)">
              <path id="Trazado_185981" data-name="Trazado 185981" d="M-1257.25,279.653h-2.024a.975.975,0,0,0-.975.975v6.6a.974.974,0,0,0,.975.974h7.571a.974.974,0,0,0,.975-.974v-1.05A6.522,6.522,0,0,0-1257.25,279.653Z" transform="translate(1260.249 -279.653)" fill="#1d7e96"/>
            </g>
          </g>
        </g>
      </g>
      <g id="Grupo_126704" data-name="Grupo 126704" transform="translate(92.104 83.503)">
        <path id="Trazado_185982" data-name="Trazado 185982" d="M-1638.634,482.836s7.182.21,7.643-5.663c.159-2.025.076-5.27.076-5.27h67.261s2.031,3.859.145,7.4a6.775,6.775,0,0,1-6,3.528Z" transform="translate(1638.634 -471.903)" fill="#a3edff"/>
      </g>
      <g id="Grupo_126705" data-name="Grupo 126705" transform="translate(0 126.867)">
        <rect id="Rectángulo_37378" data-name="Rectángulo 37378" width="294.236" height="4.063" fill="#12263f"/>
      </g>
      <g id="Grupo_126708" data-name="Grupo 126708" transform="translate(37.522 130.931)">
        <g id="Grupo_126706" data-name="Grupo 126706">
          <rect id="Rectángulo_37379" data-name="Rectángulo 37379" width="9.954" height="109.779" fill="#12263f"/>
        </g>
        <g id="Grupo_126707" data-name="Grupo 126707" transform="translate(184.597)">
          <rect id="Rectángulo_37380" data-name="Rectángulo 37380" width="9.955" height="109.779" fill="#12263f"/>
        </g>
      </g>
      <g id="Grupo_126710" data-name="Grupo 126710" transform="translate(24.933 235.879)">
        <rect id="Rectángulo_37381" data-name="Rectángulo 37381" width="35.132" height="9.661" fill="#12263f"/>
      </g>
      <g id="Grupo_126711" data-name="Grupo 126711" transform="translate(209.531 235.879)">
        <rect id="Rectángulo_37382" data-name="Rectángulo 37382" width="35.132" height="9.661" fill="#12263f"/>
      </g>
    </g>
    <g id="Grupo_126713" data-name="Grupo 126713" transform="translate(-1724.653 354.813)">
      <path id="Trazado_185989" data-name="Trazado 185989" d="M-1475.121,519.111l15.927,142.4a.968.968,0,0,0,1.034.856l.024,0a.964.964,0,0,0,.887-1.071l-.817-7.3h21.484l.828,7.394a.966.966,0,0,0,.949.859h.02a.966.966,0,0,0,.972-1.074l-2.412-21.513c0-.034,0-.069,0-.1l-13.489-120.691a1,1,0,0,0-.97-.913,1.014,1.014,0,0,0-.969,1.156l1.328,11.862h-21.484l-1.355-12.106a1,1,0,0,0-.97-.913h-.012A1.015,1.015,0,0,0-1475.121,519.111ZM-1460,636.738h21.48l.338,3.066c0,.036.014.069.021.1l1.344,12.007H-1458.3Zm-1.9-17.258h21.457l1.689,15.09.01.087h-21.484l-.03-.272Zm-1.947-17.393h21.484l1.672,15.176h-21.457Zm-1.932-17.258h21.124a.927.927,0,0,0,.352-.072l1.707,15.248h-21.484Zm-1.932-17.258h21.484l1.7,15.19a.887.887,0,0,0-.129-.014h-21.357Zm-1.932-17.258h21.484l1.7,15.176h-21.484Zm-1.932-17.258h21.484l1.7,15.177h-21.484Z" transform="translate(1475.128 -517.955)" fill="#12263f"/>
    </g>
    <path id="Trazado_185990" data-name="Trazado 185990" d="M-1245.008,687.935l-14.7,2.359s-12.612-5.423-17.072-4.359-1.573,4.468-.807,5.234,9.656,6.867,15.174,6.867c5.314,0,16.511-4.037,16.507-4.7S-1245.008,687.935-1245.008,687.935Z" transform="translate(-370.469 -266.757)" fill="#74ddf7"/>
    <g id="Grupo_126746" data-name="Grupo 126746" transform="translate(-1862.239 267.118)">
      <path id="Trazado_185991" data-name="Trazado 185991" d="M-1712.084,380.739s-6.83,2.569-10.092,3.083c-.034,1.107-.047,4.447.943,5.914,5.862-.382,9.179-1.813,10.427-3.476C-1709.361,384.335-1712.084,380.739-1712.084,380.739Z" transform="translate(1765.232 -345.552)" fill="#a3edff"/>
      <path id="Trazado_185992" data-name="Trazado 185992" d="M-1746.88,378.009a6.267,6.267,0,0,1-.943.09c-2.6,0-11.948-8.012-14.068-6.612s7.035,12.052,12.885,12.426a23.852,23.852,0,0,0,3.068.01C-1746.927,382.456-1746.914,379.115-1746.88,378.009Z" transform="translate(1789.935 -339.738)" fill="#ffa982"/>
      <g id="Grupo_126719" data-name="Grupo 126719" transform="translate(0 0)">
        <g id="Grupo_126718" data-name="Grupo 126718">
          <g id="Grupo_126715" data-name="Grupo 126715" transform="translate(9.559 0.533)">
            <g id="Grupo_126714" data-name="Grupo 126714">
              <path id="Trazado_185993" data-name="Trazado 185993" d="M-1805.973,301.79l-.556.426-3.093-4.038a.35.35,0,0,1,.065-.491l4.383-3.357a1.338,1.338,0,0,0,.249-1.874l-1.01-1.319a.663.663,0,0,0-.928-.123l-.577.442-.426-.556.577-.442a1.364,1.364,0,0,1,1.91.253l1.01,1.319a2.04,2.04,0,0,1-.379,2.856l-4.105,3.144Z" transform="translate(1809.694 -290.178)" fill="#84ceca"/>
            </g>
          </g>
          <g id="Grupo_126716" data-name="Grupo 126716">
            <rect id="Rectángulo_37383" data-name="Rectángulo 37383" width="13.935" height="3.348" rx="1.674" transform="matrix(0.794, -0.608, 0.608, 0.794, 0, 8.473)" fill="#ccfff9"/>
          </g>
          <g id="Grupo_126717" data-name="Grupo 126717" transform="translate(11.928 11.347)">
            <path id="Trazado_185994" data-name="Trazado 185994" d="M-1802.379,318.527l-.953.73a.438.438,0,0,0-.081.614l31.663,41.421,1.648-1.262-31.663-41.421A.438.438,0,0,0-1802.379,318.527Z" transform="translate(1803.504 -318.437)" fill="#fff"/>
          </g>
        </g>
      </g>
      <g id="Grupo_126733" data-name="Grupo 126733" transform="translate(51.857 33.693)">
        <g id="Grupo_126722" data-name="Grupo 126722" transform="translate(3.367 68.976)">
          <path id="Trazado_185995" data-name="Trazado 185995" d="M-1672.669,566.657a32.245,32.245,0,0,1-.01-5.068c.255-1.27-3.34-5.136-3.658-4.413s.458,8.143-.033,8.7S-1673.4,567.959-1672.669,566.657Z" transform="translate(1681.752 -557.087)" fill="#eae6e4"/>
          <g id="Grupo_126721" data-name="Grupo 126721" transform="translate(0 8.609)">
            <g id="Grupo_126720" data-name="Grupo 126720" transform="translate(0.017)">
              <path id="Trazado_185996" data-name="Trazado 185996" d="M-1690.3,582.522c.139-.468,1.209-.6,2.194-.932a4.035,4.035,0,0,0,1.87-1.533,1.62,1.62,0,0,1,1.219-.473,4.179,4.179,0,0,0,.866.4c.609.222.46.559,1.28.341a2.806,2.806,0,0,1,1.317-.087l.388.072c.185.034.258.468.271.943a10.823,10.823,0,0,1-2.7,1.02,44.909,44.909,0,0,1-5.741.544c-.293-.056-.663-.153-.977-.242C-1690.309,582.559-1690.3,582.54-1690.3,582.522Z" transform="translate(1690.313 -579.583)" fill="#2e2e47"/>
            </g>
            <path id="Trazado_185997" data-name="Trazado 185997" d="M-1689.364,585.514a44.937,44.937,0,0,0,5.742-.544,10.826,10.826,0,0,0,2.7-1.02,4.5,4.5,0,0,1-.107,1.241c-.119.27-1.323.481-1.939.62s-6.581.531-6.863.485a.933.933,0,0,1-.51-1.023C-1690.027,585.361-1689.657,585.458-1689.364,585.514Z" transform="translate(1690.358 -582.279)" fill="#2e2e47"/>
          </g>
        </g>
        <g id="Grupo_126725" data-name="Grupo 126725" transform="translate(34.111 62.233)">
          <path id="Trazado_185998" data-name="Trazado 185998" d="M-1603.789,544.217a34.124,34.124,0,0,1-2.937-4.248c-.521-1.2-3.435.022-3.285.792s2.755,3.976,2.666,4.7S-1603.648,545.683-1603.789,544.217Z" transform="translate(1610.017 -539.467)" fill="#eae6e4"/>
          <g id="Grupo_126724" data-name="Grupo 126724" transform="translate(2.201 3.874)">
            <g id="Grupo_126723" data-name="Grupo 126723">
              <path id="Trazado_185999" data-name="Trazado 185999" d="M-1604.107,558.1c-.35-.357.09-1.285.312-2.245a3.667,3.667,0,0,0-.4-2.3,1.4,1.4,0,0,1,.214-1.224,4.134,4.134,0,0,0,.817-.482c.521-.37.748-.073.981-.844a2.457,2.457,0,0,1,.614-1.1l.27-.273c.128-.129.559.041.995.28a9.31,9.31,0,0,1-.5,2.7,38.906,38.906,0,0,1-2.528,4.879c-.205.205-.487.45-.732.654C-1604.078,558.132-1604.093,558.119-1604.107,558.1Z" transform="translate(1604.265 -549.59)" fill="#2e2e47"/>
            </g>
            <path id="Trazado_186000" data-name="Trazado 186000" d="M-1603.008,558.014a38.919,38.919,0,0,0,2.528-4.879,9.317,9.317,0,0,0,.5-2.7,5.072,5.072,0,0,1,1.066.739c.181.237-.261,1.311-.46,1.877s-2.982,5.544-3.172,5.745a1.057,1.057,0,0,1-1.193-.13C-1603.495,558.464-1603.213,558.219-1603.008,558.014Z" transform="translate(1603.941 -550.114)" fill="#2e2e47"/>
          </g>
        </g>
        <path id="Trazado_186001" data-name="Trazado 186001" d="M-1681.1,398.443c.308-.292.291-1.6.291-1.6a27.488,27.488,0,0,0-1.124-6.28c-1.281-4.239-3.206-9.032-4.81-10.775-1.579-1.716-5.44-4.814-11.121-1.461-2.637,1.557-.667,19.043.919,19.9C-1695,400.609-1684.215,402.606-1681.1,398.443Z" transform="translate(1699.157 -376.835)" fill="#a3edff"/>
        <path id="Trazado_186002" data-name="Trazado 186002" d="M-1677.248,429.126a52.808,52.808,0,0,1-8.078,1.636,25.985,25.985,0,0,1-8.058-.249l6.184,55.232a14.348,14.348,0,0,0,2.1.368,16.1,16.1,0,0,0,2.338-.5s.291-19.647.161-22.514c-.028-.615-.35-2.44-.35-2.44l-.629-19.025c.88,2.715,2.578,4.683,4.587,8.939,4.4,9.309,17.371,26.043,17.371,26.043a8.749,8.749,0,0,0,3.159-1.244,8.044,8.044,0,0,0,2.027-2.021L-1670,449.9Z" transform="translate(1695.593 -409.116)" fill="#1d7e96"/>
        <path id="Trazado_186003" data-name="Trazado 186003" d="M-1662.995,431.173l.231,1.222,4.407-1.144-.311-1.094Z" transform="translate(1676.833 -409.753)" fill="#74ddf7"/>
        <g id="Grupo_126726" data-name="Grupo 126726" transform="translate(15.56 24.039)">
          <path id="Trazado_186004" data-name="Trazado 186004" d="M-1655.346,443.214a.173.173,0,0,1-.061-.011c-2.878-1.076-3.079-3.268-3.086-3.361a.175.175,0,0,1,.16-.187.174.174,0,0,1,.187.16c.007.085.2,2.067,2.861,3.062a.174.174,0,0,1,.1.224A.175.175,0,0,1-1655.346,443.214Z" transform="translate(1658.494 -439.655)" fill="#fff"/>
        </g>
        <g id="Grupo_126727" data-name="Grupo 126727" transform="translate(18.046 27.045)">
          <path id="Trazado_186005" data-name="Trazado 186005" d="M-1646.549,460.293a.174.174,0,0,1-.162-.111c-.192-.494-5.222-12.31-5.273-12.429a.173.173,0,0,1,.092-.228.173.173,0,0,1,.228.092c.208.487,5.083,11.94,5.277,12.44a.174.174,0,0,1-.1.225A.173.173,0,0,1-1646.549,460.293Z" transform="translate(1651.998 -447.51)" fill="#fff"/>
        </g>
        <g id="Grupo_126728" data-name="Grupo 126728" transform="translate(8.344 29.824)">
          <path id="Trazado_186006" data-name="Trazado 186006" d="M-1671.065,456.205a.172.172,0,0,1-.079-.019c-1.679-.862-6-1.065-6.043-1.067a.174.174,0,0,1-.166-.181.177.177,0,0,1,.182-.166c.181.008,4.44.209,6.186,1.1a.174.174,0,0,1,.076.234A.174.174,0,0,1-1671.065,456.205Z" transform="translate(1677.353 -454.772)" fill="#fff"/>
        </g>
        <path id="Trazado_186007" data-name="Trazado 186007" d="M-1692.7,433.507l.149,1.1s.474.447,2.587.672a10.932,10.932,0,0,0,2.605-.009l-.146-1.331A18.8,18.8,0,0,1-1692.7,433.507Z" transform="translate(1695.169 -411.821)" fill="#74ddf7"/>
        <path id="Trazado_186008" data-name="Trazado 186008" d="M-1678,433.553l.1,1.313a22.513,22.513,0,0,0,5.238-.612l-.218-1.334A21.784,21.784,0,0,1-1678,433.553Z" transform="translate(1686.094 -411.458)" fill="#74ddf7"/>
        <g id="Grupo_126729" data-name="Grupo 126729" transform="translate(10.114 23.52)">
          <path id="Trazado_186009" data-name="Trazado 186009" d="M-1671.212,444.156a.174.174,0,0,1-.173-.155c-.068-.625-1.322-5.436-1.335-5.484a.174.174,0,0,1,.124-.212.174.174,0,0,1,.212.125c.052.2,1.274,4.885,1.344,5.534a.174.174,0,0,1-.154.192Z" transform="translate(1672.726 -438.299)" fill="#fff"/>
        </g>
        <g id="Grupo_126730" data-name="Grupo 126730" transform="translate(8.897 23.6)">
          <path id="Trazado_186010" data-name="Trazado 186010" d="M-1673.53,442.673h-.009a2.2,2.2,0,0,1-1.384-.553,15.425,15.425,0,0,1-.981-3.4.174.174,0,0,1,.137-.2.174.174,0,0,1,.2.137,15,15,0,0,0,.907,3.247,1.841,1.841,0,0,0,1.135.429.175.175,0,0,1,.165.183A.174.174,0,0,1-1673.53,442.673Z" transform="translate(1675.908 -438.509)" fill="#fff"/>
        </g>
        <g id="Grupo_126731" data-name="Grupo 126731" transform="translate(21.624 40.707)">
          <path id="Trazado_186011" data-name="Trazado 186011" d="M-1642.273,486.826a.408.408,0,0,1-.268-.084.294.294,0,0,1-.108-.247c.03-.685,2.857-2.664,3.723-3.254a.174.174,0,0,1,.242.046.174.174,0,0,1-.046.242c-1.675,1.141-3.483,2.573-3.568,2.957.248.1,1.26-.663,2.179-1.65a.174.174,0,0,1,.243-.011.174.174,0,0,1,.016.243,5.245,5.245,0,0,0-.877,1.3,13.072,13.072,0,0,0,1.827-2.27.174.174,0,0,1,.242-.046.174.174,0,0,1,.046.242c-1.854,2.725-2.2,2.508-2.333,2.426a.3.3,0,0,1-.136-.214.645.645,0,0,1,.053-.31A2.209,2.209,0,0,1-1642.273,486.826Z" transform="translate(1642.649 -483.211)" fill="#fff"/>
        </g>
        <g id="Grupo_126732" data-name="Grupo 126732" transform="translate(25.127 43.489)">
          <path id="Trazado_186012" data-name="Trazado 186012" d="M-1622.745,509.145a.173.173,0,0,1-.149-.083c-1.264-2.064-10.484-18.158-10.578-18.32a.174.174,0,0,1,.065-.237.174.174,0,0,1,.238.064c.093.162,9.31,16.253,10.572,18.312a.174.174,0,0,1-.057.239A.175.175,0,0,1-1622.745,509.145Z" transform="translate(1633.494 -490.482)" fill="#fff"/>
        </g>
        <path id="Trazado_186013" data-name="Trazado 186013" d="M-1695.657,398.332s-1.972-13.627-1.25-19.78a3.833,3.833,0,0,1,1.691-.821l.556,8.219,4.892-.646-.828-8.293a3.15,3.15,0,0,1,2.263.7s3.177,13.49,3.9,16.114a7.334,7.334,0,0,0,2.3,3.8S-1689.732,399.914-1695.657,398.332Z" transform="translate(1697.866 -376.935)" fill="#1d7e96"/>
      </g>
      <path id="Trazado_186014" data-name="Trazado 186014" d="M-1728.487,409.907a7.247,7.247,0,0,1-2.166-.524,7.5,7.5,0,0,0-2.006-1.551c-.883-.367-1.167-.911-1.482-.971s-.171.393.068.615a6.475,6.475,0,0,1,1.039,1.344c.068.244-.312.246-.558.152s-1.548-.926-2.008-.7.533,2.644.866,3a3.059,3.059,0,0,0,2.408,1.095c1.149.1,2.807.129,3.5.16S-1727.12,410.1-1728.487,409.907Z" transform="translate(1773.587 -361.674)" fill="#ffa982"/>
      <path id="Trazado_186015" data-name="Trazado 186015" d="M-1759.614,368.111s-.074-.162-.094-.2a5.64,5.64,0,0,0-1.366-1.456c-.57-.331-1.129-1.311-1.494-1.459s.069,1.117.319,1.539a6.833,6.833,0,0,1,.844,1.3c.422.889,1.824,1.779,2.189,1.345Z" transform="translate(1790.246 -335.827)" fill="#ffa982"/>
      <path id="Trazado_186016" data-name="Trazado 186016" d="M-1766.258,370.19a.574.574,0,0,0,.379-.437c.042-.329-.424-.37-.424-.37s.454-.172.365-.431-.854-.362-.854-.362l-.734-.069s1.155-.135,1.315-.505-1.342-.366-1.342-.366-.98.115-1.06.669a.649.649,0,0,0,.381.725,1.36,1.36,0,0,0-.153.69c.051.3.458.273.458.273s-.172.325-.108.5.458.273.458.273a.3.3,0,0,0,.066.334,2.054,2.054,0,0,0,1.725-.431C-1765.536,370.251-1766.258,370.19-1766.258,370.19Z" transform="translate(1793.899 -337.471)" fill="#ffa982"/>
      <g id="Grupo_126734" data-name="Grupo 126734" transform="translate(42.216 34.786)">
        <path id="Trazado_186017" data-name="Trazado 186017" d="M-1706.9,412.626a6.837,6.837,0,0,1-1.041,1.475c-2.062,1.193-15.56-2.091-16.381.007s13.708,8.631,19.016,5.518c1.691-.991,2.567-3.122,2.951-5.255C-1704.423,413.285-1706.172,413.127-1706.9,412.626Z" transform="translate(1724.353 -400.023)" fill="#ffa982"/>
        <path id="Trazado_186018" data-name="Trazado 186018" d="M-1675.056,394.38c2.561-12.593-3.288-14.689-3.288-14.689s-1.374,9.97-2.663,12.808A6.343,6.343,0,0,0-1675.056,394.38Z" transform="translate(1697.594 -379.691)" fill="#a3edff"/>
      </g>
      <g id="Grupo_126743" data-name="Grupo 126743" transform="translate(53.016 24.169)">
        <path id="Trazado_186019" data-name="Trazado 186019" d="M-1683.916,362.085s-1.218,1.691-2.188,1.714c-1.557.037.19-3.147.507-3.394S-1683.963,359.578-1683.916,362.085Z" transform="translate(1690.334 -357.021)" fill="#12263f"/>
        <path id="Trazado_186020" data-name="Trazado 186020" d="M-1687.845,369.12a11.063,11.063,0,0,0,.674,2.854c.265.5-1.372,1.618-2.25,1.689s-.226-1.534-.151-1.947.063-1.6.115-1.782S-1688.1,368.891-1687.845,369.12Z" transform="translate(1692.268 -362.524)" fill="#ffa982"/>
        <path id="Trazado_186021" data-name="Trazado 186021" d="M-1688.974,371.262c-.016.381-.027.918-.062,1.237a.968.968,0,0,0,.214-.073c.9-.439,1.078-1.869,1.078-1.869Z" transform="translate(1691.75 -363.435)" fill="#2e2e47"/>
        <path id="Trazado_186022" data-name="Trazado 186022" d="M-1694.642,357.853l-.748,1.772a9.377,9.377,0,0,0-.607,1.437c-.179.644-.364,1.955.786,2.417a2.76,2.76,0,0,0,2.924-.344,9.877,9.877,0,0,0,.807-1.234.611.611,0,0,0,.692-.265c.337-.414.738-.977.333-1.171s-.561.008-.651-.053-.153-1.34-.644-1.663S-1694.128,357.35-1694.642,357.853Z" transform="translate(1696.129 -355.511)" fill="#ffa982"/>
        <g id="Grupo_126735" data-name="Grupo 126735" transform="translate(2.383 3.761)">
          <path id="Trazado_186023" data-name="Trazado 186023" d="M-1688.921,362.383a.087.087,0,0,1-.064-.028,1.965,1.965,0,0,0-.45-.369.382.382,0,0,0-.334,0,.087.087,0,0,1-.119-.032.087.087,0,0,1,.032-.119.557.557,0,0,1,.5-.009,2.109,2.109,0,0,1,.5.408.087.087,0,0,1-.006.123A.086.086,0,0,1-1688.921,362.383Z" transform="translate(1689.901 -361.775)" fill="#2e2e47"/>
        </g>
        <path id="Trazado_186024" data-name="Trazado 186024" d="M-1689.276,365.2c-.038.146-.292.205-.568.133s-.469-.248-.432-.393.292-.205.568-.133S-1689.238,365.053-1689.276,365.2Z" transform="translate(1692.519 -359.865)" fill="#f2836d"/>
        <path id="Trazado_186025" data-name="Trazado 186025" d="M-1694.767,364.022a.292.292,0,0,1-.367.186.291.291,0,0,1-.229-.341.291.291,0,0,1,.366-.186A.292.292,0,0,1-1694.767,364.022Z" transform="translate(1695.661 -359.183)" fill="#f2836d"/>
        <g id="Grupo_126737" data-name="Grupo 126737" transform="translate(2.19 4.27)">
          <g id="Grupo_126736" data-name="Grupo 126736">
            <path id="Trazado_186026" data-name="Trazado 186026" d="M-1689.513,363.577a.088.088,0,0,1-.059-.023,1.066,1.066,0,0,0-.737-.272.088.088,0,0,1-.1-.077.088.088,0,0,1,.077-.1,1.231,1.231,0,0,1,.875.317.087.087,0,0,1,0,.123A.086.086,0,0,1-1689.513,363.577Z" transform="translate(1690.406 -363.105)" fill="#2e2e47"/>
          </g>
        </g>
        <g id="Grupo_126739" data-name="Grupo 126739" transform="translate(0.669 3.956)">
          <g id="Grupo_126738" data-name="Grupo 126738">
            <path id="Trazado_186027" data-name="Trazado 186027" d="M-1693.641,362.652a.088.088,0,0,1-.066-.029.45.45,0,0,0-.544-.111.087.087,0,0,1-.119-.033.087.087,0,0,1,.032-.119.616.616,0,0,1,.762.148.087.087,0,0,1-.008.122A.086.086,0,0,1-1693.641,362.652Z" transform="translate(1694.381 -362.283)" fill="#2e2e47"/>
          </g>
        </g>
        <path id="Trazado_186028" data-name="Trazado 186028" d="M-1683.788,361.9s-.576.725-.963.689.015-1.327.039-1.586a1.518,1.518,0,0,0-.116-.594S-1683.031,360.942-1683.788,361.9Z" transform="translate(1689.209 -357.168)" fill="#12263f"/>
        <g id="Grupo_126741" data-name="Grupo 126741" transform="translate(0.9 3.44)">
          <g id="Grupo_126740" data-name="Grupo 126740">
            <path id="Trazado_186029" data-name="Trazado 186029" d="M-1693.025,363.126a.684.684,0,0,1-.494-.221.425.425,0,0,1-.144-.332.73.73,0,0,1,.351-.488.668.668,0,0,0,.163-.77c-.083-.227-.531-.206-.536-.206a.087.087,0,0,1-.092-.082.087.087,0,0,1,.082-.092c.023,0,.582-.031.711.32a.838.838,0,0,1-.221.967c-.184.14-.277.259-.283.361a.26.26,0,0,0,.094.2.536.536,0,0,0,.728.04.087.087,0,0,1,.122.013.087.087,0,0,1-.013.122A.768.768,0,0,1-1693.025,363.126Z" transform="translate(1693.777 -360.935)" fill="#2e2e47"/>
          </g>
        </g>
        <path id="Trazado_186030" data-name="Trazado 186030" d="M-1689.748,363.491s-.018.287-.181.329-.209-.077-.219-.173.049-.3.14-.3S-1689.759,363.432-1689.748,363.491Z" transform="translate(1692.437 -358.984)" fill="#2e2e47"/>
        <path id="Trazado_186031" data-name="Trazado 186031" d="M-1693.7,362.675s-.021.287-.156.332-.173-.073-.178-.168.046-.3.122-.3S-1693.711,362.617-1693.7,362.675Z" transform="translate(1694.838 -358.484)" fill="#2e2e47"/>
        <path id="Trazado_186032" data-name="Trazado 186032" d="M-1691.931,352c1.987-.355,1.769,1.181,2.813,1.626,0,0,2.66.739,1.779,1.869a2.709,2.709,0,0,1-.462,1.516l-.512-.911c-.146.119-1.216.137-1.33-.4s-.5-.546-1.062-.8-1.2-.069-1.484-.181a5.145,5.145,0,0,1-.587-.261C-1693.01,354.331-1693.492,352.277-1691.931,352Z" transform="translate(1694.218 -351.945)" fill="#12263f"/>
        <g id="Grupo_126742" data-name="Grupo 126742" transform="translate(0.722 5.745)">
          <path id="Trazado_186033" data-name="Trazado 186033" d="M-1693.186,367.456c-.059,0-.125,0-.2,0a1.157,1.157,0,0,1-.84-.351.087.087,0,0,1,.014-.122.087.087,0,0,1,.122.013h0a.988.988,0,0,0,.713.287,1.409,1.409,0,0,0,.615-.046.089.089,0,0,1,.118.03.085.085,0,0,1-.024.116A1.026,1.026,0,0,1-1693.186,367.456Z" transform="translate(1694.243 -366.958)" fill="#2e2e47"/>
        </g>
      </g>
      <g id="Grupo_126744" data-name="Grupo 126744" transform="translate(65.009 38.866)">
        <path id="Trazado_186034" data-name="Trazado 186034" d="M-1664.7,400.467a.086.086,0,0,1-.024,0,.087.087,0,0,1-.06-.108,17.7,17.7,0,0,0,.407-3.692,57.388,57.388,0,0,0-.273-6.217.088.088,0,0,1,.078-.1.087.087,0,0,1,.095.078,57.47,57.47,0,0,1,.275,6.24,17.39,17.39,0,0,1-.414,3.734A.087.087,0,0,1-1664.7,400.467Z" transform="translate(1664.789 -390.352)" fill="#2e2e47"/>
      </g>
      <g id="Grupo_126745" data-name="Grupo 126745" transform="translate(47.743 38.531)">
        <path id="Trazado_186035" data-name="Trazado 186035" d="M-1705.8,393.593a.087.087,0,0,1-.077-.047c-.969-1.878-2.179-3.9-2.448-3.9h0c-.168.4.873,1.891,1.373,2.607.432.619.465.675.434.749l-.019.044-.052.012c-.072.013-.149-.035-1.04-.691a15.514,15.514,0,0,0-2.107-1.414.088.088,0,0,1-.06.067.082.082,0,0,1-.106-.054.139.139,0,0,1,.045-.168c.161-.111.64.182,2.331,1.428.253.186.511.377.694.5-.075-.111-.17-.246-.262-.379-.842-1.2-1.581-2.322-1.39-2.766a.17.17,0,0,1,.153-.114h0c.507,0,2.123,3.052,2.608,3.99a.087.087,0,0,1-.037.117A.089.089,0,0,1-1705.8,393.593Z" transform="translate(1709.909 -389.476)" fill="#2e2e47"/>
      </g>
    </g>
    <ellipse id="Elipse_5191" data-name="Elipse 5191" cx="23.338" cy="1.958" rx="23.338" ry="1.958" transform="translate(-1628.89 499.154)" fill="#8dd52c"/>
    <g id="Grupo_126747" data-name="Grupo 126747" transform="translate(-1618.528 494.455)">
      <path id="Trazado_186036" data-name="Trazado 186036" d="M-1197.292,889.069a2.289,2.289,0,0,0,1.073.436,13.869,13.869,0,0,0,3.078-.387c.912-.138,4.29-1.309,5.176-1.619l-.322-4.625-3.741.431s.13,1.465.125,1.806-5.511,2.4-5.828,3.556a1.582,1.582,0,0,0-.05.272A.6.6,0,0,1-1197.292,889.069Z" transform="translate(1197.787 -882.874)" fill="#b26001"/>
      <path id="Trazado_186037" data-name="Trazado 186037" d="M-1193.151,896.579a13.862,13.862,0,0,1-3.078.386,2.287,2.287,0,0,1-1.073-.436.6.6,0,0,0-.489-.13,1.438,1.438,0,0,0,1.189,1.435,17.59,17.59,0,0,0,8.4-1.83.47.47,0,0,0,.27-.459l-.041-.586C-1188.861,895.27-1192.239,896.441-1193.151,896.579Z" transform="translate(1197.796 -890.335)" fill="#2e2e47"/>
    </g>
    <g id="Grupo_126748" data-name="Grupo 126748" transform="translate(-1600.029 494.455)">
      <path id="Trazado_186038" data-name="Trazado 186038" d="M-1139.436,889.069a2.287,2.287,0,0,1-1.072.436,13.868,13.868,0,0,1-3.078-.387c-.912-.138-4.29-1.309-5.176-1.619l-.689-4.144,3.743-.481a15.839,15.839,0,0,1,.883,2.237c0,.341,5.511,2.4,5.828,3.556a1.593,1.593,0,0,1,.049.272A.6.6,0,0,0-1139.436,889.069Z" transform="translate(1149.451 -882.874)" fill="#b26001"/>
      <path id="Trazado_186039" data-name="Trazado 186039" d="M-1142.543,896.579a13.864,13.864,0,0,0,3.078.386,2.287,2.287,0,0,0,1.072-.436.6.6,0,0,1,.489-.13,1.438,1.438,0,0,1-1.189,1.435,17.59,17.59,0,0,1-8.4-1.83.47.47,0,0,1-.27-.459l.041-.586C-1146.833,895.27-1143.455,896.441-1142.543,896.579Z" transform="translate(1148.408 -890.335)" fill="#2e2e47"/>
    </g>
    <path id="Trazado_186040" data-name="Trazado 186040" d="M-1191.086,751.421l-11.447-.373-7.287-.238a74.193,74.193,0,0,0,1.193,10.676c.54,3.268,2.179,12.008,3.657,19.131.244,1.174,1.132,2.035,1.379,3.218,2.248,10.734,3.6,19.54,3.6,19.54a7.8,7.8,0,0,0,2.8.45,4.394,4.394,0,0,0,2.637-.566l-5-40.535c.885,2.973,2.891,9.687,5.027,16.834.256.857,1.37,2.822,1.628,3.686,3.2,10.7,5.566,20.373,5.566,20.373a8.71,8.71,0,0,0,3.357.15c2.411-.4,2.506-.916,2.506-.916l-4.462-20.709-1.314-6.319Z" transform="translate(-413.31 -306.891)" fill="#1d7e96"/>
    <path id="Trazado_186041" data-name="Trazado 186041" d="M-1179.463,665.861a1.555,1.555,0,0,0-1.082.935c-.251.756-.348,2.105.165,2.2s2.013-1.754,1.925-2.263S-1179.134,665.742-1179.463,665.861Z" transform="translate(-431.256 -254.438)" fill="#2e2e47"/>
    <path id="Trazado_186042" data-name="Trazado 186042" d="M-1200.291,687.731c-4.122,1.294-6.428,3.838-8.3,8.93-.273.742-1.686,3.38-2.43,10.42a14.562,14.562,0,0,0-.033,2.9c.09.7-.073,1.678,0,1.944.426,1.569,19.17.322,19.17.322s.981.383.395-5.909c-.751-8.047,1.454-12.713.321-14.761C-1192.287,689.564-1195.566,686.248-1200.291,687.731Z" transform="translate(-412.509 -267.722)" fill="#74ddf7"/>
    <path id="Trazado_186043" data-name="Trazado 186043" d="M-1192.614,713.471a21.881,21.881,0,0,1-1.249-8.584c.415-4.19,4.319-14.812,4.319-14.812l-2.013-1.084s-1.2,2.063-1.9,3.333a23.283,23.283,0,0,1-1.733,2.836l-4.406-.747,2.7-6.374a4.259,4.259,0,0,0-2.224.882s-4.905,7.059-5.774,11.538a114.809,114.809,0,0,0-1.175,13.011S-1198.677,715.157-1192.614,713.471Z" transform="translate(-415.626 -268.141)" fill="#1d7e96"/>
    <path id="Trazado_186044" data-name="Trazado 186044" d="M-1176.921,687.524a12.869,12.869,0,0,0,3.326.57c1.331-.048-.286-3.255-1.735-3.683s-3.482-.808-4.687-.261a2.445,2.445,0,0,0-1.558,1.544c-.289.57.325,1.805,1.088,2.091S-1176.921,687.524-1176.921,687.524Z" transform="translate(-430.702 -265.572)" fill="#74ddf7"/>
    <path id="Trazado_186045" data-name="Trazado 186045" d="M-1176.671,688.012a11.711,11.711,0,0,1,1.718-1.3c.487-.208,1.441-.175,1.418-.6s-3.76-1.093-4.411-.865-.66.416-.746,1.062.046,1.521.374,1.7A2.285,2.285,0,0,0-1176.671,688.012Z" transform="translate(-432.51 -266.389)" fill="#2e2e47"/>
    <path id="Trazado_186046" data-name="Trazado 186046" d="M-1175.346,687.932a3.551,3.551,0,0,1-1.071,1.731c-.759.547-1.543.4-1.662-.19a4.267,4.267,0,0,1,.42-1.782Z" transform="translate(-432.894 -267.926)" fill="#fff"/>
    <path id="Trazado_186047" data-name="Trazado 186047" d="M-1174.386,681.52a10.416,10.416,0,0,1-.488,2.851,1.861,1.861,0,0,1-1.963.595c-.87-.38-.024-2.131-.024-2.131Z" transform="translate(-433.429 -264.116)" fill="#ffe2bd"/>
    <path id="Trazado_186048" data-name="Trazado 186048" d="M-1176.69,684.491l.274-.146,1.88-.142a3.38,3.38,0,0,1-1.674.966,2.836,2.836,0,0,1-.744.037A4.725,4.725,0,0,1-1176.69,684.491Z" transform="translate(-433.6 -265.773)" fill="#2e2e47"/>
    <path id="Trazado_186049" data-name="Trazado 186049" d="M-1168.633,672.173a1.808,1.808,0,0,1,.331,1.774c-.411.915-2.214,2.146-3.11,1.983s.362-3.848.953-4.081A1.986,1.986,0,0,1-1168.633,672.173Z" transform="translate(-436.827 -258.087)" fill="#2e2e47"/>
    <path id="Trazado_186050" data-name="Trazado 186050" d="M-1179.25,666.545a2.423,2.423,0,0,0-2.823,1.222l-.558,1.071a11.871,11.871,0,0,0-.91,1.747,2.331,2.331,0,0,0,.951,3.021,3.836,3.836,0,0,0,3.942-.441,2.671,2.671,0,0,0,.706-1.062s.182.3.649-.192.96-1.355.47-1.641-.389.082-.5,0,.191-2.061-1.122-3.317A2.078,2.078,0,0,0-1179.25,666.545Z" transform="translate(-429.411 -254.812)" fill="#ffe2bd"/>
    <g id="Grupo_126749" data-name="Grupo 126749" transform="translate(-1611.985 413.433)">
      <path id="Trazado_186051" data-name="Trazado 186051" d="M-1179.5,674.035a.671.671,0,0,1-.566-.26.565.565,0,0,1-.026-.573,3.642,3.642,0,0,1,.253-.427,1.3,1.3,0,0,0,.282-1.346c-.1-.217-.727-.067-1.019.039a.088.088,0,0,1-.112-.052.087.087,0,0,1,.052-.111c.107-.039,1.052-.371,1.238.055a1.47,1.47,0,0,1-.3,1.511,3.521,3.521,0,0,0-.241.406.39.39,0,0,0,.012.4.523.523,0,0,0,.488.183.087.087,0,0,1,.094.08.087.087,0,0,1-.079.094Q-1179.465,674.035-1179.5,674.035Z" transform="translate(1180.697 -671.144)" fill="#2e2e47"/>
    </g>
    <g id="Grupo_126750" data-name="Grupo 126750" transform="translate(-1609.712 413.953)">
      <path id="Trazado_186052" data-name="Trazado 186052" d="M-1173.379,673.318a.088.088,0,0,1-.07-.036,1.617,1.617,0,0,0-1.219-.6.087.087,0,0,1-.087-.087.086.086,0,0,1,.087-.087,1.765,1.765,0,0,1,1.359.677.086.086,0,0,1-.02.121A.083.083,0,0,1-1173.379,673.318Z" transform="translate(1174.755 -672.503)" fill="#2e2e47"/>
    </g>
    <path id="Trazado_186053" data-name="Trazado 186053" d="M-1168.573,673.28s-.495,1.283-.771,1.381-.624-.14-.618-.293.626-1.887.694-2.055S-1168.666,673.227-1168.573,673.28Z" transform="translate(-437.915 -258.421)" fill="#2e2e47"/>
    <path id="Trazado_186054" data-name="Trazado 186054" d="M-1175.7,678.126s1.08.344,1.38.018-.9-.706-1.5-.655S-1175.973,678.053-1175.7,678.126Z" transform="translate(-434.117 -261.625)" fill="#ffa982"/>
    <path id="Trazado_186055" data-name="Trazado 186055" d="M-1182.776,676.307a.645.645,0,0,0,.088.036c.166.055.688.2.818-.136.155-.4-.639-.708-1.009-.59S-1183.219,676.083-1182.776,676.307Z" transform="translate(-429.786 -260.456)" fill="#ffa982"/>
    <g id="Grupo_126751" data-name="Grupo 126751" transform="translate(-1609.75 414.72)">
      <path id="Trazado_186056" data-name="Trazado 186056" d="M-1174.039,675.16h0a.087.087,0,0,1-.083-.091s-.005-.15-.262-.283a.983.983,0,0,0-.382-.1.087.087,0,0,1-.085-.089.09.09,0,0,1,.088-.085,1.152,1.152,0,0,1,.459.123c.356.184.357.419.355.445A.087.087,0,0,1-1174.039,675.16Z" transform="translate(1174.855 -674.508)" fill="#2e2e47"/>
    </g>
    <path id="Trazado_186057" data-name="Trazado 186057" d="M-1174.544,674.755a.205.205,0,0,0-.229.084c-.086.12-.175.32.035.461.32.215.447-.326.388-.42A.365.365,0,0,0-1174.544,674.755Z" transform="translate(-434.887 -259.935)" fill="#2e2e47"/>
    <g id="Grupo_126752" data-name="Grupo 126752" transform="translate(-1611.924 413.998)">
      <path id="Trazado_186058" data-name="Trazado 186058" d="M-1179.647,673.141a.087.087,0,0,1-.086-.075s-.032-.147-.308-.232a.976.976,0,0,0-.394-.034.086.086,0,0,1-.1-.072.087.087,0,0,1,.072-.1,1.142,1.142,0,0,1,.473.039c.384.117.426.349.429.374a.087.087,0,0,1-.074.1Z" transform="translate(1180.536 -672.619)" fill="#2e2e47"/>
    </g>
    <path id="Trazado_186059" data-name="Trazado 186059" d="M-1180.3,672.811a.205.205,0,0,0-.21.123c-.063.134-.115.346.117.448.353.155.381-.4.307-.483A.368.368,0,0,0-1180.3,672.811Z" transform="translate(-431.371 -258.739)" fill="#2e2e47"/>
    <path id="Trazado_186060" data-name="Trazado 186060" d="M-1173.284,665.208a.694.694,0,0,1-.222.749.876.876,0,0,1-.543.26c-.327-.047-1.527-1.548-3.259-2.033a20.553,20.553,0,0,0-2.959-.569,3.174,3.174,0,0,1,.573-1.319,2,2,0,0,1,.845,0,2.332,2.332,0,0,1,1.415-.76,8.712,8.712,0,0,0,1.585,0c.355-.131.914-.63,1.554-.261s.75.784.518,1.164-.027.594.15.939a2.236,2.236,0,0,1,.259,1.188A1.494,1.494,0,0,0-1173.284,665.208Z" transform="translate(-431.547 -251.536)" fill="#ff8900"/>
    <path id="Trazado_186061" data-name="Trazado 186061" d="M-1171.438,669.584a10.48,10.48,0,0,0,1.259,2.153c.665.781,1.58.987,1.764.623s-.552-1.089-.552-1.089a1.172,1.172,0,0,0-.518-1C-1170.084,669.762-1170.322,669.311-1171.438,669.584Z" transform="translate(-437.004 -256.697)" fill="#2e2e47"/>
    <g id="Grupo_126753" data-name="Grupo 126753" transform="translate(-1609.838 421.956)">
      <path id="Trazado_186062" data-name="Trazado 186062" d="M-1175,694.281a.087.087,0,0,1-.085-.068.087.087,0,0,1,.067-.1,2.056,2.056,0,0,0,.741-.34,1.8,1.8,0,0,1,.834-.344,24.422,24.422,0,0,1,3.589.471.087.087,0,0,1,.069.1.088.088,0,0,1-.1.069,25.023,25.023,0,0,0-3.536-.469,1.636,1.636,0,0,0-.76.317,2.2,2.2,0,0,1-.8.364Z" transform="translate(1175.086 -693.416)" fill="#2e2e47"/>
    </g>
    <path id="Trazado_186063" data-name="Trazado 186063" d="M-1274.781,687.487s.153-.4.511-.4.447,1.2.562,1.482-1.255.274-1.3-.148A1.37,1.37,0,0,1-1274.781,687.487Z" transform="translate(-373.059 -267.555)" fill="#ffe2bd"/>
    <path id="Trazado_186064" data-name="Trazado 186064" d="M-1228.354,692.58c1.765,1.218,9.16,9.336,9.16,9.336l10.487-6.691a2.534,2.534,0,0,1,3.708.8,3.049,3.049,0,0,1,.229.525,2.48,2.48,0,0,1,.118,1.245,35.157,35.157,0,0,1-4.5,5.517c-.4.43-.736,1.219-1.159,1.642-.275.274-.634.186-.914.451-2.386,2.26-7.244,4.544-8.953,4.426-6-.414-12.461-9.5-12.509-13.766C-1232.708,694.325-1229.808,691.577-1228.354,692.58Z" transform="translate(-399.192 -270.812)" fill="#74ddf7"/>
    <g id="Grupo_126754" data-name="Grupo 126754" transform="translate(-1623.142 424.326)">
      <path id="Trazado_186065" data-name="Trazado 186065" d="M-1206.024,710.84l-.044-.011c-.106-.035-.134-.045.042-2.944.06-.985.128-2.1.1-2.266-.263-.282-3.871-4.13-3.908-4.17a.087.087,0,0,1,0-.123.087.087,0,0,1,.123,0c.157.166,3.831,4.085,3.923,4.185.057.062.057.259-.073,2.38-.049.815-.112,1.847-.125,2.41.206-.831.572-2.758.71-3.488.043-.23.074-.391.086-.447.018-.088.085-.091.1-.088.1.006.1.006.213,1.2a24.491,24.491,0,0,0,.32,2.584c.037-.332.023-1.146.011-1.823a11.427,11.427,0,0,1,.071-2.338c.15-.372.767-.688,1.482-1.055.35-.179.711-.364,1.017-.559l7.311-4.665a.087.087,0,0,1,.12.026.087.087,0,0,1-.027.12l-7.311,4.665c-.313.2-.678.387-1.031.568-.626.321-1.275.653-1.4.965a12.656,12.656,0,0,0-.059,2.27c.03,1.709.01,2.043-.121,2.107a.112.112,0,0,1-.121-.017,8.947,8.947,0,0,1-.437-2.832c-.02-.216-.04-.435-.058-.619-.677,3.567-.8,3.891-.888,3.943Z" transform="translate(1209.853 -699.61)" fill="#2e2e47"/>
    </g>
    <g id="Grupo_126755" data-name="Grupo 126755" transform="translate(-1620.241 447.764)">
      <path id="Trazado_186066" data-name="Trazado 186066" d="M-1194.888,769.014a.087.087,0,0,1-.083-.061c-.987-3.148-2.222-6.558-2.565-6.676-.082-.028-.225-.083-.413-.155-.934-.358-3.776-1.445-4.13-.99a.065.065,0,0,0-.013.07c.14.4,2.279,1.051,3.595,1.368a.087.087,0,0,1,.064.1.087.087,0,0,1-.1.064c-.358-.086-3.5-.859-3.719-1.48a.238.238,0,0,1,.04-.234c.382-.491,2.4.2,4.33.934.186.071.328.125.408.154.582.2,2.329,5.69,2.674,6.788a.087.087,0,0,1-.057.109A.083.083,0,0,1-1194.888,769.014Z" transform="translate(1202.271 -760.859)" fill="#fff"/>
    </g>
    <g id="Grupo_126756" data-name="Grupo 126756" transform="translate(-1613.798 448.537)">
      <path id="Trazado_186067" data-name="Trazado 186067" d="M-1179.877,763.2a.088.088,0,0,1-.082-.058.084.084,0,0,1,0-.057c-.636-.084-3.545.021-5.386.115a.082.082,0,0,1-.091-.083.087.087,0,0,1,.083-.091c5.591-.288,5.633-.079,5.651.01s-.1.141-.145.159A.1.1,0,0,1-1179.877,763.2Z" transform="translate(1185.436 -762.88)" fill="#fff"/>
    </g>
    <g id="Grupo_126757" data-name="Grupo 126757" transform="translate(-1617.381 474.426)">
      <path id="Trazado_186068" data-name="Trazado 186068" d="M-1190.9,833.728a.087.087,0,0,1-.059-.023,28.842,28.842,0,0,0-3.793-3.011.087.087,0,0,1-.027-.12.087.087,0,0,1,.12-.027,29.03,29.03,0,0,1,3.819,3.031.087.087,0,0,1,0,.123A.086.086,0,0,1-1190.9,833.728Z" transform="translate(1194.798 -830.534)" fill="#fff"/>
    </g>
    <g id="Grupo_126758" data-name="Grupo 126758" transform="translate(-1607.137 472.784)">
      <path id="Trazado_186069" data-name="Trazado 186069" d="M-1161.307,831.08a.086.086,0,0,1-.05-.016l-6.632-4.662a.087.087,0,0,1-.021-.121.087.087,0,0,1,.121-.021l6.632,4.662a.087.087,0,0,1,.021.121A.087.087,0,0,1-1161.307,831.08Z" transform="translate(1168.027 -826.243)" fill="#fff"/>
    </g>
    <path id="Trazado_186070" data-name="Trazado 186070" d="M-1178.9,679.023a7.428,7.428,0,0,1-1.748-.551,1.781,1.781,0,0,0,0,.863C-1180.518,679.69-1179.379,679.658-1178.9,679.023Z" transform="translate(-431.285 -262.235)" fill="#fff"/>
    <path id="Trazado_186071" data-name="Trazado 186071" d="M-1176.821,667.354a18.3,18.3,0,0,1-3.171-.661c-.747-.345-1.046-.69-.815-1.226s1.093-.5,1.582-.221a6.374,6.374,0,0,1,.774.508s.792-.23,1.182.048S-1176.821,667.354-1176.821,667.354Z" transform="translate(-431.173 -253.947)" fill="#2e2e47"/>
    <path id="Trazado_186072" data-name="Trazado 186072" d="M-1322.073,687.691l26.262,3.7V757.3a12.607,12.607,0,0,1-3.667,8.97,9.4,9.4,0,0,1-3.281,2.187,43.085,43.085,0,0,1-7.051,2.123h-30.043s13.28-6.233,15.683-11.036S-1322.073,687.691-1322.073,687.691Z" transform="translate(-333.035 -267.926)" fill="#ff8900"/>
    <path id="Trazado_186073" data-name="Trazado 186073" d="M-1233.521,692.743s-3.321-.9-4.164-.525-1.839,2.737-1.482,2.859.741-.593.741-.593-.358,1.073-.077,1.124a.5.5,0,0,0,.46-.2s.051.141.409.211,1.047-1.386,1.047-1.386-.23,1.252.051,1.15.869-1.38.869-1.38,1.516.607,1.856.112S-1232.908,693.429-1233.521,692.743Z" transform="translate(-395.147 -270.664)" fill="#ffe2bd"/>
    <path id="Trazado_186074" data-name="Trazado 186074" d="M-1282.493,686.034c-.843.375-1.443,1.9-1.086,2.018s.726-.869.726-.869-.549,1.78-.268,1.831a.5.5,0,0,0,.46-.2s.051.142.409.211.633-.628.633-.628-.148.9.133.8a15.492,15.492,0,0,0,1.675-2.133S-1281.65,685.658-1282.493,686.034Z" transform="translate(-367.711 -266.863)" fill="#ffe2bd"/>
    <path id="Trazado_186076" data-name="Trazado 186076" d="M15.6,28.167H.282l-4.25,8.962H-16.391l25.4-47.974h10.61L28.486,37.13H16.756ZM4.5,19.238H14.45L12.341,2.7ZM32.341,37.13l8.3-47.974,15.255.033q9.028.033,13.476,3.427t4.053,9.522q-.494,7.578-8.3,10.741a8.136,8.136,0,0,1,4.366,3.575,10.446,10.446,0,0,1,1.334,6.211,13.794,13.794,0,0,1-5.486,10.708q-5.025,3.756-13.756,3.756Zm14.827-20.4-2.01,11.5,6.755.033A8.6,8.6,0,0,0,57.184,26.7a6.152,6.152,0,0,0,2.5-4.168q.923-5.5-4.217-5.766Zm1.285-7.578,5.3.033q7.348-.165,8.237-5.634.791-5.4-5.6-5.437l-6-.033Zm66.623,11.631a17.3,17.3,0,0,1-3.311,8.962,18.73,18.73,0,0,1-7.578,6.03,23.464,23.464,0,0,1-10.165,2.01q-7.512-.165-11.829-4.843T77.481,20.26A41.313,41.313,0,0,1,78.65,8.629,30.743,30.743,0,0,1,83.428-2.327a21.951,21.951,0,0,1,7.809-6.985,20.272,20.272,0,0,1,9.835-2.224q7.842.132,12.405,4.712T118.436,5.8L107.2,5.762q.066-4.382-1.582-6.26t-5.206-2.01q-8.9-.3-10.84,13.839a76.039,76.039,0,0,0-.89,9.127q-.165,8.105,6,8.336a8.8,8.8,0,0,0,6.359-1.96,9.8,9.8,0,0,0,3.031-5.914Z" transform="translate(-1758.61 290.052)" fill="#fff"/>
  </g>
</svg>
