<svg xmlns="http://www.w3.org/2000/svg" width="295" height="235.823" viewBox="0 0 295 235.823">
  <g id="Grupo_128811" data-name="Grupo 128811" transform="translate(-982 -911.113)">
    <path id="Rectángulo_37353" data-name="Rectángulo 37353" d="M80,0H295a0,0,0,0,1,0,0V120a80,80,0,0,1-80,80H0a0,0,0,0,1,0,0V80A80,80,0,0,1,80,0Z" transform="translate(982 946.81)" fill="#2df0da"/>
    <g id="Grupo_125181" data-name="Grupo 125181" transform="translate(417.004 877.038)">
      <g id="Grupo_125169" data-name="Grupo 125169" transform="translate(582.996 117.505)">
        <g id="Grupo_125105" data-name="Grupo 125105" transform="translate(122.258 78.261)">
          <path id="Trazado_185109" data-name="Trazado 185109" d="M808.334,320.333a38.352,38.352,0,0,1-23.017,2.1l3.529-18.449a24.749,24.749,0,0,1,14.557-1.994l.2.737,2.109,7.856Z" transform="translate(-785.317 -301.652)" fill="#e2af81" fill-rule="evenodd"/>
          <path id="Trazado_185110" data-name="Trazado 185110" d="M808.521,311.292l-16.1-5.306c5.632,1.662,13.995-2.55,13.995-2.55Z" transform="translate(-788.127 -302.358)" fill="#d2d5d8" fill-rule="evenodd" style="mix-blend-mode: multiply;isolation: isolate"/>
        </g>
        <g id="Grupo_125112" data-name="Grupo 125112" transform="translate(106.797 23.701)">
          <g id="Grupo_125106" data-name="Grupo 125106" transform="translate(34.286 0.181)">
            <ellipse id="Elipse_5175" data-name="Elipse 5175" cx="14.247" cy="14.851" rx="14.247" ry="14.851" fill="#12263f"/>
          </g>
          <path id="Trazado_185111" data-name="Trazado 185111" d="M764.523,233.22c-1.709,8.612-3.883,30.731,6.831,36.608,10.442,5.728,29.216,3.293,33.029-10.554,4.044-14.689,4.355-26.952-6.038-34.686C787.558,216.564,767.587,217.785,764.523,233.22Z" transform="translate(-761.065 -214.667)" fill="#e2af81" fill-rule="evenodd"/>
          <path id="Trazado_185112" data-name="Trazado 185112" d="M795.723,220.359s-5.665,10.625-18.073,12.405c0,0,6.462-2.9,7.985-6.086a64.123,64.123,0,0,1-19.991,9.16s4.387-2.4,5.359-4.134c1-1.793-6.223,4.458-11.271,4.869,0,0,.566-21.026,19.267-24.675C780.786,211.55,794.128,208.78,795.723,220.359Z" transform="translate(-759.731 -211.362)" fill="#12263f" fill-rule="evenodd"/>
          <path id="Trazado_185113" data-name="Trazado 185113" d="M817.911,224.718c-4.258,3.925,2.276,32.09,9.109,29.611C830.828,252.948,833.1,225.559,817.911,224.718Z" transform="translate(-782.218 -216.647)" fill="#12263f" fill-rule="evenodd"/>
          <path id="Trazado_185114" data-name="Trazado 185114" d="M761.975,252.069s-5.739,20.974,2.38,43.316c0,0-4.251-27.145-1.9-43.5Z" transform="translate(-759.84 -227.398)" fill="#12263f" fill-rule="evenodd"/>
          <path id="Trazado_185115" data-name="Trazado 185115" d="M817.583,242.957l2.946,48.578S823.736,255.744,817.583,242.957Z" transform="translate(-782.624 -223.865)" fill="#12263f" fill-rule="evenodd"/>
          <g id="Grupo_125107" data-name="Grupo 125107" transform="translate(40.565 31.967)">
            <ellipse id="Elipse_5176" data-name="Elipse 5176" cx="5.862" cy="6.07" rx="5.862" ry="6.07" fill="#e2af81"/>
          </g>
          <path id="Trazado_185116" data-name="Trazado 185116" d="M836.888,268.982c.036-.033-.233.019-.247.024a2.834,2.834,0,0,0-.444.216,6.449,6.449,0,0,0-1.183.941,9.006,9.006,0,0,0-2.219,3.917" transform="translate(-788.644 -234.159)" fill="none" stroke="#e2af81" stroke-linecap="round" stroke-linejoin="round" stroke-width="1" fill-rule="evenodd" style="mix-blend-mode: multiply;isolation: isolate"/>
          <path id="Trazado_185117" data-name="Trazado 185117" d="M835.73,272.124a2.213,2.213,0,0,1,.245.4,6.974,6.974,0,0,1,.379.942,7.868,7.868,0,0,1,.291,2.846" transform="translate(-789.8 -235.396)" fill="none" stroke="#e2af81" stroke-linecap="round" stroke-linejoin="round" stroke-width="1" fill-rule="evenodd" style="mix-blend-mode: multiply;isolation: isolate"/>
          <path id="Trazado_185118" data-name="Trazado 185118" d="M785.924,247.249c.056.247.1.5.136.747a14.678,14.678,0,0,1,.158,2.215,38.573,38.573,0,0,1-.43,5.084,13.126,13.126,0,0,1-.294,2.12c-.1.329-.323-.15-.408-.271a4.566,4.566,0,0,0-1.4-1.4,2.737,2.737,0,0,0-3.435.707c-1.225,1.508-.969,4.438.826,5.429a2.165,2.165,0,0,0,1.306.254c.091-.013.656-.262.692-.173.391.993-.012,2.841-.272,3.817a10.017,10.017,0,0,0-.584,1.348c.478.866,1.94,1.322,2.814,1.5a7.413,7.413,0,0,0,7.758-3.163" transform="translate(-767.55 -225.563)" fill="none" stroke="#272525" stroke-linecap="round" stroke-linejoin="round" stroke-width="1" fill-rule="evenodd"/>
          <path id="Trazado_185119" data-name="Trazado 185119" d="M798.2,248.752c-.073-.038.148-.071.224-.1.134-.049.269-.094.405-.131a5.16,5.16,0,0,1,1.349-.17,6.485,6.485,0,0,1,3.853,1.2" transform="translate(-774.947 -225.999)" fill="none" stroke="#272525" stroke-linecap="round" stroke-linejoin="round" stroke-width="1" fill-rule="evenodd"/>
          <path id="Trazado_185120" data-name="Trazado 185120" d="M772.137,249.555a6.487,6.487,0,0,1,3.854-1.2,5.152,5.152,0,0,1,1.348.17c.137.037.272.082.406.131.076.028.3.061.223.1" transform="translate(-764.64 -225.999)" fill="none" stroke="#272525" stroke-linecap="round" stroke-linejoin="round" stroke-width="1" fill-rule="evenodd"/>
          <g id="Grupo_125108" data-name="Grupo 125108" transform="translate(24.114 26.324)">
            <path id="Trazado_185121" data-name="Trazado 185121" d="M800.947,254.924a1.6,1.6,0,1,1-1.311,1.576A1.462,1.462,0,0,1,800.947,254.924Z" transform="translate(-799.636 -254.924)" fill="#272525" fill-rule="evenodd"/>
          </g>
          <g id="Grupo_125109" data-name="Grupo 125109" transform="translate(9.433 25.876)">
            <ellipse id="Elipse_5177" data-name="Elipse 5177" cx="1.311" cy="1.576" rx="1.311" ry="1.576" fill="#272525"/>
          </g>
          <g id="Grupo_125110" data-name="Grupo 125110" transform="translate(19.743 18.196)">
            <path id="Trazado_185122" data-name="Trazado 185122" d="M806.906,243.2c-2.149-2.3-10.743-2.3-12.892,0s-2.148,11.5,0,13.8,10.743,2.3,12.892,0S809.054,245.5,806.906,243.2Z" transform="translate(-792.403 -241.475)" fill="none" stroke="#272525" stroke-linecap="round" stroke-linejoin="round" stroke-width="1" fill-rule="evenodd"/>
          </g>
          <g id="Grupo_125111" data-name="Grupo 125111" transform="translate(2.295 18.51)">
            <path id="Trazado_185123" data-name="Trazado 185123" d="M776.915,243.475c-2.16-1.768-9.915-2.171-11.9,0s-1.983,10.852,0,13.022c1.31,1.433,8.961,4.534,8.288,1.46-.821-3.748,2.53-6.034,4.674-3.872C779.264,255.383,779.075,245.244,776.915,243.475Z" transform="translate(-763.529 -241.994)" fill="none" stroke="#272525" stroke-linecap="round" stroke-linejoin="round" stroke-width="1" fill-rule="evenodd"/>
          </g>
          <path id="Trazado_185124" data-name="Trazado 185124" d="M788.231,252.464s1.528-1.183,2.629,0" transform="translate(-771.009 -227.418)" fill="none" stroke="#272525" stroke-linecap="round" stroke-linejoin="round" stroke-width="1" fill-rule="evenodd"/>
          <path id="Trazado_185125" data-name="Trazado 185125" d="M795.912,218.219s-12.73-7.889-24.042,5.674C771.87,223.892,784.367,215.433,795.912,218.219Z" transform="translate(-764.535 -213.173)" fill="#1d7e96" fill-rule="evenodd"/>
          <path id="Trazado_185126" data-name="Trazado 185126" d="M827.758,219.767s5.774-9.014,16.06-.643C843.818,219.124,834.313,213.626,827.758,219.767Z" transform="translate(-786.651 -213.025)" fill="#1d7e96" fill-rule="evenodd"/>
        </g>
        <g id="Grupo_125134" data-name="Grupo 125134" transform="translate(97.167 87.878)">
          <path id="Trazado_185127" data-name="Trazado 185127" d="M830.741,383.312l-86.661.074c-2.369-31.2,10.8-56.639,10.8-56.639,27.428,3.656,51.46-5.831,51.46-5.831s.006.018.012.024a207.449,207.449,0,0,1,11.36,24.667c.937,2.363,1.843,4.725,2.707,7.052C825.253,365.669,829.182,378.085,830.741,383.312Z" transform="translate(-743.795 -318.892)" fill="#ff8900" fill-rule="evenodd"/>
          <path id="Trazado_185128" data-name="Trazado 185128" d="M780.268,326.571l1.311-6.738,25.74-2.267,1.261,5.785C799.672,326.035,790.678,326.484,780.268,326.571Z" transform="translate(-758.228 -317.566)" fill="#d87808" fill-rule="evenodd"/>
          <path id="Trazado_185129" data-name="Trazado 185129" d="M785.922,321.521l-.508,6.362" transform="translate(-760.265 -319.131)" fill="none" stroke="#ffbf76" stroke-linecap="round" stroke-linejoin="round" stroke-width="1" style="mix-blend-mode: multiply;isolation: isolate"/>
          <g id="Grupo_125113" data-name="Grupo 125113" transform="translate(30.067 1.869)">
            <path id="Trazado_185130" data-name="Trazado 185130" d="M793.552,320.659l.115,6.381" transform="translate(-793.552 -320.659)" fill="none" stroke="#ffbf76" stroke-linecap="round" stroke-linejoin="round" stroke-width="1" style="mix-blend-mode: multiply;isolation: isolate"/>
          </g>
          <g id="Grupo_125114" data-name="Grupo 125114" transform="translate(34.711 1.523)">
            <path id="Trazado_185131" data-name="Trazado 185131" d="M801.237,320.087l.336,6.373" transform="translate(-801.237 -320.087)" fill="none" stroke="#ffbf76" stroke-linecap="round" stroke-linejoin="round" stroke-width="1" style="mix-blend-mode: multiply;isolation: isolate"/>
          </g>
          <g id="Grupo_125115" data-name="Grupo 125115" transform="translate(39.547 0.889)">
            <path id="Trazado_185132" data-name="Trazado 185132" d="M809.24,319.038l.219,6.378" transform="translate(-809.24 -319.038)" fill="none" stroke="#ffbf76" stroke-linecap="round" stroke-linejoin="round" stroke-width="1" style="mix-blend-mode: multiply;isolation: isolate"/>
          </g>
          <g id="Grupo_125116" data-name="Grupo 125116" transform="translate(43.731 0.599)">
            <path id="Trazado_185133" data-name="Trazado 185133" d="M816.164,318.557l.52,6.36" transform="translate(-816.164 -318.557)" fill="none" stroke="#ffbf76" stroke-linecap="round" stroke-linejoin="round" stroke-width="1" style="mix-blend-mode: multiply;isolation: isolate"/>
          </g>
          <g id="Grupo_125117" data-name="Grupo 125117" transform="translate(48.097 0.156)">
            <path id="Trazado_185134" data-name="Trazado 185134" d="M823.39,317.824l.763,5.707" transform="translate(-823.39 -317.824)" fill="none" stroke="#ffbf76" stroke-linecap="round" stroke-linejoin="round" stroke-width="1" style="mix-blend-mode: multiply;isolation: isolate"/>
          </g>
          <path id="Trazado_185135" data-name="Trazado 185135" d="M763.024,352.471l3.379-4.2" transform="translate(-751.404 -329.715)" fill="none" stroke="#eace88" stroke-linecap="round" stroke-linejoin="round" stroke-width="2"/>
          <g id="Grupo_125118" data-name="Grupo 125118" transform="translate(27.805 21.69)">
            <path id="Trazado_185136" data-name="Trazado 185136" d="M789.808,353.46l3.988,3.632" transform="translate(-789.808 -353.46)" fill="none" stroke="#eace88" stroke-linecap="round" stroke-linejoin="round" stroke-width="2"/>
          </g>
          <g id="Grupo_125119" data-name="Grupo 125119" transform="translate(24.004 37.911)">
            <path id="Trazado_185137" data-name="Trazado 185137" d="M787.388,380.3l-3.87,3.757" transform="translate(-783.518 -380.303)" fill="none" stroke="#eace88" stroke-linecap="round" stroke-linejoin="round" stroke-width="2"/>
          </g>
          <g id="Grupo_125120" data-name="Grupo 125120" transform="translate(8.169 32.889)">
            <path id="Trazado_185138" data-name="Trazado 185138" d="M760.824,376.086l-3.511-4.093" transform="translate(-757.313 -371.993)" fill="none" stroke="#eace88" stroke-linecap="round" stroke-linejoin="round" stroke-width="2"/>
          </g>
          <g id="Grupo_125121" data-name="Grupo 125121" transform="translate(45.104 15.384)">
            <path id="Trazado_185139" data-name="Trazado 185139" d="M818.436,346.278l4.3-3.253" transform="translate(-818.436 -343.025)" fill="none" stroke="#eace88" stroke-linecap="round" stroke-linejoin="round" stroke-width="2"/>
          </g>
          <g id="Grupo_125122" data-name="Grupo 125122" transform="translate(51.589 51.793)">
            <path id="Trazado_185140" data-name="Trazado 185140" d="M829.168,403.277l2.983,4.493" transform="translate(-829.168 -403.277)" fill="none" stroke="#eace88" stroke-linecap="round" stroke-linejoin="round" stroke-width="2"/>
          </g>
          <g id="Grupo_125123" data-name="Grupo 125123" transform="translate(16.965 55.5)">
            <path id="Trazado_185141" data-name="Trazado 185141" d="M773.64,409.412l-1.77,5.095" transform="translate(-771.87 -409.412)" fill="none" stroke="#eace88" stroke-linecap="round" stroke-linejoin="round" stroke-width="2"/>
          </g>
          <g id="Grupo_125125" data-name="Grupo 125125" transform="translate(7.377 49.991)">
            <path id="Trazado_185143" data-name="Trazado 185143" d="M760.671,400.295,756,403" transform="translate(-756.003 -400.295)" fill="none" stroke="#eace88" stroke-linecap="round" stroke-linejoin="round" stroke-width="2"/>
          </g>
          <g id="Grupo_125126" data-name="Grupo 125126" transform="translate(59.011 24.823)">
            <path id="Trazado_185144" data-name="Trazado 185144" d="M843.86,363.47l-2.41-4.825" transform="translate(-841.45 -358.645)" fill="none" stroke="#eace88" stroke-linecap="round" stroke-linejoin="round" stroke-width="2"/>
          </g>
          <g id="Grupo_125127" data-name="Grupo 125127" transform="translate(58.567 10.435)">
            <path id="Trazado_185145" data-name="Trazado 185145" d="M843.125,339.659l-2.409-4.825" transform="translate(-840.716 -334.834)" fill="none" stroke="#eace88" stroke-linecap="round" stroke-linejoin="round" stroke-width="2"/>
          </g>
          <g id="Grupo_125128" data-name="Grupo 125128" transform="translate(69.61 44.866)">
            <path id="Trazado_185146" data-name="Trazado 185146" d="M858.991,393.921l4.964-2.108" transform="translate(-858.991 -391.813)" fill="none" stroke="#eace88" stroke-linecap="round" stroke-linejoin="round" stroke-width="2"/>
          </g>
          <g id="Grupo_125131" data-name="Grupo 125131" transform="translate(70.251 56.275)">
            <path id="Trazado_185149" data-name="Trazado 185149" d="M860.051,410.694l.011,5.393" transform="translate(-860.051 -410.694)" fill="none" stroke="#eace88" stroke-linecap="round" stroke-linejoin="round" stroke-width="2"/>
          </g>
          <g id="Grupo_125132" data-name="Grupo 125132" transform="translate(42.95 38.953)">
            <path id="Trazado_185150" data-name="Trazado 185150" d="M820.056,382.028l-5.185,1.484" transform="translate(-814.871 -382.028)" fill="none" stroke="#eace88" stroke-linecap="round" stroke-linejoin="round" stroke-width="2"/>
          </g>
          <g id="Grupo_125133" data-name="Grupo 125133" transform="translate(33.658 52.868)">
            <path id="Trazado_185151" data-name="Trazado 185151" d="M804.68,405.055l-5.185,1.484" transform="translate(-799.495 -405.055)" fill="none" stroke="#eace88" stroke-linecap="round" stroke-linejoin="round" stroke-width="2"/>
          </g>
        </g>
        <g id="Grupo_125151" data-name="Grupo 125151" transform="translate(159.215)">
          <g id="Grupo_125136" data-name="Grupo 125136" transform="translate(87.493)">
            <path id="Trazado_185152" data-name="Trazado 185152" d="M993.411,199.48l2.094-12.854c-5.393-6.209-4.352-6.935-3.706-6.659,1.325.567,4.653,4.378,6.653,4.444,2.589.086,16.316-9.352,16.969-8,.725,1.494-9.746,7.073-9.746,7.073s10.578-5.109,11.023-4.28c.868,1.616-13.762,9.211-13.762,9.211l.726,12.739Z" transform="translate(-991.267 -173.776)" fill="#e2af81" fill-rule="evenodd"/>
            <g id="Grupo_125135" data-name="Grupo 125135" transform="translate(7.235)">
              <path id="Trazado_185153" data-name="Trazado 185153" d="M1003.239,183.164s8.9-8.354,11.018-9.8c3.74-2.551,3.159-.5,2.183.583C1010.134,180.936,1005.843,184.322,1003.239,183.164Z" transform="translate(-1003.239 -172.14)" fill="#e2af81" fill-rule="evenodd"/>
            </g>
          </g>
          <g id="Grupo_125142" data-name="Grupo 125142" transform="translate(0 69.334)">
            <path id="Trazado_185154" data-name="Trazado 185154" d="M921.734,304.425a7.563,7.563,0,0,1-.586.828c-7.584,9.336-54.318,31.247-60.1,33.936-.381.181-.586.272-.586.272s-1.517-2.882-3.571-7.046c-3.571-7.215-8.756-18.273-10.418-24.757,0,0,.175-.066.508-.187,4.568-1.686,38.819-14.273,56.627-19.258.671-.187,1.317-.363,1.934-.526,8.7-2.308,16.618.471,18.316,6.514C924.64,296.981,924.108,300.443,921.734,304.425Z" transform="translate(-846.477 -286.879)" fill="#ff8900" fill-rule="evenodd"/>
            <g id="Grupo_125137" data-name="Grupo 125137" transform="translate(24.824 19.379)">
              <path id="Trazado_185155" data-name="Trazado 185155" d="M892.742,318.949l-5.185,1.484" transform="translate(-887.557 -318.949)" fill="#ff8900" stroke="#eace88" stroke-linecap="round" stroke-linejoin="round" stroke-width="2"/>
            </g>
            <g id="Grupo_125138" data-name="Grupo 125138" transform="translate(21.773 34.152)">
              <path id="Trazado_185156" data-name="Trazado 185156" d="M885.249,343.395l-2.741,4.644" transform="translate(-882.508 -343.395)" fill="#ff8900" stroke="#eace88" stroke-linecap="round" stroke-linejoin="round" stroke-width="2"/>
            </g>
            <g id="Grupo_125139" data-name="Grupo 125139" transform="translate(11.102 25.391)">
              <path id="Trazado_185157" data-name="Trazado 185157" d="M866.409,334.06l-1.56-5.163" transform="translate(-864.85 -328.897)" fill="#ff8900" stroke="#eace88" stroke-linecap="round" stroke-linejoin="round" stroke-width="2"/>
            </g>
            <g id="Grupo_125140" data-name="Grupo 125140" transform="translate(37.992 27.231)">
              <path id="Trazado_185158" data-name="Trazado 185158" d="M909.348,331.943l.752,5.341" transform="translate(-909.348 -331.943)" fill="#ff8900" stroke="#eace88" stroke-linecap="round" stroke-linejoin="round" stroke-width="2"/>
            </g>
            <g id="Grupo_125141" data-name="Grupo 125141" transform="translate(39.838 11.852)">
              <path id="Trazado_185159" data-name="Trazado 185159" d="M912.4,306.5l5.393-.006" transform="translate(-912.403 -306.492)" fill="#ff8900" stroke="#eace88" stroke-linecap="round" stroke-linejoin="round" stroke-width="2"/>
            </g>
          </g>
          <g id="Grupo_125150" data-name="Grupo 125150" transform="translate(56.502 23.679)">
            <path id="Trazado_185160" data-name="Trazado 185160" d="M986.167,214.613c-3.62,22.286-14.055,41.478-27.785,60.784l-.048-.042-4.17-3.843-13.717-12.629c.115-.187.23-.381.35-.568,6.5-10.5,18.618-24.014,28.933-46.989Z" transform="translate(-940.165 -211.326)" fill="#ff8900" fill-rule="evenodd"/>
            <path id="Trazado_185161" data-name="Trazado 185161" d="M976.457,236.241s9.818,7.658,19.856,4.81" transform="translate(-954.415 -221.185)" fill="none" stroke="#d8a821" stroke-linecap="round" stroke-linejoin="round" stroke-width="1" fill-rule="evenodd" style="mix-blend-mode: multiply;isolation: isolate"/>
            <path id="Trazado_185162" data-name="Trazado 185162" d="M988.746,212.749l-6.914,16.281" transform="translate(-956.542 -211.889)" fill="none" stroke="#d8a821" stroke-linecap="round" stroke-linejoin="round" stroke-width="1" style="mix-blend-mode: multiply;isolation: isolate"/>
            <path id="Trazado_185163" data-name="Trazado 185163" d="M996.537,214.212l-6.566,17.647" transform="translate(-959.763 -212.468)" fill="none" stroke="#d8a821" stroke-linecap="round" stroke-linejoin="round" stroke-width="1" style="mix-blend-mode: multiply;isolation: isolate"/>
            <g id="Grupo_125143" data-name="Grupo 125143" transform="translate(35.15 2.439)">
              <path id="Trazado_185164" data-name="Trazado 185164" d="M1003.564,215.363l-5.415,18.1" transform="translate(-998.149 -215.363)" fill="none" stroke="#d8a821" stroke-linecap="round" stroke-linejoin="round" stroke-width="1" style="mix-blend-mode: multiply;isolation: isolate"/>
            </g>
            <path id="Trazado_185165" data-name="Trazado 185165" d="M1010.115,216.329s-3.092,13.515-4.8,17.356" transform="translate(-965.835 -213.306)" fill="none" stroke="#d8a821" stroke-linecap="round" stroke-linejoin="round" stroke-width="1" fill-rule="evenodd" style="mix-blend-mode: multiply;isolation: isolate"/>
            <g id="Grupo_125144" data-name="Grupo 125144" transform="translate(9.094 57.504)">
              <path id="Trazado_185166" data-name="Trazado 185166" d="M955.03,306.492l5.393-.005" transform="translate(-955.03 -306.487)" fill="none" stroke="#eace88" stroke-linecap="round" stroke-linejoin="round" stroke-width="2"/>
            </g>
            <g id="Grupo_125145" data-name="Grupo 125145" transform="translate(19.826 24.503)">
              <path id="Trazado_185167" data-name="Trazado 185167" d="M972.791,251.88l5.393-.005" transform="translate(-972.791 -251.875)" fill="none" stroke="#eace88" stroke-linecap="round" stroke-linejoin="round" stroke-width="2"/>
            </g>
            <g id="Grupo_125146" data-name="Grupo 125146" transform="translate(21.936 42.658)">
              <path id="Trazado_185168" data-name="Trazado 185168" d="M976.283,281.926l5.393-.006" transform="translate(-976.283 -281.92)" fill="none" stroke="#eace88" stroke-linecap="round" stroke-linejoin="round" stroke-width="2"/>
            </g>
            <g id="Grupo_125147" data-name="Grupo 125147" transform="translate(28.984 28.935)">
              <path id="Trazado_185169" data-name="Trazado 185169" d="M987.946,264.444l1.3-5.235" transform="translate(-987.946 -259.209)" fill="none" stroke="#eace88" stroke-linecap="round" stroke-linejoin="round" stroke-width="2"/>
            </g>
            <g id="Grupo_125148" data-name="Grupo 125148" transform="translate(12.336 35.606)">
              <path id="Trazado_185170" data-name="Trazado 185170" d="M960.4,273.48l4.319-3.23" transform="translate(-960.396 -270.25)" fill="none" stroke="#eace88" stroke-linecap="round" stroke-linejoin="round" stroke-width="2"/>
            </g>
            <g id="Grupo_125149" data-name="Grupo 125149" transform="translate(0 60.002)">
              <path id="Trazado_185171" data-name="Trazado 185171" d="M939.981,310.621l.158,5.391" transform="translate(-939.981 -310.621)" fill="none" stroke="#eace88" stroke-linecap="round" stroke-linejoin="round" stroke-width="2"/>
            </g>
          </g>
          <path id="Trazado_185172" data-name="Trazado 185172" d="M880.124,305.319s29.872-12.843,36.17-12.7C916.294,292.62,892.924,301.856,880.124,305.319Z" transform="translate(-859.792 -219.816)" fill="#e5bb51" fill-rule="evenodd"/>
        </g>
        <g id="Grupo_125168" data-name="Grupo 125168" transform="translate(0 6.124)">
          <g id="Grupo_125153" data-name="Grupo 125153">
            <path id="Trazado_185173" data-name="Trazado 185173" d="M596.069,211.284l.727-12.739s-14.631-7.595-13.762-9.211c.445-.828,11.023,4.28,11.023,4.28s-10.47-5.579-9.746-7.073c.654-1.348,14.38,8.09,16.97,8,2-.066,5.328-3.878,6.653-4.444.646-.277,1.687.45-3.706,6.659l2.094,12.854Z" transform="translate(-582.996 -183.911)" fill="#e2af81" fill-rule="evenodd"/>
            <g id="Grupo_125152" data-name="Grupo 125152" transform="translate(4.304)">
              <path id="Trazado_185174" data-name="Trazado 185174" d="M590.85,184.084c-.975-1.082-1.557-3.134,2.183-.583,2.117,1.444,11.019,9.8,11.019,9.8C601.448,194.457,597.155,191.071,590.85,184.084Z" transform="translate(-590.119 -182.275)" fill="#e2af81" fill-rule="evenodd"/>
            </g>
          </g>
          <g id="Grupo_125159" data-name="Grupo 125159" transform="translate(35.241 69.335)">
            <path id="Trazado_185175" data-name="Trazado 185175" d="M719.039,317.791c-2.623,10.218-13.989,31.8-13.989,31.8a.6.6,0,0,1-.091-.042c-.06-.024-.151-.066-.266-.121-.139-.06-.29-.139-.453-.218-6.653-3.094-52.4-24.606-59.878-33.827a7.422,7.422,0,0,1-.58-.822c-2.671-4.472-3.016-8.291-1.783-11.215,2.248-5.354,9.765-7.7,17.971-5.523.616.163,1.263.338,1.934.526C681.012,303.7,719.039,317.791,719.039,317.791Z" transform="translate(-641.316 -297.015)" fill="#ff8900" fill-rule="evenodd"/>
            <g id="Grupo_125154" data-name="Grupo 125154" transform="translate(47.714 19.378)">
              <path id="Trazado_185176" data-name="Trazado 185176" d="M725.461,330.568l-5.185-1.484" transform="translate(-720.276 -329.084)" fill="#ff8900" stroke="#eace88" stroke-linecap="round" stroke-linejoin="round" stroke-width="2"/>
            </g>
            <g id="Grupo_125155" data-name="Grupo 125155" transform="translate(53.208 34.151)">
              <path id="Trazado_185177" data-name="Trazado 185177" d="M732.111,358.175l-2.742-4.645" transform="translate(-729.369 -353.53)" fill="#ff8900" stroke="#eace88" stroke-linecap="round" stroke-linejoin="round" stroke-width="2"/>
            </g>
            <g id="Grupo_125156" data-name="Grupo 125156" transform="translate(65.06 25.39)">
              <path id="Trazado_185178" data-name="Trazado 185178" d="M750.542,339.032l-1.56,5.163" transform="translate(-748.982 -339.032)" fill="#ff8900" stroke="#eace88" stroke-linecap="round" stroke-linejoin="round" stroke-width="2"/>
            </g>
            <g id="Grupo_125157" data-name="Grupo 125157" transform="translate(38.979 27.231)">
              <path id="Trazado_185179" data-name="Trazado 185179" d="M705.822,347.42l.752-5.341" transform="translate(-705.822 -342.079)" fill="#ff8900" stroke="#eace88" stroke-linecap="round" stroke-linejoin="round" stroke-width="2"/>
            </g>
            <g id="Grupo_125158" data-name="Grupo 125158" transform="translate(32.492 11.852)">
              <path id="Trazado_185180" data-name="Trazado 185180" d="M695.086,316.628l5.393.005" transform="translate(-695.086 -316.628)" fill="#ff8900" stroke="#eace88" stroke-linecap="round" stroke-linejoin="round" stroke-width="2"/>
            </g>
          </g>
          <g id="Grupo_125167" data-name="Grupo 125167" transform="translate(10.46 23.676)">
            <path id="Trazado_185181" data-name="Trazado 185181" d="M646.021,269.013l-11.675,10.75-6.212,5.723-.042.042c-9.348-13.143-17.168-26.232-22.346-40.275v-.006a109.424,109.424,0,0,1-5.439-20.5l16.436-3.293c10.315,22.981,22.443,36.5,28.933,46.995Z" transform="translate(-600.307 -221.456)" fill="#ff8900" fill-rule="evenodd"/>
            <path id="Trazado_185182" data-name="Trazado 185182" d="M607.1,251.186c10.038,2.848,19.856-4.81,19.856-4.81" transform="translate(-602.994 -231.317)" fill="#ff8900" stroke="#d8a821" stroke-linecap="round" stroke-linejoin="round" stroke-width="1" fill-rule="evenodd" style="mix-blend-mode: multiply;isolation: isolate"/>
            <path id="Trazado_185183" data-name="Trazado 185183" d="M630.053,239.165l-6.913-16.28" transform="translate(-609.342 -222.021)" fill="#ff8900" stroke="#d8a821" stroke-linecap="round" stroke-linejoin="round" stroke-width="1" style="mix-blend-mode: multiply;isolation: isolate"/>
            <path id="Trazado_185184" data-name="Trazado 185184" d="M622.142,241.994l-6.566-17.647" transform="translate(-606.349 -222.6)" fill="#ff8900" stroke="#d8a821" stroke-linecap="round" stroke-linejoin="round" stroke-width="1" style="mix-blend-mode: multiply;isolation: isolate"/>
            <g id="Grupo_125160" data-name="Grupo 125160" transform="translate(5.437 2.442)">
              <path id="Trazado_185185" data-name="Trazado 185185" d="M614.718,243.594,609.3,225.5" transform="translate(-609.304 -225.498)" fill="#ff8900" stroke="#d8a821" stroke-linecap="round" stroke-linejoin="round" stroke-width="1" style="mix-blend-mode: multiply;isolation: isolate"/>
            </g>
            <path id="Trazado_185186" data-name="Trazado 185186" d="M607.956,243.82c-1.709-3.841-4.8-17.355-4.8-17.355" transform="translate(-601.434 -223.438)" fill="#ff8900" stroke="#d8a821" stroke-linecap="round" stroke-linejoin="round" stroke-width="1" fill-rule="evenodd" style="mix-blend-mode: multiply;isolation: isolate"/>
            <g id="Grupo_125161" data-name="Grupo 125161" transform="translate(31.514 57.507)">
              <path id="Trazado_185187" data-name="Trazado 185187" d="M652.459,316.622l5.393.005" transform="translate(-652.459 -316.622)" fill="#ff8900" stroke="#eace88" stroke-linecap="round" stroke-linejoin="round" stroke-width="2"/>
            </g>
            <g id="Grupo_125162" data-name="Grupo 125162" transform="translate(20.782 24.506)">
              <path id="Trazado_185188" data-name="Trazado 185188" d="M634.7,262.01l5.393.005" transform="translate(-634.698 -262.01)" fill="#ff8900" stroke="#eace88" stroke-linecap="round" stroke-linejoin="round" stroke-width="2"/>
            </g>
            <g id="Grupo_125163" data-name="Grupo 125163" transform="translate(18.671 42.662)">
              <path id="Trazado_185189" data-name="Trazado 185189" d="M631.205,292.056l5.393.005" transform="translate(-631.205 -292.056)" fill="#ff8900" stroke="#eace88" stroke-linecap="round" stroke-linejoin="round" stroke-width="2"/>
            </g>
            <g id="Grupo_125164" data-name="Grupo 125164" transform="translate(15.72 28.938)">
              <path id="Trazado_185190" data-name="Trazado 185190" d="M626.322,269.345l1.3,5.235" transform="translate(-626.322 -269.345)" fill="#ff8900" stroke="#eace88" stroke-linecap="round" stroke-linejoin="round" stroke-width="2"/>
            </g>
            <g id="Grupo_125165" data-name="Grupo 125165" transform="translate(29.346 35.609)">
              <path id="Trazado_185191" data-name="Trazado 185191" d="M648.87,280.385l4.319,3.23" transform="translate(-648.87 -280.385)" fill="#ff8900" stroke="#eace88" stroke-linecap="round" stroke-linejoin="round" stroke-width="2"/>
            </g>
            <g id="Grupo_125166" data-name="Grupo 125166" transform="translate(45.844 60.005)">
              <path id="Trazado_185192" data-name="Trazado 185192" d="M676.172,326.148l.158-5.391" transform="translate(-676.172 -320.757)" fill="#ff8900" stroke="#eace88" stroke-linecap="round" stroke-linejoin="round" stroke-width="2"/>
            </g>
          </g>
        </g>
        <line id="Línea_1432" data-name="Línea 1432" x1="2.109" y1="7.856" transform="translate(140.543 79.339)" fill="#e2af81"/>
        <path id="Trazado_185193" data-name="Trazado 185193" d="M908.534,216.766c-3.62,22.286-14.056,41.478-27.785,60.784l-.048-.042c-7.584,9.336-54.318,31.247-60.1,33.936,4.834,13.01,8.809,25.445,10.368,30.672l-86.707.055c46.529,1.045,70.592-37.26,70.592-37.26.514-.06,1.046-.139,1.589-.242.471-.079.955-.175,1.45-.278,18.557-4.085,50.675-25.325,58.633-30.727,1.178-.8,1.825-1.251,1.825-1.251,1.323-.81,3.07-2.955,5.058-5.958C893.119,251.808,908.534,216.766,908.534,216.766Z" transform="translate(-646.815 -189.799)" fill="#ffbf76" fill-rule="evenodd" style="mix-blend-mode: multiply;isolation: isolate"/>
        <path id="Trazado_185194" data-name="Trazado 185194" d="M691.573,334.9c-6.653-3.094-52.4-24.606-59.878-33.827l-.042.042c-9.348-13.143-17.167-26.232-22.346-40.275,0,0,10.164,18.05,20.026,28.2,2.985,3.07,5.94,5.414,8.575,6.315a7.4,7.4,0,0,0,1.608.369S682.141,329.965,691.573,334.9Z" transform="translate(-593.408 -207.239)" fill="#ffbf76" fill-rule="evenodd" style="mix-blend-mode: multiply;isolation: isolate"/>
      </g>
      <g id="Grupo_125180" data-name="Grupo 125180" transform="translate(585.055 34.075)">
        <g id="Grupo_125173" data-name="Grupo 125173" transform="translate(86.773 2.905)">
          <circle id="Elipse_5178" data-name="Elipse 5178" cx="21.983" cy="21.983" r="21.983" fill="#a9f73f"/>
          <g id="Grupo_125172" data-name="Grupo 125172" transform="translate(4.845 10.178)">
            <g id="Grupo_125171" data-name="Grupo 125171">
              <g id="Grupo_125170" data-name="Grupo 125170">
                <path id="Trazado_185195" data-name="Trazado 185195" d="M749.505,56.537a4.487,4.487,0,0,0-.766.672A5.34,5.34,0,0,0,747.272,57a5.411,5.411,0,0,0-5.368,4.69,5.424,5.424,0,0,0-2.877,8.349A5.344,5.344,0,0,0,738.657,72a5.389,5.389,0,0,0,6.136,5.372l.132-.021a3.824,3.824,0,0,1,3.623.711,5.381,5.381,0,0,0,3.208-1.05,5.415,5.415,0,0,0,8.688.28,5.345,5.345,0,0,0,2.78.77,5.43,5.43,0,0,0,5.424-5.424,5.349,5.349,0,0,0-.339-1.88,5.4,5.4,0,0,0,1.528-4.82l-.4-1.277A5.439,5.439,0,0,0,766.05,61.7a6.664,6.664,0,0,0-4.421-5.585l-1.276-.31a6.756,6.756,0,0,0-.957-.074,6.628,6.628,0,0,0-4.083,1.408,4.429,4.429,0,0,0-4.531-1.215m14.028,6.307.018.5.494.1a4.134,4.134,0,0,1,2.689,1.879l.511,1.228a4.033,4.033,0,0,1,.127.957,4.123,4.123,0,0,1-1.027,2.722,5.343,5.343,0,0,0-4.037-2.146l-.084,1.194a4.033,4.033,0,0,1,3.863,4.118,4.139,4.139,0,0,1-6.688,3.123l-.254-.2a4.136,4.136,0,0,1-1.341-2.792L757.808,73a5.4,5.4,0,0,0,1.622,3.517,4.137,4.137,0,0,1-6.938-.766l-.393-.793-.629.625a4.093,4.093,0,0,1-4.379.928A5.421,5.421,0,0,0,749.505,72c0-.136-.018-.268-.027-.4.207-1.627-1.592-3.726-2.873-4.4l-.595,1.129a4.146,4.146,0,0,1-.516,7.569,4.336,4.336,0,0,1-.682.184l-.046.007a4.029,4.029,0,0,1-.685.062A4.153,4.153,0,0,1,739.933,72a4.111,4.111,0,0,1,.4-1.775l.175-.368-.26-.314a4.147,4.147,0,0,1,2.371-6.715l.489-.1.023-.5a4.138,4.138,0,0,1,1.9-3.3l1.276-.538a4.163,4.163,0,0,1,.957-.115,4.121,4.121,0,0,1,1.46.271l.456.172.286-.395c.01-.013.021-.025.031-.038l1.276-1.011a3.146,3.146,0,0,1,3.587.723,6.572,6.572,0,0,0,4.708,11.125V67.851a5.594,5.594,0,0,1-5.264-5.424,5.518,5.518,0,0,1,1.453-3.605l.366-.311A5.427,5.427,0,0,1,759.376,57a5.648,5.648,0,0,1,.977.088v2.464a3.194,3.194,0,0,1-3.191,3.191h-.638v1.276h.638a4.473,4.473,0,0,0,4.467-4.467v-2.07A5.4,5.4,0,0,1,764.809,62.227Z" transform="translate(-738.019 -55.727)" fill="#75b51d"/>
              </g>
            </g>
          </g>
        </g>
        <g id="Grupo_125175" data-name="Grupo 125175" transform="translate(203.24)">
          <circle id="Elipse_5179" data-name="Elipse 5179" cx="26.221" cy="26.221" r="26.221" transform="translate(0 51.452) rotate(-78.855)" fill="#ff8900"/>
          <g id="Grupo_125174" data-name="Grupo 125174" transform="translate(11.714 15.231)">
            <path id="Trazado_185196" data-name="Trazado 185196" d="M976.84,60.331a1.021,1.021,0,0,0-.9-.9c-8.083-.9-14.975,2.336-20.595,8.121a42.14,42.14,0,0,0-4.195,5.1,8.109,8.109,0,0,0-5.834,2.414l-2.889,2.89a1.021,1.021,0,0,0,.987,1.709,14.2,14.2,0,0,1,2.806-.438,7.762,7.762,0,0,1,.964.008c-.637,1.226-1.126,2.253-1.288,2.511a1.022,1.022,0,0,0,.143,1.267l1.671,1.672c-2.433,3.318-2.473,5.018-2.465,5.258a1.027,1.027,0,0,0,1.074.988c.57,0,2.206-.242,5.183-2.453l1.759,1.758a1.022,1.022,0,0,0,1.274.137c.275-.177,1.242-.645,2.4-1.251a24.978,24.978,0,0,1-.352,3.854,1.022,1.022,0,0,0,1.732.872l2.89-2.89a8.072,8.072,0,0,0,2.29-5.779,42.264,42.264,0,0,0,5.367-4.412C974.593,75.146,977.727,68.307,976.84,60.331Zm-1.954,1.051a20.409,20.409,0,0,1-.518,6.4,9.779,9.779,0,0,1-5.89-5.9A20.6,20.6,0,0,1,974.886,61.382Zm-28.8,15.8.674-.674a6.446,6.446,0,0,1,2.93-1.666c-.551.874-1.042,1.709-1.475,2.48A8.176,8.176,0,0,0,946.084,77.184Zm1.933,4.919c.221-.436.489-.984.98-1.911l1.344,1.345c-.5.537-.952,1.047-1.359,1.53Zm5-.391a3.023,3.023,0,0,1,2.345-.9,3.054,3.054,0,0,1-.9,2.344,26.407,26.407,0,0,1-6.645,5.219A26.171,26.171,0,0,1,953.012,81.712Zm1.149,6.535-1.053-1.054q.722-.613,1.526-1.364l1.432,1.432C955.123,87.763,954.731,87.952,954.161,88.247Zm5.6,1.264-.818.818a9.951,9.951,0,0,0-.05-2.27c.751-.423,1.567-.9,2.422-1.439A6.021,6.021,0,0,1,959.76,89.512Zm-1.836-3.28L956.093,84.4c1.355-1.491,1.3-2.928,1.3-4.607a1.021,1.021,0,0,0-1.021-1.022c-1.568,0-3.078-.084-4.607,1.305l-1.749-1.749c4.776-8.375,10.3-13.677,16.5-15.86a11.8,11.8,0,0,0,7.263,7.276C971.586,75.912,966.284,81.429,957.924,86.231Z" transform="translate(-942.125 -59.28)" fill="#ffbf76"/>
            <path id="Trazado_185197" data-name="Trazado 185197" d="M979.037,73.377a5.108,5.108,0,1,0,0,7.224A5.113,5.113,0,0,0,979.037,73.377Zm-1.444,5.779a3.065,3.065,0,1,1,0-4.334A3.069,3.069,0,0,1,977.592,79.155Z" transform="translate(-953.282 -64.267)" fill="#ffbf76"/>
          </g>
        </g>
        <g id="Grupo_125177" data-name="Grupo 125177" transform="translate(139.178 45.887)">
          <circle id="Elipse_5180" data-name="Elipse 5180" cx="21.983" cy="21.983" r="21.983" transform="translate(0 42.752) rotate(-76.504)" fill="#1d7e96"/>
          <g id="Grupo_125176" data-name="Grupo 125176" transform="translate(14.119 8.987)">
            <path id="Trazado_185198" data-name="Trazado 185198" d="M848.171,138.817A.655.655,0,0,0,849,138.4a7.586,7.586,0,0,1,14.787,2.383,10.4,10.4,0,0,1-2.611,6.715c-.846,1.128-1.577,2.1-1.577,3.286,0,.077,0,.155,0,.231h-2.738V149.51a.655.655,0,0,0-1.311,0v1.506h-2.739c0-.077,0-.154,0-.231,0-1.183-.731-2.158-1.577-3.287a11.981,11.981,0,0,1-2.31-4.279.655.655,0,1,0-1.268.331,13.245,13.245,0,0,0,2.528,4.734,4.916,4.916,0,0,1,1.316,2.5c0,.314.013.62.039.912v5.543c0,.018,0,.035,0,.052v.013a.663.663,0,0,0,.011.071h0a4.915,4.915,0,0,0,1.641,2.733,4.68,4.68,0,0,0,6.025,0,4.91,4.91,0,0,0,1.641-2.733h0a.663.663,0,0,0,.011-.071v-.013c0-.018,0-.034,0-.052V151.7c.026-.292.039-.6.039-.912a4.915,4.915,0,0,1,1.315-2.5,11.668,11.668,0,0,0,2.873-7.5,8.9,8.9,0,0,0-17.342-2.794A.655.655,0,0,0,848.171,138.817ZM856.2,159.9a3.469,3.469,0,0,1-3.1-2H859.3A3.47,3.47,0,0,1,856.2,159.9Zm3.357-3.313h-6.715V155.11h6.715Zm0-2.784h-6.715v-1.473h6.715Z" transform="translate(-843.074 -127.656)" fill="#f5f5f5" fill-rule="evenodd"/>
            <path id="Trazado_185199" data-name="Trazado 185199" d="M861.387,127.94a.655.655,0,0,0,.655-.655v-1.746a.655.655,0,0,0-1.311,0v1.746A.656.656,0,0,0,861.387,127.94Z" transform="translate(-848.259 -124.884)" fill="#f5f5f5" fill-rule="evenodd"/>
            <path id="Trazado_185200" data-name="Trazado 185200" d="M840.747,146.834h1.746a.655.655,0,1,0,0-1.311h-1.746a.655.655,0,1,0,0,1.311Z" transform="translate(-840.091 -133.051)" fill="#f5f5f5" fill-rule="evenodd"/>
            <path id="Trazado_185201" data-name="Trazado 185201" d="M847.563,133.282a.655.655,0,0,0,.927-.926l-1.234-1.235a.655.655,0,0,0-.927.926Z" transform="translate(-842.483 -127.276)" fill="#f5f5f5" fill-rule="evenodd"/>
            <path id="Trazado_185202" data-name="Trazado 185202" d="M846.044,161.368a.654.654,0,0,0,.464-.192l1.234-1.235a.655.655,0,0,0-.927-.926l-1.235,1.235a.655.655,0,0,0,.464,1.118Z" transform="translate(-842.187 -138.314)" fill="#f5f5f5" fill-rule="evenodd"/>
            <path id="Trazado_185203" data-name="Trazado 185203" d="M873.938,133.474a.654.654,0,0,0,.464-.192l1.234-1.235a.655.655,0,0,0-.927-.927l-1.234,1.235a.656.656,0,0,0,.464,1.119Z" transform="translate(-853.226 -127.276)" fill="#f5f5f5" fill-rule="evenodd"/>
            <path id="Trazado_185204" data-name="Trazado 185204" d="M874.222,159.015a.656.656,0,0,0,0,.926l1.235,1.235a.655.655,0,0,0,.927-.926l-1.234-1.235A.655.655,0,0,0,874.222,159.015Z" transform="translate(-853.522 -138.314)" fill="#f5f5f5" fill-rule="evenodd"/>
            <path id="Trazado_185205" data-name="Trazado 185205" d="M879.137,146.834h1.746a.655.655,0,1,0,0-1.311h-1.746a.655.655,0,0,0,0,1.311Z" transform="translate(-855.283 -133.051)" fill="#f5f5f5" fill-rule="evenodd"/>
          </g>
        </g>
        <g id="Grupo_125178" data-name="Grupo 125178" transform="translate(0 41.305)">
          <circle id="Elipse_5181" data-name="Elipse 5181" cx="21.983" cy="21.983" r="21.983" transform="translate(0 31.089) rotate(-45)" fill="#1d7e96"/>
          <path id="Trazado_185206" data-name="Trazado 185206" d="M639.184,152.443a8.037,8.037,0,0,0,1.979-5.25c0-4.522-3.968-8.321-9.135-8.883a7.677,7.677,0,0,0,.166-1.58c0-4.945-4.694-8.969-10.464-8.969s-10.464,4.024-10.464,8.969a8,8,0,0,0,1.7,4.9l-1.668,4.395a.5.5,0,0,0,.466.675.493.493,0,0,0,.2-.042l4.707-2.07a11.435,11.435,0,0,0,3.73,1.029,7.683,7.683,0,0,0-.165,1.581c0,4.945,4.693,8.969,10.464,8.969a11.917,11.917,0,0,0,4.652-.933l5.1,2.381a.5.5,0,0,0,.669-.648Zm-22.7-8.865-3.83,1.684L614,141.714a.5.5,0,0,0-.08-.492,7.056,7.056,0,0,1-1.655-4.493c0-4.4,4.247-7.973,9.468-7.973s9.467,3.577,9.467,7.973a6.7,6.7,0,0,1-.27,1.88c-1.026,3.587-4.81,6.092-9.2,6.092-.225,0-.446,0-.679-.024a10.52,10.52,0,0,1-4.145-1.089A.5.5,0,0,0,616.482,143.578Zm19.087,10.652a.5.5,0,0,0-.416,0,10.88,10.88,0,0,1-4.453.937c-5.22,0-9.467-3.576-9.467-7.972a6.726,6.726,0,0,1,.17-1.5c.109,0,.219,0,.329,0q.445,0,.883-.032c.1-.007.195-.021.293-.031.191-.018.383-.035.572-.062.116-.017.229-.04.344-.06.167-.029.335-.056.5-.092.122-.027.241-.06.361-.09.153-.039.307-.075.457-.119.123-.036.242-.079.363-.118.143-.047.287-.092.427-.145.121-.045.239-.1.358-.146.134-.056.269-.11.4-.17s.233-.115.349-.173.251-.125.374-.192.226-.132.338-.2.234-.14.349-.215.216-.149.322-.224.217-.154.322-.235.2-.164.3-.249.2-.167.3-.254.189-.179.282-.27.183-.181.27-.274.173-.192.257-.291.165-.193.244-.293.155-.2.231-.309.149-.207.216-.312.136-.215.2-.324.128-.22.188-.332.115-.223.17-.337.109-.234.159-.354.094-.23.137-.349c.022-.06.049-.117.069-.177,4.747.448,8.407,3.864,8.407,7.923a7.1,7.1,0,0,1-1.933,4.822.5.5,0,0,0-.089.531l1.548,3.608Z" transform="translate(-596.242 -112.453)" fill="#f5f5f5"/>
        </g>
        <circle id="Elipse_5182" data-name="Elipse 5182" cx="10.851" cy="10.851" r="10.851" transform="translate(28.587 15.878)" fill="#ff8900"/>
        <circle id="Elipse_5183" data-name="Elipse 5183" cx="4.47" cy="4.47" r="4.47" transform="translate(80.104 54.873)" fill="#a3edff"/>
        <circle id="Elipse_5184" data-name="Elipse 5184" cx="5.628" cy="5.628" r="5.628" transform="translate(70.147 8.682)" fill="#f5f5f5"/>
        <path id="Trazado_185211" data-name="Trazado 185211" d="M14.738,0A14.738,14.738,0,1,1,0,14.738,14.738,14.738,0,0,1,14.738,0Z" transform="translate(143.701 1.539)" fill="#45c6e5"/>
        <path id="Trazado_185209" data-name="Trazado 185209" d="M17.687,0A17.687,17.687,0,1,1,0,17.687,17.687,17.687,0,0,1,17.687,0Z" transform="translate(51.045 121.779) rotate(-80.697)" fill="#ccfff9"/>
        <circle id="Elipse_5187" data-name="Elipse 5187" cx="5.303" cy="5.303" r="5.303" transform="translate(189.848 39.018)" fill="#a3edff"/>
        <path id="Trazado_185207" data-name="Trazado 185207" d="M918.824,49.506a3.572,3.572,0,1,1-3.572-3.571A3.572,3.572,0,0,1,918.824,49.506Z" transform="translate(-715.123 -38.768)" fill="#f5f5f5"/>
        <path id="Trazado_185210" data-name="Trazado 185210" d="M12.431,0A12.431,12.431,0,1,1,0,12.431,12.431,12.431,0,0,1,12.431,0Z" transform="matrix(0.174, -0.985, 0.985, 0.174, 204.978, 97.896)" fill="#ccfff9"/>
        <circle id="Elipse_5189" data-name="Elipse 5189" cx="10.225" cy="10.225" r="10.225" transform="matrix(0.678, -0.735, 0.735, 0.678, 102.464, 68.707)" fill="#a3edff"/>
        <path id="Trazado_185208" data-name="Trazado 185208" d="M605.187,41.815a2.932,2.932,0,1,1-2.932-2.932A2.932,2.932,0,0,1,605.187,41.815Z" transform="translate(-591.516 -35.978)" fill="#f5f5f5"/>
        <g id="Grupo_125179" data-name="Grupo 125179" transform="translate(10.038 8.077)">
          <line id="Línea_1433" data-name="Línea 1433" x2="17.923" y2="12.428" transform="translate(2.591)" fill="none" stroke="#ff8900" stroke-linecap="round" stroke-linejoin="round" stroke-width="1" stroke-dasharray="7"/>
          <line id="Línea_1434" data-name="Línea 1434" y1="44.128" x2="20.738" transform="translate(40.704 10.341)" fill="none" stroke="#ff8900" stroke-linecap="round" stroke-linejoin="round" stroke-width="1" stroke-dasharray="7"/>
          <line id="Línea_1435" data-name="Línea 1435" x2="11.834" transform="translate(70.066 2.661)" fill="none" stroke="#ff8900" stroke-linecap="round" stroke-linejoin="round" stroke-width="1" stroke-dasharray="7"/>
          <line id="Línea_1436" data-name="Línea 1436" x1="9.511" y2="12.466" transform="translate(76.735 34.912)" fill="none" stroke="#ff8900" stroke-linecap="round" stroke-linejoin="round" stroke-width="1" stroke-dasharray="7"/>
          <line id="Línea_1437" data-name="Línea 1437" x1="6.776" y2="26.727" transform="translate(65.736 55.249)" fill="none" stroke="#ff8900" stroke-linecap="round" stroke-linejoin="round" stroke-width="1" stroke-dasharray="7"/>
          <line id="Línea_1438" data-name="Línea 1438" y1="29.118" x2="21.481" transform="translate(79.007 68.027)" fill="none" stroke="#ff8900" stroke-linecap="round" stroke-linejoin="round" stroke-width="1" stroke-dasharray="7"/>
          <line id="Línea_1439" data-name="Línea 1439" y1="1.274" x2="24.694" transform="translate(113.486 50.974)" fill="none" stroke="#ff8900" stroke-linecap="round" stroke-linejoin="round" stroke-width="1" stroke-dasharray="7"/>
          <line id="Línea_1440" data-name="Línea 1440" x1="1.831" y1="19.821" transform="translate(151.198 22.67)" fill="none" stroke="#ff8900" stroke-linecap="round" stroke-linejoin="round" stroke-width="1" stroke-dasharray="7"/>
          <line id="Línea_1441" data-name="Línea 1441" x1="4.979" y2="24.708" transform="translate(185.113 6.233)" fill="none" stroke="#ff8900" stroke-linecap="round" stroke-linejoin="round" stroke-width="1" stroke-dasharray="7"/>
          <line id="Línea_1442" data-name="Línea 1442" x2="14.105" y2="2.056" transform="translate(193.009 0.605)" fill="none" stroke="#ff8900" stroke-linecap="round" stroke-linejoin="round" stroke-width="1" stroke-dasharray="7"/>
          <line id="Línea_1443" data-name="Línea 1443" x1="11.366" y2="10.552" transform="translate(168.443 36.244)" fill="none" stroke="#ff8900" stroke-linecap="round" stroke-linejoin="round" stroke-width="1" stroke-dasharray="7"/>
          <line id="Línea_1444" data-name="Línea 1444" y1="0.458" x2="13.533" transform="translate(120.483 11.402)" fill="none" stroke="#ff8900" stroke-linecap="round" stroke-linejoin="round" stroke-width="1" stroke-dasharray="7"/>
          <line id="Línea_1445" data-name="Línea 1445" x2="20.133" y2="17.393" transform="translate(161.594 14.77)" fill="none" stroke="#ff8900" stroke-linecap="round" stroke-linejoin="round" stroke-width="1" stroke-dasharray="7"/>
          <line id="Línea_1446" data-name="Línea 1446" x1="6.559" y2="20.509" transform="translate(209.34 46.797)" fill="none" stroke="#ff8900" stroke-linecap="round" stroke-linejoin="round" stroke-width="1" stroke-dasharray="7"/>
          <line id="Línea_1447" data-name="Línea 1447" x1="21.608" y1="5.833" transform="translate(176.167 72.204)" fill="none" stroke="#ff8900" stroke-linecap="round" stroke-linejoin="round" stroke-width="1" stroke-dasharray="7"/>
          <line id="Línea_1448" data-name="Línea 1448" x2="10.551" y2="44.394" transform="translate(0 0.605)" fill="none" stroke="#ff8900" stroke-linecap="round" stroke-linejoin="round" stroke-width="1" stroke-dasharray="7"/>
          <line id="Línea_1449" data-name="Línea 1449" y1="6.028" x2="23.121" transform="translate(37.126 5.007)" fill="none" stroke="#ff8900" stroke-linecap="round" stroke-linejoin="round" stroke-width="1" stroke-dasharray="7"/>
        </g>
      </g>
    </g>
  </g>
</svg>
