<svg xmlns="http://www.w3.org/2000/svg" xmlns:xlink="http://www.w3.org/1999/xlink" width="400" height="350" viewBox="0 0 400 350">
  <defs>
    <clipPath id="clip-path">
      <path id="Trazado_184491" data-name="Trazado 184491" d="M-473.588,125.811s-14.337,7.536-33.82,2.573-29.961-24.63-29.225-40.988,13.05-41.54,43.194-43.929S-453,64.236-450.8,78.389-453,107.8-461.457,119.745c4.412,12.131,12.683,15.808,12.683,15.808A33.512,33.512,0,0,1-463.847,135,13.143,13.143,0,0,1-473.588,125.811Z" transform="translate(536.669 -43.295)" fill="#fff"/>
    </clipPath>
    <clipPath id="clip-path-2">
      <path id="Trazado_184511" data-name="Trazado 184511" d="M-236.064,134.61a31.8,31.8,0,0,0,13.51,2.205,51.65,51.65,0,0,0,12.958-2.757s18.2,14.612,42.46,7.169,34.1-28.766,30.879-54.315c-3.347-26.584-22.332-40.529-48.8-37.5s-41.15,26.462-42.459,42.459c-1.654,20.219,9.1,32.533,9.1,32.533a33.08,33.08,0,0,1-7.628,6.25A44.146,44.146,0,0,1-236.064,134.61Z" transform="translate(236.064 -49.006)" fill="#fff"/>
    </clipPath>
    <clipPath id="clip-path-3">
      <path id="Trazado_184561" data-name="Trazado 184561" d="M-435.205,393.291s-3.493.184-10.661-4.411-8.639-7.9-8.639-7.9,13.6-6.434,18.932-28.858-9.558-50.73-37.864-55.877-45.032,8.087-52.017,33.085,6.25,44.3,16.911,51.65,24.63,7.72,29.225,8.087a28.4,28.4,0,0,0,9.006-.919s6.341,5.7,18.2,7.077S-435.205,393.291-435.205,393.291Z" transform="translate(527.402 -295.143)" fill="#fff"/>
    </clipPath>
    <clipPath id="clip-path-4">
      <path id="Trazado_184578" data-name="Trazado 184578" d="M-250.822,376.081s4.963,2.941,13.6,2.39,11.212-2.39,11.212-2.39,6.433,15.991,32.717,16.911,45.952-17.462,46.135-45.216-18.2-43.011-41.54-44.113-41.356,14.153-44.481,31.43a55.455,55.455,0,0,0,3.493,31.063,17.637,17.637,0,0,1-9.558,6.985A116.842,116.842,0,0,1-250.822,376.081Z" transform="translate(250.822 -303.605)" fill="#fff"/>
    </clipPath>
  </defs>
  <g id="Grupo_128815" data-name="Grupo 128815" transform="translate(-1020 -554.174)">
    <path id="Rect치ngulo_37315" data-name="Rect치ngulo 37315" d="M80,0H400a0,0,0,0,1,0,0V350a0,0,0,0,1,0,0H0a0,0,0,0,1,0,0V80A80,80,0,0,1,80,0Z" transform="translate(1020 554.174)" fill="#edffd5"/>
    <g id="Grupo_122858" data-name="Grupo 122858" transform="translate(1607.968 536.778)">
      <g id="Grupo_122868" data-name="Grupo 122868" transform="translate(-536.669 43.295)">
        <path id="Trazado_184470" data-name="Trazado 184470" d="M-473.588,125.811s-14.337,7.536-33.82,2.573-29.961-24.63-29.225-40.988,13.05-41.54,43.194-43.929S-453,64.236-450.8,78.389-453,107.8-461.457,119.745c4.412,12.131,12.683,15.808,12.683,15.808A33.512,33.512,0,0,1-463.847,135,13.143,13.143,0,0,1-473.588,125.811Z" transform="translate(536.669 -43.295)" fill="#ccfff9"/>
        <g id="Grupo_122867" data-name="Grupo 122867" clip-path="url(#clip-path)">
          <g id="Grupo_122866" data-name="Grupo 122866" transform="translate(13.834 17.541)">
            <path id="Trazado_184471" data-name="Trazado 184471" d="M-515.823,168.732a89.711,89.711,0,0,1,1.293-19.53.653.653,0,0,1,.144-.36.64.64,0,0,1,.315-.139,17.738,17.738,0,0,1,10.771.883.976.976,0,0,1,.488.339.986.986,0,0,1,.1.5c.152,5.272-1,10.506-1.007,15.781a1.116,1.116,0,0,1-.114.6,1.066,1.066,0,0,1-.488.352,19.579,19.579,0,0,1-11.315,1.49" transform="translate(515.907 -95.858)" fill="#e67d54"/>
            <path id="Trazado_184472" data-name="Trazado 184472" d="M-468.738,120.454c-.063-.153.31-.225.182-.329a14.767,14.767,0,0,0-2.431-1.264,2.006,2.006,0,0,1-.79-.54,1.8,1.8,0,0,1-.261-.818q-.369-2.543-.483-5.113a1.12,1.12,0,0,0-.143-.6c-.219-.311-.672-.311-1.052-.279l-9.3.792-.175-.214q-.033,1.7-.067,3.4a3.336,3.336,0,0,1-.752,2.5c-.447.4-3.15,1.338-3.8,1.838a.439.439,0,0,0-.187.237.431.431,0,0,0,.079.285,8.477,8.477,0,0,0,3.219,2.969,14.441,14.441,0,0,0,8.337,2.13,9.847,9.847,0,0,0,7.39-4.09A1,1,0,0,0-468.738,120.454Z" transform="translate(506.592 -83.594)" fill="#e67d54"/>
            <g id="Grupo_122858-2" data-name="Grupo 122858" transform="translate(23.275 27.899)" style="mix-blend-mode: multiply;isolation: isolate">
              <path id="Trazado_184473" data-name="Trazado 184473" d="M-480.4,116.778a11.056,11.056,0,0,0,7.848.71,9.7,9.7,0,0,0,2.7-1.249c-.153-1.279-.275-2.562-.332-3.849a1.12,1.12,0,0,0-.143-.6c-.219-.311-.672-.311-1.052-.279l-9.3.792-.175-.214-.067,3.4a8.835,8.835,0,0,1-.063.969C-480.782,116.562-480.6,116.68-480.4,116.778Z" transform="translate(480.975 -111.493)" fill="#f6d1c3"/>
            </g>
            <path id="Trazado_184474" data-name="Trazado 184474" d="M-450.267,152.143a21.32,21.32,0,0,1,10.225-2.267,76.822,76.822,0,0,1,1.067,8.761,13.036,13.036,0,0,1-2.378,8.327c-.906,1.147-2.372,2.127-3.756,1.659a4.108,4.108,0,0,1-2.088-2.271,33.852,33.852,0,0,1-3.027-14.031" transform="translate(494.002 -96.399)" fill="#e67d54"/>
            <g id="Grupo_122859" data-name="Grupo 122859" transform="translate(43.735 53.467)" style="mix-blend-mode: multiply;isolation: isolate">
              <path id="Trazado_184475" data-name="Trazado 184475" d="M-450.267,152.143a21.32,21.32,0,0,1,10.225-2.267,76.822,76.822,0,0,1,1.067,8.761,13.036,13.036,0,0,1-2.378,8.327c-.906,1.147-2.372,2.127-3.756,1.659a4.108,4.108,0,0,1-2.088-2.271,33.852,33.852,0,0,1-3.027-14.031" transform="translate(450.267 -149.866)" fill="#f6d1c3"/>
            </g>
            <path id="Trazado_184476" data-name="Trazado 184476" d="M-496.074,122.655a12.65,12.65,0,0,0,9.649,4.182c6.526.092,8.455-3.584,8.455-3.584s6.985,2.665,10.569,5.146,3.676,3.492,4.136,5.146,1.379,4.5,1.838,6.065.827,3.677.827,3.677a13.689,13.689,0,0,0-4.136.919,50.643,50.643,0,0,0-6.62,3.327l1.473,8.253a136.965,136.965,0,0,1-15.531,1.838,78.012,78.012,0,0,1-17.829-1.287l.827-11.855a17.73,17.73,0,0,0-6.157-1.838c-4.228-.643-5.973-.735-5.973-.735s.551-10.2,2.848-12.407S-496.074,122.655-496.074,122.655Z" transform="translate(515.453 -87.319)" fill="#ff8900"/>
            <path id="Trazado_184477" data-name="Trazado 184477" d="M-488.958,96.509l-.548-.854a4.646,4.646,0,0,0-2.657-2.369,1.128,1.128,0,0,0-.666.021,1,1,0,0,0-.457.446,3.681,3.681,0,0,0-.208,2.447,4.568,4.568,0,0,0,.518,1.67,2.031,2.031,0,0,0,1.469,1,2.385,2.385,0,0,0,1.487-.419,4.435,4.435,0,0,0,1.739-2.142Z" transform="translate(508.464 -77.505)" fill="#e67d54"/>
            <path id="Trazado_184478" data-name="Trazado 184478" d="M-455.047,94.163a6.754,6.754,0,0,0-.258-1.655,1.5,1.5,0,0,0-.448-.756.892.892,0,0,0-.92-.141,1.063,1.063,0,0,0-.32.285,9.906,9.906,0,0,0-1.8,3.176l-.86,1.327.461.977a1.728,1.728,0,0,0,.368.569,1.654,1.654,0,0,0,1.387.283A2.89,2.89,0,0,0-455.4,96.6,5.078,5.078,0,0,0-455.047,94.163Z" transform="translate(497.134 -76.935)" fill="#e67d54"/>
            <path id="Trazado_184479" data-name="Trazado 184479" d="M-480.683,140.332q-.424-6.373-.847-12.747a1.18,1.18,0,0,1,.189-.9,1.165,1.165,0,0,1,.741-.27,74.564,74.564,0,0,1,8.673-.494,2.331,2.331,0,0,1,1.139.2,2.372,2.372,0,0,1,.884,1.947,79.381,79.381,0,0,1,.309,12.541,3.8,3.8,0,0,1-.192,1.172,3.2,3.2,0,0,1-2.428,1.686,8.375,8.375,0,0,1-8.5-3.351" transform="translate(504.439 -88.407)" fill="#12263f"/>
            <path id="Trazado_184480" data-name="Trazado 184480" d="M-468.74,79.036a6.828,6.828,0,0,0-3.129-3.95,6.226,6.226,0,0,0-3.658-.7c-1.259.085-2.5.371-3.751.49-2.134.2-4.4-.039-6.342.8a1.416,1.416,0,0,0-.956.386,3.031,3.031,0,0,0-.718,1.192c-.951,2.5-.846,5.26-.726,7.933l.348,7.8a10.786,10.786,0,0,0,1.169,5.324,8.777,8.777,0,0,0,2.065,2.141c2,1.576,4.4,2.87,6.936,2.762a11.288,11.288,0,0,0,3.671-.976,13.7,13.7,0,0,0,3.781-2.892,6.165,6.165,0,0,0,1.469-2.083,7.938,7.938,0,0,0,.4-2.056C-467.615,89.811-467.244,84.256-468.74,79.036Z" transform="translate(506.626 -71.202)" fill="#e67d54"/>
            <path id="Trazado_184481" data-name="Trazado 184481" d="M-455.856,157.794a44.2,44.2,0,0,0-4.046-4.158c-1.446-1.435-2.827-2.938-4.258-4.391-1.319-1.339-2.7-2.609-4.088-3.879a14.717,14.717,0,0,0,.123-1.6,18.353,18.353,0,0,0-.173-2.924,24.708,24.708,0,0,0-.5-2.751,14.025,14.025,0,0,0-.832-2.684.871.871,0,0,0-1.154-.548c-.547.283-.416,1.34-.462,1.833a23.8,23.8,0,0,1-.469,3.074c-.111.484-.246.959-.384,1.435l-.008.027c-3.615.616-7.138-.037-10.728-.9-.806-.193-3.8-1.37-3.475.533a2.651,2.651,0,0,0,1.374,1.668,2.747,2.747,0,0,0,.577,1.71,8.2,8.2,0,0,0,1.63,1.435,2.964,2.964,0,0,0,.642,1.524,6.905,6.905,0,0,0,2.262,1.9,10.249,10.249,0,0,0,3.126,1.047,10.847,10.847,0,0,0,2.79.253,27.538,27.538,0,0,0,2.249,6.017c1.113,2.3,2.41,5.036,4.449,6.665a7.691,7.691,0,0,0,6.752,1.075c1.856-.468,6.247.691,7-1.129C-452.8,162.062-454.379,159.72-455.856,157.794Z" transform="translate(506.039 -91.363)" fill="#e67d54"/>
            <g id="Grupo_122860" data-name="Grupo 122860" transform="translate(21.087 51.157)" style="mix-blend-mode: multiply;isolation: isolate">
              <path id="Trazado_184482" data-name="Trazado 184482" d="M-478.958,148.388q1.011.228,2.035.4a7.631,7.631,0,0,0,1.883.233c.145-.013-5.507-1.341-6.492-1.614a13.617,13.617,0,0,1-2.727-1.011l.015.01a2.553,2.553,0,0,0,.025.336,13.352,13.352,0,0,0,2.226.855C-480.993,147.9-479.976,148.158-478.958,148.388Z" transform="translate(484.259 -146.399)" fill="#ba9a91"/>
              <path id="Trazado_184483" data-name="Trazado 184483" d="M-478.206,152.179a12.178,12.178,0,0,1-2.717-1.041,1.875,1.875,0,0,0,.045.268,10.981,10.981,0,0,0,2.529,1.064,17.87,17.87,0,0,0,1.841.461c.3.057.594.106.894.143a1.468,1.468,0,0,0,.784,0C-474.752,153.036-477.656,152.336-478.206,152.179Z" transform="translate(483.146 -147.98)" fill="#ba9a91"/>
            </g>
            <path id="Trazado_184484" data-name="Trazado 184484" d="M-467.93,77.57c-.987-2.92-2.5-5.815-5.482-7.079a11.549,11.549,0,0,0-3.43-.78,19.232,19.232,0,0,0-3.867.015,13.254,13.254,0,0,0-2.736.566,9.794,9.794,0,0,0-6.239,6.57,17.718,17.718,0,0,0-.392,5.393l.1,3.43a1.807,1.807,0,0,0,.079.57c.269.74,1.719,1.8,1.838,2.573l.092-.139c.83-2.818-.173-4.519.324-7.4a2.082,2.082,0,0,1,1.171-1.762,2.129,2.129,0,0,1,.915-.052,15.4,15.4,0,0,1,3.267.926,10.674,10.674,0,0,0,6.047.093c1.529-.431,2.986-1.213,4.583-1.23a1.6,1.6,0,0,1,1.305.462,1.507,1.507,0,0,1,.239.624c.59,2.842.265,4.739,1.471,7.509,1.2-1.207,1.161-3.583,1.263-5.23A13.629,13.629,0,0,0-467.93,77.57Z" transform="translate(507.298 -69.621)" fill="#253044"/>
            <g id="Grupo_122861" data-name="Grupo 122861" transform="translate(22.283 15.421)">
              <path id="Trazado_184485" data-name="Trazado 184485" d="M-482.028,94.38a1.894,1.894,0,0,1,1.357-.645,3.855,3.855,0,0,1,.935.007c.3.042.581.159.877.218a.744.744,0,0,0,.548,0,.381.381,0,0,0,.155-.474c-.117-.326-.573-.5-.879-.584a3.678,3.678,0,0,0-2.006.015,1.9,1.9,0,0,0-1.416,1.287.235.235,0,0,0,.428.181Z" transform="translate(482.464 -92.766)" fill="#253044"/>
            </g>
            <g id="Grupo_122862" data-name="Grupo 122862" transform="translate(23.651 18.117)">
              <path id="Trazado_184486" data-name="Trazado 184486" d="M-478.518,97.195a1.259,1.259,0,0,0-.52-.328,1.067,1.067,0,0,0-1.363,1.065,1.688,1.688,0,0,0,.119.85,1.224,1.224,0,0,0,2.225-.141,1.605,1.605,0,0,0-.369-1.344Q-478.47,97.245-478.518,97.195Z" transform="translate(480.41 -96.811)" fill="#253044"/>
            </g>
            <g id="Grupo_122863" data-name="Grupo 122863" transform="translate(31.719 15.36)">
              <path id="Trazado_184487" data-name="Trazado 184487" d="M-463.971,94.1c-.324-1.323-2.047-1.571-3.17-1.359a2.089,2.089,0,0,0-.911.378.5.5,0,0,0-.243.483.411.411,0,0,0,.428.316,2,2,0,0,0,.488-.1c.167-.047.326-.108.5-.145a3.721,3.721,0,0,1,.869-.059,2.689,2.689,0,0,1,.929.186,1.329,1.329,0,0,1,.686.476.236.236,0,0,0,.428-.181Z" transform="translate(468.301 -92.673)" fill="#253044"/>
            </g>
            <g id="Grupo_122864" data-name="Grupo 122864" transform="translate(32.344 17.815)">
              <path id="Trazado_184488" data-name="Trazado 184488" d="M-467.149,97.04a1.606,1.606,0,0,0-.1,1.391,1.224,1.224,0,0,0,2.21-.3,1.69,1.69,0,0,0-.051-.856,1.066,1.066,0,0,0-1.546-.776,1.244,1.244,0,0,0-.445.424C-467.1,96.962-467.127,97-467.149,97.04Z" transform="translate(467.364 -96.358)" fill="#253044"/>
            </g>
            <g id="Grupo_122865" data-name="Grupo 122865" transform="translate(28.156 16.95)" style="mix-blend-mode: multiply;isolation: isolate">
              <path id="Trazado_184489" data-name="Trazado 184489" d="M-472.768,95.115a5.641,5.641,0,0,0,1.351,4.38c.3.356.624.688.9,1.061.157.213.36.516.115.749a.913.913,0,0,1-.511.187,5.734,5.734,0,0,1-1.242-.019,8.988,8.988,0,0,0-1.352-.234.142.142,0,0,0-.1.24,2.266,2.266,0,0,0,1.276.425,4.543,4.543,0,0,0,1.387-.019c.744-.127,1.229-.684.764-1.4a20.7,20.7,0,0,1-1.763-2.435,9.418,9.418,0,0,1-.674-2.916c-.009-.077-.135-.113-.149-.021Z" transform="translate(473.649 -95.06)" fill="#ba9a91"/>
            </g>
            <path id="Trazado_184490" data-name="Trazado 184490" d="M-470.3,108.022a28.6,28.6,0,0,1-2.98.255c-.936.031-1.863.059-2.8.038a7.553,7.553,0,0,0-1.838.154,1.877,1.877,0,0,0,.173.169,5.836,5.836,0,0,0,8.117-.753A4.94,4.94,0,0,1-470.3,108.022Z" transform="translate(503.228 -82.389)" fill="#253044"/>
          </g>
        </g>
      </g>
      <g id="Grupo_122877" data-name="Grupo 122877" transform="translate(-336.378 47.1)">
        <path id="Trazado_184492" data-name="Trazado 184492" d="M-236.064,134.61a31.8,31.8,0,0,0,13.51,2.205,51.65,51.65,0,0,0,12.958-2.757s18.2,14.612,42.46,7.169,34.1-28.766,30.879-54.315c-3.347-26.584-22.332-40.529-48.8-37.5s-41.15,26.462-42.459,42.459c-1.654,20.219,9.1,32.533,9.1,32.533a33.08,33.08,0,0,1-7.628,6.25A44.146,44.146,0,0,1-236.064,134.61Z" transform="translate(236.064 -49.006)" fill="#ccfff9"/>
        <g id="Grupo_122876" data-name="Grupo 122876" clip-path="url(#clip-path-2)">
          <g id="Grupo_122875" data-name="Grupo 122875" transform="translate(17.172 13.03)">
            <path id="Trazado_184493" data-name="Trazado 184493" d="M-179.652,128.941a28.432,28.432,0,0,0-1.688-3.28,1.248,1.248,0,0,0-1.851-.575,36.057,36.057,0,0,0-5.674,3.963,37.676,37.676,0,0,0-4.292,4.039c-.025-.048-.051-.1-.075-.144-.428-.848-.836-1.706-1.218-2.575-.809-1.84-1.5-3.753-2.122-5.663a55.263,55.263,0,0,1-1.5-5.49,37.273,37.273,0,0,1-.8-5.2c.3-.542,2.341-4.919,2.595-5.471a2.049,2.049,0,0,0,.169-.464.752.752,0,0,0-.256-.723.682.682,0,0,0-.736-.111,1.822,1.822,0,0,0-.438.314c-.623.546-1.245,1.092-1.858,1.65-.145.132-.3.263-.449.394-.067-.592-1.722-6.142-2.158-7.212-.3-.74-.54-1.774-1.357-2.088a.324.324,0,0,0-.4.225,7.034,7.034,0,0,0,.22,2.681c.167.941.774,3.22.967,4.157-.576-1.373-1.865-3.945-2.6-5.25-.261-.464-.582-1.181-1.212-1.2-.679-.025-.579.625-.453,1.1a11.928,11.928,0,0,0,.751,2.077c.367.773.64,1.593.979,2.379q.455,1.053.913,2.105c-.165-.251-.4-.456-.566-.7-.444-.644-.908-1.274-1.383-1.895a10.415,10.415,0,0,0-1.343-1.623c-.323-.279-.812-.6-1.173-.211-.284.3-.05.7.063,1.04a20.292,20.292,0,0,0,1.952,3.7c.3.508.542,1.135.853,1.636-.453-.35-.948-.673-1.365-1.021a16.924,16.924,0,0,0-1.632-1.211c-.315-.2-.844-.58-1.235-.346-.347.208-.3.484-.179.811.333.9,3.128,3.871,3.8,4.629.542.606,1.808,1.639,1.862,1.7.033,1.425.138,2.836.2,4.272.082,1.934.2,3.869.411,5.794a47.32,47.32,0,0,0,2.262,10.521,30,30,0,0,0,2.112,4.723,8.111,8.111,0,0,0,2.65,3.066c2.776,1.7,6.373.013,8.973-1.271a30.063,30.063,0,0,0,4.716-2.9,21.263,21.263,0,0,0,4.022-3.665.356.356,0,0,0,.4-.218C-177.961,133.389-178.825,130.812-179.652,128.941Z" transform="translate(210.292 -79.152)" fill="#fec091"/>
            <path id="Trazado_184494" data-name="Trazado 184494" d="M-125.477,97.23c-1.692-2.692-4.56-4.3-6.063-7.1-1.607-3-1.4-6.256-1.507-9.655a20.38,20.38,0,0,0-1.427-6.87,7.43,7.43,0,0,0-1.477-2.5c-1.435-1.469-3.665-1.788-5.718-1.809a17.318,17.318,0,0,0-6,.646c-4.507-1.732-10.138-2.071-14.277.374-4.22,2.492-6.728,8.021-4.919,12.575.415,1.045,1.027,2,1.443,3.048a8.943,8.943,0,0,1,.364,5.436c-.666,2.662-2.968,5.382-3.679,8.031a11.126,11.126,0,0,0,2.274,9.564c2.109,2.665,5.616,3.964,8.842,5.035a44.384,44.384,0,0,0,10.016,1.781,34.505,34.505,0,0,0,9.87-.141,19.051,19.051,0,0,0,8.621-4.2,14.213,14.213,0,0,0,4.477-6.5A9.481,9.481,0,0,0-125.477,97.23Z" transform="translate(196.529 -68.563)" fill="#12263f"/>
            <path id="Trazado_184495" data-name="Trazado 184495" d="M-160.025,124.585l-5.486,1.224a7.49,7.49,0,0,0-2.033.663,7.637,7.637,0,0,0-1.978,1.834q-3.524,4.128-7.269,8.061a13.966,13.966,0,0,1,6.259,7.285,16.612,16.612,0,0,0,.915,2.323,19.024,19.024,0,0,0,2.158-3.363,34.982,34.982,0,0,0,3.144-6.895c.555-1.91.781-3.9,1.252-5.831a9.236,9.236,0,0,1,2.408-4.851" transform="translate(199.112 -87.258)" fill="#45c6e5"/>
            <path id="Trazado_184496" data-name="Trazado 184496" d="M-132.751,131.028a57.9,57.9,0,0,0-10.948-5.951,23.1,23.1,0,0,0-12.67-1.141l.053-.375c-1.386.8-3.138.933-4.333,2a6.691,6.691,0,0,0-1.187,1.552,65.018,65.018,0,0,0-5.635,11.656,18.335,18.335,0,0,0-1.352,5.969,7.607,7.607,0,0,0,2.076,5.606,4.306,4.306,0,0,1,1.173,1.347,3.2,3.2,0,0,1,.027,1.711,92.814,92.814,0,0,0-1.223,15.4,1.207,1.207,0,0,0,.225.852,1.19,1.19,0,0,0,.69.277,49.69,49.69,0,0,0,26.778-2.992,1.328,1.328,0,0,0,.691-.48,1.342,1.342,0,0,0,.081-.85,48.034,48.034,0,0,1-.692-5.42,74.389,74.389,0,0,1,1.465-15.052c.922-4.8,1.722-9.034,4.878-12.771a.77.77,0,0,0,.258-.587A1.49,1.49,0,0,0-132.751,131.028Z" transform="translate(196.454 -86.899)" fill="#45c6e5"/>
            <path id="Trazado_184497" data-name="Trazado 184497" d="M-152.145,111.6a60.819,60.819,0,0,1,.037,6.622,2.048,2.048,0,0,1-.121.708,2.2,2.2,0,0,1-.405.566,17.389,17.389,0,0,0-3.392,5.863c-.65,1.909-.887,4.229.427,5.758a4.507,4.507,0,0,0,3.663,1.387,9.5,9.5,0,0,0,3.835-1.224,22.152,22.152,0,0,0,9.8-10.354,6.28,6.28,0,0,1-4.294-4.591,18.5,18.5,0,0,1-.241-6.559q-4.518,1.09-9.056,2.1" transform="translate(192.358 -82.317)" fill="#fec091"/>
            <g id="Grupo_122869" data-name="Grupo 122869" transform="translate(40.213 27.463)" style="mix-blend-mode: multiply;isolation: isolate">
              <path id="Trazado_184498" data-name="Trazado 184498" d="M-149.845,116.651a13.185,13.185,0,0,0,6.78-1.183,13.1,13.1,0,0,0,2.323-1.193,27.324,27.324,0,0,1,.115-4.494q-4.518,1.09-9.056,2.1l-.253-.275Q-149.786,114.124-149.845,116.651Z" transform="translate(149.938 -109.78)" fill="#e6dbd7"/>
            </g>
            <path id="Trazado_184499" data-name="Trazado 184499" d="M-131.246,97.378a5.4,5.4,0,0,1,2.775-1.964,2.418,2.418,0,0,1,1.5-.049,1.826,1.826,0,0,1,1.116,1.765,2.578,2.578,0,0,1-1.044,1.892,4.48,4.48,0,0,1-2.054.812,2.911,2.911,0,0,1-1.974-.249,1.833,1.833,0,0,1-.859-1.467" transform="translate(184.093 -77.473)" fill="#fec091"/>
            <path id="Trazado_184500" data-name="Trazado 184500" d="M-157.988,76.317A35.044,35.044,0,0,0-160.5,88.429c.062,4.145,1.52,8.429,4.668,11.125a9.679,9.679,0,0,0,1.766,1.215c3.425,1.813,8.109,1.176,10.556-1.829a16.171,16.171,0,0,0,3.1-6.479,49.4,49.4,0,0,0,.62-10.2,7.158,7.158,0,0,0-1.032-3.947c-1.161-1.794-3.512-4.066-5.608-4.485-2.658-.531-5.326.641-8.028.848a5.119,5.119,0,0,0-3.963,1.789" transform="translate(193.675 -70.274)" fill="#fec091"/>
            <path id="Trazado_184501" data-name="Trazado 184501" d="M-163.266,81.264a11.424,11.424,0,0,0,8.363-1.455,33.943,33.943,0,0,0,6.716-5.5,46.748,46.748,0,0,0,2.655,8.117c1.055,2.266,2.968,6.227,5.376,6.893a24.389,24.389,0,0,0,1.225-7.606,9.778,9.778,0,0,0-1.874-5.934A10.186,10.186,0,0,0-145.62,72.5a20.586,20.586,0,0,0-5.816-.955c-2.793-.122-5.843.127-7.925,1.993-2.117,1.9-2.673,4.941-3.106,7.75" transform="translate(194.599 -69.548)" fill="#12263f"/>
            <path id="Trazado_184502" data-name="Trazado 184502" d="M-112.66,153.074c-.013-.87-.032-1.74-.067-2.609a5.327,5.327,0,0,0-.248-1.914c-.512-1.16-2.006-1.457-3.131-1.632a10.059,10.059,0,0,0-8.234,2.3.468.468,0,0,0,.2.75c-.054,1.74.211,3.531.323,5.253q.2,3.14.336,6.284c.174,4.137.292,8.28.325,12.421a.482.482,0,0,0,.47.47,10.051,10.051,0,0,0,7.6-2.47,5.261,5.261,0,0,0,1.716-3.246c.225-1.71.323-3.449.434-5.169C-112.715,160.036-112.609,156.554-112.66,153.074Z" transform="translate(181.651 -94.67)" fill="#fec091"/>
            <path id="Trazado_184503" data-name="Trazado 184503" d="M-120.3,133.088s4.848,2.757,6.433,5.1,1.241,6.892,1.31,8.34a18.764,18.764,0,0,1-.138,2.964s-1.333-.276-5.262.69a30.812,30.812,0,0,0-6.824,2.412s-.62-5.169-1.034-8S-124.439,132.468-120.3,133.088Z" transform="translate(182.121 -90.086)" fill="#45c6e5"/>
            <g id="Grupo_122870" data-name="Grupo 122870" transform="translate(42.929 16.538)">
              <path id="Trazado_184504" data-name="Trazado 184504" d="M-145.584,94.087a2.013,2.013,0,0,0-.2,1.556,1.177,1.177,0,0,0,2.227-.2,2.129,2.129,0,0,0,.011-.965c-.126-.672-.676-1.4-1.487-.972a1.332,1.332,0,0,0-.475.448C-145.534,94-145.56,94.044-145.584,94.087Z" transform="translate(145.863 -93.384)" fill="#253044"/>
            </g>
            <g id="Grupo_122871" data-name="Grupo 122871" transform="translate(36.363 16.287)">
              <path id="Trazado_184505" data-name="Trazado 184505" d="M-155.561,93.836a2.1,2.1,0,0,0-.005,1.569,1.113,1.113,0,0,0,2.089-.468,2.221,2.221,0,0,0-.1-.959c-.2-.651-.8-1.3-1.523-.782a1.315,1.315,0,0,0-.4.5C-155.523,93.744-155.543,93.79-155.561,93.836Z" transform="translate(155.716 -93.007)" fill="#253044"/>
            </g>
            <g id="Grupo_122872" data-name="Grupo 122872" transform="translate(38.008 16.674)" style="mix-blend-mode: multiply;isolation: isolate">
              <path id="Trazado_184506" data-name="Trazado 184506" d="M-150.875,93.643a5.112,5.112,0,0,0-.118,1.423c0,.525.023,1.051.039,1.576a3.3,3.3,0,0,1,.024.759c-.028.119.015.079-.148.061-.131-.015-.265-.017-.4-.026-.508-.033-1.023-.027-1.527-.079a.18.18,0,0,0-.171.131,1.659,1.659,0,0,0,.552,1.768,2.14,2.14,0,0,0,.913.436c.288.063.724.165.969-.031a.118.118,0,0,0-.024-.184c-.206-.115-.487-.041-.719-.08a1.89,1.89,0,0,1-.834-.348,1.386,1.386,0,0,1-.516-1.466l-.172.131c.563.024,1.131.112,1.7.158.209.017.479.089.659-.057a.622.622,0,0,0,.15-.53c0-.622-.012-1.246-.029-1.868a6.036,6.036,0,0,0-.2-1.773.079.079,0,0,0-.151,0Z" transform="translate(153.248 -93.588)" fill="#dfd1cc"/>
            </g>
            <path id="Trazado_184507" data-name="Trazado 184507" d="M-144.424,103.343c-.689.255-1.391.474-2.1.662-1.435.381-2.892.673-4.331,1.041v.007a4.016,4.016,0,0,0,3.914,2.289,3.671,3.671,0,0,0,2.4-1.761,7.148,7.148,0,0,0,1.133-2.616C-143.75,103.1-144.1,103.222-144.424,103.343Z" transform="translate(190.457 -80.043)" fill="#253044"/>
            <g id="Grupo_122873" data-name="Grupo 122873" transform="translate(35.263 13.707)">
              <path id="Trazado_184508" data-name="Trazado 184508" d="M-156.989,90.884a2.776,2.776,0,0,1,.364-.41c.07-.07.133-.146.205-.213.037-.033.074-.066.113-.1.023-.019.045-.034.008-.007l.065-.047c.163-.115.344-.19.514-.291a2.266,2.266,0,0,1,.247-.127c.028-.012-.031.012.018-.007a.633.633,0,0,0,.113-.049,1.081,1.081,0,0,0,.135-.118.2.2,0,0,0-.039-.306,1.286,1.286,0,0,0-.16-.067.515.515,0,0,0-.2,0,2.748,2.748,0,0,0-.368.067,1.879,1.879,0,0,0-.658.38,2.084,2.084,0,0,0-.482.5,2.234,2.234,0,0,0-.246.631.2.2,0,0,0,.371.157Z" transform="translate(157.367 -89.135)" fill="#e98b67"/>
            </g>
            <g id="Grupo_122874" data-name="Grupo 122874" transform="translate(43.952 14.5)">
              <path id="Trazado_184509" data-name="Trazado 184509" d="M-144.127,90.8a1.34,1.34,0,0,1,.56.017c.054.013.108.03.161.048l.067.025c.019.007.017.007-.005,0l.071.03.081.027s.089.034.034.011a1.506,1.506,0,0,1,.14.068c.046.025.091.051.135.079l.059.04.035.025c-.023-.017-.025-.019-.008-.005a1.705,1.705,0,0,1,.224.215c.016.018.031.036.045.055-.064-.08.091.113.051.067.034.038.072.073.105.111.015.017.03.034.045.052-.042-.052.084.1.049.065a.61.61,0,0,0,.155.1.191.191,0,0,0,.276-.112.81.81,0,0,0-.259-.782,2.055,2.055,0,0,0-.629-.447,1.624,1.624,0,0,0-.779-.161,1.85,1.85,0,0,0-.734.192c-.167.084-.043.316.121.285Z" transform="translate(144.327 -90.325)" fill="#e98b67"/>
            </g>
            <path id="Trazado_184510" data-name="Trazado 184510" d="M-148.789,106.061a9.862,9.862,0,0,0,2.091-.55,4.15,4.15,0,0,0,1.682-1.162,3.675,3.675,0,0,0,.482-.76q-.981.357-1.99.624c-1.435.381-2.892.673-4.331,1.041v.007a3.133,3.133,0,0,0,.538.852A5.887,5.887,0,0,0-148.789,106.061Z" transform="translate(190.457 -80.251)" fill="#fff"/>
          </g>
        </g>
      </g>
      <g id="Grupo_122889" data-name="Grupo 122889" transform="translate(-441.808 103.846)">
        <path id="Trazado_184587" data-name="Trazado 184587" d="M11.739,0H72.7A11.739,11.739,0,0,1,84.443,11.739V141.968A11.739,11.739,0,0,1,72.7,153.707H11.739A11.739,11.739,0,0,1,0,141.968V11.739A11.739,11.739,0,0,1,11.739,0Z" transform="translate(15.373)" fill="#1d7e96"/>
        <rect id="Rect치ngulo_37311" data-name="Rect치ngulo 37311" width="75.82" height="144.609" rx="10.798" transform="translate(19.685 4.549)" fill="#fff"/>
        <path id="Trazado_184512" data-name="Trazado 184512" d="M-299.2,316.324c-1.654-9.006-3.124-12.177-3.124-12.177L-322,300.655c0,.092.083.66.231,1.576l-13.465.63s-.367,9.419-.919,20.08c-.467,9.03-.67,14.483-.721,15.945H-319l1.45-17.244c.24,1.221.476,2.4.706,3.505,1.52,7.351,2.691,11.728,3.272,13.739h18.945C-295.355,335.5-297.805,323.942-299.2,316.324Z" transform="translate(375.133 -189.729)" fill="#374586"/>
        <g id="Grupo_122888" data-name="Grupo 122888" transform="translate(0 14.775)">
          <path id="Trazado_184513" data-name="Trazado 184513" d="M-355.7,228.68c-.238-2.115-1.4-4.054-2.291-5.946a.306.306,0,0,0-.306-.177,1.482,1.482,0,0,0-1-.583c-1.455-.175-2.746,1.6-3.669,2.47-2.177,2.046-4.486,3.94-6.73,5.906-.01-.089-.022-.181-.031-.269q-.254-2.463-.556-4.919c-.282-2.278-.486-4.638-.906-6.928a14.939,14.939,0,0,0,2.275-2.98c.652-1.139,1.452-2.868.568-4.091-.808-1.117-2.174-.557-2.785.437a8.173,8.173,0,0,0-.682,1.562,2,2,0,0,0-.248-.041,2.26,2.26,0,0,0-1.269.346,7.228,7.228,0,0,0-1.1.773,4.5,4.5,0,0,0-.893,1.017.157.157,0,0,0,.052.228A68.6,68.6,0,0,0-377.5,228.5a37.084,37.084,0,0,0-.218,6.5,11.109,11.109,0,0,0,1.51,5.371c2.218,3.18,6.575,1.9,9.394.42a36.824,36.824,0,0,0,4.995-3.222,27.272,27.272,0,0,0,4.082-3.593A6.939,6.939,0,0,0-355.7,228.68Z" transform="translate(388.787 -174.434)" fill="#fec091"/>
          <path id="Trazado_184514" data-name="Trazado 184514" d="M-333.111,213.549a16.915,16.915,0,0,0-3.492-.344,17.862,17.862,0,0,0-10.546,3.377c-3.515,2.688-9.535,8.409-9.535,8.409s2.481,6.754,3.17,8.822,1.792,4.48,1.792,4.48l10.983-5.79Z" transform="translate(381.746 -175.32)" fill="#2df0da"/>
          <path id="Trazado_184515" data-name="Trazado 184515" d="M-322.016,202.567a11.058,11.058,0,0,1-3.015,7.992,1.336,1.336,0,0,0-.326.447,1.043,1.043,0,0,0-.039.416,4.049,4.049,0,0,0,2.031,3.092,6.962,6.962,0,0,0,3.7.857,11.149,11.149,0,0,0,8.829-4.715,1.244,1.244,0,0,0,.251-.54,1.362,1.362,0,0,0-.117-.6,20.749,20.749,0,0,1-.948-10.013,27.806,27.806,0,0,1-10.335,2.889" transform="translate(371.306 -170.748)" fill="#fec091"/>
          <g id="Grupo_122878" data-name="Grupo 122878" transform="translate(47.877 28.753)" style="mix-blend-mode: multiply;isolation: isolate">
            <path id="Trazado_184516" data-name="Trazado 184516" d="M-321.7,208.438a16.32,16.32,0,0,0,8.239-1.694A14.191,14.191,0,0,0-310.751,205a20.7,20.7,0,0,1,.088-5.494A27.806,27.806,0,0,1-321,202.39l-.031.177a11.033,11.033,0,0,1-1.413,5.79C-322.2,208.387-321.949,208.422-321.7,208.438Z" transform="translate(322.441 -199.501)" fill="#e6dbd7"/>
          </g>
          <path id="Trazado_184517" data-name="Trazado 184517" d="M-326.209,165.941c-2.569,4.742-3.3,10.244-3.351,15.617a18.716,18.716,0,0,0,1,7.158,7.942,7.942,0,0,0,5.1,4.893c2.327.6,4.785-.2,6.958-1.217a13.913,13.913,0,0,0,3.391-2.091,13.169,13.169,0,0,0,3.581-6.36,28.076,28.076,0,0,0,.344-14.145,6.039,6.039,0,0,0-1.954-3.641,6.613,6.613,0,0,0-3.471-.961,64.229,64.229,0,0,0-7.2-.141,7.15,7.15,0,0,0-4.474,1.242" transform="translate(372.695 -159.238)" fill="#fec091"/>
          <path id="Trazado_184518" data-name="Trazado 184518" d="M-300.559,188.321a6.925,6.925,0,0,1,1.361-1.356,3.674,3.674,0,0,1,2.249-.848,1.925,1.925,0,0,1,1.84,1.343,2.483,2.483,0,0,1-.241,1.525,3.535,3.535,0,0,1-.939,1.356,4.776,4.776,0,0,1-2.193.821,5.345,5.345,0,0,1-1.17.14,1.287,1.287,0,0,1-.576-.129,1.479,1.479,0,0,1-.626-1.17,5.023,5.023,0,0,1,.216-2.237" transform="translate(363.128 -166.281)" fill="#fec091"/>
          <g id="Grupo_122879" data-name="Grupo 122879" transform="translate(53.321 17.507)">
            <path id="Trazado_184519" data-name="Trazado 184519" d="M-313.834,183.272a2.223,2.223,0,0,0-.4,1.673,1.275,1.275,0,0,0,2.428.054,2.363,2.363,0,0,0,.127-1.051c-.057-.747-.563-1.6-1.489-1.238a1.442,1.442,0,0,0-.566.432C-313.769,183.184-313.8,183.228-313.834,183.272Z" transform="translate(314.271 -182.623)" fill="#253044"/>
          </g>
          <g id="Grupo_122880" data-name="Grupo 122880" transform="translate(46.337 16.426)">
            <path id="Trazado_184520" data-name="Trazado 184520" d="M-324.489,181.791a2.437,2.437,0,0,0-.182,1.71c.365,1.159,1.894.946,2.184-.259a2.6,2.6,0,0,0,0-1.058c-.129-.734-.674-1.518-1.467-1.035a1.406,1.406,0,0,0-.462.5Q-324.454,181.719-324.489,181.791Z" transform="translate(324.753 -181)" fill="#253044"/>
          </g>
          <path id="Trazado_184521" data-name="Trazado 184521" d="M-323.055,193.829a3.622,3.622,0,0,1,.635,2.75,2.52,2.52,0,0,0-.092,1c.144.632.878.929,1.522,1a5.081,5.081,0,0,0,4.292-1.7,1.867,1.867,0,0,0,.542-1.173,1.53,1.53,0,0,0-.849-1.264,4.139,4.139,0,0,0-1.536-.4,33.707,33.707,0,0,0-4.291-.225" transform="translate(370.523 -168.852)" fill="#253044"/>
          <path id="Trazado_184522" data-name="Trazado 184522" d="M-316.163,196.249a3.161,3.161,0,0,0-1.634.946,5.364,5.364,0,0,0-1.317,2.2,5.093,5.093,0,0,0,3.731-1.718,1.867,1.867,0,0,0,.542-1.173,1.07,1.07,0,0,0-.035-.2A3.561,3.561,0,0,0-316.163,196.249Z" transform="translate(369.208 -169.651)" fill="#f4624d"/>
          <g id="Grupo_122881" data-name="Grupo 122881" transform="translate(47.019 15.932)" style="mix-blend-mode: multiply;isolation: isolate">
            <path id="Trazado_184523" data-name="Trazado 184523" d="M-319.754,180.335a34.146,34.146,0,0,1-.757,3.552,2.541,2.541,0,0,1-.66,1.235c-.482.412-1.087.145-1.65.22-.848.112-1.249.973-.548,1.572a2.962,2.962,0,0,0,1.354.572,1.688,1.688,0,0,0,1.348-.108.1.1,0,0,0-.02-.156,1.135,1.135,0,0,0-.539-.089,3.473,3.473,0,0,1-.853-.1c-.38-.1-1.091-.3-1.2-.744-.144-.6.818-.531,1.149-.517a1.658,1.658,0,0,0,1.133-.274,3.467,3.467,0,0,0,1-2.006,12.3,12.3,0,0,0,.454-3.125c0-.115-.185-.149-.207-.028Z" transform="translate(323.729 -180.259)" fill="#d4c1bb"/>
          </g>
          <g id="Grupo_122882" data-name="Grupo 122882" transform="translate(54.816 15.005)">
            <path id="Trazado_184524" data-name="Trazado 184524" d="M-311.824,179.418a3.132,3.132,0,0,1,.613.141c.051.016.1.034.153.053.067.024-.025-.013.015,0l.072.033c.1.049.2.1.3.155.047.026.094.054.139.083l.067.045s.083.061.037.026.025.021.034.029c.025.021.049.042.073.064.04.036.075.077.115.113a1.665,1.665,0,0,0,.183.137c-.063-.045,0,0,.011.01s.041.034.061.052a1.814,1.814,0,0,0,.143.133.508.508,0,0,0,.125.063c.045.017-.021-.011.034.013a.2.2,0,0,0,.291-.119.767.767,0,0,0,.039-.2.665.665,0,0,0-.061-.227,1.625,1.625,0,0,0-.208-.41,2.1,2.1,0,0,0-.684-.529,2.132,2.132,0,0,0-.844-.223,1.669,1.669,0,0,0-.809.169.2.2,0,0,0-.093.229.212.212,0,0,0,.2.149Z" transform="translate(312.027 -178.867)" fill="#753623"/>
          </g>
          <g id="Grupo_122883" data-name="Grupo 122883" transform="translate(45.771 13.548)">
            <path id="Trazado_184525" data-name="Trazado 184525" d="M-323.066,176.776c-.2-.033-.4-.063-.605-.086a2.121,2.121,0,0,0-.66.051,1.8,1.8,0,0,0-1.009.531.812.812,0,0,0-.249.658.346.346,0,0,0,.217.244l.045.007.034,0a.415.415,0,0,0,.258-.05c.137-.076.265-.168.4-.239l.045-.022c.077-.039-.013,0-.025.009.066-.027.132-.053.2-.085l.089-.047.061-.028c.059-.029-.086.031-.023.01.1-.034.191-.068.289-.094s.21-.041.31-.073c.208-.065.414-.131.624-.188a.319.319,0,0,0,.229-.3.313.313,0,0,0-.229-.3Z" transform="translate(325.602 -176.682)" fill="#753623"/>
          </g>
          <path id="Trazado_184526" data-name="Trazado 184526" d="M-305.585,162a3.9,3.9,0,0,0-1.657-1.231,3.144,3.144,0,0,0-.88-.193c-.6-.043-1.245.217-1.8-.1-.654-.372-1-1.288-1.5-1.835a5.424,5.424,0,0,0-1.924-1.332,5.594,5.594,0,0,0-4.417.067c-.824.366-1.63,1.2-2.593,1.011a5.447,5.447,0,0,1-2.01-1.333A2.913,2.913,0,0,0-326.1,157c-1.355,1.058-1.691,2.947-1.664,4.571a8.08,8.08,0,0,0,.186,1.587c-.046.2-.086.4-.121.6-.143.834-.279,1.669-.418,2.5a37.032,37.032,0,0,0-.737,5.456c-.007.315,1.635-4.213,2.485-6.073a11.331,11.331,0,0,0,4.156,1.654,23.584,23.584,0,0,0,5.479.446,22.427,22.427,0,0,0,4.669-.644,22.8,22.8,0,0,0,.722,4.314,31.461,31.461,0,0,0,2.453,6.311.334.334,0,0,0,.57,0,20.557,20.557,0,0,0,2.385-5.2,31.13,31.13,0,0,0,1.369-5.6A6.479,6.479,0,0,0-305.585,162Z" transform="translate(372.459 -156.348)" fill="#b26001"/>
          <g id="Grupo_122885" data-name="Grupo 122885" transform="translate(79.966 32.202)">
            <path id="Trazado_184527" data-name="Trazado 184527" d="M-237.183,209.57a4.953,4.953,0,0,0-.949-3.946c-.339-.268-.68-.543-1.024-.8a3.933,3.933,0,0,0-2.876.367c-.05.029-.1.059-.154.087a23.529,23.529,0,0,0-6.254,4.855c-.016-.039-.033-.079-.049-.118q-.162-.41-.334-.815-.359-.839-.763-1.657c-.217-.438-.919-2.317-1.684-1.55a1.738,1.738,0,0,0-.34,1.145,8.861,8.861,0,0,0,.107,1.9c.072.46.171.918.283,1.374,0,.289.023.576.02.822-.009.774-.016,1.546,0,2.319.009.5.017,1.015.032,1.529-.2.368-.4.73-.581,1.066a38.41,38.41,0,0,1-5,7.1,49.776,49.776,0,0,1-5.228,4.942c-.769-.5-1.531-1.008-2.275-1.544a36.842,36.842,0,0,1-4.118-3.429c-.17-.165-.4.048-.333.233l-2.7,5.758c-.435.93-.876,1.856-1.305,2.788-.215.466-.418.938-.624,1.409a9.8,9.8,0,0,0-.5,1.161c-.069-.035-.138-.073-.208-.109a.172.172,0,0,0-.157.305l.3.188a.155.155,0,0,0,.2.123c2.567,1.578,5.132,3.223,7.809,4.6a9.829,9.829,0,0,0,3.639,1.195,3.842,3.842,0,0,0,3.149-1.379c2.092-2,3.537-4.58,5.072-7,1.662-2.625,3.351-5.24,4.856-7.96.851-1.539,1.716-3.072,2.541-4.625.334-.629.69-1.272,1.026-1.926.488-.378.959-.784,1.439-1.172,1.039-.842,2.111-1.77,3.13-2.643C-240.445,213.652-237.427,210.737-237.183,209.57Z" transform="translate(274.281 -204.678)" fill="#fec091"/>
            <g id="Grupo_122884" data-name="Grupo 122884" transform="translate(29.61 0.091)" style="mix-blend-mode: multiply;isolation: isolate">
              <path id="Trazado_184528" data-name="Trazado 184528" d="M-228.248,207.965c.529-.444.792-.52,1.307-.98a18.96,18.96,0,0,1,1.626-1.332,4.381,4.381,0,0,1,.991-.554c.061-.023.127-.051.193-.075-.066-.05-.13-.1-.2-.153-.063-.024-.129-.038-.194-.056-.273.222-.557.422-.849.62a13.933,13.933,0,0,0-1.717,1.315c-.536.5-.786.59-1.331,1.077q-.362.326-.706.672a4.309,4.309,0,0,0-.713.81c-.028.049.039.1.083.069a6.6,6.6,0,0,0,.646-.635Q-228.692,208.338-228.248,207.965Z" transform="translate(229.842 -204.815)" fill="#d4c1bb"/>
              <path id="Trazado_184529" data-name="Trazado 184529" d="M-228.2,211.131c-.082.073.012.215.1.143,1.147-.922,2.33-1.608,3.415-2.6q.815-.747,1.673-1.445c.2-.161.4-.318.6-.474-.053-.092-.112-.18-.172-.267-.183.141-.365.282-.544.426q-.887.716-1.73,1.485C-225.966,209.41-227.078,210.135-228.2,211.131Z" transform="translate(229.305 -205.372)" fill="#d4c1bb"/>
              <path id="Trazado_184530" data-name="Trazado 184530" d="M-221.275,209.939l.051-.036q-.018-.25-.061-.5l-.184.144c-.571.438-1.142.885-1.678,1.366-1.069.959-2.391,1.862-3.5,2.771-.055.045.006.135.064.091,1.139-.866,2.583-1.6,3.685-2.511C-222.359,210.822-221.828,210.367-221.275,209.939Z" transform="translate(228.783 -206.347)" fill="#d4c1bb"/>
            </g>
          </g>
          <path id="Trazado_184531" data-name="Trazado 184531" d="M-328.561,213.317s-.735,3.216,2.022,4.687,6.157.552,8.639-.827a8.837,8.837,0,0,0,3.423-3.163s6.871-2.9,13.028,1.049,14.061,11.672,14.061,11.672l-6.893,12.5-8.363-4.044s-.092,14.612.46,24.814A87.251,87.251,0,0,0-299.7,277.1s-9.1.551-16.635.551-19.483-.827-19.483-.827-1.654-33.82-.46-45.768,2.114-16.358,3.217-17.37S-328.561,213.317-328.561,213.317Z" transform="translate(375.082 -175.249)" fill="#2df0da"/>
          <g id="Grupo_122886" data-name="Grupo 122886" transform="translate(0 1.264)">
            <path id="Trazado_184532" data-name="Trazado 184532" d="M-370.459,197.32a19.158,19.158,0,0,1-.736,4.839c-.631,2.617-1.331,5.362-3.184,7.314a10,10,0,0,0-1.155,1.265,1.825,1.825,0,0,0-.29,1.624c.35.907,1.581,1.1,2.517.842,2.157-.606,3.511-2.7,4.549-4.681a58.891,58.891,0,0,0,4.1-9.965.858.858,0,0,0,.05-.486.8.8,0,0,0-.364-.4,5.512,5.512,0,0,0-5.331-.365" transform="translate(388.162 -171.105)" fill="#75b51d"/>
            <path id="Trazado_184533" data-name="Trazado 184533" d="M-378.778,161.84a13.451,13.451,0,0,0,6.446,7.044c5.055,2.665,5.146,2.849,8.363,3.309s5.652,1.585,6.617,5.238c1,3.8-.184,7.812-3.033,9.65s-6.341.919-7.26.643a16.77,16.77,0,0,0-6.893-.919,27.154,27.154,0,0,0-10.018,2.481,35.781,35.781,0,0,1-3.32,1.6s-1.55-3.166-.724-9.415a64.769,64.769,0,0,1,4.136-14.888C-384,165.943-380.629,159.575-378.778,161.84Z" transform="translate(392.477 -159.282)" fill="#05d6bf"/>
            <path id="Trazado_184534" data-name="Trazado 184534" d="M-380.6,160.8c-.636-1.6-1.74-2.743-3.618-2.533a4.424,4.424,0,0,0-2.2,1.057c-3.01,2.416-4.687,6.338-5.918,9.908a34.411,34.411,0,0,0-1.7,15.613c.279,2.169,1.273,6.322,4.336,5.006,2.034-.874,3.488-3.175,4.6-4.989a37.606,37.606,0,0,0,5.255-17.232A17.5,17.5,0,0,0-380.6,160.8Z" transform="translate(394.297 -158.244)" fill="#00a593"/>
            <path id="Trazado_184535" data-name="Trazado 184535" d="M-354,177.459q-.3-.054-.62-.1a16.986,16.986,0,0,1-2.644-.522,12.287,12.287,0,0,1,.594,2.365,14.906,14.906,0,0,1-.343,4.994,19.453,19.453,0,0,1-1.494,4.383,16.563,16.563,0,0,1-2.118,3.386c-.067.083-.138.164-.209.245a17.853,17.853,0,0,1,2.539.68c.136.041.335.1.574.155.159-.146.314-.3.462-.453a14.032,14.032,0,0,0,1.624-2.084,18.019,18.019,0,0,0,2.53-6.937A9.5,9.5,0,0,0-354,177.459Z" transform="translate(383.132 -164.449)" fill="#a9f73f"/>
            <path id="Trazado_184536" data-name="Trazado 184536" d="M-380.851,187.218c-.985-1.713-3.367-3.6-4.937-4.8a.374.374,0,0,1-.169-.215.371.371,0,0,1,.067-.226,10.948,10.948,0,0,0,1.618-5.917,14.275,14.275,0,0,0,6.416-.121l-.592,2.794a26.062,26.062,0,0,1-1.533,5.334,7.514,7.514,0,0,0-.935,2.735" transform="translate(391.514 -164.149)" fill="#a9f73f"/>
            <path id="Trazado_184537" data-name="Trazado 184537" d="M-383.714,176.938a1.393,1.393,0,0,0-1.572-.967,1.752,1.752,0,0,0-.806.5,5.46,5.46,0,0,0-1.377,3.56c-.033.862.023,2.17,1.105,2.363s1.91-1.125,2.3-1.952a5.349,5.349,0,0,0,.426-3.279C-383.662,177.087-383.687,177.012-383.714,176.938Z" transform="translate(392.021 -164.149)" fill="#fff"/>
            <path id="Trazado_184538" data-name="Trazado 184538" d="M-380.6,160.8c-.636-1.6-1.74-2.743-3.618-2.533a4.424,4.424,0,0,0-2.2,1.057c-3.01,2.416-4.687,6.338-5.918,9.908a34.411,34.411,0,0,0-1.7,15.613c.279,2.169,1.273,6.322,4.336,5.006,2.034-.874,3.488-3.175,4.6-4.989a37.606,37.606,0,0,0,5.255-17.232A17.5,17.5,0,0,0-380.6,160.8Zm-.6,6.908a36.01,36.01,0,0,1-4.47,15.7c-.946,1.652-2.408,4.4-4.138,5.2-2.606,1.2-3.451-2.583-3.689-4.559a36.6,36.6,0,0,1,1.667-14.874c1.048-3.252,2.814-7.017,5.375-9.217a3.659,3.659,0,0,1,1.873-.962c1.6-.192,2.537.848,3.078,2.307C-380.77,163.28-381.111,166.226-381.2,167.71Z" transform="translate(394.297 -158.244)" fill="#fff"/>
          </g>
          <path id="Trazado_184539" data-name="Trazado 184539" d="M-365.439,212.113a3.517,3.517,0,0,0,.557-2.231c-.029-.781-.2-1.55-.247-2.33a2.166,2.166,0,0,1,.1-.95.9.9,0,0,1,.7-.588,1.086,1.086,0,0,1,.922.555,3.219,3.219,0,0,1,.494,1.942,7.69,7.69,0,0,1-.41,1.99,6.407,6.407,0,0,1-2.543,3.847,3.37,3.37,0,0,1,.548-1.533" transform="translate(384.81 -172.921)" fill="#fec091"/>
          <path id="Trazado_184540" data-name="Trazado 184540" d="M-369.817,206.26a4.835,4.835,0,0,0-1.067-1.106,4.912,4.912,0,0,0-1.872-.722,4.634,4.634,0,0,0-.861-.107,3.522,3.522,0,0,0-2.682,1.343,5.635,5.635,0,0,0-1.142,2.841,5.826,5.826,0,0,0,.621,3.7,8.906,8.906,0,0,0,.68.96c.027.035.043.053.07.087.046-.06.4-.49.5-.6.188-.213.614-.619.619-.623a1.79,1.79,0,0,1,.259-.312,2.627,2.627,0,0,1,1.913-.53,1.764,1.764,0,0,1,.611.165,2.965,2.965,0,0,0,.47.247.8.8,0,0,0,.8-.262,1.251,1.251,0,0,0,.28-.828.6.6,0,0,1,.018-.2.605.605,0,0,1,.215-.241,1.1,1.1,0,0,0,.436-.776,1.316,1.316,0,0,1,.012-.267,1.472,1.472,0,0,1,.251-.4,1.368,1.368,0,0,0,.141-.728C-369.537,207.265-369.411,206.807-369.817,206.26Z" transform="translate(388.694 -172.358)" fill="#fec091"/>
          <g id="Grupo_122887" data-name="Grupo 122887" transform="translate(13.655 33.164)" style="mix-blend-mode: multiply;isolation: isolate">
            <path id="Trazado_184541" data-name="Trazado 184541" d="M-369.365,212.315c-.178-.133-.359-.263-.547-.382a6.994,6.994,0,0,0-1.2-.6,7.023,7.023,0,0,0-2.609-.506.088.088,0,0,0,0,.176,5.97,5.97,0,0,1,2.507.573,6.18,6.18,0,0,1,1.066.663,4.6,4.6,0,0,1,.446.39c.1.1.2.207.3.3a1.569,1.569,0,0,0,.021-.243.6.6,0,0,1,.018-.2.328.328,0,0,1,.071-.105C-369.313,212.356-369.337,212.335-369.365,212.315Z" transform="translate(373.803 -207.691)" fill="#d4c1bb"/>
            <path id="Trazado_184542" data-name="Trazado 184542" d="M-368.5,210.13l-.005,0a6.24,6.24,0,0,0-.579-.531,6.445,6.445,0,0,0-1.3-.824,6.985,6.985,0,0,0-2.968-.67.135.135,0,0,0,0,.269,6.035,6.035,0,0,1,2.853.754,6.622,6.622,0,0,1,1.179.822,6.351,6.351,0,0,1,.53.525,1.83,1.83,0,0,0,.181.189.766.766,0,0,0,.019-.1,1.316,1.316,0,0,1,.012-.267A.492.492,0,0,1-368.5,210.13Z" transform="translate(373.699 -206.782)" fill="#d4c1bb"/>
            <path id="Trazado_184543" data-name="Trazado 184543" d="M-367.9,208.018a6.224,6.224,0,0,0-1.876-1.368,5.038,5.038,0,0,0-2.688-.506c-.14.013-.145.229,0,.223a5.046,5.046,0,0,1,2.525.563,6.293,6.293,0,0,1,1.828,1.525c.045.054.125.17.217.273,0-.075.007-.149.007-.223,0-.163.009-.315.014-.459Z" transform="translate(373.394 -206.122)" fill="#d4c1bb"/>
          </g>
        </g>
      </g>
      <g id="Grupo_122899" data-name="Grupo 122899" transform="translate(-530.495 211.099)">
        <path id="Trazado_184544" data-name="Trazado 184544" d="M-435.205,393.291s-3.493.184-10.661-4.411-8.639-7.9-8.639-7.9,13.6-6.434,18.932-28.858-9.558-50.73-37.864-55.877-45.032,8.087-52.017,33.085,6.25,44.3,16.911,51.65,24.63,7.72,29.225,8.087a28.4,28.4,0,0,0,9.006-.919s6.341,5.7,18.2,7.077S-435.205,393.291-435.205,393.291Z" transform="translate(527.402 -295.143)" fill="#ccfff9"/>
        <g id="Grupo_122898" data-name="Grupo 122898" transform="translate(0)" clip-path="url(#clip-path-3)">
          <g id="Grupo_122897" data-name="Grupo 122897" transform="translate(14.204 11.597)">
            <path id="Trazado_184545" data-name="Trazado 184545" d="M-476.13,352.807a24.254,24.254,0,0,1,.1,5.392,8.149,8.149,0,0,1-2.2,4.827,6.578,6.578,0,0,0,4.281,1.963c1.139.113,4.142,6.166,5.809,5.915.673-.1-.229-5.771.54-6.25.67-.416.744-1.376.856-2.156a35.228,35.228,0,0,0,.248-8.045,14.058,14.058,0,0,1-9.484-1.524" transform="translate(496.788 -325.983)" fill="#ffb5a8"/>
            <path id="Trazado_184546" data-name="Trazado 184546" d="M-403.668,354.454c-.265-.34-.719-.087-.986.095a21.738,21.738,0,0,0-2.354,1.858c.325-.524.622-1.069.912-1.591a13.04,13.04,0,0,0,1.468-3.16c.081-.336.22-.878-.115-1.127-.376-.28-.8.134-1.066.374a31.146,31.146,0,0,0-2.854,3.859c.262-.549.728-1.68.994-2.214a10.854,10.854,0,0,0,1.235-3.393c.045-.34.131-.866-.264-1.044s-.84.328-1.082.57c-.824.82-2.678,5.066-2.767,5.232.143-.582.829-2.986.951-3.569a3.892,3.892,0,0,0,.041-2.119c-.133-.33-.44-.648-.769-.374a5,5,0,0,0-1.031,1.914c-.468,1.14-.885,2.3-1.285,3.466-.5,1.445-.943,2.9-1.331,4.376a12.384,12.384,0,0,0-1.449-1.642c-.372-.36-2.193-2.044-2.415-.693a2.283,2.283,0,0,0,.141.908q.172.658.4,1.3c.249.711.639,1.384.943,2.123.635,1.543,1.66,2.763.886,4.516a.086.086,0,0,0,0,.048c-.071-.009-.143.063-.1.133a4.946,4.946,0,0,0,2.037,1.494,7.82,7.82,0,0,0,2.529.692c.213.021.428.034.642.037.171,0,.444.047.588-.074.1-.086.1-.157.058-.212,0-.005.009-.007.01-.013.219-.858.4-1.717.545-2.59q.1-.628.192-1.257c.147-.151.282-.319.412-.465.322-.356.63-.725.933-1.1.646-.794,1.271-1.605,1.889-2.421A18.816,18.816,0,0,0-404,355.8C-403.835,355.482-403.39,354.81-403.668,354.454Z" transform="translate(476.639 -324.294)" fill="#ffb5a8"/>
            <path id="Trazado_184547" data-name="Trazado 184547" d="M-437.912,372.209a.3.3,0,0,0-.441-.244.372.372,0,0,0-.136-.038,11.384,11.384,0,0,1-6.459-2.477.277.277,0,0,0-.456.121,89.005,89.005,0,0,1-3.454,9.954,43.427,43.427,0,0,1-3.339,6.621c-.593-.627-1.3-1.178-1.9-1.767q-1.351-1.312-2.615-2.706-2.651-2.92-5.012-6.089c-1.291-1.736-2.309-3.76-4.382-4.657-2.527-1.093-5.207-1.924-7.8-2.846a.184.184,0,0,0-.145-.064,11.113,11.113,0,0,0-1.176.127q-.594.074-1.185.161c-.738.108-1.463.246-2.187.412a.259.259,0,0,0-.37.285,23.985,23.985,0,0,1,.8,5.068c-.189-.615-.374-1.232-.571-1.845-.172-.536-.359-1.067-.544-1.6a7.245,7.245,0,0,0-.582-1.475.126.126,0,0,0-.131-.144,11.329,11.329,0,0,1-7.165-1.772.317.317,0,0,0-.33,0,72.282,72.282,0,0,1-7.447,4.86,36.853,36.853,0,0,0-6.895,4.416,7.548,7.548,0,0,0-2.095,2.991,20.566,20.566,0,0,0-.843,4.268q-.625,4.474-.954,8.983c-.257,3.557-.408,7.138-.33,10.705a.385.385,0,0,0,.511.357,14.345,14.345,0,0,0,3.453,3.747,14,14,0,0,0,4.9,2.217.362.362,0,0,0,.323-.073.218.218,0,0,0,.279-.135,46.362,46.362,0,0,0,1.331-8.3q-.023,1.007-.009,2.018c.021,1.331.091,2.662.241,3.985.067.6.148,1.189.247,1.78a4.248,4.248,0,0,0,.219,1.066.322.322,0,0,0,.129.245c.027.021.057.039.085.061s.031.035.051.051a.18.18,0,0,0,.073.035c3.94,2.876,9.413,3.351,14.127,3.646A61.65,61.65,0,0,0-463.881,413c.063.155.117.315.186.466.149.326.6.079.542-.229-.267-1.5-.654-2.964-.87-4.475-.226-1.577-.36-3.164-.458-4.753-.187-3.036-.323-6.075-.48-9.112q-.085-1.634-.169-3.268a38.647,38.647,0,0,0,5.292,3.651c2.732,1.559,5.809,3.05,9.043,2.6,2.845-.4,4.983-2.491,6.476-4.831a27.961,27.961,0,0,0,2-4.335c.668-1.6,1.261-3.242,1.814-4.888.629-1.872,1.347-3.717,1.8-5.643A20.4,20.4,0,0,0-437.912,372.209Z" transform="translate(506.085 -330.782)" fill="#8dd52c"/>
            <g id="Grupo_122890" data-name="Grupo 122890" transform="translate(20.658 26.824)" style="mix-blend-mode: multiply;isolation: isolate">
              <path id="Trazado_184548" data-name="Trazado 184548" d="M-473.691,357.047a10.754,10.754,0,0,0,5.629,1.965,8.514,8.514,0,0,0,2.714-.283,29.917,29.917,0,0,0-.095-4.276,14.058,14.058,0,0,1-9.484-1.524l-.155-.121c.1,1.072.19,2.15.2,3.226A9.045,9.045,0,0,0-473.691,357.047Z" transform="translate(475.081 -352.807)" fill="#eee7e5"/>
            </g>
            <path id="Trazado_184549" data-name="Trazado 184549" d="M-480.831,339.877a12.614,12.614,0,0,0-2.128-1.752,2.289,2.289,0,0,0-2.587.1,1.885,1.885,0,0,0-.514,1.69,2.86,2.86,0,0,0,.91,1.564,4.584,4.584,0,0,0,4.907.641" transform="translate(499.412 -320.967)" fill="#ffb5a8"/>
            <path id="Trazado_184550" data-name="Trazado 184550" d="M-479.982,320.607a37.072,37.072,0,0,0,.486,17.609,14.051,14.051,0,0,0,1.375,3.49,8.906,8.906,0,0,0,10.152,3.77,11.27,11.27,0,0,0,6.554-6.808,25.946,25.946,0,0,0,1.336-9.612,11.374,11.374,0,0,0-1.763-6.446,7.525,7.525,0,0,0-5.328-3.152,20.1,20.1,0,0,0-6.545.5,38,38,0,0,1-6.507,1.014" transform="translate(497.652 -314.82)" fill="#ffb5a8"/>
            <g id="Grupo_122891" data-name="Grupo 122891" transform="translate(25.26 15.895)">
              <path id="Trazado_184551" data-name="Trazado 184551" d="M-468.063,337.279a2.127,2.127,0,0,0,.077,1.554,1.072,1.072,0,0,0,1.994-.574,2.25,2.25,0,0,0-.149-.945c-.225-.634-.845-1.249-1.513-.694a1.315,1.315,0,0,0-.358.52C-468.031,337.186-468.048,337.232-468.063,337.279Z" transform="translate(468.173 -336.405)" fill="#253044"/>
            </g>
            <g id="Grupo_122892" data-name="Grupo 122892" transform="translate(32.107 15.804)">
              <path id="Trazado_184552" data-name="Trazado 184552" d="M-457.8,337.073a1.96,1.96,0,0,0,.071,1.433.989.989,0,0,0,1.838-.528,2.075,2.075,0,0,0-.137-.871c-.208-.585-.779-1.151-1.395-.64a1.207,1.207,0,0,0-.33.479C-457.766,336.987-457.782,337.03-457.8,337.073Z" transform="translate(457.897 -336.267)" fill="#253044"/>
            </g>
            <path id="Trazado_184553" data-name="Trazado 184553" d="M-457.447,317.413c-.663-.067-1.321-.233-1.982-.32-.434-.057-.873-.1-1.311-.139a5.811,5.811,0,0,0,.622-.276c.57-.3,1.826-.959,1.321-1.76a5.409,5.409,0,0,0-2.975-1.8,16.35,16.35,0,0,0-4.128-.567,20.915,20.915,0,0,0-8.6,1.714,25.251,25.251,0,0,0-3.67,1.925q-.849.534-1.662,1.122c-.115.083-.235.167-.351.254a10.932,10.932,0,0,0-.7-1.773c-.324-.743-.638-1.5-.993-2.229a.316.316,0,0,0-.573.075,6.391,6.391,0,0,0-.1,2.084,6.361,6.361,0,0,0,.2,1,3.946,3.946,0,0,0,.211.494,5.1,5.1,0,0,0-1.051-.55,8.057,8.057,0,0,0-1.764-.473c-.223-.034-.486.14-.4.4a5.134,5.134,0,0,0,1.766,2.469c-.061.278-.089.569-.123.84-.067.532-.107,1.07-.132,1.606a23.576,23.576,0,0,0,.087,3.45,22.441,22.441,0,0,0,.574,3.253,9.111,9.111,0,0,0,1.16,3.042.27.27,0,0,0,.27.022,8.1,8.1,0,0,0,1.269-2.915,22.526,22.526,0,0,0,.859-3.463,22.193,22.193,0,0,0,.233-3.423c-.007-.564-.042-1.127-.1-1.688a13.6,13.6,0,0,0,3.882,1.471,45.3,45.3,0,0,0,6.007,1.276,24.19,24.19,0,0,0,5.949.151,13.063,13.063,0,0,0,2.724-.58,5.6,5.6,0,0,0,1.669-.833c.22-.173.69-.6.652-.922s-.582-.6-.81-.74a5.772,5.772,0,0,0-1.238-.564,10.749,10.749,0,0,0,1.588-.442,6.8,6.8,0,0,0,1.721-.826A.2.2,0,0,0-457.447,317.413Z" transform="translate(499.173 -312.548)" fill="#d87808"/>
            <g id="Grupo_122893" data-name="Grupo 122893" transform="translate(23.824 12.876)">
              <path id="Trazado_184554" data-name="Trazado 184554" d="M-469.667,333.891c.031-.049.062-.1.1-.143.013-.019.027-.037.041-.055-.042.055.007-.007.015-.017a2.63,2.63,0,0,1,.222-.235c.038-.035.076-.069.116-.1l.067-.054c-.045.035-.025.019.009,0a2.657,2.657,0,0,1,.274-.173c.09-.049.181-.1.272-.144.025-.013.051-.025.077-.037.093-.043,0,0,0,0s.131-.049.145-.054a2.817,2.817,0,0,1,.313-.087,1.5,1.5,0,0,0,.378-.153.4.4,0,0,0-.093-.714,1.032,1.032,0,0,0-.514-.025,2.417,2.417,0,0,0-.345.1,2.591,2.591,0,0,0-.7.349,3.107,3.107,0,0,0-.988,1.19.368.368,0,0,0,.129.492.366.366,0,0,0,.491-.129Z" transform="translate(470.329 -331.873)" fill="#8b5646"/>
            </g>
            <g id="Grupo_122894" data-name="Grupo 122894" transform="translate(32.92 13.221)">
              <path id="Trazado_184555" data-name="Trazado 184555" d="M-456.429,332.906c.084.009-.024,0,.023,0l.063.011c.043.008.085.018.127.029s.093.027.139.043l.062.023c.058.021-.026-.013.009,0a2.538,2.538,0,0,1,.231.121c.041.025.082.052.121.08a.216.216,0,0,0,.043.031l-.027-.021.03.025c.055.043.111.083.167.123s-.045-.038-.008-.006l.051.042c.067.058.125.124.189.185a1.316,1.316,0,0,0,.167.118.553.553,0,0,0,.06.043c-.017,0-.053-.043,0,0a.692.692,0,0,0,.167.121.459.459,0,0,0,.169.027.214.214,0,0,0,.182-.1.362.362,0,0,0,.067-.2.659.659,0,0,0-.043-.189,1.136,1.136,0,0,0-.2-.392,1.665,1.665,0,0,0-.215-.2,1.516,1.516,0,0,0-.313-.215,2.374,2.374,0,0,0-1.334-.2.246.246,0,0,0-.179.274.254.254,0,0,0,.245.217Z" transform="translate(456.677 -332.392)" fill="#8b5646"/>
            </g>
            <g id="Grupo_122895" data-name="Grupo 122895" transform="translate(29.805 14.434)" style="mix-blend-mode: multiply;isolation: isolate">
              <path id="Trazado_184556" data-name="Trazado 184556" d="M-460.565,334.33a31.35,31.35,0,0,0-.381,3.86c-.021.44-.2,1.141.1,1.524s.923.189,1.319.172c.318-.014.638-.013.956-.007.21,0,.815-.081.943.161.211.394-.506,1.05-.758,1.257a2.846,2.846,0,0,1-1.4.562c-.456.069-.985-.128-1.4.061a.338.338,0,0,0-.068.527c.352.37,1.1.227,1.549.124a3.956,3.956,0,0,0,1.364-.672c.556-.385,1.713-1.513,1.032-2.245-.351-.378-1.1-.243-1.554-.237-.368,0-.736.014-1.1.026-.137,0-.4.065-.5-.069-.074-.1.013-.463.023-.572a35.732,35.732,0,0,0,.2-4.427c-.007-.175-.289-.234-.323-.043Z" transform="translate(461.352 -334.212)" fill="#d0bbb4"/>
            </g>
            <path id="Trazado_184557" data-name="Trazado 184557" d="M-461.433,349.066c-1.2-.286-2.4-.571-3.6-.821-.592-.123-1.185-.237-1.782-.336a13.906,13.906,0,0,0-1.787-.261c-.215-.007-.169.2-.111.37a7.413,7.413,0,0,0,1.135,2.362,3.8,3.8,0,0,0,2.321,1.516,3.514,3.514,0,0,0,3.964-2.589A.2.2,0,0,0-461.433,349.066Z" transform="translate(493.63 -324.262)" fill="#253044"/>
            <path id="Trazado_184558" data-name="Trazado 184558" d="M-466.347,348.936a12.932,12.932,0,0,0,2.251.755c.468.069.944.069,1.416.1a2.452,2.452,0,0,0,.863-.2,2.518,2.518,0,0,0,.64-.419c.036-.033.068-.069.1-.1-1.137-.272-2.273-.54-3.418-.778-.592-.123-1.185-.237-1.782-.336-.286-.047-.576-.105-.867-.155A1.721,1.721,0,0,0-466.347,348.936Z" transform="translate(493.09 -324.314)" fill="#fff"/>
            <g id="Grupo_122896" data-name="Grupo 122896" transform="translate(15.631 35.183)">
              <path id="Trazado_184559" data-name="Trazado 184559" d="M-472.166,368.318a9.477,9.477,0,0,1-6.983-2.527.249.249,0,0,0-.447-.076,11.386,11.386,0,0,1-3.03,2.938,10.176,10.176,0,0,0,3.277,3.7,17.228,17.228,0,0,0,2.585,1.553,13.128,13.128,0,0,0,1.515.629c.473.161.983.263,1.449.454.632-2.116,1.275-4.228,1.875-6.354A.253.253,0,0,0-472.166,368.318Z" transform="translate(482.625 -365.437)" fill="#c1ff6e"/>
              <path id="Trazado_184560" data-name="Trazado 184560" d="M-460.936,373.543a10.175,10.175,0,0,0,2.176-3.531,20.35,20.35,0,0,0,.669-2.206,10.271,10.271,0,0,0,.206-1.058c-.308-.171-.618-.336-.932-.494a16.689,16.689,0,0,0-2.159-.889.3.3,0,0,0-.3.079,7.72,7.72,0,0,1-3.781,2.56c-.11.031-.513.131-.441.227.865,1.139,2.053,2.4,2.988,3.479l1.445,1.672C-461.028,373.426-460.984,373.483-460.936,373.543Z" transform="translate(476.913 -365.352)" fill="#c1ff6e"/>
            </g>
          </g>
        </g>
      </g>
      <g id="Grupo_122908" data-name="Grupo 122908" transform="translate(-346.211 216.738)">
        <path id="Trazado_184562" data-name="Trazado 184562" d="M-250.822,376.081s4.963,2.941,13.6,2.39,11.212-2.39,11.212-2.39,6.433,15.991,32.717,16.911,45.952-17.462,46.135-45.216-18.2-43.011-41.54-44.113-41.356,14.153-44.481,31.43a55.455,55.455,0,0,0,3.493,31.063,17.637,17.637,0,0,1-9.558,6.985A116.842,116.842,0,0,1-250.822,376.081Z" transform="translate(250.822 -303.605)" fill="#ccfff9"/>
        <g id="Grupo_122907" data-name="Grupo 122907" clip-path="url(#clip-path-4)">
          <g id="Grupo_122906" data-name="Grupo 122906" transform="translate(36.556 13.842)">
            <path id="Trazado_184563" data-name="Trazado 184563" d="M-178.63,345.78c-.559-.513-2.35-.462-2.609.364a.149.149,0,0,0,.068.167.63.63,0,0,0,.091.031,19.024,19.024,0,0,0-1.053,2.63,20.655,20.655,0,0,0-.574,3.126,13.476,13.476,0,0,0-.091,3.151,6.644,6.644,0,0,0,.7,2.791.118.118,0,0,0,.214-.09c-.015-.07-.037-.139-.056-.209,1.017-2.832,2-5.665,2.86-8.551.215-.72.457-1.438.647-2.165A1.18,1.18,0,0,0-178.63,345.78Z" transform="translate(191.584 -331.41)" fill="#303a4d"/>
            <path id="Trazado_184564" data-name="Trazado 184564" d="M-157.412,357.631c1.034.63,1.1,2.078.748,3.2a12.559,12.559,0,0,0-1.035,3.372,4.228,4.228,0,0,0,1.994,3.414,9.285,9.285,0,0,0,3.96,1.335,20.163,20.163,0,0,0,6.366-.131,7.869,7.869,0,0,0,3.915-1.647,3.347,3.347,0,0,0,1.016-3.777,7.985,7.985,0,0,0-1.615-1.886,2.616,2.616,0,0,1-.907-2.2,3.044,3.044,0,0,1,1.572-1.738c2.087-1.3,4.522-2.467,5.484-4.671,1.017-2.33-.017-5.061-1.635-7.052s-3.773-3.517-5.476-5.441a5.329,5.329,0,0,1-1.079-1.644,7.327,7.327,0,0,1,.2-3.95c.6-2.935.421-6.292-1.7-8.484a6.613,6.613,0,0,0-5.11-1.945,6.539,6.539,0,0,0-4.786,2.6,9.5,9.5,0,0,0-1.53,5.055,22.218,22.218,0,0,0,.475,6.2,15.043,15.043,0,0,1,.587,3.552c-.073,3.052-2.58,5.609-2.979,8.638-.32,2.425.746,4.8,1.786,7.028" transform="translate(183.625 -324.38)" fill="#12263f"/>
            <path id="Trazado_184565" data-name="Trazado 184565" d="M-174.694,382.685a25.132,25.132,0,0,1-.3,4.761,2.78,2.78,0,0,1-1.2,2.218,2.89,2.89,0,0,1-1.253.189l-4.351.006c-.483,2.1-.966,4.3-.44,6.4a7.049,7.049,0,0,0,6.007,5.16,11.723,11.723,0,0,0,6.093-1.5,16.541,16.541,0,0,0,2.755-1.61c2.769-2.08,4.35-5.411,5.165-8.777.068-.279.105-.633-.13-.8a.717.717,0,0,0-.47-.076c-1.66.125-3.354.646-4.954.188a.78.78,0,0,1-.36-.184.86.86,0,0,1-.157-.592l-.072-6.486a.934.934,0,0,0-.14-.589.882.882,0,0,0-.587-.25A7.312,7.312,0,0,0-174.245,382" transform="translate(191.454 -343.166)" fill="#ffa393"/>
            <g id="Grupo_122900" data-name="Grupo 122900" transform="translate(16.616 37.509)" style="mix-blend-mode: multiply;isolation: isolate">
              <path id="Trazado_184566" data-name="Trazado 184566" d="M-171.019,386.3a15.1,15.1,0,0,0,4.351-.36,10.141,10.141,0,0,0,2.171-.782l-.04-3.576a.933.933,0,0,0-.14-.588.882.882,0,0,0-.587-.25A7.312,7.312,0,0,0-170.426,382l-.45.684A25.04,25.04,0,0,1-171.019,386.3Z" transform="translate(171.019 -380.675)" fill="#e9dfdc"/>
            </g>
            <path id="Trazado_184567" data-name="Trazado 184567" d="M-178.9,344.326a43.689,43.689,0,0,0-3.084,11.886c-.54,3.615-.937,7.466.578,10.793a9.456,9.456,0,0,0,4.376,4.567,8.325,8.325,0,0,0,6.272.441,13.31,13.31,0,0,0,3.027-1.615,14.051,14.051,0,0,0,2.551-2.056,10.882,10.882,0,0,0,2.572-5.687,28.2,28.2,0,0,0,.123-6.318q-.3-4.747-.911-9.468a4.431,4.431,0,0,0-.6-2.007c-.8-1.141-2.4-1.284-3.8-1.319-3.66-.091-7.4-.173-10.894.911" transform="translate(191.457 -330.758)" fill="#ffa393"/>
            <path id="Trazado_184568" data-name="Trazado 184568" d="M-153.857,365.443a5.019,5.019,0,0,1,3.769-2.319,2.466,2.466,0,0,1,1.171.135,1.909,1.909,0,0,1,1.091,1.761,2.62,2.62,0,0,1-.947,1.91,4.23,4.23,0,0,1-1.98.893,4.055,4.055,0,0,1-1.98-.059,2.418,2.418,0,0,1-1.49-1.249" transform="translate(182.031 -337.304)" fill="#ffa393"/>
            <path id="Trazado_184569" data-name="Trazado 184569" d="M-156.343,395.861c-.337-2.659-1.287-5.484-3.939-6.639a5.119,5.119,0,0,0-3.783.033,32.091,32.091,0,0,0-4.54,2.115.306.306,0,0,0-.217.2c-1.56,4.252-4.822,8.293-9.149,9.916-2.107.79-5.477,1.06-6.383-1.576a7.578,7.578,0,0,1-.169-3.1,33.119,33.119,0,0,1,.618-4.083.209.209,0,0,0-.232-.251,3.246,3.246,0,0,0-3.868-1.868c-2.139.488-3.473,2.391-4.309,4.281-2.106,4.761-2.671,10.01-3.193,15.136-.154,1.51-.317,3.022-.392,4.538a14.062,14.062,0,0,0,.255,4.466.246.246,0,0,0,.374.136,9.363,9.363,0,0,0,3.024,1.758,30,30,0,0,0,4.157,1.344,66.8,66.8,0,0,0,8.529,1.472,35.1,35.1,0,0,0,8.759.077c1.461-.2,2.91-.468,4.369-.68a27.027,27.027,0,0,1,3.855-.218.383.383,0,0,0,.646.313,15.554,15.554,0,0,0,2.124-4.109c.608-1.428,1.153-2.882,1.618-4.363a48.416,48.416,0,0,0,1.912-9.277A41.253,41.253,0,0,0-156.343,395.861Z" transform="translate(195.957 -345.902)" fill="#d87808"/>
            <g id="Grupo_122901" data-name="Grupo 122901" transform="translate(20.099 24.907)">
              <path id="Trazado_184570" data-name="Trazado 184570" d="M-165.456,363.891a4.782,4.782,0,0,1,.835-1.065,1.27,1.27,0,0,1,.49-.237.819.819,0,0,1,.466-.006,1.392,1.392,0,0,1,.664.82,2.4,2.4,0,0,1,.147.6,1.237,1.237,0,0,0,.237.68.208.208,0,0,0,.319.041c.5-.416.252-1.186.032-1.692a2.057,2.057,0,0,0-1.187-1.22,1.6,1.6,0,0,0-1.548.45,3.185,3.185,0,0,0-.782,1.485.18.18,0,0,0,.328.139Z" transform="translate(165.791 -361.761)" fill="#253044"/>
            </g>
            <g id="Grupo_122902" data-name="Grupo 122902" transform="translate(12.03 23.598)">
              <path id="Trazado_184571" data-name="Trazado 184571" d="M-177.654,362.07c.119-.217.216-.438.326-.658a3.442,3.442,0,0,1,.345-.575,1,1,0,0,1,.959-.461c.358.088.49.516.571.828a3.5,3.5,0,0,1,.118.688c.007.123,0,.247,0,.37a.74.74,0,0,0,.071.507.379.379,0,0,0,.588.075.581.581,0,0,0,.145-.45c-.011-.141-.029-.281-.049-.42a5.766,5.766,0,0,0-.134-.672,2.58,2.58,0,0,0-.572-1.16,1.17,1.17,0,0,0-1.161-.3,1.705,1.705,0,0,0-.947.763,3.067,3.067,0,0,0-.508,1.4.134.134,0,0,0,.248.067Z" transform="translate(177.902 -359.797)" fill="#253044"/>
            </g>
            <g id="Grupo_122903" data-name="Grupo 122903" transform="translate(13.915 23.424)" style="mix-blend-mode: multiply;isolation: isolate">
              <path id="Trazado_184572" data-name="Trazado 184572" d="M-170.43,359.694a11.351,11.351,0,0,0-.374,1.806c-.079.614-.186,1.219-.3,1.828l-.175.945c-.059.32.023.769-.438.7a9.605,9.605,0,0,1-1.556-.54,1.7,1.7,0,0,0-1.363-.055.811.811,0,0,0-.388,1,2.976,2.976,0,0,0,1.013,1.061,10.4,10.4,0,0,0,1.385.994.264.264,0,0,0,.312-.04.253.253,0,0,0,.067-.114.264.264,0,0,0-.119-.291c-.443-.323-.893-.622-1.307-.983-.188-.164-.376-.33-.55-.51-.213-.221-.374-.57.069-.621a5.325,5.325,0,0,1,1.423.33,3.986,3.986,0,0,0,1.377.063c.317-.049.4-.285.48-.577.146-.542.207-1.12.306-1.672.1-.535.21-1.06.334-1.588a10.437,10.437,0,0,0,.245-1.675c.019-.261-.374-.3-.444-.061Z" transform="translate(175.074 -359.536)" fill="#d6c3bd"/>
            </g>
            <path id="Trazado_184573" data-name="Trazado 184573" d="M-166.3,372.464c-2.876,1.049-5.875,1.629-8.808,2.479-.075.022-.124.253-.059.313,1.505,1.381,3.81,2.83,5.931,2.5a2.617,2.617,0,0,0,2.048-1.66,14.918,14.918,0,0,0,1.039-3.485C-166.128,372.532-166.2,372.429-166.3,372.464Z" transform="translate(189.028 -340.423)" fill="#253044"/>
            <g id="Grupo_122904" data-name="Grupo 122904" transform="translate(22.015 20.53)">
              <path id="Trazado_184574" data-name="Trazado 184574" d="M-162.576,355.973a.42.42,0,0,1,.116.009l-.042-.007.055.009a1.575,1.575,0,0,1,.194.049l.082.028.055.021-.057-.024c.014.019.079.037.1.049l.075.042c.025.015.049.03.073.047s.119.087.04.026.02.019.034.03a1.679,1.679,0,0,0,.161.121c-.141-.089-.047-.036-.011-.005s.051.045.075.069a1.752,1.752,0,0,1,.136.154l-.091-.117a4.012,4.012,0,0,1,.281.476c.021.038.039.077.059.115.029.055-.054-.136-.015-.037.02.052.04.105.064.155a.779.779,0,0,0,.3.348l-.137-.137c.027.042.051.085.074.129a.287.287,0,0,0,.249.143.3.3,0,0,0,.249-.143,1.31,1.31,0,0,0,.1-.15l-.237.182c.273-.037.4-.4.4-.642a1.937,1.937,0,0,0-.075-.489,1.607,1.607,0,0,0-.31-.536,1.737,1.737,0,0,0-.275-.281,1.674,1.674,0,0,0-.518-.307,2.173,2.173,0,0,0-.466-.1,1.859,1.859,0,0,0-.828.1.348.348,0,0,0-.247.376.345.345,0,0,0,.338.3Z" transform="translate(162.917 -355.191)" fill="#253044"/>
            </g>
            <g id="Grupo_122905" data-name="Grupo 122905" transform="translate(12.519 19.986)">
              <path id="Trazado_184575" data-name="Trazado 184575" d="M-174.58,354.642a2.026,2.026,0,0,0-.593-.237,1.84,1.84,0,0,0-.8.035,1.718,1.718,0,0,0-.73.341,1.806,1.806,0,0,0-.2.2,1.281,1.281,0,0,0-.245.451.5.5,0,0,0,.131.5l.007.007-.125-.3a.472.472,0,0,0,.131.418.307.307,0,0,0,.3.031l.06-.026c.03-.013.031-.013,0,0s-.029.012,0,0l.041-.015-.326-.043.01.007a.5.5,0,0,0,.514,0,2.26,2.26,0,0,0,.217-.117,1.812,1.812,0,0,1,.205-.123c.077-.039.145-.088.219-.133.036-.022.073-.043.111-.062s.16-.073.058-.03.023-.007.05-.017.081-.027.122-.037c.081-.022.165-.035.245-.058.04-.011.079-.021.119-.029.023,0,.139-.024.058-.011s0,0,.021,0l.056,0c.046,0,.092,0,.138,0a.4.4,0,0,0,.384-.293.41.41,0,0,0-.183-.45Z" transform="translate(177.169 -354.375)" fill="#253044"/>
            </g>
            <path id="Trazado_184576" data-name="Trazado 184576" d="M-159.66,339.392a3.427,3.427,0,0,0-3.28-.225c-.793-2.019-1.764-4.274-3.872-5.164a5.057,5.057,0,0,0-6.049,2.141,14.8,14.8,0,0,0-1.725-2.081,19.376,19.376,0,0,0-3.018-2.643,7.529,7.529,0,0,0-3.661-1.566,7.588,7.588,0,0,0-3.7.661c-2.122.915-4.741,2.9-4.324,5.53a3.3,3.3,0,0,0,2.05,2.456,4.3,4.3,0,0,0,1.646.345,3.015,3.015,0,0,0-.828,1.31A2.348,2.348,0,0,0-185,343c2.469,1.207,5.412.566,7.748-.7a1.521,1.521,0,0,0,.494,1.153,4.823,4.823,0,0,0,3.225,1,12.491,12.491,0,0,0,5.693-1.423c0,.056.006.111.009.167q.056.9.173,1.792a27.445,27.445,0,0,0,.66,3.392,26.371,26.371,0,0,0,1.144,3.41,5.35,5.35,0,0,0,1.272,2.167.19.19,0,0,0,.121.1l.02.017a.149.149,0,0,0,.221-.111,43.886,43.886,0,0,0,3.485-5.191,19.438,19.438,0,0,0,2.551-5.715A3.414,3.414,0,0,0-159.66,339.392Z" transform="translate(193.746 -326.197)" fill="#12263f"/>
            <path id="Trazado_184577" data-name="Trazado 184577" d="M-166.229,377.194a4.418,4.418,0,0,0-.419,1.552c.09-.007.179-.013.268-.027a2.617,2.617,0,0,0,2.048-1.66,12.082,12.082,0,0,0,.632-1.732A3.435,3.435,0,0,0-166.229,377.194Z" transform="translate(186.177 -341.381)" fill="#f4624d"/>
          </g>
        </g>
      </g>
      <g id="Grupo_122912" data-name="Grupo 122912" transform="translate(-354.948 52.431)">
        <path id="Trazado_184579" data-name="Trazado 184579" d="M-221.7,74.99c-2.8-2.359-7.946-6.077-8.658-9.539-.412-2.008.722-5.42-.736-7.12-1.248-1.455-4.055-1.119-5.74-1.14-5.374-.069-10.681.231-16.058.061-3.752-.119-9.82-1.409-10.522,3.393a51.627,51.627,0,0,0,.015,14.718c.989,5.921,5.963,5.164,10.908,5.3,5.206.143,10.447.074,15.648-.2,5.263-.282,6.31-2.726,6.6-7.75q2.613,1.052,5.3,1.9C-224.612,74.716-221.052,75.537-221.7,74.99Z" transform="translate(263.935 -57.007)" fill="#8dd52c"/>
        <g id="Grupo_122909" data-name="Grupo 122909" transform="translate(5.636 6.07)">
          <path id="Trazado_184580" data-name="Trazado 184580" d="M-255.258,66.932a91.344,91.344,0,0,0,10.891.291l5.358.007a53.949,53.949,0,0,0,5.533-.025.5.5,0,0,0,0-1,52.416,52.416,0,0,0-5.376-.025l-5.514.007a91.344,91.344,0,0,0-10.891.291.227.227,0,0,0,0,.453Z" transform="translate(255.476 -66.118)" fill="#fff"/>
        </g>
        <g id="Grupo_122910" data-name="Grupo 122910" transform="translate(5.517 11.248)">
          <path id="Trazado_184581" data-name="Trazado 184581" d="M-255.409,74.868a29.261,29.261,0,0,0,5.455.316c1.842,0,3.685-.007,5.527-.01q2.684-.005,5.368-.021a25.63,25.63,0,0,0,5.616-.278.354.354,0,0,0,0-.678,24.8,24.8,0,0,0-5.457-.277q-2.763-.017-5.527-.022-2.683,0-5.368-.009a29.882,29.882,0,0,0-5.614.316.346.346,0,0,0,0,.662Z" transform="translate(255.655 -73.889)" fill="#fff"/>
        </g>
        <g id="Grupo_122911" data-name="Grupo 122911" transform="translate(5.48 16.394)">
          <path id="Trazado_184582" data-name="Trazado 184582" d="M-255.438,82.722a9.8,9.8,0,0,0,2.577.245l2.805.071c1.87.048,3.739.051,5.61.052l5.445,0c.94,0,1.868-.049,2.805-.109a12.123,12.123,0,0,0,2.723-.33.315.315,0,0,0,0-.6,11.408,11.408,0,0,0-2.558-.32c-.936-.06-1.866-.121-2.805-.12l-5.61,0c-1.816,0-3.63,0-5.445.048l-2.805.071a10.443,10.443,0,0,0-2.742.249.386.386,0,0,0,0,.738Z" transform="translate(255.711 -81.612)" fill="#fff"/>
        </g>
      </g>
      <g id="Grupo_122916" data-name="Grupo 122916" transform="translate(-444.92 271.82)">
        <path id="Trazado_184583" data-name="Trazado 184583" d="M-398.895,391.6c2.6,2.185,7.361,5.63,8.021,8.837.383,1.86-.668,5.022.682,6.6,1.157,1.348,3.757,1.036,5.318,1.056,4.978.064,9.9-.215,14.876-.057,3.477.11,9.1,1.3,9.749-3.144a47.818,47.818,0,0,0-.015-13.635c-.915-5.486-5.524-4.785-10.105-4.91-4.823-.132-9.679-.068-14.5.19-4.876.261-5.847,2.525-6.114,7.18-1.613-.65-3.251-1.241-4.91-1.763C-396.2,391.85-399.5,391.089-398.895,391.6Z" transform="translate(398.968 -386.274)" fill="#ff8900"/>
        <g id="Grupo_122913" data-name="Grupo 122913" transform="translate(13.116 15.231)">
          <path id="Trazado_184584" data-name="Trazado 184584" d="M-358.623,409.489a78.537,78.537,0,0,0-10.09-.291l-5.031-.007a49.263,49.263,0,0,0-5.059.025.5.5,0,0,0,0,1,47.735,47.735,0,0,0,4.9.025l5.186-.007a78.526,78.526,0,0,0,10.09-.291.227.227,0,0,0,0-.453Z" transform="translate(379.283 -409.133)" fill="#fff"/>
        </g>
        <g id="Grupo_122914" data-name="Grupo 122914" transform="translate(13.253 10.311)">
          <path id="Trazado_184585" data-name="Trazado 184585" d="M-358.463,402.068a25.024,25.024,0,0,0-4.969-.316c-1.737-.007-3.475.007-5.212.01q-2.526,0-5.053.021a21.6,21.6,0,0,0-5.13.278.354.354,0,0,0,0,.678,20.9,20.9,0,0,0,4.971.276q2.606.018,5.212.023c1.684,0,3.369.01,5.053.01a25.372,25.372,0,0,0,5.128-.316.346.346,0,0,0,0-.662Z" transform="translate(379.077 -401.749)" fill="#fff"/>
        </g>
        <g id="Grupo_122915" data-name="Grupo 122915" transform="translate(13.292 5.366)">
          <path id="Trazado_184586" data-name="Trazado 184586" d="M-358.433,394.7a8.48,8.48,0,0,0-2.417-.245l-2.646-.073c-1.71-.047-3.417-.048-5.128-.049l-5.127,0c-.886,0-1.762.057-2.646.119a9.942,9.942,0,0,0-2.4.321.315.315,0,0,0,0,.6,9.912,9.912,0,0,0,2.4.322c.884.061,1.76.119,2.646.119l5.127,0c1.71,0,3.418,0,5.128-.049l2.646-.073a8.48,8.48,0,0,0,2.417-.245.386.386,0,0,0,0-.738Z" transform="translate(379.018 -394.328)" fill="#fff"/>
        </g>
      </g>
    </g>
  </g>
</svg>
