<svg xmlns="http://www.w3.org/2000/svg" width="95.854" height="95.882" viewBox="0 0 95.854 95.882">
  <g id="Grupo_128797" data-name="Grupo 128797" transform="translate(-1875.61 -1289.574)">
    <path id="Trazado_187831" data-name="Trazado 187831" d="M1950.681,1385.456c-.512-.408-1.162-.315-1.743-.471-7.18-1.926-11.767-6.465-13.7-13.64-.2-.739-.39-.767-1.022-.5a40.406,40.406,0,0,1-19.46,3.141,41.551,41.551,0,0,1-31.612-18.07,40.707,40.707,0,0,1-7.517-25.341,41.454,41.454,0,0,1,4.988-18.686c.559-1.04.975-1.213,2.118-.9.875.818.908,1.167.243,2.451A39.49,39.49,0,0,0,1892,1361.6c.545.486,1.133.924,1.747,1.421.287-1.042.514-1.974.8-2.885a16.091,16.091,0,0,1,1.174-2.743c.6-1.12,1.073-1.307,2.271-.906a1.642,1.642,0,0,1,.254,2.194,15,15,0,0,0-1.745,5.671.8.8,0,0,0,.418.9,40.47,40.47,0,0,0,12.724,5.179c.493.11.7.021.791-.544.651-4.057,1.365-8.1,2.011-12.16a9.6,9.6,0,0,0,.376-3.229c-.222-1.223-.578-2.421-.809-3.643-.106-.559-.344-.679-.875-.636a15.672,15.672,0,0,0-9.227,3.849,1.655,1.655,0,0,1-2.192.276c-.7-1.078-.629-1.569.341-2.408a19.251,19.251,0,0,1,3.379-2.333,20.991,20.991,0,0,1,5.467-1.961,2.114,2.114,0,0,0-.243-.265,15.272,15.272,0,0,1-5.575-7.1c-.167-.441-.455-.481-.852-.526a6.1,6.1,0,0,1-1.047-11.916c.353-.107.851-.011.816-.656-.032-.583.033-1.057-.7-1.4a18.628,18.628,0,0,1-6.411-5.345,1.327,1.327,0,0,1,.147-1.995,1.987,1.987,0,0,1,1.324-.356,6.905,6.905,0,0,0,3.634-.868,6.971,6.971,0,0,1-4.01-5.105c-.444-1.995.08-2.645,2.1-2.457a12.24,12.24,0,0,0,7.607-1.741c1.685-1,3.348-2.048,5.129-2.886,5.384-2.536,10.557-2.343,15.433,1.23a4.642,4.642,0,0,0,2.447.947,7.731,7.731,0,0,1,7.223,6.383c.831,4.22.221,8.188-2.61,11.625-.539.655-.233,1.444-.233,2.164,0,.565.628.4.967.522a6.1,6.1,0,0,1,4.138,6.308,6.043,6.043,0,0,1-5.323,5.528,1.012,1.012,0,0,0-.99.75,14.528,14.528,0,0,1-3.589,5.3c-.666.627-1.386,1.2-2.106,1.815a1.529,1.529,0,0,0,.3.151,18.65,18.65,0,0,1,11.639,7.707c.495.7.646.174.906-.125a18.113,18.113,0,0,1,13.656-6.535,1.293,1.293,0,0,0,1.351-.937,38.587,38.587,0,0,0-.029-32.025,39.25,39.25,0,0,0-41.79-22.985,38.706,38.706,0,0,0-25.7,15.091,1.9,1.9,0,0,1-2.074.886c-1.018-1.014-1.058-1.478-.15-2.635a41.681,41.681,0,0,1,27.579-16.167,42.245,42.245,0,0,1,47.548,33.541,41.026,41.026,0,0,1-2.524,24.718c-.272.64-.241.85.49,1.026a18.308,18.308,0,0,1,13.88,15.089c.027.166-.062.389.2.461v4.681c-.357.286-.271.725-.344,1.093a18.233,18.233,0,0,1-3.572,7.791c-.837,1.069-1.333,1.152-2.54.465a1.836,1.836,0,0,1,.309-2.219,14.95,14.95,0,0,0,3.045-12.4,15.538,15.538,0,1,0-7.671,16.351,1.812,1.812,0,0,1,2.311.054c.478,1.227.309,1.718-.817,2.362a21.574,21.574,0,0,1-3.475,1.533c-1.155.414-2.393.447-3.535.88Zm-34.7-63.661a2.345,2.345,0,0,0-.31.181,18.369,18.369,0,0,1-10.291,4.465c-.544.061-.569.3-.566.712q.016,2.761,0,5.523a20.422,20.422,0,0,0,.388,5.115,12.732,12.732,0,0,0,13.5,9.484,12.58,12.58,0,0,0,11.4-11.164c.339-3.326.063-6.672.139-10.009a.88.88,0,0,0-.457-.753,15.535,15.535,0,0,1-3.046-3.281c-.395-.554-.571-.665-1.111-.1a12.794,12.794,0,0,1-7.467,3.742c-1.306.211-2-.488-1.828-1.755A4.232,4.232,0,0,0,1915.98,1321.795Zm-16.832-1.116c2.336,2.6,5.012,3.567,8.423,2.464a16.906,16.906,0,0,0,7.328-4.45c1-1.056,1.933-.95,2.769.237a7.4,7.4,0,0,1,1.365,2.941c.122.7.39.614.854.433a9.616,9.616,0,0,0,4.888-3.877c.9-1.455,2.031-1.448,2.954.007a24.145,24.145,0,0,0,3.151,4.049c.488.5.717.366,1.019-.149a11.553,11.553,0,0,0,1.453-6.739c-.255-4.2-2.967-5.671-6.182-5.59a2.359,2.359,0,0,1-1.672-.682,11.217,11.217,0,0,0-11.812-2.342,31.752,31.752,0,0,0-5.717,2.943,17.191,17.191,0,0,1-6,2.474c-.891.149-1.8.206-2.751.31a3.728,3.728,0,0,0,3.5,2.119,1.624,1.624,0,0,1,1.644.838,1.716,1.716,0,0,1-.373,1.9A8.958,8.958,0,0,1,1899.148,1320.679Zm24.9,29.544c-.865-.023-.868-.023-1.049.782-.225,1-.418,2.011-.675,3a4.133,4.133,0,0,0-.07,1.755c.8,4.757,1.609,9.513,2.384,14.274.086.533.234.676.766.567a42.713,42.713,0,0,0,8.7-2.757.906.906,0,0,0,.649-.966,17.278,17.278,0,0,1,1.824-7.743.875.875,0,0,0-.031-.945A16.062,16.062,0,0,0,1924.047,1350.223Zm-6.177,20.963c1.059,0,2.118-.019,3.176.007.719.018.895-.273.776-.965q-1.139-6.67-2.217-13.352c-.075-.465-.246-.637-.716-.622-.9.029-1.808.038-2.71,0-.536-.024-.679.194-.736.689-.1.895-.3,1.779-.446,2.669-.581,3.5-1.146,7-1.75,10.5-.123.711.052.954.8,1.018A31.111,31.111,0,0,0,1917.87,1371.186Zm-3.05-20.938c.122.564.219,1.018.318,1.471.373,1.693.373,1.693,2.083,1.693,2.313,0,2.313,0,2.819-2.282.02-.091.049-.18.071-.27.1-.423-.013-.626-.5-.62C1918.062,1350.261,1916.51,1350.248,1914.82,1350.248Zm-12.848-19.628a3.184,3.184,0,0,0-2.3,3.306,2.974,2.974,0,0,0,2.43,2.812C1901.886,1334.718,1902.054,1332.7,1901.973,1330.62Zm30.945,6.174a3.124,3.124,0,0,0,2.452-3.209,2.977,2.977,0,0,0-2.278-2.9C1933,1332.7,1933.192,1334.719,1932.918,1336.794Z" fill="#030303"/>
    <path id="Trazado_187832" data-name="Trazado 187832" d="M1906.451,1365.031c-1.2-.4-1.668-.214-2.271.906a16.1,16.1,0,0,0-1.174,2.744c-.291.911-.517,1.844-.8,2.885-.614-.5-1.2-.934-1.747-1.421a39.49,39.49,0,0,1-9.023-48.162c.665-1.284.632-1.633-.243-2.451.8-.535.922-1.612,1.709-2.16a1.9,1.9,0,0,0,2.074-.886,38.706,38.706,0,0,1,25.7-15.091,39.25,39.25,0,0,1,41.79,22.985,38.587,38.587,0,0,1,.029,32.025,1.293,1.293,0,0,1-1.351.937,18.115,18.115,0,0,0-13.656,6.535c-.26.3-.411.828-.905.126a18.65,18.65,0,0,0-11.639-7.706,1.53,1.53,0,0,1-.3-.151c.72-.617,1.44-1.188,2.106-1.815a14.534,14.534,0,0,0,3.589-5.3,1.012,1.012,0,0,1,.99-.75,6.043,6.043,0,0,0,5.323-5.528,6.1,6.1,0,0,0-4.138-6.307c-.339-.118-.967.042-.967-.523,0-.721-.306-1.51.233-2.164,2.831-3.437,3.442-7.4,2.611-11.625a7.731,7.731,0,0,0-7.223-6.383,4.641,4.641,0,0,1-2.447-.947c-4.876-3.573-10.05-3.766-15.433-1.23-1.781.839-3.444,1.882-5.129,2.886a12.24,12.24,0,0,1-7.607,1.741c-2.024-.189-2.548.462-2.1,2.457a6.971,6.971,0,0,0,4.01,5.106,6.906,6.906,0,0,1-3.634.868,1.988,1.988,0,0,0-1.324.356,1.327,1.327,0,0,0-.147,1.995,18.624,18.624,0,0,0,6.411,5.345c.735.341.671.815.7,1.4.035.645-.463.548-.816.656a6.1,6.1,0,0,0,1.047,11.916c.4.045.685.085.852.526a15.273,15.273,0,0,0,5.575,7.1,2.1,2.1,0,0,1,.243.265,21,21,0,0,0-5.467,1.961,19.254,19.254,0,0,0-3.379,2.333c-.97.84-1.036,1.331-.341,2.409A8.885,8.885,0,0,0,1906.451,1365.031Z" transform="translate(-8.453 -8.544)" fill="#a9f73f"/>
    <path id="Trazado_187833" data-name="Trazado 187833" d="M2150.533,1564.824a8.249,8.249,0,0,1-2.006,1.79,1.812,1.812,0,0,0-2.311-.054,15.5,15.5,0,1,1,7.671-16.351,14.95,14.95,0,0,1-3.045,12.4A1.836,1.836,0,0,0,2150.533,1564.824Zm-12.109-22.476a2.809,2.809,0,0,0-2.625,1.972c-.718,2.095-1.943,3.368-4.3,3.178a1.585,1.585,0,0,0-.273.057,2.891,2.891,0,0,0-2.626,2.069,2.73,2.73,0,0,0,.984,3.266c2,1.389,2.439,3.119,1.7,5.363a2.7,2.7,0,0,0,1.06,3.072,2.909,2.909,0,0,0,3.333.268c.777-.4,1.557-.789,2.309-1.227a1.163,1.163,0,0,1,1.3.01c.838.478,1.695.927,2.568,1.334a2.765,2.765,0,0,0,2.995-.347,2.851,2.851,0,0,0,1.17-2.872c-.135-.861-.269-1.724-.444-2.578a1.309,1.309,0,0,1,.453-1.4c.681-.591,1.313-1.243,1.939-1.895a2.844,2.844,0,0,0,.688-2.945,2.8,2.8,0,0,0-2.314-2.061c-.919-.167-1.847-.288-2.774-.4a1.165,1.165,0,0,1-1.051-.761c-.367-.857-.8-1.688-1.249-2.507A3,3,0,0,0,2138.424,1542.348Z" transform="translate(-185.525 -185.934)" fill="#ff8900"/>
    <path id="Trazado_187834" data-name="Trazado 187834" d="M2003.485,1417.748a4.228,4.228,0,0,1,.357,2.163c-.168,1.267.522,1.967,1.828,1.755a12.8,12.8,0,0,0,7.467-3.742c.54-.567.716-.456,1.111.1a15.534,15.534,0,0,0,3.046,3.281.881.881,0,0,1,.457.753c-.075,3.336.2,6.683-.139,10.009a12.579,12.579,0,0,1-11.4,11.164,12.733,12.733,0,0,1-13.5-9.485,20.421,20.421,0,0,1-.388-5.115q.013-2.761,0-5.523c0-.412.022-.651.566-.712a18.37,18.37,0,0,0,10.291-4.465A2.375,2.375,0,0,1,2003.485,1417.748Zm2.136,19a5.761,5.761,0,0,0,4.907-2.486c.643-.927.558-1.8-.2-2.287-.724-.471-1.492-.225-2.1.674-1.17,1.716-4.515,1.719-5.706.006-.64-.921-1.371-1.157-2.1-.679-.756.494-.852,1.361-.2,2.288A6.06,6.06,0,0,0,2005.621,1436.745Zm-6.013-10.22h0c0-.529.03-1.061-.007-1.587a1.4,1.4,0,0,0-1.462-1.38,1.371,1.371,0,0,0-1.332,1.4c-.031,1.026-.027,2.055,0,3.082a1.409,1.409,0,0,0,1.358,1.484,1.436,1.436,0,0,0,1.447-1.505C1999.627,1427.522,1999.608,1427.023,1999.608,1426.525Zm13.669.057c0-.53.024-1.06-.005-1.588a1.409,1.409,0,0,0-1.406-1.438,1.386,1.386,0,0,0-1.392,1.439q-.041,1.54,0,3.082a1.4,1.4,0,0,0,1.394,1.449,1.432,1.432,0,0,0,1.406-1.451C2013.3,1427.58,2013.278,1427.08,2013.277,1426.582Z" transform="translate(-87.505 -95.954)" fill="#fcc69d"/>
    <path id="Trazado_187835" data-name="Trazado 187835" d="M1969.678,1370.562a8.959,8.959,0,0,0,4.834-3.119,1.715,1.715,0,0,0,.373-1.9,1.624,1.624,0,0,0-1.644-.838,3.729,3.729,0,0,1-3.5-2.119c.954-.1,1.86-.161,2.751-.31a17.187,17.187,0,0,0,6-2.473,31.761,31.761,0,0,1,5.717-2.943,11.216,11.216,0,0,1,11.812,2.342,2.359,2.359,0,0,0,1.672.682c3.215-.081,5.927,1.386,6.182,5.59a11.551,11.551,0,0,1-1.453,6.739c-.3.515-.531.645-1.019.149a24.157,24.157,0,0,1-3.151-4.049c-.923-1.455-2.05-1.462-2.954-.007a9.616,9.616,0,0,1-4.888,3.877c-.463.182-.732.27-.854-.432a7.4,7.4,0,0,0-1.365-2.941c-.836-1.187-1.772-1.293-2.769-.237a16.907,16.907,0,0,1-7.328,4.45C1974.69,1374.13,1972.014,1373.167,1969.678,1370.562Z" transform="translate(-70.53 -49.884)" fill="#b26001"/>
    <path id="Trazado_187836" data-name="Trazado 187836" d="M1960.578,1538.2a8.885,8.885,0,0,1,1.726-2.137,1.656,1.656,0,0,0,2.192-.277,15.672,15.672,0,0,1,9.227-3.849c.531-.042.769.078.875.637.231,1.222.587,2.42.809,3.643a9.61,9.61,0,0,1-.375,3.229c-.646,4.057-1.36,8.1-2.011,12.16-.091.565-.3.654-.792.544a40.465,40.465,0,0,1-12.724-5.179.8.8,0,0,1-.418-.9,15,15,0,0,1,1.745-5.671A1.643,1.643,0,0,0,1960.578,1538.2Z" transform="translate(-62.58 -181.714)" fill="#45c6e5"/>
    <path id="Trazado_187837" data-name="Trazado 187837" d="M2063.627,1531.938a16.064,16.064,0,0,1,12.493,7.97.875.875,0,0,1,.031.945,17.278,17.278,0,0,0-1.824,7.743.907.907,0,0,1-.649.966,42.717,42.717,0,0,1-8.7,2.757c-.532.109-.679-.034-.766-.567-.774-4.761-1.583-9.517-2.383-14.274a4.129,4.129,0,0,1,.07-1.755c.256-.993.45-2,.675-3C2062.758,1531.915,2062.762,1531.916,2063.627,1531.938Z" transform="translate(-139.579 -181.715)" fill="#45c6e5"/>
    <path id="Trazado_187838" data-name="Trazado 187838" d="M2030.541,1570.979a31.109,31.109,0,0,1-3.827-.062c-.745-.065-.919-.307-.8-1.018.6-3.495,1.169-7,1.75-10.5.148-.89.342-1.774.446-2.669.058-.495.2-.713.736-.689.9.04,1.808.031,2.71,0,.47-.015.641.157.716.622q1.083,6.68,2.217,13.352c.118.692-.057.983-.777.965C2032.659,1570.959,2031.6,1570.979,2030.541,1570.979Z" transform="translate(-112.671 -199.792)" fill="#ff8900"/>
    <path id="Trazado_187839" data-name="Trazado 187839" d="M2032.313,1532.033c1.689,0,3.241.013,4.793-.008.486-.006.6.2.5.62-.022.09-.051.179-.071.27-.507,2.282-.506,2.282-2.819,2.282-1.71,0-1.71,0-2.083-1.693C2032.532,1533.051,2032.435,1532.6,2032.313,1532.033Z" transform="translate(-117.493 -181.785)" fill="#ff8900"/>
    <path id="Trazado_187840" data-name="Trazado 187840" d="M1974.039,1453.615c.082,2.079-.087,4.1.133,6.119a2.975,2.975,0,0,1-2.43-2.812A3.184,3.184,0,0,1,1974.039,1453.615Z" transform="translate(-72.067 -122.995)" fill="#fcc69d"/>
    <path id="Trazado_187841" data-name="Trazado 187841" d="M2104.639,1459.971c.274-2.075.083-4.1.174-6.113a2.976,2.976,0,0,1,2.278,2.9A3.123,3.123,0,0,1,2104.639,1459.971Z" transform="translate(-171.721 -123.177)" fill="#fcc69d"/>
    <path id="Trazado_187842" data-name="Trazado 187842" d="M2154.511,1556.7a3,3,0,0,1,2.842,1.591c.448.818.881,1.65,1.248,2.507a1.166,1.166,0,0,0,1.051.761c.927.117,1.855.237,2.774.4a2.806,2.806,0,0,1,2.314,2.061,2.844,2.844,0,0,1-.688,2.945c-.627.652-1.258,1.3-1.94,1.895a1.309,1.309,0,0,0-.453,1.4c.175.854.309,1.716.444,2.578a2.85,2.85,0,0,1-1.17,2.873,2.765,2.765,0,0,1-2.995.347c-.874-.408-1.731-.856-2.568-1.334a1.163,1.163,0,0,0-1.3-.01c-.752.439-1.532.831-2.309,1.227a2.908,2.908,0,0,1-3.333-.268,2.7,2.7,0,0,1-1.061-3.072c.74-2.244.3-3.974-1.7-5.363a2.731,2.731,0,0,1-.984-3.266,2.891,2.891,0,0,1,2.626-2.069,1.6,1.6,0,0,1,.274-.057c2.36.19,3.586-1.083,4.3-3.178A2.809,2.809,0,0,1,2154.511,1556.7Zm.223,14.9a3.418,3.418,0,0,1,1.515.407c.818.446,1.65.867,2.473,1.3.454.241.618.148.523-.386-.165-.918-.27-1.847-.447-2.763a3.058,3.058,0,0,1,.985-2.953c.651-.626,1.288-1.267,1.948-1.884.425-.4.353-.6-.206-.677-.924-.133-1.845-.288-2.771-.4a3.1,3.1,0,0,1-2.51-1.849c-.374-.75-.741-1.5-1.118-2.254-.107-.213-.131-.549-.4-.57-.3-.023-.315.33-.421.536-.411.8-.807,1.609-1.213,2.413a2.986,2.986,0,0,1-2.394,1.717q-1.342.18-2.679.391c-.207.032-.487,0-.58.22-.106.247.163.372.309.518.64.637,1.282,1.274,1.935,1.9a2.991,2.991,0,0,1,.953,2.7c-.074.555-.163,1.108-.242,1.662-.085.594-.521,1.431-.112,1.715.387.268,1.054-.422,1.607-.671C2152.814,1572.255,2153.634,1571.554,2154.734,1571.6Z" transform="translate(-201.612 -200.283)" fill="#030303"/>
    <path id="Trazado_187843" data-name="Trazado 187843" d="M2027.994,1479.24a6.06,6.06,0,0,1-5.4-2.484c-.652-.926-.555-1.794.2-2.288.732-.478,1.463-.242,2.1.679,1.191,1.713,4.536,1.71,5.706-.006.613-.9,1.381-1.145,2.1-.674.754.49.839,1.361.2,2.287A5.761,5.761,0,0,1,2027.994,1479.24Z" transform="translate(-109.878 -138.449)" fill="#030303"/>
    <path id="Trazado_187844" data-name="Trazado 187844" d="M2012.984,1444.525c0,.5.019,1,0,1.494a1.436,1.436,0,0,1-1.447,1.505,1.409,1.409,0,0,1-1.358-1.484c-.023-1.027-.027-2.056,0-3.082a1.371,1.371,0,0,1,1.332-1.4,1.4,1.4,0,0,1,1.462,1.38c.037.527.007,1.058.007,1.587Z" transform="translate(-100.881 -113.953)" fill="#030303"/>
    <path id="Trazado_187845" data-name="Trazado 187845" d="M2067.619,1444.58c0,.5.023,1,0,1.494a1.432,1.432,0,0,1-1.406,1.451,1.4,1.4,0,0,1-1.394-1.449q-.041-1.54,0-3.082a1.387,1.387,0,0,1,1.392-1.439,1.409,1.409,0,0,1,1.406,1.438C2067.642,1443.52,2067.619,1444.05,2067.619,1444.58Z" transform="translate(-141.847 -113.952)" fill="#030303"/>
    <path id="Trazado_187846" data-name="Trazado 187846" d="M2163.446,1580.213c-1.1-.046-1.92.655-2.846,1.071-.553.249-1.22.939-1.607.671-.409-.283.027-1.121.112-1.714.079-.554.167-1.107.242-1.662a2.991,2.991,0,0,0-.953-2.7c-.654-.623-1.3-1.26-1.936-1.9-.146-.145-.416-.271-.309-.518.093-.215.373-.188.579-.22q1.337-.209,2.679-.391a2.986,2.986,0,0,0,2.394-1.717c.406-.8.8-1.612,1.213-2.413.106-.206.117-.559.421-.536.272.021.3.357.4.57.376.749.743,1.5,1.117,2.254a3.1,3.1,0,0,0,2.51,1.849c.926.114,1.847.269,2.771.4.56.08.631.281.206.677-.66.616-1.3,1.258-1.948,1.884a3.057,3.057,0,0,0-.985,2.953c.177.916.281,1.845.446,2.763.1.535-.068.627-.522.386-.823-.437-1.655-.858-2.473-1.3A3.413,3.413,0,0,0,2163.446,1580.213Z" transform="translate(-210.324 -208.897)" fill="#89fff2"/>
  </g>
</svg>
