<svg xmlns="http://www.w3.org/2000/svg" xmlns:xlink="http://www.w3.org/1999/xlink" width="640" height="318.5" viewBox="0 0 640 318.5">
  <defs>
    <filter id="Rectángulo_37344" x="0" y="0" width="640" height="318.5" filterUnits="userSpaceOnUse">
      <feOffset input="SourceAlpha"/>
      <feGaussianBlur stdDeviation="5" result="blur"/>
      <feFlood flood-opacity="0.161"/>
      <feComposite operator="in" in2="blur"/>
      <feComposite in="SourceGraphic"/>
    </filter>
    <clipPath id="clip-path">
      <path id="Rectángulo_37265" data-name="Rectángulo 37265" d="M80,0H610a0,0,0,0,1,0,0V208.5a80,80,0,0,1-80,80H0a0,0,0,0,1,0,0V80A80,80,0,0,1,80,0Z" transform="translate(705 380.674)" fill="#a3edff" opacity="0.252"/>
    </clipPath>
    <clipPath id="clip-path-2">
      <path id="Trazado_183256" data-name="Trazado 183256" d="M197.316,370.885c1.734,8.742,3.053,17.541,4.4,26.337,1.3,8.8,2.444,17.627,3.516,26.462s2.021,17.688,2.911,26.548l1.265,13.3,1.145,13.318.177,2.057a5.847,5.847,0,0,1,.015.672l-.886,21.437-1.008,21.436q-1.078,21.436-2.4,42.873c-.9,14.29-1.88,28.581-3.011,42.872-1.182,14.291-2.335,28.582-3.906,42.873a8.352,8.352,0,0,1-16.6,0c-1.571-14.291-2.724-28.582-3.906-42.873q-1.695-21.436-3.011-42.872-1.351-21.436-2.4-42.873l-1.008-21.436-.886-21.437.191,2.729L169.328,469.2l-2.468-13.131c-1.6-8.761-3.139-17.529-4.557-26.315s-2.76-17.583-3.951-26.4c-1.14-8.825-2.31-17.646-3.066-26.525a21.256,21.256,0,0,1,42.03-5.938Z" transform="translate(-155.208 -353.763)" fill="none"/>
    </clipPath>
    <clipPath id="clip-path-3">
      <path id="Trazado_183257" data-name="Trazado 183257" d="M130.408,376.086c1.674,8.449,2.977,16.956,4.306,25.46,1.23,8.518,2.455,17.038,3.513,25.583,1.08,8.542,2.052,17.1,2.97,25.668l1.315,12.861,1.208,12.878.209,2.232a9.81,9.81,0,0,1,0,1.713l-1.964,21.278-2.073,21.274q-2.137,21.269-4.491,42.529c-1.564,14.173-3.3,28.339-5.039,42.5-1.839,14.16-3.653,28.321-5.841,42.464a8.349,8.349,0,0,1-16.585-.8c-.819-14.289-1.264-28.558-1.735-42.829-.37-14.267-.736-28.532-.932-42.79q-.33-21.388-.384-42.765l-.021-21.374.089-21.369.211,3.945-2.772-12.633-2.664-12.65c-1.735-8.44-3.415-16.888-4.988-25.354-1.6-8.462-3.021-16.95-4.445-25.438-1.323-8.5-2.673-17-3.651-25.562a22.165,22.165,0,0,1,43.763-6.825Z" transform="translate(-86.499 -358.227)" fill="none"/>
    </clipPath>
  </defs>
  <g id="Grupo_128809" data-name="Grupo 128809" transform="translate(-690 -365.674)">
    <g transform="matrix(1, 0, 0, 1, 690, 365.67)" filter="url(#Rectángulo_37344)">
      <path id="Rectángulo_37344-2" data-name="Rectángulo 37344" d="M80,0H610a0,0,0,0,1,0,0V208.5a80,80,0,0,1-80,80H0a0,0,0,0,1,0,0V80A80,80,0,0,1,80,0Z" transform="translate(15 15)" fill="#a3edff" opacity="0.252"/>
    </g>
    <path id="Trazado_182773" data-name="Trazado 182773" d="M4.439,62.405h0a15.163,15.163,0,0,1,0-21.44L40.966,4.439a15.163,15.163,0,0,1,21.44,0h0a15.163,15.163,0,0,1,0,21.44L25.879,62.405A15.163,15.163,0,0,1,4.439,62.405Z" transform="translate(714.303 368.674) rotate(8)" fill="#a9f73f"/>
    <g id="Enmascarar_grupo_116" data-name="Enmascarar grupo 116" clip-path="url(#clip-path)">
      <path id="Trazado_183237" data-name="Trazado 183237" d="M297.869,247.649c12.923-11.18,27.78-22.64,31.231-39.377,3.9-18.9-8.245-37.069-20.331-52.109s-25.5-31.6-24.658-50.88c.744-17.04,12.763-33.882,7.006-49.936-5.065-14.13-22.249-20.431-37.2-19.116s-28.75,8.22-43.1,12.635-31.012,6.028-43.45-2.375c-7.458-5.039-12.365-13.013-18.963-19.137-14.242-13.22-36.287-16.628-54.488-9.826S61.687,40.483,55.843,59.015,51.963,98.1,59.6,115.969c4.3,10.066,10.457,19.876,10.552,30.823.231,26.7-34.671,44.187-33.444,70.856.79,17.177,16.353,29.511,30.851,38.754s30.744,19.686,34.417,36.485c2.448,11.192-1.4,22.692-5.129,33.527s-7.419,22.428-4.669,33.551S106.9,380.7,117.6,376.608l187.263-3.6c10.284-4.388,13.067-18.528,8.973-28.933s-12.953-18.031-21.1-25.69-16.261-16.5-18.009-27.546C272.057,273.963,284.945,258.829,297.869,247.649Z" transform="translate(726.73 391.223)" fill="#a3edff"/>
      <g id="Grupo_121213" data-name="Grupo 121213" transform="translate(778.656 405.336)">
        <g id="Grupo_121196" data-name="Grupo 121196" transform="translate(42.189 230.853)">
          <path id="Trazado_183238" data-name="Trazado 183238" d="M130.408,376.086c1.674,8.449,2.977,16.956,4.306,25.46,1.23,8.518,2.455,17.038,3.513,25.583,1.08,8.542,2.052,17.1,2.97,25.668l1.315,12.861,1.208,12.878.209,2.232a9.81,9.81,0,0,1,0,1.713l-1.964,21.278-2.073,21.274q-2.137,21.269-4.491,42.529c-1.564,14.173-3.3,28.339-5.039,42.5-1.839,14.16-3.653,28.321-5.841,42.464a8.349,8.349,0,0,1-16.585-.8c-.819-14.289-1.264-28.558-1.735-42.829-.37-14.267-.736-28.532-.932-42.79q-.33-21.388-.384-42.765l-.021-21.374.089-21.369.211,3.945-2.772-12.633-2.664-12.65c-1.735-8.44-3.415-16.888-4.988-25.354-1.6-8.462-3.021-16.95-4.445-25.438-1.323-8.5-2.673-17-3.651-25.562a22.165,22.165,0,0,1,43.763-6.825Z" transform="translate(-86.499 -358.227)" fill="#b2504d"/>
        </g>
        <g id="Grupo_121197" data-name="Grupo 121197" transform="translate(94.6 227.448)">
          <path id="Trazado_183239" data-name="Trazado 183239" d="M197.316,370.885c1.734,8.742,3.053,17.541,4.4,26.337,1.3,8.8,2.444,17.627,3.516,26.462s2.021,17.688,2.911,26.548l1.265,13.3,1.145,13.318.177,2.057a5.847,5.847,0,0,1,.015.672l-.886,21.437-1.008,21.436q-1.078,21.436-2.4,42.873c-.9,14.29-1.88,28.581-3.011,42.872-1.182,14.291-2.335,28.582-3.906,42.873a8.352,8.352,0,0,1-16.6,0c-1.571-14.291-2.724-28.582-3.906-42.873q-1.695-21.436-3.011-42.872-1.351-21.436-2.4-42.873l-1.008-21.436-.886-21.437.191,2.729L169.328,469.2l-2.468-13.131c-1.6-8.761-3.139-17.529-4.557-26.315s-2.76-17.583-3.951-26.4c-1.14-8.825-2.31-17.646-3.066-26.525a21.256,21.256,0,0,1,42.03-5.938Z" transform="translate(-155.208 -353.763)" fill="#b2504d"/>
        </g>
        <path id="Trazado_183240" data-name="Trazado 183240" d="M91.834,426.032l45.279-.73,1.2,8.777-45.828-4.12Z" transform="translate(-45.576 -143.284)" fill="#b23632"/>
        <path id="Trazado_183241" data-name="Trazado 183241" d="M160.244,425.089l44.107-.955,1.166,8.821-44.843-4.818Z" transform="translate(-61.803 -143.007)" fill="#b23632"/>
        <path id="Trazado_183242" data-name="Trazado 183242" d="M85.993,156.215c-2.831-4.346-3.548-10.245-1.005-14.767,2.127-3.783,6.222-6.287,7.851-10.311,1.638-4.048.381-8.7-1.552-12.614s-4.537-7.543-5.777-11.73A19.652,19.652,0,0,1,88.2,90.212c3.381-4.841,8.731-7.846,13.308-11.576,5.459-4.448,9.9-10.017,15.18-14.676s11.82-8.506,18.861-8.371c5.756.11,11.111,2.847,16.756,3.98,5.32,1.067,11,.733,15.947,2.959a15.732,15.732,0,0,1,9.086,11.816A13.96,13.96,0,0,1,171.352,87.8c-6.562,4.211-15.524,1.824-22.645,5s-10.839,11.331-11.571,19.1.87,15.559,1.232,23.358-.767,16.215-5.977,22.03c-4.007,4.473-9.968,6.81-15.925,7.574-5.982.767-12.378.227-18.344-.164C93.485,164.4,88.417,159.938,85.993,156.215Z" transform="translate(-43.581 -55.585)" fill="#12263f"/>
        <path id="Trazado_183243" data-name="Trazado 183243" d="M105.554,179.442a15.693,15.693,0,0,0-22.186-.593L35.709,224.025l-1.3,1.232a10.346,10.346,0,0,0-.548,14.436l41.623,46.062a21.8,21.8,0,0,0-.414,15.923c1.045,2.782,2.822,5.468,5.525,6.7a201.84,201.84,0,0,0,9.321-18.135c-.564-.8-1.151-1.571-1.754-2.323a5.125,5.125,0,0,0-.578-3.992l-29.3-48.047,45.141-32.969a17.235,17.235,0,0,0,1.541-1.284A15.694,15.694,0,0,0,105.554,179.442Z" transform="translate(-31.191 -83.803)" fill="#ffbf76"/>
        <path id="Trazado_183244" data-name="Trazado 183244" d="M97.532,193.052,86.838,223.06l-3.044,1.884L78.546,228.2l-10.618,6.575L50.567,214.12l37.278-35.31Z" transform="translate(-35.787 -84.815)" fill="#ff8900"/>
        <path id="Trazado_183245" data-name="Trazado 183245" d="M71.4,244.587l-20.284-24.9-3.132,4.7L66.46,246.356Z" transform="translate(-35.175 -94.51)" fill="#45c6e5"/>
        <path id="Trazado_183246" data-name="Trazado 183246" d="M92.495,231.445,87.247,234.7l1.139-28.487Z" transform="translate(-44.488 -91.316)" fill="#b26001"/>
        <path id="Trazado_183247" data-name="Trazado 183247" d="M197.845,85.02c1.465,4.7.445,9.77-.732,14.545s-2.516,9.7-1.654,14.545c.917,5.147,4.19,9.5,6.8,14.032s4.641,10,2.837,14.909c-1.273,3.465-4.28,6.084-5.511,9.563-1.975,5.58,1.063,11.735.331,17.608-.824,6.618-6.7,11.984-13.269,13.162s-13.455-1.389-18.422-5.84-8.169-10.6-10.093-16.985-2.659-13.06-3.365-19.692c-1.31-12.3-2.478-25.178,2.114-36.667a46.5,46.5,0,0,1,13.706-18.141c4.451-3.714,12.337-10.732,18.512-8.994C193.187,78.217,196.542,80.848,197.845,85.02Z" transform="translate(-60.226 -60.616)" fill="#12263f"/>
        <g id="Grupo_121199" data-name="Grupo 121199" transform="translate(102.193 57.96)">
          <g id="Grupo_121198" data-name="Grupo 121198" transform="translate(0 33.578)">
            <path id="Trazado_183248" data-name="Trazado 183248" d="M191.382,179.644,241.4,224.878l-14.945.559L283.4,181.27a5.143,5.143,0,0,1,6.968,7.513L242.05,242.251a10.305,10.305,0,0,1-13.553,1.535l-1.391-.975-55.248-38.673a15.692,15.692,0,0,1,18-25.712A17.375,17.375,0,0,1,191.382,179.644Z" transform="translate(-165.163 -175.589)" fill="#ffbf76"/>
          </g>
          <path id="Trazado_183249" data-name="Trazado 183249" d="M328.83,147.01q.618-6.668.822-13.367a2.939,2.939,0,0,0-.207-1.462,1.02,1.02,0,0,0-1.237-.547,1.491,1.491,0,0,0-.652.978,135.722,135.722,0,0,0-6.428,47.51l2.141-.023a5.486,5.486,0,0,0,5.39-6.063c-.061-.6-.108-1.191-.136-1.789a19.243,19.243,0,0,1,1.057-7.739c.616-1.62,1.536-3.169,1.68-4.9.231-2.777-1.589-5.394-1.476-8.178a20.5,20.5,0,0,1,.46-2.765,5.356,5.356,0,0,0-.082-2.772,2.659,2.659,0,0,0-1.284-1.474.706.706,0,0,0-.964.447c-.687,2.163-1.571,4.425-2.214,6.566a27.377,27.377,0,0,0-1.116,4.715,9.158,9.158,0,0,0,.586,4.758" transform="translate(-202.128 -131.569)" fill="#ffbf76"/>
          <path id="Trazado_183250" data-name="Trazado 183250" d="M329.966,148.4a.708.708,0,0,0-.965.449c-.686,2.163-1.571,4.423-2.214,6.565a27.373,27.373,0,0,0-1.116,4.715,9.157,9.157,0,0,0,.586,4.758" transform="translate(-203.217 -135.546)" fill="#ffbf76" stroke="#d87808" stroke-linecap="round" stroke-linejoin="round" stroke-width="0.89"/>
          <path id="Trazado_183251" data-name="Trazado 183251" d="M316.391,183.838s3.612-3.111,3.764-6.874l1.082,2.958-.458,2.7Z" transform="translate(-201.035 -142.337)" fill="#ffbf76"/>
        </g>
        <path id="Trazado_183252" data-name="Trazado 183252" d="M234.952,212.848l-13.967,24.31L205.9,229.21l-6.026-3.173-2.479-1.3L186.507,198.79l7.346-22.319Z" transform="translate(-68.033 -84.26)" fill="#ff8900"/>
        <path id="Trazado_183253" data-name="Trazado 183253" d="M241.592,218.131,225.2,246.9l5.519,1.218L244.6,222.647Z" transform="translate(-77.21 -94.142)" fill="#45c6e5"/>
        <path id="Trazado_183254" data-name="Trazado 183254" d="M210.063,235.376l-6.026-3.173,2.761-29.736Z" transform="translate(-72.191 -90.427)" fill="#b26001"/>
        <path id="Trazado_183255" data-name="Trazado 183255" d="M124.62,159.542l2.285,6.721,17.557,6.947,20.168-4.822,2.815-8.5C142.04,150.947,124.62,159.542,124.62,159.542Z" transform="translate(-53.353 -79.362)" fill="#8dd52c"/>
        <g id="Grupo_121204" data-name="Grupo 121204" transform="translate(94.6 227.448)">
          <g id="Grupo_121203" data-name="Grupo 121203" clip-path="url(#clip-path-2)">
            <g id="Grupo_121202" data-name="Grupo 121202" transform="translate(-53.962 5.295)">
              <g id="Grupo_121200" data-name="Grupo 121200" transform="translate(3.765 0.941)">
                <line id="Línea_1278" data-name="Línea 1278" y1="102.076" x2="102.076" fill="none" stroke="#080838" stroke-miterlimit="10" stroke-width="0.5"/>
                <line id="Línea_1279" data-name="Línea 1279" y1="102.076" x2="102.076" transform="translate(4.401 4.401)" fill="none" stroke="#080838" stroke-miterlimit="10" stroke-width="0.5"/>
                <line id="Línea_1280" data-name="Línea 1280" y1="102.076" x2="102.076" transform="translate(8.803 8.803)" fill="none" stroke="#080838" stroke-miterlimit="10" stroke-width="0.5"/>
                <line id="Línea_1281" data-name="Línea 1281" y1="102.076" x2="102.076" transform="translate(13.204 13.204)" fill="none" stroke="#080838" stroke-miterlimit="10" stroke-width="0.5"/>
                <line id="Línea_1282" data-name="Línea 1282" y1="102.076" x2="102.076" transform="translate(17.605 17.605)" fill="none" stroke="#080838" stroke-miterlimit="10" stroke-width="0.5"/>
                <line id="Línea_1283" data-name="Línea 1283" y1="102.076" x2="102.076" transform="translate(22.007 22.006)" fill="none" stroke="#080838" stroke-miterlimit="10" stroke-width="0.5"/>
                <line id="Línea_1284" data-name="Línea 1284" y1="102.076" x2="102.076" transform="translate(26.408 26.408)" fill="none" stroke="#080838" stroke-miterlimit="10" stroke-width="0.5"/>
                <line id="Línea_1285" data-name="Línea 1285" y1="102.076" x2="102.076" transform="translate(30.809 30.809)" fill="none" stroke="#080838" stroke-miterlimit="10" stroke-width="0.5"/>
                <line id="Línea_1286" data-name="Línea 1286" y1="102.076" x2="102.076" transform="translate(35.21 35.21)" fill="none" stroke="#080838" stroke-miterlimit="10" stroke-width="0.5"/>
                <line id="Línea_1287" data-name="Línea 1287" y1="102.076" x2="102.076" transform="translate(39.612 39.612)" fill="none" stroke="#080838" stroke-miterlimit="10" stroke-width="0.5"/>
                <line id="Línea_1288" data-name="Línea 1288" y1="102.076" x2="102.076" transform="translate(44.013 44.013)" fill="none" stroke="#080838" stroke-miterlimit="10" stroke-width="0.5"/>
                <line id="Línea_1289" data-name="Línea 1289" y1="102.076" x2="102.076" transform="translate(48.414 48.414)" fill="none" stroke="#080838" stroke-miterlimit="10" stroke-width="0.5"/>
                <line id="Línea_1290" data-name="Línea 1290" y1="102.076" x2="102.076" transform="translate(52.816 52.816)" fill="none" stroke="#080838" stroke-miterlimit="10" stroke-width="0.5"/>
                <line id="Línea_1291" data-name="Línea 1291" y1="102.076" x2="102.076" transform="translate(57.217 57.217)" fill="none" stroke="#080838" stroke-miterlimit="10" stroke-width="0.5"/>
              </g>
              <g id="Grupo_121201" data-name="Grupo 121201">
                <line id="Línea_1292" data-name="Línea 1292" x2="102.076" y2="102.076" transform="translate(57.217)" fill="none" stroke="#080838" stroke-miterlimit="10" stroke-width="0.5"/>
                <line id="Línea_1293" data-name="Línea 1293" x2="102.076" y2="102.076" transform="translate(52.816 4.401)" fill="none" stroke="#080838" stroke-miterlimit="10" stroke-width="0.5"/>
                <line id="Línea_1294" data-name="Línea 1294" x2="102.076" y2="102.076" transform="translate(48.414 8.803)" fill="none" stroke="#080838" stroke-miterlimit="10" stroke-width="0.5"/>
                <line id="Línea_1295" data-name="Línea 1295" x2="102.076" y2="102.076" transform="translate(44.013 13.204)" fill="none" stroke="#080838" stroke-miterlimit="10" stroke-width="0.5"/>
                <line id="Línea_1296" data-name="Línea 1296" x2="102.076" y2="102.076" transform="translate(39.612 17.605)" fill="none" stroke="#080838" stroke-miterlimit="10" stroke-width="0.5"/>
                <line id="Línea_1297" data-name="Línea 1297" x2="102.076" y2="102.076" transform="translate(35.21 22.007)" fill="none" stroke="#080838" stroke-miterlimit="10" stroke-width="0.5"/>
                <line id="Línea_1298" data-name="Línea 1298" x2="102.076" y2="102.076" transform="translate(30.809 26.408)" fill="none" stroke="#080838" stroke-miterlimit="10" stroke-width="0.5"/>
                <line id="Línea_1299" data-name="Línea 1299" x2="102.076" y2="102.076" transform="translate(26.408 30.809)" fill="none" stroke="#080838" stroke-miterlimit="10" stroke-width="0.5"/>
                <line id="Línea_1300" data-name="Línea 1300" x2="102.076" y2="102.076" transform="translate(22.006 35.21)" fill="none" stroke="#080838" stroke-miterlimit="10" stroke-width="0.5"/>
                <line id="Línea_1301" data-name="Línea 1301" x2="102.076" y2="102.076" transform="translate(17.605 39.612)" fill="none" stroke="#080838" stroke-miterlimit="10" stroke-width="0.5"/>
                <line id="Línea_1302" data-name="Línea 1302" x2="102.076" y2="102.076" transform="translate(13.204 44.013)" fill="none" stroke="#080838" stroke-miterlimit="10" stroke-width="0.5"/>
                <line id="Línea_1303" data-name="Línea 1303" x2="102.076" y2="102.076" transform="translate(8.803 48.414)" fill="none" stroke="#080838" stroke-miterlimit="10" stroke-width="0.5"/>
                <line id="Línea_1304" data-name="Línea 1304" x2="102.076" y2="102.076" transform="translate(4.401 52.816)" fill="none" stroke="#080838" stroke-miterlimit="10" stroke-width="0.5"/>
                <line id="Línea_1305" data-name="Línea 1305" x2="102.076" y2="102.076" transform="translate(0 57.217)" fill="none" stroke="#080838" stroke-miterlimit="10" stroke-width="0.5"/>
              </g>
            </g>
          </g>
        </g>
        <g id="Grupo_121209" data-name="Grupo 121209" transform="translate(42.189 230.853)">
          <g id="Grupo_121208" data-name="Grupo 121208" clip-path="url(#clip-path-3)">
            <g id="Grupo_121207" data-name="Grupo 121207" transform="translate(-52.837 1.89)">
              <g id="Grupo_121205" data-name="Grupo 121205" transform="translate(3.765 0.941)">
                <line id="Línea_1306" data-name="Línea 1306" y1="102.076" x2="102.076" fill="none" stroke="#080838" stroke-miterlimit="10" stroke-width="0.5"/>
                <line id="Línea_1307" data-name="Línea 1307" y1="102.076" x2="102.076" transform="translate(4.401 4.401)" fill="none" stroke="#080838" stroke-miterlimit="10" stroke-width="0.5"/>
                <line id="Línea_1308" data-name="Línea 1308" y1="102.076" x2="102.076" transform="translate(8.803 8.803)" fill="none" stroke="#080838" stroke-miterlimit="10" stroke-width="0.5"/>
                <line id="Línea_1309" data-name="Línea 1309" y1="102.076" x2="102.076" transform="translate(13.204 13.204)" fill="none" stroke="#080838" stroke-miterlimit="10" stroke-width="0.5"/>
                <line id="Línea_1310" data-name="Línea 1310" y1="102.076" x2="102.076" transform="translate(17.605 17.605)" fill="none" stroke="#080838" stroke-miterlimit="10" stroke-width="0.5"/>
                <line id="Línea_1311" data-name="Línea 1311" y1="102.076" x2="102.076" transform="translate(22.007 22.006)" fill="none" stroke="#080838" stroke-miterlimit="10" stroke-width="0.5"/>
                <line id="Línea_1312" data-name="Línea 1312" y1="102.076" x2="102.076" transform="translate(26.408 26.408)" fill="none" stroke="#080838" stroke-miterlimit="10" stroke-width="0.5"/>
                <line id="Línea_1313" data-name="Línea 1313" y1="102.076" x2="102.076" transform="translate(30.809 30.809)" fill="none" stroke="#080838" stroke-miterlimit="10" stroke-width="0.5"/>
                <line id="Línea_1314" data-name="Línea 1314" y1="102.076" x2="102.076" transform="translate(35.21 35.21)" fill="none" stroke="#080838" stroke-miterlimit="10" stroke-width="0.5"/>
                <line id="Línea_1315" data-name="Línea 1315" y1="102.076" x2="102.076" transform="translate(39.612 39.612)" fill="none" stroke="#080838" stroke-miterlimit="10" stroke-width="0.5"/>
                <line id="Línea_1316" data-name="Línea 1316" y1="102.076" x2="102.076" transform="translate(44.013 44.013)" fill="none" stroke="#080838" stroke-miterlimit="10" stroke-width="0.5"/>
                <line id="Línea_1317" data-name="Línea 1317" y1="102.076" x2="102.076" transform="translate(48.414 48.414)" fill="none" stroke="#080838" stroke-miterlimit="10" stroke-width="0.5"/>
                <line id="Línea_1318" data-name="Línea 1318" y1="102.076" x2="102.076" transform="translate(52.816 52.816)" fill="none" stroke="#080838" stroke-miterlimit="10" stroke-width="0.5"/>
                <line id="Línea_1319" data-name="Línea 1319" y1="102.076" x2="102.076" transform="translate(57.217 57.217)" fill="none" stroke="#080838" stroke-miterlimit="10" stroke-width="0.5"/>
              </g>
              <g id="Grupo_121206" data-name="Grupo 121206" transform="translate(0)">
                <line id="Línea_1320" data-name="Línea 1320" x2="102.076" y2="102.076" transform="translate(57.217)" fill="none" stroke="#080838" stroke-miterlimit="10" stroke-width="0.5"/>
                <line id="Línea_1321" data-name="Línea 1321" x2="102.076" y2="102.076" transform="translate(52.816 4.401)" fill="none" stroke="#080838" stroke-miterlimit="10" stroke-width="0.5"/>
                <line id="Línea_1322" data-name="Línea 1322" x2="102.076" y2="102.076" transform="translate(48.414 8.803)" fill="none" stroke="#080838" stroke-miterlimit="10" stroke-width="0.5"/>
                <line id="Línea_1323" data-name="Línea 1323" x2="102.076" y2="102.076" transform="translate(44.013 13.204)" fill="none" stroke="#080838" stroke-miterlimit="10" stroke-width="0.5"/>
                <line id="Línea_1324" data-name="Línea 1324" x2="102.076" y2="102.076" transform="translate(39.612 17.605)" fill="none" stroke="#080838" stroke-miterlimit="10" stroke-width="0.5"/>
                <line id="Línea_1325" data-name="Línea 1325" x2="102.076" y2="102.076" transform="translate(35.21 22.007)" fill="none" stroke="#080838" stroke-miterlimit="10" stroke-width="0.5"/>
                <line id="Línea_1326" data-name="Línea 1326" x2="102.076" y2="102.076" transform="translate(30.809 26.408)" fill="none" stroke="#080838" stroke-miterlimit="10" stroke-width="0.5"/>
                <line id="Línea_1327" data-name="Línea 1327" x2="102.076" y2="102.076" transform="translate(26.408 30.809)" fill="none" stroke="#080838" stroke-miterlimit="10" stroke-width="0.5"/>
                <line id="Línea_1328" data-name="Línea 1328" x2="102.076" y2="102.076" transform="translate(22.006 35.21)" fill="none" stroke="#080838" stroke-miterlimit="10" stroke-width="0.5"/>
                <line id="Línea_1329" data-name="Línea 1329" x2="102.076" y2="102.076" transform="translate(17.605 39.612)" fill="none" stroke="#080838" stroke-miterlimit="10" stroke-width="0.5"/>
                <line id="Línea_1330" data-name="Línea 1330" x2="102.076" y2="102.076" transform="translate(13.204 44.013)" fill="none" stroke="#080838" stroke-miterlimit="10" stroke-width="0.5"/>
                <line id="Línea_1331" data-name="Línea 1331" x2="102.076" y2="102.076" transform="translate(8.803 48.414)" fill="none" stroke="#080838" stroke-miterlimit="10" stroke-width="0.5"/>
                <line id="Línea_1332" data-name="Línea 1332" x2="102.076" y2="102.076" transform="translate(4.401 52.816)" fill="none" stroke="#080838" stroke-miterlimit="10" stroke-width="0.5"/>
                <line id="Línea_1333" data-name="Línea 1333" x2="102.076" y2="102.076" transform="translate(0 57.217)" fill="none" stroke="#080838" stroke-miterlimit="10" stroke-width="0.5"/>
              </g>
            </g>
          </g>
        </g>
        <path id="Trazado_183258" data-name="Trazado 183258" d="M179.3,188.734a22.632,22.632,0,0,0-2.146-7.806c-3.561-6.809-12.932-11.469-22.808-12.665l-15.891-1.774v-.552l-2.471.276-2.471-.276v.552l-15.891,1.774c-9.876,1.2-19.248,5.857-22.809,12.665a22.666,22.666,0,0,0-2.146,7.806c-2.7,21.2,15.175,61.439,16.942,82.182h52.752C164.121,250.172,182,209.932,179.3,188.734Z" transform="translate(-45.706 -81.761)" fill="#ffbf76"/>
        <path id="Trazado_183300" data-name="Trazado 183300" d="M0,0H24.507V55.7H0Z" transform="translate(104.852 103.263) rotate(180)" fill="#ffbf76"/>
        <path id="Trazado_183259" data-name="Trazado 183259" d="M163.352,159.392s-15.344-.5-17.062-13.72l17.163,3.233Z" transform="translate(-58.493 -76.954)" fill="#d87808" opacity="0.306"/>
        <path id="Trazado_183260" data-name="Trazado 183260" d="M180.413,112.728c-.053.32-.114.633-.183.953-.206,1.022-.45,2.044-.717,3.051a35.126,35.126,0,0,1-3.181,8.116c-.023.038-.046.084-.069.122a18.55,18.55,0,0,1-6.987,7.361,20.625,20.625,0,0,1-10.618,2.273c-7.2-.183-14.478-2.99-19.291-8.36-5.271-5.881-7.109-14.142-7.2-22.045-.092-7.948,1.518-16.187,6.247-22.579,4.073-5.507,10.771-9.375,17.72-9.154,6.217.206,12.418,3.852,16.591,8.292a30.214,30.214,0,0,1,6.118,9.741C181.564,97.517,181.8,105.29,180.413,112.728Z" transform="translate(-55.142 -59.588)" fill="#ffbf76"/>
        <path id="Trazado_183261" data-name="Trazado 183261" d="M134.753,118.184a7.992,7.992,0,0,0-3.722-4.217,4.98,4.98,0,0,0-5.388.582c-1.608,1.465-1.787,3.948-1.382,6.085a9.984,9.984,0,0,0,2.548,5.246,6.026,6.026,0,0,0,5.389,1.783C136.768,126.661,136.113,121.419,134.753,118.184Z" transform="translate(-53.224 -69.309)" fill="#ffbf76"/>
        <g id="Grupo_121210" data-name="Grupo 121210" transform="translate(73.464 48.336)">
          <path id="Trazado_183262" data-name="Trazado 183262" d="M132.27,124.556a6.944,6.944,0,0,1-4.77-5.424" transform="translate(-127.5 -118.995)" fill="none" stroke="#d87808" stroke-linecap="round" stroke-linejoin="round" stroke-width="1.183"/>
          <path id="Trazado_183263" data-name="Trazado 183263" d="M131.372,118.953a3.733,3.733,0,0,1-1.1,3.394" transform="translate(-128.157 -118.953)" fill="none" stroke="#d87808" stroke-linecap="round" stroke-linejoin="round" stroke-width="1.183"/>
        </g>
        <path id="Trazado_183264" data-name="Trazado 183264" d="M140.193,392.833l48.845-.826-5.986-37.047q-.156-1-.323-1.993l-.024-.139c-3.414-20.442-11.289-40.372-20.734-58.752H107.114c-.672,0-3.224,6.565-3.6,7.379q-1.8,3.885-3.424,7.843-3.259,7.92-5.835,16.1a169.133,169.133,0,0,0-7.363,33.584c-1.2,11.866.4,23.047,1.8,34.774l49.43-.807L135.507,369.6l.693-.443Z" transform="translate(-44.304 -112.157)" fill="#1d7e96"/>
        <path id="Trazado_183265" data-name="Trazado 183265" d="M86.23,418.95h52.095l.421,4.8-51.282.822Z" transform="translate(-44.246 -141.778)" fill="#3c3c62"/>
        <path id="Trazado_183266" data-name="Trazado 183266" d="M155.744,418.609l51.889-2.054-1.036,5.708-50.19,1.089Z" transform="translate(-60.735 -141.209)" fill="#3c3c62"/>
        <path id="Trazado_183267" data-name="Trazado 183267" d="M164.407,266.943c9.035-19.7,13.117-42.273,14.736-63.886.556-7.424.584-15.232-2.773-21.878-4.082-8.082-13.11-13.054-22.3-13.437-2.738,7.6-8.088,15.261-14.913,19.582-7.982-3.461-14.91-12.247-17.628-20.512a54.072,54.072,0,0,0-15.917,3.67,26.542,26.542,0,0,0-12.481,9.992c-5.1,8.021-4.488,18.34-2.849,27.7,3.4,19.412,8.363,40.263,15.3,58.71A146.743,146.743,0,0,0,164.407,266.943Z" transform="translate(-44.929 -81.969)" fill="#ff8900"/>
        <path id="Trazado_183268" data-name="Trazado 183268" d="M167.763,168.4c-3.593,9.741-10.473,19.489-19.215,25.02-10.191-4.417-19.047-15.5-22.7-26.072,1.442-.221,2.906-.4,4.394-.534,2.723,8.269,9.649,17.056,17.636,20.512,6.819-4.317,12.174-11.983,14.913-19.581A28.026,28.026,0,0,1,167.763,168.4Z" transform="translate(-53.644 -81.969)" fill="#45c6e5"/>
        <path id="Trazado_183269" data-name="Trazado 183269" d="M160.34,92.342A42.741,42.741,0,0,0,182.29,99.2c1.856.069,3.926-.06,5.22-1.392,1.379-1.42,1.353-3.676.986-5.621a25.976,25.976,0,0,0-8.587-14.523A33.9,33.9,0,0,0,164.585,70.3a25.093,25.093,0,0,0-9.607-.358,15.463,15.463,0,0,0-6.17,2.529c-1.912,1.359-2.74,2.14-1.735,4.387a36.015,36.015,0,0,0,7.513,10.8A37.8,37.8,0,0,0,160.34,92.342Z" transform="translate(-58.577 -58.916)" fill="#12263f"/>
        <path id="Trazado_183270" data-name="Trazado 183270" d="M132.119,103.268a20.922,20.922,0,0,0,15.408-23.874,9.982,9.982,0,0,0-3.162-6.218,8.592,8.592,0,0,0-6.022-1.6,15.43,15.43,0,0,0-10.935,6.6,27.951,27.951,0,0,0-4.571,12.232c-.513,3.313-.646,6.964.828,10.066.664,1.4,1.14,2.494,2.692,2.942A11.086,11.086,0,0,0,132.119,103.268Z" transform="translate(-52.846 -59.371)" fill="#12263f"/>
        <path id="Trazado_183271" data-name="Trazado 183271" d="M150.885,215.955l1.683,3.41a4.652,4.652,0,0,0,3.5,2.545l3.764.547a4.652,4.652,0,0,1,2.578,7.935l-2.723,2.655a4.649,4.649,0,0,0-1.338,4.118l.643,3.748a4.652,4.652,0,0,1-6.75,4.9l-3.366-1.77a4.652,4.652,0,0,0-4.33,0l-3.366,1.77a4.652,4.652,0,0,1-6.75-4.9l.643-3.748a4.653,4.653,0,0,0-1.338-4.118l-2.723-2.655a4.652,4.652,0,0,1,2.578-7.935l3.764-.547a4.652,4.652,0,0,0,3.5-2.545l1.683-3.41A4.653,4.653,0,0,1,150.885,215.955Z" transform="translate(-54.535 -93.011)" fill="#2df0da"/>
        <path id="Trazado_183272" data-name="Trazado 183272" d="M93.086,229.551c3.385,13.569,6.733,27.159,10.151,40.707a48.876,48.876,0,0,0,24.074,6.035,895.086,895.086,0,0,1-6.988-110.4c-5.74,1.244-11.273,2.051-16.621,4.481a62.142,62.142,0,0,1-10.617,59.175Z" transform="translate(-45.873 -81.751)" fill="#a9f73f"/>
        <path id="Trazado_183273" data-name="Trazado 183273" d="M194.818,229.971c-3.384,13.569-6.734,27.159-10.151,40.707a48.876,48.876,0,0,1-24.074,6.035c4.465-36.415,12.643-72.369,12.554-109.047,5.63,1.035,5.751.995,11.054,3.129a62.142,62.142,0,0,0,10.617,59.175Z" transform="translate(-61.886 -82.172)" fill="#a9f73f"/>
        <path id="Trazado_183274" data-name="Trazado 183274" d="M104.22,326.044A26.187,26.187,0,0,0,120.232,312.8" transform="translate(-48.514 -116.598)" fill="none" stroke="#35a3be" stroke-miterlimit="10" stroke-width="2"/>
        <path id="Trazado_183275" data-name="Trazado 183275" d="M190.755,326.044A26.187,26.187,0,0,1,174.743,312.8" transform="translate(-65.242 -116.598)" fill="none" stroke="#35a3be" stroke-miterlimit="10" stroke-width="2"/>
        <path id="Trazado_183276" data-name="Trazado 183276" d="M150.491,311.054l-.178,19.971h-4.369l-3.031-17.475" transform="translate(-57.692 -116.184)" fill="none" stroke="#35a3be" stroke-miterlimit="10" stroke-width="2"/>
        <path id="Trazado_183277" data-name="Trazado 183277" d="M97.446,342.817c-7.485,20.1-7.6,38.1-4.7,56.459" transform="translate(-45.375 -123.718)" fill="none" stroke="#35a3be" stroke-miterlimit="10" stroke-width="1" stroke-dasharray="3"/>
        <line id="Línea_1334" data-name="Línea 1334" x1="3.162" y1="19.8" transform="translate(95.111 255.62)" fill="none" stroke="#35a3be" stroke-miterlimit="10" stroke-width="1" stroke-dasharray="3"/>
        <circle id="Elipse_5140" data-name="Elipse 5140" cx="2.078" cy="2.078" r="2.078" transform="translate(95.356 44.395)" fill="#12263f"/>
        <g id="Grupo_121211" data-name="Grupo 121211" transform="translate(88.81 37.556)">
          <path id="Trazado_183278" data-name="Trazado 183278" d="M160.633,104.821a21.81,21.81,0,0,0-3.363.236,23.056,23.056,0,0,0-6.42,1.925,21.708,21.708,0,0,0-2.887,1.626.768.768,0,0,0,.682,1.365c1-.356,1.969-.664,2.961-.928a27.848,27.848,0,0,1,2.984-.634,27.184,27.184,0,0,1,3-.332c1.007-.064,1.989-.066,3.012-.053a1.6,1.6,0,1,0,.04-3.2h-.011Z" transform="translate(-147.618 -104.82)" fill="#12263f"/>
        </g>
        <circle id="Elipse_5141" data-name="Elipse 5141" cx="2.078" cy="2.078" r="2.078" transform="translate(114.463 44.395)" fill="#12263f"/>
        <g id="Grupo_121212" data-name="Grupo 121212" transform="translate(110.557 37.556)">
          <path id="Trazado_183279" data-name="Trazado 183279" d="M177.721,104.821a21.807,21.807,0,0,1,3.362.236,23.071,23.071,0,0,1,6.421,1.925,21.755,21.755,0,0,1,2.887,1.626.768.768,0,0,1-.682,1.365c-1-.356-1.97-.664-2.962-.928a27.806,27.806,0,0,0-2.984-.634,27.17,27.17,0,0,0-3-.332c-1.007-.064-1.99-.066-3.013-.053a1.6,1.6,0,0,1-.04-3.2h.011Z" transform="translate(-176.128 -104.82)" fill="#12263f"/>
        </g>
        <circle id="Elipse_5142" data-name="Elipse 5142" cx="6.439" cy="6.439" r="6.439" transform="translate(85.03 52.509)" fill="#d87808" opacity="0.227"/>
        <path id="Trazado_183280" data-name="Trazado 183280" d="M192.544,125.053c-.053.32-.114.633-.183.953-.206,1.022-.45,2.044-.717,3.051a35.124,35.124,0,0,1-3.181,8.116,6.443,6.443,0,1,1,4.081-12.121Z" transform="translate(-67.274 -71.913)" fill="#d87808" opacity="0.227"/>
        <path id="Trazado_183281" data-name="Trazado 183281" d="M171.8,115.385a5.007,5.007,0,0,0,.133,3.063,22.918,22.918,0,0,0,1.281,2.838,4.855,4.855,0,0,1,.64,2.333,1.871,1.871,0,0,1-1.386,1.79" transform="translate(-64.499 -69.77)" fill="none" stroke="#12263f" stroke-linecap="round" stroke-linejoin="round" stroke-width="1"/>
        <path id="Trazado_183282" data-name="Trazado 183282" d="M163.26,135.429a8.024,8.024,0,0,1,6.388,3.345" transform="translate(-62.518 -74.525)" fill="none" stroke="#12263f" stroke-linecap="round" stroke-linejoin="round" stroke-width="1"/>
        <path id="Trazado_183283" data-name="Trazado 183283" d="M185.015,285.174a43.793,43.793,0,0,1-14.247-8.276" transform="translate(-64.299 -108.082)" fill="none" stroke="#8dd52c" stroke-miterlimit="10" stroke-width="2"/>
        <path id="Trazado_183284" data-name="Trazado 183284" d="M110.806,285.174a43.789,43.789,0,0,0,14.248-8.276" transform="translate(-50.076 -108.082)" fill="none" stroke="#8dd52c" stroke-miterlimit="10" stroke-width="2"/>
        <path id="Trazado_183285" data-name="Trazado 183285" d="M48.485,227.663l15.833,18.831-1.477,1.1L45.2,230.769Z" transform="translate(-34.514 -96.403)" fill="#d87808" opacity="0.418"/>
        <path id="Trazado_183286" data-name="Trazado 183286" d="M245.776,226.1l-12.006,22,2.178,1.493,13.816-19.915Z" transform="translate(-79.244 -96.032)" fill="#d87808" opacity="0.418"/>
        <path id="Trazado_183287" data-name="Trazado 183287" d="M105.407,301.192s11.994,6,25.007,5.36l.32,2.562s-14.977.084-25.165-5.936Z" transform="translate(-48.795 -113.845)" fill="#75b51d"/>
        <path id="Trazado_183288" data-name="Trazado 183288" d="M185.217,301.192s-11.994,6-25.006,5.36l-.32,2.562s14.976.084,25.165-5.936Z" transform="translate(-61.719 -113.845)" fill="#75b51d"/>
        <path id="Trazado_183289" data-name="Trazado 183289" d="M107.682,203.29a66.587,66.587,0,0,0-2.235-32.48c-.587.229-1.167.473-1.747.732A62.159,62.159,0,0,1,93.09,230.72q.347,1.391.692,2.784h.044l0-.015A65.962,65.962,0,0,0,107.682,203.29Z" transform="translate(-45.874 -82.917)" fill="#75b51d"/>
        <path id="Trazado_183290" data-name="Trazado 183290" d="M186.092,203.29a66.577,66.577,0,0,1,2.235-32.48c.587.229,1.166.473,1.747.732a62.162,62.162,0,0,0,10.61,59.178l-.691,2.784h-.044l0-.015A65.946,65.946,0,0,1,186.092,203.29Z" transform="translate(-67.69 -82.917)" fill="#75b51d"/>
        <line id="Línea_1335" data-name="Línea 1335" x2="8.729" y2="35.032" transform="translate(49.848 151.788)" fill="none" stroke="#8dd52c" stroke-miterlimit="10" stroke-width="1" stroke-dasharray="3"/>
        <line id="Línea_1336" data-name="Línea 1336" x1="8.729" y2="35.032" transform="translate(121.278 151.788)" fill="none" stroke="#8dd52c" stroke-miterlimit="10" stroke-width="1" stroke-dasharray="3"/>
      </g>
      <g id="Grupo_121214" data-name="Grupo 121214" transform="translate(937.318 405.336)">
        <path id="Trazado_183291" data-name="Trazado 183291" d="M309.553,49.448c-2.416-14.584-21.9-23.5-43.528-19.921s-37.2,18.31-34.78,32.894a19.841,19.841,0,0,0,5.764,10.814,58.828,58.828,0,0,1-4.656,9.888,2.228,2.228,0,0,0,2.828,3.187,41.96,41.96,0,0,0,10.58-7.14c7.883,3.622,18.18,4.965,29.014,3.171C296.4,78.759,311.969,64.033,309.553,49.448Z" transform="translate(-230.998 -28.736)" fill="#fff"/>
        <text id="NO_" data-name="NO!" transform="matrix(0.985, -0.174, 0.174, 0.985, 21.278, 40.923)" fill="#ff8900" font-size="25" font-family="Roboto-Black, Roboto" font-weight="800"><tspan x="0" y="0">NO!</tspan></text>
      </g>
      <path id="Trazado_183292" data-name="Trazado 183292" d="M450.154,222.231A199.392,199.392,0,0,1,427.769,211.7c-4.492-2.487-8.442-3.787-9.783-3.7s.486,3.9,7.169,7.315c0,0-8.464-3.7-12.972-3.207s7.222,5.946,11.367,7.148c0,0-10.87-3.113-15.471-2.081s8.833,5.874,14.442,6.795c0,0-11.47-1.057-14.466.456s9.473,3.763,14.642,3.992,6.264,2.182,5.388,2.784a45.582,45.582,0,0,1-6.552,3.207c-1.251.452-3.776,3.1-1.838,3.6,1.162.3,4.594-.679,6.629-1.326,5.427-1.727,14.948-3.6,19.148-2.853,1.169.208,2.133.394,2.925.554l49.054,13.835,3.771-15.862Z" transform="translate(818.777 257.933)" fill="#ffbf76"/>
      <path id="Trazado_183293" data-name="Trazado 183293" d="M516.144,417.514l-48.357,16.1c-.785.2-1.739.428-2.9.69-4.161.942-13.759-.487-19.261-1.959-2.063-.552-5.536-1.369-6.684-1.017-1.912.589.733,3.121,2,3.514a45.588,45.588,0,0,1,6.694,2.9c.9.559-.1,2.561-5.253,3.031s-17.5,3.3-14.44,4.669,14.472-.217,14.472-.217c-5.561,1.18-18.755,6.642-14.111,7.459s15.358-2.8,15.358-2.8c-4.083,1.393-15.547,7.388-11.021,7.669s12.809-3.807,12.809-3.807c-6.517,3.72-8.165,7.61-6.821,7.641s5.229-1.453,9.6-4.146a199.34,199.34,0,0,1,21.871-11.565l50.542-12.495Z" transform="translate(802.661 150.042)" fill="#ffbf76"/>
      <path id="Trazado_183294" data-name="Trazado 183294" d="M396.992,156.508c2.157-13.017,19.551-20.977,38.851-17.781s33.2,16.342,31.042,29.359a17.716,17.716,0,0,1-5.144,9.653,52.585,52.585,0,0,0,4.155,8.826,1.988,1.988,0,0,1-2.523,2.844,37.457,37.457,0,0,1-9.443-6.372c-7.037,3.232-16.227,4.431-25.9,2.83C408.734,182.669,394.836,169.525,396.992,156.508Z" transform="translate(742.895 267.315)" fill="#fff"/>
      <path id="Trazado_183295" data-name="Trazado 183295" d="M362.123,299.542c-4.277-13.774,8.813-30.082,29.237-36.423s40.448-.315,44.724,13.46a19.35,19.35,0,0,1-.292,11.952,57.453,57.453,0,0,0,8.387,6.585,2.174,2.174,0,0,1-1.071,4.017,40.933,40.933,0,0,1-12.349-1.6c-5.289,6.609-13.68,12.288-23.913,15.464C386.424,319.344,366.4,313.317,362.123,299.542Z" transform="translate(736.41 229.349)" fill="#fff"/>
      <path id="Trazado_183296" data-name="Trazado 183296" d="M390.619,392.118c.686-14.176,18.281-24.843,39.3-23.824s37.5,13.334,36.814,27.51a19.051,19.051,0,0,1-4.3,10.952,56.555,56.555,0,0,0,5.536,8.913,2.139,2.139,0,0,1-2.342,3.353,40.333,40.333,0,0,1-10.882-5.635c-7.115,4.327-16.785,6.751-27.315,6.241C406.415,418.61,389.932,406.294,390.619,392.118Z" transform="translate(659.024 311.143) rotate(-14)" fill="#fff"/>
      <text id="YOU" transform="translate(1159.645 429.099) rotate(16.011)" fill="#ff8900" font-size="14" font-family="Roboto-Bold, Roboto" font-weight="700"><tspan x="0" y="0">YOU</tspan></text>
      <text id="HEY" transform="translate(1126.75 523.545) rotate(-7.178)" fill="#ff8900" font-size="15" font-family="Roboto-Bold, Roboto" font-weight="700"><tspan x="0" y="0">HEY</tspan></text>
      <text id="COME" transform="matrix(0.999, 0.046, -0.046, 0.999, 1146.579, 594.21)" fill="#ff8900" font-size="15" font-family="Roboto-Bold, Roboto" font-weight="700"><tspan x="0" y="0">COME</tspan></text>
      <g id="Grupo_121215" data-name="Grupo 121215" transform="translate(1187.632 517.41)">
        <path id="Trazado_183297" data-name="Trazado 183297" d="M537.542,341.872,445.827,332a18.9,18.9,0,0,1-4.917-2.347c-1.583-1.083-3.012-2.473-4.833-3.075-2.928-.967-6.214.313-9.18-.529a22.482,22.482,0,0,1-2.856-1.21,5.934,5.934,0,0,0-3-.629,2.984,2.984,0,0,0-1.765.85q-5.73-1.879-11.55-3.473a3.254,3.254,0,0,0-1.626-.156,1.128,1.128,0,0,0-.909,1.189c.087.439.5.721.883.955a150.191,150.191,0,0,0,49.447,19.212h0L535.534,356Z" transform="translate(-405.174 -321.375)" fill="#ffbf76"/>
        <path id="Trazado_183298" data-name="Trazado 183298" d="M424.48,326.7a.783.783,0,0,0,.233,1.153c2.149,1.3,4.352,2.835,6.489,4.081a30.3,30.3,0,0,0,4.783,2.421,10.137,10.137,0,0,0,5.27.6" transform="translate(-410.534 -322.865)" fill="#ffbf76" stroke="#d87808" stroke-linecap="round" stroke-linejoin="round" stroke-width="1.043"/>
      </g>
      <path id="Trazado_183299" data-name="Trazado 183299" d="M502.631,106.164A48.978,48.978,0,0,1,473.865,92.69l-3.807-5.7c1.176-10.763-.925-19.8-2.609-29.66a1.2,1.2,0,0,0-1.84-.808,6.744,6.744,0,0,0-2.4,3.061,10.335,10.335,0,0,0-.394,5.619,29.974,29.974,0,0,0,1.29,5.547A68.509,68.509,0,0,1,447.9,53.657a17.768,17.768,0,0,0-1.9-2.364,4.78,4.78,0,0,0-1.531-1.246,1.587,1.587,0,0,0-1.5.089,1.616,1.616,0,0,0-.595,1.39,4.486,4.486,0,0,0,.417,1.511,36.033,36.033,0,0,0,8.871,13.225,3.961,3.961,0,0,0-3.293.182,3.676,3.676,0,0,0-1.9,2.538,3.847,3.847,0,0,0-2.817,1.608,3.807,3.807,0,0,0-.477,3.189,1.514,1.514,0,0,0-1,.862c-1.056,3.708.475,7.787,3.068,10.64s6.11,4.681,9.637,6.236l.786,1.61c3.663,9.054,10.493,16.662,18.647,22.051,8.345,5.515,18.018,8.809,27.868,10.549C503.452,119.545,502.973,112.469,502.631,106.164Z" transform="translate(813.991 340.202)" fill="#ffbf76"/>
      <rect id="Rectángulo_37264" data-name="Rectángulo 37264" width="360" height="360" transform="translate(790 395.174)" fill="none"/>
    </g>
    <path id="Trazado_182774" data-name="Trazado 182774" d="M4.439,62.405h0a15.163,15.163,0,0,1,0-21.44L40.966,4.439a15.163,15.163,0,0,1,21.44,0h0a15.163,15.163,0,0,1,0,21.44L25.879,62.405A15.163,15.163,0,0,1,4.439,62.405Z" transform="translate(1248.806 606.677) rotate(8)" fill="#a9f73f"/>
  </g>
</svg>
