<svg xmlns="http://www.w3.org/2000/svg" xmlns:xlink="http://www.w3.org/1999/xlink" width="295" height="273.752" viewBox="0 0 295 273.752">
  <defs>
    <clipPath id="clip-path">
      <path id="Trazado_185224" data-name="Trazado 185224" d="M-192.93,102.891a15.116,15.116,0,0,0-15.116-15.116,15.115,15.115,0,0,0-15.115,15.116,15.115,15.115,0,0,0,15.115,15.116A15.116,15.116,0,0,0-192.93,102.891Z" transform="translate(223.161 -87.775)" fill="none"/>
    </clipPath>
  </defs>
  <g id="Grupo_128812" data-name="Grupo 128812" transform="translate(-982 -1208.345)">
    <path id="Rectángulo_37355" data-name="Rectángulo 37355" d="M80,0H295a0,0,0,0,1,0,0V120a80,80,0,0,1-80,80H0a0,0,0,0,1,0,0V80A80,80,0,0,1,80,0Z" transform="translate(982 1256.81)" fill="#2df0da"/>
    <g id="Grupo_125259" data-name="Grupo 125259" transform="translate(1567.854 1157.737)">
      <g id="Grupo_125209" data-name="Grupo 125209" transform="translate(-549.091 50.608)">
        <g id="Grupo_125187" data-name="Grupo 125187" transform="translate(114.479 156.687)">
          <path id="Trazado_185212" data-name="Trazado 185212" d="M-366.493,316.975a8.05,8.05,0,0,0,8.049,8.051l66.963,0a8.051,8.051,0,0,0,8.049-8.051v-25.2a8.05,8.05,0,0,0-8.049-8.049l-66.963,0a8.049,8.049,0,0,0-8.049,8.05Z" transform="translate(366.493 -283.727)" fill="#a9f73f"/>
          <g id="Grupo_125186" data-name="Grupo 125186" transform="translate(4.795 4.755)">
            <g id="Grupo_125184" data-name="Grupo 125184" transform="translate(42.151)">
              <path id="Trazado_185213" data-name="Trazado 185213" d="M-269.283,312.883h-22.936a4.4,4.4,0,0,1-3.131-1.3,4.4,4.4,0,0,1-1.3-3.131V295.23a4.434,4.434,0,0,1,4.427-4.429h22.937a4.434,4.434,0,0,1,4.429,4.429v13.223A4.434,4.434,0,0,1-269.283,312.883Zm-22.936-20.255a2.606,2.606,0,0,0-2.6,2.6v13.224a2.58,2.58,0,0,0,.762,1.839,2.584,2.584,0,0,0,1.839.762h22.936a2.6,2.6,0,0,0,2.6-2.6V295.232a2.605,2.605,0,0,0-2.6-2.6Z" transform="translate(296.647 -290.801)" fill="#75b51d"/>
              <path id="Trazado_185214" data-name="Trazado 185214" d="M-280.435,304.219a.915.915,0,0,1-.562-.193l-13.48-10.516a.914.914,0,0,1-.158-1.282.915.915,0,0,1,1.282-.159l12.906,10.069,12.917-10.452a.913.913,0,0,1,1.284.135.915.915,0,0,1-.135,1.286l-13.482,10.909A.912.912,0,0,1-280.435,304.219Z" transform="translate(296.051 -291.024)" fill="#75b51d"/>
            </g>
            <g id="Grupo_125185" data-name="Grupo 125185" transform="translate(0 5.911)">
              <path id="Trazado_185215" data-name="Trazado 185215" d="M-320.163,301.424h-38.282a.915.915,0,0,1-.914-.914.914.914,0,0,1,.914-.913h38.282a.912.912,0,0,1,.913.912A.913.913,0,0,1-320.163,301.424Z" transform="translate(359.359 -299.596)" fill="#75b51d"/>
              <path id="Trazado_185216" data-name="Trazado 185216" d="M-311.174,312.548h-19.857a.914.914,0,0,1-.913-.914.913.913,0,0,1,.913-.913h19.857a.913.913,0,0,1,.913.913A.914.914,0,0,1-311.174,312.548Z" transform="translate(350.371 -303.243)" fill="#75b51d"/>
            </g>
          </g>
        </g>
        <g id="Grupo_125208" data-name="Grupo 125208">
          <g id="Grupo_125193" data-name="Grupo 125193" transform="translate(120.307)">
            <g id="Grupo_125189" data-name="Grupo 125189">
              <path id="Trazado_185217" data-name="Trazado 185217" d="M-357.823,61.022a10.652,10.652,0,0,1,10.876-10.414h105.2a10.652,10.652,0,0,1,10.876,10.414v8.767H-357.823Z" transform="translate(357.823 -50.608)" fill="#45c6e5" fill-rule="evenodd"/>
              <path id="Trazado_185218" data-name="Trazado 185218" d="M-230.872,79.145v68.077a10.655,10.655,0,0,1-10.876,10.417h-105.2a10.655,10.655,0,0,1-10.876-10.417V79.145Z" transform="translate(357.823 -59.964)" fill="#edffd5" fill-rule="evenodd"/>
              <g id="Grupo_125188" data-name="Grupo 125188" transform="translate(94.393 6.657)">
                <path id="Trazado_185219" data-name="Trazado 185219" d="M-187.344,63.73a3.219,3.219,0,0,0,3.217,3.218,3.218,3.218,0,0,0,3.218-3.218,3.217,3.217,0,0,0-3.218-3.218A3.218,3.218,0,0,0-187.344,63.73Z" transform="translate(207.536 -60.512)" fill="#fff"/>
                <path id="Trazado_185220" data-name="Trazado 185220" d="M-202.364,63.73a3.218,3.218,0,0,0,3.218,3.218,3.218,3.218,0,0,0,3.218-3.218,3.218,3.218,0,0,0-3.218-3.218A3.217,3.217,0,0,0-202.364,63.73Z" transform="translate(212.461 -60.512)" fill="#fff"/>
                <path id="Trazado_185221" data-name="Trazado 185221" d="M-217.386,63.73a3.219,3.219,0,0,0,3.218,3.218,3.218,3.218,0,0,0,3.217-3.218,3.217,3.217,0,0,0-3.217-3.218A3.218,3.218,0,0,0-217.386,63.73Z" transform="translate(217.386 -60.512)" fill="#fff"/>
              </g>
            </g>
            <g id="Grupo_125192" data-name="Grupo 125192" transform="translate(90.511 24.981)">
              <path id="Trazado_185222" data-name="Trazado 185222" d="M-192.93,102.891a15.116,15.116,0,0,0-15.116-15.116,15.115,15.115,0,0,0-15.115,15.116,15.115,15.115,0,0,0,15.115,15.116A15.116,15.116,0,0,0-192.93,102.891Z" transform="translate(223.161 -87.775)" fill="#fff"/>
              <g id="Grupo_125191" data-name="Grupo 125191">
                <g id="Grupo_125190" data-name="Grupo 125190" clip-path="url(#clip-path)">
                  <path id="Trazado_185223" data-name="Trazado 185223" d="M-193.778,120.246c-10.067-.085-16.877-.093-26.918,0-.073-3.8.675-6.061,3.5-7.291,2.067-.9,4.97-.786,5.608-2.523.907-2.464-1.156-4.825-1.822-7.01-1.442-4.73,1.063-10.257,5.608-10.656,4.755-.416,7.938,5.015,6.73,9.955-.623,2.547-2.688,4.924-1.963,7.43.427,1.475,2.187,1.882,3.926,2.384C-195.347,113.618-193.8,115.061-193.778,120.246Z" transform="translate(222.354 -89.404)" fill="#1d7e96" fill-rule="evenodd"/>
                </g>
              </g>
            </g>
          </g>
          <g id="Grupo_125205" data-name="Grupo 125205" transform="translate(0 28.146)">
            <g id="Grupo_125194" data-name="Grupo 125194">
              <path id="Trazado_185225" data-name="Trazado 185225" d="M-387.737,126v79.945a12.506,12.506,0,0,1-12.771,12.229H-524.041a12.507,12.507,0,0,1-12.771-12.229V126Z" transform="translate(536.814 -103.471)" fill="#a3edff" fill-rule="evenodd"/>
              <path id="Trazado_185226" data-name="Trazado 185226" d="M-536.815,104.715a12.51,12.51,0,0,1,12.773-12.232h123.534a12.506,12.506,0,0,1,12.771,12.232v10.293H-536.815Z" transform="translate(536.815 -92.483)" fill="#1d7e96" fill-rule="evenodd"/>
              <path id="Trazado_185227" data-name="Trazado 185227" d="M-502.636,106.3a4.89,4.89,0,0,0,4.887,4.891,4.892,4.892,0,0,0,4.89-4.891,4.892,4.892,0,0,0-4.89-4.892,4.89,4.89,0,0,0-4.887,4.892" transform="translate(525.609 -95.41)" fill="#fbfcff"/>
              <path id="Trazado_185228" data-name="Trazado 185228" d="M-515.864,111.186h-5.593l2.8-4.844,2.8-4.844,2.8,4.844,2.8,4.844Z" transform="translate(531.78 -95.439)" fill="#fbfcff"/>
            </g>
            <g id="Grupo_125204" data-name="Grupo 125204" transform="translate(9.09 30.348)">
              <g id="Grupo_125195" data-name="Grupo 125195" transform="translate(69.1)">
                <path id="Rectángulo_37356" data-name="Rectángulo 37356" d="M6.26,0H56.083a6.26,6.26,0,0,1,6.26,6.26V68.045a6.26,6.26,0,0,1-6.26,6.26H6.259A6.259,6.259,0,0,1,0,68.046V6.26A6.26,6.26,0,0,1,6.26,0Z" fill="#74ddf7" opacity="0.711"/>
              </g>
              <g id="Grupo_125203" data-name="Grupo 125203">
                <path id="Rectángulo_37357" data-name="Rectángulo 37357" d="M6.26,0H56.083a6.26,6.26,0,0,1,6.26,6.26V68.045a6.26,6.26,0,0,1-6.26,6.26H6.259A6.259,6.259,0,0,1,0,68.046V6.26A6.26,6.26,0,0,1,6.26,0Z" fill="#74ddf7" opacity="0.68"/>
                <g id="Grupo_125202" data-name="Grupo 125202" transform="translate(3.991 5.631)">
                  <path id="Trazado_185229" data-name="Trazado 185229" d="M-483.363,204.958A15.957,15.957,0,0,0-499.32,189a15.956,15.956,0,0,0-15.956,15.957,15.956,15.956,0,0,0,15.956,15.957A15.957,15.957,0,0,0-483.363,204.958Z" transform="translate(516.672 -160.107)" fill="#fff"/>
                  <path id="Trazado_185230" data-name="Trazado 185230" d="M-517.353,200.77A17.675,17.675,0,0,1-500,186.449a17.7,17.7,0,0,1,4.361.544l-4.361,18.5Z" transform="translate(517.353 -159.27)" fill="#c1ff6e"/>
                  <g id="Grupo_125201" data-name="Grupo 125201" transform="translate(2.38)">
                    <g id="Grupo_125196" data-name="Grupo 125196">
                      <path id="Trazado_185231" data-name="Trazado 185231" d="M-512.794,180.926h49.235a1.017,1.017,0,0,0,1.018-1.016,1.017,1.017,0,0,0-1.018-1.017h-49.235a1.017,1.017,0,0,0-1.018,1.017A1.017,1.017,0,0,0-512.794,180.926Z" transform="translate(513.812 -156.793)" fill="#fff"/>
                      <path id="Trazado_185232" data-name="Trazado 185232" d="M-512.794,164.486h49.235a1.018,1.018,0,0,0,1.018-1.018,1.018,1.018,0,0,0-1.018-1.018h-49.235a1.018,1.018,0,0,0-1.018,1.018A1.018,1.018,0,0,0-512.794,164.486Z" transform="translate(513.812 -151.402)" fill="#fff"/>
                      <path id="Trazado_185233" data-name="Trazado 185233" d="M-512.794,148.045h49.235a1.018,1.018,0,0,0,1.018-1.017,1.017,1.017,0,0,0-1.018-1.016h-49.235a1.017,1.017,0,0,0-1.018,1.016A1.018,1.018,0,0,0-512.794,148.045Z" transform="translate(513.812 -146.012)" fill="#fff"/>
                    </g>
                    <g id="Grupo_125197" data-name="Grupo 125197" transform="translate(33.888 33.174)">
                      <path id="Trazado_185234" data-name="Trazado 185234" d="M-462.375,213.843h15.347a1.017,1.017,0,0,0,1.018-1.016,1.017,1.017,0,0,0-1.018-1.017h-15.347a1.017,1.017,0,0,0-1.018,1.017A1.017,1.017,0,0,0-462.375,213.843Z" transform="translate(463.393 -200.759)" fill="#fff"/>
                      <path id="Trazado_185235" data-name="Trazado 185235" d="M-462.375,197.4h15.347a1.018,1.018,0,0,0,1.018-1.018,1.018,1.018,0,0,0-1.018-1.018h-15.347a1.018,1.018,0,0,0-1.018,1.018A1.018,1.018,0,0,0-462.375,197.4Z" transform="translate(463.393 -195.368)" fill="#fff"/>
                    </g>
                    <g id="Grupo_125198" data-name="Grupo 125198" transform="translate(33.888 55.295)">
                      <path id="Trazado_185236" data-name="Trazado 185236" d="M-462.375,230.313h15.347a1.017,1.017,0,0,0,1.018-1.016,1.018,1.018,0,0,0-1.018-1.018h-15.347a1.018,1.018,0,0,0-1.018,1.018A1.017,1.017,0,0,0-462.375,230.313Z" transform="translate(463.393 -228.279)" fill="#fff"/>
                    </g>
                    <g id="Grupo_125199" data-name="Grupo 125199" transform="translate(68.265)">
                      <path id="Trazado_185237" data-name="Trazado 185237" d="M-411.231,180.926H-362a1.017,1.017,0,0,0,1.018-1.016A1.017,1.017,0,0,0-362,178.893h-49.235a1.017,1.017,0,0,0-1.017,1.017A1.016,1.016,0,0,0-411.231,180.926Z" transform="translate(412.248 -156.793)" fill="#fff"/>
                      <path id="Trazado_185238" data-name="Trazado 185238" d="M-411.231,164.486H-362a1.018,1.018,0,0,0,1.018-1.018A1.018,1.018,0,0,0-362,162.451h-49.235a1.018,1.018,0,0,0-1.017,1.018A1.018,1.018,0,0,0-411.231,164.486Z" transform="translate(412.248 -151.402)" fill="#fff"/>
                      <path id="Trazado_185239" data-name="Trazado 185239" d="M-411.231,148.045H-362a1.018,1.018,0,0,0,1.018-1.017A1.017,1.017,0,0,0-362,146.012h-49.235a1.016,1.016,0,0,0-1.017,1.016A1.017,1.017,0,0,0-411.231,148.045Z" transform="translate(412.248 -146.012)" fill="#fff"/>
                    </g>
                    <g id="Grupo_125200" data-name="Grupo 125200" transform="translate(68.265 33.173)">
                      <path id="Trazado_185240" data-name="Trazado 185240" d="M-411.231,213.842H-362a1.017,1.017,0,0,0,1.018-1.016A1.017,1.017,0,0,0-362,211.809h-49.235a1.017,1.017,0,0,0-1.017,1.017A1.016,1.016,0,0,0-411.231,213.842Z" transform="translate(412.248 -200.758)" fill="#fff"/>
                      <path id="Trazado_185241" data-name="Trazado 185241" d="M-411.231,197.4H-362a1.018,1.018,0,0,0,1.018-1.018A1.018,1.018,0,0,0-362,195.367h-49.235a1.018,1.018,0,0,0-1.017,1.018A1.018,1.018,0,0,0-411.231,197.4Z" transform="translate(412.248 -195.367)" fill="#fff"/>
                    </g>
                  </g>
                </g>
              </g>
            </g>
          </g>
          <g id="Grupo_125207" data-name="Grupo 125207" transform="translate(97.351 35.864)">
            <path id="Trazado_185242" data-name="Trazado 185242" d="M-288.524,113.621a8.54,8.54,0,0,1-8.547,8.532l-86.375-.075a8.538,8.538,0,0,1-8.531-8.546V112.5a8.538,8.538,0,0,1,8.546-8.53l86.375.073a8.539,8.539,0,0,1,8.531,8.546Z" transform="translate(391.976 -103.967)" fill="#ff8900"/>
            <g id="Grupo_125206" data-name="Grupo 125206" transform="translate(6.525 4.055)">
              <path id="Trazado_185243" data-name="Trazado 185243" d="M-371.265,119.288l-8.943-.007a2.065,2.065,0,0,1-2.061-2.064l0-5.156A2.064,2.064,0,0,1-380.2,110l8.943.008a2.064,2.064,0,0,1,2.06,2.063l0,5.157A2.065,2.065,0,0,1-371.265,119.288Zm-8.937-7.9a.68.68,0,0,0-.68.678l0,5.157a.68.68,0,0,0,.679.68l8.943.008a.68.68,0,0,0,.68-.679l0-5.157a.681.681,0,0,0-.679-.68Z" transform="translate(382.268 -110)" fill="#fff"/>
              <path id="Trazado_185244" data-name="Trazado 185244" d="M-375.282,115.9a.689.689,0,0,1-.433-.153l-5.253-4.259a.69.69,0,0,1-.1-.971.691.691,0,0,1,.972-.1l4.826,3.913,4.827-3.758a.69.69,0,0,1,.97.12.693.693,0,0,1-.121.971l-5.259,4.095A.7.7,0,0,1-375.282,115.9Z" transform="translate(381.926 -110.087)" fill="#fff"/>
            </g>
            <path id="Trazado_185245" data-name="Trazado 185245" d="M-331.2,123.173l-28.951-.025a.69.69,0,0,1-.69-.692.691.691,0,0,1,.691-.69l28.952.025a.693.693,0,0,1,.69.693A.691.691,0,0,1-331.2,123.173Z" transform="translate(381.768 -109.803)" fill="#fff"/>
            <path id="Trazado_185246" data-name="Trazado 185246" d="M-303.529,110.623a5.186,5.186,0,0,0-3.783-1.578,5.2,5.2,0,0,0-3.8,1.573,5.2,5.2,0,0,0-1.573,3.789,5.2,5.2,0,0,0,1.566,3.791,5.206,5.206,0,0,0,3.794,1.578,5.282,5.282,0,0,0,2.2-.46.55.55,0,0,0,.293-.224.636.636,0,0,0,.114-.361.629.629,0,0,0-.179-.449.6.6,0,0,0-.445-.186.566.566,0,0,0-.29.079,4.149,4.149,0,0,1-1.692.347,3.978,3.978,0,0,1-2.91-1.212,3.961,3.961,0,0,1-1.2-2.9,3.962,3.962,0,0,1,1.2-2.9,3.977,3.977,0,0,1,2.912-1.206,4.055,4.055,0,0,1,1.577.3,4.293,4.293,0,0,1,1.323.907,4.092,4.092,0,0,1,.9,1.314,4.093,4.093,0,0,1,.3,1.588c0,1.417-.321,2.133-.952,2.133-.115,0-.157-.043-.157-.159v-1.976a2.891,2.891,0,0,0-.883-2.119,2.885,2.885,0,0,0-2.112-.883,2.906,2.906,0,0,0-2.12.878,2.9,2.9,0,0,0-.88,2.118,2.9,2.9,0,0,0,.876,2.12,2.908,2.908,0,0,0,2.119.881,2.95,2.95,0,0,0,1.784-.585,1.221,1.221,0,0,0,1.37.983c1.464,0,2.206-1.139,2.208-3.391A5.2,5.2,0,0,0-303.529,110.623Zm-2.56,5.008a1.705,1.705,0,0,1-.552.374,1.753,1.753,0,0,1-1.354,0,1.757,1.757,0,0,1-.555-.367,1.749,1.749,0,0,1-.372-.555,1.678,1.678,0,0,1-.137-.677,1.7,1.7,0,0,1,.138-.676,1.746,1.746,0,0,1,.373-.552,1.785,1.785,0,0,1,.556-.368,1.739,1.739,0,0,1,.677-.135,1.711,1.711,0,0,1,.675.139,1.734,1.734,0,0,1,.553.376,1.814,1.814,0,0,1,.368.553,1.711,1.711,0,0,1,.135.667,1.7,1.7,0,0,1-.136.667A1.813,1.813,0,0,1-306.089,115.631Z" transform="translate(365.978 -105.632)" fill="#fff"/>
            <path id="Trazado_185247" data-name="Trazado 185247" d="M-265.315,122.772l-28.95-.025a.692.692,0,0,1-.69-.693.69.69,0,0,1,.691-.69l28.951.025a.691.691,0,0,1,.691.692A.692.692,0,0,1-265.315,122.772Z" transform="translate(360.166 -109.671)" fill="#fff"/>
          </g>
        </g>
      </g>
      <g id="Grupo_125258" data-name="Grupo 125258" transform="translate(-574.258 111.32)">
        <g id="Grupo_125236" data-name="Grupo 125236">
          <path id="Trazado_185248" data-name="Trazado 185248" d="M-493.6,275.222c-.013-.063.028-.07.073-.073,2.994.316,4.667,2.311,6.723,3.946a159.112,159.112,0,0,1,13.008,12.2c4.719-4.172,9.609-8.172,14.543-12.131,1.582,1.561,2.983,3.3,4.458,4.97-4.829,6.029-9.862,12.6-16.37,17.393-1.8,1.327-4.173,2.713-6.869,1.387a17.5,17.5,0,0,1-3.288-2.7c-3.109-2.695-5.822-6.293-8.478-9.281C-488.735,284.6-490.453,278.5-493.6,275.222Z" transform="translate(547.813 -184.939)" fill="#c1ff6e" fill-rule="evenodd"/>
          <g id="Grupo_125214" data-name="Grupo 125214" transform="translate(74.499)">
            <g id="Grupo_125210" data-name="Grupo 125210" transform="translate(30.838 97.147)">
              <path id="Trazado_185249" data-name="Trazado 185249" d="M-411.5,296.021a6.572,6.572,0,0,1-1.23-4.184l-1.489-2.065,4.22-3.049a6.661,6.661,0,0,1,9.295,1.519l27.65,38.4a6.667,6.667,0,0,1-1.512,9.293l-4.221,3.039-1.492-2.072a6.643,6.643,0,0,1-3.584-2.48Z" transform="translate(416.45 -285.47)" fill="#35a3be" fill-rule="evenodd"/>
              <path id="Trazado_185250" data-name="Trazado 185250" d="M-388.636,338.368a6.655,6.655,0,0,0,9.292,1.511,6.664,6.664,0,0,0,1.514-9.293l-27.648-38.4a6.65,6.65,0,0,0-9.291-1.507,6.656,6.656,0,0,0-1.52,9.284Z" transform="translate(417.537 -286.766)" fill="#1d7e96" fill-rule="evenodd"/>
            </g>
            <g id="Grupo_125211" data-name="Grupo 125211" transform="translate(0 55.214)">
              <path id="Trazado_185251" data-name="Trazado 185251" d="M-429.822,250.9c-7.476-11.655-9.429-23.735-4.368-27a.054.054,0,0,0,.018-.015l.009,0c.07-.041.145-.078.214-.117,5.147-2.932,15.141,3.854,22.519,15.344,7.478,11.666,9.43,23.753,4.359,27.011a4.674,4.674,0,0,1-.6.329c-5.247,2.409-14.944-4.318-22.146-15.544" transform="translate(454.758 -223.082)" fill="#00a593"/>
              <path id="Trazado_185252" data-name="Trazado 185252" d="M-463.417,271.447a11.886,11.886,0,0,0,11.987,11.776,11.881,11.881,0,0,0,12.3-11.444,11.893,11.893,0,0,0-11.984-11.787,11.89,11.89,0,0,0-12.307,11.455" transform="translate(463.418 -235.183)" fill="#ff8900" fill-rule="evenodd"/>
              <path id="Trazado_185253" data-name="Trazado 185253" d="M-459.376,235.458c0-.01,0-.01.009-.014l.119-.084a1.738,1.738,0,0,1,.2-.138,1.2,1.2,0,0,0,.125-.076c2.294-1.509,12.881-8.5,16.578-10.849-5.061,3.269-3.108,15.349,4.368,27,7.2,11.227,16.9,17.953,22.146,15.544l-15.345,9.973a4.248,4.248,0,0,1-.778.634,6.115,6.115,0,0,1-.843.427l-.006.009,0-.006c-5.309,2.084-14.807-4.609-21.888-15.651-7.322-11.393-9.343-23.214-4.68-26.773" transform="translate(462.914 -223.48)" fill="#ccfff9"/>
              <path id="Trazado_185254" data-name="Trazado 185254" d="M-418.261,281.711l-15.857,11.453a32.341,32.341,0,0,1-6.586-5.188l15.55-12.155a36.255,36.255,0,0,0,6.893,5.891" transform="translate(455.971 -240.373)" fill="#89fff2"/>
              <path id="Trazado_185255" data-name="Trazado 185255" d="M-433.242,265.8q1.111,1.682,2.291,3.207l-15.941,11.9c-.807-1-1.6-2.031-2.377-3.142Z" transform="translate(458.779 -237.089)" fill="#89fff2"/>
            </g>
            <g id="Grupo_125212" data-name="Grupo 125212" transform="translate(59.625)">
              <path id="Trazado_185256" data-name="Trazado 185256" d="M-330.948,223.29c.184-.013.364-.032.544-.055.7-.252,1.452-.409,2.146-.649.161-.072.325-.139.487-.206a7.142,7.142,0,0,0,.9-.589c7.969-6.106,4.655-28.817-7.4-50.732s-28.285-34.7-36.247-28.605a8.539,8.539,0,0,0-2.185,2.91c-4.685,8.641-1.042,28.525,9.575,47.819C-352.864,211.83-339.581,223.873-330.948,223.29Z" transform="translate(374.709 -140.935)" fill="#1d7e96"/>
              <path id="Trazado_185257" data-name="Trazado 185257" d="M-365.74,201.451c1.37-1.406,3.519-1.869,6.026-1.3,9.542,2.178,16.625,20.584,8.3,27.679a114.4,114.4,0,0,1-8.159-13.059,122.8,122.8,0,0,1-6.17-13.322" transform="translate(371.768 -160.272)" fill="#ff8900"/>
            </g>
            <g id="Grupo_125213" data-name="Grupo 125213" transform="translate(22.25 2.164)">
              <path id="Trazado_185258" data-name="Trazado 185258" d="M-348.875,224.326l.173-.011c.665-.247,1.38-.4,2.052-.622-7.459-1.988-15.959-7.757-23.778-16.287a93.626,93.626,0,0,1-9.718-12.659,77.819,77.819,0,0,1-7.037-13.116c-5.758-14.531-8.026-29.524-2.584-37.024,0-.126.36-.454.327-.453-2.284,3.064-3.027,5.972-3.833,9.148a91.47,91.47,0,0,1-16.294,34.261,72.477,72.477,0,0,1-15.843,15.2c-1.389.975-3.312,2.491-3.312,2.491a.057.057,0,0,0-.014.042c-3.037,2.66-1.591,10.771,3.445,18.61,5.05,7.862,11.846,12.574,15.526,10.887l0,0a17.7,17.7,0,0,0,2.566-1.327c11.953-6.744,29.956-10.883,48.615-9.755,3.114.2,6.142.464,9.173.653A4.79,4.79,0,0,1-348.875,224.326Z" transform="translate(430.314 -144.154)" fill="#f6f6f6"/>
              <path id="Trazado_185259" data-name="Trazado 185259" d="M-424.257,207.147c-1.387.977-3.321,2.5-3.321,2.5,0,.018-.005.019,0,.038-1.448,1.258-1.869,3.775-1.377,6.9-1.831-5.085-1.856-9.469.223-11.283a.056.056,0,0,1,.014-.042s1.923-1.516,3.312-2.491a71.94,71.94,0,0,0,15.836-15.218,91.237,91.237,0,0,0,16.3-34.242c.8-3.181,1.5-6.721,3.835-9.146.02-.022-.41.453-.413.579-2.749,3.78-3.3,8.842-2.864,15.384A90.846,90.846,0,0,1-408.42,191.94a71.711,71.711,0,0,1-15.837,15.207" transform="translate(430.314 -144.157)" fill="#89fff2"/>
              <path id="Trazado_185260" data-name="Trazado 185260" d="M-343.392,260.456l.173-.011c.672-.249,1.4-.407,2.074-.63a37.364,37.364,0,0,1-10.231-4.681c-3.007-.19-6.022-.45-9.1-.641-18.653-1.141-38.115,4.707-50.076,11.455a17.157,17.157,0,0,1-2.554,1.329h0a2.541,2.541,0,0,1-.481.151c3.528,3.128,7.021,4.559,9.31,3.5l0,0a17.284,17.284,0,0,0,2.56-1.329c11.959-6.742,29.961-10.881,48.621-9.753,3.114.2,6.141.464,9.171.653A4.842,4.842,0,0,1-343.392,260.456Z" transform="translate(424.832 -180.283)" fill="#89fff2"/>
            </g>
          </g>
          <g id="Grupo_125235" data-name="Grupo 125235" transform="translate(0 68.127)">
            <g id="Grupo_125223" data-name="Grupo 125223" transform="translate(0 55.768)">
              <g id="Grupo_125217" data-name="Grupo 125217" transform="translate(0 69.786)">
                <g id="Grupo_125215" data-name="Grupo 125215" transform="translate(2.983)">
                  <path id="Trazado_185261" data-name="Trazado 185261" d="M-563.179,429.092l3.746,5.1-5.957,5.237-4.431-6.238Z" transform="translate(569.82 -429.092)" fill="#f2a8a0" fill-rule="evenodd"/>
                </g>
                <g id="Grupo_125216" data-name="Grupo 125216" transform="translate(0 2.156)">
                  <path id="Trazado_185262" data-name="Trazado 185262" d="M-563.718,437.945c-.188-.239-.786-1.125-1.335-1.221-.568-.1-1.046.369-1.752.833-1.1-1.708.226-3.3-1.682-5.259a42.267,42.267,0,0,0-5.77,3.686c3.049,4.483,6.383,9.016,9.542,13.518a5.026,5.026,0,0,0,.9-1.22,4.955,4.955,0,0,0,.007-3.7c-.522-1.705-1.252-3.62-.657-5.222A10.488,10.488,0,0,1-563.718,437.945Z" transform="translate(574.258 -432.299)" fill="#ff8900" fill-rule="evenodd"/>
                  <path id="Trazado_185263" data-name="Trazado 185263" d="M-561.726,448.107c.145.508.312,1.014.46,1.5a4.955,4.955,0,0,1-.007,3.7,5.025,5.025,0,0,1-.9,1.22c-1.419-2.023-2.873-4.05-4.32-6.079A4.785,4.785,0,0,1-561.726,448.107Z" transform="translate(571.711 -437.325)" fill="#ffbf76"/>
                  <path id="Trazado_185264" data-name="Trazado 185264" d="M-572.361,439.3q-.961-1.376-1.9-2.746c1.239-.893,2.476-1.767,3.687-2.521A5.482,5.482,0,0,1-572.361,439.3Z" transform="translate(574.258 -432.868)" fill="#ffbf76"/>
                </g>
              </g>
              <g id="Grupo_125220" data-name="Grupo 125220" transform="translate(74.797 75.921)">
                <g id="Grupo_125218" data-name="Grupo 125218">
                  <path id="Trazado_185265" data-name="Trazado 185265" d="M-462.975,440.737l5.81-2.518,3.778,6.975-7.069,2.93Z" transform="translate(462.975 -438.219)" fill="#f2a8a0" fill-rule="evenodd"/>
                </g>
                <g id="Grupo_125219" data-name="Grupo 125219" transform="translate(1.243 3.361)">
                  <path id="Trazado_185266" data-name="Trazado 185266" d="M-454.56,443.219c-.274.131-1.27.518-1.489,1.03-.226.532.128,1.1.424,1.894-1.908.69-3.166-.954-5.5.471a42.155,42.155,0,0,0,2.309,6.445c5.05-1.974,10.211-4.216,15.3-6.293a4.972,4.972,0,0,0-.99-1.142,4.97,4.97,0,0,0-3.609-.835c-1.777.132-3.807.416-5.235-.52A10.247,10.247,0,0,1-454.56,443.219Z" transform="translate(461.125 -443.219)" fill="#ff8900" fill-rule="evenodd"/>
                  <path id="Trazado_185267" data-name="Trazado 185267" d="M-444.6,445.659c.528-.03,1.056-.08,1.563-.118a4.97,4.97,0,0,1,3.609.835,4.973,4.973,0,0,1,.99,1.142c-2.287.932-4.589,1.9-6.888,2.859A4.781,4.781,0,0,1-444.6,445.659Z" transform="translate(456.048 -443.971)" fill="#ffbf76"/>
                  <path id="Trazado_185268" data-name="Trazado 185268" d="M-455.388,454.593q-1.555.63-3.1,1.237c-.593-1.407-1.17-2.806-1.635-4.158A5.493,5.493,0,0,1-455.388,454.593Z" transform="translate(460.796 -445.99)" fill="#ffbf76"/>
                </g>
              </g>
              <g id="Grupo_125222" data-name="Grupo 125222" transform="translate(7.229)">
                <path id="Trazado_185269" data-name="Trazado 185269" d="M-486.992,400.922a94.117,94.117,0,0,1-12.646,5.1c-1.832-4.034-3.49-8.168-5.241-12.492-2.551-6.3-3.947-13.9-5.208-21.566a56.464,56.464,0,0,0-1.506-7.467c-1.388-4.507-3.652-8.381-5.237-12.422.469,3.319,1.113,6.93,1.565,10.464a29.069,29.069,0,0,1,.4,5.614c-.358,4.973-3.3,8.285-6.077,11.317a57.586,57.586,0,0,1-6.262,5.548c-4.329,3.526-9.129,6.672-13.9,9.839-4.788,3.181-9.616,6.393-14.587,9.138a4.946,4.946,0,0,1-1.084-1.34,99.621,99.621,0,0,1-6.729-9.794,47.436,47.436,0,0,1,3.792-3.534,344.036,344.036,0,0,1,28.158-22.986c-1.791-5.763-3.293-12.528-4.656-19.031-1.274-6.08-3.282-14.453-.52-19.8,6.095-.71,12.874-1.452,18.849-2.161.124-.015.155-.1.289-.085.484.034,1.174.924,1.681,1.606a60.75,60.75,0,0,1,3.785,6.122c1.586,2.83,3.092,5.831,4.626,8.571,3.232,5.768,6.529,11.118,8.975,17.447C-493.606,371.745-490.34,386.565-486.992,400.922Z" transform="translate(563.503 -325.265)" fill="#636363" fill-rule="evenodd"/>
                <g id="Grupo_125221" data-name="Grupo 125221" transform="translate(0 1.847)">
                  <path id="Trazado_185270" data-name="Trazado 185270" d="M-548.131,385.834c2.5-2.108,5.107-4.132,7.62-6.266,1.248-1.059,2.513-2.086,3.811-3.1,2.526-1.965,5.393-4.236,6.781-7.033,1.641-3.3.592-8.113-.171-11.988-1.178-5.987-2.528-11.645-3.509-17.912a34.8,34.8,0,0,1-.513-6.561,19.636,19.636,0,0,1,.859-4.965c-1.176.134-2.339.267-3.477.4-2.762,5.347-.754,13.72.52,19.8,1.363,6.5,2.865,13.269,4.656,19.031a344.043,344.043,0,0,0-28.158,22.986,47.441,47.441,0,0,0-3.792,3.534c.738,1.289,1.535,2.539,2.359,3.755,1.924-1.7,3.806-3.435,5.7-5.14C-553.016,390.193-550.637,387.952-548.131,385.834Z" transform="translate(563.503 -328.012)" fill="#404040"/>
                  <path id="Trazado_185271" data-name="Trazado 185271" d="M-487.978,379.913c1.262,7.665,2.657,15.266,5.208,21.566,1.751,4.325,3.409,8.458,5.241,12.492,1.28-.4,2.526-.832,3.75-1.285-1.49-4.633-3.419-9.18-4.95-14.043a106.957,106.957,0,0,1-4.378-17.726,52.1,52.1,0,0,0-1.872-9.133c-.888-2.627-2.045-5.173-3.2-7.757-1.661-3.718-3.173-7.713-4.974-11.409-.5-1.036-1.42-3.08-2.334-3.114a.309.309,0,0,0-.285.159c-.649.712-.07,3.278.136,4.676.3,2.008.562,3.966.942,5.757,1.584,4.015,3.829,7.87,5.209,12.35A56.47,56.47,0,0,1-487.978,379.913Z" transform="translate(541.394 -335.058)" fill="#404040"/>
                </g>
              </g>
            </g>
            <g id="Grupo_125234" data-name="Grupo 125234" transform="translate(31.203)">
              <path id="Trazado_185272" data-name="Trazado 185272" d="M-502.044,311.894a48.083,48.083,0,0,1-10.962,4.239,51.966,51.966,0,0,1-6.8.8,33.847,33.847,0,0,1-7.162-.073c-1.761-9.892-.785-21.184,2.338-28.865a28.95,28.95,0,0,1,6.577-9.939c2.752-2.752,6.083-5.348,10.816-5.626,5.588-.331,7.884,4.85,8.185,9.939a28.515,28.515,0,0,1-1.022,8.111c-1.2,5.07-2.888,10.11-2.924,15.346A19.5,19.5,0,0,0-502.044,311.894Z" transform="translate(527.834 -252.17)" fill="#a9f73f" fill-rule="evenodd"/>
              <g id="Grupo_125231" data-name="Grupo 125231" transform="translate(3.514)">
                <g id="Grupo_125227" data-name="Grupo 125227" transform="translate(15.658)">
                  <g id="Grupo_125226" data-name="Grupo 125226" transform="translate(0.055 1.883)">
                    <path id="Trazado_185273" data-name="Trazado 185273" d="M-496.3,256.962c-.657,1.585-2.906,6.659-2.906,6.659-.477,1.612,7.269,6.139,8.1,3.935.595-1.57,1.42-3.458,2.023-4.974,1.8.891,3.709.952,4.78-.167a3.479,3.479,0,0,0,.737-1.586,11.563,11.563,0,0,0-.063-3.6,37.661,37.661,0,0,0-1.307-6.649,6.542,6.542,0,0,0-3.966-4.794,7.03,7.03,0,0,0-4.02-.613,6.669,6.669,0,0,0-5.091,5.157C-498.761,253.1-497.55,254.957-496.3,256.962Z" transform="translate(499.227 -245.095)" fill="#f2a8a0" fill-rule="evenodd"/>
                    <g id="Grupo_125224" data-name="Grupo 125224" transform="translate(8.024 16.013)">
                      <path id="Trazado_185274" data-name="Trazado 185274" d="M-485.166,270.393l-2.123-1.473,1.321,3.508Z" transform="translate(487.289 -268.92)" fill="#d16e66" fill-rule="evenodd"/>
                    </g>
                    <g id="Grupo_125225" data-name="Grupo 125225" transform="translate(9.33 6.999)">
                      <path id="Trazado_185275" data-name="Trazado 185275" d="M-477.411,255.935c-.009.2-.633.331-1.391.3s-1.365-.223-1.36-.421.636-.329,1.394-.3,1.366.223,1.358.421" transform="translate(483.646 -255.508)" fill="#031faa" fill-rule="evenodd"/>
                      <path id="Trazado_185276" data-name="Trazado 185276" d="M-482.666,255.99c.048.192-.515.489-1.255.665s-1.375.157-1.422-.034.52-.489,1.259-.664,1.375-.162,1.418.034" transform="translate(485.346 -255.615)" fill="#031faa" fill-rule="evenodd"/>
                      <path id="Trazado_185277" data-name="Trazado 185277" d="M-477.354,259.006c.023.341-.158.629-.405.647s-.467-.243-.491-.584.157-.626.4-.643.467.243.491.58" transform="translate(483.02 -256.464)" fill="#031faa" fill-rule="evenodd"/>
                      <path id="Trazado_185278" data-name="Trazado 185278" d="M-483.214,259.722c.023.339-.157.628-.4.647s-.468-.245-.493-.583.157-.626.406-.646.467.244.491.581" transform="translate(484.941 -256.699)" fill="#031faa" fill-rule="evenodd"/>
                      <path id="Trazado_185279" data-name="Trazado 185279" d="M-480.023,263.216a.122.122,0,0,0,.04-.007,1.085,1.085,0,0,0,.732-.5c.283-.489.087-1.176-.16-2.049a11.9,11.9,0,0,1-.42-1.863.23.23,0,0,0-.255-.2.226.226,0,0,0-.2.254,12.6,12.6,0,0,0,.433,1.93c.21.738.391,1.377.206,1.7a.666.666,0,0,1-.45.282.228.228,0,0,0-.165.278.227.227,0,0,0,.237.169" transform="translate(483.687 -256.522)" fill="#d16e66"/>
                      <path id="Trazado_185280" data-name="Trazado 185280" d="M-480.467,267.833a3.058,3.058,0,0,0,.763-.164.232.232,0,0,0,.139-.292.228.228,0,0,0-.289-.139c-1.266.441-1.733-.279-1.754-.307a.228.228,0,0,0-.313-.075.228.228,0,0,0-.077.311,1.625,1.625,0,0,0,1.531.667" transform="translate(484.259 -259.217)" fill="#d16e66"/>
                    </g>
                  </g>
                  <path id="Trazado_185281" data-name="Trazado 185281" d="M-485.634,243.971a14.855,14.855,0,0,1,2.459-.747c.79-.2,1.829-.712,2.537-.1-.082.907-.866,1.046-1.362,1.5.94-.034,2.093-.552,3.249-.335,1.38.259.679,1.431-.04,2.045a12.949,12.949,0,0,1-4.528,2.324c-2.6.752-5.726.291-8.414.2-.223.83-.473,3.25-.7,4.078-.065.215-.2-.11-.21-.116a1.6,1.6,0,0,0-1-.479c-1.863-.046-1.341,3.521.548,3.259-.52,1.2-.911,2.633-2.748,2.35a2.81,2.81,0,0,1-1.683-.886c-2.479-3.323-2.141-9.943-.407-11.617a4.444,4.444,0,0,1,3.07-1.15,12.162,12.162,0,0,1,.966-1.088C-491.792,241.595-487.208,242.281-485.634,243.971Z" transform="translate(499.31 -242.294)" fill="#12263f" fill-rule="evenodd"/>
                </g>
                <g id="Grupo_125230" data-name="Grupo 125230" transform="translate(0 17.83)">
                  <g id="Grupo_125229" data-name="Grupo 125229">
                    <g id="Grupo_125228" data-name="Grupo 125228">
                      <path id="Trazado_185282" data-name="Trazado 185282" d="M-513.793,268.888c5.38-.825,14.4,6.26,14.362,7.041-.037.807-7.054-1.992-12.973,1.143-2.268,1.2-4.58,2.572-7.161,3.8-.672.321-2.136,1.058-2.7.584C-524.2,279.85-517.354,269.434-513.793,268.888Z" transform="translate(522.605 -268.821)" fill="#8dd52c" fill-rule="evenodd"/>
                    </g>
                    <path id="Trazado_185283" data-name="Trazado 185283" d="M-500.744,271.672c-2.88-1.709-6.363-3.187-8.984-2.785a2.609,2.609,0,0,0-.478.13c.854.682,3.415,1.561,6.516,2.182C-502.647,271.407-501.65,271.564-500.744,271.672Z" transform="translate(518.54 -268.821)" fill="#75b51d"/>
                  </g>
                  <path id="Trazado_185284" data-name="Trazado 185284" d="M-488.153,278.574c-.3-.4.786-1.7,1.091-1.683.335.02.2,1.071,0,1.342C-487.231,278.463-487.98,278.8-488.153,278.574Z" transform="translate(511.327 -271.467)" fill="#c987b6" fill-rule="evenodd"/>
                </g>
              </g>
              <g id="Grupo_125233" data-name="Grupo 125233" transform="translate(14.407 24.028)">
                <g id="Grupo_125232" data-name="Grupo 125232">
                  <path id="Trazado_185285" data-name="Trazado 185285" d="M-442.233,296.861c-.167.031-2.568,1.475-4.753,2.767a6,6,0,0,0-.809-4.381c2.242-1.081,4.79-2.408,5.657-3.387a18.464,18.464,0,0,1,2.047-2.178c.577-.464,1.3-.653,2.063-1.172.554-.376,1.6-1.4,2.064-1.038.487.388-.076,1.24-.677,1.858a6.966,6.966,0,0,0-1.581,1.9c.291.092.6.188.91.288a4.14,4.14,0,0,0,1.814.241c1.562-.1,3.017-.358,4.523-.436a6.529,6.529,0,0,1,1.816.108c.136.054.336.327-.059.672a3.609,3.609,0,0,1-1.469.491c-1.059.222-1.994.306-2.947.445a2.756,2.756,0,0,0-1.4.36c.216.239.553.161.808.188,1.458.145,2.707.256,4.2.307.321.011,1.949.192,1.864.68-.109.646-1.444.588-1.847.595-1.569.023-3.374-.087-4.645-.005-.027-.008-.057,0-.086-.028l-.032.038c.038-.005.079-.008.118-.011a.048.048,0,0,1,.015.007c1.45.331,2.749.762,4.378,1.075.47.09,1.278.384,1.385.617.335.727-1.072.657-1.6.627-1.84-.1-3.835-.532-5.446-.656,1.093.978,2.312,1.857,3.361,2.667.378.292,1.04.714.956,1.059-.171.688-1.122.227-1.544.023-.529-.257-1.083-.655-1.557-.917-.491-.27-1.036-.53-1.557-.848a12.394,12.394,0,0,0-1.558-.983,6.337,6.337,0,0,0-1.076-.186c-.734-.156-1.517-.382-2.222-.572A3.363,3.363,0,0,0-442.233,296.861Z" transform="translate(487.185 -281.109)" fill="#f2a8a0" fill-rule="evenodd"/>
                  <path id="Trazado_185286" data-name="Trazado 185286" d="M-484.26,297.078a167.567,167.567,0,0,1,20.176-7.6c.9,2.022,1.793,4.039,2.582,6.2-5.646,3.186-9.673,6.434-15.672,9.171a23.382,23.382,0,0,1-6.5,2.033,11.866,11.866,0,0,1-8.948-2.712,34.557,34.557,0,0,1-6.209-6.275,38.475,38.475,0,0,1-4.967-7.929,32.149,32.149,0,0,1-1.931-4.745c-.51-1.786-.988-3.952-.391-5.332a4.046,4.046,0,0,1,1.974-1.684,5.58,5.58,0,0,1,3.514.311,14.03,14.03,0,0,1,4.753,3.825C-491.88,286.81-487.818,292.48-484.26,297.078Z" transform="translate(506.399 -278.043)" fill="#c1ff6e" fill-rule="evenodd"/>
                </g>
                <path id="Trazado_185287" data-name="Trazado 185287" d="M-474.875,305.771l-2.9.782,1.966-2Z" transform="translate(497.014 -286.736)" fill="#8dd52c" fill-rule="evenodd"/>
              </g>
            </g>
          </g>
        </g>
        <g id="Grupo_125238" data-name="Grupo 125238" transform="translate(150.423 3.882)">
          <path id="Trazado_185288" data-name="Trazado 185288" d="M-313.09,189.65c-3.71-1.276-7.515-1.056-11.131-.938,5.567-8.316,13.107-13.73,21.772-17.485,1.642-.758,1.033-3.041-.936-2.234-9.686,4.193-18.009,10.393-23.958,20.089-6.382.97-14.86,4.864-22.435,9.314-1.537,1.151-.205,2.826,1.345,1.969,6.814-4.06,14.251-7.622,19.752-8.563-2.115,4.056-2.678,9.527-1.51,12.954a10.77,10.77,0,0,0,8.462,7.5,14.229,14.229,0,0,0,10.657-2.426,13.242,13.242,0,0,0,6.014-9.267C-304.42,195.087-308.133,191.355-313.09,189.65Zm5.526,11.176a11.089,11.089,0,0,1-4.756,6.977,12.269,12.269,0,0,1-7.937,2.2,8.769,8.769,0,0,1-6.523-3.629,10.408,10.408,0,0,1-1.55-7.068,21.445,21.445,0,0,1,2.57-7.99c4.089-.432,10.292-.719,14.462,1.8C-308.7,194.687-306.88,197.2-307.565,200.825Z" transform="translate(350.459 -153.961)" fill="#00a593" fill-rule="evenodd"/>
          <g id="Grupo_125237" data-name="Grupo 125237" transform="translate(52.482)">
            <path id="Trazado_185289" data-name="Trazado 185289" d="M-234.475,148.8l-37.9-2.094,7.319,11.938,1.7,12.851Z" transform="translate(272.376 -146.711)" fill="#c1ff6e" fill-rule="evenodd"/>
            <path id="Trazado_185290" data-name="Trazado 185290" d="M-234.368,149.826l-31.867,7.735-5.817,4.41,7.349.076Z" transform="translate(272.27 -147.732)" fill="#8dd52c" fill-rule="evenodd"/>
          </g>
        </g>
        <g id="Grupo_125240" data-name="Grupo 125240" transform="translate(13.572 56.657)">
          <path id="Trazado_185291" data-name="Trazado 185291" d="M-308.386,394.065c.661.325,1.676-.01,2.676-.419l.1-.039a19.009,19.009,0,0,0,7.313-4.923,18.284,18.284,0,0,0,1.8-2.339,22.025,22.025,0,0,0,2.923-7.817,28.991,28.991,0,0,0,12.81,1.319,26.154,26.154,0,0,0,13.308-4.995,28.843,28.843,0,0,0,6.022-6.538,30.428,30.428,0,0,0,5.557-13.769,17.52,17.52,0,0,0-.117-5.159c-.009-.053-.018-.113-.027-.175-.073-.5-.245-1.659-1.4-1.777a.727.727,0,0,0-.494.13,1.3,1.3,0,0,0-.341.351,1.751,1.751,0,0,0-.069,1.491,1.752,1.752,0,0,1,.05.186,20.108,20.108,0,0,1-.981,9.465,28.877,28.877,0,0,1-2.535,5.563,33.573,33.573,0,0,1-4.07,5.616,22.036,22.036,0,0,1-13.68,7.131,26.809,26.809,0,0,1-13.7-1.2c.012-.14.035-.293.06-.457a6.949,6.949,0,0,0,.087-.737,29.991,29.991,0,0,0-.248-5.185,12.106,12.106,0,0,0-2.883-7.045,7.258,7.258,0,0,0-5.548-2.425,3.79,3.79,0,0,0-2.916,1.778,4.824,4.824,0,0,0-.339.62,3.92,3.92,0,0,0-.259.926c-.012.071-.027.143-.042.211-1.036,4.93,4.229,11.319,9.594,13.777-.016.081-.04.169-.065.26-.031.119-.062.236-.086.35a19.059,19.059,0,0,1-2.568,6.827,15.684,15.684,0,0,1-1.166,1.576,16.512,16.512,0,0,1-7.951,5.165l-.1.03a1.878,1.878,0,0,0-1.132.68,1.088,1.088,0,0,0-.13.891A1.026,1.026,0,0,0-308.386,394.065Zm5.192-28.813a3.91,3.91,0,0,1,.319-1.674,1.683,1.683,0,0,1,1.313-.96,4.718,4.718,0,0,1,3.321,1.376c1.824,1.665,2.293,3.851,2.615,5.946a22.393,22.393,0,0,1,.185,4.7c-.008.137-.009.276-.012.415,0,.051,0,.1,0,.153C-299.425,373.142-303.078,368.525-303.194,365.252Z" transform="translate(473.709 -265.295)" fill="#00a593"/>
          <path id="Trazado_185292" data-name="Trazado 185292" d="M-531.682,225.809c1.59-1.43,2.945.069,1.688,1.426a91.508,91.508,0,0,0-7.243,8.133,71.1,71.1,0,0,0-10.632,20.857,76.826,76.826,0,0,0-3.2,13.038,72.708,72.708,0,0,0,1.261,26.584,76.639,76.639,0,0,0,13.738,30.239,71.79,71.79,0,0,0,6.936,8.147,63.086,63.086,0,0,0,30.042,16.956,77.639,77.639,0,0,0,14.192,2c9.622.557,17.938-.419,24.884-3.276a22.089,22.089,0,0,1-3.012-7.736c-1.09-6.611,1.69-13.642,5.964-16.276a9.322,9.322,0,0,1,8.679-.782,9.24,9.24,0,0,1,5.179,5.979,12.127,12.127,0,0,1-1.176,9.134c-2.693,4.909-7.113,8.144-11.756,10.527a15.558,15.558,0,0,0,3.548,3.311,41.825,41.825,0,0,0,4.278,2.652,33.267,33.267,0,0,0,10.483,3.742,32.407,32.407,0,0,0,11.8-.456,49.2,49.2,0,0,0,9.6-3.257c2.162-.773,2.466,1.359.8,2.213-.288.391-.831.434-1.239.606a43.854,43.854,0,0,1-9.27,2.924,35.188,35.188,0,0,1-12.959.261,36.494,36.494,0,0,1-11.083-4.319,31.329,31.329,0,0,1-8.355-6.531c-7.19,3.136-15.676,4.152-25.526,3.8a72.291,72.291,0,0,1-27.277-6.159c-14.7-6.793-25.086-17.924-32.415-30.8a76.969,76.969,0,0,1-8.292-21.882,81.373,81.373,0,0,1-1.49-27.2,69.2,69.2,0,0,1,3.2-13.7,84.373,84.373,0,0,1,4.751-11.7A59.146,59.146,0,0,1-531.682,225.809ZM-450.339,343.8c2.019-1.9,4.417-4.52,5.009-7.852a7.719,7.719,0,0,0-.639-5.136,6.148,6.148,0,0,0-6.047-4.013,7.378,7.378,0,0,0-5.663,2.862c-2.631,3.114-3.934,8.92-2.672,13.608a14.863,14.863,0,0,0,2.723,5.574A27.475,27.475,0,0,0-450.339,343.8Z" transform="translate(554.066 -225.229)" fill="#00a593" fill-rule="evenodd"/>
          <g id="Grupo_125239" data-name="Grupo 125239" transform="translate(140.91 110.098)">
            <path id="Trazado_185293" data-name="Trazado 185293" d="M-326.578,442.711c0,.884-2.533,1.6-5.658,1.6s-5.659-.715-5.659-1.6,2.534-1.6,5.659-1.6S-326.578,441.829-326.578,442.711Z" transform="translate(342.281 -406.108)" fill="#ff8900"/>
            <path id="Trazado_185294" data-name="Trazado 185294" d="M-324.571,399.364c-.153-5.62-4.511-10.331-9.921-10.331s-9.767,4.712-9.921,10.331c-.275,9.888,8.806,25.727,9.921,25.775C-333.378,425.091-324.3,409.252-324.571,399.364Zm-9.921,6.172a4.814,4.814,0,0,1-4.536-5.078,4.808,4.808,0,0,1,4.536-4.853,4.806,4.806,0,0,1,4.536,4.853A4.812,4.812,0,0,1-334.493,405.536Z" transform="translate(344.42 -389.033)" fill="#ff8900"/>
          </g>
        </g>
        <g id="Grupo_125257" data-name="Grupo 125257" transform="translate(198.355 43.148)">
          <g id="Grupo_125247" data-name="Grupo 125247" transform="translate(37.148 74.147)">
            <g id="Grupo_125242" data-name="Grupo 125242" transform="translate(34.838 66.208)">
              <g id="Grupo_125241" data-name="Grupo 125241" transform="translate(0.205)">
                <path id="Trazado_185295" data-name="Trazado 185295" d="M-171.74,415.792s3.314,8.58,2.826,9.866c0,0,2.283.45,4.66-3.325l-2.431-8.382Z" transform="translate(171.74 -413.951)" fill="#f2a8a0" fill-rule="evenodd"/>
                <path id="Trazado_185296" data-name="Trazado 185296" d="M-166.514,414.27c-.05,1.231-2.706,3.237-4.892,2.283Z" transform="translate(171.63 -414.056)" fill="#dbaf91" fill-rule="evenodd"/>
              </g>
              <path id="Trazado_185297" data-name="Trazado 185297" d="M-159.271,429.768c-1.384-3.406-4.966-11.041-5.334-11.481-1.143.3-5.739,2.223-6.87,2.586-.033.026-.067.051-.1.076.894,2.821,2.572,6.061,2.256,8.7-.214,1.789-1.984,3.4-2.685,5.233a2.264,2.264,0,0,0,.434,1.72l9.142-4.264a18.865,18.865,0,0,0-.4-2.058c-.2-1.191-.5-2.038.141-3.113.374.891.827,1.731,1.221,2.621.251.569.468,1.18.774,1.739l1.709-.8A4.117,4.117,0,0,0-159.271,429.768Z" transform="translate(172.045 -415.373)" fill="#75b51d"/>
            </g>
            <g id="Grupo_125244" data-name="Grupo 125244" transform="translate(0 70)">
              <g id="Grupo_125243" data-name="Grupo 125243" transform="translate(6.467)">
                <path id="Trazado_185298" data-name="Trazado 185298" d="M-212.536,419.592s-.722,9.169-1.719,10.118c0,0,1.864,1.393,5.64-.983l1.432-8.609Z" transform="translate(214.255 -419.592)" fill="#f2a8a0" fill-rule="evenodd"/>
                <path id="Trazado_185299" data-name="Trazado 185299" d="M-206.422,420.671c-.577,1.09-3.839,1.75-5.4-.056Z" transform="translate(213.457 -419.927)" fill="#dbaf91" fill-rule="evenodd"/>
              </g>
              <path id="Trazado_185300" data-name="Trazado 185300" d="M-209.787,438.033c.226-3.669.3-12.1.155-12.659-1.161-.223-6.135-.478-7.313-.64l-.122.026c-.414,2.931-.3,6.577-1.731,8.825-.966,1.52-3.257,2.2-4.683,3.556a2.264,2.264,0,0,0-.354,1.74l10.087.108a18.634,18.634,0,0,0,.53-2.028c.333-1.162.435-2.051,1.473-2.746-.048.966,0,1.919-.032,2.892-.019.621-.087,1.266-.056,1.9l1.887.018A4.1,4.1,0,0,0-209.787,438.033Z" transform="translate(223.877 -421.278)" fill="#75b51d"/>
            </g>
            <g id="Grupo_125246" data-name="Grupo 125246" transform="translate(1.644)">
              <path id="Trazado_185301" data-name="Trazado 185301" d="M-193.026,315.45c.325.092.133.419.287.682a20.277,20.277,0,0,1,2.721,11.616c-.1,1.6-.343,3.172-.323,4.815.089,6.6-.153,13.59.288,19.79a13.754,13.754,0,0,0,.854,4.238c1.412,3.559,2.952,7.333,4.327,10.93A138.543,138.543,0,0,1-180,382.986c-3.172,1.017-6.267,2.12-9.431,3.149a4.089,4.089,0,0,1-.76-1.185c-1.569-2.83-3.164-5.862-4.695-8.8-1.748-3.369-3.427-6.821-4.95-10.459-1.506-3.6-3.125-7.237-3.382-11.942-.246-4.53-1-12.984-1.186-18.064-.79,1.354-2.994,11.262-3.189,13.115a31.716,31.716,0,0,0,.038,5.008c.258,4.78.8,9.3,1.061,14.073.366,6.537.049,13.24.036,20.089-3.794-.079-7.537-.1-11.173-.016-1.056-11.576-2.763-23.328-3.7-35.153a50.778,50.778,0,0,1,.335-9.514c.989-9,2.672-17.8,3.338-26.951,7.916-.5,16.107-.708,24.444-.766C-193.148,315.531-193.144,315.429-193.026,315.45Z" transform="translate(221.431 -315.447)" fill="#35a3be" fill-rule="evenodd"/>
              <g id="Grupo_125245" data-name="Grupo 125245" transform="translate(9.86)">
                <path id="Trazado_185302" data-name="Trazado 185302" d="M-172.9,367.521c-1.375-3.6-2.915-7.371-4.327-10.93a13.754,13.754,0,0,1-.854-4.238c-.441-6.2-.2-13.187-.288-19.79-.021-1.643.22-3.213.323-4.815a20.277,20.277,0,0,0-2.721-11.616c-.154-.263.038-.589-.287-.682-.118-.021-.122.081-.183.118q-1.85.012-3.686.037a15.248,15.248,0,0,0,.522,1.641c.252.738.466,1.485.733,2.16a41.46,41.46,0,0,1,1.588,4.259,29.745,29.745,0,0,1,.487,10.7c-.2,1.846-.492,3.562-.7,5.292a31.586,31.586,0,0,0,.023,5.62c.2,3.544.6,7.033,1.1,10.471a21.532,21.532,0,0,0,1.089,4.671,41.355,41.355,0,0,0,1.838,4.022c1.325,2.582,2.678,5.162,3.864,7.865a106.366,106.366,0,0,1,4.136,11.408c.735-.243,1.472-.486,2.213-.723A138.546,138.546,0,0,0-172.9,367.521Z" transform="translate(199.602 -315.447)" fill="#1d7e96"/>
                <path id="Trazado_185303" data-name="Trazado 185303" d="M-199.674,333.74c-.077.023-6.4,18.453-6.981,23.933a37.947,37.947,0,0,0,.374,8.316,157.814,157.814,0,0,1,1.43,16.1c.078,2.691.2,5.556.434,8.316a29.477,29.477,0,0,0,.424,3.519q1.17.016,2.344.041c.013-6.849.33-13.553-.036-20.089-.266-4.772-.8-9.293-1.061-14.072a31.717,31.717,0,0,1-.038-5.008c.195-1.852,2.4-11.76,3.189-13.115C-199.6,341.68-199.624,333.73-199.674,333.74Z" transform="translate(206.76 -321.445)" fill="#1d7e96"/>
              </g>
            </g>
          </g>
          <g id="Grupo_125256" data-name="Grupo 125256">
            <g id="Grupo_125251" data-name="Grupo 125251" transform="translate(49.311 18.298)">
              <path id="Trazado_185304" data-name="Trazado 185304" d="M-186.447,233.916a5.879,5.879,0,0,1-1.387.912,46.145,46.145,0,0,0-4.006,2.954,24.222,24.222,0,0,0-2.526,2.289,9.228,9.228,0,0,0-2.121,2.968,32.976,32.976,0,0,0-1.449,6.617c-.342,2.1-.56,4.185-1.036,6.351a2.034,2.034,0,0,1-1.523.261,48.2,48.2,0,0,1-5.288-.88c.078-1.307,1.535-1.953,1.506-3.321-.021-.939-1.252-1.563-.971-2.851.3-1.368,1.8-2.018,2.174-3.506.257-1.034-.2-2.157.355-3.559a10.571,10.571,0,0,1,2.933-3.445,44.758,44.758,0,0,1,6.715-5.3c1.605-.982,3.621-1.6,5.556-.373C-187.122,233.287-186.874,233.661-186.447,233.916Z" transform="translate(205.782 -232.354)" fill="#12263f" fill-rule="evenodd"/>
              <g id="Grupo_125250" data-name="Grupo 125250" transform="translate(2.144 1.343)">
                <path id="Trazado_185305" data-name="Trazado 185305" d="M-187.8,248.041c-1.063,3.766-1.822,7.37-3.069,11.235-.05.311-.208-.074-.317.127a88.239,88.239,0,0,1-6.293,7.2c-.309.3-.732.655-1.147,1.041-.376.349-.8.95-1.2.857-.525-.122-.7-1.382-.727-2a36.672,36.672,0,0,1,.8-7.59c.288-1.688.573-3.5,1.063-5.343.5-1.883,1.151-3.774,1.7-5.6-1.973-.417-3.521-1.559-3.668-3.111a3.486,3.486,0,0,1,.406-1.709,11.654,11.654,0,0,1,2.294-2.806,37.906,37.906,0,0,1,5.176-4.431,6.583,6.583,0,0,1,6.118-1.313,7.081,7.081,0,0,1,3.554,2.02,6.708,6.708,0,0,1,.806,7.244C-183.451,246.53-185.561,247.238-187.8,248.041Z" transform="translate(201.963 -234.352)" fill="#f2a8a0" fill-rule="evenodd"/>
                <path id="Trazado_185306" data-name="Trazado 185306" d="M-201.894,281.8c.6.231,1.414-.318,1.932-.692a16.278,16.278,0,0,0,1.629-1.34,84.17,84.17,0,0,0,8.019-9.691c-.472-.212-.966-.419-1.477-.62-2.48,2.811-4.817,6.056-7.469,8.419a2.41,2.41,0,0,1-1.407.8,5.984,5.984,0,0,1-.3-2.868,72.15,72.15,0,0,1,1.051-9.011c-.421-.1-.66-.147-1.06-.221a74.95,74.95,0,0,0-1.571,11.7C-202.574,279.15-202.8,281.449-201.894,281.8Z" transform="translate(202.592 -244.915)" fill="#fcce7c"/>
                <g id="Grupo_125248" data-name="Grupo 125248" transform="translate(4.328 13.625)">
                  <path id="Trazado_185307" data-name="Trazado 185307" d="M-195.516,254.623l2.593.161-3.23,1.943Z" transform="translate(196.153 -254.623)" fill="#d16e66" fill-rule="evenodd"/>
                </g>
                <g id="Grupo_125249" data-name="Grupo 125249" transform="translate(3.459 1.929)">
                  <path id="Trazado_185308" data-name="Trazado 185308" d="M-192.442,237.274c-.116.163.294.654.915,1.1s1.218.675,1.334.513-.294-.653-.914-1.1-1.219-.673-1.335-.512" transform="translate(195.812 -237.222)" fill="#12263f" fill-rule="evenodd"/>
                  <path id="Trazado_185309" data-name="Trazado 185309" d="M-193.66,240.7a.556.556,0,0,0-.083.762.555.555,0,0,0,.751-.153.554.554,0,0,0,.083-.76.553.553,0,0,0-.751.152" transform="translate(196.271 -238.282)" fill="#12263f" fill-rule="evenodd"/>
                  <path id="Trazado_185310" data-name="Trazado 185310" d="M-189.944,244.328a.556.556,0,0,0-.083.762.557.557,0,0,0,.751-.153.554.554,0,0,0,.081-.762.556.556,0,0,0-.749.153" transform="translate(195.052 -239.472)" fill="#12263f" fill-rule="evenodd"/>
                  <path id="Trazado_185311" data-name="Trazado 185311" d="M-195.4,245.778a.121.121,0,0,1-.029-.03,1.1,1.1,0,0,1-.267-.847c.082-.562.666-.983,1.4-1.518a12.194,12.194,0,0,0,1.493-1.209.228.228,0,0,1,.323,0,.23.23,0,0,1,0,.325,12.786,12.786,0,0,1-1.545,1.253c-.625.452-1.166.843-1.221,1.211a.681.681,0,0,0,.179.5.231.231,0,0,1-.043.322.227.227,0,0,1-.292-.013" transform="translate(196.874 -238.824)" fill="#d16e66"/>
                  <path id="Trazado_185312" data-name="Trazado 185312" d="M-196.914,248.957a2.955,2.955,0,0,1-.5-.6.23.23,0,0,1,.07-.317.228.228,0,0,1,.317.071c.722,1.136,1.54.86,1.575.848a.231.231,0,0,1,.293.136.227.227,0,0,1-.134.293,1.628,1.628,0,0,1-1.624-.427" transform="translate(197.446 -240.755)" fill="#d16e66"/>
                  <path id="Trazado_185313" data-name="Trazado 185313" d="M-187.848,240.909c-.155.124.1.709.577,1.307s.986.985,1.141.86-.1-.709-.577-1.309-.985-.983-1.142-.858" transform="translate(194.314 -238.423)" fill="#12263f" fill-rule="evenodd"/>
                </g>
              </g>
              <path id="Trazado_185314" data-name="Trazado 185314" d="M-172.021,269.913c-3.3-.681-14.3-2.986-14.3-2.986a29.219,29.219,0,0,0-2.826-7.238c-1.456-2.526-3.13-3.673-2.4-6.657a22.1,22.1,0,0,1,2.09-4.7,21.346,21.346,0,0,1,2.5-3.853c.011-.288-.221-.469-.339-.714a8.65,8.65,0,0,1-.768-2.232,9.647,9.647,0,0,1,2.02-7.22c.834.029,1.641-.112,2.521-.07a16.676,16.676,0,0,1,2.988.4c3.421.82,4.877,2.994,5.164,5.508.263,2.305-1.116,4.351-2.185,6.114-.524.866-1.252,2-1.011,2.972.278,1.12,3.952,2.844,4.193,6.459a13.1,13.1,0,0,1-.519,3.176,4.347,4.347,0,0,0,.382,3.5c.684.847,1.816,1.257,2.495,2.034C-170.766,265.854-170.962,267.641-172.021,269.913Z" transform="translate(201.174 -232.971)" fill="#12263f" fill-rule="evenodd"/>
            </g>
            <g id="Grupo_125252" data-name="Grupo 125252" transform="translate(0 10.362)">
              <path id="Trazado_185315" data-name="Trazado 185315" d="M-267.955,232.457c.12.12,1.271,2.675,2.334,4.98a6.006,6.006,0,0,1,3.157-3.142c-1.227-2.166-2.569-4.709-2.724-6a18.485,18.485,0,0,0-.442-2.957c-.21-.709-.7-1.276-1.029-2.139-.241-.62-.518-2.066-1.107-2.025-.62.04-.643,1.059-.5,1.909a7.078,7.078,0,0,1,.217,2.466c-.291-.087-.6-.189-.912-.281a4.168,4.168,0,0,1-1.631-.836c-1.227-.971-2.274-2.01-3.47-2.933a6.47,6.47,0,0,0-1.553-.942c-.143-.037-.462.073-.333.584a3.622,3.622,0,0,0,.928,1.241c.743.784,1.465,1.386,2.168,2.043.372.35.815.627.953,1.094-.318.073-.55-.18-.774-.305-1.28-.71-2.373-1.329-3.625-2.138-.274-.173-1.713-.95-1.923-.5-.278.594.853,1.306,1.181,1.54,1.279.913,2.824,1.85,3.82,2.641.029.009.046.033.087.026,0,.016,0,.032.007.048-.03-.025-.061-.051-.094-.074a.032.032,0,0,0-.015,0c-1.379-.555-2.695-.94-4.212-1.608a2.762,2.762,0,0,0-1.489-.282c-.689.407.507,1.151.959,1.428,1.569.963,3.455,1.746,4.851,2.56-1.456.181-2.959.208-4.283.281-.476.025-1.262-.005-1.387.327-.252.663.792.825,1.256.9.581.089,1.265.077,1.8.132.555.058,1.153.154,1.76.188a12.4,12.4,0,0,1,1.843.077,6.544,6.544,0,0,1,.989.459c.692.292,1.464.549,2.154.8A3.385,3.385,0,0,1-267.955,232.457Z" transform="translate(279.146 -220.547)" fill="#f2a8a0" fill-rule="evenodd"/>
              <path id="Trazado_185316" data-name="Trazado 185316" d="M-269.655,232.045a2.069,2.069,0,0,1-.367-.756,4.466,4.466,0,0,1,1.483-4.1A6.508,6.508,0,0,0-269.655,232.045Z" transform="translate(276.181 -222.726)" fill="#d16e66" fill-rule="evenodd"/>
              <path id="Trazado_185317" data-name="Trazado 185317" d="M-262.881,227.984a7.286,7.286,0,0,0,.81,4.578C-263.425,232-263.8,229.024-262.881,227.984Z" transform="translate(273.978 -222.986)" fill="#d16e66" fill-rule="evenodd"/>
            </g>
            <path id="Trazado_185318" data-name="Trazado 185318" d="M-249.233,217.8c.107.131.979,2.795,1.788,5.2a6.013,6.013,0,0,1,3.476-2.786c-.988-2.283-2.049-4.953-2.065-6.26a18.459,18.459,0,0,0-.126-2.986c-.134-.727-.557-1.343-.794-2.236-.173-.646-.3-2.111-.884-2.134-.622-.025-.753.987-.7,1.847a7,7,0,0,1-.048,2.473c-.281-.118-.579-.251-.876-.375a4.15,4.15,0,0,1-1.53-1c-1.118-1.1-2.05-2.244-3.138-3.289a6.544,6.544,0,0,0-1.444-1.1c-.138-.05-.468.027-.394.546a3.588,3.588,0,0,0,.79,1.332c.655.86,1.307,1.535,1.937,2.264.335.388.744.71.827,1.188-.321.041-.524-.239-.735-.386-1.2-.844-2.215-1.575-3.377-2.512-.249-.2-1.6-1.129-1.856-.705-.34.561.709,1.39,1.01,1.658,1.172,1.045,2.609,2.139,3.517,3.033.026.012.042.04.083.036,0,.015,0,.032,0,.048-.026-.028-.055-.056-.083-.084a.053.053,0,0,0-.016-.006c-1.312-.7-2.578-1.22-4.015-2.048a2.762,2.762,0,0,0-1.452-.439c-.729.331.382,1.2.8,1.522,1.459,1.125,3.25,2.1,4.551,3.063-1.467.025-2.964-.107-4.289-.179-.475-.028-1.254-.14-1.415.176-.321.633.7.905,1.153,1.026.569.151,1.249.212,1.778.324.548.117,1.131.278,1.732.377a12.527,12.527,0,0,1,1.821.274,6.336,6.336,0,0,1,.936.563c.657.361,1.4.7,2.056,1.02A3.341,3.341,0,0,1-249.233,217.8Z" transform="translate(272.788 -205.131)" fill="#f2a8a0" fill-rule="evenodd"/>
            <g id="Grupo_125255" data-name="Grupo 125255" transform="translate(9.772 10.03)">
              <g id="Grupo_125254" data-name="Grupo 125254">
                <g id="Grupo_125253" data-name="Grupo 125253">
                  <path id="Trazado_185319" data-name="Trazado 185319" d="M-244.6,220.092a61.874,61.874,0,0,0,12.187,13.66c6.918,6.075,14.592,11.3,19.03,19.778a60.761,60.761,0,0,1,3.711,9.083,59.211,59.211,0,0,1,2.895,16.139c.046,1.02.027,2.048.032,3.115,0,.966-.09,2.139-.147,2.988a100.428,100.428,0,0,1-12.049.813c-4.191.156-8.526.071-12.878-.186-.041-4.6-.1-9.195-.134-13.8-.013-1.671-1.715-3.124-1.721-4.8-.007-1.7,1.682-3.622,1.686-5.33,0,0-1.682-.829-2.59-1.235-2.535-1.131-5.2-2.328-7.586-3.7a64.458,64.458,0,0,1-8.8-6.176A61.739,61.739,0,0,1-264.607,234.3a9.471,9.471,0,0,1,1.683-1.237c1.653-1.113,3.38-2.328,5.1-3.453,4.866,6.839,11.562,11.951,19.761,15.645a103.6,103.6,0,0,1-14.882-19.66,19.915,19.915,0,0,1,1.994-1.407c1.977-1.335,4.1-2.791,6.161-4.035C-244.753,220.128-244.665,219.986-244.6,220.092Z" transform="translate(264.607 -220.053)" fill="#ffbf76" fill-rule="evenodd"/>
                </g>
                <path id="Trazado_185320" data-name="Trazado 185320" d="M-180.136,302.718c0-1.067.015-2.1-.032-3.115A59.276,59.276,0,0,0-183,283.65c.006.036.011.071.02.106a59.192,59.192,0,0,1,.526,16.391c-.1,1.016-.267,2.03-.419,3.088-.132.928-.382,2.035-.56,2.857,1.073-.1,2.126-.218,3.154-.384C-180.226,304.858-180.133,303.684-180.136,302.718Z" transform="translate(237.994 -240.904)" fill="#ff8900"/>
                <path id="Trazado_185321" data-name="Trazado 185321" d="M-226.839,256.692q-1.827-.823-3.55-1.745c.43.622.85,1.258,1.225,1.922,1.048,1.861,2.081,3.774,3.069,5.827a81.684,81.684,0,0,1,3.8,9.549c.771.367,1.526.74,1.526.74.066-.744.093-1.065.113-1.77C-220.445,263.681-222.876,260.32-226.839,256.692Z" transform="translate(253.388 -231.493)" fill="#ff8900"/>
              </g>
              <path id="Trazado_185322" data-name="Trazado 185322" d="M-208.3,294.127c4.962,3.051,8.556-3.156,8.556-3.156C-204.561,294.974-208.3,294.127-208.3,294.127Z" transform="translate(246.147 -243.304)" fill="#ff8900" fill-rule="evenodd"/>
            </g>
          </g>
        </g>
      </g>
    </g>
  </g>
</svg>
